%FSLAX45Y45*%
G04 Gerber Fmt 4.5, Leading zero omitted, Abs format (unit mm)*
G04 Created by KiCad (PCBNEW (5.1.2-1)-1) date 2020-04-01 22:23:00*
%MOMM*%
%LPD*%
G04 APERTURE LIST*
%ADD10C,0.050000*%
%ADD11C,0.200000*%
%ADD12C,0.300000*%
G04 APERTURE END LIST*
D10*
X1200000Y-1350000D02*
X1200000Y-5550000D01*
X1350000Y-1200000D02*
X1200000Y-1350000D01*
X7550000Y-1200000D02*
X1350000Y-1200000D01*
X7700000Y-1350000D02*
X7550000Y-1200000D01*
X7700000Y-1850000D02*
X7700000Y-1350000D01*
X7550000Y-2000000D02*
X7700000Y-1850000D01*
X7350000Y-2000000D02*
X7550000Y-2000000D01*
X7200000Y-2150000D02*
X7350000Y-2000000D01*
X7200000Y-4750000D02*
X7200000Y-2150000D01*
X7350000Y-4900000D02*
X7200000Y-4750000D01*
X7550000Y-4900000D02*
X7350000Y-4900000D01*
X7700000Y-5050000D02*
X7550000Y-4900000D01*
X7700000Y-5550000D02*
X7700000Y-5050000D01*
X7550000Y-5700000D02*
X7700000Y-5550000D01*
X1350000Y-5700000D02*
X7550000Y-5700000D01*
X1200000Y-5550000D02*
X1350000Y-5700000D01*
D11*
X1785000Y-2085000D02*
X1815000Y-2115000D01*
X1815000Y-2085000D02*
X1785000Y-2115000D01*
X1785000Y-2185000D02*
X1815000Y-2215000D01*
X1815000Y-2185000D02*
X1785000Y-2215000D01*
X1785000Y-2285000D02*
X1815000Y-2315000D01*
X1815000Y-2285000D02*
X1785000Y-2315000D01*
X1785000Y-2385000D02*
X1815000Y-2415000D01*
X1815000Y-2385000D02*
X1785000Y-2415000D01*
X1785000Y-2485000D02*
X1815000Y-2515000D01*
X1815000Y-2485000D02*
X1785000Y-2515000D01*
X1785000Y-2585000D02*
X1815000Y-2615000D01*
X1815000Y-2585000D02*
X1785000Y-2615000D01*
X1785000Y-2685000D02*
X1815000Y-2715000D01*
X1815000Y-2685000D02*
X1785000Y-2715000D01*
X1785000Y-2785000D02*
X1815000Y-2815000D01*
X1815000Y-2785000D02*
X1785000Y-2815000D01*
X1785000Y-2885000D02*
X1815000Y-2915000D01*
X1815000Y-2885000D02*
X1785000Y-2915000D01*
X1785000Y-2985000D02*
X1815000Y-3015000D01*
X1815000Y-2985000D02*
X1785000Y-3015000D01*
X1885000Y-2085000D02*
X1915000Y-2115000D01*
X1915000Y-2085000D02*
X1885000Y-2115000D01*
X1885000Y-2185000D02*
X1915000Y-2215000D01*
X1915000Y-2185000D02*
X1885000Y-2215000D01*
X1885000Y-2285000D02*
X1915000Y-2315000D01*
X1915000Y-2285000D02*
X1885000Y-2315000D01*
X1885000Y-2385000D02*
X1915000Y-2415000D01*
X1915000Y-2385000D02*
X1885000Y-2415000D01*
X1885000Y-2485000D02*
X1915000Y-2515000D01*
X1915000Y-2485000D02*
X1885000Y-2515000D01*
X1885000Y-2585000D02*
X1915000Y-2615000D01*
X1915000Y-2585000D02*
X1885000Y-2615000D01*
X1885000Y-2685000D02*
X1915000Y-2715000D01*
X1915000Y-2685000D02*
X1885000Y-2715000D01*
X1885000Y-2785000D02*
X1915000Y-2815000D01*
X1915000Y-2785000D02*
X1885000Y-2815000D01*
X1885000Y-2885000D02*
X1915000Y-2915000D01*
X1915000Y-2885000D02*
X1885000Y-2915000D01*
X1885000Y-2985000D02*
X1915000Y-3015000D01*
X1915000Y-2985000D02*
X1885000Y-3015000D01*
X1985000Y-2085000D02*
X2015000Y-2115000D01*
X2015000Y-2085000D02*
X1985000Y-2115000D01*
X1985000Y-2185000D02*
X2015000Y-2215000D01*
X2015000Y-2185000D02*
X1985000Y-2215000D01*
X1985000Y-2285000D02*
X2015000Y-2315000D01*
X2015000Y-2285000D02*
X1985000Y-2315000D01*
X1985000Y-2385000D02*
X2015000Y-2415000D01*
X2015000Y-2385000D02*
X1985000Y-2415000D01*
X1985000Y-2485000D02*
X2015000Y-2515000D01*
X2015000Y-2485000D02*
X1985000Y-2515000D01*
X1985000Y-2585000D02*
X2015000Y-2615000D01*
X2015000Y-2585000D02*
X1985000Y-2615000D01*
X1985000Y-2685000D02*
X2015000Y-2715000D01*
X2015000Y-2685000D02*
X1985000Y-2715000D01*
X1985000Y-2785000D02*
X2015000Y-2815000D01*
X2015000Y-2785000D02*
X1985000Y-2815000D01*
X1985000Y-2885000D02*
X2015000Y-2915000D01*
X2015000Y-2885000D02*
X1985000Y-2915000D01*
X1985000Y-2985000D02*
X2015000Y-3015000D01*
X2015000Y-2985000D02*
X1985000Y-3015000D01*
X2485000Y-2135000D02*
X2515000Y-2165000D01*
X2515000Y-2135000D02*
X2485000Y-2165000D01*
X2685000Y-1885000D02*
X2715000Y-1915000D01*
X2715000Y-1885000D02*
X2685000Y-1915000D01*
X3085000Y-2435000D02*
X3115000Y-2465000D01*
X3115000Y-2435000D02*
X3085000Y-2465000D01*
X3185000Y-3835000D02*
X3215000Y-3865000D01*
X3215000Y-3835000D02*
X3185000Y-3865000D01*
X3235000Y-1560000D02*
X3265000Y-1590000D01*
X3265000Y-1560000D02*
X3235000Y-1590000D01*
X3235000Y-2010000D02*
X3265000Y-2040000D01*
X3265000Y-2010000D02*
X3235000Y-2040000D01*
X3285000Y-1260000D02*
X3315000Y-1290000D01*
X3315000Y-1260000D02*
X3285000Y-1290000D01*
X3285000Y-1710000D02*
X3315000Y-1740000D01*
X3315000Y-1710000D02*
X3285000Y-1740000D01*
X3335000Y-1560000D02*
X3365000Y-1590000D01*
X3365000Y-1560000D02*
X3335000Y-1590000D01*
X3335000Y-2010000D02*
X3365000Y-2040000D01*
X3365000Y-2010000D02*
X3335000Y-2040000D01*
X3385000Y-1260000D02*
X3415000Y-1290000D01*
X3415000Y-1260000D02*
X3385000Y-1290000D01*
X3385000Y-1710000D02*
X3415000Y-1740000D01*
X3415000Y-1710000D02*
X3385000Y-1740000D01*
X3435000Y-1560000D02*
X3465000Y-1590000D01*
X3465000Y-1560000D02*
X3435000Y-1590000D01*
X3435000Y-2010000D02*
X3465000Y-2040000D01*
X3465000Y-2010000D02*
X3435000Y-2040000D01*
X3447500Y-2585000D02*
X3477500Y-2615000D01*
X3477500Y-2585000D02*
X3447500Y-2615000D01*
X3485000Y-1260000D02*
X3515000Y-1290000D01*
X3515000Y-1260000D02*
X3485000Y-1290000D01*
X3485000Y-1710000D02*
X3515000Y-1740000D01*
X3515000Y-1710000D02*
X3485000Y-1740000D01*
X3485000Y-3060000D02*
X3515000Y-3090000D01*
X3515000Y-3060000D02*
X3485000Y-3090000D01*
X3535000Y-1560000D02*
X3565000Y-1590000D01*
X3565000Y-1560000D02*
X3535000Y-1590000D01*
X3535000Y-2010000D02*
X3565000Y-2040000D01*
X3565000Y-2010000D02*
X3535000Y-2040000D01*
X3535000Y-2960000D02*
X3565000Y-2990000D01*
X3565000Y-2960000D02*
X3535000Y-2990000D01*
X3535000Y-4285000D02*
X3565000Y-4315000D01*
X3565000Y-4285000D02*
X3535000Y-4315000D01*
X3585000Y-1260000D02*
X3615000Y-1290000D01*
X3615000Y-1260000D02*
X3585000Y-1290000D01*
X3585000Y-1710000D02*
X3615000Y-1740000D01*
X3615000Y-1710000D02*
X3585000Y-1740000D01*
X3635000Y-1560000D02*
X3665000Y-1590000D01*
X3665000Y-1560000D02*
X3635000Y-1590000D01*
X3635000Y-2010000D02*
X3665000Y-2040000D01*
X3665000Y-2010000D02*
X3635000Y-2040000D01*
X3635000Y-4860000D02*
X3665000Y-4890000D01*
X3665000Y-4860000D02*
X3635000Y-4890000D01*
X3635000Y-5310000D02*
X3665000Y-5340000D01*
X3665000Y-5310000D02*
X3635000Y-5340000D01*
X3685000Y-1260000D02*
X3715000Y-1290000D01*
X3715000Y-1260000D02*
X3685000Y-1290000D01*
X3685000Y-1710000D02*
X3715000Y-1740000D01*
X3715000Y-1710000D02*
X3685000Y-1740000D01*
X3685000Y-5160000D02*
X3715000Y-5190000D01*
X3715000Y-5160000D02*
X3685000Y-5190000D01*
X3685000Y-5609999D02*
X3715000Y-5639999D01*
X3715000Y-5609999D02*
X3685000Y-5639999D01*
X3735000Y-1560000D02*
X3765000Y-1590000D01*
X3765000Y-1560000D02*
X3735000Y-1590000D01*
X3735000Y-2010000D02*
X3765000Y-2040000D01*
X3765000Y-2010000D02*
X3735000Y-2040000D01*
X3735000Y-4860001D02*
X3765000Y-4890001D01*
X3765000Y-4860001D02*
X3735000Y-4890001D01*
X3735000Y-5310000D02*
X3765000Y-5340000D01*
X3765000Y-5310000D02*
X3735000Y-5340000D01*
X3785000Y-1260000D02*
X3815000Y-1290000D01*
X3815000Y-1260000D02*
X3785000Y-1290000D01*
X3785000Y-1710000D02*
X3815000Y-1740000D01*
X3815000Y-1710000D02*
X3785000Y-1740000D01*
X3785000Y-3210000D02*
X3815000Y-3240000D01*
X3815000Y-3210000D02*
X3785000Y-3240000D01*
X3785000Y-3510000D02*
X3815000Y-3540000D01*
X3815000Y-3510000D02*
X3785000Y-3540000D01*
X3785000Y-5160000D02*
X3815000Y-5190000D01*
X3815000Y-5160000D02*
X3785000Y-5190000D01*
X3785000Y-5610000D02*
X3815000Y-5640000D01*
X3815000Y-5610000D02*
X3785000Y-5640000D01*
X3822500Y-4010000D02*
X3852500Y-4040000D01*
X3852500Y-4010000D02*
X3822500Y-4040000D01*
X3835000Y-1560000D02*
X3865000Y-1590000D01*
X3865000Y-1560000D02*
X3835000Y-1590000D01*
X3835000Y-2010000D02*
X3865000Y-2040000D01*
X3865000Y-2010000D02*
X3835000Y-2040000D01*
X3835000Y-4860001D02*
X3865000Y-4890001D01*
X3865000Y-4860001D02*
X3835000Y-4890001D01*
X3835000Y-5310000D02*
X3865000Y-5340000D01*
X3865000Y-5310000D02*
X3835000Y-5340000D01*
X3885000Y-1260000D02*
X3915000Y-1290000D01*
X3915000Y-1260000D02*
X3885000Y-1290000D01*
X3885000Y-1710000D02*
X3915000Y-1740000D01*
X3915000Y-1710000D02*
X3885000Y-1740000D01*
X3885000Y-5160000D02*
X3915000Y-5190000D01*
X3915000Y-5160000D02*
X3885000Y-5190000D01*
X3885000Y-5610000D02*
X3915000Y-5640000D01*
X3915000Y-5610000D02*
X3885000Y-5640000D01*
X3935000Y-1560000D02*
X3965000Y-1590000D01*
X3965000Y-1560000D02*
X3935000Y-1590000D01*
X3935000Y-2010000D02*
X3965000Y-2040000D01*
X3965000Y-2010000D02*
X3935000Y-2040000D01*
X3935000Y-4860000D02*
X3965000Y-4890000D01*
X3965000Y-4860000D02*
X3935000Y-4890000D01*
X3935000Y-5310000D02*
X3965000Y-5340000D01*
X3965000Y-5310000D02*
X3935000Y-5340000D01*
X3959680Y-4072500D02*
X3989680Y-4102500D01*
X3989680Y-4072500D02*
X3959680Y-4102500D01*
X3960000Y-2585000D02*
X3990000Y-2615000D01*
X3990000Y-2585000D02*
X3960000Y-2615000D01*
X3985000Y-1260000D02*
X4015000Y-1290000D01*
X4015000Y-1260000D02*
X3985000Y-1290000D01*
X3985000Y-1710000D02*
X4015000Y-1740000D01*
X4015000Y-1710000D02*
X3985000Y-1740000D01*
X3985000Y-2287700D02*
X4015000Y-2317700D01*
X4015000Y-2287700D02*
X3985000Y-2317700D01*
X3985000Y-5160000D02*
X4015000Y-5190000D01*
X4015000Y-5160000D02*
X3985000Y-5190000D01*
X3985000Y-5610000D02*
X4015000Y-5640000D01*
X4015000Y-5610000D02*
X3985000Y-5640000D01*
X3997500Y-3672500D02*
X4027500Y-3702500D01*
X4027500Y-3672500D02*
X3997500Y-3702500D01*
X4010000Y-2522500D02*
X4040000Y-2552500D01*
X4040000Y-2522500D02*
X4010000Y-2552500D01*
X4035000Y-1560000D02*
X4065000Y-1590000D01*
X4065000Y-1560000D02*
X4035000Y-1590000D01*
X4035000Y-2010000D02*
X4065000Y-2040000D01*
X4065000Y-2010000D02*
X4035000Y-2040000D01*
X4035000Y-4859999D02*
X4065000Y-4889999D01*
X4065000Y-4859999D02*
X4035000Y-4889999D01*
X4035000Y-5310000D02*
X4065000Y-5340000D01*
X4065000Y-5310000D02*
X4035000Y-5340000D01*
X4060001Y-2585000D02*
X4090001Y-2615000D01*
X4090001Y-2585000D02*
X4060001Y-2615000D01*
X4085000Y-1260000D02*
X4115000Y-1290000D01*
X4115000Y-1260000D02*
X4085000Y-1290000D01*
X4085000Y-1710000D02*
X4115000Y-1740000D01*
X4115000Y-1710000D02*
X4085000Y-1740000D01*
X4085000Y-5160000D02*
X4115000Y-5190000D01*
X4115000Y-5160000D02*
X4085000Y-5190000D01*
X4085000Y-5610000D02*
X4115000Y-5640000D01*
X4115000Y-5610000D02*
X4085000Y-5640000D01*
X4135000Y-1560000D02*
X4165000Y-1590000D01*
X4165000Y-1560000D02*
X4135000Y-1590000D01*
X4135000Y-2010000D02*
X4165000Y-2040000D01*
X4165000Y-2010000D02*
X4135000Y-2040000D01*
X4135000Y-4859999D02*
X4165000Y-4889999D01*
X4165000Y-4859999D02*
X4135000Y-4889999D01*
X4135000Y-5310000D02*
X4165000Y-5340000D01*
X4165000Y-5310000D02*
X4135000Y-5340000D01*
X4160950Y-2522500D02*
X4190950Y-2552500D01*
X4190950Y-2522500D02*
X4160950Y-2552500D01*
X4185000Y-1260000D02*
X4215000Y-1290000D01*
X4215000Y-1260000D02*
X4185000Y-1290000D01*
X4185000Y-1710000D02*
X4215000Y-1740000D01*
X4215000Y-1710000D02*
X4185000Y-1740000D01*
X4185000Y-5160000D02*
X4215000Y-5190000D01*
X4215000Y-5160000D02*
X4185000Y-5190000D01*
X4185000Y-5610000D02*
X4215000Y-5640000D01*
X4215000Y-5610000D02*
X4185000Y-5640000D01*
X4219066Y-4269066D02*
X4249066Y-4299066D01*
X4249066Y-4269066D02*
X4219066Y-4299066D01*
X4222500Y-4422500D02*
X4252500Y-4452500D01*
X4252500Y-4422500D02*
X4222500Y-4452500D01*
X4235000Y-1560000D02*
X4265000Y-1590000D01*
X4265000Y-1560000D02*
X4235000Y-1590000D01*
X4235000Y-2010000D02*
X4265000Y-2040000D01*
X4265000Y-2010000D02*
X4235000Y-2040000D01*
X4235000Y-4860000D02*
X4265000Y-4890000D01*
X4265000Y-4860000D02*
X4235000Y-4890000D01*
X4235000Y-5310000D02*
X4265000Y-5340000D01*
X4265000Y-5310000D02*
X4235000Y-5340000D01*
X4285000Y-1260000D02*
X4315000Y-1290000D01*
X4315000Y-1260000D02*
X4285000Y-1290000D01*
X4285000Y-1710000D02*
X4315000Y-1740000D01*
X4315000Y-1710000D02*
X4285000Y-1740000D01*
X4285000Y-2135000D02*
X4315000Y-2165000D01*
X4315000Y-2135000D02*
X4285000Y-2165000D01*
X4285000Y-4497500D02*
X4315000Y-4527500D01*
X4315000Y-4497500D02*
X4285000Y-4527500D01*
X4285000Y-5160000D02*
X4315000Y-5190000D01*
X4315000Y-5160000D02*
X4285000Y-5190000D01*
X4285000Y-5610000D02*
X4315000Y-5640000D01*
X4315000Y-5610000D02*
X4285000Y-5640000D01*
X4335000Y-1560000D02*
X4365000Y-1590000D01*
X4365000Y-1560000D02*
X4335000Y-1590000D01*
X4335000Y-2010000D02*
X4365000Y-2040000D01*
X4365000Y-2010000D02*
X4335000Y-2040000D01*
X4335000Y-2335000D02*
X4365000Y-2365000D01*
X4365000Y-2335000D02*
X4335000Y-2365000D01*
X4335000Y-4610000D02*
X4365000Y-4640000D01*
X4365000Y-4610000D02*
X4335000Y-4640000D01*
X4335000Y-4860000D02*
X4365000Y-4890000D01*
X4365000Y-4860000D02*
X4335000Y-4890000D01*
X4335000Y-5310000D02*
X4365000Y-5340000D01*
X4365000Y-5310000D02*
X4335000Y-5340000D01*
X4343906Y-4144226D02*
X4373906Y-4174226D01*
X4373906Y-4144226D02*
X4343906Y-4174226D01*
X4385000Y-1260000D02*
X4415000Y-1290000D01*
X4415000Y-1260000D02*
X4385000Y-1290000D01*
X4385000Y-1710000D02*
X4415000Y-1740000D01*
X4415000Y-1710000D02*
X4385000Y-1740000D01*
X4385000Y-5160000D02*
X4415000Y-5190000D01*
X4415000Y-5160000D02*
X4385000Y-5190000D01*
X4385000Y-5610000D02*
X4415000Y-5640000D01*
X4415000Y-5610000D02*
X4385000Y-5640000D01*
X4410000Y-2985000D02*
X4440000Y-3015000D01*
X4440000Y-2985000D02*
X4410000Y-3015000D01*
X4435000Y-1560000D02*
X4465000Y-1590000D01*
X4465000Y-1560000D02*
X4435000Y-1590000D01*
X4435000Y-2010000D02*
X4465000Y-2040000D01*
X4465000Y-2010000D02*
X4435000Y-2040000D01*
X4435000Y-4685000D02*
X4465000Y-4715000D01*
X4465000Y-4685000D02*
X4435000Y-4715000D01*
X4435000Y-4859999D02*
X4465000Y-4889999D01*
X4465000Y-4859999D02*
X4435000Y-4889999D01*
X4435000Y-5310000D02*
X4465000Y-5340000D01*
X4465000Y-5310000D02*
X4435000Y-5340000D01*
X4460000Y-2922500D02*
X4490000Y-2952500D01*
X4490000Y-2922500D02*
X4460000Y-2952500D01*
X4485000Y-2185000D02*
X4515000Y-2215000D01*
X4515000Y-2185000D02*
X4485000Y-2215000D01*
X4485000Y-5160001D02*
X4515000Y-5190001D01*
X4515000Y-5160001D02*
X4485000Y-5190001D01*
X4485000Y-5610000D02*
X4515000Y-5640000D01*
X4515000Y-5610000D02*
X4485000Y-5640000D01*
X4535000Y-2897500D02*
X4565000Y-2927500D01*
X4565000Y-2897500D02*
X4535000Y-2927500D01*
X4535000Y-4860000D02*
X4565000Y-4890000D01*
X4565000Y-4860000D02*
X4535000Y-4890000D01*
X4535000Y-5310000D02*
X4565000Y-5340000D01*
X4565000Y-5310000D02*
X4535000Y-5340000D01*
X4585000Y-4485000D02*
X4615000Y-4515000D01*
X4615000Y-4485000D02*
X4585000Y-4515000D01*
X4585000Y-5160000D02*
X4615000Y-5190000D01*
X4615000Y-5160000D02*
X4585000Y-5190000D01*
X4585000Y-5610000D02*
X4615000Y-5640000D01*
X4615000Y-5610000D02*
X4585000Y-5640000D01*
X4622500Y-2910000D02*
X4652500Y-2940000D01*
X4652500Y-2910000D02*
X4622500Y-2940000D01*
X4635000Y-4541780D02*
X4665000Y-4571780D01*
X4665000Y-4541780D02*
X4635000Y-4571780D01*
X4635000Y-4859999D02*
X4665000Y-4889999D01*
X4665000Y-4859999D02*
X4635000Y-4889999D01*
X4635000Y-5310000D02*
X4665000Y-5340000D01*
X4665000Y-5310000D02*
X4635000Y-5340000D01*
X4649500Y-2842500D02*
X4679500Y-2872500D01*
X4679500Y-2842500D02*
X4649500Y-2872500D01*
X4685000Y-5160000D02*
X4715000Y-5190000D01*
X4715000Y-5160000D02*
X4685000Y-5190000D01*
X4685000Y-5606777D02*
X4715000Y-5636777D01*
X4715000Y-5606777D02*
X4685000Y-5636777D01*
X4735000Y-4594640D02*
X4765000Y-4624640D01*
X4765000Y-4594640D02*
X4735000Y-4624640D01*
X4735000Y-4859999D02*
X4765000Y-4889999D01*
X4765000Y-4859999D02*
X4735000Y-4889999D01*
X4735000Y-5310000D02*
X4765000Y-5340000D01*
X4765000Y-5310000D02*
X4735000Y-5340000D01*
X4784484Y-5159484D02*
X4814484Y-5189484D01*
X4814484Y-5159484D02*
X4784484Y-5189484D01*
X4785000Y-5606776D02*
X4815000Y-5636776D01*
X4815000Y-5606776D02*
X4785000Y-5636776D01*
X4785505Y-4803437D02*
X4815505Y-4833437D01*
X4815505Y-4803437D02*
X4785505Y-4833437D01*
X4831859Y-4859443D02*
X4861859Y-4889443D01*
X4861859Y-4859443D02*
X4831859Y-4889443D01*
X4835000Y-5310321D02*
X4865000Y-5340321D01*
X4865000Y-5310321D02*
X4835000Y-5340321D01*
X4838480Y-2608100D02*
X4868480Y-2638100D01*
X4868480Y-2608100D02*
X4838480Y-2638100D01*
X4894975Y-2559050D02*
X4924975Y-2589050D01*
X4924975Y-2559050D02*
X4894975Y-2589050D01*
X4960000Y-2510000D02*
X4990000Y-2540000D01*
X4990000Y-2510000D02*
X4960000Y-2540000D01*
X4985000Y-3372500D02*
X5015000Y-3402500D01*
X5015000Y-3372500D02*
X4985000Y-3402500D01*
X5024160Y-2845840D02*
X5054160Y-2875840D01*
X5054160Y-2845840D02*
X5024160Y-2875840D01*
X5024160Y-3095840D02*
X5054160Y-3125840D01*
X5054160Y-3095840D02*
X5024160Y-3125840D01*
X5028141Y-5124307D02*
X5058141Y-5154307D01*
X5058141Y-5124307D02*
X5028141Y-5154307D01*
X5035000Y-2585000D02*
X5065000Y-2615000D01*
X5065000Y-2585000D02*
X5035000Y-2615000D01*
X5122500Y-5260000D02*
X5152500Y-5290000D01*
X5152500Y-5260000D02*
X5122500Y-5290000D01*
X5172821Y-5194297D02*
X5202821Y-5224297D01*
X5202821Y-5194297D02*
X5172821Y-5224297D01*
X5785000Y-1560000D02*
X5815000Y-1590000D01*
X5815000Y-1560000D02*
X5785000Y-1590000D01*
X5785000Y-2010000D02*
X5815000Y-2040000D01*
X5815000Y-2010000D02*
X5785000Y-2040000D01*
X5785000Y-4860000D02*
X5815000Y-4890000D01*
X5815000Y-4860000D02*
X5785000Y-4890000D01*
X5785000Y-5310000D02*
X5815000Y-5340000D01*
X5815000Y-5310000D02*
X5785000Y-5340000D01*
X5835000Y-1260000D02*
X5865000Y-1290000D01*
X5865000Y-1260000D02*
X5835000Y-1290000D01*
X5835000Y-1710000D02*
X5865000Y-1740000D01*
X5865000Y-1710000D02*
X5835000Y-1740000D01*
X5835000Y-5160000D02*
X5865000Y-5190000D01*
X5865000Y-5160000D02*
X5835000Y-5190000D01*
X5835000Y-5610000D02*
X5865000Y-5640000D01*
X5865000Y-5610000D02*
X5835000Y-5640000D01*
X5885000Y-1560000D02*
X5915000Y-1590000D01*
X5915000Y-1560000D02*
X5885000Y-1590000D01*
X5885000Y-2010000D02*
X5915000Y-2040000D01*
X5915000Y-2010000D02*
X5885000Y-2040000D01*
X5885000Y-4860000D02*
X5915000Y-4890000D01*
X5915000Y-4860000D02*
X5885000Y-4890000D01*
X5885000Y-5310000D02*
X5915000Y-5340000D01*
X5915000Y-5310000D02*
X5885000Y-5340000D01*
X5935000Y-1260000D02*
X5965000Y-1290000D01*
X5965000Y-1260000D02*
X5935000Y-1290000D01*
X5935000Y-1710000D02*
X5965000Y-1740000D01*
X5965000Y-1710000D02*
X5935000Y-1740000D01*
X5935000Y-5160000D02*
X5965000Y-5190000D01*
X5965000Y-5160000D02*
X5935000Y-5190000D01*
X5935000Y-5610000D02*
X5965000Y-5640000D01*
X5965000Y-5610000D02*
X5935000Y-5640000D01*
X5985000Y-1560000D02*
X6015000Y-1590000D01*
X6015000Y-1560000D02*
X5985000Y-1590000D01*
X5985000Y-2010000D02*
X6015000Y-2040000D01*
X6015000Y-2010000D02*
X5985000Y-2040000D01*
X5985000Y-4860000D02*
X6015000Y-4890000D01*
X6015000Y-4860000D02*
X5985000Y-4890000D01*
X5985000Y-5310000D02*
X6015000Y-5340000D01*
X6015000Y-5310000D02*
X5985000Y-5340000D01*
X6035000Y-1260000D02*
X6065000Y-1290000D01*
X6065000Y-1260000D02*
X6035000Y-1290000D01*
X6035000Y-1710000D02*
X6065000Y-1740000D01*
X6065000Y-1710000D02*
X6035000Y-1740000D01*
X6035000Y-5160000D02*
X6065000Y-5190000D01*
X6065000Y-5160000D02*
X6035000Y-5190000D01*
X6035000Y-5610000D02*
X6065000Y-5640000D01*
X6065000Y-5610000D02*
X6035000Y-5640000D01*
X6085000Y-1560000D02*
X6115000Y-1590000D01*
X6115000Y-1560000D02*
X6085000Y-1590000D01*
X6085000Y-2010000D02*
X6115000Y-2040000D01*
X6115000Y-2010000D02*
X6085000Y-2040000D01*
X6085000Y-4860000D02*
X6115000Y-4890000D01*
X6115000Y-4860000D02*
X6085000Y-4890000D01*
X6085000Y-5310000D02*
X6115000Y-5340000D01*
X6115000Y-5310000D02*
X6085000Y-5340000D01*
X6135000Y-1260000D02*
X6165000Y-1290000D01*
X6165000Y-1260000D02*
X6135000Y-1290000D01*
X6135000Y-1710000D02*
X6165000Y-1740000D01*
X6165000Y-1710000D02*
X6135000Y-1740000D01*
X6135000Y-5160000D02*
X6165000Y-5190000D01*
X6165000Y-5160000D02*
X6135000Y-5190000D01*
X6135000Y-5610000D02*
X6165000Y-5640000D01*
X6165000Y-5610000D02*
X6135000Y-5640000D01*
X6185000Y-1560000D02*
X6215000Y-1590000D01*
X6215000Y-1560000D02*
X6185000Y-1590000D01*
X6185000Y-2010000D02*
X6215000Y-2040000D01*
X6215000Y-2010000D02*
X6185000Y-2040000D01*
X6185000Y-4860000D02*
X6215000Y-4890000D01*
X6215000Y-4860000D02*
X6185000Y-4890000D01*
X6185000Y-5310000D02*
X6215000Y-5340000D01*
X6215000Y-5310000D02*
X6185000Y-5340000D01*
X6235000Y-1260000D02*
X6265000Y-1290000D01*
X6265000Y-1260000D02*
X6235000Y-1290000D01*
X6235000Y-1710000D02*
X6265000Y-1740000D01*
X6265000Y-1710000D02*
X6235000Y-1740000D01*
X6235000Y-5160000D02*
X6265000Y-5190000D01*
X6265000Y-5160000D02*
X6235000Y-5190000D01*
X6235000Y-5610000D02*
X6265000Y-5640000D01*
X6265000Y-5610000D02*
X6235000Y-5640000D01*
X6285000Y-1560000D02*
X6315000Y-1590000D01*
X6315000Y-1560000D02*
X6285000Y-1590000D01*
X6285000Y-2010000D02*
X6315000Y-2040000D01*
X6315000Y-2010000D02*
X6285000Y-2040000D01*
X6285000Y-4860000D02*
X6315000Y-4890000D01*
X6315000Y-4860000D02*
X6285000Y-4890000D01*
X6285000Y-5310000D02*
X6315000Y-5340000D01*
X6315000Y-5310000D02*
X6285000Y-5340000D01*
X6335000Y-1260000D02*
X6365000Y-1290000D01*
X6365000Y-1260000D02*
X6335000Y-1290000D01*
X6335000Y-1710000D02*
X6365000Y-1740000D01*
X6365000Y-1710000D02*
X6335000Y-1740000D01*
X6335000Y-5160000D02*
X6365000Y-5190000D01*
X6365000Y-5160000D02*
X6335000Y-5190000D01*
X6335000Y-5610000D02*
X6365000Y-5640000D01*
X6365000Y-5610000D02*
X6335000Y-5640000D01*
X6385000Y-1560000D02*
X6415000Y-1590000D01*
X6415000Y-1560000D02*
X6385000Y-1590000D01*
X6385000Y-2010000D02*
X6415000Y-2040000D01*
X6415000Y-2010000D02*
X6385000Y-2040000D01*
X6385000Y-4860000D02*
X6415000Y-4890000D01*
X6415000Y-4860000D02*
X6385000Y-4890000D01*
X6385000Y-5310000D02*
X6415000Y-5340000D01*
X6415000Y-5310000D02*
X6385000Y-5340000D01*
X6435000Y-1260000D02*
X6465000Y-1290000D01*
X6465000Y-1260000D02*
X6435000Y-1290000D01*
X6435000Y-1710000D02*
X6465000Y-1740000D01*
X6465000Y-1710000D02*
X6435000Y-1740000D01*
X6435000Y-5160000D02*
X6465000Y-5190000D01*
X6465000Y-5160000D02*
X6435000Y-5190000D01*
X6435000Y-5610000D02*
X6465000Y-5640000D01*
X6465000Y-5610000D02*
X6435000Y-5640000D01*
X6485000Y-1560000D02*
X6515000Y-1590000D01*
X6515000Y-1560000D02*
X6485000Y-1590000D01*
X6485000Y-2010000D02*
X6515000Y-2040000D01*
X6515000Y-2010000D02*
X6485000Y-2040000D01*
X6485000Y-4860000D02*
X6515000Y-4890000D01*
X6515000Y-4860000D02*
X6485000Y-4890000D01*
X6485000Y-5310000D02*
X6515000Y-5340000D01*
X6515000Y-5310000D02*
X6485000Y-5340000D01*
X6535000Y-1260000D02*
X6565000Y-1290000D01*
X6565000Y-1260000D02*
X6535000Y-1290000D01*
X6535000Y-1710000D02*
X6565000Y-1740000D01*
X6565000Y-1710000D02*
X6535000Y-1740000D01*
X6535000Y-5160000D02*
X6565000Y-5190000D01*
X6565000Y-5160000D02*
X6535000Y-5190000D01*
X6535000Y-5610000D02*
X6565000Y-5640000D01*
X6565000Y-5610000D02*
X6535000Y-5640000D01*
X6585000Y-1560000D02*
X6615000Y-1590000D01*
X6615000Y-1560000D02*
X6585000Y-1590000D01*
X6585000Y-2010000D02*
X6615000Y-2040000D01*
X6615000Y-2010000D02*
X6585000Y-2040000D01*
X6585000Y-4860000D02*
X6615000Y-4890000D01*
X6615000Y-4860000D02*
X6585000Y-4890000D01*
X6585000Y-5310000D02*
X6615000Y-5340000D01*
X6615000Y-5310000D02*
X6585000Y-5340000D01*
X6635000Y-1260000D02*
X6665000Y-1290000D01*
X6665000Y-1260000D02*
X6635000Y-1290000D01*
X6635000Y-1710000D02*
X6665000Y-1740000D01*
X6665000Y-1710000D02*
X6635000Y-1740000D01*
X6635000Y-5160000D02*
X6665000Y-5190000D01*
X6665000Y-5160000D02*
X6635000Y-5190000D01*
X6635000Y-5610000D02*
X6665000Y-5640000D01*
X6665000Y-5610000D02*
X6635000Y-5640000D01*
X6685000Y-1560000D02*
X6715000Y-1590000D01*
X6715000Y-1560000D02*
X6685000Y-1590000D01*
X6685000Y-2010000D02*
X6715000Y-2040000D01*
X6715000Y-2010000D02*
X6685000Y-2040000D01*
X6685000Y-4860000D02*
X6715000Y-4890000D01*
X6715000Y-4860000D02*
X6685000Y-4890000D01*
X6685000Y-5310000D02*
X6715000Y-5340000D01*
X6715000Y-5310000D02*
X6685000Y-5340000D01*
X6735000Y-1260000D02*
X6765000Y-1290000D01*
X6765000Y-1260000D02*
X6735000Y-1290000D01*
X6735000Y-1710000D02*
X6765000Y-1740000D01*
X6765000Y-1710000D02*
X6735000Y-1740000D01*
X6735000Y-5160000D02*
X6765000Y-5190000D01*
X6765000Y-5160000D02*
X6735000Y-5190000D01*
X6735000Y-5610000D02*
X6765000Y-5640000D01*
X6765000Y-5610000D02*
X6735000Y-5640000D01*
X6785000Y-1560000D02*
X6815000Y-1590000D01*
X6815000Y-1560000D02*
X6785000Y-1590000D01*
X6785000Y-2010000D02*
X6815000Y-2040000D01*
X6815000Y-2010000D02*
X6785000Y-2040000D01*
X6785000Y-4860000D02*
X6815000Y-4890000D01*
X6815000Y-4860000D02*
X6785000Y-4890000D01*
X6785000Y-5310000D02*
X6815000Y-5340000D01*
X6815000Y-5310000D02*
X6785000Y-5340000D01*
X6835000Y-1260000D02*
X6865000Y-1290000D01*
X6865000Y-1260000D02*
X6835000Y-1290000D01*
X6835000Y-1710000D02*
X6865000Y-1740000D01*
X6865000Y-1710000D02*
X6835000Y-1740000D01*
X6835000Y-5160000D02*
X6865000Y-5190000D01*
X6865000Y-5160000D02*
X6835000Y-5190000D01*
X6835000Y-5610000D02*
X6865000Y-5640000D01*
X6865000Y-5610000D02*
X6835000Y-5640000D01*
X6885000Y-1560000D02*
X6915000Y-1590000D01*
X6915000Y-1560000D02*
X6885000Y-1590000D01*
X6885000Y-2010000D02*
X6915000Y-2040000D01*
X6915000Y-2010000D02*
X6885000Y-2040000D01*
X6885000Y-4860000D02*
X6915000Y-4890000D01*
X6915000Y-4860000D02*
X6885000Y-4890000D01*
X6885000Y-5310000D02*
X6915000Y-5340000D01*
X6915000Y-5310000D02*
X6885000Y-5340000D01*
X6935000Y-1260000D02*
X6965000Y-1290000D01*
X6965000Y-1260000D02*
X6935000Y-1290000D01*
X6935000Y-1710000D02*
X6965000Y-1740000D01*
X6965000Y-1710000D02*
X6935000Y-1740000D01*
X6935000Y-5160000D02*
X6965000Y-5190000D01*
X6965000Y-5160000D02*
X6935000Y-5190000D01*
X6935000Y-5610000D02*
X6965000Y-5640000D01*
X6965000Y-5610000D02*
X6935000Y-5640000D01*
X6985000Y-1560000D02*
X7015000Y-1590000D01*
X7015000Y-1560000D02*
X6985000Y-1590000D01*
X6985000Y-2010000D02*
X7015000Y-2040000D01*
X7015000Y-2010000D02*
X6985000Y-2040000D01*
X6985000Y-4860000D02*
X7015000Y-4890000D01*
X7015000Y-4860000D02*
X6985000Y-4890000D01*
X6985000Y-5310000D02*
X7015000Y-5340000D01*
X7015000Y-5310000D02*
X6985000Y-5340000D01*
X4035000Y-3085000D02*
X4065000Y-3115000D01*
X4065000Y-3085000D02*
X4035000Y-3115000D01*
X4035000Y-3185000D02*
X4065000Y-3215000D01*
X4065000Y-3185000D02*
X4035000Y-3215000D01*
X4035000Y-3285000D02*
X4065000Y-3315000D01*
X4065000Y-3285000D02*
X4035000Y-3315000D01*
X4035000Y-3385000D02*
X4065000Y-3415000D01*
X4065000Y-3385000D02*
X4035000Y-3415000D01*
X4035000Y-3485000D02*
X4065000Y-3515000D01*
X4065000Y-3485000D02*
X4035000Y-3515000D01*
X4135000Y-3085000D02*
X4165000Y-3115000D01*
X4165000Y-3085000D02*
X4135000Y-3115000D01*
X4135000Y-3185000D02*
X4165000Y-3215000D01*
X4165000Y-3185000D02*
X4135000Y-3215000D01*
X4135000Y-3285000D02*
X4165000Y-3315000D01*
X4165000Y-3285000D02*
X4135000Y-3315000D01*
X4135000Y-3385000D02*
X4165000Y-3415000D01*
X4165000Y-3385000D02*
X4135000Y-3415000D01*
X4135000Y-3485000D02*
X4165000Y-3515000D01*
X4165000Y-3485000D02*
X4135000Y-3515000D01*
X4235000Y-3085000D02*
X4265000Y-3115000D01*
X4265000Y-3085000D02*
X4235000Y-3115000D01*
X4235000Y-3185000D02*
X4265000Y-3215000D01*
X4265000Y-3185000D02*
X4235000Y-3215000D01*
X4235000Y-3285000D02*
X4265000Y-3315000D01*
X4265000Y-3285000D02*
X4235000Y-3315000D01*
X4235000Y-3385000D02*
X4265000Y-3415000D01*
X4265000Y-3385000D02*
X4235000Y-3415000D01*
X4235000Y-3485000D02*
X4265000Y-3515000D01*
X4265000Y-3485000D02*
X4235000Y-3515000D01*
X4335000Y-3085000D02*
X4365000Y-3115000D01*
X4365000Y-3085000D02*
X4335000Y-3115000D01*
X4335000Y-3185000D02*
X4365000Y-3215000D01*
X4365000Y-3185000D02*
X4335000Y-3215000D01*
X4335000Y-3285000D02*
X4365000Y-3315000D01*
X4365000Y-3285000D02*
X4335000Y-3315000D01*
X4335000Y-3385000D02*
X4365000Y-3415000D01*
X4365000Y-3385000D02*
X4335000Y-3415000D01*
X4335000Y-3485000D02*
X4365000Y-3515000D01*
X4365000Y-3485000D02*
X4335000Y-3515000D01*
X4435000Y-3085000D02*
X4465000Y-3115000D01*
X4465000Y-3085000D02*
X4435000Y-3115000D01*
X4435000Y-3185000D02*
X4465000Y-3215000D01*
X4465000Y-3185000D02*
X4435000Y-3215000D01*
X4435000Y-3285000D02*
X4465000Y-3315000D01*
X4465000Y-3285000D02*
X4435000Y-3315000D01*
X4435000Y-3385000D02*
X4465000Y-3415000D01*
X4465000Y-3385000D02*
X4435000Y-3415000D01*
X4435000Y-3485000D02*
X4465000Y-3515000D01*
X4465000Y-3485000D02*
X4435000Y-3515000D01*
X1625000Y-1825000D02*
G75*
G03X1625000Y-1825000I-35000J0D01*
G01*
X1615000Y-1800000D02*
X1565000Y-1800000D01*
X1615000Y-1850000D02*
X1565000Y-1850000D01*
X1565000Y-1800000D02*
G75*
G03X1565000Y-1850000I0J-25000D01*
G01*
X1615000Y-1850000D02*
G75*
G03X1615000Y-1800000I0J25000D01*
G01*
X1625000Y-3275000D02*
G75*
G03X1625000Y-3275000I-35000J0D01*
G01*
X1615000Y-3250000D02*
X1565000Y-3250000D01*
X1615000Y-3300000D02*
X1565000Y-3300000D01*
X1565000Y-3250000D02*
G75*
G03X1565000Y-3300000I0J-25000D01*
G01*
X1615000Y-3300000D02*
G75*
G03X1615000Y-3250000I0J25000D01*
G01*
X2225000Y-1825000D02*
G75*
G03X2225000Y-1825000I-35000J0D01*
G01*
X2265000Y-1800000D02*
X2115000Y-1800000D01*
X2265000Y-1850000D02*
X2115000Y-1850000D01*
X2115000Y-1800000D02*
G75*
G03X2115000Y-1850000I0J-25000D01*
G01*
X2265000Y-1850000D02*
G75*
G03X2265000Y-1800000I0J25000D01*
G01*
X2225000Y-3275000D02*
G75*
G03X2225000Y-3275000I-35000J0D01*
G01*
X2265000Y-3250000D02*
X2115000Y-3250000D01*
X2265000Y-3300000D02*
X2115000Y-3300000D01*
X2115000Y-3250000D02*
G75*
G03X2115000Y-3300000I0J-25000D01*
G01*
X2265000Y-3300000D02*
G75*
G03X2265000Y-3250000I0J25000D01*
G01*
X3155000Y-1497500D02*
X3155000Y-1552500D01*
X3127500Y-1525000D02*
X3182500Y-1525000D01*
X3155000Y-1747500D02*
X3155000Y-1802500D01*
X3127500Y-1775000D02*
X3182500Y-1775000D01*
X3555000Y-5097500D02*
X3555000Y-5152500D01*
X3527500Y-5125000D02*
X3582500Y-5125000D01*
X3555000Y-5347500D02*
X3555000Y-5402500D01*
X3527500Y-5375000D02*
X3582500Y-5375000D01*
X4545000Y-1497500D02*
X4545000Y-1552500D01*
X4517500Y-1525000D02*
X4572500Y-1525000D01*
X4545000Y-1747500D02*
X4545000Y-1802500D01*
X4517500Y-1775000D02*
X4572500Y-1775000D01*
X4945000Y-5097500D02*
X4945000Y-5152500D01*
X4917500Y-5125000D02*
X4972500Y-5125000D01*
X4945000Y-5347500D02*
X4945000Y-5402500D01*
X4917500Y-5375000D02*
X4972500Y-5375000D01*
X5705000Y-1497500D02*
X5705000Y-1552500D01*
X5677500Y-1525000D02*
X5732500Y-1525000D01*
X5705000Y-1747500D02*
X5705000Y-1802500D01*
X5677500Y-1775000D02*
X5732500Y-1775000D01*
X5705000Y-5097500D02*
X5705000Y-5152500D01*
X5677500Y-5125000D02*
X5732500Y-5125000D01*
X5705000Y-5347500D02*
X5705000Y-5402500D01*
X5677500Y-5375000D02*
X5732500Y-5375000D01*
X7095000Y-1497500D02*
X7095000Y-1552500D01*
X7067500Y-1525000D02*
X7122500Y-1525000D01*
X7095000Y-1747500D02*
X7095000Y-1802500D01*
X7067500Y-1775000D02*
X7122500Y-1775000D01*
X7095000Y-5097500D02*
X7095000Y-5152500D01*
X7067500Y-5125000D02*
X7122500Y-5125000D01*
X7095000Y-5347500D02*
X7095000Y-5402500D01*
X7067500Y-5375000D02*
X7122500Y-5375000D01*
X1527782Y-1527782D02*
X1527782Y-1372218D01*
X1372218Y-1372218D01*
X1372218Y-1527782D01*
X1527782Y-1527782D01*
X1527782Y-5527783D02*
X1527782Y-5372218D01*
X1372218Y-5372218D01*
X1372218Y-5527783D01*
X1527782Y-5527783D01*
X7527782Y-1527782D02*
X7527782Y-1372218D01*
X7372217Y-1372218D01*
X7372217Y-1527782D01*
X7527782Y-1527782D01*
X7527782Y-5527783D02*
X7527782Y-5372218D01*
X7372217Y-5372218D01*
X7372217Y-5527783D01*
X7527782Y-5527783D01*
D12*
X1483928Y-6168214D02*
X1483928Y-5868214D01*
X1555357Y-5868214D01*
X1598214Y-5882500D01*
X1626786Y-5911071D01*
X1641071Y-5939643D01*
X1655357Y-5996786D01*
X1655357Y-6039643D01*
X1641071Y-6096786D01*
X1626786Y-6125357D01*
X1598214Y-6153929D01*
X1555357Y-6168214D01*
X1483928Y-6168214D01*
X1783928Y-6168214D02*
X1783928Y-5968214D01*
X1783928Y-6025357D02*
X1798214Y-5996786D01*
X1812500Y-5982500D01*
X1841071Y-5968214D01*
X1869643Y-5968214D01*
X1969643Y-6168214D02*
X1969643Y-5968214D01*
X1969643Y-5868214D02*
X1955357Y-5882500D01*
X1969643Y-5896786D01*
X1983928Y-5882500D01*
X1969643Y-5868214D01*
X1969643Y-5896786D01*
X2155357Y-6168214D02*
X2126786Y-6153929D01*
X2112500Y-6125357D01*
X2112500Y-5868214D01*
X2312500Y-6168214D02*
X2283928Y-6153929D01*
X2269643Y-6125357D01*
X2269643Y-5868214D01*
X2655357Y-6168214D02*
X2655357Y-5868214D01*
X2755357Y-6082500D01*
X2855357Y-5868214D01*
X2855357Y-6168214D01*
X3126786Y-6168214D02*
X3126786Y-6011071D01*
X3112500Y-5982500D01*
X3083928Y-5968214D01*
X3026786Y-5968214D01*
X2998214Y-5982500D01*
X3126786Y-6153929D02*
X3098214Y-6168214D01*
X3026786Y-6168214D01*
X2998214Y-6153929D01*
X2983928Y-6125357D01*
X2983928Y-6096786D01*
X2998214Y-6068214D01*
X3026786Y-6053929D01*
X3098214Y-6053929D01*
X3126786Y-6039643D01*
X3269643Y-5968214D02*
X3269643Y-6268214D01*
X3269643Y-5982500D02*
X3298214Y-5968214D01*
X3355357Y-5968214D01*
X3383928Y-5982500D01*
X3398214Y-5996786D01*
X3412500Y-6025357D01*
X3412500Y-6111071D01*
X3398214Y-6139643D01*
X3383928Y-6153929D01*
X3355357Y-6168214D01*
X3298214Y-6168214D01*
X3269643Y-6153929D01*
X3541071Y-6139643D02*
X3555357Y-6153929D01*
X3541071Y-6168214D01*
X3526786Y-6153929D01*
X3541071Y-6139643D01*
X3541071Y-6168214D01*
X3541071Y-5982500D02*
X3555357Y-5996786D01*
X3541071Y-6011071D01*
X3526786Y-5996786D01*
X3541071Y-5982500D01*
X3541071Y-6011071D01*
X1167500Y-6647500D02*
X1197500Y-6677500D01*
X1197500Y-6647500D02*
X1167500Y-6677500D01*
X1541071Y-6498214D02*
X1569643Y-6498214D01*
X1598214Y-6512500D01*
X1612500Y-6526786D01*
X1626786Y-6555357D01*
X1641071Y-6612500D01*
X1641071Y-6683929D01*
X1626786Y-6741071D01*
X1612500Y-6769643D01*
X1598214Y-6783929D01*
X1569643Y-6798214D01*
X1541071Y-6798214D01*
X1512500Y-6783929D01*
X1498214Y-6769643D01*
X1483928Y-6741071D01*
X1469643Y-6683929D01*
X1469643Y-6612500D01*
X1483928Y-6555357D01*
X1498214Y-6526786D01*
X1512500Y-6512500D01*
X1541071Y-6498214D01*
X1769643Y-6769643D02*
X1783928Y-6783929D01*
X1769643Y-6798214D01*
X1755357Y-6783929D01*
X1769643Y-6769643D01*
X1769643Y-6798214D01*
X1883928Y-6498214D02*
X2069643Y-6498214D01*
X1969643Y-6612500D01*
X2012500Y-6612500D01*
X2041071Y-6626786D01*
X2055357Y-6641071D01*
X2069643Y-6669643D01*
X2069643Y-6741071D01*
X2055357Y-6769643D01*
X2041071Y-6783929D01*
X2012500Y-6798214D01*
X1926786Y-6798214D01*
X1898214Y-6783929D01*
X1883928Y-6769643D01*
X2255357Y-6498214D02*
X2283928Y-6498214D01*
X2312500Y-6512500D01*
X2326786Y-6526786D01*
X2341071Y-6555357D01*
X2355357Y-6612500D01*
X2355357Y-6683929D01*
X2341071Y-6741071D01*
X2326786Y-6769643D01*
X2312500Y-6783929D01*
X2283928Y-6798214D01*
X2255357Y-6798214D01*
X2226786Y-6783929D01*
X2212500Y-6769643D01*
X2198214Y-6741071D01*
X2183928Y-6683929D01*
X2183928Y-6612500D01*
X2198214Y-6555357D01*
X2212500Y-6526786D01*
X2226786Y-6512500D01*
X2255357Y-6498214D01*
X2483928Y-6798214D02*
X2483928Y-6598214D01*
X2483928Y-6626786D02*
X2498214Y-6612500D01*
X2526786Y-6598214D01*
X2569643Y-6598214D01*
X2598214Y-6612500D01*
X2612500Y-6641071D01*
X2612500Y-6798214D01*
X2612500Y-6641071D02*
X2626786Y-6612500D01*
X2655357Y-6598214D01*
X2698214Y-6598214D01*
X2726786Y-6612500D01*
X2741071Y-6641071D01*
X2741071Y-6798214D01*
X2883928Y-6798214D02*
X2883928Y-6598214D01*
X2883928Y-6626786D02*
X2898214Y-6612500D01*
X2926786Y-6598214D01*
X2969643Y-6598214D01*
X2998214Y-6612500D01*
X3012500Y-6641071D01*
X3012500Y-6798214D01*
X3012500Y-6641071D02*
X3026786Y-6612500D01*
X3055357Y-6598214D01*
X3098214Y-6598214D01*
X3126786Y-6612500D01*
X3141071Y-6641071D01*
X3141071Y-6798214D01*
X3726786Y-6483929D02*
X3469643Y-6869643D01*
X4112500Y-6498214D02*
X4141071Y-6498214D01*
X4169643Y-6512500D01*
X4183928Y-6526786D01*
X4198214Y-6555357D01*
X4212500Y-6612500D01*
X4212500Y-6683929D01*
X4198214Y-6741071D01*
X4183928Y-6769643D01*
X4169643Y-6783929D01*
X4141071Y-6798214D01*
X4112500Y-6798214D01*
X4083928Y-6783929D01*
X4069643Y-6769643D01*
X4055357Y-6741071D01*
X4041071Y-6683929D01*
X4041071Y-6612500D01*
X4055357Y-6555357D01*
X4069643Y-6526786D01*
X4083928Y-6512500D01*
X4112500Y-6498214D01*
X4341071Y-6769643D02*
X4355357Y-6783929D01*
X4341071Y-6798214D01*
X4326786Y-6783929D01*
X4341071Y-6769643D01*
X4341071Y-6798214D01*
X4541071Y-6498214D02*
X4569643Y-6498214D01*
X4598214Y-6512500D01*
X4612500Y-6526786D01*
X4626786Y-6555357D01*
X4641071Y-6612500D01*
X4641071Y-6683929D01*
X4626786Y-6741071D01*
X4612500Y-6769643D01*
X4598214Y-6783929D01*
X4569643Y-6798214D01*
X4541071Y-6798214D01*
X4512500Y-6783929D01*
X4498214Y-6769643D01*
X4483928Y-6741071D01*
X4469643Y-6683929D01*
X4469643Y-6612500D01*
X4483928Y-6555357D01*
X4498214Y-6526786D01*
X4512500Y-6512500D01*
X4541071Y-6498214D01*
X4926786Y-6798214D02*
X4755357Y-6798214D01*
X4841071Y-6798214D02*
X4841071Y-6498214D01*
X4812500Y-6541071D01*
X4783928Y-6569643D01*
X4755357Y-6583929D01*
X5041071Y-6526786D02*
X5055357Y-6512500D01*
X5083928Y-6498214D01*
X5155357Y-6498214D01*
X5183928Y-6512500D01*
X5198214Y-6526786D01*
X5212500Y-6555357D01*
X5212500Y-6583929D01*
X5198214Y-6626786D01*
X5026786Y-6798214D01*
X5212500Y-6798214D01*
X5326786Y-6498214D02*
X5326786Y-6555357D01*
X5441071Y-6498214D02*
X5441071Y-6555357D01*
X5883928Y-6912500D02*
X5869643Y-6898214D01*
X5841071Y-6855357D01*
X5826786Y-6826786D01*
X5812500Y-6783929D01*
X5798214Y-6712500D01*
X5798214Y-6655357D01*
X5812500Y-6583929D01*
X5826786Y-6541071D01*
X5841071Y-6512500D01*
X5869643Y-6469643D01*
X5883928Y-6455357D01*
X5969643Y-6498214D02*
X6155357Y-6498214D01*
X6055357Y-6612500D01*
X6098214Y-6612500D01*
X6126786Y-6626786D01*
X6141071Y-6641071D01*
X6155357Y-6669643D01*
X6155357Y-6741071D01*
X6141071Y-6769643D01*
X6126786Y-6783929D01*
X6098214Y-6798214D01*
X6012500Y-6798214D01*
X5983928Y-6783929D01*
X5969643Y-6769643D01*
X6341071Y-6498214D02*
X6369643Y-6498214D01*
X6398214Y-6512500D01*
X6412500Y-6526786D01*
X6426786Y-6555357D01*
X6441071Y-6612500D01*
X6441071Y-6683929D01*
X6426786Y-6741071D01*
X6412500Y-6769643D01*
X6398214Y-6783929D01*
X6369643Y-6798214D01*
X6341071Y-6798214D01*
X6312500Y-6783929D01*
X6298214Y-6769643D01*
X6283928Y-6741071D01*
X6269643Y-6683929D01*
X6269643Y-6612500D01*
X6283928Y-6555357D01*
X6298214Y-6526786D01*
X6312500Y-6512500D01*
X6341071Y-6498214D01*
X6726786Y-6798214D02*
X6555357Y-6798214D01*
X6641071Y-6798214D02*
X6641071Y-6498214D01*
X6612500Y-6541071D01*
X6583928Y-6569643D01*
X6555357Y-6583929D01*
X7083928Y-6798214D02*
X7083928Y-6498214D01*
X7212500Y-6798214D02*
X7212500Y-6641071D01*
X7198214Y-6612500D01*
X7169643Y-6598214D01*
X7126786Y-6598214D01*
X7098214Y-6612500D01*
X7083928Y-6626786D01*
X7398214Y-6798214D02*
X7369643Y-6783929D01*
X7355357Y-6769643D01*
X7341071Y-6741071D01*
X7341071Y-6655357D01*
X7355357Y-6626786D01*
X7369643Y-6612500D01*
X7398214Y-6598214D01*
X7441071Y-6598214D01*
X7469643Y-6612500D01*
X7483928Y-6626786D01*
X7498214Y-6655357D01*
X7498214Y-6741071D01*
X7483928Y-6769643D01*
X7469643Y-6783929D01*
X7441071Y-6798214D01*
X7398214Y-6798214D01*
X7669643Y-6798214D02*
X7641071Y-6783929D01*
X7626786Y-6755357D01*
X7626786Y-6498214D01*
X7898214Y-6783929D02*
X7869643Y-6798214D01*
X7812500Y-6798214D01*
X7783928Y-6783929D01*
X7769643Y-6755357D01*
X7769643Y-6641071D01*
X7783928Y-6612500D01*
X7812500Y-6598214D01*
X7869643Y-6598214D01*
X7898214Y-6612500D01*
X7912500Y-6641071D01*
X7912500Y-6669643D01*
X7769643Y-6698214D01*
X8026786Y-6783929D02*
X8055357Y-6798214D01*
X8112500Y-6798214D01*
X8141071Y-6783929D01*
X8155357Y-6755357D01*
X8155357Y-6741071D01*
X8141071Y-6712500D01*
X8112500Y-6698214D01*
X8069643Y-6698214D01*
X8041071Y-6683929D01*
X8026786Y-6655357D01*
X8026786Y-6641071D01*
X8041071Y-6612500D01*
X8069643Y-6598214D01*
X8112500Y-6598214D01*
X8141071Y-6612500D01*
X8255357Y-6912500D02*
X8269643Y-6898214D01*
X8298214Y-6855357D01*
X8312500Y-6826786D01*
X8326786Y-6783929D01*
X8341071Y-6712500D01*
X8341071Y-6655357D01*
X8326786Y-6583929D01*
X8312500Y-6541071D01*
X8298214Y-6512500D01*
X8269643Y-6469643D01*
X8255357Y-6455357D01*
X1197500Y-7058500D02*
G75*
G03X1197500Y-7058500I-35000J0D01*
G01*
X1541071Y-6894214D02*
X1569643Y-6894214D01*
X1598214Y-6908500D01*
X1612500Y-6922786D01*
X1626786Y-6951357D01*
X1641071Y-7008500D01*
X1641071Y-7079929D01*
X1626786Y-7137071D01*
X1612500Y-7165643D01*
X1598214Y-7179929D01*
X1569643Y-7194214D01*
X1541071Y-7194214D01*
X1512500Y-7179929D01*
X1498214Y-7165643D01*
X1483928Y-7137071D01*
X1469643Y-7079929D01*
X1469643Y-7008500D01*
X1483928Y-6951357D01*
X1498214Y-6922786D01*
X1512500Y-6908500D01*
X1541071Y-6894214D01*
X1769643Y-7165643D02*
X1783928Y-7179929D01*
X1769643Y-7194214D01*
X1755357Y-7179929D01*
X1769643Y-7165643D01*
X1769643Y-7194214D01*
X1883928Y-6894214D02*
X2083928Y-6894214D01*
X1955357Y-7194214D01*
X2255357Y-6894214D02*
X2283928Y-6894214D01*
X2312500Y-6908500D01*
X2326786Y-6922786D01*
X2341071Y-6951357D01*
X2355357Y-7008500D01*
X2355357Y-7079929D01*
X2341071Y-7137071D01*
X2326786Y-7165643D01*
X2312500Y-7179929D01*
X2283928Y-7194214D01*
X2255357Y-7194214D01*
X2226786Y-7179929D01*
X2212500Y-7165643D01*
X2198214Y-7137071D01*
X2183928Y-7079929D01*
X2183928Y-7008500D01*
X2198214Y-6951357D01*
X2212500Y-6922786D01*
X2226786Y-6908500D01*
X2255357Y-6894214D01*
X2483928Y-7194214D02*
X2483928Y-6994214D01*
X2483928Y-7022786D02*
X2498214Y-7008500D01*
X2526786Y-6994214D01*
X2569643Y-6994214D01*
X2598214Y-7008500D01*
X2612500Y-7037071D01*
X2612500Y-7194214D01*
X2612500Y-7037071D02*
X2626786Y-7008500D01*
X2655357Y-6994214D01*
X2698214Y-6994214D01*
X2726786Y-7008500D01*
X2741071Y-7037071D01*
X2741071Y-7194214D01*
X2883928Y-7194214D02*
X2883928Y-6994214D01*
X2883928Y-7022786D02*
X2898214Y-7008500D01*
X2926786Y-6994214D01*
X2969643Y-6994214D01*
X2998214Y-7008500D01*
X3012500Y-7037071D01*
X3012500Y-7194214D01*
X3012500Y-7037071D02*
X3026786Y-7008500D01*
X3055357Y-6994214D01*
X3098214Y-6994214D01*
X3126786Y-7008500D01*
X3141071Y-7037071D01*
X3141071Y-7194214D01*
X3726786Y-6879929D02*
X3469643Y-7265643D01*
X4112500Y-6894214D02*
X4141071Y-6894214D01*
X4169643Y-6908500D01*
X4183928Y-6922786D01*
X4198214Y-6951357D01*
X4212500Y-7008500D01*
X4212500Y-7079929D01*
X4198214Y-7137071D01*
X4183928Y-7165643D01*
X4169643Y-7179929D01*
X4141071Y-7194214D01*
X4112500Y-7194214D01*
X4083928Y-7179929D01*
X4069643Y-7165643D01*
X4055357Y-7137071D01*
X4041071Y-7079929D01*
X4041071Y-7008500D01*
X4055357Y-6951357D01*
X4069643Y-6922786D01*
X4083928Y-6908500D01*
X4112500Y-6894214D01*
X4341071Y-7165643D02*
X4355357Y-7179929D01*
X4341071Y-7194214D01*
X4326786Y-7179929D01*
X4341071Y-7165643D01*
X4341071Y-7194214D01*
X4541071Y-6894214D02*
X4569643Y-6894214D01*
X4598214Y-6908500D01*
X4612500Y-6922786D01*
X4626786Y-6951357D01*
X4641071Y-7008500D01*
X4641071Y-7079929D01*
X4626786Y-7137071D01*
X4612500Y-7165643D01*
X4598214Y-7179929D01*
X4569643Y-7194214D01*
X4541071Y-7194214D01*
X4512500Y-7179929D01*
X4498214Y-7165643D01*
X4483928Y-7137071D01*
X4469643Y-7079929D01*
X4469643Y-7008500D01*
X4483928Y-6951357D01*
X4498214Y-6922786D01*
X4512500Y-6908500D01*
X4541071Y-6894214D01*
X4755357Y-6922786D02*
X4769643Y-6908500D01*
X4798214Y-6894214D01*
X4869643Y-6894214D01*
X4898214Y-6908500D01*
X4912500Y-6922786D01*
X4926786Y-6951357D01*
X4926786Y-6979929D01*
X4912500Y-7022786D01*
X4741071Y-7194214D01*
X4926786Y-7194214D01*
X5098214Y-7022786D02*
X5069643Y-7008500D01*
X5055357Y-6994214D01*
X5041071Y-6965643D01*
X5041071Y-6951357D01*
X5055357Y-6922786D01*
X5069643Y-6908500D01*
X5098214Y-6894214D01*
X5155357Y-6894214D01*
X5183928Y-6908500D01*
X5198214Y-6922786D01*
X5212500Y-6951357D01*
X5212500Y-6965643D01*
X5198214Y-6994214D01*
X5183928Y-7008500D01*
X5155357Y-7022786D01*
X5098214Y-7022786D01*
X5069643Y-7037071D01*
X5055357Y-7051357D01*
X5041071Y-7079929D01*
X5041071Y-7137071D01*
X5055357Y-7165643D01*
X5069643Y-7179929D01*
X5098214Y-7194214D01*
X5155357Y-7194214D01*
X5183928Y-7179929D01*
X5198214Y-7165643D01*
X5212500Y-7137071D01*
X5212500Y-7079929D01*
X5198214Y-7051357D01*
X5183928Y-7037071D01*
X5155357Y-7022786D01*
X5326786Y-6894214D02*
X5326786Y-6951357D01*
X5441071Y-6894214D02*
X5441071Y-6951357D01*
X5883928Y-7308500D02*
X5869643Y-7294214D01*
X5841071Y-7251357D01*
X5826786Y-7222786D01*
X5812500Y-7179929D01*
X5798214Y-7108500D01*
X5798214Y-7051357D01*
X5812500Y-6979929D01*
X5826786Y-6937071D01*
X5841071Y-6908500D01*
X5869643Y-6865643D01*
X5883928Y-6851357D01*
X6055357Y-6894214D02*
X6083928Y-6894214D01*
X6112500Y-6908500D01*
X6126786Y-6922786D01*
X6141071Y-6951357D01*
X6155357Y-7008500D01*
X6155357Y-7079929D01*
X6141071Y-7137071D01*
X6126786Y-7165643D01*
X6112500Y-7179929D01*
X6083928Y-7194214D01*
X6055357Y-7194214D01*
X6026786Y-7179929D01*
X6012500Y-7165643D01*
X5998214Y-7137071D01*
X5983928Y-7079929D01*
X5983928Y-7008500D01*
X5998214Y-6951357D01*
X6012500Y-6922786D01*
X6026786Y-6908500D01*
X6055357Y-6894214D01*
X6512500Y-7194214D02*
X6512500Y-6894214D01*
X6641071Y-7194214D02*
X6641071Y-7037071D01*
X6626786Y-7008500D01*
X6598214Y-6994214D01*
X6555357Y-6994214D01*
X6526786Y-7008500D01*
X6512500Y-7022786D01*
X6826786Y-7194214D02*
X6798214Y-7179929D01*
X6783928Y-7165643D01*
X6769643Y-7137071D01*
X6769643Y-7051357D01*
X6783928Y-7022786D01*
X6798214Y-7008500D01*
X6826786Y-6994214D01*
X6869643Y-6994214D01*
X6898214Y-7008500D01*
X6912500Y-7022786D01*
X6926786Y-7051357D01*
X6926786Y-7137071D01*
X6912500Y-7165643D01*
X6898214Y-7179929D01*
X6869643Y-7194214D01*
X6826786Y-7194214D01*
X7098214Y-7194214D02*
X7069643Y-7179929D01*
X7055357Y-7151357D01*
X7055357Y-6894214D01*
X7326786Y-7179929D02*
X7298214Y-7194214D01*
X7241071Y-7194214D01*
X7212500Y-7179929D01*
X7198214Y-7151357D01*
X7198214Y-7037071D01*
X7212500Y-7008500D01*
X7241071Y-6994214D01*
X7298214Y-6994214D01*
X7326786Y-7008500D01*
X7341071Y-7037071D01*
X7341071Y-7065643D01*
X7198214Y-7094214D01*
X7455357Y-7179929D02*
X7483928Y-7194214D01*
X7541071Y-7194214D01*
X7569643Y-7179929D01*
X7583928Y-7151357D01*
X7583928Y-7137071D01*
X7569643Y-7108500D01*
X7541071Y-7094214D01*
X7498214Y-7094214D01*
X7469643Y-7079929D01*
X7455357Y-7051357D01*
X7455357Y-7037071D01*
X7469643Y-7008500D01*
X7498214Y-6994214D01*
X7541071Y-6994214D01*
X7569643Y-7008500D01*
X7941071Y-7079929D02*
X8169643Y-7079929D01*
X8055357Y-7194214D02*
X8055357Y-6965643D01*
X8669643Y-6994214D02*
X8669643Y-7194214D01*
X8598214Y-6879929D02*
X8526786Y-7094214D01*
X8712500Y-7094214D01*
X9041071Y-7179929D02*
X9069643Y-7194214D01*
X9126786Y-7194214D01*
X9155357Y-7179929D01*
X9169643Y-7151357D01*
X9169643Y-7137071D01*
X9155357Y-7108500D01*
X9126786Y-7094214D01*
X9083928Y-7094214D01*
X9055357Y-7079929D01*
X9041071Y-7051357D01*
X9041071Y-7037071D01*
X9055357Y-7008500D01*
X9083928Y-6994214D01*
X9126786Y-6994214D01*
X9155357Y-7008500D01*
X9341071Y-7194214D02*
X9312500Y-7179929D01*
X9298214Y-7151357D01*
X9298214Y-6894214D01*
X9498214Y-7194214D02*
X9469643Y-7179929D01*
X9455357Y-7165643D01*
X9441071Y-7137071D01*
X9441071Y-7051357D01*
X9455357Y-7022786D01*
X9469643Y-7008500D01*
X9498214Y-6994214D01*
X9541071Y-6994214D01*
X9569643Y-7008500D01*
X9583928Y-7022786D01*
X9598214Y-7051357D01*
X9598214Y-7137071D01*
X9583928Y-7165643D01*
X9569643Y-7179929D01*
X9541071Y-7194214D01*
X9498214Y-7194214D01*
X9683928Y-6994214D02*
X9798214Y-6994214D01*
X9726786Y-6894214D02*
X9726786Y-7151357D01*
X9741071Y-7179929D01*
X9769643Y-7194214D01*
X9798214Y-7194214D01*
X9883928Y-7179929D02*
X9912500Y-7194214D01*
X9969643Y-7194214D01*
X9998214Y-7179929D01*
X10012500Y-7151357D01*
X10012500Y-7137071D01*
X9998214Y-7108500D01*
X9969643Y-7094214D01*
X9926786Y-7094214D01*
X9898214Y-7079929D01*
X9883928Y-7051357D01*
X9883928Y-7037071D01*
X9898214Y-7008500D01*
X9926786Y-6994214D01*
X9969643Y-6994214D01*
X9998214Y-7008500D01*
X10112500Y-7308500D02*
X10126786Y-7294214D01*
X10155357Y-7251357D01*
X10169643Y-7222786D01*
X10183928Y-7179929D01*
X10198214Y-7108500D01*
X10198214Y-7051357D01*
X10183928Y-6979929D01*
X10169643Y-6937071D01*
X10155357Y-6908500D01*
X10126786Y-6865643D01*
X10112500Y-6851357D01*
X1170000Y-7427000D02*
X1170000Y-7482000D01*
X1142500Y-7454500D02*
X1197500Y-7454500D01*
X1541071Y-7290214D02*
X1569643Y-7290214D01*
X1598214Y-7304500D01*
X1612500Y-7318786D01*
X1626786Y-7347357D01*
X1641071Y-7404500D01*
X1641071Y-7475929D01*
X1626786Y-7533071D01*
X1612500Y-7561643D01*
X1598214Y-7575929D01*
X1569643Y-7590214D01*
X1541071Y-7590214D01*
X1512500Y-7575929D01*
X1498214Y-7561643D01*
X1483928Y-7533071D01*
X1469643Y-7475929D01*
X1469643Y-7404500D01*
X1483928Y-7347357D01*
X1498214Y-7318786D01*
X1512500Y-7304500D01*
X1541071Y-7290214D01*
X1769643Y-7561643D02*
X1783928Y-7575929D01*
X1769643Y-7590214D01*
X1755357Y-7575929D01*
X1769643Y-7561643D01*
X1769643Y-7590214D01*
X2055357Y-7290214D02*
X1912500Y-7290214D01*
X1898214Y-7433071D01*
X1912500Y-7418786D01*
X1941071Y-7404500D01*
X2012500Y-7404500D01*
X2041071Y-7418786D01*
X2055357Y-7433071D01*
X2069643Y-7461643D01*
X2069643Y-7533071D01*
X2055357Y-7561643D01*
X2041071Y-7575929D01*
X2012500Y-7590214D01*
X1941071Y-7590214D01*
X1912500Y-7575929D01*
X1898214Y-7561643D01*
X2341071Y-7290214D02*
X2198214Y-7290214D01*
X2183928Y-7433071D01*
X2198214Y-7418786D01*
X2226786Y-7404500D01*
X2298214Y-7404500D01*
X2326786Y-7418786D01*
X2341071Y-7433071D01*
X2355357Y-7461643D01*
X2355357Y-7533071D01*
X2341071Y-7561643D01*
X2326786Y-7575929D01*
X2298214Y-7590214D01*
X2226786Y-7590214D01*
X2198214Y-7575929D01*
X2183928Y-7561643D01*
X2483928Y-7590214D02*
X2483928Y-7390214D01*
X2483928Y-7418786D02*
X2498214Y-7404500D01*
X2526786Y-7390214D01*
X2569643Y-7390214D01*
X2598214Y-7404500D01*
X2612500Y-7433071D01*
X2612500Y-7590214D01*
X2612500Y-7433071D02*
X2626786Y-7404500D01*
X2655357Y-7390214D01*
X2698214Y-7390214D01*
X2726786Y-7404500D01*
X2741071Y-7433071D01*
X2741071Y-7590214D01*
X2883928Y-7590214D02*
X2883928Y-7390214D01*
X2883928Y-7418786D02*
X2898214Y-7404500D01*
X2926786Y-7390214D01*
X2969643Y-7390214D01*
X2998214Y-7404500D01*
X3012500Y-7433071D01*
X3012500Y-7590214D01*
X3012500Y-7433071D02*
X3026786Y-7404500D01*
X3055357Y-7390214D01*
X3098214Y-7390214D01*
X3126786Y-7404500D01*
X3141071Y-7433071D01*
X3141071Y-7590214D01*
X3726786Y-7275929D02*
X3469643Y-7661643D01*
X4112500Y-7290214D02*
X4141071Y-7290214D01*
X4169643Y-7304500D01*
X4183928Y-7318786D01*
X4198214Y-7347357D01*
X4212500Y-7404500D01*
X4212500Y-7475929D01*
X4198214Y-7533071D01*
X4183928Y-7561643D01*
X4169643Y-7575929D01*
X4141071Y-7590214D01*
X4112500Y-7590214D01*
X4083928Y-7575929D01*
X4069643Y-7561643D01*
X4055357Y-7533071D01*
X4041071Y-7475929D01*
X4041071Y-7404500D01*
X4055357Y-7347357D01*
X4069643Y-7318786D01*
X4083928Y-7304500D01*
X4112500Y-7290214D01*
X4341071Y-7561643D02*
X4355357Y-7575929D01*
X4341071Y-7590214D01*
X4326786Y-7575929D01*
X4341071Y-7561643D01*
X4341071Y-7590214D01*
X4541071Y-7290214D02*
X4569643Y-7290214D01*
X4598214Y-7304500D01*
X4612500Y-7318786D01*
X4626786Y-7347357D01*
X4641071Y-7404500D01*
X4641071Y-7475929D01*
X4626786Y-7533071D01*
X4612500Y-7561643D01*
X4598214Y-7575929D01*
X4569643Y-7590214D01*
X4541071Y-7590214D01*
X4512500Y-7575929D01*
X4498214Y-7561643D01*
X4483928Y-7533071D01*
X4469643Y-7475929D01*
X4469643Y-7404500D01*
X4483928Y-7347357D01*
X4498214Y-7318786D01*
X4512500Y-7304500D01*
X4541071Y-7290214D01*
X4755357Y-7318786D02*
X4769643Y-7304500D01*
X4798214Y-7290214D01*
X4869643Y-7290214D01*
X4898214Y-7304500D01*
X4912500Y-7318786D01*
X4926786Y-7347357D01*
X4926786Y-7375929D01*
X4912500Y-7418786D01*
X4741071Y-7590214D01*
X4926786Y-7590214D01*
X5041071Y-7318786D02*
X5055357Y-7304500D01*
X5083928Y-7290214D01*
X5155357Y-7290214D01*
X5183928Y-7304500D01*
X5198214Y-7318786D01*
X5212500Y-7347357D01*
X5212500Y-7375929D01*
X5198214Y-7418786D01*
X5026786Y-7590214D01*
X5212500Y-7590214D01*
X5326786Y-7290214D02*
X5326786Y-7347357D01*
X5441071Y-7290214D02*
X5441071Y-7347357D01*
X5883928Y-7704500D02*
X5869643Y-7690214D01*
X5841071Y-7647357D01*
X5826786Y-7618786D01*
X5812500Y-7575929D01*
X5798214Y-7504500D01*
X5798214Y-7447357D01*
X5812500Y-7375929D01*
X5826786Y-7333071D01*
X5841071Y-7304500D01*
X5869643Y-7261643D01*
X5883928Y-7247357D01*
X6155357Y-7590214D02*
X5983928Y-7590214D01*
X6069643Y-7590214D02*
X6069643Y-7290214D01*
X6041071Y-7333071D01*
X6012500Y-7361643D01*
X5983928Y-7375929D01*
X6412500Y-7290214D02*
X6355357Y-7290214D01*
X6326786Y-7304500D01*
X6312500Y-7318786D01*
X6283928Y-7361643D01*
X6269643Y-7418786D01*
X6269643Y-7533071D01*
X6283928Y-7561643D01*
X6298214Y-7575929D01*
X6326786Y-7590214D01*
X6383928Y-7590214D01*
X6412500Y-7575929D01*
X6426786Y-7561643D01*
X6441071Y-7533071D01*
X6441071Y-7461643D01*
X6426786Y-7433071D01*
X6412500Y-7418786D01*
X6383928Y-7404500D01*
X6326786Y-7404500D01*
X6298214Y-7418786D01*
X6283928Y-7433071D01*
X6269643Y-7461643D01*
X6798214Y-7590214D02*
X6798214Y-7290214D01*
X6926786Y-7590214D02*
X6926786Y-7433071D01*
X6912500Y-7404500D01*
X6883928Y-7390214D01*
X6841071Y-7390214D01*
X6812500Y-7404500D01*
X6798214Y-7418786D01*
X7112500Y-7590214D02*
X7083928Y-7575929D01*
X7069643Y-7561643D01*
X7055357Y-7533071D01*
X7055357Y-7447357D01*
X7069643Y-7418786D01*
X7083928Y-7404500D01*
X7112500Y-7390214D01*
X7155357Y-7390214D01*
X7183928Y-7404500D01*
X7198214Y-7418786D01*
X7212500Y-7447357D01*
X7212500Y-7533071D01*
X7198214Y-7561643D01*
X7183928Y-7575929D01*
X7155357Y-7590214D01*
X7112500Y-7590214D01*
X7383928Y-7590214D02*
X7355357Y-7575929D01*
X7341071Y-7547357D01*
X7341071Y-7290214D01*
X7612500Y-7575929D02*
X7583928Y-7590214D01*
X7526786Y-7590214D01*
X7498214Y-7575929D01*
X7483928Y-7547357D01*
X7483928Y-7433071D01*
X7498214Y-7404500D01*
X7526786Y-7390214D01*
X7583928Y-7390214D01*
X7612500Y-7404500D01*
X7626786Y-7433071D01*
X7626786Y-7461643D01*
X7483928Y-7490214D01*
X7741071Y-7575929D02*
X7769643Y-7590214D01*
X7826786Y-7590214D01*
X7855357Y-7575929D01*
X7869643Y-7547357D01*
X7869643Y-7533071D01*
X7855357Y-7504500D01*
X7826786Y-7490214D01*
X7783928Y-7490214D01*
X7755357Y-7475929D01*
X7741071Y-7447357D01*
X7741071Y-7433071D01*
X7755357Y-7404500D01*
X7783928Y-7390214D01*
X7826786Y-7390214D01*
X7855357Y-7404500D01*
X7969643Y-7704500D02*
X7983928Y-7690214D01*
X8012500Y-7647357D01*
X8026786Y-7618786D01*
X8041071Y-7575929D01*
X8055357Y-7504500D01*
X8055357Y-7447357D01*
X8041071Y-7375929D01*
X8026786Y-7333071D01*
X8012500Y-7304500D01*
X7983928Y-7261643D01*
X7969643Y-7247357D01*
X8512500Y-7704500D02*
X8498214Y-7690214D01*
X8469643Y-7647357D01*
X8455357Y-7618786D01*
X8441071Y-7575929D01*
X8426786Y-7504500D01*
X8426786Y-7447357D01*
X8441071Y-7375929D01*
X8455357Y-7333071D01*
X8469643Y-7304500D01*
X8498214Y-7261643D01*
X8512500Y-7247357D01*
X8626786Y-7390214D02*
X8626786Y-7590214D01*
X8626786Y-7418786D02*
X8641071Y-7404500D01*
X8669643Y-7390214D01*
X8712500Y-7390214D01*
X8741071Y-7404500D01*
X8755357Y-7433071D01*
X8755357Y-7590214D01*
X8941071Y-7590214D02*
X8912500Y-7575929D01*
X8898214Y-7561643D01*
X8883928Y-7533071D01*
X8883928Y-7447357D01*
X8898214Y-7418786D01*
X8912500Y-7404500D01*
X8941071Y-7390214D01*
X8983928Y-7390214D01*
X9012500Y-7404500D01*
X9026786Y-7418786D01*
X9041071Y-7447357D01*
X9041071Y-7533071D01*
X9026786Y-7561643D01*
X9012500Y-7575929D01*
X8983928Y-7590214D01*
X8941071Y-7590214D01*
X9126786Y-7390214D02*
X9241071Y-7390214D01*
X9169643Y-7290214D02*
X9169643Y-7547357D01*
X9183928Y-7575929D01*
X9212500Y-7590214D01*
X9241071Y-7590214D01*
X9569643Y-7390214D02*
X9569643Y-7690214D01*
X9569643Y-7404500D02*
X9598214Y-7390214D01*
X9655357Y-7390214D01*
X9683928Y-7404500D01*
X9698214Y-7418786D01*
X9712500Y-7447357D01*
X9712500Y-7533071D01*
X9698214Y-7561643D01*
X9683928Y-7575929D01*
X9655357Y-7590214D01*
X9598214Y-7590214D01*
X9569643Y-7575929D01*
X9883928Y-7590214D02*
X9855357Y-7575929D01*
X9841071Y-7547357D01*
X9841071Y-7290214D01*
X10126786Y-7590214D02*
X10126786Y-7433071D01*
X10112500Y-7404500D01*
X10083928Y-7390214D01*
X10026786Y-7390214D01*
X9998214Y-7404500D01*
X10126786Y-7575929D02*
X10098214Y-7590214D01*
X10026786Y-7590214D01*
X9998214Y-7575929D01*
X9983928Y-7547357D01*
X9983928Y-7518786D01*
X9998214Y-7490214D01*
X10026786Y-7475929D01*
X10098214Y-7475929D01*
X10126786Y-7461643D01*
X10226786Y-7390214D02*
X10341071Y-7390214D01*
X10269643Y-7290214D02*
X10269643Y-7547357D01*
X10283928Y-7575929D01*
X10312500Y-7590214D01*
X10341071Y-7590214D01*
X10555357Y-7575929D02*
X10526786Y-7590214D01*
X10469643Y-7590214D01*
X10441071Y-7575929D01*
X10426786Y-7547357D01*
X10426786Y-7433071D01*
X10441071Y-7404500D01*
X10469643Y-7390214D01*
X10526786Y-7390214D01*
X10555357Y-7404500D01*
X10569643Y-7433071D01*
X10569643Y-7461643D01*
X10426786Y-7490214D01*
X10826786Y-7590214D02*
X10826786Y-7290214D01*
X10826786Y-7575929D02*
X10798214Y-7590214D01*
X10741071Y-7590214D01*
X10712500Y-7575929D01*
X10698214Y-7561643D01*
X10683928Y-7533071D01*
X10683928Y-7447357D01*
X10698214Y-7418786D01*
X10712500Y-7404500D01*
X10741071Y-7390214D01*
X10798214Y-7390214D01*
X10826786Y-7404500D01*
X10941071Y-7704500D02*
X10955357Y-7690214D01*
X10983928Y-7647357D01*
X10998214Y-7618786D01*
X11012500Y-7575929D01*
X11026786Y-7504500D01*
X11026786Y-7447357D01*
X11012500Y-7375929D01*
X10998214Y-7333071D01*
X10983928Y-7304500D01*
X10955357Y-7261643D01*
X10941071Y-7247357D01*
X1165282Y-7928283D02*
X1165282Y-7772718D01*
X1009717Y-7772718D01*
X1009717Y-7928283D01*
X1165282Y-7928283D01*
X1469643Y-7714786D02*
X1483928Y-7700500D01*
X1512500Y-7686214D01*
X1583928Y-7686214D01*
X1612500Y-7700500D01*
X1626786Y-7714786D01*
X1641071Y-7743357D01*
X1641071Y-7771929D01*
X1626786Y-7814786D01*
X1455357Y-7986214D01*
X1641071Y-7986214D01*
X1769643Y-7957643D02*
X1783928Y-7971929D01*
X1769643Y-7986214D01*
X1755357Y-7971929D01*
X1769643Y-7957643D01*
X1769643Y-7986214D01*
X1898214Y-7714786D02*
X1912500Y-7700500D01*
X1941071Y-7686214D01*
X2012500Y-7686214D01*
X2041071Y-7700500D01*
X2055357Y-7714786D01*
X2069643Y-7743357D01*
X2069643Y-7771929D01*
X2055357Y-7814786D01*
X1883928Y-7986214D01*
X2069643Y-7986214D01*
X2255357Y-7686214D02*
X2283928Y-7686214D01*
X2312500Y-7700500D01*
X2326786Y-7714786D01*
X2341071Y-7743357D01*
X2355357Y-7800500D01*
X2355357Y-7871929D01*
X2341071Y-7929071D01*
X2326786Y-7957643D01*
X2312500Y-7971929D01*
X2283928Y-7986214D01*
X2255357Y-7986214D01*
X2226786Y-7971929D01*
X2212500Y-7957643D01*
X2198214Y-7929071D01*
X2183928Y-7871929D01*
X2183928Y-7800500D01*
X2198214Y-7743357D01*
X2212500Y-7714786D01*
X2226786Y-7700500D01*
X2255357Y-7686214D01*
X2483928Y-7986214D02*
X2483928Y-7786214D01*
X2483928Y-7814786D02*
X2498214Y-7800500D01*
X2526786Y-7786214D01*
X2569643Y-7786214D01*
X2598214Y-7800500D01*
X2612500Y-7829071D01*
X2612500Y-7986214D01*
X2612500Y-7829071D02*
X2626786Y-7800500D01*
X2655357Y-7786214D01*
X2698214Y-7786214D01*
X2726786Y-7800500D01*
X2741071Y-7829071D01*
X2741071Y-7986214D01*
X2883928Y-7986214D02*
X2883928Y-7786214D01*
X2883928Y-7814786D02*
X2898214Y-7800500D01*
X2926786Y-7786214D01*
X2969643Y-7786214D01*
X2998214Y-7800500D01*
X3012500Y-7829071D01*
X3012500Y-7986214D01*
X3012500Y-7829071D02*
X3026786Y-7800500D01*
X3055357Y-7786214D01*
X3098214Y-7786214D01*
X3126786Y-7800500D01*
X3141071Y-7829071D01*
X3141071Y-7986214D01*
X3726786Y-7671929D02*
X3469643Y-8057643D01*
X4112500Y-7686214D02*
X4141071Y-7686214D01*
X4169643Y-7700500D01*
X4183928Y-7714786D01*
X4198214Y-7743357D01*
X4212500Y-7800500D01*
X4212500Y-7871929D01*
X4198214Y-7929071D01*
X4183928Y-7957643D01*
X4169643Y-7971929D01*
X4141071Y-7986214D01*
X4112500Y-7986214D01*
X4083928Y-7971929D01*
X4069643Y-7957643D01*
X4055357Y-7929071D01*
X4041071Y-7871929D01*
X4041071Y-7800500D01*
X4055357Y-7743357D01*
X4069643Y-7714786D01*
X4083928Y-7700500D01*
X4112500Y-7686214D01*
X4341071Y-7957643D02*
X4355357Y-7971929D01*
X4341071Y-7986214D01*
X4326786Y-7971929D01*
X4341071Y-7957643D01*
X4341071Y-7986214D01*
X4541071Y-7686214D02*
X4569643Y-7686214D01*
X4598214Y-7700500D01*
X4612500Y-7714786D01*
X4626786Y-7743357D01*
X4641071Y-7800500D01*
X4641071Y-7871929D01*
X4626786Y-7929071D01*
X4612500Y-7957643D01*
X4598214Y-7971929D01*
X4569643Y-7986214D01*
X4541071Y-7986214D01*
X4512500Y-7971929D01*
X4498214Y-7957643D01*
X4483928Y-7929071D01*
X4469643Y-7871929D01*
X4469643Y-7800500D01*
X4483928Y-7743357D01*
X4498214Y-7714786D01*
X4512500Y-7700500D01*
X4541071Y-7686214D01*
X4812500Y-7814786D02*
X4783928Y-7800500D01*
X4769643Y-7786214D01*
X4755357Y-7757643D01*
X4755357Y-7743357D01*
X4769643Y-7714786D01*
X4783928Y-7700500D01*
X4812500Y-7686214D01*
X4869643Y-7686214D01*
X4898214Y-7700500D01*
X4912500Y-7714786D01*
X4926786Y-7743357D01*
X4926786Y-7757643D01*
X4912500Y-7786214D01*
X4898214Y-7800500D01*
X4869643Y-7814786D01*
X4812500Y-7814786D01*
X4783928Y-7829071D01*
X4769643Y-7843357D01*
X4755357Y-7871929D01*
X4755357Y-7929071D01*
X4769643Y-7957643D01*
X4783928Y-7971929D01*
X4812500Y-7986214D01*
X4869643Y-7986214D01*
X4898214Y-7971929D01*
X4912500Y-7957643D01*
X4926786Y-7929071D01*
X4926786Y-7871929D01*
X4912500Y-7843357D01*
X4898214Y-7829071D01*
X4869643Y-7814786D01*
X5026786Y-7686214D02*
X5226786Y-7686214D01*
X5098214Y-7986214D01*
X5326786Y-7686214D02*
X5326786Y-7743357D01*
X5441071Y-7686214D02*
X5441071Y-7743357D01*
X5883928Y-8100500D02*
X5869643Y-8086214D01*
X5841071Y-8043357D01*
X5826786Y-8014786D01*
X5812500Y-7971929D01*
X5798214Y-7900500D01*
X5798214Y-7843357D01*
X5812500Y-7771929D01*
X5826786Y-7729071D01*
X5841071Y-7700500D01*
X5869643Y-7657643D01*
X5883928Y-7643357D01*
X6126786Y-7786214D02*
X6126786Y-7986214D01*
X6055357Y-7671929D02*
X5983928Y-7886214D01*
X6169643Y-7886214D01*
X6512500Y-7986214D02*
X6512500Y-7686214D01*
X6641071Y-7986214D02*
X6641071Y-7829071D01*
X6626786Y-7800500D01*
X6598214Y-7786214D01*
X6555357Y-7786214D01*
X6526786Y-7800500D01*
X6512500Y-7814786D01*
X6826786Y-7986214D02*
X6798214Y-7971929D01*
X6783928Y-7957643D01*
X6769643Y-7929071D01*
X6769643Y-7843357D01*
X6783928Y-7814786D01*
X6798214Y-7800500D01*
X6826786Y-7786214D01*
X6869643Y-7786214D01*
X6898214Y-7800500D01*
X6912500Y-7814786D01*
X6926786Y-7843357D01*
X6926786Y-7929071D01*
X6912500Y-7957643D01*
X6898214Y-7971929D01*
X6869643Y-7986214D01*
X6826786Y-7986214D01*
X7098214Y-7986214D02*
X7069643Y-7971929D01*
X7055357Y-7943357D01*
X7055357Y-7686214D01*
X7326786Y-7971929D02*
X7298214Y-7986214D01*
X7241071Y-7986214D01*
X7212500Y-7971929D01*
X7198214Y-7943357D01*
X7198214Y-7829071D01*
X7212500Y-7800500D01*
X7241071Y-7786214D01*
X7298214Y-7786214D01*
X7326786Y-7800500D01*
X7341071Y-7829071D01*
X7341071Y-7857643D01*
X7198214Y-7886214D01*
X7455357Y-7971929D02*
X7483928Y-7986214D01*
X7541071Y-7986214D01*
X7569643Y-7971929D01*
X7583928Y-7943357D01*
X7583928Y-7929071D01*
X7569643Y-7900500D01*
X7541071Y-7886214D01*
X7498214Y-7886214D01*
X7469643Y-7871929D01*
X7455357Y-7843357D01*
X7455357Y-7829071D01*
X7469643Y-7800500D01*
X7498214Y-7786214D01*
X7541071Y-7786214D01*
X7569643Y-7800500D01*
X7683928Y-8100500D02*
X7698214Y-8086214D01*
X7726786Y-8043357D01*
X7741071Y-8014786D01*
X7755357Y-7971929D01*
X7769643Y-7900500D01*
X7769643Y-7843357D01*
X7755357Y-7771929D01*
X7741071Y-7729071D01*
X7726786Y-7700500D01*
X7698214Y-7657643D01*
X7683928Y-7643357D01*
X8226786Y-8100500D02*
X8212500Y-8086214D01*
X8183928Y-8043357D01*
X8169643Y-8014786D01*
X8155357Y-7971929D01*
X8141071Y-7900500D01*
X8141071Y-7843357D01*
X8155357Y-7771929D01*
X8169643Y-7729071D01*
X8183928Y-7700500D01*
X8212500Y-7657643D01*
X8226786Y-7643357D01*
X8341071Y-7786214D02*
X8341071Y-7986214D01*
X8341071Y-7814786D02*
X8355357Y-7800500D01*
X8383928Y-7786214D01*
X8426786Y-7786214D01*
X8455357Y-7800500D01*
X8469643Y-7829071D01*
X8469643Y-7986214D01*
X8655357Y-7986214D02*
X8626786Y-7971929D01*
X8612500Y-7957643D01*
X8598214Y-7929071D01*
X8598214Y-7843357D01*
X8612500Y-7814786D01*
X8626786Y-7800500D01*
X8655357Y-7786214D01*
X8698214Y-7786214D01*
X8726786Y-7800500D01*
X8741071Y-7814786D01*
X8755357Y-7843357D01*
X8755357Y-7929071D01*
X8741071Y-7957643D01*
X8726786Y-7971929D01*
X8698214Y-7986214D01*
X8655357Y-7986214D01*
X8841071Y-7786214D02*
X8955357Y-7786214D01*
X8883928Y-7686214D02*
X8883928Y-7943357D01*
X8898214Y-7971929D01*
X8926786Y-7986214D01*
X8955357Y-7986214D01*
X9283928Y-7786214D02*
X9283928Y-8086214D01*
X9283928Y-7800500D02*
X9312500Y-7786214D01*
X9369643Y-7786214D01*
X9398214Y-7800500D01*
X9412500Y-7814786D01*
X9426786Y-7843357D01*
X9426786Y-7929071D01*
X9412500Y-7957643D01*
X9398214Y-7971929D01*
X9369643Y-7986214D01*
X9312500Y-7986214D01*
X9283928Y-7971929D01*
X9598214Y-7986214D02*
X9569643Y-7971929D01*
X9555357Y-7943357D01*
X9555357Y-7686214D01*
X9841071Y-7986214D02*
X9841071Y-7829071D01*
X9826786Y-7800500D01*
X9798214Y-7786214D01*
X9741071Y-7786214D01*
X9712500Y-7800500D01*
X9841071Y-7971929D02*
X9812500Y-7986214D01*
X9741071Y-7986214D01*
X9712500Y-7971929D01*
X9698214Y-7943357D01*
X9698214Y-7914786D01*
X9712500Y-7886214D01*
X9741071Y-7871929D01*
X9812500Y-7871929D01*
X9841071Y-7857643D01*
X9941071Y-7786214D02*
X10055357Y-7786214D01*
X9983928Y-7686214D02*
X9983928Y-7943357D01*
X9998214Y-7971929D01*
X10026786Y-7986214D01*
X10055357Y-7986214D01*
X10269643Y-7971929D02*
X10241071Y-7986214D01*
X10183928Y-7986214D01*
X10155357Y-7971929D01*
X10141071Y-7943357D01*
X10141071Y-7829071D01*
X10155357Y-7800500D01*
X10183928Y-7786214D01*
X10241071Y-7786214D01*
X10269643Y-7800500D01*
X10283928Y-7829071D01*
X10283928Y-7857643D01*
X10141071Y-7886214D01*
X10541071Y-7986214D02*
X10541071Y-7686214D01*
X10541071Y-7971929D02*
X10512500Y-7986214D01*
X10455357Y-7986214D01*
X10426786Y-7971929D01*
X10412500Y-7957643D01*
X10398214Y-7929071D01*
X10398214Y-7843357D01*
X10412500Y-7814786D01*
X10426786Y-7800500D01*
X10455357Y-7786214D01*
X10512500Y-7786214D01*
X10541071Y-7800500D01*
X10655357Y-8100500D02*
X10669643Y-8086214D01*
X10698214Y-8043357D01*
X10712500Y-8014786D01*
X10726786Y-7971929D01*
X10741071Y-7900500D01*
X10741071Y-7843357D01*
X10726786Y-7771929D01*
X10712500Y-7729071D01*
X10698214Y-7700500D01*
X10669643Y-7657643D01*
X10655357Y-7643357D01*
M02*
