G04 #@! TF.GenerationSoftware,KiCad,Pcbnew,(5.1.2-1)-1*
G04 #@! TF.CreationDate,2020-04-01T22:22:55+05:30*
G04 #@! TF.ProjectId,Alchitry_HDMI_Shield,416c6368-6974-4727-995f-48444d495f53,rev?*
G04 #@! TF.SameCoordinates,Original*
G04 #@! TF.FileFunction,Soldermask,Bot*
G04 #@! TF.FilePolarity,Negative*
%FSLAX46Y46*%
G04 Gerber Fmt 4.6, Leading zero omitted, Abs format (unit mm)*
G04 Created by KiCad (PCBNEW (5.1.2-1)-1) date 2020-04-01 22:22:55*
%MOMM*%
%LPD*%
G04 APERTURE LIST*
%ADD10C,0.254000*%
%ADD11C,0.100000*%
G04 APERTURE END LIST*
D10*
X16000000Y-54500000D02*
G75*
G03X16000000Y-54500000I-1500000J0D01*
G01*
X76000000Y-54500000D02*
G75*
G03X76000000Y-54500000I-1500000J0D01*
G01*
X76000000Y-14500000D02*
G75*
G03X76000000Y-14500000I-1500000J0D01*
G01*
X16000000Y-14500000D02*
G75*
G03X16000000Y-14500000I-1500000J0D01*
G01*
D11*
G36*
X70176000Y-55751000D02*
G01*
X57824000Y-55751000D01*
X57824000Y-53649000D01*
X70176000Y-53649000D01*
X70176000Y-55751000D01*
X70176000Y-55751000D01*
G37*
G36*
X48676000Y-55751000D02*
G01*
X36324000Y-55751000D01*
X36324000Y-53649000D01*
X48676000Y-53649000D01*
X48676000Y-55751000D01*
X48676000Y-55751000D01*
G37*
G36*
X14724549Y-53371116D02*
G01*
X14835734Y-53393232D01*
X15045203Y-53479997D01*
X15233720Y-53605960D01*
X15394040Y-53766280D01*
X15486342Y-53904420D01*
X15520004Y-53954799D01*
X15540062Y-54003223D01*
X15606768Y-54164266D01*
X15651000Y-54386636D01*
X15651000Y-54613364D01*
X15606768Y-54835734D01*
X15520003Y-55045203D01*
X15394040Y-55233720D01*
X15233720Y-55394040D01*
X15045203Y-55520003D01*
X14835734Y-55606768D01*
X14724549Y-55628884D01*
X14613365Y-55651000D01*
X14386635Y-55651000D01*
X14275451Y-55628884D01*
X14164266Y-55606768D01*
X13954797Y-55520003D01*
X13766280Y-55394040D01*
X13605960Y-55233720D01*
X13479997Y-55045203D01*
X13393232Y-54835734D01*
X13349000Y-54613364D01*
X13349000Y-54386636D01*
X13393232Y-54164266D01*
X13459938Y-54003223D01*
X13479996Y-53954799D01*
X13513658Y-53904420D01*
X13605960Y-53766280D01*
X13766280Y-53605960D01*
X13954797Y-53479997D01*
X14164266Y-53393232D01*
X14275451Y-53371116D01*
X14386635Y-53349000D01*
X14613365Y-53349000D01*
X14724549Y-53371116D01*
X14724549Y-53371116D01*
G37*
G36*
X74724549Y-53371116D02*
G01*
X74835734Y-53393232D01*
X75045203Y-53479997D01*
X75233720Y-53605960D01*
X75394040Y-53766280D01*
X75486342Y-53904420D01*
X75520004Y-53954799D01*
X75540062Y-54003223D01*
X75606768Y-54164266D01*
X75651000Y-54386636D01*
X75651000Y-54613364D01*
X75606768Y-54835734D01*
X75520003Y-55045203D01*
X75394040Y-55233720D01*
X75233720Y-55394040D01*
X75045203Y-55520003D01*
X74835734Y-55606768D01*
X74724549Y-55628884D01*
X74613365Y-55651000D01*
X74386635Y-55651000D01*
X74275451Y-55628884D01*
X74164266Y-55606768D01*
X73954797Y-55520003D01*
X73766280Y-55394040D01*
X73605960Y-55233720D01*
X73479997Y-55045203D01*
X73393232Y-54835734D01*
X73349000Y-54613364D01*
X73349000Y-54386636D01*
X73393232Y-54164266D01*
X73459938Y-54003223D01*
X73479996Y-53954799D01*
X73513658Y-53904420D01*
X73605960Y-53766280D01*
X73766280Y-53605960D01*
X73954797Y-53479997D01*
X74164266Y-53393232D01*
X74275451Y-53371116D01*
X74386635Y-53349000D01*
X74613365Y-53349000D01*
X74724549Y-53371116D01*
X74724549Y-53371116D01*
G37*
G36*
X35645091Y-53436528D02*
G01*
X35704420Y-53461103D01*
X35757810Y-53496777D01*
X35803223Y-53542190D01*
X35838897Y-53595580D01*
X35863472Y-53654909D01*
X35876000Y-53717892D01*
X35876000Y-53782108D01*
X35863472Y-53845091D01*
X35838897Y-53904420D01*
X35803223Y-53957810D01*
X35757810Y-54003223D01*
X35704420Y-54038897D01*
X35645091Y-54063472D01*
X35582108Y-54076000D01*
X35517892Y-54076000D01*
X35454909Y-54063472D01*
X35395580Y-54038897D01*
X35342190Y-54003223D01*
X35296777Y-53957810D01*
X35261103Y-53904420D01*
X35236528Y-53845091D01*
X35224000Y-53782108D01*
X35224000Y-53717892D01*
X35236528Y-53654909D01*
X35261103Y-53595580D01*
X35296777Y-53542190D01*
X35342190Y-53496777D01*
X35395580Y-53461103D01*
X35454909Y-53436528D01*
X35517892Y-53424000D01*
X35582108Y-53424000D01*
X35645091Y-53436528D01*
X35645091Y-53436528D01*
G37*
G36*
X49545091Y-53436528D02*
G01*
X49604420Y-53461103D01*
X49657810Y-53496777D01*
X49703223Y-53542190D01*
X49738897Y-53595580D01*
X49763472Y-53654909D01*
X49776000Y-53717892D01*
X49776000Y-53782108D01*
X49763472Y-53845091D01*
X49738897Y-53904420D01*
X49703223Y-53957810D01*
X49657810Y-54003223D01*
X49604420Y-54038897D01*
X49545091Y-54063472D01*
X49482108Y-54076000D01*
X49417892Y-54076000D01*
X49354909Y-54063472D01*
X49295580Y-54038897D01*
X49242190Y-54003223D01*
X49196777Y-53957810D01*
X49161103Y-53904420D01*
X49136528Y-53845091D01*
X49124000Y-53782108D01*
X49124000Y-53717892D01*
X49136528Y-53654909D01*
X49161103Y-53595580D01*
X49196777Y-53542190D01*
X49242190Y-53496777D01*
X49295580Y-53461103D01*
X49354909Y-53436528D01*
X49417892Y-53424000D01*
X49482108Y-53424000D01*
X49545091Y-53436528D01*
X49545091Y-53436528D01*
G37*
G36*
X57145091Y-53436528D02*
G01*
X57204420Y-53461103D01*
X57257810Y-53496777D01*
X57303223Y-53542190D01*
X57338897Y-53595580D01*
X57363472Y-53654909D01*
X57376000Y-53717892D01*
X57376000Y-53782108D01*
X57363472Y-53845091D01*
X57338897Y-53904420D01*
X57303223Y-53957810D01*
X57257810Y-54003223D01*
X57204420Y-54038897D01*
X57145091Y-54063472D01*
X57082108Y-54076000D01*
X57017892Y-54076000D01*
X56954909Y-54063472D01*
X56895580Y-54038897D01*
X56842190Y-54003223D01*
X56796777Y-53957810D01*
X56761103Y-53904420D01*
X56736528Y-53845091D01*
X56724000Y-53782108D01*
X56724000Y-53717892D01*
X56736528Y-53654909D01*
X56761103Y-53595580D01*
X56796777Y-53542190D01*
X56842190Y-53496777D01*
X56895580Y-53461103D01*
X56954909Y-53436528D01*
X57017892Y-53424000D01*
X57082108Y-53424000D01*
X57145091Y-53436528D01*
X57145091Y-53436528D01*
G37*
G36*
X71045091Y-53436528D02*
G01*
X71104420Y-53461103D01*
X71157810Y-53496777D01*
X71203223Y-53542190D01*
X71238897Y-53595580D01*
X71263472Y-53654909D01*
X71276000Y-53717892D01*
X71276000Y-53782108D01*
X71263472Y-53845091D01*
X71238897Y-53904420D01*
X71203223Y-53957810D01*
X71157810Y-54003223D01*
X71104420Y-54038897D01*
X71045091Y-54063472D01*
X70982108Y-54076000D01*
X70917892Y-54076000D01*
X70854909Y-54063472D01*
X70795580Y-54038897D01*
X70742190Y-54003223D01*
X70696777Y-53957810D01*
X70661103Y-53904420D01*
X70636528Y-53845091D01*
X70624000Y-53782108D01*
X70624000Y-53717892D01*
X70636528Y-53654909D01*
X70661103Y-53595580D01*
X70696777Y-53542190D01*
X70742190Y-53496777D01*
X70795580Y-53461103D01*
X70854909Y-53436528D01*
X70917892Y-53424000D01*
X70982108Y-53424000D01*
X71045091Y-53436528D01*
X71045091Y-53436528D01*
G37*
G36*
X35645091Y-50936528D02*
G01*
X35704420Y-50961103D01*
X35757810Y-50996777D01*
X35803223Y-51042190D01*
X35838897Y-51095580D01*
X35863472Y-51154909D01*
X35876000Y-51217892D01*
X35876000Y-51282108D01*
X35863472Y-51345091D01*
X35838897Y-51404420D01*
X35803223Y-51457810D01*
X35757810Y-51503223D01*
X35704420Y-51538897D01*
X35645091Y-51563472D01*
X35582108Y-51576000D01*
X35517892Y-51576000D01*
X35454909Y-51563472D01*
X35395580Y-51538897D01*
X35342190Y-51503223D01*
X35296777Y-51457810D01*
X35261103Y-51404420D01*
X35236528Y-51345091D01*
X35224000Y-51282108D01*
X35224000Y-51217892D01*
X35236528Y-51154909D01*
X35261103Y-51095580D01*
X35296777Y-51042190D01*
X35342190Y-50996777D01*
X35395580Y-50961103D01*
X35454909Y-50936528D01*
X35517892Y-50924000D01*
X35582108Y-50924000D01*
X35645091Y-50936528D01*
X35645091Y-50936528D01*
G37*
G36*
X49545091Y-50936528D02*
G01*
X49604420Y-50961103D01*
X49657810Y-50996777D01*
X49703223Y-51042190D01*
X49738897Y-51095580D01*
X49763472Y-51154909D01*
X49776000Y-51217892D01*
X49776000Y-51282108D01*
X49763472Y-51345091D01*
X49738897Y-51404420D01*
X49703223Y-51457810D01*
X49657810Y-51503223D01*
X49604420Y-51538897D01*
X49545091Y-51563472D01*
X49482108Y-51576000D01*
X49417892Y-51576000D01*
X49354909Y-51563472D01*
X49295580Y-51538897D01*
X49242190Y-51503223D01*
X49196777Y-51457810D01*
X49161103Y-51404420D01*
X49136528Y-51345091D01*
X49124000Y-51282108D01*
X49124000Y-51217892D01*
X49136528Y-51154909D01*
X49161103Y-51095580D01*
X49196777Y-51042190D01*
X49242190Y-50996777D01*
X49295580Y-50961103D01*
X49354909Y-50936528D01*
X49417892Y-50924000D01*
X49482108Y-50924000D01*
X49545091Y-50936528D01*
X49545091Y-50936528D01*
G37*
G36*
X57145091Y-50936528D02*
G01*
X57204420Y-50961103D01*
X57257810Y-50996777D01*
X57303223Y-51042190D01*
X57338897Y-51095580D01*
X57363472Y-51154909D01*
X57376000Y-51217892D01*
X57376000Y-51282108D01*
X57363472Y-51345091D01*
X57338897Y-51404420D01*
X57303223Y-51457810D01*
X57257810Y-51503223D01*
X57204420Y-51538897D01*
X57145091Y-51563472D01*
X57082108Y-51576000D01*
X57017892Y-51576000D01*
X56954909Y-51563472D01*
X56895580Y-51538897D01*
X56842190Y-51503223D01*
X56796777Y-51457810D01*
X56761103Y-51404420D01*
X56736528Y-51345091D01*
X56724000Y-51282108D01*
X56724000Y-51217892D01*
X56736528Y-51154909D01*
X56761103Y-51095580D01*
X56796777Y-51042190D01*
X56842190Y-50996777D01*
X56895580Y-50961103D01*
X56954909Y-50936528D01*
X57017892Y-50924000D01*
X57082108Y-50924000D01*
X57145091Y-50936528D01*
X57145091Y-50936528D01*
G37*
G36*
X71045091Y-50936528D02*
G01*
X71104420Y-50961103D01*
X71157810Y-50996777D01*
X71203223Y-51042190D01*
X71238897Y-51095580D01*
X71263472Y-51154909D01*
X71276000Y-51217892D01*
X71276000Y-51282108D01*
X71263472Y-51345091D01*
X71238897Y-51404420D01*
X71203223Y-51457810D01*
X71157810Y-51503223D01*
X71104420Y-51538897D01*
X71045091Y-51563472D01*
X70982108Y-51576000D01*
X70917892Y-51576000D01*
X70854909Y-51563472D01*
X70795580Y-51538897D01*
X70742190Y-51503223D01*
X70696777Y-51457810D01*
X70661103Y-51404420D01*
X70636528Y-51345091D01*
X70624000Y-51282108D01*
X70624000Y-51217892D01*
X70636528Y-51154909D01*
X70661103Y-51095580D01*
X70696777Y-51042190D01*
X70742190Y-50996777D01*
X70795580Y-50961103D01*
X70854909Y-50936528D01*
X70917892Y-50924000D01*
X70982108Y-50924000D01*
X71045091Y-50936528D01*
X71045091Y-50936528D01*
G37*
G36*
X70176000Y-51351000D02*
G01*
X57824000Y-51351000D01*
X57824000Y-49249000D01*
X70176000Y-49249000D01*
X70176000Y-51351000D01*
X70176000Y-51351000D01*
G37*
G36*
X48676000Y-51351000D02*
G01*
X36324000Y-51351000D01*
X36324000Y-49249000D01*
X48676000Y-49249000D01*
X48676000Y-51351000D01*
X48676000Y-51351000D01*
G37*
G36*
X40762199Y-41299954D02*
G01*
X40774450Y-41300556D01*
X40792869Y-41300556D01*
X40815149Y-41302750D01*
X40899233Y-41319476D01*
X40920660Y-41325976D01*
X40999858Y-41358780D01*
X41005303Y-41361691D01*
X41005309Y-41361693D01*
X41014169Y-41366429D01*
X41014173Y-41366432D01*
X41019614Y-41369340D01*
X41090899Y-41416971D01*
X41108204Y-41431172D01*
X41168828Y-41491796D01*
X41183029Y-41509101D01*
X41230660Y-41580386D01*
X41233568Y-41585827D01*
X41233571Y-41585831D01*
X41238307Y-41594691D01*
X41238309Y-41594697D01*
X41241220Y-41600142D01*
X41274024Y-41679340D01*
X41280524Y-41700767D01*
X41297250Y-41784851D01*
X41299444Y-41807131D01*
X41299444Y-41825550D01*
X41300046Y-41837801D01*
X41301852Y-41856139D01*
X41301852Y-42343860D01*
X41300263Y-42359999D01*
X41297348Y-42369608D01*
X41292610Y-42378472D01*
X41286237Y-42386237D01*
X41273794Y-42396448D01*
X41263425Y-42403378D01*
X41246098Y-42420705D01*
X41232485Y-42441080D01*
X41223109Y-42463720D01*
X41218329Y-42487753D01*
X41218330Y-42512257D01*
X41223112Y-42536290D01*
X41232490Y-42558929D01*
X41246105Y-42579302D01*
X41263432Y-42596629D01*
X41273802Y-42603558D01*
X41286237Y-42613763D01*
X41292610Y-42621528D01*
X41297348Y-42630392D01*
X41300263Y-42640001D01*
X41301852Y-42656140D01*
X41301852Y-43143862D01*
X41300046Y-43162199D01*
X41299444Y-43174450D01*
X41299444Y-43192869D01*
X41297250Y-43215149D01*
X41280524Y-43299233D01*
X41274024Y-43320660D01*
X41241220Y-43399858D01*
X41238309Y-43405303D01*
X41238307Y-43405309D01*
X41233571Y-43414169D01*
X41233568Y-43414173D01*
X41230660Y-43419614D01*
X41183029Y-43490899D01*
X41168828Y-43508204D01*
X41108204Y-43568828D01*
X41090899Y-43583029D01*
X41019614Y-43630660D01*
X41014173Y-43633568D01*
X41014169Y-43633571D01*
X41005309Y-43638307D01*
X41005303Y-43638309D01*
X40999858Y-43641220D01*
X40920660Y-43674024D01*
X40899233Y-43680524D01*
X40815149Y-43697250D01*
X40792869Y-43699444D01*
X40774450Y-43699444D01*
X40762199Y-43700046D01*
X40743862Y-43701852D01*
X40256138Y-43701852D01*
X40237801Y-43700046D01*
X40225550Y-43699444D01*
X40207131Y-43699444D01*
X40184851Y-43697250D01*
X40100767Y-43680524D01*
X40079340Y-43674024D01*
X40000142Y-43641220D01*
X39994697Y-43638309D01*
X39994691Y-43638307D01*
X39985831Y-43633571D01*
X39985827Y-43633568D01*
X39980386Y-43630660D01*
X39909101Y-43583029D01*
X39891796Y-43568828D01*
X39831172Y-43508204D01*
X39816971Y-43490899D01*
X39769340Y-43419614D01*
X39766432Y-43414173D01*
X39766429Y-43414169D01*
X39761693Y-43405309D01*
X39761691Y-43405303D01*
X39758780Y-43399858D01*
X39725976Y-43320660D01*
X39719476Y-43299233D01*
X39702750Y-43215149D01*
X39700556Y-43192869D01*
X39700556Y-43174450D01*
X39699954Y-43162199D01*
X39698148Y-43143862D01*
X39698148Y-42656140D01*
X39699737Y-42640001D01*
X39702652Y-42630392D01*
X39707390Y-42621528D01*
X39713763Y-42613763D01*
X39726206Y-42603552D01*
X39736575Y-42596622D01*
X39753902Y-42579295D01*
X39767515Y-42558920D01*
X39776891Y-42536280D01*
X39781671Y-42512247D01*
X39781670Y-42487743D01*
X39776888Y-42463710D01*
X39767510Y-42441071D01*
X39753895Y-42420698D01*
X39736568Y-42403371D01*
X39726198Y-42396442D01*
X39713763Y-42386237D01*
X39707390Y-42378472D01*
X39702652Y-42369608D01*
X39699737Y-42359999D01*
X39698148Y-42343860D01*
X39698148Y-41856139D01*
X39699954Y-41837801D01*
X39700556Y-41825550D01*
X39700556Y-41807131D01*
X39702750Y-41784851D01*
X39719476Y-41700767D01*
X39725976Y-41679340D01*
X39758780Y-41600142D01*
X39761691Y-41594697D01*
X39761693Y-41594691D01*
X39766429Y-41585831D01*
X39766432Y-41585827D01*
X39769340Y-41580386D01*
X39816971Y-41509101D01*
X39831172Y-41491796D01*
X39891796Y-41431172D01*
X39909101Y-41416971D01*
X39980386Y-41369340D01*
X39985827Y-41366432D01*
X39985831Y-41366429D01*
X39994691Y-41361693D01*
X39994697Y-41361691D01*
X40000142Y-41358780D01*
X40079340Y-41325976D01*
X40100767Y-41319476D01*
X40184851Y-41302750D01*
X40207131Y-41300556D01*
X40225550Y-41300556D01*
X40237801Y-41299954D01*
X40256139Y-41298148D01*
X40743861Y-41298148D01*
X40762199Y-41299954D01*
X40762199Y-41299954D01*
G37*
G36*
X37039499Y-42478445D02*
G01*
X37076995Y-42489820D01*
X37111554Y-42508292D01*
X37141847Y-42533153D01*
X37166708Y-42563446D01*
X37185180Y-42598005D01*
X37196555Y-42635501D01*
X37201000Y-42680638D01*
X37201000Y-43319362D01*
X37196555Y-43364499D01*
X37185180Y-43401995D01*
X37166708Y-43436554D01*
X37141847Y-43466847D01*
X37111554Y-43491708D01*
X37076995Y-43510180D01*
X37039499Y-43521555D01*
X36994362Y-43526000D01*
X36255638Y-43526000D01*
X36210501Y-43521555D01*
X36173005Y-43510180D01*
X36138446Y-43491708D01*
X36108153Y-43466847D01*
X36083292Y-43436554D01*
X36064820Y-43401995D01*
X36053445Y-43364499D01*
X36049000Y-43319362D01*
X36049000Y-42680638D01*
X36053445Y-42635501D01*
X36064820Y-42598005D01*
X36083292Y-42563446D01*
X36108153Y-42533153D01*
X36138446Y-42508292D01*
X36173005Y-42489820D01*
X36210501Y-42478445D01*
X36255638Y-42474000D01*
X36994362Y-42474000D01*
X37039499Y-42478445D01*
X37039499Y-42478445D01*
G37*
G36*
X38789499Y-42478445D02*
G01*
X38826995Y-42489820D01*
X38861554Y-42508292D01*
X38891847Y-42533153D01*
X38916708Y-42563446D01*
X38935180Y-42598005D01*
X38946555Y-42635501D01*
X38951000Y-42680638D01*
X38951000Y-43319362D01*
X38946555Y-43364499D01*
X38935180Y-43401995D01*
X38916708Y-43436554D01*
X38891847Y-43466847D01*
X38861554Y-43491708D01*
X38826995Y-43510180D01*
X38789499Y-43521555D01*
X38744362Y-43526000D01*
X38005638Y-43526000D01*
X37960501Y-43521555D01*
X37923005Y-43510180D01*
X37888446Y-43491708D01*
X37858153Y-43466847D01*
X37833292Y-43436554D01*
X37814820Y-43401995D01*
X37803445Y-43364499D01*
X37799000Y-43319362D01*
X37799000Y-42680638D01*
X37803445Y-42635501D01*
X37814820Y-42598005D01*
X37833292Y-42563446D01*
X37858153Y-42533153D01*
X37888446Y-42508292D01*
X37923005Y-42489820D01*
X37960501Y-42478445D01*
X38005638Y-42474000D01*
X38744362Y-42474000D01*
X38789499Y-42478445D01*
X38789499Y-42478445D01*
G37*
G36*
X37039499Y-40978445D02*
G01*
X37076995Y-40989820D01*
X37111554Y-41008292D01*
X37141847Y-41033153D01*
X37166708Y-41063446D01*
X37185180Y-41098005D01*
X37196555Y-41135501D01*
X37201000Y-41180638D01*
X37201000Y-41819362D01*
X37196555Y-41864499D01*
X37185180Y-41901995D01*
X37166708Y-41936554D01*
X37141847Y-41966847D01*
X37111554Y-41991708D01*
X37076995Y-42010180D01*
X37039499Y-42021555D01*
X36994362Y-42026000D01*
X36255638Y-42026000D01*
X36210501Y-42021555D01*
X36173005Y-42010180D01*
X36138446Y-41991708D01*
X36108153Y-41966847D01*
X36083292Y-41936554D01*
X36064820Y-41901995D01*
X36053445Y-41864499D01*
X36049000Y-41819362D01*
X36049000Y-41180638D01*
X36053445Y-41135501D01*
X36064820Y-41098005D01*
X36083292Y-41063446D01*
X36108153Y-41033153D01*
X36138446Y-41008292D01*
X36173005Y-40989820D01*
X36210501Y-40978445D01*
X36255638Y-40974000D01*
X36994362Y-40974000D01*
X37039499Y-40978445D01*
X37039499Y-40978445D01*
G37*
G36*
X38789499Y-40978445D02*
G01*
X38826995Y-40989820D01*
X38861554Y-41008292D01*
X38891847Y-41033153D01*
X38916708Y-41063446D01*
X38935180Y-41098005D01*
X38946555Y-41135501D01*
X38951000Y-41180638D01*
X38951000Y-41819362D01*
X38946555Y-41864499D01*
X38935180Y-41901995D01*
X38916708Y-41936554D01*
X38891847Y-41966847D01*
X38861554Y-41991708D01*
X38826995Y-42010180D01*
X38789499Y-42021555D01*
X38744362Y-42026000D01*
X38005638Y-42026000D01*
X37960501Y-42021555D01*
X37923005Y-42010180D01*
X37888446Y-41991708D01*
X37858153Y-41966847D01*
X37833292Y-41936554D01*
X37814820Y-41901995D01*
X37803445Y-41864499D01*
X37799000Y-41819362D01*
X37799000Y-41180638D01*
X37803445Y-41135501D01*
X37814820Y-41098005D01*
X37833292Y-41063446D01*
X37858153Y-41033153D01*
X37888446Y-41008292D01*
X37923005Y-40989820D01*
X37960501Y-40978445D01*
X38005638Y-40974000D01*
X38744362Y-40974000D01*
X38789499Y-40978445D01*
X38789499Y-40978445D01*
G37*
G36*
X33864499Y-36803445D02*
G01*
X33901995Y-36814820D01*
X33936554Y-36833292D01*
X33966847Y-36858153D01*
X33991708Y-36888446D01*
X34010180Y-36923005D01*
X34021555Y-36960501D01*
X34026000Y-37005638D01*
X34026000Y-37744362D01*
X34021555Y-37789499D01*
X34010180Y-37826995D01*
X33991708Y-37861554D01*
X33966847Y-37891847D01*
X33936554Y-37916708D01*
X33901995Y-37935180D01*
X33864499Y-37946555D01*
X33819362Y-37951000D01*
X33180638Y-37951000D01*
X33135501Y-37946555D01*
X33098005Y-37935180D01*
X33063446Y-37916708D01*
X33033153Y-37891847D01*
X33008292Y-37861554D01*
X32989820Y-37826995D01*
X32978445Y-37789499D01*
X32974000Y-37744362D01*
X32974000Y-37005638D01*
X32978445Y-36960501D01*
X32989820Y-36923005D01*
X33008292Y-36888446D01*
X33033153Y-36858153D01*
X33063446Y-36833292D01*
X33098005Y-36814820D01*
X33135501Y-36803445D01*
X33180638Y-36799000D01*
X33819362Y-36799000D01*
X33864499Y-36803445D01*
X33864499Y-36803445D01*
G37*
G36*
X32364499Y-36803445D02*
G01*
X32401995Y-36814820D01*
X32436554Y-36833292D01*
X32466847Y-36858153D01*
X32491708Y-36888446D01*
X32510180Y-36923005D01*
X32521555Y-36960501D01*
X32526000Y-37005638D01*
X32526000Y-37744362D01*
X32521555Y-37789499D01*
X32510180Y-37826995D01*
X32491708Y-37861554D01*
X32466847Y-37891847D01*
X32436554Y-37916708D01*
X32401995Y-37935180D01*
X32364499Y-37946555D01*
X32319362Y-37951000D01*
X31680638Y-37951000D01*
X31635501Y-37946555D01*
X31598005Y-37935180D01*
X31563446Y-37916708D01*
X31533153Y-37891847D01*
X31508292Y-37861554D01*
X31489820Y-37826995D01*
X31478445Y-37789499D01*
X31474000Y-37744362D01*
X31474000Y-37005638D01*
X31478445Y-36960501D01*
X31489820Y-36923005D01*
X31508292Y-36888446D01*
X31533153Y-36858153D01*
X31563446Y-36833292D01*
X31598005Y-36814820D01*
X31635501Y-36803445D01*
X31680638Y-36799000D01*
X32319362Y-36799000D01*
X32364499Y-36803445D01*
X32364499Y-36803445D01*
G37*
G36*
X33864499Y-35053445D02*
G01*
X33901995Y-35064820D01*
X33936554Y-35083292D01*
X33966847Y-35108153D01*
X33991708Y-35138446D01*
X34010180Y-35173005D01*
X34021555Y-35210501D01*
X34026000Y-35255638D01*
X34026000Y-35994362D01*
X34021555Y-36039499D01*
X34010180Y-36076995D01*
X33991708Y-36111554D01*
X33966847Y-36141847D01*
X33936554Y-36166708D01*
X33901995Y-36185180D01*
X33864499Y-36196555D01*
X33819362Y-36201000D01*
X33180638Y-36201000D01*
X33135501Y-36196555D01*
X33098005Y-36185180D01*
X33063446Y-36166708D01*
X33033153Y-36141847D01*
X33008292Y-36111554D01*
X32989820Y-36076995D01*
X32978445Y-36039499D01*
X32974000Y-35994362D01*
X32974000Y-35255638D01*
X32978445Y-35210501D01*
X32989820Y-35173005D01*
X33008292Y-35138446D01*
X33033153Y-35108153D01*
X33063446Y-35083292D01*
X33098005Y-35064820D01*
X33135501Y-35053445D01*
X33180638Y-35049000D01*
X33819362Y-35049000D01*
X33864499Y-35053445D01*
X33864499Y-35053445D01*
G37*
G36*
X32364499Y-35053445D02*
G01*
X32401995Y-35064820D01*
X32436554Y-35083292D01*
X32466847Y-35108153D01*
X32491708Y-35138446D01*
X32510180Y-35173005D01*
X32521555Y-35210501D01*
X32526000Y-35255638D01*
X32526000Y-35994362D01*
X32521555Y-36039499D01*
X32510180Y-36076995D01*
X32491708Y-36111554D01*
X32466847Y-36141847D01*
X32436554Y-36166708D01*
X32401995Y-36185180D01*
X32364499Y-36196555D01*
X32319362Y-36201000D01*
X31680638Y-36201000D01*
X31635501Y-36196555D01*
X31598005Y-36185180D01*
X31563446Y-36166708D01*
X31533153Y-36141847D01*
X31508292Y-36111554D01*
X31489820Y-36076995D01*
X31478445Y-36039499D01*
X31474000Y-35994362D01*
X31474000Y-35255638D01*
X31478445Y-35210501D01*
X31489820Y-35173005D01*
X31508292Y-35138446D01*
X31533153Y-35108153D01*
X31563446Y-35083292D01*
X31598005Y-35064820D01*
X31635501Y-35053445D01*
X31680638Y-35049000D01*
X32319362Y-35049000D01*
X32364499Y-35053445D01*
X32364499Y-35053445D01*
G37*
G36*
X44587797Y-34710567D02*
G01*
X44642575Y-34733257D01*
X44642577Y-34733258D01*
X44691876Y-34766198D01*
X44733802Y-34808124D01*
X44766742Y-34857423D01*
X44766743Y-34857425D01*
X44789433Y-34912203D01*
X44801000Y-34970353D01*
X44801000Y-35029647D01*
X44789433Y-35087797D01*
X44781001Y-35108153D01*
X44766742Y-35142577D01*
X44733802Y-35191876D01*
X44691876Y-35233802D01*
X44642577Y-35266742D01*
X44642576Y-35266743D01*
X44642575Y-35266743D01*
X44587797Y-35289433D01*
X44529647Y-35301000D01*
X44470353Y-35301000D01*
X44412203Y-35289433D01*
X44357425Y-35266743D01*
X44357424Y-35266743D01*
X44357423Y-35266742D01*
X44308124Y-35233802D01*
X44266198Y-35191876D01*
X44233258Y-35142577D01*
X44218999Y-35108153D01*
X44210567Y-35087797D01*
X44199000Y-35029647D01*
X44199000Y-34970353D01*
X44210567Y-34912203D01*
X44233257Y-34857425D01*
X44233258Y-34857423D01*
X44266198Y-34808124D01*
X44308124Y-34766198D01*
X44357423Y-34733258D01*
X44357425Y-34733257D01*
X44412203Y-34710567D01*
X44470353Y-34699000D01*
X44529647Y-34699000D01*
X44587797Y-34710567D01*
X44587797Y-34710567D01*
G37*
G36*
X43587797Y-34710567D02*
G01*
X43642575Y-34733257D01*
X43642577Y-34733258D01*
X43691876Y-34766198D01*
X43733802Y-34808124D01*
X43766742Y-34857423D01*
X43766743Y-34857425D01*
X43789433Y-34912203D01*
X43801000Y-34970353D01*
X43801000Y-35029647D01*
X43789433Y-35087797D01*
X43781001Y-35108153D01*
X43766742Y-35142577D01*
X43733802Y-35191876D01*
X43691876Y-35233802D01*
X43642577Y-35266742D01*
X43642576Y-35266743D01*
X43642575Y-35266743D01*
X43587797Y-35289433D01*
X43529647Y-35301000D01*
X43470353Y-35301000D01*
X43412203Y-35289433D01*
X43357425Y-35266743D01*
X43357424Y-35266743D01*
X43357423Y-35266742D01*
X43308124Y-35233802D01*
X43266198Y-35191876D01*
X43233258Y-35142577D01*
X43218999Y-35108153D01*
X43210567Y-35087797D01*
X43199000Y-35029647D01*
X43199000Y-34970353D01*
X43210567Y-34912203D01*
X43233257Y-34857425D01*
X43233258Y-34857423D01*
X43266198Y-34808124D01*
X43308124Y-34766198D01*
X43357423Y-34733258D01*
X43357425Y-34733257D01*
X43412203Y-34710567D01*
X43470353Y-34699000D01*
X43529647Y-34699000D01*
X43587797Y-34710567D01*
X43587797Y-34710567D01*
G37*
G36*
X42587797Y-34710567D02*
G01*
X42642575Y-34733257D01*
X42642577Y-34733258D01*
X42691876Y-34766198D01*
X42733802Y-34808124D01*
X42766742Y-34857423D01*
X42766743Y-34857425D01*
X42789433Y-34912203D01*
X42801000Y-34970353D01*
X42801000Y-35029647D01*
X42789433Y-35087797D01*
X42781001Y-35108153D01*
X42766742Y-35142577D01*
X42733802Y-35191876D01*
X42691876Y-35233802D01*
X42642577Y-35266742D01*
X42642576Y-35266743D01*
X42642575Y-35266743D01*
X42587797Y-35289433D01*
X42529647Y-35301000D01*
X42470353Y-35301000D01*
X42412203Y-35289433D01*
X42357425Y-35266743D01*
X42357424Y-35266743D01*
X42357423Y-35266742D01*
X42308124Y-35233802D01*
X42266198Y-35191876D01*
X42233258Y-35142577D01*
X42218999Y-35108153D01*
X42210567Y-35087797D01*
X42199000Y-35029647D01*
X42199000Y-34970353D01*
X42210567Y-34912203D01*
X42233257Y-34857425D01*
X42233258Y-34857423D01*
X42266198Y-34808124D01*
X42308124Y-34766198D01*
X42357423Y-34733258D01*
X42357425Y-34733257D01*
X42412203Y-34710567D01*
X42470353Y-34699000D01*
X42529647Y-34699000D01*
X42587797Y-34710567D01*
X42587797Y-34710567D01*
G37*
G36*
X41587797Y-34710567D02*
G01*
X41642575Y-34733257D01*
X41642577Y-34733258D01*
X41691876Y-34766198D01*
X41733802Y-34808124D01*
X41766742Y-34857423D01*
X41766743Y-34857425D01*
X41789433Y-34912203D01*
X41801000Y-34970353D01*
X41801000Y-35029647D01*
X41789433Y-35087797D01*
X41781001Y-35108153D01*
X41766742Y-35142577D01*
X41733802Y-35191876D01*
X41691876Y-35233802D01*
X41642577Y-35266742D01*
X41642576Y-35266743D01*
X41642575Y-35266743D01*
X41587797Y-35289433D01*
X41529647Y-35301000D01*
X41470353Y-35301000D01*
X41412203Y-35289433D01*
X41357425Y-35266743D01*
X41357424Y-35266743D01*
X41357423Y-35266742D01*
X41308124Y-35233802D01*
X41266198Y-35191876D01*
X41233258Y-35142577D01*
X41218999Y-35108153D01*
X41210567Y-35087797D01*
X41199000Y-35029647D01*
X41199000Y-34970353D01*
X41210567Y-34912203D01*
X41233257Y-34857425D01*
X41233258Y-34857423D01*
X41266198Y-34808124D01*
X41308124Y-34766198D01*
X41357423Y-34733258D01*
X41357425Y-34733257D01*
X41412203Y-34710567D01*
X41470353Y-34699000D01*
X41529647Y-34699000D01*
X41587797Y-34710567D01*
X41587797Y-34710567D01*
G37*
G36*
X40587797Y-34710567D02*
G01*
X40642575Y-34733257D01*
X40642577Y-34733258D01*
X40691876Y-34766198D01*
X40733802Y-34808124D01*
X40766742Y-34857423D01*
X40766743Y-34857425D01*
X40789433Y-34912203D01*
X40801000Y-34970353D01*
X40801000Y-35029647D01*
X40789433Y-35087797D01*
X40781001Y-35108153D01*
X40766742Y-35142577D01*
X40733802Y-35191876D01*
X40691876Y-35233802D01*
X40642577Y-35266742D01*
X40642576Y-35266743D01*
X40642575Y-35266743D01*
X40587797Y-35289433D01*
X40529647Y-35301000D01*
X40470353Y-35301000D01*
X40412203Y-35289433D01*
X40357425Y-35266743D01*
X40357424Y-35266743D01*
X40357423Y-35266742D01*
X40308124Y-35233802D01*
X40266198Y-35191876D01*
X40233258Y-35142577D01*
X40218999Y-35108153D01*
X40210567Y-35087797D01*
X40199000Y-35029647D01*
X40199000Y-34970353D01*
X40210567Y-34912203D01*
X40233257Y-34857425D01*
X40233258Y-34857423D01*
X40266198Y-34808124D01*
X40308124Y-34766198D01*
X40357423Y-34733258D01*
X40357425Y-34733257D01*
X40412203Y-34710567D01*
X40470353Y-34699000D01*
X40529647Y-34699000D01*
X40587797Y-34710567D01*
X40587797Y-34710567D01*
G37*
G36*
X40587797Y-33710567D02*
G01*
X40642575Y-33733257D01*
X40642577Y-33733258D01*
X40691876Y-33766198D01*
X40733802Y-33808124D01*
X40766742Y-33857423D01*
X40766743Y-33857425D01*
X40789433Y-33912203D01*
X40801000Y-33970353D01*
X40801000Y-34029647D01*
X40789433Y-34087797D01*
X40766743Y-34142575D01*
X40766742Y-34142577D01*
X40733802Y-34191876D01*
X40691876Y-34233802D01*
X40642577Y-34266742D01*
X40642576Y-34266743D01*
X40642575Y-34266743D01*
X40587797Y-34289433D01*
X40529647Y-34301000D01*
X40470353Y-34301000D01*
X40412203Y-34289433D01*
X40357425Y-34266743D01*
X40357424Y-34266743D01*
X40357423Y-34266742D01*
X40308124Y-34233802D01*
X40266198Y-34191876D01*
X40233258Y-34142577D01*
X40233257Y-34142575D01*
X40210567Y-34087797D01*
X40199000Y-34029647D01*
X40199000Y-33970353D01*
X40210567Y-33912203D01*
X40233257Y-33857425D01*
X40233258Y-33857423D01*
X40266198Y-33808124D01*
X40308124Y-33766198D01*
X40357423Y-33733258D01*
X40357425Y-33733257D01*
X40412203Y-33710567D01*
X40470353Y-33699000D01*
X40529647Y-33699000D01*
X40587797Y-33710567D01*
X40587797Y-33710567D01*
G37*
G36*
X43587797Y-33710567D02*
G01*
X43642575Y-33733257D01*
X43642577Y-33733258D01*
X43691876Y-33766198D01*
X43733802Y-33808124D01*
X43766742Y-33857423D01*
X43766743Y-33857425D01*
X43789433Y-33912203D01*
X43801000Y-33970353D01*
X43801000Y-34029647D01*
X43789433Y-34087797D01*
X43766743Y-34142575D01*
X43766742Y-34142577D01*
X43733802Y-34191876D01*
X43691876Y-34233802D01*
X43642577Y-34266742D01*
X43642576Y-34266743D01*
X43642575Y-34266743D01*
X43587797Y-34289433D01*
X43529647Y-34301000D01*
X43470353Y-34301000D01*
X43412203Y-34289433D01*
X43357425Y-34266743D01*
X43357424Y-34266743D01*
X43357423Y-34266742D01*
X43308124Y-34233802D01*
X43266198Y-34191876D01*
X43233258Y-34142577D01*
X43233257Y-34142575D01*
X43210567Y-34087797D01*
X43199000Y-34029647D01*
X43199000Y-33970353D01*
X43210567Y-33912203D01*
X43233257Y-33857425D01*
X43233258Y-33857423D01*
X43266198Y-33808124D01*
X43308124Y-33766198D01*
X43357423Y-33733258D01*
X43357425Y-33733257D01*
X43412203Y-33710567D01*
X43470353Y-33699000D01*
X43529647Y-33699000D01*
X43587797Y-33710567D01*
X43587797Y-33710567D01*
G37*
G36*
X41587797Y-33710567D02*
G01*
X41642575Y-33733257D01*
X41642577Y-33733258D01*
X41691876Y-33766198D01*
X41733802Y-33808124D01*
X41766742Y-33857423D01*
X41766743Y-33857425D01*
X41789433Y-33912203D01*
X41801000Y-33970353D01*
X41801000Y-34029647D01*
X41789433Y-34087797D01*
X41766743Y-34142575D01*
X41766742Y-34142577D01*
X41733802Y-34191876D01*
X41691876Y-34233802D01*
X41642577Y-34266742D01*
X41642576Y-34266743D01*
X41642575Y-34266743D01*
X41587797Y-34289433D01*
X41529647Y-34301000D01*
X41470353Y-34301000D01*
X41412203Y-34289433D01*
X41357425Y-34266743D01*
X41357424Y-34266743D01*
X41357423Y-34266742D01*
X41308124Y-34233802D01*
X41266198Y-34191876D01*
X41233258Y-34142577D01*
X41233257Y-34142575D01*
X41210567Y-34087797D01*
X41199000Y-34029647D01*
X41199000Y-33970353D01*
X41210567Y-33912203D01*
X41233257Y-33857425D01*
X41233258Y-33857423D01*
X41266198Y-33808124D01*
X41308124Y-33766198D01*
X41357423Y-33733258D01*
X41357425Y-33733257D01*
X41412203Y-33710567D01*
X41470353Y-33699000D01*
X41529647Y-33699000D01*
X41587797Y-33710567D01*
X41587797Y-33710567D01*
G37*
G36*
X42587797Y-33710567D02*
G01*
X42642575Y-33733257D01*
X42642577Y-33733258D01*
X42691876Y-33766198D01*
X42733802Y-33808124D01*
X42766742Y-33857423D01*
X42766743Y-33857425D01*
X42789433Y-33912203D01*
X42801000Y-33970353D01*
X42801000Y-34029647D01*
X42789433Y-34087797D01*
X42766743Y-34142575D01*
X42766742Y-34142577D01*
X42733802Y-34191876D01*
X42691876Y-34233802D01*
X42642577Y-34266742D01*
X42642576Y-34266743D01*
X42642575Y-34266743D01*
X42587797Y-34289433D01*
X42529647Y-34301000D01*
X42470353Y-34301000D01*
X42412203Y-34289433D01*
X42357425Y-34266743D01*
X42357424Y-34266743D01*
X42357423Y-34266742D01*
X42308124Y-34233802D01*
X42266198Y-34191876D01*
X42233258Y-34142577D01*
X42233257Y-34142575D01*
X42210567Y-34087797D01*
X42199000Y-34029647D01*
X42199000Y-33970353D01*
X42210567Y-33912203D01*
X42233257Y-33857425D01*
X42233258Y-33857423D01*
X42266198Y-33808124D01*
X42308124Y-33766198D01*
X42357423Y-33733258D01*
X42357425Y-33733257D01*
X42412203Y-33710567D01*
X42470353Y-33699000D01*
X42529647Y-33699000D01*
X42587797Y-33710567D01*
X42587797Y-33710567D01*
G37*
G36*
X44587797Y-33710567D02*
G01*
X44642575Y-33733257D01*
X44642577Y-33733258D01*
X44691876Y-33766198D01*
X44733802Y-33808124D01*
X44766742Y-33857423D01*
X44766743Y-33857425D01*
X44789433Y-33912203D01*
X44801000Y-33970353D01*
X44801000Y-34029647D01*
X44789433Y-34087797D01*
X44766743Y-34142575D01*
X44766742Y-34142577D01*
X44733802Y-34191876D01*
X44691876Y-34233802D01*
X44642577Y-34266742D01*
X44642576Y-34266743D01*
X44642575Y-34266743D01*
X44587797Y-34289433D01*
X44529647Y-34301000D01*
X44470353Y-34301000D01*
X44412203Y-34289433D01*
X44357425Y-34266743D01*
X44357424Y-34266743D01*
X44357423Y-34266742D01*
X44308124Y-34233802D01*
X44266198Y-34191876D01*
X44233258Y-34142577D01*
X44233257Y-34142575D01*
X44210567Y-34087797D01*
X44199000Y-34029647D01*
X44199000Y-33970353D01*
X44210567Y-33912203D01*
X44233257Y-33857425D01*
X44233258Y-33857423D01*
X44266198Y-33808124D01*
X44308124Y-33766198D01*
X44357423Y-33733258D01*
X44357425Y-33733257D01*
X44412203Y-33710567D01*
X44470353Y-33699000D01*
X44529647Y-33699000D01*
X44587797Y-33710567D01*
X44587797Y-33710567D01*
G37*
G36*
X32364499Y-32303445D02*
G01*
X32401995Y-32314820D01*
X32436554Y-32333292D01*
X32466847Y-32358153D01*
X32491708Y-32388446D01*
X32510180Y-32423005D01*
X32521555Y-32460501D01*
X32526000Y-32505638D01*
X32526000Y-33244362D01*
X32521555Y-33289499D01*
X32510180Y-33326995D01*
X32491708Y-33361554D01*
X32466847Y-33391847D01*
X32436554Y-33416708D01*
X32401995Y-33435180D01*
X32364499Y-33446555D01*
X32319362Y-33451000D01*
X31680638Y-33451000D01*
X31635501Y-33446555D01*
X31598005Y-33435180D01*
X31563446Y-33416708D01*
X31533153Y-33391847D01*
X31508292Y-33361554D01*
X31489820Y-33326995D01*
X31478445Y-33289499D01*
X31474000Y-33244362D01*
X31474000Y-32505638D01*
X31478445Y-32460501D01*
X31489820Y-32423005D01*
X31508292Y-32388446D01*
X31533153Y-32358153D01*
X31563446Y-32333292D01*
X31598005Y-32314820D01*
X31635501Y-32303445D01*
X31680638Y-32299000D01*
X32319362Y-32299000D01*
X32364499Y-32303445D01*
X32364499Y-32303445D01*
G37*
G36*
X16287421Y-32059143D02*
G01*
X16419557Y-32099227D01*
X16419559Y-32099228D01*
X16541339Y-32164320D01*
X16648080Y-32251920D01*
X16735680Y-32358661D01*
X16770072Y-32423005D01*
X16800773Y-32480443D01*
X16840857Y-32612579D01*
X16854391Y-32750000D01*
X16840857Y-32887421D01*
X16805095Y-33005309D01*
X16800772Y-33019559D01*
X16735680Y-33141339D01*
X16648080Y-33248080D01*
X16541339Y-33335680D01*
X16419559Y-33400772D01*
X16419557Y-33400773D01*
X16287421Y-33440857D01*
X16184432Y-33451000D01*
X15615568Y-33451000D01*
X15512579Y-33440857D01*
X15380443Y-33400773D01*
X15380441Y-33400772D01*
X15258661Y-33335680D01*
X15151920Y-33248080D01*
X15064320Y-33141339D01*
X14999228Y-33019559D01*
X14994905Y-33005309D01*
X14959143Y-32887421D01*
X14945609Y-32750000D01*
X14959143Y-32612579D01*
X14999227Y-32480443D01*
X15029928Y-32423005D01*
X15064320Y-32358661D01*
X15151920Y-32251920D01*
X15258661Y-32164320D01*
X15380441Y-32099228D01*
X15380443Y-32099227D01*
X15512579Y-32059143D01*
X15615568Y-32049000D01*
X16184432Y-32049000D01*
X16287421Y-32059143D01*
X16287421Y-32059143D01*
G37*
G36*
X22887421Y-32059143D02*
G01*
X23019557Y-32099227D01*
X23019559Y-32099228D01*
X23141339Y-32164320D01*
X23248080Y-32251920D01*
X23335680Y-32358661D01*
X23370072Y-32423005D01*
X23400773Y-32480443D01*
X23440857Y-32612579D01*
X23454391Y-32750000D01*
X23440857Y-32887421D01*
X23405095Y-33005309D01*
X23400772Y-33019559D01*
X23335680Y-33141339D01*
X23248080Y-33248080D01*
X23141339Y-33335680D01*
X23019559Y-33400772D01*
X23019557Y-33400773D01*
X22887421Y-33440857D01*
X22784432Y-33451000D01*
X21015568Y-33451000D01*
X20912579Y-33440857D01*
X20780443Y-33400773D01*
X20780441Y-33400772D01*
X20658661Y-33335680D01*
X20551920Y-33248080D01*
X20464320Y-33141339D01*
X20399228Y-33019559D01*
X20394905Y-33005309D01*
X20359143Y-32887421D01*
X20345609Y-32750000D01*
X20359143Y-32612579D01*
X20399227Y-32480443D01*
X20429928Y-32423005D01*
X20464320Y-32358661D01*
X20551920Y-32251920D01*
X20658661Y-32164320D01*
X20780441Y-32099228D01*
X20780443Y-32099227D01*
X20912579Y-32059143D01*
X21015568Y-32049000D01*
X22784432Y-32049000D01*
X22887421Y-32059143D01*
X22887421Y-32059143D01*
G37*
G36*
X33864499Y-32303445D02*
G01*
X33901995Y-32314820D01*
X33936554Y-32333292D01*
X33966847Y-32358153D01*
X33991708Y-32388446D01*
X34010180Y-32423005D01*
X34021555Y-32460501D01*
X34026000Y-32505638D01*
X34026000Y-33244362D01*
X34021555Y-33289499D01*
X34010180Y-33326995D01*
X33991708Y-33361554D01*
X33966847Y-33391847D01*
X33936554Y-33416708D01*
X33901995Y-33435180D01*
X33864499Y-33446555D01*
X33819362Y-33451000D01*
X33180638Y-33451000D01*
X33135501Y-33446555D01*
X33098005Y-33435180D01*
X33063446Y-33416708D01*
X33033153Y-33391847D01*
X33008292Y-33361554D01*
X32989820Y-33326995D01*
X32978445Y-33289499D01*
X32974000Y-33244362D01*
X32974000Y-32505638D01*
X32978445Y-32460501D01*
X32989820Y-32423005D01*
X33008292Y-32388446D01*
X33033153Y-32358153D01*
X33063446Y-32333292D01*
X33098005Y-32314820D01*
X33135501Y-32303445D01*
X33180638Y-32299000D01*
X33819362Y-32299000D01*
X33864499Y-32303445D01*
X33864499Y-32303445D01*
G37*
G36*
X51759999Y-31699737D02*
G01*
X51774528Y-31704145D01*
X51787711Y-31709606D01*
X51811745Y-31714388D01*
X51836249Y-31714389D01*
X51860282Y-31709609D01*
X51882921Y-31700232D01*
X51884765Y-31699000D01*
X53116050Y-31699000D01*
X53128164Y-31705475D01*
X53151613Y-31712588D01*
X53175999Y-31714990D01*
X53200385Y-31712588D01*
X53223834Y-31705475D01*
X53228746Y-31703152D01*
X53240001Y-31699737D01*
X53256140Y-31698148D01*
X53793861Y-31698148D01*
X53812199Y-31699954D01*
X53824450Y-31700556D01*
X53842869Y-31700556D01*
X53865149Y-31702750D01*
X53949233Y-31719476D01*
X53970660Y-31725976D01*
X54049858Y-31758780D01*
X54055303Y-31761691D01*
X54055309Y-31761693D01*
X54064169Y-31766429D01*
X54064173Y-31766432D01*
X54069614Y-31769340D01*
X54140899Y-31816971D01*
X54158204Y-31831172D01*
X54218828Y-31891796D01*
X54233029Y-31909101D01*
X54280660Y-31980386D01*
X54283568Y-31985827D01*
X54283571Y-31985831D01*
X54288307Y-31994691D01*
X54288309Y-31994697D01*
X54291220Y-32000142D01*
X54324024Y-32079340D01*
X54325816Y-32085246D01*
X54325816Y-32085247D01*
X54326590Y-32087798D01*
X54330524Y-32100767D01*
X54347250Y-32184851D01*
X54349444Y-32207131D01*
X54349444Y-32225550D01*
X54350046Y-32237801D01*
X54351852Y-32256139D01*
X54351852Y-32743862D01*
X54350046Y-32762199D01*
X54349444Y-32774450D01*
X54349444Y-32792869D01*
X54347250Y-32815149D01*
X54330524Y-32899233D01*
X54328732Y-32905140D01*
X54326590Y-32912203D01*
X54324024Y-32920660D01*
X54291220Y-32999858D01*
X54288309Y-33005303D01*
X54288307Y-33005309D01*
X54283571Y-33014169D01*
X54283568Y-33014173D01*
X54280660Y-33019614D01*
X54233029Y-33090899D01*
X54218828Y-33108204D01*
X54158204Y-33168828D01*
X54140899Y-33183029D01*
X54069614Y-33230660D01*
X54064173Y-33233568D01*
X54064169Y-33233571D01*
X54055309Y-33238307D01*
X54055303Y-33238309D01*
X54049858Y-33241220D01*
X53970660Y-33274024D01*
X53949233Y-33280524D01*
X53865149Y-33297250D01*
X53842869Y-33299444D01*
X53824450Y-33299444D01*
X53812199Y-33300046D01*
X53793862Y-33301852D01*
X53256140Y-33301852D01*
X53240001Y-33300263D01*
X53225472Y-33295855D01*
X53212289Y-33290394D01*
X53188255Y-33285612D01*
X53163751Y-33285611D01*
X53139718Y-33290391D01*
X53117079Y-33299768D01*
X53115235Y-33301000D01*
X51883950Y-33301000D01*
X51871836Y-33294525D01*
X51848387Y-33287412D01*
X51824001Y-33285010D01*
X51799615Y-33287412D01*
X51776166Y-33294525D01*
X51771254Y-33296848D01*
X51759999Y-33300263D01*
X51743860Y-33301852D01*
X51206138Y-33301852D01*
X51187801Y-33300046D01*
X51175550Y-33299444D01*
X51157131Y-33299444D01*
X51134851Y-33297250D01*
X51050767Y-33280524D01*
X51029340Y-33274024D01*
X50950142Y-33241220D01*
X50944697Y-33238309D01*
X50944691Y-33238307D01*
X50935831Y-33233571D01*
X50935827Y-33233568D01*
X50930386Y-33230660D01*
X50859101Y-33183029D01*
X50841796Y-33168828D01*
X50781172Y-33108204D01*
X50766971Y-33090899D01*
X50719340Y-33019614D01*
X50716432Y-33014173D01*
X50716429Y-33014169D01*
X50711693Y-33005309D01*
X50711691Y-33005303D01*
X50708780Y-32999858D01*
X50675976Y-32920660D01*
X50673411Y-32912203D01*
X50671268Y-32905140D01*
X50669476Y-32899233D01*
X50652750Y-32815149D01*
X50650556Y-32792869D01*
X50650556Y-32774450D01*
X50649954Y-32762199D01*
X50648148Y-32743862D01*
X50648148Y-32256139D01*
X50649954Y-32237801D01*
X50650556Y-32225550D01*
X50650556Y-32207131D01*
X50652750Y-32184851D01*
X50669476Y-32100767D01*
X50673410Y-32087798D01*
X50674184Y-32085247D01*
X50674184Y-32085246D01*
X50675976Y-32079340D01*
X50708780Y-32000142D01*
X50711691Y-31994697D01*
X50711693Y-31994691D01*
X50716429Y-31985831D01*
X50716432Y-31985827D01*
X50719340Y-31980386D01*
X50766971Y-31909101D01*
X50781172Y-31891796D01*
X50841796Y-31831172D01*
X50859101Y-31816971D01*
X50930386Y-31769340D01*
X50935827Y-31766432D01*
X50935831Y-31766429D01*
X50944691Y-31761693D01*
X50944697Y-31761691D01*
X50950142Y-31758780D01*
X51029340Y-31725976D01*
X51050767Y-31719476D01*
X51134851Y-31702750D01*
X51157131Y-31700556D01*
X51175550Y-31700556D01*
X51187801Y-31699954D01*
X51206139Y-31698148D01*
X51743860Y-31698148D01*
X51759999Y-31699737D01*
X51759999Y-31699737D01*
G37*
G36*
X42587797Y-32710567D02*
G01*
X42642575Y-32733257D01*
X42642577Y-32733258D01*
X42691876Y-32766198D01*
X42733802Y-32808124D01*
X42766742Y-32857423D01*
X42766743Y-32857425D01*
X42789433Y-32912203D01*
X42801000Y-32970353D01*
X42801000Y-33029647D01*
X42789433Y-33087797D01*
X42766743Y-33142575D01*
X42766742Y-33142577D01*
X42733802Y-33191876D01*
X42691876Y-33233802D01*
X42642577Y-33266742D01*
X42642576Y-33266743D01*
X42642575Y-33266743D01*
X42587797Y-33289433D01*
X42529647Y-33301000D01*
X42470353Y-33301000D01*
X42412203Y-33289433D01*
X42357425Y-33266743D01*
X42357424Y-33266743D01*
X42357423Y-33266742D01*
X42308124Y-33233802D01*
X42266198Y-33191876D01*
X42233258Y-33142577D01*
X42233257Y-33142575D01*
X42210567Y-33087797D01*
X42199000Y-33029647D01*
X42199000Y-32970353D01*
X42210567Y-32912203D01*
X42233257Y-32857425D01*
X42233258Y-32857423D01*
X42266198Y-32808124D01*
X42308124Y-32766198D01*
X42357423Y-32733258D01*
X42357425Y-32733257D01*
X42412203Y-32710567D01*
X42470353Y-32699000D01*
X42529647Y-32699000D01*
X42587797Y-32710567D01*
X42587797Y-32710567D01*
G37*
G36*
X43587797Y-32710567D02*
G01*
X43642575Y-32733257D01*
X43642577Y-32733258D01*
X43691876Y-32766198D01*
X43733802Y-32808124D01*
X43766742Y-32857423D01*
X43766743Y-32857425D01*
X43789433Y-32912203D01*
X43801000Y-32970353D01*
X43801000Y-33029647D01*
X43789433Y-33087797D01*
X43766743Y-33142575D01*
X43766742Y-33142577D01*
X43733802Y-33191876D01*
X43691876Y-33233802D01*
X43642577Y-33266742D01*
X43642576Y-33266743D01*
X43642575Y-33266743D01*
X43587797Y-33289433D01*
X43529647Y-33301000D01*
X43470353Y-33301000D01*
X43412203Y-33289433D01*
X43357425Y-33266743D01*
X43357424Y-33266743D01*
X43357423Y-33266742D01*
X43308124Y-33233802D01*
X43266198Y-33191876D01*
X43233258Y-33142577D01*
X43233257Y-33142575D01*
X43210567Y-33087797D01*
X43199000Y-33029647D01*
X43199000Y-32970353D01*
X43210567Y-32912203D01*
X43233257Y-32857425D01*
X43233258Y-32857423D01*
X43266198Y-32808124D01*
X43308124Y-32766198D01*
X43357423Y-32733258D01*
X43357425Y-32733257D01*
X43412203Y-32710567D01*
X43470353Y-32699000D01*
X43529647Y-32699000D01*
X43587797Y-32710567D01*
X43587797Y-32710567D01*
G37*
G36*
X41587797Y-32710567D02*
G01*
X41642575Y-32733257D01*
X41642577Y-32733258D01*
X41691876Y-32766198D01*
X41733802Y-32808124D01*
X41766742Y-32857423D01*
X41766743Y-32857425D01*
X41789433Y-32912203D01*
X41801000Y-32970353D01*
X41801000Y-33029647D01*
X41789433Y-33087797D01*
X41766743Y-33142575D01*
X41766742Y-33142577D01*
X41733802Y-33191876D01*
X41691876Y-33233802D01*
X41642577Y-33266742D01*
X41642576Y-33266743D01*
X41642575Y-33266743D01*
X41587797Y-33289433D01*
X41529647Y-33301000D01*
X41470353Y-33301000D01*
X41412203Y-33289433D01*
X41357425Y-33266743D01*
X41357424Y-33266743D01*
X41357423Y-33266742D01*
X41308124Y-33233802D01*
X41266198Y-33191876D01*
X41233258Y-33142577D01*
X41233257Y-33142575D01*
X41210567Y-33087797D01*
X41199000Y-33029647D01*
X41199000Y-32970353D01*
X41210567Y-32912203D01*
X41233257Y-32857425D01*
X41233258Y-32857423D01*
X41266198Y-32808124D01*
X41308124Y-32766198D01*
X41357423Y-32733258D01*
X41357425Y-32733257D01*
X41412203Y-32710567D01*
X41470353Y-32699000D01*
X41529647Y-32699000D01*
X41587797Y-32710567D01*
X41587797Y-32710567D01*
G37*
G36*
X40587797Y-32710567D02*
G01*
X40642575Y-32733257D01*
X40642577Y-32733258D01*
X40691876Y-32766198D01*
X40733802Y-32808124D01*
X40766742Y-32857423D01*
X40766743Y-32857425D01*
X40789433Y-32912203D01*
X40801000Y-32970353D01*
X40801000Y-33029647D01*
X40789433Y-33087797D01*
X40766743Y-33142575D01*
X40766742Y-33142577D01*
X40733802Y-33191876D01*
X40691876Y-33233802D01*
X40642577Y-33266742D01*
X40642576Y-33266743D01*
X40642575Y-33266743D01*
X40587797Y-33289433D01*
X40529647Y-33301000D01*
X40470353Y-33301000D01*
X40412203Y-33289433D01*
X40357425Y-33266743D01*
X40357424Y-33266743D01*
X40357423Y-33266742D01*
X40308124Y-33233802D01*
X40266198Y-33191876D01*
X40233258Y-33142577D01*
X40233257Y-33142575D01*
X40210567Y-33087797D01*
X40199000Y-33029647D01*
X40199000Y-32970353D01*
X40210567Y-32912203D01*
X40233257Y-32857425D01*
X40233258Y-32857423D01*
X40266198Y-32808124D01*
X40308124Y-32766198D01*
X40357423Y-32733258D01*
X40357425Y-32733257D01*
X40412203Y-32710567D01*
X40470353Y-32699000D01*
X40529647Y-32699000D01*
X40587797Y-32710567D01*
X40587797Y-32710567D01*
G37*
G36*
X44587797Y-32710567D02*
G01*
X44642575Y-32733257D01*
X44642577Y-32733258D01*
X44691876Y-32766198D01*
X44733802Y-32808124D01*
X44766742Y-32857423D01*
X44766743Y-32857425D01*
X44789433Y-32912203D01*
X44801000Y-32970353D01*
X44801000Y-33029647D01*
X44789433Y-33087797D01*
X44766743Y-33142575D01*
X44766742Y-33142577D01*
X44733802Y-33191876D01*
X44691876Y-33233802D01*
X44642577Y-33266742D01*
X44642576Y-33266743D01*
X44642575Y-33266743D01*
X44587797Y-33289433D01*
X44529647Y-33301000D01*
X44470353Y-33301000D01*
X44412203Y-33289433D01*
X44357425Y-33266743D01*
X44357424Y-33266743D01*
X44357423Y-33266742D01*
X44308124Y-33233802D01*
X44266198Y-33191876D01*
X44233258Y-33142577D01*
X44233257Y-33142575D01*
X44210567Y-33087797D01*
X44199000Y-33029647D01*
X44199000Y-32970353D01*
X44210567Y-32912203D01*
X44233257Y-32857425D01*
X44233258Y-32857423D01*
X44266198Y-32808124D01*
X44308124Y-32766198D01*
X44357423Y-32733258D01*
X44357425Y-32733257D01*
X44412203Y-32710567D01*
X44470353Y-32699000D01*
X44529647Y-32699000D01*
X44587797Y-32710567D01*
X44587797Y-32710567D01*
G37*
G36*
X42587797Y-31710567D02*
G01*
X42624997Y-31725976D01*
X42642577Y-31733258D01*
X42691876Y-31766198D01*
X42733802Y-31808124D01*
X42766742Y-31857423D01*
X42766743Y-31857425D01*
X42789433Y-31912203D01*
X42801000Y-31970353D01*
X42801000Y-32029647D01*
X42789433Y-32087797D01*
X42766743Y-32142575D01*
X42766742Y-32142577D01*
X42733802Y-32191876D01*
X42691876Y-32233802D01*
X42642577Y-32266742D01*
X42642576Y-32266743D01*
X42642575Y-32266743D01*
X42587797Y-32289433D01*
X42529647Y-32301000D01*
X42470353Y-32301000D01*
X42412203Y-32289433D01*
X42357425Y-32266743D01*
X42357424Y-32266743D01*
X42357423Y-32266742D01*
X42308124Y-32233802D01*
X42266198Y-32191876D01*
X42233258Y-32142577D01*
X42233257Y-32142575D01*
X42210567Y-32087797D01*
X42199000Y-32029647D01*
X42199000Y-31970353D01*
X42210567Y-31912203D01*
X42233257Y-31857425D01*
X42233258Y-31857423D01*
X42266198Y-31808124D01*
X42308124Y-31766198D01*
X42357423Y-31733258D01*
X42375003Y-31725976D01*
X42412203Y-31710567D01*
X42470353Y-31699000D01*
X42529647Y-31699000D01*
X42587797Y-31710567D01*
X42587797Y-31710567D01*
G37*
G36*
X43587797Y-31710567D02*
G01*
X43624997Y-31725976D01*
X43642577Y-31733258D01*
X43691876Y-31766198D01*
X43733802Y-31808124D01*
X43766742Y-31857423D01*
X43766743Y-31857425D01*
X43789433Y-31912203D01*
X43801000Y-31970353D01*
X43801000Y-32029647D01*
X43789433Y-32087797D01*
X43766743Y-32142575D01*
X43766742Y-32142577D01*
X43733802Y-32191876D01*
X43691876Y-32233802D01*
X43642577Y-32266742D01*
X43642576Y-32266743D01*
X43642575Y-32266743D01*
X43587797Y-32289433D01*
X43529647Y-32301000D01*
X43470353Y-32301000D01*
X43412203Y-32289433D01*
X43357425Y-32266743D01*
X43357424Y-32266743D01*
X43357423Y-32266742D01*
X43308124Y-32233802D01*
X43266198Y-32191876D01*
X43233258Y-32142577D01*
X43233257Y-32142575D01*
X43210567Y-32087797D01*
X43199000Y-32029647D01*
X43199000Y-31970353D01*
X43210567Y-31912203D01*
X43233257Y-31857425D01*
X43233258Y-31857423D01*
X43266198Y-31808124D01*
X43308124Y-31766198D01*
X43357423Y-31733258D01*
X43375003Y-31725976D01*
X43412203Y-31710567D01*
X43470353Y-31699000D01*
X43529647Y-31699000D01*
X43587797Y-31710567D01*
X43587797Y-31710567D01*
G37*
G36*
X44587797Y-31710567D02*
G01*
X44624997Y-31725976D01*
X44642577Y-31733258D01*
X44691876Y-31766198D01*
X44733802Y-31808124D01*
X44766742Y-31857423D01*
X44766743Y-31857425D01*
X44789433Y-31912203D01*
X44801000Y-31970353D01*
X44801000Y-32029647D01*
X44789433Y-32087797D01*
X44766743Y-32142575D01*
X44766742Y-32142577D01*
X44733802Y-32191876D01*
X44691876Y-32233802D01*
X44642577Y-32266742D01*
X44642576Y-32266743D01*
X44642575Y-32266743D01*
X44587797Y-32289433D01*
X44529647Y-32301000D01*
X44470353Y-32301000D01*
X44412203Y-32289433D01*
X44357425Y-32266743D01*
X44357424Y-32266743D01*
X44357423Y-32266742D01*
X44308124Y-32233802D01*
X44266198Y-32191876D01*
X44233258Y-32142577D01*
X44233257Y-32142575D01*
X44210567Y-32087797D01*
X44199000Y-32029647D01*
X44199000Y-31970353D01*
X44210567Y-31912203D01*
X44233257Y-31857425D01*
X44233258Y-31857423D01*
X44266198Y-31808124D01*
X44308124Y-31766198D01*
X44357423Y-31733258D01*
X44375003Y-31725976D01*
X44412203Y-31710567D01*
X44470353Y-31699000D01*
X44529647Y-31699000D01*
X44587797Y-31710567D01*
X44587797Y-31710567D01*
G37*
G36*
X41587797Y-31710567D02*
G01*
X41624997Y-31725976D01*
X41642577Y-31733258D01*
X41691876Y-31766198D01*
X41733802Y-31808124D01*
X41766742Y-31857423D01*
X41766743Y-31857425D01*
X41789433Y-31912203D01*
X41801000Y-31970353D01*
X41801000Y-32029647D01*
X41789433Y-32087797D01*
X41766743Y-32142575D01*
X41766742Y-32142577D01*
X41733802Y-32191876D01*
X41691876Y-32233802D01*
X41642577Y-32266742D01*
X41642576Y-32266743D01*
X41642575Y-32266743D01*
X41587797Y-32289433D01*
X41529647Y-32301000D01*
X41470353Y-32301000D01*
X41412203Y-32289433D01*
X41357425Y-32266743D01*
X41357424Y-32266743D01*
X41357423Y-32266742D01*
X41308124Y-32233802D01*
X41266198Y-32191876D01*
X41233258Y-32142577D01*
X41233257Y-32142575D01*
X41210567Y-32087797D01*
X41199000Y-32029647D01*
X41199000Y-31970353D01*
X41210567Y-31912203D01*
X41233257Y-31857425D01*
X41233258Y-31857423D01*
X41266198Y-31808124D01*
X41308124Y-31766198D01*
X41357423Y-31733258D01*
X41375003Y-31725976D01*
X41412203Y-31710567D01*
X41470353Y-31699000D01*
X41529647Y-31699000D01*
X41587797Y-31710567D01*
X41587797Y-31710567D01*
G37*
G36*
X40587797Y-31710567D02*
G01*
X40624997Y-31725976D01*
X40642577Y-31733258D01*
X40691876Y-31766198D01*
X40733802Y-31808124D01*
X40766742Y-31857423D01*
X40766743Y-31857425D01*
X40789433Y-31912203D01*
X40801000Y-31970353D01*
X40801000Y-32029647D01*
X40789433Y-32087797D01*
X40766743Y-32142575D01*
X40766742Y-32142577D01*
X40733802Y-32191876D01*
X40691876Y-32233802D01*
X40642577Y-32266742D01*
X40642576Y-32266743D01*
X40642575Y-32266743D01*
X40587797Y-32289433D01*
X40529647Y-32301000D01*
X40470353Y-32301000D01*
X40412203Y-32289433D01*
X40357425Y-32266743D01*
X40357424Y-32266743D01*
X40357423Y-32266742D01*
X40308124Y-32233802D01*
X40266198Y-32191876D01*
X40233258Y-32142577D01*
X40233257Y-32142575D01*
X40210567Y-32087797D01*
X40199000Y-32029647D01*
X40199000Y-31970353D01*
X40210567Y-31912203D01*
X40233257Y-31857425D01*
X40233258Y-31857423D01*
X40266198Y-31808124D01*
X40308124Y-31766198D01*
X40357423Y-31733258D01*
X40375003Y-31725976D01*
X40412203Y-31710567D01*
X40470353Y-31699000D01*
X40529647Y-31699000D01*
X40587797Y-31710567D01*
X40587797Y-31710567D01*
G37*
G36*
X33864499Y-30553445D02*
G01*
X33901995Y-30564820D01*
X33936554Y-30583292D01*
X33966847Y-30608153D01*
X33991708Y-30638446D01*
X34010180Y-30673005D01*
X34021555Y-30710501D01*
X34026000Y-30755638D01*
X34026000Y-31494362D01*
X34021555Y-31539499D01*
X34010180Y-31576995D01*
X33991708Y-31611554D01*
X33966847Y-31641847D01*
X33936554Y-31666708D01*
X33901995Y-31685180D01*
X33864499Y-31696555D01*
X33819362Y-31701000D01*
X33180638Y-31701000D01*
X33135501Y-31696555D01*
X33098005Y-31685180D01*
X33063446Y-31666708D01*
X33033153Y-31641847D01*
X33008292Y-31611554D01*
X32989820Y-31576995D01*
X32978445Y-31539499D01*
X32974000Y-31494362D01*
X32974000Y-30755638D01*
X32978445Y-30710501D01*
X32989820Y-30673005D01*
X33008292Y-30638446D01*
X33033153Y-30608153D01*
X33063446Y-30583292D01*
X33098005Y-30564820D01*
X33135501Y-30553445D01*
X33180638Y-30549000D01*
X33819362Y-30549000D01*
X33864499Y-30553445D01*
X33864499Y-30553445D01*
G37*
G36*
X32364499Y-30553445D02*
G01*
X32401995Y-30564820D01*
X32436554Y-30583292D01*
X32466847Y-30608153D01*
X32491708Y-30638446D01*
X32510180Y-30673005D01*
X32521555Y-30710501D01*
X32526000Y-30755638D01*
X32526000Y-31494362D01*
X32521555Y-31539499D01*
X32510180Y-31576995D01*
X32491708Y-31611554D01*
X32466847Y-31641847D01*
X32436554Y-31666708D01*
X32401995Y-31685180D01*
X32364499Y-31696555D01*
X32319362Y-31701000D01*
X31680638Y-31701000D01*
X31635501Y-31696555D01*
X31598005Y-31685180D01*
X31563446Y-31666708D01*
X31533153Y-31641847D01*
X31508292Y-31611554D01*
X31489820Y-31576995D01*
X31478445Y-31539499D01*
X31474000Y-31494362D01*
X31474000Y-30755638D01*
X31478445Y-30710501D01*
X31489820Y-30673005D01*
X31508292Y-30638446D01*
X31533153Y-30608153D01*
X31563446Y-30583292D01*
X31598005Y-30564820D01*
X31635501Y-30553445D01*
X31680638Y-30549000D01*
X32319362Y-30549000D01*
X32364499Y-30553445D01*
X32364499Y-30553445D01*
G37*
G36*
X40587797Y-30710567D02*
G01*
X40636305Y-30730660D01*
X40642577Y-30733258D01*
X40691876Y-30766198D01*
X40733802Y-30808124D01*
X40766742Y-30857423D01*
X40766743Y-30857425D01*
X40789433Y-30912203D01*
X40801000Y-30970353D01*
X40801000Y-31029647D01*
X40789433Y-31087797D01*
X40766743Y-31142575D01*
X40766742Y-31142577D01*
X40733802Y-31191876D01*
X40691876Y-31233802D01*
X40642577Y-31266742D01*
X40642576Y-31266743D01*
X40642575Y-31266743D01*
X40587797Y-31289433D01*
X40529647Y-31301000D01*
X40470353Y-31301000D01*
X40412203Y-31289433D01*
X40357425Y-31266743D01*
X40357424Y-31266743D01*
X40357423Y-31266742D01*
X40308124Y-31233802D01*
X40266198Y-31191876D01*
X40233258Y-31142577D01*
X40233257Y-31142575D01*
X40210567Y-31087797D01*
X40199000Y-31029647D01*
X40199000Y-30970353D01*
X40210567Y-30912203D01*
X40233257Y-30857425D01*
X40233258Y-30857423D01*
X40266198Y-30808124D01*
X40308124Y-30766198D01*
X40357423Y-30733258D01*
X40363695Y-30730660D01*
X40412203Y-30710567D01*
X40470353Y-30699000D01*
X40529647Y-30699000D01*
X40587797Y-30710567D01*
X40587797Y-30710567D01*
G37*
G36*
X41587797Y-30710567D02*
G01*
X41636305Y-30730660D01*
X41642577Y-30733258D01*
X41691876Y-30766198D01*
X41733802Y-30808124D01*
X41766742Y-30857423D01*
X41766743Y-30857425D01*
X41789433Y-30912203D01*
X41801000Y-30970353D01*
X41801000Y-31029647D01*
X41789433Y-31087797D01*
X41766743Y-31142575D01*
X41766742Y-31142577D01*
X41733802Y-31191876D01*
X41691876Y-31233802D01*
X41642577Y-31266742D01*
X41642576Y-31266743D01*
X41642575Y-31266743D01*
X41587797Y-31289433D01*
X41529647Y-31301000D01*
X41470353Y-31301000D01*
X41412203Y-31289433D01*
X41357425Y-31266743D01*
X41357424Y-31266743D01*
X41357423Y-31266742D01*
X41308124Y-31233802D01*
X41266198Y-31191876D01*
X41233258Y-31142577D01*
X41233257Y-31142575D01*
X41210567Y-31087797D01*
X41199000Y-31029647D01*
X41199000Y-30970353D01*
X41210567Y-30912203D01*
X41233257Y-30857425D01*
X41233258Y-30857423D01*
X41266198Y-30808124D01*
X41308124Y-30766198D01*
X41357423Y-30733258D01*
X41363695Y-30730660D01*
X41412203Y-30710567D01*
X41470353Y-30699000D01*
X41529647Y-30699000D01*
X41587797Y-30710567D01*
X41587797Y-30710567D01*
G37*
G36*
X42587797Y-30710567D02*
G01*
X42636305Y-30730660D01*
X42642577Y-30733258D01*
X42691876Y-30766198D01*
X42733802Y-30808124D01*
X42766742Y-30857423D01*
X42766743Y-30857425D01*
X42789433Y-30912203D01*
X42801000Y-30970353D01*
X42801000Y-31029647D01*
X42789433Y-31087797D01*
X42766743Y-31142575D01*
X42766742Y-31142577D01*
X42733802Y-31191876D01*
X42691876Y-31233802D01*
X42642577Y-31266742D01*
X42642576Y-31266743D01*
X42642575Y-31266743D01*
X42587797Y-31289433D01*
X42529647Y-31301000D01*
X42470353Y-31301000D01*
X42412203Y-31289433D01*
X42357425Y-31266743D01*
X42357424Y-31266743D01*
X42357423Y-31266742D01*
X42308124Y-31233802D01*
X42266198Y-31191876D01*
X42233258Y-31142577D01*
X42233257Y-31142575D01*
X42210567Y-31087797D01*
X42199000Y-31029647D01*
X42199000Y-30970353D01*
X42210567Y-30912203D01*
X42233257Y-30857425D01*
X42233258Y-30857423D01*
X42266198Y-30808124D01*
X42308124Y-30766198D01*
X42357423Y-30733258D01*
X42363695Y-30730660D01*
X42412203Y-30710567D01*
X42470353Y-30699000D01*
X42529647Y-30699000D01*
X42587797Y-30710567D01*
X42587797Y-30710567D01*
G37*
G36*
X43587797Y-30710567D02*
G01*
X43636305Y-30730660D01*
X43642577Y-30733258D01*
X43691876Y-30766198D01*
X43733802Y-30808124D01*
X43766742Y-30857423D01*
X43766743Y-30857425D01*
X43789433Y-30912203D01*
X43801000Y-30970353D01*
X43801000Y-31029647D01*
X43789433Y-31087797D01*
X43766743Y-31142575D01*
X43766742Y-31142577D01*
X43733802Y-31191876D01*
X43691876Y-31233802D01*
X43642577Y-31266742D01*
X43642576Y-31266743D01*
X43642575Y-31266743D01*
X43587797Y-31289433D01*
X43529647Y-31301000D01*
X43470353Y-31301000D01*
X43412203Y-31289433D01*
X43357425Y-31266743D01*
X43357424Y-31266743D01*
X43357423Y-31266742D01*
X43308124Y-31233802D01*
X43266198Y-31191876D01*
X43233258Y-31142577D01*
X43233257Y-31142575D01*
X43210567Y-31087797D01*
X43199000Y-31029647D01*
X43199000Y-30970353D01*
X43210567Y-30912203D01*
X43233257Y-30857425D01*
X43233258Y-30857423D01*
X43266198Y-30808124D01*
X43308124Y-30766198D01*
X43357423Y-30733258D01*
X43363695Y-30730660D01*
X43412203Y-30710567D01*
X43470353Y-30699000D01*
X43529647Y-30699000D01*
X43587797Y-30710567D01*
X43587797Y-30710567D01*
G37*
G36*
X44587797Y-30710567D02*
G01*
X44636305Y-30730660D01*
X44642577Y-30733258D01*
X44691876Y-30766198D01*
X44733802Y-30808124D01*
X44766742Y-30857423D01*
X44766743Y-30857425D01*
X44789433Y-30912203D01*
X44801000Y-30970353D01*
X44801000Y-31029647D01*
X44789433Y-31087797D01*
X44766743Y-31142575D01*
X44766742Y-31142577D01*
X44733802Y-31191876D01*
X44691876Y-31233802D01*
X44642577Y-31266742D01*
X44642576Y-31266743D01*
X44642575Y-31266743D01*
X44587797Y-31289433D01*
X44529647Y-31301000D01*
X44470353Y-31301000D01*
X44412203Y-31289433D01*
X44357425Y-31266743D01*
X44357424Y-31266743D01*
X44357423Y-31266742D01*
X44308124Y-31233802D01*
X44266198Y-31191876D01*
X44233258Y-31142577D01*
X44233257Y-31142575D01*
X44210567Y-31087797D01*
X44199000Y-31029647D01*
X44199000Y-30970353D01*
X44210567Y-30912203D01*
X44233257Y-30857425D01*
X44233258Y-30857423D01*
X44266198Y-30808124D01*
X44308124Y-30766198D01*
X44357423Y-30733258D01*
X44363695Y-30730660D01*
X44412203Y-30710567D01*
X44470353Y-30699000D01*
X44529647Y-30699000D01*
X44587797Y-30710567D01*
X44587797Y-30710567D01*
G37*
G36*
X51759999Y-29199737D02*
G01*
X51774528Y-29204145D01*
X51787711Y-29209606D01*
X51811745Y-29214388D01*
X51836249Y-29214389D01*
X51860282Y-29209609D01*
X51882921Y-29200232D01*
X51884765Y-29199000D01*
X53116050Y-29199000D01*
X53128164Y-29205475D01*
X53151613Y-29212588D01*
X53175999Y-29214990D01*
X53200385Y-29212588D01*
X53223834Y-29205475D01*
X53228746Y-29203152D01*
X53240001Y-29199737D01*
X53256140Y-29198148D01*
X53793861Y-29198148D01*
X53812199Y-29199954D01*
X53824450Y-29200556D01*
X53842869Y-29200556D01*
X53865149Y-29202750D01*
X53949233Y-29219476D01*
X53970660Y-29225976D01*
X54049858Y-29258780D01*
X54055303Y-29261691D01*
X54055309Y-29261693D01*
X54064169Y-29266429D01*
X54064173Y-29266432D01*
X54069614Y-29269340D01*
X54140899Y-29316971D01*
X54158204Y-29331172D01*
X54218828Y-29391796D01*
X54233029Y-29409101D01*
X54280660Y-29480386D01*
X54283568Y-29485827D01*
X54283571Y-29485831D01*
X54288307Y-29494691D01*
X54288309Y-29494697D01*
X54291220Y-29500142D01*
X54324024Y-29579340D01*
X54330524Y-29600767D01*
X54347250Y-29684851D01*
X54349444Y-29707131D01*
X54349444Y-29725550D01*
X54350046Y-29737801D01*
X54351852Y-29756139D01*
X54351852Y-30243862D01*
X54350046Y-30262199D01*
X54349444Y-30274450D01*
X54349444Y-30292869D01*
X54347250Y-30315149D01*
X54330524Y-30399233D01*
X54324024Y-30420660D01*
X54291220Y-30499858D01*
X54288309Y-30505303D01*
X54288307Y-30505309D01*
X54283571Y-30514169D01*
X54283568Y-30514173D01*
X54280660Y-30519614D01*
X54233029Y-30590899D01*
X54218828Y-30608204D01*
X54158204Y-30668828D01*
X54140899Y-30683029D01*
X54069614Y-30730660D01*
X54064173Y-30733568D01*
X54064169Y-30733571D01*
X54055309Y-30738307D01*
X54055303Y-30738309D01*
X54049858Y-30741220D01*
X53970660Y-30774024D01*
X53949233Y-30780524D01*
X53865149Y-30797250D01*
X53842869Y-30799444D01*
X53824450Y-30799444D01*
X53812199Y-30800046D01*
X53793862Y-30801852D01*
X53256140Y-30801852D01*
X53240001Y-30800263D01*
X53225472Y-30795855D01*
X53212289Y-30790394D01*
X53188255Y-30785612D01*
X53163751Y-30785611D01*
X53139718Y-30790391D01*
X53117079Y-30799768D01*
X53115235Y-30801000D01*
X51883950Y-30801000D01*
X51871836Y-30794525D01*
X51848387Y-30787412D01*
X51824001Y-30785010D01*
X51799615Y-30787412D01*
X51776166Y-30794525D01*
X51771254Y-30796848D01*
X51759999Y-30800263D01*
X51743860Y-30801852D01*
X51206138Y-30801852D01*
X51187801Y-30800046D01*
X51175550Y-30799444D01*
X51157131Y-30799444D01*
X51134851Y-30797250D01*
X51050767Y-30780524D01*
X51029340Y-30774024D01*
X50950142Y-30741220D01*
X50944697Y-30738309D01*
X50944691Y-30738307D01*
X50935831Y-30733571D01*
X50935827Y-30733568D01*
X50930386Y-30730660D01*
X50859101Y-30683029D01*
X50841796Y-30668828D01*
X50781172Y-30608204D01*
X50766971Y-30590899D01*
X50719340Y-30519614D01*
X50716432Y-30514173D01*
X50716429Y-30514169D01*
X50711693Y-30505309D01*
X50711691Y-30505303D01*
X50708780Y-30499858D01*
X50675976Y-30420660D01*
X50669476Y-30399233D01*
X50652750Y-30315149D01*
X50650556Y-30292869D01*
X50650556Y-30274450D01*
X50649954Y-30262199D01*
X50648148Y-30243862D01*
X50648148Y-29756139D01*
X50649954Y-29737801D01*
X50650556Y-29725550D01*
X50650556Y-29707131D01*
X50652750Y-29684851D01*
X50669476Y-29600767D01*
X50675976Y-29579340D01*
X50708780Y-29500142D01*
X50711691Y-29494697D01*
X50711693Y-29494691D01*
X50716429Y-29485831D01*
X50716432Y-29485827D01*
X50719340Y-29480386D01*
X50766971Y-29409101D01*
X50781172Y-29391796D01*
X50841796Y-29331172D01*
X50859101Y-29316971D01*
X50930386Y-29269340D01*
X50935827Y-29266432D01*
X50935831Y-29266429D01*
X50944691Y-29261693D01*
X50944697Y-29261691D01*
X50950142Y-29258780D01*
X51029340Y-29225976D01*
X51050767Y-29219476D01*
X51134851Y-29202750D01*
X51157131Y-29200556D01*
X51175550Y-29200556D01*
X51187801Y-29199954D01*
X51206139Y-29198148D01*
X51743860Y-29198148D01*
X51759999Y-29199737D01*
X51759999Y-29199737D01*
G37*
G36*
X32364499Y-28803445D02*
G01*
X32401995Y-28814820D01*
X32436554Y-28833292D01*
X32466847Y-28858153D01*
X32491708Y-28888446D01*
X32510180Y-28923005D01*
X32521555Y-28960501D01*
X32526000Y-29005638D01*
X32526000Y-29744362D01*
X32521555Y-29789499D01*
X32510180Y-29826995D01*
X32491708Y-29861554D01*
X32466847Y-29891847D01*
X32436554Y-29916708D01*
X32401995Y-29935180D01*
X32364499Y-29946555D01*
X32319362Y-29951000D01*
X31680638Y-29951000D01*
X31635501Y-29946555D01*
X31598005Y-29935180D01*
X31563446Y-29916708D01*
X31533153Y-29891847D01*
X31508292Y-29861554D01*
X31489820Y-29826995D01*
X31478445Y-29789499D01*
X31474000Y-29744362D01*
X31474000Y-29005638D01*
X31478445Y-28960501D01*
X31489820Y-28923005D01*
X31508292Y-28888446D01*
X31533153Y-28858153D01*
X31563446Y-28833292D01*
X31598005Y-28814820D01*
X31635501Y-28803445D01*
X31680638Y-28799000D01*
X32319362Y-28799000D01*
X32364499Y-28803445D01*
X32364499Y-28803445D01*
G37*
G36*
X33864499Y-28803445D02*
G01*
X33901995Y-28814820D01*
X33936554Y-28833292D01*
X33966847Y-28858153D01*
X33991708Y-28888446D01*
X34010180Y-28923005D01*
X34021555Y-28960501D01*
X34026000Y-29005638D01*
X34026000Y-29744362D01*
X34021555Y-29789499D01*
X34010180Y-29826995D01*
X33991708Y-29861554D01*
X33966847Y-29891847D01*
X33936554Y-29916708D01*
X33901995Y-29935180D01*
X33864499Y-29946555D01*
X33819362Y-29951000D01*
X33180638Y-29951000D01*
X33135501Y-29946555D01*
X33098005Y-29935180D01*
X33063446Y-29916708D01*
X33033153Y-29891847D01*
X33008292Y-29861554D01*
X32989820Y-29826995D01*
X32978445Y-29789499D01*
X32974000Y-29744362D01*
X32974000Y-29005638D01*
X32978445Y-28960501D01*
X32989820Y-28923005D01*
X33008292Y-28888446D01*
X33033153Y-28858153D01*
X33063446Y-28833292D01*
X33098005Y-28814820D01*
X33135501Y-28803445D01*
X33180638Y-28799000D01*
X33819362Y-28799000D01*
X33864499Y-28803445D01*
X33864499Y-28803445D01*
G37*
G36*
X30864499Y-28803445D02*
G01*
X30901995Y-28814820D01*
X30936554Y-28833292D01*
X30966847Y-28858153D01*
X30991708Y-28888446D01*
X31010180Y-28923005D01*
X31021555Y-28960501D01*
X31026000Y-29005638D01*
X31026000Y-29744362D01*
X31021555Y-29789499D01*
X31010180Y-29826995D01*
X30991708Y-29861554D01*
X30966847Y-29891847D01*
X30936554Y-29916708D01*
X30901995Y-29935180D01*
X30864499Y-29946555D01*
X30819362Y-29951000D01*
X30180638Y-29951000D01*
X30135501Y-29946555D01*
X30098005Y-29935180D01*
X30063446Y-29916708D01*
X30033153Y-29891847D01*
X30008292Y-29861554D01*
X29989820Y-29826995D01*
X29978445Y-29789499D01*
X29974000Y-29744362D01*
X29974000Y-29005638D01*
X29978445Y-28960501D01*
X29989820Y-28923005D01*
X30008292Y-28888446D01*
X30033153Y-28858153D01*
X30063446Y-28833292D01*
X30098005Y-28814820D01*
X30135501Y-28803445D01*
X30180638Y-28799000D01*
X30819362Y-28799000D01*
X30864499Y-28803445D01*
X30864499Y-28803445D01*
G37*
G36*
X51759999Y-26699737D02*
G01*
X51774528Y-26704145D01*
X51787711Y-26709606D01*
X51811745Y-26714388D01*
X51836249Y-26714389D01*
X51860282Y-26709609D01*
X51882921Y-26700232D01*
X51884765Y-26699000D01*
X53116050Y-26699000D01*
X53128164Y-26705475D01*
X53151613Y-26712588D01*
X53175999Y-26714990D01*
X53200385Y-26712588D01*
X53223834Y-26705475D01*
X53228746Y-26703152D01*
X53240001Y-26699737D01*
X53256140Y-26698148D01*
X53793861Y-26698148D01*
X53812199Y-26699954D01*
X53824450Y-26700556D01*
X53842869Y-26700556D01*
X53865149Y-26702750D01*
X53949233Y-26719476D01*
X53970660Y-26725976D01*
X54049858Y-26758780D01*
X54055303Y-26761691D01*
X54055309Y-26761693D01*
X54064169Y-26766429D01*
X54064173Y-26766432D01*
X54069614Y-26769340D01*
X54140899Y-26816971D01*
X54158204Y-26831172D01*
X54218828Y-26891796D01*
X54233029Y-26909101D01*
X54280660Y-26980386D01*
X54283568Y-26985827D01*
X54283571Y-26985831D01*
X54288307Y-26994691D01*
X54288309Y-26994697D01*
X54291220Y-27000142D01*
X54324024Y-27079340D01*
X54330524Y-27100767D01*
X54347250Y-27184851D01*
X54349444Y-27207131D01*
X54349444Y-27225550D01*
X54350046Y-27237801D01*
X54351852Y-27256139D01*
X54351852Y-27743862D01*
X54350046Y-27762199D01*
X54349444Y-27774450D01*
X54349444Y-27792869D01*
X54347250Y-27815149D01*
X54330524Y-27899233D01*
X54324024Y-27920660D01*
X54291220Y-27999858D01*
X54288309Y-28005303D01*
X54288307Y-28005309D01*
X54283571Y-28014169D01*
X54283568Y-28014173D01*
X54280660Y-28019614D01*
X54233029Y-28090899D01*
X54218828Y-28108204D01*
X54158204Y-28168828D01*
X54140899Y-28183029D01*
X54069614Y-28230660D01*
X54064173Y-28233568D01*
X54064169Y-28233571D01*
X54055309Y-28238307D01*
X54055303Y-28238309D01*
X54049858Y-28241220D01*
X53970660Y-28274024D01*
X53949233Y-28280524D01*
X53865149Y-28297250D01*
X53842869Y-28299444D01*
X53824450Y-28299444D01*
X53812199Y-28300046D01*
X53793862Y-28301852D01*
X53256140Y-28301852D01*
X53240001Y-28300263D01*
X53225472Y-28295855D01*
X53212289Y-28290394D01*
X53188255Y-28285612D01*
X53163751Y-28285611D01*
X53139718Y-28290391D01*
X53117079Y-28299768D01*
X53115235Y-28301000D01*
X51883950Y-28301000D01*
X51871836Y-28294525D01*
X51848387Y-28287412D01*
X51824001Y-28285010D01*
X51799615Y-28287412D01*
X51776166Y-28294525D01*
X51771254Y-28296848D01*
X51759999Y-28300263D01*
X51743860Y-28301852D01*
X51206138Y-28301852D01*
X51187801Y-28300046D01*
X51175550Y-28299444D01*
X51157131Y-28299444D01*
X51134851Y-28297250D01*
X51050767Y-28280524D01*
X51029340Y-28274024D01*
X50950142Y-28241220D01*
X50944697Y-28238309D01*
X50944691Y-28238307D01*
X50935831Y-28233571D01*
X50935827Y-28233568D01*
X50930386Y-28230660D01*
X50859101Y-28183029D01*
X50841796Y-28168828D01*
X50781172Y-28108204D01*
X50766971Y-28090899D01*
X50719340Y-28019614D01*
X50716432Y-28014173D01*
X50716429Y-28014169D01*
X50711693Y-28005309D01*
X50711691Y-28005303D01*
X50708780Y-27999858D01*
X50675976Y-27920660D01*
X50669476Y-27899233D01*
X50652750Y-27815149D01*
X50650556Y-27792869D01*
X50650556Y-27774450D01*
X50649954Y-27762199D01*
X50648148Y-27743862D01*
X50648148Y-27256139D01*
X50649954Y-27237801D01*
X50650556Y-27225550D01*
X50650556Y-27207131D01*
X50652750Y-27184851D01*
X50669476Y-27100767D01*
X50675976Y-27079340D01*
X50708780Y-27000142D01*
X50711691Y-26994697D01*
X50711693Y-26994691D01*
X50716429Y-26985831D01*
X50716432Y-26985827D01*
X50719340Y-26980386D01*
X50766971Y-26909101D01*
X50781172Y-26891796D01*
X50841796Y-26831172D01*
X50859101Y-26816971D01*
X50930386Y-26769340D01*
X50935827Y-26766432D01*
X50935831Y-26766429D01*
X50944691Y-26761693D01*
X50944697Y-26761691D01*
X50950142Y-26758780D01*
X51029340Y-26725976D01*
X51050767Y-26719476D01*
X51134851Y-26702750D01*
X51157131Y-26700556D01*
X51175550Y-26700556D01*
X51187801Y-26699954D01*
X51206139Y-26698148D01*
X51743860Y-26698148D01*
X51759999Y-26699737D01*
X51759999Y-26699737D01*
G37*
G36*
X33864499Y-27053445D02*
G01*
X33901995Y-27064820D01*
X33936554Y-27083292D01*
X33966847Y-27108153D01*
X33991708Y-27138446D01*
X34010180Y-27173005D01*
X34021555Y-27210501D01*
X34026000Y-27255638D01*
X34026000Y-27994362D01*
X34021555Y-28039499D01*
X34010180Y-28076995D01*
X33991708Y-28111554D01*
X33966847Y-28141847D01*
X33936554Y-28166708D01*
X33901995Y-28185180D01*
X33864499Y-28196555D01*
X33819362Y-28201000D01*
X33180638Y-28201000D01*
X33135501Y-28196555D01*
X33098005Y-28185180D01*
X33063446Y-28166708D01*
X33033153Y-28141847D01*
X33008292Y-28111554D01*
X32989820Y-28076995D01*
X32978445Y-28039499D01*
X32974000Y-27994362D01*
X32974000Y-27255638D01*
X32978445Y-27210501D01*
X32989820Y-27173005D01*
X33008292Y-27138446D01*
X33033153Y-27108153D01*
X33063446Y-27083292D01*
X33098005Y-27064820D01*
X33135501Y-27053445D01*
X33180638Y-27049000D01*
X33819362Y-27049000D01*
X33864499Y-27053445D01*
X33864499Y-27053445D01*
G37*
G36*
X30864499Y-27053445D02*
G01*
X30901995Y-27064820D01*
X30936554Y-27083292D01*
X30966847Y-27108153D01*
X30991708Y-27138446D01*
X31010180Y-27173005D01*
X31021555Y-27210501D01*
X31026000Y-27255638D01*
X31026000Y-27994362D01*
X31021555Y-28039499D01*
X31010180Y-28076995D01*
X30991708Y-28111554D01*
X30966847Y-28141847D01*
X30936554Y-28166708D01*
X30901995Y-28185180D01*
X30864499Y-28196555D01*
X30819362Y-28201000D01*
X30180638Y-28201000D01*
X30135501Y-28196555D01*
X30098005Y-28185180D01*
X30063446Y-28166708D01*
X30033153Y-28141847D01*
X30008292Y-28111554D01*
X29989820Y-28076995D01*
X29978445Y-28039499D01*
X29974000Y-27994362D01*
X29974000Y-27255638D01*
X29978445Y-27210501D01*
X29989820Y-27173005D01*
X30008292Y-27138446D01*
X30033153Y-27108153D01*
X30063446Y-27083292D01*
X30098005Y-27064820D01*
X30135501Y-27053445D01*
X30180638Y-27049000D01*
X30819362Y-27049000D01*
X30864499Y-27053445D01*
X30864499Y-27053445D01*
G37*
G36*
X32364499Y-27053445D02*
G01*
X32401995Y-27064820D01*
X32436554Y-27083292D01*
X32466847Y-27108153D01*
X32491708Y-27138446D01*
X32510180Y-27173005D01*
X32521555Y-27210501D01*
X32526000Y-27255638D01*
X32526000Y-27994362D01*
X32521555Y-28039499D01*
X32510180Y-28076995D01*
X32491708Y-28111554D01*
X32466847Y-28141847D01*
X32436554Y-28166708D01*
X32401995Y-28185180D01*
X32364499Y-28196555D01*
X32319362Y-28201000D01*
X31680638Y-28201000D01*
X31635501Y-28196555D01*
X31598005Y-28185180D01*
X31563446Y-28166708D01*
X31533153Y-28141847D01*
X31508292Y-28111554D01*
X31489820Y-28076995D01*
X31478445Y-28039499D01*
X31474000Y-27994362D01*
X31474000Y-27255638D01*
X31478445Y-27210501D01*
X31489820Y-27173005D01*
X31508292Y-27138446D01*
X31533153Y-27108153D01*
X31563446Y-27083292D01*
X31598005Y-27064820D01*
X31635501Y-27053445D01*
X31680638Y-27049000D01*
X32319362Y-27049000D01*
X32364499Y-27053445D01*
X32364499Y-27053445D01*
G37*
G36*
X32164499Y-25478445D02*
G01*
X32201995Y-25489820D01*
X32236554Y-25508292D01*
X32266847Y-25533153D01*
X32291708Y-25563446D01*
X32310180Y-25598005D01*
X32321555Y-25635501D01*
X32326000Y-25680638D01*
X32326000Y-26319362D01*
X32321555Y-26364499D01*
X32310180Y-26401995D01*
X32291708Y-26436554D01*
X32266847Y-26466847D01*
X32236554Y-26491708D01*
X32201995Y-26510180D01*
X32164499Y-26521555D01*
X32119362Y-26526000D01*
X31380638Y-26526000D01*
X31335501Y-26521555D01*
X31298005Y-26510180D01*
X31263446Y-26491708D01*
X31233153Y-26466847D01*
X31208292Y-26436554D01*
X31189820Y-26401995D01*
X31178445Y-26364499D01*
X31174000Y-26319362D01*
X31174000Y-25680638D01*
X31178445Y-25635501D01*
X31189820Y-25598005D01*
X31208292Y-25563446D01*
X31233153Y-25533153D01*
X31263446Y-25508292D01*
X31298005Y-25489820D01*
X31335501Y-25478445D01*
X31380638Y-25474000D01*
X32119362Y-25474000D01*
X32164499Y-25478445D01*
X32164499Y-25478445D01*
G37*
G36*
X33914499Y-25478445D02*
G01*
X33951995Y-25489820D01*
X33986554Y-25508292D01*
X34016847Y-25533153D01*
X34041708Y-25563446D01*
X34060180Y-25598005D01*
X34071555Y-25635501D01*
X34076000Y-25680638D01*
X34076000Y-26319362D01*
X34071555Y-26364499D01*
X34060180Y-26401995D01*
X34041708Y-26436554D01*
X34016847Y-26466847D01*
X33986554Y-26491708D01*
X33951995Y-26510180D01*
X33914499Y-26521555D01*
X33869362Y-26526000D01*
X33130638Y-26526000D01*
X33085501Y-26521555D01*
X33048005Y-26510180D01*
X33013446Y-26491708D01*
X32983153Y-26466847D01*
X32958292Y-26436554D01*
X32939820Y-26401995D01*
X32928445Y-26364499D01*
X32924000Y-26319362D01*
X32924000Y-25680638D01*
X32928445Y-25635501D01*
X32939820Y-25598005D01*
X32958292Y-25563446D01*
X32983153Y-25533153D01*
X33013446Y-25508292D01*
X33048005Y-25489820D01*
X33085501Y-25478445D01*
X33130638Y-25474000D01*
X33869362Y-25474000D01*
X33914499Y-25478445D01*
X33914499Y-25478445D01*
G37*
G36*
X38629591Y-23978085D02*
G01*
X38663569Y-23988393D01*
X38694890Y-24005134D01*
X38722339Y-24027661D01*
X38744866Y-24055110D01*
X38761607Y-24086431D01*
X38771915Y-24120409D01*
X38776000Y-24161890D01*
X38776000Y-24838110D01*
X38771915Y-24879591D01*
X38761607Y-24913569D01*
X38744866Y-24944890D01*
X38722339Y-24972339D01*
X38694890Y-24994866D01*
X38663569Y-25011607D01*
X38629591Y-25021915D01*
X38588110Y-25026000D01*
X37986890Y-25026000D01*
X37945409Y-25021915D01*
X37911431Y-25011607D01*
X37880110Y-24994866D01*
X37852661Y-24972339D01*
X37830134Y-24944890D01*
X37813393Y-24913569D01*
X37803085Y-24879591D01*
X37799000Y-24838110D01*
X37799000Y-24161890D01*
X37803085Y-24120409D01*
X37813393Y-24086431D01*
X37830134Y-24055110D01*
X37852661Y-24027661D01*
X37880110Y-24005134D01*
X37911431Y-23988393D01*
X37945409Y-23978085D01*
X37986890Y-23974000D01*
X38588110Y-23974000D01*
X38629591Y-23978085D01*
X38629591Y-23978085D01*
G37*
G36*
X37054591Y-23978085D02*
G01*
X37088569Y-23988393D01*
X37119890Y-24005134D01*
X37147339Y-24027661D01*
X37169866Y-24055110D01*
X37186607Y-24086431D01*
X37196915Y-24120409D01*
X37201000Y-24161890D01*
X37201000Y-24838110D01*
X37196915Y-24879591D01*
X37186607Y-24913569D01*
X37169866Y-24944890D01*
X37147339Y-24972339D01*
X37119890Y-24994866D01*
X37088569Y-25011607D01*
X37054591Y-25021915D01*
X37013110Y-25026000D01*
X36411890Y-25026000D01*
X36370409Y-25021915D01*
X36336431Y-25011607D01*
X36305110Y-24994866D01*
X36277661Y-24972339D01*
X36255134Y-24944890D01*
X36238393Y-24913569D01*
X36228085Y-24879591D01*
X36224000Y-24838110D01*
X36224000Y-24161890D01*
X36228085Y-24120409D01*
X36238393Y-24086431D01*
X36255134Y-24055110D01*
X36277661Y-24027661D01*
X36305110Y-24005134D01*
X36336431Y-23988393D01*
X36370409Y-23978085D01*
X36411890Y-23974000D01*
X37013110Y-23974000D01*
X37054591Y-23978085D01*
X37054591Y-23978085D01*
G37*
G36*
X41539499Y-23978445D02*
G01*
X41576995Y-23989820D01*
X41611554Y-24008292D01*
X41641847Y-24033153D01*
X41666708Y-24063446D01*
X41685180Y-24098005D01*
X41696555Y-24135501D01*
X41701000Y-24180638D01*
X41701000Y-24819362D01*
X41696555Y-24864499D01*
X41685180Y-24901995D01*
X41666708Y-24936554D01*
X41641847Y-24966847D01*
X41611554Y-24991708D01*
X41576995Y-25010180D01*
X41539499Y-25021555D01*
X41494362Y-25026000D01*
X40755638Y-25026000D01*
X40710501Y-25021555D01*
X40673005Y-25010180D01*
X40638446Y-24991708D01*
X40608153Y-24966847D01*
X40583292Y-24936554D01*
X40564820Y-24901995D01*
X40553445Y-24864499D01*
X40549000Y-24819362D01*
X40549000Y-24180638D01*
X40553445Y-24135501D01*
X40564820Y-24098005D01*
X40583292Y-24063446D01*
X40608153Y-24033153D01*
X40638446Y-24008292D01*
X40673005Y-23989820D01*
X40710501Y-23978445D01*
X40755638Y-23974000D01*
X41494362Y-23974000D01*
X41539499Y-23978445D01*
X41539499Y-23978445D01*
G37*
G36*
X47039499Y-23978445D02*
G01*
X47076995Y-23989820D01*
X47111554Y-24008292D01*
X47141847Y-24033153D01*
X47166708Y-24063446D01*
X47185180Y-24098005D01*
X47196555Y-24135501D01*
X47201000Y-24180638D01*
X47201000Y-24819362D01*
X47196555Y-24864499D01*
X47185180Y-24901995D01*
X47166708Y-24936554D01*
X47141847Y-24966847D01*
X47111554Y-24991708D01*
X47076995Y-25010180D01*
X47039499Y-25021555D01*
X46994362Y-25026000D01*
X46255638Y-25026000D01*
X46210501Y-25021555D01*
X46173005Y-25010180D01*
X46138446Y-24991708D01*
X46108153Y-24966847D01*
X46083292Y-24936554D01*
X46064820Y-24901995D01*
X46053445Y-24864499D01*
X46049000Y-24819362D01*
X46049000Y-24180638D01*
X46053445Y-24135501D01*
X46064820Y-24098005D01*
X46083292Y-24063446D01*
X46108153Y-24033153D01*
X46138446Y-24008292D01*
X46173005Y-23989820D01*
X46210501Y-23978445D01*
X46255638Y-23974000D01*
X46994362Y-23974000D01*
X47039499Y-23978445D01*
X47039499Y-23978445D01*
G37*
G36*
X43289499Y-23978445D02*
G01*
X43326995Y-23989820D01*
X43361554Y-24008292D01*
X43391847Y-24033153D01*
X43416708Y-24063446D01*
X43435180Y-24098005D01*
X43446555Y-24135501D01*
X43451000Y-24180638D01*
X43451000Y-24819362D01*
X43446555Y-24864499D01*
X43435180Y-24901995D01*
X43416708Y-24936554D01*
X43391847Y-24966847D01*
X43361554Y-24991708D01*
X43326995Y-25010180D01*
X43289499Y-25021555D01*
X43244362Y-25026000D01*
X42505638Y-25026000D01*
X42460501Y-25021555D01*
X42423005Y-25010180D01*
X42388446Y-24991708D01*
X42358153Y-24966847D01*
X42333292Y-24936554D01*
X42314820Y-24901995D01*
X42303445Y-24864499D01*
X42299000Y-24819362D01*
X42299000Y-24180638D01*
X42303445Y-24135501D01*
X42314820Y-24098005D01*
X42333292Y-24063446D01*
X42358153Y-24033153D01*
X42388446Y-24008292D01*
X42423005Y-23989820D01*
X42460501Y-23978445D01*
X42505638Y-23974000D01*
X43244362Y-23974000D01*
X43289499Y-23978445D01*
X43289499Y-23978445D01*
G37*
G36*
X48789499Y-23978445D02*
G01*
X48826995Y-23989820D01*
X48861554Y-24008292D01*
X48891847Y-24033153D01*
X48916708Y-24063446D01*
X48935180Y-24098005D01*
X48946555Y-24135501D01*
X48951000Y-24180638D01*
X48951000Y-24819362D01*
X48946555Y-24864499D01*
X48935180Y-24901995D01*
X48916708Y-24936554D01*
X48891847Y-24966847D01*
X48861554Y-24991708D01*
X48826995Y-25010180D01*
X48789499Y-25021555D01*
X48744362Y-25026000D01*
X48005638Y-25026000D01*
X47960501Y-25021555D01*
X47923005Y-25010180D01*
X47888446Y-24991708D01*
X47858153Y-24966847D01*
X47833292Y-24936554D01*
X47814820Y-24901995D01*
X47803445Y-24864499D01*
X47799000Y-24819362D01*
X47799000Y-24180638D01*
X47803445Y-24135501D01*
X47814820Y-24098005D01*
X47833292Y-24063446D01*
X47858153Y-24033153D01*
X47888446Y-24008292D01*
X47923005Y-23989820D01*
X47960501Y-23978445D01*
X48005638Y-23974000D01*
X48744362Y-23974000D01*
X48789499Y-23978445D01*
X48789499Y-23978445D01*
G37*
G36*
X45379591Y-24015585D02*
G01*
X45413569Y-24025893D01*
X45444890Y-24042634D01*
X45472339Y-24065161D01*
X45494866Y-24092610D01*
X45511607Y-24123931D01*
X45521915Y-24157909D01*
X45526000Y-24199390D01*
X45526000Y-24800610D01*
X45521915Y-24842091D01*
X45511607Y-24876069D01*
X45494866Y-24907390D01*
X45472339Y-24934839D01*
X45444890Y-24957366D01*
X45413569Y-24974107D01*
X45379591Y-24984415D01*
X45338110Y-24988500D01*
X44661890Y-24988500D01*
X44620409Y-24984415D01*
X44586431Y-24974107D01*
X44555110Y-24957366D01*
X44527661Y-24934839D01*
X44505134Y-24907390D01*
X44488393Y-24876069D01*
X44478085Y-24842091D01*
X44474000Y-24800610D01*
X44474000Y-24199390D01*
X44478085Y-24157909D01*
X44488393Y-24123931D01*
X44505134Y-24092610D01*
X44527661Y-24065161D01*
X44555110Y-24042634D01*
X44586431Y-24025893D01*
X44620409Y-24015585D01*
X44661890Y-24011500D01*
X45338110Y-24011500D01*
X45379591Y-24015585D01*
X45379591Y-24015585D01*
G37*
G36*
X47039499Y-22478445D02*
G01*
X47076995Y-22489820D01*
X47111554Y-22508292D01*
X47141847Y-22533153D01*
X47166708Y-22563446D01*
X47185180Y-22598005D01*
X47196555Y-22635501D01*
X47201000Y-22680638D01*
X47201000Y-23319362D01*
X47196555Y-23364499D01*
X47185180Y-23401995D01*
X47166708Y-23436554D01*
X47141847Y-23466847D01*
X47111554Y-23491708D01*
X47076995Y-23510180D01*
X47039499Y-23521555D01*
X46994362Y-23526000D01*
X46255638Y-23526000D01*
X46210501Y-23521555D01*
X46173005Y-23510180D01*
X46138446Y-23491708D01*
X46108153Y-23466847D01*
X46083292Y-23436554D01*
X46064820Y-23401995D01*
X46053445Y-23364499D01*
X46049000Y-23319362D01*
X46049000Y-22680638D01*
X46053445Y-22635501D01*
X46064820Y-22598005D01*
X46083292Y-22563446D01*
X46108153Y-22533153D01*
X46138446Y-22508292D01*
X46173005Y-22489820D01*
X46210501Y-22478445D01*
X46255638Y-22474000D01*
X46994362Y-22474000D01*
X47039499Y-22478445D01*
X47039499Y-22478445D01*
G37*
G36*
X37054591Y-22478085D02*
G01*
X37088569Y-22488393D01*
X37119890Y-22505134D01*
X37147339Y-22527661D01*
X37169866Y-22555110D01*
X37186607Y-22586431D01*
X37196915Y-22620409D01*
X37201000Y-22661890D01*
X37201000Y-23338110D01*
X37196915Y-23379591D01*
X37186607Y-23413569D01*
X37169866Y-23444890D01*
X37147339Y-23472339D01*
X37119890Y-23494866D01*
X37088569Y-23511607D01*
X37054591Y-23521915D01*
X37013110Y-23526000D01*
X36411890Y-23526000D01*
X36370409Y-23521915D01*
X36336431Y-23511607D01*
X36305110Y-23494866D01*
X36277661Y-23472339D01*
X36255134Y-23444890D01*
X36238393Y-23413569D01*
X36228085Y-23379591D01*
X36224000Y-23338110D01*
X36224000Y-22661890D01*
X36228085Y-22620409D01*
X36238393Y-22586431D01*
X36255134Y-22555110D01*
X36277661Y-22527661D01*
X36305110Y-22505134D01*
X36336431Y-22488393D01*
X36370409Y-22478085D01*
X36411890Y-22474000D01*
X37013110Y-22474000D01*
X37054591Y-22478085D01*
X37054591Y-22478085D01*
G37*
G36*
X38629591Y-22478085D02*
G01*
X38663569Y-22488393D01*
X38694890Y-22505134D01*
X38722339Y-22527661D01*
X38744866Y-22555110D01*
X38761607Y-22586431D01*
X38771915Y-22620409D01*
X38776000Y-22661890D01*
X38776000Y-23338110D01*
X38771915Y-23379591D01*
X38761607Y-23413569D01*
X38744866Y-23444890D01*
X38722339Y-23472339D01*
X38694890Y-23494866D01*
X38663569Y-23511607D01*
X38629591Y-23521915D01*
X38588110Y-23526000D01*
X37986890Y-23526000D01*
X37945409Y-23521915D01*
X37911431Y-23511607D01*
X37880110Y-23494866D01*
X37852661Y-23472339D01*
X37830134Y-23444890D01*
X37813393Y-23413569D01*
X37803085Y-23379591D01*
X37799000Y-23338110D01*
X37799000Y-22661890D01*
X37803085Y-22620409D01*
X37813393Y-22586431D01*
X37830134Y-22555110D01*
X37852661Y-22527661D01*
X37880110Y-22505134D01*
X37911431Y-22488393D01*
X37945409Y-22478085D01*
X37986890Y-22474000D01*
X38588110Y-22474000D01*
X38629591Y-22478085D01*
X38629591Y-22478085D01*
G37*
G36*
X48789499Y-22478445D02*
G01*
X48826995Y-22489820D01*
X48861554Y-22508292D01*
X48891847Y-22533153D01*
X48916708Y-22563446D01*
X48935180Y-22598005D01*
X48946555Y-22635501D01*
X48951000Y-22680638D01*
X48951000Y-23319362D01*
X48946555Y-23364499D01*
X48935180Y-23401995D01*
X48916708Y-23436554D01*
X48891847Y-23466847D01*
X48861554Y-23491708D01*
X48826995Y-23510180D01*
X48789499Y-23521555D01*
X48744362Y-23526000D01*
X48005638Y-23526000D01*
X47960501Y-23521555D01*
X47923005Y-23510180D01*
X47888446Y-23491708D01*
X47858153Y-23466847D01*
X47833292Y-23436554D01*
X47814820Y-23401995D01*
X47803445Y-23364499D01*
X47799000Y-23319362D01*
X47799000Y-22680638D01*
X47803445Y-22635501D01*
X47814820Y-22598005D01*
X47833292Y-22563446D01*
X47858153Y-22533153D01*
X47888446Y-22508292D01*
X47923005Y-22489820D01*
X47960501Y-22478445D01*
X48005638Y-22474000D01*
X48744362Y-22474000D01*
X48789499Y-22478445D01*
X48789499Y-22478445D01*
G37*
G36*
X45379591Y-22440585D02*
G01*
X45413569Y-22450893D01*
X45444890Y-22467634D01*
X45472339Y-22490161D01*
X45494866Y-22517610D01*
X45511607Y-22548931D01*
X45521915Y-22582909D01*
X45526000Y-22624390D01*
X45526000Y-23225610D01*
X45521915Y-23267091D01*
X45511607Y-23301069D01*
X45494866Y-23332390D01*
X45472339Y-23359839D01*
X45444890Y-23382366D01*
X45413569Y-23399107D01*
X45379591Y-23409415D01*
X45338110Y-23413500D01*
X44661890Y-23413500D01*
X44620409Y-23409415D01*
X44586431Y-23399107D01*
X44555110Y-23382366D01*
X44527661Y-23359839D01*
X44505134Y-23332390D01*
X44488393Y-23301069D01*
X44478085Y-23267091D01*
X44474000Y-23225610D01*
X44474000Y-22624390D01*
X44478085Y-22582909D01*
X44488393Y-22548931D01*
X44505134Y-22517610D01*
X44527661Y-22490161D01*
X44555110Y-22467634D01*
X44586431Y-22450893D01*
X44620409Y-22440585D01*
X44661890Y-22436500D01*
X45338110Y-22436500D01*
X45379591Y-22440585D01*
X45379591Y-22440585D01*
G37*
G36*
X27262199Y-19649954D02*
G01*
X27274450Y-19650556D01*
X27292869Y-19650556D01*
X27315149Y-19652750D01*
X27399233Y-19669476D01*
X27420660Y-19675976D01*
X27499858Y-19708780D01*
X27505303Y-19711691D01*
X27505309Y-19711693D01*
X27514169Y-19716429D01*
X27514173Y-19716432D01*
X27519614Y-19719340D01*
X27590899Y-19766971D01*
X27608204Y-19781172D01*
X27668828Y-19841796D01*
X27683029Y-19859101D01*
X27730660Y-19930386D01*
X27733568Y-19935827D01*
X27733571Y-19935831D01*
X27738307Y-19944691D01*
X27738309Y-19944697D01*
X27741220Y-19950142D01*
X27774024Y-20029340D01*
X27780524Y-20050767D01*
X27797250Y-20134851D01*
X27799444Y-20157131D01*
X27799444Y-20175550D01*
X27800046Y-20187801D01*
X27801852Y-20206139D01*
X27801852Y-20743860D01*
X27800263Y-20759999D01*
X27795855Y-20774528D01*
X27790394Y-20787711D01*
X27785612Y-20811745D01*
X27785611Y-20836249D01*
X27790391Y-20860282D01*
X27799768Y-20882921D01*
X27801000Y-20884765D01*
X27801000Y-22116050D01*
X27794525Y-22128164D01*
X27787412Y-22151613D01*
X27785010Y-22175999D01*
X27787412Y-22200385D01*
X27794525Y-22223834D01*
X27796848Y-22228746D01*
X27800263Y-22240001D01*
X27801852Y-22256140D01*
X27801852Y-22793862D01*
X27800046Y-22812199D01*
X27799444Y-22824450D01*
X27799444Y-22842869D01*
X27797250Y-22865149D01*
X27780524Y-22949233D01*
X27774024Y-22970660D01*
X27741220Y-23049858D01*
X27738309Y-23055303D01*
X27738307Y-23055309D01*
X27733571Y-23064169D01*
X27733568Y-23064173D01*
X27730660Y-23069614D01*
X27683029Y-23140899D01*
X27668828Y-23158204D01*
X27608204Y-23218828D01*
X27590899Y-23233029D01*
X27519614Y-23280660D01*
X27514173Y-23283568D01*
X27514169Y-23283571D01*
X27505309Y-23288307D01*
X27505303Y-23288309D01*
X27499858Y-23291220D01*
X27420660Y-23324024D01*
X27399233Y-23330524D01*
X27315149Y-23347250D01*
X27292869Y-23349444D01*
X27274450Y-23349444D01*
X27262199Y-23350046D01*
X27243862Y-23351852D01*
X26756138Y-23351852D01*
X26737801Y-23350046D01*
X26725550Y-23349444D01*
X26707131Y-23349444D01*
X26684851Y-23347250D01*
X26600767Y-23330524D01*
X26579340Y-23324024D01*
X26500142Y-23291220D01*
X26494697Y-23288309D01*
X26494691Y-23288307D01*
X26485831Y-23283571D01*
X26485827Y-23283568D01*
X26480386Y-23280660D01*
X26409101Y-23233029D01*
X26391796Y-23218828D01*
X26331172Y-23158204D01*
X26316971Y-23140899D01*
X26269340Y-23069614D01*
X26266432Y-23064173D01*
X26266429Y-23064169D01*
X26261693Y-23055309D01*
X26261691Y-23055303D01*
X26258780Y-23049858D01*
X26225976Y-22970660D01*
X26219476Y-22949233D01*
X26202750Y-22865149D01*
X26200556Y-22842869D01*
X26200556Y-22824450D01*
X26199954Y-22812199D01*
X26198148Y-22793862D01*
X26198148Y-22256140D01*
X26199737Y-22240001D01*
X26204145Y-22225472D01*
X26209606Y-22212289D01*
X26214388Y-22188255D01*
X26214389Y-22163751D01*
X26209609Y-22139718D01*
X26200232Y-22117079D01*
X26199000Y-22115235D01*
X26199000Y-20883950D01*
X26205475Y-20871836D01*
X26212588Y-20848387D01*
X26214990Y-20824001D01*
X26212588Y-20799615D01*
X26205475Y-20776166D01*
X26203152Y-20771254D01*
X26199737Y-20759999D01*
X26198148Y-20743860D01*
X26198148Y-20206139D01*
X26199954Y-20187801D01*
X26200556Y-20175550D01*
X26200556Y-20157131D01*
X26202750Y-20134851D01*
X26219476Y-20050767D01*
X26225976Y-20029340D01*
X26258780Y-19950142D01*
X26261691Y-19944697D01*
X26261693Y-19944691D01*
X26266429Y-19935831D01*
X26266432Y-19935827D01*
X26269340Y-19930386D01*
X26316971Y-19859101D01*
X26331172Y-19841796D01*
X26391796Y-19781172D01*
X26409101Y-19766971D01*
X26480386Y-19719340D01*
X26485827Y-19716432D01*
X26485831Y-19716429D01*
X26494691Y-19711693D01*
X26494697Y-19711691D01*
X26500142Y-19708780D01*
X26579340Y-19675976D01*
X26600767Y-19669476D01*
X26684851Y-19652750D01*
X26707131Y-19650556D01*
X26725550Y-19650556D01*
X26737801Y-19649954D01*
X26756139Y-19648148D01*
X27243861Y-19648148D01*
X27262199Y-19649954D01*
X27262199Y-19649954D01*
G37*
G36*
X42129591Y-21978085D02*
G01*
X42163569Y-21988393D01*
X42194890Y-22005134D01*
X42222339Y-22027661D01*
X42244866Y-22055110D01*
X42261607Y-22086431D01*
X42271915Y-22120409D01*
X42276000Y-22161890D01*
X42276000Y-22838110D01*
X42271915Y-22879591D01*
X42261607Y-22913569D01*
X42244866Y-22944890D01*
X42222339Y-22972339D01*
X42194890Y-22994866D01*
X42163569Y-23011607D01*
X42129591Y-23021915D01*
X42088110Y-23026000D01*
X41486890Y-23026000D01*
X41445409Y-23021915D01*
X41411431Y-23011607D01*
X41380110Y-22994866D01*
X41352661Y-22972339D01*
X41330134Y-22944890D01*
X41313393Y-22913569D01*
X41303085Y-22879591D01*
X41299000Y-22838110D01*
X41299000Y-22161890D01*
X41303085Y-22120409D01*
X41313393Y-22086431D01*
X41330134Y-22055110D01*
X41352661Y-22027661D01*
X41380110Y-22005134D01*
X41411431Y-21988393D01*
X41445409Y-21978085D01*
X41486890Y-21974000D01*
X42088110Y-21974000D01*
X42129591Y-21978085D01*
X42129591Y-21978085D01*
G37*
G36*
X40554591Y-21978085D02*
G01*
X40588569Y-21988393D01*
X40619890Y-22005134D01*
X40647339Y-22027661D01*
X40669866Y-22055110D01*
X40686607Y-22086431D01*
X40696915Y-22120409D01*
X40701000Y-22161890D01*
X40701000Y-22838110D01*
X40696915Y-22879591D01*
X40686607Y-22913569D01*
X40669866Y-22944890D01*
X40647339Y-22972339D01*
X40619890Y-22994866D01*
X40588569Y-23011607D01*
X40554591Y-23021915D01*
X40513110Y-23026000D01*
X39911890Y-23026000D01*
X39870409Y-23021915D01*
X39836431Y-23011607D01*
X39805110Y-22994866D01*
X39777661Y-22972339D01*
X39755134Y-22944890D01*
X39738393Y-22913569D01*
X39728085Y-22879591D01*
X39724000Y-22838110D01*
X39724000Y-22161890D01*
X39728085Y-22120409D01*
X39738393Y-22086431D01*
X39755134Y-22055110D01*
X39777661Y-22027661D01*
X39805110Y-22005134D01*
X39836431Y-21988393D01*
X39870409Y-21978085D01*
X39911890Y-21974000D01*
X40513110Y-21974000D01*
X40554591Y-21978085D01*
X40554591Y-21978085D01*
G37*
G36*
X44676000Y-19751000D02*
G01*
X32324000Y-19751000D01*
X32324000Y-17649000D01*
X44676000Y-17649000D01*
X44676000Y-19751000D01*
X44676000Y-19751000D01*
G37*
G36*
X70176000Y-19751000D02*
G01*
X57824000Y-19751000D01*
X57824000Y-17649000D01*
X70176000Y-17649000D01*
X70176000Y-19751000D01*
X70176000Y-19751000D01*
G37*
G36*
X16287421Y-17559143D02*
G01*
X16419557Y-17599227D01*
X16419559Y-17599228D01*
X16541339Y-17664320D01*
X16648080Y-17751920D01*
X16735680Y-17858661D01*
X16788677Y-17957813D01*
X16800773Y-17980443D01*
X16840857Y-18112579D01*
X16854391Y-18250000D01*
X16840857Y-18387421D01*
X16800773Y-18519557D01*
X16800772Y-18519559D01*
X16735680Y-18641339D01*
X16648080Y-18748080D01*
X16541339Y-18835680D01*
X16419559Y-18900772D01*
X16419557Y-18900773D01*
X16287421Y-18940857D01*
X16184432Y-18951000D01*
X15615568Y-18951000D01*
X15512579Y-18940857D01*
X15380443Y-18900773D01*
X15380441Y-18900772D01*
X15258661Y-18835680D01*
X15151920Y-18748080D01*
X15064320Y-18641339D01*
X14999228Y-18519559D01*
X14999227Y-18519557D01*
X14959143Y-18387421D01*
X14945609Y-18250000D01*
X14959143Y-18112579D01*
X14999227Y-17980443D01*
X15011323Y-17957813D01*
X15064320Y-17858661D01*
X15151920Y-17751920D01*
X15258661Y-17664320D01*
X15380441Y-17599228D01*
X15380443Y-17599227D01*
X15512579Y-17559143D01*
X15615568Y-17549000D01*
X16184432Y-17549000D01*
X16287421Y-17559143D01*
X16287421Y-17559143D01*
G37*
G36*
X22887421Y-17559143D02*
G01*
X23019557Y-17599227D01*
X23019559Y-17599228D01*
X23141339Y-17664320D01*
X23248080Y-17751920D01*
X23335680Y-17858661D01*
X23388677Y-17957813D01*
X23400773Y-17980443D01*
X23440857Y-18112579D01*
X23454391Y-18250000D01*
X23440857Y-18387421D01*
X23400773Y-18519557D01*
X23400772Y-18519559D01*
X23335680Y-18641339D01*
X23248080Y-18748080D01*
X23141339Y-18835680D01*
X23019559Y-18900772D01*
X23019557Y-18900773D01*
X22887421Y-18940857D01*
X22784432Y-18951000D01*
X21015568Y-18951000D01*
X20912579Y-18940857D01*
X20780443Y-18900773D01*
X20780441Y-18900772D01*
X20658661Y-18835680D01*
X20551920Y-18748080D01*
X20464320Y-18641339D01*
X20399228Y-18519559D01*
X20399227Y-18519557D01*
X20359143Y-18387421D01*
X20345609Y-18250000D01*
X20359143Y-18112579D01*
X20399227Y-17980443D01*
X20411323Y-17957813D01*
X20464320Y-17858661D01*
X20551920Y-17751920D01*
X20658661Y-17664320D01*
X20780441Y-17599228D01*
X20780443Y-17599227D01*
X20912579Y-17559143D01*
X21015568Y-17549000D01*
X22784432Y-17549000D01*
X22887421Y-17559143D01*
X22887421Y-17559143D01*
G37*
G36*
X71045091Y-17436528D02*
G01*
X71104420Y-17461103D01*
X71157810Y-17496777D01*
X71203223Y-17542190D01*
X71238897Y-17595580D01*
X71263472Y-17654909D01*
X71276000Y-17717892D01*
X71276000Y-17782108D01*
X71263472Y-17845091D01*
X71238897Y-17904420D01*
X71203223Y-17957810D01*
X71157810Y-18003223D01*
X71104420Y-18038897D01*
X71045091Y-18063472D01*
X70982108Y-18076000D01*
X70917892Y-18076000D01*
X70854909Y-18063472D01*
X70795580Y-18038897D01*
X70742190Y-18003223D01*
X70696777Y-17957810D01*
X70661103Y-17904420D01*
X70636528Y-17845091D01*
X70624000Y-17782108D01*
X70624000Y-17717892D01*
X70636528Y-17654909D01*
X70661103Y-17595580D01*
X70696777Y-17542190D01*
X70742190Y-17496777D01*
X70795580Y-17461103D01*
X70854909Y-17436528D01*
X70917892Y-17424000D01*
X70982108Y-17424000D01*
X71045091Y-17436528D01*
X71045091Y-17436528D01*
G37*
G36*
X57145091Y-17436528D02*
G01*
X57204420Y-17461103D01*
X57257810Y-17496777D01*
X57303223Y-17542190D01*
X57338897Y-17595580D01*
X57363472Y-17654909D01*
X57376000Y-17717892D01*
X57376000Y-17782108D01*
X57363472Y-17845091D01*
X57338897Y-17904420D01*
X57303223Y-17957810D01*
X57257810Y-18003223D01*
X57204420Y-18038897D01*
X57145091Y-18063472D01*
X57082108Y-18076000D01*
X57017892Y-18076000D01*
X56954909Y-18063472D01*
X56895580Y-18038897D01*
X56842190Y-18003223D01*
X56796777Y-17957810D01*
X56761103Y-17904420D01*
X56736528Y-17845091D01*
X56724000Y-17782108D01*
X56724000Y-17717892D01*
X56736528Y-17654909D01*
X56761103Y-17595580D01*
X56796777Y-17542190D01*
X56842190Y-17496777D01*
X56895580Y-17461103D01*
X56954909Y-17436528D01*
X57017892Y-17424000D01*
X57082108Y-17424000D01*
X57145091Y-17436528D01*
X57145091Y-17436528D01*
G37*
G36*
X45545091Y-17436528D02*
G01*
X45604420Y-17461103D01*
X45657810Y-17496777D01*
X45703223Y-17542190D01*
X45738897Y-17595580D01*
X45763472Y-17654909D01*
X45776000Y-17717892D01*
X45776000Y-17782108D01*
X45763472Y-17845091D01*
X45738897Y-17904420D01*
X45703223Y-17957810D01*
X45657810Y-18003223D01*
X45604420Y-18038897D01*
X45545091Y-18063472D01*
X45482108Y-18076000D01*
X45417892Y-18076000D01*
X45354909Y-18063472D01*
X45295580Y-18038897D01*
X45242190Y-18003223D01*
X45196777Y-17957810D01*
X45161103Y-17904420D01*
X45136528Y-17845091D01*
X45124000Y-17782108D01*
X45124000Y-17717892D01*
X45136528Y-17654909D01*
X45161103Y-17595580D01*
X45196777Y-17542190D01*
X45242190Y-17496777D01*
X45295580Y-17461103D01*
X45354909Y-17436528D01*
X45417892Y-17424000D01*
X45482108Y-17424000D01*
X45545091Y-17436528D01*
X45545091Y-17436528D01*
G37*
G36*
X31645091Y-17436528D02*
G01*
X31704420Y-17461103D01*
X31757810Y-17496777D01*
X31803223Y-17542190D01*
X31838897Y-17595580D01*
X31863472Y-17654909D01*
X31876000Y-17717892D01*
X31876000Y-17782108D01*
X31863472Y-17845091D01*
X31838897Y-17904420D01*
X31803223Y-17957810D01*
X31757810Y-18003223D01*
X31704420Y-18038897D01*
X31645091Y-18063472D01*
X31582108Y-18076000D01*
X31517892Y-18076000D01*
X31454909Y-18063472D01*
X31395580Y-18038897D01*
X31342190Y-18003223D01*
X31296777Y-17957810D01*
X31261103Y-17904420D01*
X31236528Y-17845091D01*
X31224000Y-17782108D01*
X31224000Y-17717892D01*
X31236528Y-17654909D01*
X31261103Y-17595580D01*
X31296777Y-17542190D01*
X31342190Y-17496777D01*
X31395580Y-17461103D01*
X31454909Y-17436528D01*
X31517892Y-17424000D01*
X31582108Y-17424000D01*
X31645091Y-17436528D01*
X31645091Y-17436528D01*
G37*
G36*
X14724549Y-13371116D02*
G01*
X14835734Y-13393232D01*
X15045203Y-13479997D01*
X15233720Y-13605960D01*
X15394040Y-13766280D01*
X15520003Y-13954797D01*
X15520004Y-13954799D01*
X15606768Y-14164267D01*
X15651000Y-14386635D01*
X15651000Y-14613365D01*
X15606768Y-14835733D01*
X15540061Y-14996780D01*
X15520003Y-15045203D01*
X15394040Y-15233720D01*
X15233720Y-15394040D01*
X15045203Y-15520003D01*
X14835734Y-15606768D01*
X14724549Y-15628884D01*
X14613365Y-15651000D01*
X14386635Y-15651000D01*
X14275451Y-15628884D01*
X14164266Y-15606768D01*
X13954797Y-15520003D01*
X13766280Y-15394040D01*
X13605960Y-15233720D01*
X13479997Y-15045203D01*
X13459940Y-14996780D01*
X13393232Y-14835733D01*
X13349000Y-14613365D01*
X13349000Y-14386635D01*
X13393232Y-14164267D01*
X13479996Y-13954799D01*
X13479997Y-13954797D01*
X13605960Y-13766280D01*
X13766280Y-13605960D01*
X13954797Y-13479997D01*
X14164266Y-13393232D01*
X14275451Y-13371116D01*
X14386635Y-13349000D01*
X14613365Y-13349000D01*
X14724549Y-13371116D01*
X14724549Y-13371116D01*
G37*
G36*
X74724549Y-13371116D02*
G01*
X74835734Y-13393232D01*
X75045203Y-13479997D01*
X75233720Y-13605960D01*
X75394040Y-13766280D01*
X75520003Y-13954797D01*
X75520004Y-13954799D01*
X75606768Y-14164267D01*
X75651000Y-14386635D01*
X75651000Y-14613365D01*
X75606768Y-14835733D01*
X75540061Y-14996780D01*
X75520003Y-15045203D01*
X75394040Y-15233720D01*
X75233720Y-15394040D01*
X75045203Y-15520003D01*
X74835734Y-15606768D01*
X74724549Y-15628884D01*
X74613365Y-15651000D01*
X74386635Y-15651000D01*
X74275451Y-15628884D01*
X74164266Y-15606768D01*
X73954797Y-15520003D01*
X73766280Y-15394040D01*
X73605960Y-15233720D01*
X73479997Y-15045203D01*
X73459940Y-14996780D01*
X73393232Y-14835733D01*
X73349000Y-14613365D01*
X73349000Y-14386635D01*
X73393232Y-14164267D01*
X73479996Y-13954799D01*
X73479997Y-13954797D01*
X73605960Y-13766280D01*
X73766280Y-13605960D01*
X73954797Y-13479997D01*
X74164266Y-13393232D01*
X74275451Y-13371116D01*
X74386635Y-13349000D01*
X74613365Y-13349000D01*
X74724549Y-13371116D01*
X74724549Y-13371116D01*
G37*
G36*
X45545091Y-14936528D02*
G01*
X45604420Y-14961103D01*
X45657810Y-14996777D01*
X45703223Y-15042190D01*
X45738897Y-15095580D01*
X45763472Y-15154909D01*
X45776000Y-15217892D01*
X45776000Y-15282108D01*
X45763472Y-15345091D01*
X45738897Y-15404420D01*
X45703223Y-15457810D01*
X45657810Y-15503223D01*
X45604420Y-15538897D01*
X45545091Y-15563472D01*
X45482108Y-15576000D01*
X45417892Y-15576000D01*
X45354909Y-15563472D01*
X45295580Y-15538897D01*
X45242190Y-15503223D01*
X45196777Y-15457810D01*
X45161103Y-15404420D01*
X45136528Y-15345091D01*
X45124000Y-15282108D01*
X45124000Y-15217892D01*
X45136528Y-15154909D01*
X45161103Y-15095580D01*
X45196777Y-15042190D01*
X45242190Y-14996777D01*
X45295580Y-14961103D01*
X45354909Y-14936528D01*
X45417892Y-14924000D01*
X45482108Y-14924000D01*
X45545091Y-14936528D01*
X45545091Y-14936528D01*
G37*
G36*
X71045091Y-14936528D02*
G01*
X71104420Y-14961103D01*
X71157810Y-14996777D01*
X71203223Y-15042190D01*
X71238897Y-15095580D01*
X71263472Y-15154909D01*
X71276000Y-15217892D01*
X71276000Y-15282108D01*
X71263472Y-15345091D01*
X71238897Y-15404420D01*
X71203223Y-15457810D01*
X71157810Y-15503223D01*
X71104420Y-15538897D01*
X71045091Y-15563472D01*
X70982108Y-15576000D01*
X70917892Y-15576000D01*
X70854909Y-15563472D01*
X70795580Y-15538897D01*
X70742190Y-15503223D01*
X70696777Y-15457810D01*
X70661103Y-15404420D01*
X70636528Y-15345091D01*
X70624000Y-15282108D01*
X70624000Y-15217892D01*
X70636528Y-15154909D01*
X70661103Y-15095580D01*
X70696777Y-15042190D01*
X70742190Y-14996777D01*
X70795580Y-14961103D01*
X70854909Y-14936528D01*
X70917892Y-14924000D01*
X70982108Y-14924000D01*
X71045091Y-14936528D01*
X71045091Y-14936528D01*
G37*
G36*
X57145091Y-14936528D02*
G01*
X57204420Y-14961103D01*
X57257810Y-14996777D01*
X57303223Y-15042190D01*
X57338897Y-15095580D01*
X57363472Y-15154909D01*
X57376000Y-15217892D01*
X57376000Y-15282108D01*
X57363472Y-15345091D01*
X57338897Y-15404420D01*
X57303223Y-15457810D01*
X57257810Y-15503223D01*
X57204420Y-15538897D01*
X57145091Y-15563472D01*
X57082108Y-15576000D01*
X57017892Y-15576000D01*
X56954909Y-15563472D01*
X56895580Y-15538897D01*
X56842190Y-15503223D01*
X56796777Y-15457810D01*
X56761103Y-15404420D01*
X56736528Y-15345091D01*
X56724000Y-15282108D01*
X56724000Y-15217892D01*
X56736528Y-15154909D01*
X56761103Y-15095580D01*
X56796777Y-15042190D01*
X56842190Y-14996777D01*
X56895580Y-14961103D01*
X56954909Y-14936528D01*
X57017892Y-14924000D01*
X57082108Y-14924000D01*
X57145091Y-14936528D01*
X57145091Y-14936528D01*
G37*
G36*
X31645091Y-14936528D02*
G01*
X31704420Y-14961103D01*
X31757810Y-14996777D01*
X31803223Y-15042190D01*
X31838897Y-15095580D01*
X31863472Y-15154909D01*
X31876000Y-15217892D01*
X31876000Y-15282108D01*
X31863472Y-15345091D01*
X31838897Y-15404420D01*
X31803223Y-15457810D01*
X31757810Y-15503223D01*
X31704420Y-15538897D01*
X31645091Y-15563472D01*
X31582108Y-15576000D01*
X31517892Y-15576000D01*
X31454909Y-15563472D01*
X31395580Y-15538897D01*
X31342190Y-15503223D01*
X31296777Y-15457810D01*
X31261103Y-15404420D01*
X31236528Y-15345091D01*
X31224000Y-15282108D01*
X31224000Y-15217892D01*
X31236528Y-15154909D01*
X31261103Y-15095580D01*
X31296777Y-15042190D01*
X31342190Y-14996777D01*
X31395580Y-14961103D01*
X31454909Y-14936528D01*
X31517892Y-14924000D01*
X31582108Y-14924000D01*
X31645091Y-14936528D01*
X31645091Y-14936528D01*
G37*
G36*
X44676000Y-15351000D02*
G01*
X32324000Y-15351000D01*
X32324000Y-13249000D01*
X44676000Y-13249000D01*
X44676000Y-15351000D01*
X44676000Y-15351000D01*
G37*
G36*
X70176000Y-15351000D02*
G01*
X57824000Y-15351000D01*
X57824000Y-13249000D01*
X70176000Y-13249000D01*
X70176000Y-15351000D01*
X70176000Y-15351000D01*
G37*
M02*
