%TF.GenerationSoftware,KiCad,Pcbnew,(5.1.2-1)-1*%
%TF.CreationDate,2020-01-20T17:34:23-08:00*%
%TF.ProjectId,Uno rev1.1,556e6f20-7265-4763-912e-312e6b696361,rev?*%
%TF.SameCoordinates,Original*%
%TF.FileFunction,Copper,L1,Top*%
%TF.FilePolarity,Positive*%
%FSLAX46Y46*%
G04 Gerber Fmt 4.6, Leading zero omitted, Abs format (unit mm)*
G04 Created by KiCad (PCBNEW (5.1.2-1)-1) date 2020-01-20 17:34:23*
%MOMM*%
%LPD*%
G04 APERTURE LIST*
%TA.AperFunction,SMDPad,CuDef*%
%ADD10R,2.100000X1.800000*%
%TD*%
%TA.AperFunction,ComponentPad*%
%ADD11O,1.700000X1.700000*%
%TD*%
%TA.AperFunction,ComponentPad*%
%ADD12R,1.700000X1.700000*%
%TD*%
%TA.AperFunction,ComponentPad*%
%ADD13O,2.032000X1.270000*%
%TD*%
%TA.AperFunction,ComponentPad*%
%ADD14O,1.828800X1.270000*%
%TD*%
%TA.AperFunction,SMDPad,CuDef*%
%ADD15R,1.524000X0.299974*%
%TD*%
%TA.AperFunction,Conductor*%
%ADD16C,0.100000*%
%TD*%
%TA.AperFunction,SMDPad,CuDef*%
%ADD17C,1.150000*%
%TD*%
%TA.AperFunction,SMDPad,CuDef*%
%ADD18R,1.000000X1.700000*%
%TD*%
%TA.AperFunction,SMDPad,CuDef*%
%ADD19R,1.000000X2.500000*%
%TD*%
%TA.AperFunction,SMDPad,CuDef*%
%ADD20R,2.000000X4.000000*%
%TD*%
%TA.AperFunction,SMDPad,CuDef*%
%ADD21C,0.750000*%
%TD*%
%TA.AperFunction,SMDPad,CuDef*%
%ADD22R,3.800000X2.000000*%
%TD*%
%TA.AperFunction,SMDPad,CuDef*%
%ADD23R,1.500000X2.000000*%
%TD*%
%TA.AperFunction,SMDPad,CuDef*%
%ADD24C,0.600000*%
%TD*%
%TA.AperFunction,SMDPad,CuDef*%
%ADD25C,0.550000*%
%TD*%
%TA.AperFunction,ViaPad*%
%ADD26C,0.635000*%
%TD*%
%TA.AperFunction,ViaPad*%
%ADD27C,0.450000*%
%TD*%
%TA.AperFunction,ViaPad*%
%ADD28C,0.600000*%
%TD*%
%TA.AperFunction,Conductor*%
%ADD29C,0.508000*%
%TD*%
%TA.AperFunction,Conductor*%
%ADD30C,0.254000*%
%TD*%
G04 APERTURE END LIST*
D10*
%TO.P,Y2,1*%
%TO.N,Net-(C12-Pad2)*%
X43000000Y-161040000D03*
%TO.P,Y2,2*%
%TO.N,GNDREF*%
X45900000Y-161040000D03*
%TO.P,Y2,3*%
%TO.N,Net-(C10-Pad1)*%
X45900000Y-158740000D03*
%TO.P,Y2,4*%
%TO.N,GNDREF*%
X43000000Y-158740000D03*
%TD*%
%TO.P,16MHz,4*%
%TO.N,GNDREF*%
X68450000Y-173650000D03*
%TO.P,16MHz,3*%
%TO.N,Net-(C9-Pad1)*%
X65550000Y-173650000D03*
%TO.P,16MHz,2*%
%TO.N,GNDREF*%
X65550000Y-171350000D03*
%TO.P,16MHz,1*%
%TO.N,Net-(C11-Pad2)*%
X68450000Y-171350000D03*
%TD*%
D11*
%TO.P,J6,2*%
%TO.N,+VSW*%
X14100000Y-171500000D03*
D12*
%TO.P,J6,1*%
%TO.N,GNDREF*%
X14100000Y-174040000D03*
%TD*%
%TO.P,J1,1*%
%TO.N,GNDREF*%
X48260000Y-180340000D03*
D11*
%TO.P,J1,2*%
X45720000Y-180340000D03*
%TO.P,J1,3*%
%TO.N,+5V*%
X43180000Y-180340000D03*
%TO.P,J1,4*%
X40640000Y-180340000D03*
%TO.P,J1,5*%
%TO.N,+3V3*%
X38100000Y-180340000D03*
%TO.P,J1,6*%
X35560000Y-180340000D03*
%TO.P,J1,7*%
%TO.N,RST*%
X33020000Y-180340000D03*
%TO.P,J1,8*%
%TO.N,GNDREF*%
X30480000Y-180340000D03*
%TD*%
D12*
%TO.P,J2,1*%
%TO.N,D12*%
X66040000Y-162560000D03*
D11*
%TO.P,J2,2*%
%TO.N,+5V*%
X68580000Y-162560000D03*
%TO.P,J2,3*%
%TO.N,D13*%
X66040000Y-165100000D03*
%TO.P,J2,4*%
%TO.N,D11*%
X68580000Y-165100000D03*
%TO.P,J2,5*%
%TO.N,RST*%
X66040000Y-167640000D03*
%TO.P,J2,6*%
%TO.N,GNDREF*%
X68580000Y-167640000D03*
%TD*%
D12*
%TO.P,J3,1*%
%TO.N,D8*%
X43180000Y-149860000D03*
D11*
%TO.P,J3,2*%
%TO.N,D9*%
X40640000Y-149860000D03*
%TO.P,J3,3*%
%TO.N,D10*%
X38100000Y-149860000D03*
%TO.P,J3,4*%
%TO.N,D11*%
X35560000Y-149860000D03*
%TO.P,J3,5*%
%TO.N,D12*%
X33020000Y-149860000D03*
%TO.P,J3,6*%
%TO.N,D13*%
X30480000Y-149860000D03*
%TO.P,J3,7*%
%TO.N,GNDREF*%
X27940000Y-149860000D03*
%TO.P,J3,8*%
%TO.N,AREF*%
X25400000Y-149860000D03*
%TO.P,J3,9*%
%TO.N,AD4_SDA*%
X22860000Y-149860000D03*
%TO.P,J3,10*%
%TO.N,AD5_SCL*%
X20320000Y-149860000D03*
%TD*%
D12*
%TO.P,J4,1*%
%TO.N,AD0*%
X66040000Y-180340000D03*
D11*
%TO.P,J4,2*%
%TO.N,AD1*%
X63500000Y-180340000D03*
%TO.P,J4,3*%
%TO.N,AD2*%
X60960000Y-180340000D03*
%TO.P,J4,4*%
%TO.N,AD3*%
X58420000Y-180340000D03*
%TO.P,J4,5*%
%TO.N,AD4_SDA*%
X55880000Y-180340000D03*
%TO.P,J4,6*%
%TO.N,AD5_SCL*%
X53340000Y-180340000D03*
%TD*%
D12*
%TO.P,J5,1*%
%TO.N,D0*%
X66040000Y-149860000D03*
D11*
%TO.P,J5,2*%
%TO.N,D1*%
X63500000Y-149860000D03*
%TO.P,J5,3*%
%TO.N,D2*%
X60960000Y-149860000D03*
%TO.P,J5,4*%
%TO.N,D3*%
X58420000Y-149860000D03*
%TO.P,J5,5*%
%TO.N,D4*%
X55880000Y-149860000D03*
%TO.P,J5,6*%
%TO.N,D5*%
X53340000Y-149860000D03*
%TO.P,J5,7*%
%TO.N,D6*%
X50800000Y-149860000D03*
%TO.P,J5,8*%
%TO.N,D7*%
X48260000Y-149860000D03*
%TD*%
D13*
%TO.P,P1,S1*%
%TO.N,GNDREF*%
X17858000Y-168656000D03*
D14*
X13540000Y-168656000D03*
D13*
X17858000Y-160020000D03*
D14*
X13540000Y-160020000D03*
D15*
%TO.P,P1,A1*%
X18874000Y-160972500D03*
%TO.P,P1,B12*%
X18874000Y-161290000D03*
%TO.P,P1,A4*%
%TO.N,+VSW*%
X18874000Y-161861500D03*
%TO.P,P1,B9*%
X18874000Y-162115500D03*
%TO.P,P1,A8*%
%TO.N,Net-(P1-PadA8)*%
X18874000Y-162623500D03*
%TO.P,P1,A5*%
%TO.N,Net-(P1-PadA5)*%
X18874000Y-163131500D03*
%TO.P,P1,B7*%
%TO.N,D-*%
X18874000Y-163639500D03*
%TO.P,P1,A6*%
%TO.N,D+*%
X18874000Y-164147500D03*
%TO.P,P1,A7*%
%TO.N,D-*%
X18874000Y-164655500D03*
%TO.P,P1,B6*%
%TO.N,D+*%
X18874000Y-165163500D03*
%TO.P,P1,B8*%
%TO.N,Net-(P1-PadB8)*%
X18874000Y-165671500D03*
%TO.P,P1,B5*%
%TO.N,Net-(P1-PadB5)*%
X18874000Y-166179500D03*
%TO.P,P1,B4*%
%TO.N,+VSW*%
X18874000Y-166687500D03*
%TO.P,P1,A9*%
X18874000Y-166941500D03*
%TO.P,P1,B1*%
%TO.N,GNDREF*%
X18874000Y-167449500D03*
%TO.P,P1,A12*%
X18874000Y-167703500D03*
%TD*%
D16*
%TO.N,+5V*%
%TO.C,R1*%
G36*
X47464505Y-171229204D02*
G01*
X47488773Y-171232804D01*
X47512572Y-171238765D01*
X47535671Y-171247030D01*
X47557850Y-171257520D01*
X47578893Y-171270132D01*
X47598599Y-171284747D01*
X47616777Y-171301223D01*
X47633253Y-171319401D01*
X47647868Y-171339107D01*
X47660480Y-171360150D01*
X47670970Y-171382329D01*
X47679235Y-171405428D01*
X47685196Y-171429227D01*
X47688796Y-171453495D01*
X47690000Y-171477999D01*
X47690000Y-172128001D01*
X47688796Y-172152505D01*
X47685196Y-172176773D01*
X47679235Y-172200572D01*
X47670970Y-172223671D01*
X47660480Y-172245850D01*
X47647868Y-172266893D01*
X47633253Y-172286599D01*
X47616777Y-172304777D01*
X47598599Y-172321253D01*
X47578893Y-172335868D01*
X47557850Y-172348480D01*
X47535671Y-172358970D01*
X47512572Y-172367235D01*
X47488773Y-172373196D01*
X47464505Y-172376796D01*
X47440001Y-172378000D01*
X46539999Y-172378000D01*
X46515495Y-172376796D01*
X46491227Y-172373196D01*
X46467428Y-172367235D01*
X46444329Y-172358970D01*
X46422150Y-172348480D01*
X46401107Y-172335868D01*
X46381401Y-172321253D01*
X46363223Y-172304777D01*
X46346747Y-172286599D01*
X46332132Y-172266893D01*
X46319520Y-172245850D01*
X46309030Y-172223671D01*
X46300765Y-172200572D01*
X46294804Y-172176773D01*
X46291204Y-172152505D01*
X46290000Y-172128001D01*
X46290000Y-171477999D01*
X46291204Y-171453495D01*
X46294804Y-171429227D01*
X46300765Y-171405428D01*
X46309030Y-171382329D01*
X46319520Y-171360150D01*
X46332132Y-171339107D01*
X46346747Y-171319401D01*
X46363223Y-171301223D01*
X46381401Y-171284747D01*
X46401107Y-171270132D01*
X46422150Y-171257520D01*
X46444329Y-171247030D01*
X46467428Y-171238765D01*
X46491227Y-171232804D01*
X46515495Y-171229204D01*
X46539999Y-171228000D01*
X47440001Y-171228000D01*
X47464505Y-171229204D01*
X47464505Y-171229204D01*
G37*
D17*
%TD*%
%TO.P,R1,1*%
%TO.N,+5V*%
X46990000Y-171803000D03*
D16*
%TO.N,RST*%
%TO.C,R1*%
G36*
X47464505Y-169179204D02*
G01*
X47488773Y-169182804D01*
X47512572Y-169188765D01*
X47535671Y-169197030D01*
X47557850Y-169207520D01*
X47578893Y-169220132D01*
X47598599Y-169234747D01*
X47616777Y-169251223D01*
X47633253Y-169269401D01*
X47647868Y-169289107D01*
X47660480Y-169310150D01*
X47670970Y-169332329D01*
X47679235Y-169355428D01*
X47685196Y-169379227D01*
X47688796Y-169403495D01*
X47690000Y-169427999D01*
X47690000Y-170078001D01*
X47688796Y-170102505D01*
X47685196Y-170126773D01*
X47679235Y-170150572D01*
X47670970Y-170173671D01*
X47660480Y-170195850D01*
X47647868Y-170216893D01*
X47633253Y-170236599D01*
X47616777Y-170254777D01*
X47598599Y-170271253D01*
X47578893Y-170285868D01*
X47557850Y-170298480D01*
X47535671Y-170308970D01*
X47512572Y-170317235D01*
X47488773Y-170323196D01*
X47464505Y-170326796D01*
X47440001Y-170328000D01*
X46539999Y-170328000D01*
X46515495Y-170326796D01*
X46491227Y-170323196D01*
X46467428Y-170317235D01*
X46444329Y-170308970D01*
X46422150Y-170298480D01*
X46401107Y-170285868D01*
X46381401Y-170271253D01*
X46363223Y-170254777D01*
X46346747Y-170236599D01*
X46332132Y-170216893D01*
X46319520Y-170195850D01*
X46309030Y-170173671D01*
X46300765Y-170150572D01*
X46294804Y-170126773D01*
X46291204Y-170102505D01*
X46290000Y-170078001D01*
X46290000Y-169427999D01*
X46291204Y-169403495D01*
X46294804Y-169379227D01*
X46300765Y-169355428D01*
X46309030Y-169332329D01*
X46319520Y-169310150D01*
X46332132Y-169289107D01*
X46346747Y-169269401D01*
X46363223Y-169251223D01*
X46381401Y-169234747D01*
X46401107Y-169220132D01*
X46422150Y-169207520D01*
X46444329Y-169197030D01*
X46467428Y-169188765D01*
X46491227Y-169182804D01*
X46515495Y-169179204D01*
X46539999Y-169178000D01*
X47440001Y-169178000D01*
X47464505Y-169179204D01*
X47464505Y-169179204D01*
G37*
D17*
%TD*%
%TO.P,R1,2*%
%TO.N,RST*%
X46990000Y-169753000D03*
D18*
%TO.P,RST1,1*%
%TO.N,RST*%
X13340000Y-153010000D03*
X13340000Y-146710000D03*
%TO.P,RST1,2*%
%TO.N,GNDREF*%
X17140000Y-153010000D03*
X17140000Y-146710000D03*
%TD*%
D19*
%TO.P,U1,1*%
%TO.N,+VSW*%
X26440000Y-171981000D03*
%TO.P,U1,2*%
%TO.N,GNDREF*%
X27940000Y-171981000D03*
%TO.P,U1,3*%
%TO.N,+5V*%
X29440000Y-171981000D03*
D20*
%TO.P,U1,2*%
%TO.N,GNDREF*%
X27940000Y-168021000D03*
D21*
X27940000Y-170371000D03*
D16*
%TD*%
%TO.N,GNDREF*%
%TO.C,U1*%
G36*
X28940000Y-169996000D02*
G01*
X28440000Y-170746000D01*
X27440000Y-170746000D01*
X26940000Y-169996000D01*
X28940000Y-169996000D01*
X28940000Y-169996000D01*
G37*
D22*
%TO.P,U2,2*%
%TO.N,+3V3*%
X38100000Y-173330000D03*
D23*
X38100000Y-167030000D03*
%TO.P,U2,3*%
%TO.N,+VSW*%
X35800000Y-167030000D03*
%TO.P,U2,1*%
%TO.N,GNDREF*%
X40400000Y-167030000D03*
%TD*%
D16*
%TO.N,GNDREF*%
%TO.C,U3*%
G36*
X30898703Y-161515722D02*
G01*
X30913264Y-161517882D01*
X30927543Y-161521459D01*
X30941403Y-161526418D01*
X30954710Y-161532712D01*
X30967336Y-161540280D01*
X30979159Y-161549048D01*
X30990066Y-161558934D01*
X30999952Y-161569841D01*
X31008720Y-161581664D01*
X31016288Y-161594290D01*
X31022582Y-161607597D01*
X31027541Y-161621457D01*
X31031118Y-161635736D01*
X31033278Y-161650297D01*
X31034000Y-161665000D01*
X31034000Y-163315000D01*
X31033278Y-163329703D01*
X31031118Y-163344264D01*
X31027541Y-163358543D01*
X31022582Y-163372403D01*
X31016288Y-163385710D01*
X31008720Y-163398336D01*
X30999952Y-163410159D01*
X30990066Y-163421066D01*
X30979159Y-163430952D01*
X30967336Y-163439720D01*
X30954710Y-163447288D01*
X30941403Y-163453582D01*
X30927543Y-163458541D01*
X30913264Y-163462118D01*
X30898703Y-163464278D01*
X30884000Y-163465000D01*
X30584000Y-163465000D01*
X30569297Y-163464278D01*
X30554736Y-163462118D01*
X30540457Y-163458541D01*
X30526597Y-163453582D01*
X30513290Y-163447288D01*
X30500664Y-163439720D01*
X30488841Y-163430952D01*
X30477934Y-163421066D01*
X30468048Y-163410159D01*
X30459280Y-163398336D01*
X30451712Y-163385710D01*
X30445418Y-163372403D01*
X30440459Y-163358543D01*
X30436882Y-163344264D01*
X30434722Y-163329703D01*
X30434000Y-163315000D01*
X30434000Y-161665000D01*
X30434722Y-161650297D01*
X30436882Y-161635736D01*
X30440459Y-161621457D01*
X30445418Y-161607597D01*
X30451712Y-161594290D01*
X30459280Y-161581664D01*
X30468048Y-161569841D01*
X30477934Y-161558934D01*
X30488841Y-161549048D01*
X30500664Y-161540280D01*
X30513290Y-161532712D01*
X30526597Y-161526418D01*
X30540457Y-161521459D01*
X30554736Y-161517882D01*
X30569297Y-161515722D01*
X30584000Y-161515000D01*
X30884000Y-161515000D01*
X30898703Y-161515722D01*
X30898703Y-161515722D01*
G37*
D24*
%TD*%
%TO.P,U3,1*%
%TO.N,GNDREF*%
X30734000Y-162490000D03*
D16*
%TO.N,D0*%
%TO.C,U3*%
G36*
X32168703Y-161515722D02*
G01*
X32183264Y-161517882D01*
X32197543Y-161521459D01*
X32211403Y-161526418D01*
X32224710Y-161532712D01*
X32237336Y-161540280D01*
X32249159Y-161549048D01*
X32260066Y-161558934D01*
X32269952Y-161569841D01*
X32278720Y-161581664D01*
X32286288Y-161594290D01*
X32292582Y-161607597D01*
X32297541Y-161621457D01*
X32301118Y-161635736D01*
X32303278Y-161650297D01*
X32304000Y-161665000D01*
X32304000Y-163315000D01*
X32303278Y-163329703D01*
X32301118Y-163344264D01*
X32297541Y-163358543D01*
X32292582Y-163372403D01*
X32286288Y-163385710D01*
X32278720Y-163398336D01*
X32269952Y-163410159D01*
X32260066Y-163421066D01*
X32249159Y-163430952D01*
X32237336Y-163439720D01*
X32224710Y-163447288D01*
X32211403Y-163453582D01*
X32197543Y-163458541D01*
X32183264Y-163462118D01*
X32168703Y-163464278D01*
X32154000Y-163465000D01*
X31854000Y-163465000D01*
X31839297Y-163464278D01*
X31824736Y-163462118D01*
X31810457Y-163458541D01*
X31796597Y-163453582D01*
X31783290Y-163447288D01*
X31770664Y-163439720D01*
X31758841Y-163430952D01*
X31747934Y-163421066D01*
X31738048Y-163410159D01*
X31729280Y-163398336D01*
X31721712Y-163385710D01*
X31715418Y-163372403D01*
X31710459Y-163358543D01*
X31706882Y-163344264D01*
X31704722Y-163329703D01*
X31704000Y-163315000D01*
X31704000Y-161665000D01*
X31704722Y-161650297D01*
X31706882Y-161635736D01*
X31710459Y-161621457D01*
X31715418Y-161607597D01*
X31721712Y-161594290D01*
X31729280Y-161581664D01*
X31738048Y-161569841D01*
X31747934Y-161558934D01*
X31758841Y-161549048D01*
X31770664Y-161540280D01*
X31783290Y-161532712D01*
X31796597Y-161526418D01*
X31810457Y-161521459D01*
X31824736Y-161517882D01*
X31839297Y-161515722D01*
X31854000Y-161515000D01*
X32154000Y-161515000D01*
X32168703Y-161515722D01*
X32168703Y-161515722D01*
G37*
D24*
%TD*%
%TO.P,U3,2*%
%TO.N,D0*%
X32004000Y-162490000D03*
D16*
%TO.N,D1*%
%TO.C,U3*%
G36*
X33438703Y-161515722D02*
G01*
X33453264Y-161517882D01*
X33467543Y-161521459D01*
X33481403Y-161526418D01*
X33494710Y-161532712D01*
X33507336Y-161540280D01*
X33519159Y-161549048D01*
X33530066Y-161558934D01*
X33539952Y-161569841D01*
X33548720Y-161581664D01*
X33556288Y-161594290D01*
X33562582Y-161607597D01*
X33567541Y-161621457D01*
X33571118Y-161635736D01*
X33573278Y-161650297D01*
X33574000Y-161665000D01*
X33574000Y-163315000D01*
X33573278Y-163329703D01*
X33571118Y-163344264D01*
X33567541Y-163358543D01*
X33562582Y-163372403D01*
X33556288Y-163385710D01*
X33548720Y-163398336D01*
X33539952Y-163410159D01*
X33530066Y-163421066D01*
X33519159Y-163430952D01*
X33507336Y-163439720D01*
X33494710Y-163447288D01*
X33481403Y-163453582D01*
X33467543Y-163458541D01*
X33453264Y-163462118D01*
X33438703Y-163464278D01*
X33424000Y-163465000D01*
X33124000Y-163465000D01*
X33109297Y-163464278D01*
X33094736Y-163462118D01*
X33080457Y-163458541D01*
X33066597Y-163453582D01*
X33053290Y-163447288D01*
X33040664Y-163439720D01*
X33028841Y-163430952D01*
X33017934Y-163421066D01*
X33008048Y-163410159D01*
X32999280Y-163398336D01*
X32991712Y-163385710D01*
X32985418Y-163372403D01*
X32980459Y-163358543D01*
X32976882Y-163344264D01*
X32974722Y-163329703D01*
X32974000Y-163315000D01*
X32974000Y-161665000D01*
X32974722Y-161650297D01*
X32976882Y-161635736D01*
X32980459Y-161621457D01*
X32985418Y-161607597D01*
X32991712Y-161594290D01*
X32999280Y-161581664D01*
X33008048Y-161569841D01*
X33017934Y-161558934D01*
X33028841Y-161549048D01*
X33040664Y-161540280D01*
X33053290Y-161532712D01*
X33066597Y-161526418D01*
X33080457Y-161521459D01*
X33094736Y-161517882D01*
X33109297Y-161515722D01*
X33124000Y-161515000D01*
X33424000Y-161515000D01*
X33438703Y-161515722D01*
X33438703Y-161515722D01*
G37*
D24*
%TD*%
%TO.P,U3,3*%
%TO.N,D1*%
X33274000Y-162490000D03*
D16*
%TO.N,+3V3*%
%TO.C,U3*%
G36*
X34708703Y-161515722D02*
G01*
X34723264Y-161517882D01*
X34737543Y-161521459D01*
X34751403Y-161526418D01*
X34764710Y-161532712D01*
X34777336Y-161540280D01*
X34789159Y-161549048D01*
X34800066Y-161558934D01*
X34809952Y-161569841D01*
X34818720Y-161581664D01*
X34826288Y-161594290D01*
X34832582Y-161607597D01*
X34837541Y-161621457D01*
X34841118Y-161635736D01*
X34843278Y-161650297D01*
X34844000Y-161665000D01*
X34844000Y-163315000D01*
X34843278Y-163329703D01*
X34841118Y-163344264D01*
X34837541Y-163358543D01*
X34832582Y-163372403D01*
X34826288Y-163385710D01*
X34818720Y-163398336D01*
X34809952Y-163410159D01*
X34800066Y-163421066D01*
X34789159Y-163430952D01*
X34777336Y-163439720D01*
X34764710Y-163447288D01*
X34751403Y-163453582D01*
X34737543Y-163458541D01*
X34723264Y-163462118D01*
X34708703Y-163464278D01*
X34694000Y-163465000D01*
X34394000Y-163465000D01*
X34379297Y-163464278D01*
X34364736Y-163462118D01*
X34350457Y-163458541D01*
X34336597Y-163453582D01*
X34323290Y-163447288D01*
X34310664Y-163439720D01*
X34298841Y-163430952D01*
X34287934Y-163421066D01*
X34278048Y-163410159D01*
X34269280Y-163398336D01*
X34261712Y-163385710D01*
X34255418Y-163372403D01*
X34250459Y-163358543D01*
X34246882Y-163344264D01*
X34244722Y-163329703D01*
X34244000Y-163315000D01*
X34244000Y-161665000D01*
X34244722Y-161650297D01*
X34246882Y-161635736D01*
X34250459Y-161621457D01*
X34255418Y-161607597D01*
X34261712Y-161594290D01*
X34269280Y-161581664D01*
X34278048Y-161569841D01*
X34287934Y-161558934D01*
X34298841Y-161549048D01*
X34310664Y-161540280D01*
X34323290Y-161532712D01*
X34336597Y-161526418D01*
X34350457Y-161521459D01*
X34364736Y-161517882D01*
X34379297Y-161515722D01*
X34394000Y-161515000D01*
X34694000Y-161515000D01*
X34708703Y-161515722D01*
X34708703Y-161515722D01*
G37*
D24*
%TD*%
%TO.P,U3,4*%
%TO.N,+3V3*%
X34544000Y-162490000D03*
D16*
%TO.N,D+*%
%TO.C,U3*%
G36*
X35978703Y-161515722D02*
G01*
X35993264Y-161517882D01*
X36007543Y-161521459D01*
X36021403Y-161526418D01*
X36034710Y-161532712D01*
X36047336Y-161540280D01*
X36059159Y-161549048D01*
X36070066Y-161558934D01*
X36079952Y-161569841D01*
X36088720Y-161581664D01*
X36096288Y-161594290D01*
X36102582Y-161607597D01*
X36107541Y-161621457D01*
X36111118Y-161635736D01*
X36113278Y-161650297D01*
X36114000Y-161665000D01*
X36114000Y-163315000D01*
X36113278Y-163329703D01*
X36111118Y-163344264D01*
X36107541Y-163358543D01*
X36102582Y-163372403D01*
X36096288Y-163385710D01*
X36088720Y-163398336D01*
X36079952Y-163410159D01*
X36070066Y-163421066D01*
X36059159Y-163430952D01*
X36047336Y-163439720D01*
X36034710Y-163447288D01*
X36021403Y-163453582D01*
X36007543Y-163458541D01*
X35993264Y-163462118D01*
X35978703Y-163464278D01*
X35964000Y-163465000D01*
X35664000Y-163465000D01*
X35649297Y-163464278D01*
X35634736Y-163462118D01*
X35620457Y-163458541D01*
X35606597Y-163453582D01*
X35593290Y-163447288D01*
X35580664Y-163439720D01*
X35568841Y-163430952D01*
X35557934Y-163421066D01*
X35548048Y-163410159D01*
X35539280Y-163398336D01*
X35531712Y-163385710D01*
X35525418Y-163372403D01*
X35520459Y-163358543D01*
X35516882Y-163344264D01*
X35514722Y-163329703D01*
X35514000Y-163315000D01*
X35514000Y-161665000D01*
X35514722Y-161650297D01*
X35516882Y-161635736D01*
X35520459Y-161621457D01*
X35525418Y-161607597D01*
X35531712Y-161594290D01*
X35539280Y-161581664D01*
X35548048Y-161569841D01*
X35557934Y-161558934D01*
X35568841Y-161549048D01*
X35580664Y-161540280D01*
X35593290Y-161532712D01*
X35606597Y-161526418D01*
X35620457Y-161521459D01*
X35634736Y-161517882D01*
X35649297Y-161515722D01*
X35664000Y-161515000D01*
X35964000Y-161515000D01*
X35978703Y-161515722D01*
X35978703Y-161515722D01*
G37*
D24*
%TD*%
%TO.P,U3,5*%
%TO.N,D+*%
X35814000Y-162490000D03*
D16*
%TO.N,D-*%
%TO.C,U3*%
G36*
X37248703Y-161515722D02*
G01*
X37263264Y-161517882D01*
X37277543Y-161521459D01*
X37291403Y-161526418D01*
X37304710Y-161532712D01*
X37317336Y-161540280D01*
X37329159Y-161549048D01*
X37340066Y-161558934D01*
X37349952Y-161569841D01*
X37358720Y-161581664D01*
X37366288Y-161594290D01*
X37372582Y-161607597D01*
X37377541Y-161621457D01*
X37381118Y-161635736D01*
X37383278Y-161650297D01*
X37384000Y-161665000D01*
X37384000Y-163315000D01*
X37383278Y-163329703D01*
X37381118Y-163344264D01*
X37377541Y-163358543D01*
X37372582Y-163372403D01*
X37366288Y-163385710D01*
X37358720Y-163398336D01*
X37349952Y-163410159D01*
X37340066Y-163421066D01*
X37329159Y-163430952D01*
X37317336Y-163439720D01*
X37304710Y-163447288D01*
X37291403Y-163453582D01*
X37277543Y-163458541D01*
X37263264Y-163462118D01*
X37248703Y-163464278D01*
X37234000Y-163465000D01*
X36934000Y-163465000D01*
X36919297Y-163464278D01*
X36904736Y-163462118D01*
X36890457Y-163458541D01*
X36876597Y-163453582D01*
X36863290Y-163447288D01*
X36850664Y-163439720D01*
X36838841Y-163430952D01*
X36827934Y-163421066D01*
X36818048Y-163410159D01*
X36809280Y-163398336D01*
X36801712Y-163385710D01*
X36795418Y-163372403D01*
X36790459Y-163358543D01*
X36786882Y-163344264D01*
X36784722Y-163329703D01*
X36784000Y-163315000D01*
X36784000Y-161665000D01*
X36784722Y-161650297D01*
X36786882Y-161635736D01*
X36790459Y-161621457D01*
X36795418Y-161607597D01*
X36801712Y-161594290D01*
X36809280Y-161581664D01*
X36818048Y-161569841D01*
X36827934Y-161558934D01*
X36838841Y-161549048D01*
X36850664Y-161540280D01*
X36863290Y-161532712D01*
X36876597Y-161526418D01*
X36890457Y-161521459D01*
X36904736Y-161517882D01*
X36919297Y-161515722D01*
X36934000Y-161515000D01*
X37234000Y-161515000D01*
X37248703Y-161515722D01*
X37248703Y-161515722D01*
G37*
D24*
%TD*%
%TO.P,U3,6*%
%TO.N,D-*%
X37084000Y-162490000D03*
D16*
%TO.N,Net-(C10-Pad1)*%
%TO.C,U3*%
G36*
X38518703Y-161515722D02*
G01*
X38533264Y-161517882D01*
X38547543Y-161521459D01*
X38561403Y-161526418D01*
X38574710Y-161532712D01*
X38587336Y-161540280D01*
X38599159Y-161549048D01*
X38610066Y-161558934D01*
X38619952Y-161569841D01*
X38628720Y-161581664D01*
X38636288Y-161594290D01*
X38642582Y-161607597D01*
X38647541Y-161621457D01*
X38651118Y-161635736D01*
X38653278Y-161650297D01*
X38654000Y-161665000D01*
X38654000Y-163315000D01*
X38653278Y-163329703D01*
X38651118Y-163344264D01*
X38647541Y-163358543D01*
X38642582Y-163372403D01*
X38636288Y-163385710D01*
X38628720Y-163398336D01*
X38619952Y-163410159D01*
X38610066Y-163421066D01*
X38599159Y-163430952D01*
X38587336Y-163439720D01*
X38574710Y-163447288D01*
X38561403Y-163453582D01*
X38547543Y-163458541D01*
X38533264Y-163462118D01*
X38518703Y-163464278D01*
X38504000Y-163465000D01*
X38204000Y-163465000D01*
X38189297Y-163464278D01*
X38174736Y-163462118D01*
X38160457Y-163458541D01*
X38146597Y-163453582D01*
X38133290Y-163447288D01*
X38120664Y-163439720D01*
X38108841Y-163430952D01*
X38097934Y-163421066D01*
X38088048Y-163410159D01*
X38079280Y-163398336D01*
X38071712Y-163385710D01*
X38065418Y-163372403D01*
X38060459Y-163358543D01*
X38056882Y-163344264D01*
X38054722Y-163329703D01*
X38054000Y-163315000D01*
X38054000Y-161665000D01*
X38054722Y-161650297D01*
X38056882Y-161635736D01*
X38060459Y-161621457D01*
X38065418Y-161607597D01*
X38071712Y-161594290D01*
X38079280Y-161581664D01*
X38088048Y-161569841D01*
X38097934Y-161558934D01*
X38108841Y-161549048D01*
X38120664Y-161540280D01*
X38133290Y-161532712D01*
X38146597Y-161526418D01*
X38160457Y-161521459D01*
X38174736Y-161517882D01*
X38189297Y-161515722D01*
X38204000Y-161515000D01*
X38504000Y-161515000D01*
X38518703Y-161515722D01*
X38518703Y-161515722D01*
G37*
D24*
%TD*%
%TO.P,U3,7*%
%TO.N,Net-(C10-Pad1)*%
X38354000Y-162490000D03*
D16*
%TO.N,Net-(C12-Pad2)*%
%TO.C,U3*%
G36*
X39788703Y-161515722D02*
G01*
X39803264Y-161517882D01*
X39817543Y-161521459D01*
X39831403Y-161526418D01*
X39844710Y-161532712D01*
X39857336Y-161540280D01*
X39869159Y-161549048D01*
X39880066Y-161558934D01*
X39889952Y-161569841D01*
X39898720Y-161581664D01*
X39906288Y-161594290D01*
X39912582Y-161607597D01*
X39917541Y-161621457D01*
X39921118Y-161635736D01*
X39923278Y-161650297D01*
X39924000Y-161665000D01*
X39924000Y-163315000D01*
X39923278Y-163329703D01*
X39921118Y-163344264D01*
X39917541Y-163358543D01*
X39912582Y-163372403D01*
X39906288Y-163385710D01*
X39898720Y-163398336D01*
X39889952Y-163410159D01*
X39880066Y-163421066D01*
X39869159Y-163430952D01*
X39857336Y-163439720D01*
X39844710Y-163447288D01*
X39831403Y-163453582D01*
X39817543Y-163458541D01*
X39803264Y-163462118D01*
X39788703Y-163464278D01*
X39774000Y-163465000D01*
X39474000Y-163465000D01*
X39459297Y-163464278D01*
X39444736Y-163462118D01*
X39430457Y-163458541D01*
X39416597Y-163453582D01*
X39403290Y-163447288D01*
X39390664Y-163439720D01*
X39378841Y-163430952D01*
X39367934Y-163421066D01*
X39358048Y-163410159D01*
X39349280Y-163398336D01*
X39341712Y-163385710D01*
X39335418Y-163372403D01*
X39330459Y-163358543D01*
X39326882Y-163344264D01*
X39324722Y-163329703D01*
X39324000Y-163315000D01*
X39324000Y-161665000D01*
X39324722Y-161650297D01*
X39326882Y-161635736D01*
X39330459Y-161621457D01*
X39335418Y-161607597D01*
X39341712Y-161594290D01*
X39349280Y-161581664D01*
X39358048Y-161569841D01*
X39367934Y-161558934D01*
X39378841Y-161549048D01*
X39390664Y-161540280D01*
X39403290Y-161532712D01*
X39416597Y-161526418D01*
X39430457Y-161521459D01*
X39444736Y-161517882D01*
X39459297Y-161515722D01*
X39474000Y-161515000D01*
X39774000Y-161515000D01*
X39788703Y-161515722D01*
X39788703Y-161515722D01*
G37*
D24*
%TD*%
%TO.P,U3,8*%
%TO.N,Net-(C12-Pad2)*%
X39624000Y-162490000D03*
D16*
%TO.N,Net-(U3-Pad9)*%
%TO.C,U3*%
G36*
X39788703Y-156565722D02*
G01*
X39803264Y-156567882D01*
X39817543Y-156571459D01*
X39831403Y-156576418D01*
X39844710Y-156582712D01*
X39857336Y-156590280D01*
X39869159Y-156599048D01*
X39880066Y-156608934D01*
X39889952Y-156619841D01*
X39898720Y-156631664D01*
X39906288Y-156644290D01*
X39912582Y-156657597D01*
X39917541Y-156671457D01*
X39921118Y-156685736D01*
X39923278Y-156700297D01*
X39924000Y-156715000D01*
X39924000Y-158365000D01*
X39923278Y-158379703D01*
X39921118Y-158394264D01*
X39917541Y-158408543D01*
X39912582Y-158422403D01*
X39906288Y-158435710D01*
X39898720Y-158448336D01*
X39889952Y-158460159D01*
X39880066Y-158471066D01*
X39869159Y-158480952D01*
X39857336Y-158489720D01*
X39844710Y-158497288D01*
X39831403Y-158503582D01*
X39817543Y-158508541D01*
X39803264Y-158512118D01*
X39788703Y-158514278D01*
X39774000Y-158515000D01*
X39474000Y-158515000D01*
X39459297Y-158514278D01*
X39444736Y-158512118D01*
X39430457Y-158508541D01*
X39416597Y-158503582D01*
X39403290Y-158497288D01*
X39390664Y-158489720D01*
X39378841Y-158480952D01*
X39367934Y-158471066D01*
X39358048Y-158460159D01*
X39349280Y-158448336D01*
X39341712Y-158435710D01*
X39335418Y-158422403D01*
X39330459Y-158408543D01*
X39326882Y-158394264D01*
X39324722Y-158379703D01*
X39324000Y-158365000D01*
X39324000Y-156715000D01*
X39324722Y-156700297D01*
X39326882Y-156685736D01*
X39330459Y-156671457D01*
X39335418Y-156657597D01*
X39341712Y-156644290D01*
X39349280Y-156631664D01*
X39358048Y-156619841D01*
X39367934Y-156608934D01*
X39378841Y-156599048D01*
X39390664Y-156590280D01*
X39403290Y-156582712D01*
X39416597Y-156576418D01*
X39430457Y-156571459D01*
X39444736Y-156567882D01*
X39459297Y-156565722D01*
X39474000Y-156565000D01*
X39774000Y-156565000D01*
X39788703Y-156565722D01*
X39788703Y-156565722D01*
G37*
D24*
%TD*%
%TO.P,U3,9*%
%TO.N,Net-(U3-Pad9)*%
X39624000Y-157540000D03*
D16*
%TO.N,Net-(U3-Pad10)*%
%TO.C,U3*%
G36*
X38518703Y-156565722D02*
G01*
X38533264Y-156567882D01*
X38547543Y-156571459D01*
X38561403Y-156576418D01*
X38574710Y-156582712D01*
X38587336Y-156590280D01*
X38599159Y-156599048D01*
X38610066Y-156608934D01*
X38619952Y-156619841D01*
X38628720Y-156631664D01*
X38636288Y-156644290D01*
X38642582Y-156657597D01*
X38647541Y-156671457D01*
X38651118Y-156685736D01*
X38653278Y-156700297D01*
X38654000Y-156715000D01*
X38654000Y-158365000D01*
X38653278Y-158379703D01*
X38651118Y-158394264D01*
X38647541Y-158408543D01*
X38642582Y-158422403D01*
X38636288Y-158435710D01*
X38628720Y-158448336D01*
X38619952Y-158460159D01*
X38610066Y-158471066D01*
X38599159Y-158480952D01*
X38587336Y-158489720D01*
X38574710Y-158497288D01*
X38561403Y-158503582D01*
X38547543Y-158508541D01*
X38533264Y-158512118D01*
X38518703Y-158514278D01*
X38504000Y-158515000D01*
X38204000Y-158515000D01*
X38189297Y-158514278D01*
X38174736Y-158512118D01*
X38160457Y-158508541D01*
X38146597Y-158503582D01*
X38133290Y-158497288D01*
X38120664Y-158489720D01*
X38108841Y-158480952D01*
X38097934Y-158471066D01*
X38088048Y-158460159D01*
X38079280Y-158448336D01*
X38071712Y-158435710D01*
X38065418Y-158422403D01*
X38060459Y-158408543D01*
X38056882Y-158394264D01*
X38054722Y-158379703D01*
X38054000Y-158365000D01*
X38054000Y-156715000D01*
X38054722Y-156700297D01*
X38056882Y-156685736D01*
X38060459Y-156671457D01*
X38065418Y-156657597D01*
X38071712Y-156644290D01*
X38079280Y-156631664D01*
X38088048Y-156619841D01*
X38097934Y-156608934D01*
X38108841Y-156599048D01*
X38120664Y-156590280D01*
X38133290Y-156582712D01*
X38146597Y-156576418D01*
X38160457Y-156571459D01*
X38174736Y-156567882D01*
X38189297Y-156565722D01*
X38204000Y-156565000D01*
X38504000Y-156565000D01*
X38518703Y-156565722D01*
X38518703Y-156565722D01*
G37*
D24*
%TD*%
%TO.P,U3,10*%
%TO.N,Net-(U3-Pad10)*%
X38354000Y-157540000D03*
D16*
%TO.N,Net-(U3-Pad11)*%
%TO.C,U3*%
G36*
X37248703Y-156565722D02*
G01*
X37263264Y-156567882D01*
X37277543Y-156571459D01*
X37291403Y-156576418D01*
X37304710Y-156582712D01*
X37317336Y-156590280D01*
X37329159Y-156599048D01*
X37340066Y-156608934D01*
X37349952Y-156619841D01*
X37358720Y-156631664D01*
X37366288Y-156644290D01*
X37372582Y-156657597D01*
X37377541Y-156671457D01*
X37381118Y-156685736D01*
X37383278Y-156700297D01*
X37384000Y-156715000D01*
X37384000Y-158365000D01*
X37383278Y-158379703D01*
X37381118Y-158394264D01*
X37377541Y-158408543D01*
X37372582Y-158422403D01*
X37366288Y-158435710D01*
X37358720Y-158448336D01*
X37349952Y-158460159D01*
X37340066Y-158471066D01*
X37329159Y-158480952D01*
X37317336Y-158489720D01*
X37304710Y-158497288D01*
X37291403Y-158503582D01*
X37277543Y-158508541D01*
X37263264Y-158512118D01*
X37248703Y-158514278D01*
X37234000Y-158515000D01*
X36934000Y-158515000D01*
X36919297Y-158514278D01*
X36904736Y-158512118D01*
X36890457Y-158508541D01*
X36876597Y-158503582D01*
X36863290Y-158497288D01*
X36850664Y-158489720D01*
X36838841Y-158480952D01*
X36827934Y-158471066D01*
X36818048Y-158460159D01*
X36809280Y-158448336D01*
X36801712Y-158435710D01*
X36795418Y-158422403D01*
X36790459Y-158408543D01*
X36786882Y-158394264D01*
X36784722Y-158379703D01*
X36784000Y-158365000D01*
X36784000Y-156715000D01*
X36784722Y-156700297D01*
X36786882Y-156685736D01*
X36790459Y-156671457D01*
X36795418Y-156657597D01*
X36801712Y-156644290D01*
X36809280Y-156631664D01*
X36818048Y-156619841D01*
X36827934Y-156608934D01*
X36838841Y-156599048D01*
X36850664Y-156590280D01*
X36863290Y-156582712D01*
X36876597Y-156576418D01*
X36890457Y-156571459D01*
X36904736Y-156567882D01*
X36919297Y-156565722D01*
X36934000Y-156565000D01*
X37234000Y-156565000D01*
X37248703Y-156565722D01*
X37248703Y-156565722D01*
G37*
D24*
%TD*%
%TO.P,U3,11*%
%TO.N,Net-(U3-Pad11)*%
X37084000Y-157540000D03*
D16*
%TO.N,Net-(U3-Pad12)*%
%TO.C,U3*%
G36*
X35978703Y-156565722D02*
G01*
X35993264Y-156567882D01*
X36007543Y-156571459D01*
X36021403Y-156576418D01*
X36034710Y-156582712D01*
X36047336Y-156590280D01*
X36059159Y-156599048D01*
X36070066Y-156608934D01*
X36079952Y-156619841D01*
X36088720Y-156631664D01*
X36096288Y-156644290D01*
X36102582Y-156657597D01*
X36107541Y-156671457D01*
X36111118Y-156685736D01*
X36113278Y-156700297D01*
X36114000Y-156715000D01*
X36114000Y-158365000D01*
X36113278Y-158379703D01*
X36111118Y-158394264D01*
X36107541Y-158408543D01*
X36102582Y-158422403D01*
X36096288Y-158435710D01*
X36088720Y-158448336D01*
X36079952Y-158460159D01*
X36070066Y-158471066D01*
X36059159Y-158480952D01*
X36047336Y-158489720D01*
X36034710Y-158497288D01*
X36021403Y-158503582D01*
X36007543Y-158508541D01*
X35993264Y-158512118D01*
X35978703Y-158514278D01*
X35964000Y-158515000D01*
X35664000Y-158515000D01*
X35649297Y-158514278D01*
X35634736Y-158512118D01*
X35620457Y-158508541D01*
X35606597Y-158503582D01*
X35593290Y-158497288D01*
X35580664Y-158489720D01*
X35568841Y-158480952D01*
X35557934Y-158471066D01*
X35548048Y-158460159D01*
X35539280Y-158448336D01*
X35531712Y-158435710D01*
X35525418Y-158422403D01*
X35520459Y-158408543D01*
X35516882Y-158394264D01*
X35514722Y-158379703D01*
X35514000Y-158365000D01*
X35514000Y-156715000D01*
X35514722Y-156700297D01*
X35516882Y-156685736D01*
X35520459Y-156671457D01*
X35525418Y-156657597D01*
X35531712Y-156644290D01*
X35539280Y-156631664D01*
X35548048Y-156619841D01*
X35557934Y-156608934D01*
X35568841Y-156599048D01*
X35580664Y-156590280D01*
X35593290Y-156582712D01*
X35606597Y-156576418D01*
X35620457Y-156571459D01*
X35634736Y-156567882D01*
X35649297Y-156565722D01*
X35664000Y-156565000D01*
X35964000Y-156565000D01*
X35978703Y-156565722D01*
X35978703Y-156565722D01*
G37*
D24*
%TD*%
%TO.P,U3,12*%
%TO.N,Net-(U3-Pad12)*%
X35814000Y-157540000D03*
D16*
%TO.N,Net-(C8-Pad2)*%
%TO.C,U3*%
G36*
X34708703Y-156565722D02*
G01*
X34723264Y-156567882D01*
X34737543Y-156571459D01*
X34751403Y-156576418D01*
X34764710Y-156582712D01*
X34777336Y-156590280D01*
X34789159Y-156599048D01*
X34800066Y-156608934D01*
X34809952Y-156619841D01*
X34818720Y-156631664D01*
X34826288Y-156644290D01*
X34832582Y-156657597D01*
X34837541Y-156671457D01*
X34841118Y-156685736D01*
X34843278Y-156700297D01*
X34844000Y-156715000D01*
X34844000Y-158365000D01*
X34843278Y-158379703D01*
X34841118Y-158394264D01*
X34837541Y-158408543D01*
X34832582Y-158422403D01*
X34826288Y-158435710D01*
X34818720Y-158448336D01*
X34809952Y-158460159D01*
X34800066Y-158471066D01*
X34789159Y-158480952D01*
X34777336Y-158489720D01*
X34764710Y-158497288D01*
X34751403Y-158503582D01*
X34737543Y-158508541D01*
X34723264Y-158512118D01*
X34708703Y-158514278D01*
X34694000Y-158515000D01*
X34394000Y-158515000D01*
X34379297Y-158514278D01*
X34364736Y-158512118D01*
X34350457Y-158508541D01*
X34336597Y-158503582D01*
X34323290Y-158497288D01*
X34310664Y-158489720D01*
X34298841Y-158480952D01*
X34287934Y-158471066D01*
X34278048Y-158460159D01*
X34269280Y-158448336D01*
X34261712Y-158435710D01*
X34255418Y-158422403D01*
X34250459Y-158408543D01*
X34246882Y-158394264D01*
X34244722Y-158379703D01*
X34244000Y-158365000D01*
X34244000Y-156715000D01*
X34244722Y-156700297D01*
X34246882Y-156685736D01*
X34250459Y-156671457D01*
X34255418Y-156657597D01*
X34261712Y-156644290D01*
X34269280Y-156631664D01*
X34278048Y-156619841D01*
X34287934Y-156608934D01*
X34298841Y-156599048D01*
X34310664Y-156590280D01*
X34323290Y-156582712D01*
X34336597Y-156576418D01*
X34350457Y-156571459D01*
X34364736Y-156567882D01*
X34379297Y-156565722D01*
X34394000Y-156565000D01*
X34694000Y-156565000D01*
X34708703Y-156565722D01*
X34708703Y-156565722D01*
G37*
D24*
%TD*%
%TO.P,U3,13*%
%TO.N,Net-(C8-Pad2)*%
X34544000Y-157540000D03*
D16*
%TO.N,Net-(U3-Pad14)*%
%TO.C,U3*%
G36*
X33438703Y-156565722D02*
G01*
X33453264Y-156567882D01*
X33467543Y-156571459D01*
X33481403Y-156576418D01*
X33494710Y-156582712D01*
X33507336Y-156590280D01*
X33519159Y-156599048D01*
X33530066Y-156608934D01*
X33539952Y-156619841D01*
X33548720Y-156631664D01*
X33556288Y-156644290D01*
X33562582Y-156657597D01*
X33567541Y-156671457D01*
X33571118Y-156685736D01*
X33573278Y-156700297D01*
X33574000Y-156715000D01*
X33574000Y-158365000D01*
X33573278Y-158379703D01*
X33571118Y-158394264D01*
X33567541Y-158408543D01*
X33562582Y-158422403D01*
X33556288Y-158435710D01*
X33548720Y-158448336D01*
X33539952Y-158460159D01*
X33530066Y-158471066D01*
X33519159Y-158480952D01*
X33507336Y-158489720D01*
X33494710Y-158497288D01*
X33481403Y-158503582D01*
X33467543Y-158508541D01*
X33453264Y-158512118D01*
X33438703Y-158514278D01*
X33424000Y-158515000D01*
X33124000Y-158515000D01*
X33109297Y-158514278D01*
X33094736Y-158512118D01*
X33080457Y-158508541D01*
X33066597Y-158503582D01*
X33053290Y-158497288D01*
X33040664Y-158489720D01*
X33028841Y-158480952D01*
X33017934Y-158471066D01*
X33008048Y-158460159D01*
X32999280Y-158448336D01*
X32991712Y-158435710D01*
X32985418Y-158422403D01*
X32980459Y-158408543D01*
X32976882Y-158394264D01*
X32974722Y-158379703D01*
X32974000Y-158365000D01*
X32974000Y-156715000D01*
X32974722Y-156700297D01*
X32976882Y-156685736D01*
X32980459Y-156671457D01*
X32985418Y-156657597D01*
X32991712Y-156644290D01*
X32999280Y-156631664D01*
X33008048Y-156619841D01*
X33017934Y-156608934D01*
X33028841Y-156599048D01*
X33040664Y-156590280D01*
X33053290Y-156582712D01*
X33066597Y-156576418D01*
X33080457Y-156571459D01*
X33094736Y-156567882D01*
X33109297Y-156565722D01*
X33124000Y-156565000D01*
X33424000Y-156565000D01*
X33438703Y-156565722D01*
X33438703Y-156565722D01*
G37*
D24*
%TD*%
%TO.P,U3,14*%
%TO.N,Net-(U3-Pad14)*%
X33274000Y-157540000D03*
D16*
%TO.N,Net-(U3-Pad15)*%
%TO.C,U3*%
G36*
X32168703Y-156565722D02*
G01*
X32183264Y-156567882D01*
X32197543Y-156571459D01*
X32211403Y-156576418D01*
X32224710Y-156582712D01*
X32237336Y-156590280D01*
X32249159Y-156599048D01*
X32260066Y-156608934D01*
X32269952Y-156619841D01*
X32278720Y-156631664D01*
X32286288Y-156644290D01*
X32292582Y-156657597D01*
X32297541Y-156671457D01*
X32301118Y-156685736D01*
X32303278Y-156700297D01*
X32304000Y-156715000D01*
X32304000Y-158365000D01*
X32303278Y-158379703D01*
X32301118Y-158394264D01*
X32297541Y-158408543D01*
X32292582Y-158422403D01*
X32286288Y-158435710D01*
X32278720Y-158448336D01*
X32269952Y-158460159D01*
X32260066Y-158471066D01*
X32249159Y-158480952D01*
X32237336Y-158489720D01*
X32224710Y-158497288D01*
X32211403Y-158503582D01*
X32197543Y-158508541D01*
X32183264Y-158512118D01*
X32168703Y-158514278D01*
X32154000Y-158515000D01*
X31854000Y-158515000D01*
X31839297Y-158514278D01*
X31824736Y-158512118D01*
X31810457Y-158508541D01*
X31796597Y-158503582D01*
X31783290Y-158497288D01*
X31770664Y-158489720D01*
X31758841Y-158480952D01*
X31747934Y-158471066D01*
X31738048Y-158460159D01*
X31729280Y-158448336D01*
X31721712Y-158435710D01*
X31715418Y-158422403D01*
X31710459Y-158408543D01*
X31706882Y-158394264D01*
X31704722Y-158379703D01*
X31704000Y-158365000D01*
X31704000Y-156715000D01*
X31704722Y-156700297D01*
X31706882Y-156685736D01*
X31710459Y-156671457D01*
X31715418Y-156657597D01*
X31721712Y-156644290D01*
X31729280Y-156631664D01*
X31738048Y-156619841D01*
X31747934Y-156608934D01*
X31758841Y-156599048D01*
X31770664Y-156590280D01*
X31783290Y-156582712D01*
X31796597Y-156576418D01*
X31810457Y-156571459D01*
X31824736Y-156567882D01*
X31839297Y-156565722D01*
X31854000Y-156565000D01*
X32154000Y-156565000D01*
X32168703Y-156565722D01*
X32168703Y-156565722D01*
G37*
D24*
%TD*%
%TO.P,U3,15*%
%TO.N,Net-(U3-Pad15)*%
X32004000Y-157540000D03*
D16*
%TO.N,+5V*%
%TO.C,U3*%
G36*
X30898703Y-156565722D02*
G01*
X30913264Y-156567882D01*
X30927543Y-156571459D01*
X30941403Y-156576418D01*
X30954710Y-156582712D01*
X30967336Y-156590280D01*
X30979159Y-156599048D01*
X30990066Y-156608934D01*
X30999952Y-156619841D01*
X31008720Y-156631664D01*
X31016288Y-156644290D01*
X31022582Y-156657597D01*
X31027541Y-156671457D01*
X31031118Y-156685736D01*
X31033278Y-156700297D01*
X31034000Y-156715000D01*
X31034000Y-158365000D01*
X31033278Y-158379703D01*
X31031118Y-158394264D01*
X31027541Y-158408543D01*
X31022582Y-158422403D01*
X31016288Y-158435710D01*
X31008720Y-158448336D01*
X30999952Y-158460159D01*
X30990066Y-158471066D01*
X30979159Y-158480952D01*
X30967336Y-158489720D01*
X30954710Y-158497288D01*
X30941403Y-158503582D01*
X30927543Y-158508541D01*
X30913264Y-158512118D01*
X30898703Y-158514278D01*
X30884000Y-158515000D01*
X30584000Y-158515000D01*
X30569297Y-158514278D01*
X30554736Y-158512118D01*
X30540457Y-158508541D01*
X30526597Y-158503582D01*
X30513290Y-158497288D01*
X30500664Y-158489720D01*
X30488841Y-158480952D01*
X30477934Y-158471066D01*
X30468048Y-158460159D01*
X30459280Y-158448336D01*
X30451712Y-158435710D01*
X30445418Y-158422403D01*
X30440459Y-158408543D01*
X30436882Y-158394264D01*
X30434722Y-158379703D01*
X30434000Y-158365000D01*
X30434000Y-156715000D01*
X30434722Y-156700297D01*
X30436882Y-156685736D01*
X30440459Y-156671457D01*
X30445418Y-156657597D01*
X30451712Y-156644290D01*
X30459280Y-156631664D01*
X30468048Y-156619841D01*
X30477934Y-156608934D01*
X30488841Y-156599048D01*
X30500664Y-156590280D01*
X30513290Y-156582712D01*
X30526597Y-156576418D01*
X30540457Y-156571459D01*
X30554736Y-156567882D01*
X30569297Y-156565722D01*
X30584000Y-156565000D01*
X30884000Y-156565000D01*
X30898703Y-156565722D01*
X30898703Y-156565722D01*
G37*
D24*
%TD*%
%TO.P,U3,16*%
%TO.N,+5V*%
X30734000Y-157540000D03*
D25*
%TO.P,U4,1*%
%TO.N,D3*%
X54365305Y-170085103D03*
D16*
%TD*%
%TO.N,D3*%
%TO.C,U4*%
G36*
X55125445Y-170456334D02*
G01*
X54736536Y-170845243D01*
X53605165Y-169713872D01*
X53994074Y-169324963D01*
X55125445Y-170456334D01*
X55125445Y-170456334D01*
G37*
D25*
%TO.P,U4,2*%
%TO.N,D4*%
X54930990Y-169519417D03*
D16*
%TD*%
%TO.N,D4*%
%TO.C,U4*%
G36*
X55691130Y-169890648D02*
G01*
X55302221Y-170279557D01*
X54170850Y-169148186D01*
X54559759Y-168759277D01*
X55691130Y-169890648D01*
X55691130Y-169890648D01*
G37*
D25*
%TO.P,U4,3*%
%TO.N,GNDREF*%
X55496676Y-168953732D03*
D16*
%TD*%
%TO.N,GNDREF*%
%TO.C,U4*%
G36*
X56256816Y-169324963D02*
G01*
X55867907Y-169713872D01*
X54736536Y-168582501D01*
X55125445Y-168193592D01*
X56256816Y-169324963D01*
X56256816Y-169324963D01*
G37*
D25*
%TO.P,U4,4*%
%TO.N,+5V*%
X56062361Y-168388047D03*
D16*
%TD*%
%TO.N,+5V*%
%TO.C,U4*%
G36*
X56822501Y-168759278D02*
G01*
X56433592Y-169148187D01*
X55302221Y-168016816D01*
X55691130Y-167627907D01*
X56822501Y-168759278D01*
X56822501Y-168759278D01*
G37*
D25*
%TO.P,U4,5*%
%TO.N,GNDREF*%
X56628047Y-167822361D03*
D16*
%TD*%
%TO.N,GNDREF*%
%TO.C,U4*%
G36*
X57388187Y-168193592D02*
G01*
X56999278Y-168582501D01*
X55867907Y-167451130D01*
X56256816Y-167062221D01*
X57388187Y-168193592D01*
X57388187Y-168193592D01*
G37*
D25*
%TO.P,U4,6*%
%TO.N,+5V*%
X57193732Y-167256676D03*
D16*
%TD*%
%TO.N,+5V*%
%TO.C,U4*%
G36*
X57953872Y-167627907D02*
G01*
X57564963Y-168016816D01*
X56433592Y-166885445D01*
X56822501Y-166496536D01*
X57953872Y-167627907D01*
X57953872Y-167627907D01*
G37*
D25*
%TO.P,U4,7*%
%TO.N,Net-(C9-Pad1)*%
X57759417Y-166690990D03*
D16*
%TD*%
%TO.N,Net-(C9-Pad1)*%
%TO.C,U4*%
G36*
X58519557Y-167062221D02*
G01*
X58130648Y-167451130D01*
X56999277Y-166319759D01*
X57388186Y-165930850D01*
X58519557Y-167062221D01*
X58519557Y-167062221D01*
G37*
D25*
%TO.P,U4,8*%
%TO.N,Net-(C11-Pad2)*%
X58325103Y-166125305D03*
D16*
%TD*%
%TO.N,Net-(C11-Pad2)*%
%TO.C,U4*%
G36*
X59085243Y-166496536D02*
G01*
X58696334Y-166885445D01*
X57564963Y-165754074D01*
X57953872Y-165365165D01*
X59085243Y-166496536D01*
X59085243Y-166496536D01*
G37*
D25*
%TO.P,U4,9*%
%TO.N,D5*%
X58325103Y-164074695D03*
D16*
%TD*%
%TO.N,D5*%
%TO.C,U4*%
G36*
X58696334Y-163314555D02*
G01*
X59085243Y-163703464D01*
X57953872Y-164834835D01*
X57564963Y-164445926D01*
X58696334Y-163314555D01*
X58696334Y-163314555D01*
G37*
D25*
%TO.P,U4,10*%
%TO.N,D6*%
X57759417Y-163509010D03*
D16*
%TD*%
%TO.N,D6*%
%TO.C,U4*%
G36*
X58130648Y-162748870D02*
G01*
X58519557Y-163137779D01*
X57388186Y-164269150D01*
X56999277Y-163880241D01*
X58130648Y-162748870D01*
X58130648Y-162748870D01*
G37*
D25*
%TO.P,U4,11*%
%TO.N,D7*%
X57193732Y-162943324D03*
D16*
%TD*%
%TO.N,D7*%
%TO.C,U4*%
G36*
X57564963Y-162183184D02*
G01*
X57953872Y-162572093D01*
X56822501Y-163703464D01*
X56433592Y-163314555D01*
X57564963Y-162183184D01*
X57564963Y-162183184D01*
G37*
D25*
%TO.P,U4,12*%
%TO.N,D8*%
X56628047Y-162377639D03*
D16*
%TD*%
%TO.N,D8*%
%TO.C,U4*%
G36*
X56999278Y-161617499D02*
G01*
X57388187Y-162006408D01*
X56256816Y-163137779D01*
X55867907Y-162748870D01*
X56999278Y-161617499D01*
X56999278Y-161617499D01*
G37*
D25*
%TO.P,U4,13*%
%TO.N,D9*%
X56062361Y-161811953D03*
D16*
%TD*%
%TO.N,D9*%
%TO.C,U4*%
G36*
X56433592Y-161051813D02*
G01*
X56822501Y-161440722D01*
X55691130Y-162572093D01*
X55302221Y-162183184D01*
X56433592Y-161051813D01*
X56433592Y-161051813D01*
G37*
D25*
%TO.P,U4,14*%
%TO.N,D10*%
X55496676Y-161246268D03*
D16*
%TD*%
%TO.N,D10*%
%TO.C,U4*%
G36*
X55867907Y-160486128D02*
G01*
X56256816Y-160875037D01*
X55125445Y-162006408D01*
X54736536Y-161617499D01*
X55867907Y-160486128D01*
X55867907Y-160486128D01*
G37*
D25*
%TO.P,U4,15*%
%TO.N,D11*%
X54930990Y-160680583D03*
D16*
%TD*%
%TO.N,D11*%
%TO.C,U4*%
G36*
X55302221Y-159920443D02*
G01*
X55691130Y-160309352D01*
X54559759Y-161440723D01*
X54170850Y-161051814D01*
X55302221Y-159920443D01*
X55302221Y-159920443D01*
G37*
D25*
%TO.P,U4,16*%
%TO.N,D12*%
X54365305Y-160114897D03*
D16*
%TD*%
%TO.N,D12*%
%TO.C,U4*%
G36*
X54736536Y-159354757D02*
G01*
X55125445Y-159743666D01*
X53994074Y-160875037D01*
X53605165Y-160486128D01*
X54736536Y-159354757D01*
X54736536Y-159354757D01*
G37*
D25*
%TO.P,U4,17*%
%TO.N,D13*%
X52314695Y-160114897D03*
D16*
%TD*%
%TO.N,D13*%
%TO.C,U4*%
G36*
X53074835Y-160486128D02*
G01*
X52685926Y-160875037D01*
X51554555Y-159743666D01*
X51943464Y-159354757D01*
X53074835Y-160486128D01*
X53074835Y-160486128D01*
G37*
D25*
%TO.P,U4,18*%
%TO.N,+5V*%
X51749010Y-160680583D03*
D16*
%TD*%
%TO.N,+5V*%
%TO.C,U4*%
G36*
X52509150Y-161051814D02*
G01*
X52120241Y-161440723D01*
X50988870Y-160309352D01*
X51377779Y-159920443D01*
X52509150Y-161051814D01*
X52509150Y-161051814D01*
G37*
D25*
%TO.P,U4,19*%
%TO.N,Net-(U4-Pad19)*%
X51183324Y-161246268D03*
D16*
%TD*%
%TO.N,Net-(U4-Pad19)*%
%TO.C,U4*%
G36*
X51943464Y-161617499D02*
G01*
X51554555Y-162006408D01*
X50423184Y-160875037D01*
X50812093Y-160486128D01*
X51943464Y-161617499D01*
X51943464Y-161617499D01*
G37*
D25*
%TO.P,U4,20*%
%TO.N,AREF*%
X50617639Y-161811953D03*
D16*
%TD*%
%TO.N,AREF*%
%TO.C,U4*%
G36*
X51377779Y-162183184D02*
G01*
X50988870Y-162572093D01*
X49857499Y-161440722D01*
X50246408Y-161051813D01*
X51377779Y-162183184D01*
X51377779Y-162183184D01*
G37*
D25*
%TO.P,U4,21*%
%TO.N,GNDREF*%
X50051953Y-162377639D03*
D16*
%TD*%
%TO.N,GNDREF*%
%TO.C,U4*%
G36*
X50812093Y-162748870D02*
G01*
X50423184Y-163137779D01*
X49291813Y-162006408D01*
X49680722Y-161617499D01*
X50812093Y-162748870D01*
X50812093Y-162748870D01*
G37*
D25*
%TO.P,U4,22*%
%TO.N,Net-(U4-Pad22)*%
X49486268Y-162943324D03*
D16*
%TD*%
%TO.N,Net-(U4-Pad22)*%
%TO.C,U4*%
G36*
X50246408Y-163314555D02*
G01*
X49857499Y-163703464D01*
X48726128Y-162572093D01*
X49115037Y-162183184D01*
X50246408Y-163314555D01*
X50246408Y-163314555D01*
G37*
D25*
%TO.P,U4,23*%
%TO.N,AD0*%
X48920583Y-163509010D03*
D16*
%TD*%
%TO.N,AD0*%
%TO.C,U4*%
G36*
X49680723Y-163880241D02*
G01*
X49291814Y-164269150D01*
X48160443Y-163137779D01*
X48549352Y-162748870D01*
X49680723Y-163880241D01*
X49680723Y-163880241D01*
G37*
D25*
%TO.P,U4,24*%
%TO.N,AD1*%
X48354897Y-164074695D03*
D16*
%TD*%
%TO.N,AD1*%
%TO.C,U4*%
G36*
X49115037Y-164445926D02*
G01*
X48726128Y-164834835D01*
X47594757Y-163703464D01*
X47983666Y-163314555D01*
X49115037Y-164445926D01*
X49115037Y-164445926D01*
G37*
D25*
%TO.P,U4,25*%
%TO.N,AD2*%
X48354897Y-166125305D03*
D16*
%TD*%
%TO.N,AD2*%
%TO.C,U4*%
G36*
X48726128Y-165365165D02*
G01*
X49115037Y-165754074D01*
X47983666Y-166885445D01*
X47594757Y-166496536D01*
X48726128Y-165365165D01*
X48726128Y-165365165D01*
G37*
D25*
%TO.P,U4,26*%
%TO.N,AD3*%
X48920583Y-166690990D03*
D16*
%TD*%
%TO.N,AD3*%
%TO.C,U4*%
G36*
X49291814Y-165930850D02*
G01*
X49680723Y-166319759D01*
X48549352Y-167451130D01*
X48160443Y-167062221D01*
X49291814Y-165930850D01*
X49291814Y-165930850D01*
G37*
D25*
%TO.P,U4,27*%
%TO.N,AD4_SDA*%
X49486268Y-167256676D03*
D16*
%TD*%
%TO.N,AD4_SDA*%
%TO.C,U4*%
G36*
X49857499Y-166496536D02*
G01*
X50246408Y-166885445D01*
X49115037Y-168016816D01*
X48726128Y-167627907D01*
X49857499Y-166496536D01*
X49857499Y-166496536D01*
G37*
D25*
%TO.P,U4,28*%
%TO.N,AD5_SCL*%
X50051953Y-167822361D03*
D16*
%TD*%
%TO.N,AD5_SCL*%
%TO.C,U4*%
G36*
X50423184Y-167062221D02*
G01*
X50812093Y-167451130D01*
X49680722Y-168582501D01*
X49291813Y-168193592D01*
X50423184Y-167062221D01*
X50423184Y-167062221D01*
G37*
D25*
%TO.P,U4,29*%
%TO.N,RST*%
X50617639Y-168388047D03*
D16*
%TD*%
%TO.N,RST*%
%TO.C,U4*%
G36*
X50988870Y-167627907D02*
G01*
X51377779Y-168016816D01*
X50246408Y-169148187D01*
X49857499Y-168759278D01*
X50988870Y-167627907D01*
X50988870Y-167627907D01*
G37*
D25*
%TO.P,U4,30*%
%TO.N,D0*%
X51183324Y-168953732D03*
D16*
%TD*%
%TO.N,D0*%
%TO.C,U4*%
G36*
X51554555Y-168193592D02*
G01*
X51943464Y-168582501D01*
X50812093Y-169713872D01*
X50423184Y-169324963D01*
X51554555Y-168193592D01*
X51554555Y-168193592D01*
G37*
D25*
%TO.P,U4,31*%
%TO.N,D1*%
X51749010Y-169519417D03*
D16*
%TD*%
%TO.N,D1*%
%TO.C,U4*%
G36*
X52120241Y-168759277D02*
G01*
X52509150Y-169148186D01*
X51377779Y-170279557D01*
X50988870Y-169890648D01*
X52120241Y-168759277D01*
X52120241Y-168759277D01*
G37*
D25*
%TO.P,U4,32*%
%TO.N,D2*%
X52314695Y-170085103D03*
D16*
%TD*%
%TO.N,D2*%
%TO.C,U4*%
G36*
X52685926Y-169324963D02*
G01*
X53074835Y-169713872D01*
X51943464Y-170845243D01*
X51554555Y-170456334D01*
X52685926Y-169324963D01*
X52685926Y-169324963D01*
G37*
%TO.N,Net-(D13-Pad1)*%
%TO.C,D13*%
G36*
X26341105Y-155341204D02*
G01*
X26365373Y-155344804D01*
X26389172Y-155350765D01*
X26412271Y-155359030D01*
X26434450Y-155369520D01*
X26455493Y-155382132D01*
X26475199Y-155396747D01*
X26493377Y-155413223D01*
X26509853Y-155431401D01*
X26524468Y-155451107D01*
X26537080Y-155472150D01*
X26547570Y-155494329D01*
X26555835Y-155517428D01*
X26561796Y-155541227D01*
X26565396Y-155565495D01*
X26566600Y-155589999D01*
X26566600Y-156490001D01*
X26565396Y-156514505D01*
X26561796Y-156538773D01*
X26555835Y-156562572D01*
X26547570Y-156585671D01*
X26537080Y-156607850D01*
X26524468Y-156628893D01*
X26509853Y-156648599D01*
X26493377Y-156666777D01*
X26475199Y-156683253D01*
X26455493Y-156697868D01*
X26434450Y-156710480D01*
X26412271Y-156720970D01*
X26389172Y-156729235D01*
X26365373Y-156735196D01*
X26341105Y-156738796D01*
X26316601Y-156740000D01*
X25666599Y-156740000D01*
X25642095Y-156738796D01*
X25617827Y-156735196D01*
X25594028Y-156729235D01*
X25570929Y-156720970D01*
X25548750Y-156710480D01*
X25527707Y-156697868D01*
X25508001Y-156683253D01*
X25489823Y-156666777D01*
X25473347Y-156648599D01*
X25458732Y-156628893D01*
X25446120Y-156607850D01*
X25435630Y-156585671D01*
X25427365Y-156562572D01*
X25421404Y-156538773D01*
X25417804Y-156514505D01*
X25416600Y-156490001D01*
X25416600Y-155589999D01*
X25417804Y-155565495D01*
X25421404Y-155541227D01*
X25427365Y-155517428D01*
X25435630Y-155494329D01*
X25446120Y-155472150D01*
X25458732Y-155451107D01*
X25473347Y-155431401D01*
X25489823Y-155413223D01*
X25508001Y-155396747D01*
X25527707Y-155382132D01*
X25548750Y-155369520D01*
X25570929Y-155359030D01*
X25594028Y-155350765D01*
X25617827Y-155344804D01*
X25642095Y-155341204D01*
X25666599Y-155340000D01*
X26316601Y-155340000D01*
X26341105Y-155341204D01*
X26341105Y-155341204D01*
G37*
D17*
%TD*%
%TO.P,D13,1*%
%TO.N,Net-(D13-Pad1)*%
X25991600Y-156040000D03*
D16*
%TO.N,D13*%
%TO.C,D13*%
G36*
X28391105Y-155341204D02*
G01*
X28415373Y-155344804D01*
X28439172Y-155350765D01*
X28462271Y-155359030D01*
X28484450Y-155369520D01*
X28505493Y-155382132D01*
X28525199Y-155396747D01*
X28543377Y-155413223D01*
X28559853Y-155431401D01*
X28574468Y-155451107D01*
X28587080Y-155472150D01*
X28597570Y-155494329D01*
X28605835Y-155517428D01*
X28611796Y-155541227D01*
X28615396Y-155565495D01*
X28616600Y-155589999D01*
X28616600Y-156490001D01*
X28615396Y-156514505D01*
X28611796Y-156538773D01*
X28605835Y-156562572D01*
X28597570Y-156585671D01*
X28587080Y-156607850D01*
X28574468Y-156628893D01*
X28559853Y-156648599D01*
X28543377Y-156666777D01*
X28525199Y-156683253D01*
X28505493Y-156697868D01*
X28484450Y-156710480D01*
X28462271Y-156720970D01*
X28439172Y-156729235D01*
X28415373Y-156735196D01*
X28391105Y-156738796D01*
X28366601Y-156740000D01*
X27716599Y-156740000D01*
X27692095Y-156738796D01*
X27667827Y-156735196D01*
X27644028Y-156729235D01*
X27620929Y-156720970D01*
X27598750Y-156710480D01*
X27577707Y-156697868D01*
X27558001Y-156683253D01*
X27539823Y-156666777D01*
X27523347Y-156648599D01*
X27508732Y-156628893D01*
X27496120Y-156607850D01*
X27485630Y-156585671D01*
X27477365Y-156562572D01*
X27471404Y-156538773D01*
X27467804Y-156514505D01*
X27466600Y-156490001D01*
X27466600Y-155589999D01*
X27467804Y-155565495D01*
X27471404Y-155541227D01*
X27477365Y-155517428D01*
X27485630Y-155494329D01*
X27496120Y-155472150D01*
X27508732Y-155451107D01*
X27523347Y-155431401D01*
X27539823Y-155413223D01*
X27558001Y-155396747D01*
X27577707Y-155382132D01*
X27598750Y-155369520D01*
X27620929Y-155359030D01*
X27644028Y-155350765D01*
X27667827Y-155344804D01*
X27692095Y-155341204D01*
X27716599Y-155340000D01*
X28366601Y-155340000D01*
X28391105Y-155341204D01*
X28391105Y-155341204D01*
G37*
D17*
%TD*%
%TO.P,D13,2*%
%TO.N,D13*%
X28041600Y-156040000D03*
D16*
%TO.N,Net-(PWR1-Pad1)*%
%TO.C,PWR1*%
G36*
X26315705Y-152841204D02*
G01*
X26339973Y-152844804D01*
X26363772Y-152850765D01*
X26386871Y-152859030D01*
X26409050Y-152869520D01*
X26430093Y-152882132D01*
X26449799Y-152896747D01*
X26467977Y-152913223D01*
X26484453Y-152931401D01*
X26499068Y-152951107D01*
X26511680Y-152972150D01*
X26522170Y-152994329D01*
X26530435Y-153017428D01*
X26536396Y-153041227D01*
X26539996Y-153065495D01*
X26541200Y-153089999D01*
X26541200Y-153990001D01*
X26539996Y-154014505D01*
X26536396Y-154038773D01*
X26530435Y-154062572D01*
X26522170Y-154085671D01*
X26511680Y-154107850D01*
X26499068Y-154128893D01*
X26484453Y-154148599D01*
X26467977Y-154166777D01*
X26449799Y-154183253D01*
X26430093Y-154197868D01*
X26409050Y-154210480D01*
X26386871Y-154220970D01*
X26363772Y-154229235D01*
X26339973Y-154235196D01*
X26315705Y-154238796D01*
X26291201Y-154240000D01*
X25641199Y-154240000D01*
X25616695Y-154238796D01*
X25592427Y-154235196D01*
X25568628Y-154229235D01*
X25545529Y-154220970D01*
X25523350Y-154210480D01*
X25502307Y-154197868D01*
X25482601Y-154183253D01*
X25464423Y-154166777D01*
X25447947Y-154148599D01*
X25433332Y-154128893D01*
X25420720Y-154107850D01*
X25410230Y-154085671D01*
X25401965Y-154062572D01*
X25396004Y-154038773D01*
X25392404Y-154014505D01*
X25391200Y-153990001D01*
X25391200Y-153089999D01*
X25392404Y-153065495D01*
X25396004Y-153041227D01*
X25401965Y-153017428D01*
X25410230Y-152994329D01*
X25420720Y-152972150D01*
X25433332Y-152951107D01*
X25447947Y-152931401D01*
X25464423Y-152913223D01*
X25482601Y-152896747D01*
X25502307Y-152882132D01*
X25523350Y-152869520D01*
X25545529Y-152859030D01*
X25568628Y-152850765D01*
X25592427Y-152844804D01*
X25616695Y-152841204D01*
X25641199Y-152840000D01*
X26291201Y-152840000D01*
X26315705Y-152841204D01*
X26315705Y-152841204D01*
G37*
D17*
%TD*%
%TO.P,PWR1,1*%
%TO.N,Net-(PWR1-Pad1)*%
X25966200Y-153540000D03*
D16*
%TO.N,+5V*%
%TO.C,PWR1*%
G36*
X28365705Y-152841204D02*
G01*
X28389973Y-152844804D01*
X28413772Y-152850765D01*
X28436871Y-152859030D01*
X28459050Y-152869520D01*
X28480093Y-152882132D01*
X28499799Y-152896747D01*
X28517977Y-152913223D01*
X28534453Y-152931401D01*
X28549068Y-152951107D01*
X28561680Y-152972150D01*
X28572170Y-152994329D01*
X28580435Y-153017428D01*
X28586396Y-153041227D01*
X28589996Y-153065495D01*
X28591200Y-153089999D01*
X28591200Y-153990001D01*
X28589996Y-154014505D01*
X28586396Y-154038773D01*
X28580435Y-154062572D01*
X28572170Y-154085671D01*
X28561680Y-154107850D01*
X28549068Y-154128893D01*
X28534453Y-154148599D01*
X28517977Y-154166777D01*
X28499799Y-154183253D01*
X28480093Y-154197868D01*
X28459050Y-154210480D01*
X28436871Y-154220970D01*
X28413772Y-154229235D01*
X28389973Y-154235196D01*
X28365705Y-154238796D01*
X28341201Y-154240000D01*
X27691199Y-154240000D01*
X27666695Y-154238796D01*
X27642427Y-154235196D01*
X27618628Y-154229235D01*
X27595529Y-154220970D01*
X27573350Y-154210480D01*
X27552307Y-154197868D01*
X27532601Y-154183253D01*
X27514423Y-154166777D01*
X27497947Y-154148599D01*
X27483332Y-154128893D01*
X27470720Y-154107850D01*
X27460230Y-154085671D01*
X27451965Y-154062572D01*
X27446004Y-154038773D01*
X27442404Y-154014505D01*
X27441200Y-153990001D01*
X27441200Y-153089999D01*
X27442404Y-153065495D01*
X27446004Y-153041227D01*
X27451965Y-153017428D01*
X27460230Y-152994329D01*
X27470720Y-152972150D01*
X27483332Y-152951107D01*
X27497947Y-152931401D01*
X27514423Y-152913223D01*
X27532601Y-152896747D01*
X27552307Y-152882132D01*
X27573350Y-152869520D01*
X27595529Y-152859030D01*
X27618628Y-152850765D01*
X27642427Y-152844804D01*
X27666695Y-152841204D01*
X27691199Y-152840000D01*
X28341201Y-152840000D01*
X28365705Y-152841204D01*
X28365705Y-152841204D01*
G37*
D17*
%TD*%
%TO.P,PWR1,2*%
%TO.N,+5V*%
X28016200Y-153540000D03*
D16*
%TO.N,GNDREF*%
%TO.C,C7*%
G36*
X31208505Y-152443204D02*
G01*
X31232773Y-152446804D01*
X31256572Y-152452765D01*
X31279671Y-152461030D01*
X31301850Y-152471520D01*
X31322893Y-152484132D01*
X31342599Y-152498747D01*
X31360777Y-152515223D01*
X31377253Y-152533401D01*
X31391868Y-152553107D01*
X31404480Y-152574150D01*
X31414970Y-152596329D01*
X31423235Y-152619428D01*
X31429196Y-152643227D01*
X31432796Y-152667495D01*
X31434000Y-152691999D01*
X31434000Y-153342001D01*
X31432796Y-153366505D01*
X31429196Y-153390773D01*
X31423235Y-153414572D01*
X31414970Y-153437671D01*
X31404480Y-153459850D01*
X31391868Y-153480893D01*
X31377253Y-153500599D01*
X31360777Y-153518777D01*
X31342599Y-153535253D01*
X31322893Y-153549868D01*
X31301850Y-153562480D01*
X31279671Y-153572970D01*
X31256572Y-153581235D01*
X31232773Y-153587196D01*
X31208505Y-153590796D01*
X31184001Y-153592000D01*
X30283999Y-153592000D01*
X30259495Y-153590796D01*
X30235227Y-153587196D01*
X30211428Y-153581235D01*
X30188329Y-153572970D01*
X30166150Y-153562480D01*
X30145107Y-153549868D01*
X30125401Y-153535253D01*
X30107223Y-153518777D01*
X30090747Y-153500599D01*
X30076132Y-153480893D01*
X30063520Y-153459850D01*
X30053030Y-153437671D01*
X30044765Y-153414572D01*
X30038804Y-153390773D01*
X30035204Y-153366505D01*
X30034000Y-153342001D01*
X30034000Y-152691999D01*
X30035204Y-152667495D01*
X30038804Y-152643227D01*
X30044765Y-152619428D01*
X30053030Y-152596329D01*
X30063520Y-152574150D01*
X30076132Y-152553107D01*
X30090747Y-152533401D01*
X30107223Y-152515223D01*
X30125401Y-152498747D01*
X30145107Y-152484132D01*
X30166150Y-152471520D01*
X30188329Y-152461030D01*
X30211428Y-152452765D01*
X30235227Y-152446804D01*
X30259495Y-152443204D01*
X30283999Y-152442000D01*
X31184001Y-152442000D01*
X31208505Y-152443204D01*
X31208505Y-152443204D01*
G37*
D17*
%TD*%
%TO.P,C7,1*%
%TO.N,GNDREF*%
X30734000Y-153017000D03*
D16*
%TO.N,+5V*%
%TO.C,C7*%
G36*
X31208505Y-154493204D02*
G01*
X31232773Y-154496804D01*
X31256572Y-154502765D01*
X31279671Y-154511030D01*
X31301850Y-154521520D01*
X31322893Y-154534132D01*
X31342599Y-154548747D01*
X31360777Y-154565223D01*
X31377253Y-154583401D01*
X31391868Y-154603107D01*
X31404480Y-154624150D01*
X31414970Y-154646329D01*
X31423235Y-154669428D01*
X31429196Y-154693227D01*
X31432796Y-154717495D01*
X31434000Y-154741999D01*
X31434000Y-155392001D01*
X31432796Y-155416505D01*
X31429196Y-155440773D01*
X31423235Y-155464572D01*
X31414970Y-155487671D01*
X31404480Y-155509850D01*
X31391868Y-155530893D01*
X31377253Y-155550599D01*
X31360777Y-155568777D01*
X31342599Y-155585253D01*
X31322893Y-155599868D01*
X31301850Y-155612480D01*
X31279671Y-155622970D01*
X31256572Y-155631235D01*
X31232773Y-155637196D01*
X31208505Y-155640796D01*
X31184001Y-155642000D01*
X30283999Y-155642000D01*
X30259495Y-155640796D01*
X30235227Y-155637196D01*
X30211428Y-155631235D01*
X30188329Y-155622970D01*
X30166150Y-155612480D01*
X30145107Y-155599868D01*
X30125401Y-155585253D01*
X30107223Y-155568777D01*
X30090747Y-155550599D01*
X30076132Y-155530893D01*
X30063520Y-155509850D01*
X30053030Y-155487671D01*
X30044765Y-155464572D01*
X30038804Y-155440773D01*
X30035204Y-155416505D01*
X30034000Y-155392001D01*
X30034000Y-154741999D01*
X30035204Y-154717495D01*
X30038804Y-154693227D01*
X30044765Y-154669428D01*
X30053030Y-154646329D01*
X30063520Y-154624150D01*
X30076132Y-154603107D01*
X30090747Y-154583401D01*
X30107223Y-154565223D01*
X30125401Y-154548747D01*
X30145107Y-154534132D01*
X30166150Y-154521520D01*
X30188329Y-154511030D01*
X30211428Y-154502765D01*
X30235227Y-154496804D01*
X30259495Y-154493204D01*
X30283999Y-154492000D01*
X31184001Y-154492000D01*
X31208505Y-154493204D01*
X31208505Y-154493204D01*
G37*
D17*
%TD*%
%TO.P,C7,2*%
%TO.N,+5V*%
X30734000Y-155067000D03*
D16*
%TO.N,GNDREF*%
%TO.C,C13*%
G36*
X49369505Y-157405204D02*
G01*
X49393773Y-157408804D01*
X49417572Y-157414765D01*
X49440671Y-157423030D01*
X49462850Y-157433520D01*
X49483893Y-157446132D01*
X49503599Y-157460747D01*
X49521777Y-157477223D01*
X49538253Y-157495401D01*
X49552868Y-157515107D01*
X49565480Y-157536150D01*
X49575970Y-157558329D01*
X49584235Y-157581428D01*
X49590196Y-157605227D01*
X49593796Y-157629495D01*
X49595000Y-157653999D01*
X49595000Y-158304001D01*
X49593796Y-158328505D01*
X49590196Y-158352773D01*
X49584235Y-158376572D01*
X49575970Y-158399671D01*
X49565480Y-158421850D01*
X49552868Y-158442893D01*
X49538253Y-158462599D01*
X49521777Y-158480777D01*
X49503599Y-158497253D01*
X49483893Y-158511868D01*
X49462850Y-158524480D01*
X49440671Y-158534970D01*
X49417572Y-158543235D01*
X49393773Y-158549196D01*
X49369505Y-158552796D01*
X49345001Y-158554000D01*
X48444999Y-158554000D01*
X48420495Y-158552796D01*
X48396227Y-158549196D01*
X48372428Y-158543235D01*
X48349329Y-158534970D01*
X48327150Y-158524480D01*
X48306107Y-158511868D01*
X48286401Y-158497253D01*
X48268223Y-158480777D01*
X48251747Y-158462599D01*
X48237132Y-158442893D01*
X48224520Y-158421850D01*
X48214030Y-158399671D01*
X48205765Y-158376572D01*
X48199804Y-158352773D01*
X48196204Y-158328505D01*
X48195000Y-158304001D01*
X48195000Y-157653999D01*
X48196204Y-157629495D01*
X48199804Y-157605227D01*
X48205765Y-157581428D01*
X48214030Y-157558329D01*
X48224520Y-157536150D01*
X48237132Y-157515107D01*
X48251747Y-157495401D01*
X48268223Y-157477223D01*
X48286401Y-157460747D01*
X48306107Y-157446132D01*
X48327150Y-157433520D01*
X48349329Y-157423030D01*
X48372428Y-157414765D01*
X48396227Y-157408804D01*
X48420495Y-157405204D01*
X48444999Y-157404000D01*
X49345001Y-157404000D01*
X49369505Y-157405204D01*
X49369505Y-157405204D01*
G37*
D17*
%TD*%
%TO.P,C13,1*%
%TO.N,GNDREF*%
X48895000Y-157979000D03*
D16*
%TO.N,AREF*%
%TO.C,C13*%
G36*
X49369505Y-159455204D02*
G01*
X49393773Y-159458804D01*
X49417572Y-159464765D01*
X49440671Y-159473030D01*
X49462850Y-159483520D01*
X49483893Y-159496132D01*
X49503599Y-159510747D01*
X49521777Y-159527223D01*
X49538253Y-159545401D01*
X49552868Y-159565107D01*
X49565480Y-159586150D01*
X49575970Y-159608329D01*
X49584235Y-159631428D01*
X49590196Y-159655227D01*
X49593796Y-159679495D01*
X49595000Y-159703999D01*
X49595000Y-160354001D01*
X49593796Y-160378505D01*
X49590196Y-160402773D01*
X49584235Y-160426572D01*
X49575970Y-160449671D01*
X49565480Y-160471850D01*
X49552868Y-160492893D01*
X49538253Y-160512599D01*
X49521777Y-160530777D01*
X49503599Y-160547253D01*
X49483893Y-160561868D01*
X49462850Y-160574480D01*
X49440671Y-160584970D01*
X49417572Y-160593235D01*
X49393773Y-160599196D01*
X49369505Y-160602796D01*
X49345001Y-160604000D01*
X48444999Y-160604000D01*
X48420495Y-160602796D01*
X48396227Y-160599196D01*
X48372428Y-160593235D01*
X48349329Y-160584970D01*
X48327150Y-160574480D01*
X48306107Y-160561868D01*
X48286401Y-160547253D01*
X48268223Y-160530777D01*
X48251747Y-160512599D01*
X48237132Y-160492893D01*
X48224520Y-160471850D01*
X48214030Y-160449671D01*
X48205765Y-160426572D01*
X48199804Y-160402773D01*
X48196204Y-160378505D01*
X48195000Y-160354001D01*
X48195000Y-159703999D01*
X48196204Y-159679495D01*
X48199804Y-159655227D01*
X48205765Y-159631428D01*
X48214030Y-159608329D01*
X48224520Y-159586150D01*
X48237132Y-159565107D01*
X48251747Y-159545401D01*
X48268223Y-159527223D01*
X48286401Y-159510747D01*
X48306107Y-159496132D01*
X48327150Y-159483520D01*
X48349329Y-159473030D01*
X48372428Y-159464765D01*
X48396227Y-159458804D01*
X48420495Y-159455204D01*
X48444999Y-159454000D01*
X49345001Y-159454000D01*
X49369505Y-159455204D01*
X49369505Y-159455204D01*
G37*
D17*
%TD*%
%TO.P,C13,2*%
%TO.N,AREF*%
X48895000Y-160029000D03*
D16*
%TO.N,D0*%
%TO.C,TX1*%
G36*
X28399505Y-160341204D02*
G01*
X28423773Y-160344804D01*
X28447572Y-160350765D01*
X28470671Y-160359030D01*
X28492850Y-160369520D01*
X28513893Y-160382132D01*
X28533599Y-160396747D01*
X28551777Y-160413223D01*
X28568253Y-160431401D01*
X28582868Y-160451107D01*
X28595480Y-160472150D01*
X28605970Y-160494329D01*
X28614235Y-160517428D01*
X28620196Y-160541227D01*
X28623796Y-160565495D01*
X28625000Y-160589999D01*
X28625000Y-161490001D01*
X28623796Y-161514505D01*
X28620196Y-161538773D01*
X28614235Y-161562572D01*
X28605970Y-161585671D01*
X28595480Y-161607850D01*
X28582868Y-161628893D01*
X28568253Y-161648599D01*
X28551777Y-161666777D01*
X28533599Y-161683253D01*
X28513893Y-161697868D01*
X28492850Y-161710480D01*
X28470671Y-161720970D01*
X28447572Y-161729235D01*
X28423773Y-161735196D01*
X28399505Y-161738796D01*
X28375001Y-161740000D01*
X27724999Y-161740000D01*
X27700495Y-161738796D01*
X27676227Y-161735196D01*
X27652428Y-161729235D01*
X27629329Y-161720970D01*
X27607150Y-161710480D01*
X27586107Y-161697868D01*
X27566401Y-161683253D01*
X27548223Y-161666777D01*
X27531747Y-161648599D01*
X27517132Y-161628893D01*
X27504520Y-161607850D01*
X27494030Y-161585671D01*
X27485765Y-161562572D01*
X27479804Y-161538773D01*
X27476204Y-161514505D01*
X27475000Y-161490001D01*
X27475000Y-160589999D01*
X27476204Y-160565495D01*
X27479804Y-160541227D01*
X27485765Y-160517428D01*
X27494030Y-160494329D01*
X27504520Y-160472150D01*
X27517132Y-160451107D01*
X27531747Y-160431401D01*
X27548223Y-160413223D01*
X27566401Y-160396747D01*
X27586107Y-160382132D01*
X27607150Y-160369520D01*
X27629329Y-160359030D01*
X27652428Y-160350765D01*
X27676227Y-160344804D01*
X27700495Y-160341204D01*
X27724999Y-160340000D01*
X28375001Y-160340000D01*
X28399505Y-160341204D01*
X28399505Y-160341204D01*
G37*
D17*
%TD*%
%TO.P,TX1,1*%
%TO.N,D0*%
X28050000Y-161040000D03*
D16*
%TO.N,Net-(R2-Pad1)*%
%TO.C,TX1*%
G36*
X26349505Y-160341204D02*
G01*
X26373773Y-160344804D01*
X26397572Y-160350765D01*
X26420671Y-160359030D01*
X26442850Y-160369520D01*
X26463893Y-160382132D01*
X26483599Y-160396747D01*
X26501777Y-160413223D01*
X26518253Y-160431401D01*
X26532868Y-160451107D01*
X26545480Y-160472150D01*
X26555970Y-160494329D01*
X26564235Y-160517428D01*
X26570196Y-160541227D01*
X26573796Y-160565495D01*
X26575000Y-160589999D01*
X26575000Y-161490001D01*
X26573796Y-161514505D01*
X26570196Y-161538773D01*
X26564235Y-161562572D01*
X26555970Y-161585671D01*
X26545480Y-161607850D01*
X26532868Y-161628893D01*
X26518253Y-161648599D01*
X26501777Y-161666777D01*
X26483599Y-161683253D01*
X26463893Y-161697868D01*
X26442850Y-161710480D01*
X26420671Y-161720970D01*
X26397572Y-161729235D01*
X26373773Y-161735196D01*
X26349505Y-161738796D01*
X26325001Y-161740000D01*
X25674999Y-161740000D01*
X25650495Y-161738796D01*
X25626227Y-161735196D01*
X25602428Y-161729235D01*
X25579329Y-161720970D01*
X25557150Y-161710480D01*
X25536107Y-161697868D01*
X25516401Y-161683253D01*
X25498223Y-161666777D01*
X25481747Y-161648599D01*
X25467132Y-161628893D01*
X25454520Y-161607850D01*
X25444030Y-161585671D01*
X25435765Y-161562572D01*
X25429804Y-161538773D01*
X25426204Y-161514505D01*
X25425000Y-161490001D01*
X25425000Y-160589999D01*
X25426204Y-160565495D01*
X25429804Y-160541227D01*
X25435765Y-160517428D01*
X25444030Y-160494329D01*
X25454520Y-160472150D01*
X25467132Y-160451107D01*
X25481747Y-160431401D01*
X25498223Y-160413223D01*
X25516401Y-160396747D01*
X25536107Y-160382132D01*
X25557150Y-160369520D01*
X25579329Y-160359030D01*
X25602428Y-160350765D01*
X25626227Y-160344804D01*
X25650495Y-160341204D01*
X25674999Y-160340000D01*
X26325001Y-160340000D01*
X26349505Y-160341204D01*
X26349505Y-160341204D01*
G37*
D17*
%TD*%
%TO.P,TX1,2*%
%TO.N,Net-(R2-Pad1)*%
X26000000Y-161040000D03*
D16*
%TO.N,D1*%
%TO.C,RX1*%
G36*
X28399505Y-157841204D02*
G01*
X28423773Y-157844804D01*
X28447572Y-157850765D01*
X28470671Y-157859030D01*
X28492850Y-157869520D01*
X28513893Y-157882132D01*
X28533599Y-157896747D01*
X28551777Y-157913223D01*
X28568253Y-157931401D01*
X28582868Y-157951107D01*
X28595480Y-157972150D01*
X28605970Y-157994329D01*
X28614235Y-158017428D01*
X28620196Y-158041227D01*
X28623796Y-158065495D01*
X28625000Y-158089999D01*
X28625000Y-158990001D01*
X28623796Y-159014505D01*
X28620196Y-159038773D01*
X28614235Y-159062572D01*
X28605970Y-159085671D01*
X28595480Y-159107850D01*
X28582868Y-159128893D01*
X28568253Y-159148599D01*
X28551777Y-159166777D01*
X28533599Y-159183253D01*
X28513893Y-159197868D01*
X28492850Y-159210480D01*
X28470671Y-159220970D01*
X28447572Y-159229235D01*
X28423773Y-159235196D01*
X28399505Y-159238796D01*
X28375001Y-159240000D01*
X27724999Y-159240000D01*
X27700495Y-159238796D01*
X27676227Y-159235196D01*
X27652428Y-159229235D01*
X27629329Y-159220970D01*
X27607150Y-159210480D01*
X27586107Y-159197868D01*
X27566401Y-159183253D01*
X27548223Y-159166777D01*
X27531747Y-159148599D01*
X27517132Y-159128893D01*
X27504520Y-159107850D01*
X27494030Y-159085671D01*
X27485765Y-159062572D01*
X27479804Y-159038773D01*
X27476204Y-159014505D01*
X27475000Y-158990001D01*
X27475000Y-158089999D01*
X27476204Y-158065495D01*
X27479804Y-158041227D01*
X27485765Y-158017428D01*
X27494030Y-157994329D01*
X27504520Y-157972150D01*
X27517132Y-157951107D01*
X27531747Y-157931401D01*
X27548223Y-157913223D01*
X27566401Y-157896747D01*
X27586107Y-157882132D01*
X27607150Y-157869520D01*
X27629329Y-157859030D01*
X27652428Y-157850765D01*
X27676227Y-157844804D01*
X27700495Y-157841204D01*
X27724999Y-157840000D01*
X28375001Y-157840000D01*
X28399505Y-157841204D01*
X28399505Y-157841204D01*
G37*
D17*
%TD*%
%TO.P,RX1,1*%
%TO.N,D1*%
X28050000Y-158540000D03*
D16*
%TO.N,Net-(R3-Pad1)*%
%TO.C,RX1*%
G36*
X26349505Y-157841204D02*
G01*
X26373773Y-157844804D01*
X26397572Y-157850765D01*
X26420671Y-157859030D01*
X26442850Y-157869520D01*
X26463893Y-157882132D01*
X26483599Y-157896747D01*
X26501777Y-157913223D01*
X26518253Y-157931401D01*
X26532868Y-157951107D01*
X26545480Y-157972150D01*
X26555970Y-157994329D01*
X26564235Y-158017428D01*
X26570196Y-158041227D01*
X26573796Y-158065495D01*
X26575000Y-158089999D01*
X26575000Y-158990001D01*
X26573796Y-159014505D01*
X26570196Y-159038773D01*
X26564235Y-159062572D01*
X26555970Y-159085671D01*
X26545480Y-159107850D01*
X26532868Y-159128893D01*
X26518253Y-159148599D01*
X26501777Y-159166777D01*
X26483599Y-159183253D01*
X26463893Y-159197868D01*
X26442850Y-159210480D01*
X26420671Y-159220970D01*
X26397572Y-159229235D01*
X26373773Y-159235196D01*
X26349505Y-159238796D01*
X26325001Y-159240000D01*
X25674999Y-159240000D01*
X25650495Y-159238796D01*
X25626227Y-159235196D01*
X25602428Y-159229235D01*
X25579329Y-159220970D01*
X25557150Y-159210480D01*
X25536107Y-159197868D01*
X25516401Y-159183253D01*
X25498223Y-159166777D01*
X25481747Y-159148599D01*
X25467132Y-159128893D01*
X25454520Y-159107850D01*
X25444030Y-159085671D01*
X25435765Y-159062572D01*
X25429804Y-159038773D01*
X25426204Y-159014505D01*
X25425000Y-158990001D01*
X25425000Y-158089999D01*
X25426204Y-158065495D01*
X25429804Y-158041227D01*
X25435765Y-158017428D01*
X25444030Y-157994329D01*
X25454520Y-157972150D01*
X25467132Y-157951107D01*
X25481747Y-157931401D01*
X25498223Y-157913223D01*
X25516401Y-157896747D01*
X25536107Y-157882132D01*
X25557150Y-157869520D01*
X25579329Y-157859030D01*
X25602428Y-157850765D01*
X25626227Y-157844804D01*
X25650495Y-157841204D01*
X25674999Y-157840000D01*
X26325001Y-157840000D01*
X26349505Y-157841204D01*
X26349505Y-157841204D01*
G37*
D17*
%TD*%
%TO.P,RX1,2*%
%TO.N,Net-(R3-Pad1)*%
X26000000Y-158540000D03*
D26*
%TO.N,+VSW*%
X26416000Y-171958000D03*
X35687000Y-167005000D03*
%TO.N,GNDREF*%
X17145000Y-146812000D03*
X17145000Y-153035000D03*
X45847000Y-161036000D03*
X48618496Y-161492595D03*
X58166000Y-171704000D03*
X68500000Y-173500000D03*
X30734000Y-153035000D03*
X53213000Y-168638082D03*
X29083000Y-162941000D03*
X40386000Y-167132000D03*
X30734000Y-153035000D03*
X18923000Y-167662989D03*
X18923000Y-161140011D03*
X23850600Y-156032200D03*
X23926800Y-153543000D03*
X27600000Y-174300000D03*
X65500000Y-171250000D03*
X43000000Y-158750000D03*
%TO.N,+5V*%
X29464000Y-172085000D03*
X54229000Y-164465000D03*
X45330722Y-170823278D03*
X23876000Y-158496000D03*
X23876000Y-161036000D03*
X28067000Y-153543000D03*
X30734000Y-155067000D03*
X43180000Y-176276000D03*
X55700000Y-154400000D03*
X52700000Y-155900000D03*
%TO.N,+3V3*%
X38100000Y-167005000D03*
X38100000Y-173482000D03*
X38100000Y-164569489D03*
D27*
%TO.N,Net-(C8-Pad2)*%
X34544000Y-155321000D03*
%TO.N,RST*%
X54316847Y-167679153D03*
X57087198Y-165100000D03*
X45974000Y-169799000D03*
X34544000Y-153259990D03*
D28*
%TO.N,Net-(C9-Pad1)*%
X61000000Y-173250000D03*
X63000000Y-173250000D03*
%TO.N,Net-(C10-Pad1)*%
X43000000Y-156750000D03*
D27*
%TO.N,Net-(C11-Pad2)*%
X62992000Y-171196000D03*
X60960000Y-171196000D03*
%TO.N,Net-(C12-Pad2)*%
X43053000Y-163068000D03*
%TO.N,AREF*%
X52558414Y-163830000D03*
%TO.N,D11*%
X55753000Y-159893000D03*
X57404000Y-155194000D03*
%TO.N,D13*%
X28067000Y-155956000D03*
X51286788Y-159152212D03*
X56345705Y-155998295D03*
X54610000Y-157734000D03*
%TO.N,D12*%
X55245000Y-159258000D03*
X57023000Y-155956000D03*
%TO.N,AD5_SCL*%
X51562000Y-166243000D03*
%TO.N,AD4_SDA*%
X52079414Y-164719000D03*
X50931707Y-165866707D03*
%TO.N,D10*%
X56261000Y-160528000D03*
%TO.N,D9*%
X56769000Y-161036000D03*
%TO.N,D8*%
X57403992Y-161671000D03*
%TO.N,D4*%
X55880000Y-170434000D03*
%TO.N,D3*%
X55626000Y-171323000D03*
%TO.N,D2*%
X54229000Y-171958000D03*
%TO.N,D1*%
X50846919Y-172292072D03*
%TO.N,D0*%
X48920712Y-171043288D03*
X49000000Y-173750000D03*
D28*
%TO.N,Net-(P1-PadB5)*%
X21250000Y-165750000D03*
D27*
%TO.N,D-*%
X31496000Y-164592000D03*
X37083998Y-163830002D03*
%TO.N,D+*%
X30734000Y-164176500D03*
X35786998Y-164113000D03*
X17500000Y-164100000D03*
X17500000Y-165134500D03*
D28*
%TO.N,Net-(P1-PadA5)*%
X21250000Y-163000000D03*
D27*
%TO.N,AD3*%
X48895000Y-166751000D03*
%TO.N,AD2*%
X48387000Y-166116000D03*
%TO.N,AD1*%
X48387000Y-164084000D03*
%TO.N,AD0*%
X48895000Y-163449000D03*
%TO.N,Net-(D13-Pad1)*%
X25908000Y-156083000D03*
%TO.N,Net-(PWR1-Pad1)*%
X26035000Y-153543000D03*
%TO.N,Net-(R2-Pad1)*%
X25908000Y-161036000D03*
%TO.N,Net-(R3-Pad1)*%
X25908000Y-158496000D03*
%TD*%
D29*
%TO.N,+VSW*%
X26439000Y-171981000D02*
X26416000Y-171958000D01*
X26440000Y-171981000D02*
X26439000Y-171981000D01*
X26416000Y-171283000D02*
X21843488Y-166710488D01*
X26416000Y-171958000D02*
X26416000Y-171283000D01*
D30*
X17730999Y-166828999D02*
X17820512Y-166918512D01*
X17858000Y-161861500D02*
X17730999Y-161988501D01*
X18874000Y-161861500D02*
X17858000Y-161861500D01*
X17820512Y-166918512D02*
X18923000Y-166918512D01*
X17730999Y-166701999D02*
X17730999Y-166828999D01*
X17769712Y-162129999D02*
X17807199Y-162092512D01*
X17730999Y-162129999D02*
X17769712Y-162129999D01*
X17730999Y-161988501D02*
X17730999Y-162129999D01*
X17807199Y-162092512D02*
X18923000Y-162092512D01*
X17861024Y-166878000D02*
X18923000Y-166878000D01*
X17820512Y-166918512D02*
X17861024Y-166878000D01*
D29*
X32924999Y-165639999D02*
X34290000Y-167005000D01*
X34290000Y-167005000D02*
X35687000Y-167005000D01*
D30*
X19940801Y-166710488D02*
X18796000Y-166710488D01*
X17730999Y-166701999D02*
X17798710Y-166701999D01*
D29*
X21843488Y-166710488D02*
X19940801Y-166710488D01*
D30*
X17798710Y-166701999D02*
X17807199Y-166710488D01*
X17807199Y-166710488D02*
X18796000Y-166710488D01*
D29*
X32639000Y-165354000D02*
X32924999Y-165639999D01*
X23199976Y-165354000D02*
X32639000Y-165354000D01*
X21843488Y-166710488D02*
X23199976Y-165354000D01*
X14100000Y-170332998D02*
X14100000Y-171500000D01*
X17730999Y-166701999D02*
X14100000Y-170332998D01*
D30*
X16000000Y-165098000D02*
X17820512Y-166918512D01*
X16000000Y-163719500D02*
X16000000Y-165098000D01*
X17858000Y-161861500D02*
X16000000Y-163719500D01*
X16250000Y-163610998D02*
X16250000Y-165221000D01*
X16250000Y-165221000D02*
X17730999Y-166701999D01*
X17730999Y-162129999D02*
X16250000Y-163610998D01*
D29*
%TO.N,GNDREF*%
X30734000Y-153017000D02*
X30734000Y-153035000D01*
X17140000Y-146807000D02*
X17145000Y-146812000D01*
X17140000Y-146710000D02*
X17140000Y-146807000D01*
X17140000Y-153030000D02*
X17145000Y-153035000D01*
X17140000Y-153010000D02*
X17140000Y-153030000D01*
X48895000Y-157979000D02*
X48904000Y-157979000D01*
%TO.N,Net-(C10-Pad1)*%
X45964000Y-158740000D02*
X45974000Y-158750000D01*
X45900000Y-158740000D02*
X45964000Y-158740000D01*
%TO.N,GNDREF*%
X45851000Y-161040000D02*
X45847000Y-161036000D01*
X45900000Y-161040000D02*
X45851000Y-161040000D01*
X49166909Y-161492595D02*
X48618496Y-161492595D01*
X50051953Y-162377639D02*
X49166909Y-161492595D01*
X58166000Y-171623056D02*
X58166000Y-171704000D01*
D30*
X53472815Y-168378267D02*
X54967267Y-168378267D01*
X54967267Y-168378267D02*
X55499000Y-168910000D01*
X53213000Y-168638082D02*
X53472815Y-168378267D01*
X57264442Y-169430558D02*
X56618972Y-170076028D01*
X57264442Y-168458756D02*
X57264442Y-169430558D01*
X56628047Y-167822361D02*
X57264442Y-168458756D01*
D29*
X56618972Y-170076028D02*
X58166000Y-171623056D01*
X55496676Y-168953732D02*
X56618972Y-170076028D01*
X29534000Y-162490000D02*
X29083000Y-162941000D01*
X30734000Y-162490000D02*
X29534000Y-162490000D01*
X43697029Y-152526990D02*
X31242010Y-152526990D01*
X48895000Y-157724961D02*
X43697029Y-152526990D01*
X48895000Y-157979000D02*
X48895000Y-157724961D01*
X31242010Y-152526990D02*
X30861000Y-152908000D01*
X40400000Y-167118000D02*
X40386000Y-167132000D01*
X40400000Y-167030000D02*
X40400000Y-167118000D01*
D30*
X17858000Y-167767000D02*
X17985000Y-167640000D01*
X17858000Y-168656000D02*
X17858000Y-167767000D01*
X18900011Y-167640000D02*
X18923000Y-167662989D01*
X17985000Y-167640000D02*
X18900011Y-167640000D01*
X17858000Y-160733000D02*
X18265011Y-161140011D01*
X18265011Y-161140011D02*
X18923000Y-161140011D01*
X17858000Y-160020000D02*
X17858000Y-160733000D01*
X23850600Y-153619200D02*
X23926800Y-153543000D01*
X23850600Y-156032200D02*
X23850600Y-153619200D01*
D29*
X27917499Y-173982501D02*
X27600000Y-174300000D01*
X27940000Y-173960000D02*
X27917499Y-173982501D01*
X27940000Y-171981000D02*
X27940000Y-173960000D01*
X27940000Y-168021000D02*
X27940000Y-171960000D01*
X27940000Y-171960000D02*
X27900000Y-172000000D01*
X65550000Y-171300000D02*
X65500000Y-171250000D01*
X65550000Y-171350000D02*
X65550000Y-171300000D01*
X43000000Y-158740000D02*
X43000000Y-158750000D01*
%TO.N,+5V*%
X30734000Y-155067000D02*
X30734000Y-157480000D01*
X54229000Y-163160573D02*
X54229000Y-164465000D01*
X51749010Y-160680583D02*
X54229000Y-163160573D01*
X54402056Y-164465000D02*
X54229000Y-164465000D01*
X57193732Y-167256676D02*
X54402056Y-164465000D01*
X54229000Y-166554686D02*
X54229000Y-164465000D01*
X56062361Y-168388047D02*
X54229000Y-166554686D01*
X46310444Y-171803000D02*
X45330722Y-170823278D01*
D30*
X46990000Y-171803000D02*
X46310444Y-171803000D01*
X28064000Y-153540000D02*
X28067000Y-153543000D01*
X28000000Y-153540000D02*
X28064000Y-153540000D01*
D29*
X54815742Y-176276000D02*
X43180000Y-176276000D01*
X58991501Y-169054445D02*
X58991501Y-172100241D01*
X57193732Y-167256676D02*
X58991501Y-169054445D01*
X58991501Y-172100241D02*
X54815742Y-176276000D01*
X61622081Y-154400000D02*
X55700000Y-154400000D01*
X68580000Y-161357919D02*
X61622081Y-154400000D01*
X68580000Y-162560000D02*
X68580000Y-161357919D01*
X50680787Y-157919213D02*
X50680787Y-159680787D01*
X52700000Y-155900000D02*
X50680787Y-157919213D01*
X50680787Y-159680787D02*
X52100000Y-161100000D01*
D30*
%TO.N,+3V3*%
X34544000Y-163766884D02*
X35496117Y-164719001D01*
X37950488Y-164719001D02*
X38100000Y-164569489D01*
X35496117Y-164719001D02*
X37950488Y-164719001D01*
X34544000Y-162490000D02*
X34544000Y-163766884D01*
D29*
X38100000Y-173482000D02*
X38100000Y-167005000D01*
X38100000Y-173482000D02*
X38100000Y-180213000D01*
X38100000Y-180340000D02*
X35560000Y-180340000D01*
D30*
%TO.N,Net-(C8-Pad2)*%
X34544000Y-157540000D02*
X34544000Y-155321000D01*
%TO.N,RST*%
X13340000Y-153010000D02*
X13340000Y-146690000D01*
X13340000Y-146690000D02*
X13335000Y-146685000D01*
X33595010Y-154110990D02*
X34544000Y-153162000D01*
X13340000Y-153010000D02*
X14094000Y-153010000D01*
X29652990Y-154480624D02*
X30022624Y-154110990D01*
X18669990Y-157585990D02*
X29054026Y-157585990D01*
X14094000Y-153010000D02*
X18669990Y-157585990D01*
X29652990Y-156987026D02*
X29652990Y-154480624D01*
X30022624Y-154110990D02*
X33595010Y-154110990D01*
X29054026Y-157585990D02*
X29652990Y-156987026D01*
X49575505Y-168836511D02*
X50111489Y-168836511D01*
X47340747Y-166601753D02*
X49575505Y-168836511D01*
X47340747Y-157068747D02*
X47340747Y-166601753D01*
X43434000Y-153162000D02*
X47340747Y-157068747D01*
X34544000Y-153162000D02*
X43434000Y-153162000D01*
X50111489Y-168836511D02*
X50546000Y-168402000D01*
X46990000Y-169753000D02*
X49195000Y-169753000D01*
X49195000Y-169753000D02*
X50546000Y-168402000D01*
X66040000Y-167640000D02*
X63500000Y-165100000D01*
X63500000Y-165100000D02*
X57405396Y-165100000D01*
X57405396Y-165100000D02*
X57087198Y-165100000D01*
X54316847Y-167679153D02*
X51268847Y-167679153D01*
X51268847Y-167679153D02*
X51008418Y-167939582D01*
X51008418Y-167939582D02*
X50673000Y-168275000D01*
X46020000Y-169753000D02*
X45974000Y-169799000D01*
X46990000Y-169753000D02*
X46020000Y-169753000D01*
X34544000Y-153162000D02*
X34544000Y-153259990D01*
%TO.N,Net-(C9-Pad1)*%
X60452000Y-172847000D02*
X60833000Y-173228000D01*
X60452000Y-169383573D02*
X60452000Y-172847000D01*
X57759417Y-166690990D02*
X60452000Y-169383573D01*
X65000000Y-173250000D02*
X65500000Y-173750000D01*
X64900000Y-173650000D02*
X64500000Y-173250000D01*
X65550000Y-173650000D02*
X64900000Y-173650000D01*
X64500000Y-173250000D02*
X65000000Y-173250000D01*
X61000000Y-173250000D02*
X63000000Y-173250000D01*
X63000000Y-173250000D02*
X64500000Y-173250000D01*
%TO.N,Net-(C10-Pad1)*%
X38354000Y-161146000D02*
X38354000Y-162687000D01*
X38354000Y-160909000D02*
X38354000Y-161146000D01*
X38354000Y-160646000D02*
X38354000Y-161146000D01*
X42250000Y-156750000D02*
X38354000Y-160646000D01*
X43000000Y-156750000D02*
X42250000Y-156750000D01*
X44000000Y-156750000D02*
X46000000Y-158750000D01*
X43000000Y-156750000D02*
X44000000Y-156750000D01*
%TO.N,Net-(C11-Pad2)*%
X63148000Y-171040000D02*
X62992000Y-171196000D01*
X60960000Y-168760202D02*
X60960000Y-171196000D01*
X58325103Y-166125305D02*
X60960000Y-168760202D01*
X63992001Y-170195999D02*
X67195999Y-170195999D01*
X62992000Y-171196000D02*
X63992001Y-170195999D01*
X67195999Y-170195999D02*
X68250000Y-171250000D01*
X68250000Y-171250000D02*
X68500000Y-171250000D01*
%TO.N,Net-(C12-Pad2)*%
X43000000Y-163015000D02*
X43053000Y-163068000D01*
X43000000Y-161040000D02*
X43000000Y-163015000D01*
X40259000Y-161036000D02*
X43053000Y-161036000D01*
X39624000Y-161671000D02*
X40259000Y-161036000D01*
X39624000Y-162490000D02*
X39624000Y-161671000D01*
%TO.N,AREF*%
X50673000Y-161944586D02*
X50673000Y-161798000D01*
X52558414Y-163830000D02*
X50673000Y-161944586D01*
X48895000Y-160029000D02*
X50664000Y-161798000D01*
X50664000Y-161798000D02*
X50673000Y-161798000D01*
%TO.N,D0*%
X32004000Y-161415000D02*
X31625000Y-161036000D01*
X32004000Y-162490000D02*
X32004000Y-161415000D01*
X31625000Y-161036000D02*
X28067000Y-161036000D01*
%TO.N,D1*%
X31115000Y-159004000D02*
X28448000Y-159004000D01*
X33147000Y-161036000D02*
X31115000Y-159004000D01*
X33147000Y-162363000D02*
X33147000Y-161036000D01*
X28448000Y-159004000D02*
X28067000Y-158623000D01*
X33274000Y-162490000D02*
X33147000Y-162363000D01*
X46620614Y-173101000D02*
X48895000Y-173101000D01*
X42672000Y-169152386D02*
X46620614Y-173101000D01*
X42672000Y-166327369D02*
X42672000Y-169152386D01*
X41612620Y-165267989D02*
X42672000Y-166327369D01*
X34838989Y-165267989D02*
X41612620Y-165267989D01*
X33274000Y-163703000D02*
X34838989Y-165267989D01*
X33274000Y-162490000D02*
X33274000Y-163703000D01*
%TO.N,D11*%
X60831202Y-155194000D02*
X57404000Y-155194000D01*
X67144001Y-163664001D02*
X67144001Y-161506799D01*
X67144001Y-161506799D02*
X60831202Y-155194000D01*
X68580000Y-165100000D02*
X67144001Y-163664001D01*
X55753000Y-159893000D02*
X54991000Y-160655000D01*
%TO.N,D13*%
X52314695Y-160114897D02*
X52314695Y-160137695D01*
X52324000Y-160147000D02*
X52281576Y-160147000D01*
X52281576Y-160147000D02*
X51511787Y-159377211D01*
X51511787Y-159377211D02*
X51286788Y-159152212D01*
X29271979Y-151068021D02*
X29271979Y-154751021D01*
X28291999Y-155731001D02*
X28067000Y-155956000D01*
X30480000Y-149860000D02*
X29271979Y-151068021D01*
X29271979Y-154751021D02*
X28291999Y-155731001D01*
X52027576Y-159893000D02*
X51286788Y-159152212D01*
X52451000Y-159893000D02*
X52027576Y-159893000D01*
X54610000Y-157734000D02*
X52451000Y-159893000D01*
X56345705Y-156136877D02*
X56345705Y-155998295D01*
X65308828Y-165100000D02*
X56345705Y-156136877D01*
X66040000Y-165100000D02*
X65308828Y-165100000D01*
%TO.N,D12*%
X55245000Y-159258000D02*
X54356000Y-160147000D01*
X54356000Y-160147000D02*
X54483000Y-160147000D01*
X54483000Y-160147000D02*
X54356000Y-160020000D01*
X66040000Y-162560000D02*
X63627000Y-162560000D01*
X63627000Y-162560000D02*
X57247999Y-156180999D01*
X57247999Y-156180999D02*
X57023000Y-155956000D01*
%TO.N,AD5_SCL*%
X51562000Y-166243000D02*
X50038000Y-167767000D01*
%TO.N,AD4_SDA*%
X49539414Y-167259000D02*
X49530000Y-167259000D01*
X50931707Y-165866707D02*
X49539414Y-167259000D01*
X52079414Y-164719000D02*
X50931707Y-165866707D01*
%TO.N,D10*%
X56261000Y-160528000D02*
X55499000Y-161290000D01*
X55496676Y-161246268D02*
X55496676Y-161287676D01*
X55496676Y-161287676D02*
X55499000Y-161290000D01*
%TO.N,D9*%
X56769000Y-161036000D02*
X56007000Y-161798000D01*
%TO.N,D8*%
X56642000Y-162433000D02*
X56642000Y-162432992D01*
X56642000Y-162432992D02*
X57178993Y-161895999D01*
X57178993Y-161895999D02*
X57403992Y-161671000D01*
%TO.N,D7*%
X58773567Y-161317433D02*
X57150000Y-162941000D01*
X48260000Y-149860000D02*
X58773567Y-160373567D01*
X58773567Y-160373567D02*
X58773567Y-161317433D01*
%TO.N,D6*%
X50800000Y-151765000D02*
X59339253Y-160304253D01*
X59339253Y-160304253D02*
X59339253Y-161894747D01*
X50800000Y-149860000D02*
X50800000Y-151765000D01*
X59339253Y-161894747D02*
X57785000Y-163449000D01*
%TO.N,D5*%
X59720263Y-162656737D02*
X58293000Y-164084000D01*
X59720263Y-160050263D02*
X59720263Y-162656737D01*
X53340000Y-153670000D02*
X59720263Y-160050263D01*
X53340000Y-149860000D02*
X53340000Y-153670000D01*
%TO.N,D4*%
X55880000Y-170434000D02*
X54991000Y-169545000D01*
%TO.N,D3*%
X55626000Y-171323000D02*
X54483000Y-170180000D01*
X54483000Y-170180000D02*
X54356000Y-170053000D01*
%TO.N,D2*%
X54229000Y-171958000D02*
X52324000Y-170053000D01*
%TO.N,D1*%
X52650000Y-172350000D02*
X50800000Y-172350000D01*
X48895000Y-173119000D02*
X50019991Y-173119000D01*
X50846919Y-171973874D02*
X50846919Y-172292072D01*
X50019991Y-173119000D02*
X50621920Y-172517071D01*
X51689000Y-169545000D02*
X50846919Y-170387081D01*
X50621920Y-172517071D02*
X50846919Y-172292072D01*
X50846919Y-170387081D02*
X50846919Y-171973874D01*
%TO.N,D0*%
X49145711Y-170818289D02*
X48920712Y-171043288D01*
X51054000Y-168910000D02*
X49145711Y-170818289D01*
X51181000Y-168910000D02*
X51054000Y-168910000D01*
X42169901Y-166364099D02*
X42169901Y-169423901D01*
X41454801Y-165648999D02*
X42169901Y-166364099D01*
X46496000Y-173750000D02*
X49000000Y-173750000D01*
X34087999Y-165648999D02*
X41454801Y-165648999D01*
X32004000Y-163565000D02*
X34087999Y-165648999D01*
X42169901Y-169423901D02*
X46496000Y-173750000D01*
X32004000Y-162490000D02*
X32004000Y-163565000D01*
%TO.N,Net-(P1-PadB5)*%
X20820500Y-166179500D02*
X21250000Y-165750000D01*
X18874000Y-166179500D02*
X20820500Y-166179500D01*
%TO.N,D-*%
X31432500Y-164655500D02*
X31496000Y-164592000D01*
X18874000Y-164655500D02*
X31432500Y-164655500D01*
X37084000Y-162560000D02*
X37083998Y-162560002D01*
X37083998Y-162560002D02*
X37083998Y-163511804D01*
X37083998Y-163511804D02*
X37083998Y-163830002D01*
X17100000Y-163600000D02*
X18800000Y-163600000D01*
X17155500Y-164655500D02*
X16800000Y-164300000D01*
X16800000Y-163900000D02*
X17100000Y-163600000D01*
X16800000Y-164300000D02*
X16800000Y-163900000D01*
X18874000Y-164655500D02*
X17155500Y-164655500D01*
%TO.N,D+*%
X30705000Y-164147500D02*
X30734000Y-164176500D01*
X18874000Y-164147500D02*
X30705000Y-164147500D01*
X35786998Y-164113000D02*
X35786998Y-162587002D01*
X35786998Y-162587002D02*
X35814000Y-162560000D01*
X17547500Y-164147500D02*
X17500000Y-164100000D01*
X18874000Y-164147500D02*
X17547500Y-164147500D01*
X17500000Y-165134500D02*
X18834500Y-165134500D01*
X18834500Y-165134500D02*
X18900000Y-165200000D01*
%TO.N,Net-(P1-PadA5)*%
X18874000Y-163131500D02*
X21118500Y-163131500D01*
X21118500Y-163131500D02*
X21250000Y-163000000D01*
%TO.N,AD0*%
X48920583Y-163509010D02*
X48920583Y-163474583D01*
%TO.N,Net-(D13-Pad1)*%
X25951000Y-156040000D02*
X25908000Y-156083000D01*
X25975000Y-156040000D02*
X25951000Y-156040000D01*
%TO.N,Net-(R2-Pad1)*%
X25912000Y-161040000D02*
X25908000Y-161036000D01*
X26000000Y-161040000D02*
X25912000Y-161040000D01*
%TD*%
%TO.N,+5V*%
G36*
X33630506Y-167602741D02*
G01*
X33658341Y-167636659D01*
X33793709Y-167747753D01*
X33948149Y-167830303D01*
X34024578Y-167853487D01*
X34115725Y-167881136D01*
X34132325Y-167882771D01*
X34246333Y-167894000D01*
X34246340Y-167894000D01*
X34290000Y-167898300D01*
X34333660Y-167894000D01*
X34411928Y-167894000D01*
X34411928Y-168030000D01*
X34424188Y-168154482D01*
X34460498Y-168274180D01*
X34519463Y-168384494D01*
X34598815Y-168481185D01*
X34695506Y-168560537D01*
X34805820Y-168619502D01*
X34925518Y-168655812D01*
X35050000Y-168668072D01*
X36550000Y-168668072D01*
X36674482Y-168655812D01*
X36794180Y-168619502D01*
X36904494Y-168560537D01*
X36950000Y-168523191D01*
X36995506Y-168560537D01*
X37105820Y-168619502D01*
X37211001Y-168651408D01*
X37211000Y-171691928D01*
X36200000Y-171691928D01*
X36075518Y-171704188D01*
X35955820Y-171740498D01*
X35845506Y-171799463D01*
X35748815Y-171878815D01*
X35669463Y-171975506D01*
X35610498Y-172085820D01*
X35574188Y-172205518D01*
X35561928Y-172330000D01*
X35561928Y-174330000D01*
X35574188Y-174454482D01*
X35610498Y-174574180D01*
X35669463Y-174684494D01*
X35748815Y-174781185D01*
X35845506Y-174860537D01*
X35955820Y-174919502D01*
X36075518Y-174955812D01*
X36200000Y-174968072D01*
X37211000Y-174968072D01*
X37211001Y-179148523D01*
X37044866Y-179284866D01*
X36908523Y-179451000D01*
X36751477Y-179451000D01*
X36615134Y-179284866D01*
X36389014Y-179099294D01*
X36131034Y-178961401D01*
X35851111Y-178876487D01*
X35632950Y-178855000D01*
X35487050Y-178855000D01*
X35268889Y-178876487D01*
X34988966Y-178961401D01*
X34730986Y-179099294D01*
X34504866Y-179284866D01*
X34319294Y-179510986D01*
X34290000Y-179565791D01*
X34260706Y-179510986D01*
X34075134Y-179284866D01*
X33849014Y-179099294D01*
X33591034Y-178961401D01*
X33311111Y-178876487D01*
X33092950Y-178855000D01*
X32947050Y-178855000D01*
X32728889Y-178876487D01*
X32448966Y-178961401D01*
X32190986Y-179099294D01*
X31964866Y-179284866D01*
X31779294Y-179510986D01*
X31750000Y-179565791D01*
X31720706Y-179510986D01*
X31535134Y-179284866D01*
X31309014Y-179099294D01*
X31051034Y-178961401D01*
X30771111Y-178876487D01*
X30552950Y-178855000D01*
X30407050Y-178855000D01*
X30188889Y-178876487D01*
X29908966Y-178961401D01*
X29650986Y-179099294D01*
X29424866Y-179284866D01*
X29239294Y-179510986D01*
X29101401Y-179768966D01*
X29016487Y-180048889D01*
X28987815Y-180340000D01*
X29016487Y-180631111D01*
X29101401Y-180911034D01*
X29239294Y-181169014D01*
X29424866Y-181395134D01*
X29650986Y-181580706D01*
X29908966Y-181718599D01*
X30188889Y-181803513D01*
X30407050Y-181825000D01*
X30552950Y-181825000D01*
X30771111Y-181803513D01*
X31051034Y-181718599D01*
X31309014Y-181580706D01*
X31535134Y-181395134D01*
X31720706Y-181169014D01*
X31750000Y-181114209D01*
X31779294Y-181169014D01*
X31964866Y-181395134D01*
X32190986Y-181580706D01*
X32448966Y-181718599D01*
X32728889Y-181803513D01*
X32947050Y-181825000D01*
X33092950Y-181825000D01*
X33311111Y-181803513D01*
X33591034Y-181718599D01*
X33849014Y-181580706D01*
X34075134Y-181395134D01*
X34260706Y-181169014D01*
X34290000Y-181114209D01*
X34319294Y-181169014D01*
X34504866Y-181395134D01*
X34730986Y-181580706D01*
X34988966Y-181718599D01*
X35268889Y-181803513D01*
X35487050Y-181825000D01*
X35632950Y-181825000D01*
X35851111Y-181803513D01*
X36131034Y-181718599D01*
X36389014Y-181580706D01*
X36615134Y-181395134D01*
X36751477Y-181229000D01*
X36908523Y-181229000D01*
X37044866Y-181395134D01*
X37270986Y-181580706D01*
X37528966Y-181718599D01*
X37808889Y-181803513D01*
X38027050Y-181825000D01*
X38172950Y-181825000D01*
X38391111Y-181803513D01*
X38671034Y-181718599D01*
X38929014Y-181580706D01*
X39155134Y-181395134D01*
X39340706Y-181169014D01*
X39375201Y-181104477D01*
X39444822Y-181221355D01*
X39639731Y-181437588D01*
X39873080Y-181611641D01*
X40135901Y-181736825D01*
X40283110Y-181781476D01*
X40513000Y-181660155D01*
X40513000Y-180467000D01*
X40767000Y-180467000D01*
X40767000Y-181660155D01*
X40996890Y-181781476D01*
X41144099Y-181736825D01*
X41406920Y-181611641D01*
X41640269Y-181437588D01*
X41835178Y-181221355D01*
X41910000Y-181095745D01*
X41984822Y-181221355D01*
X42179731Y-181437588D01*
X42413080Y-181611641D01*
X42675901Y-181736825D01*
X42823110Y-181781476D01*
X43053000Y-181660155D01*
X43053000Y-180467000D01*
X40767000Y-180467000D01*
X40513000Y-180467000D01*
X40493000Y-180467000D01*
X40493000Y-180213000D01*
X40513000Y-180213000D01*
X40513000Y-179019845D01*
X40767000Y-179019845D01*
X40767000Y-180213000D01*
X43053000Y-180213000D01*
X43053000Y-179019845D01*
X43307000Y-179019845D01*
X43307000Y-180213000D01*
X43327000Y-180213000D01*
X43327000Y-180467000D01*
X43307000Y-180467000D01*
X43307000Y-181660155D01*
X43536890Y-181781476D01*
X43684099Y-181736825D01*
X43946920Y-181611641D01*
X44180269Y-181437588D01*
X44375178Y-181221355D01*
X44444799Y-181104477D01*
X44479294Y-181169014D01*
X44664866Y-181395134D01*
X44890986Y-181580706D01*
X45148966Y-181718599D01*
X45428889Y-181803513D01*
X45647050Y-181825000D01*
X45792950Y-181825000D01*
X46011111Y-181803513D01*
X46291034Y-181718599D01*
X46549014Y-181580706D01*
X46775134Y-181395134D01*
X46799607Y-181365313D01*
X46820498Y-181434180D01*
X46879463Y-181544494D01*
X46958815Y-181641185D01*
X47055506Y-181720537D01*
X47165820Y-181779502D01*
X47285518Y-181815812D01*
X47410000Y-181828072D01*
X49110000Y-181828072D01*
X49234482Y-181815812D01*
X49354180Y-181779502D01*
X49464494Y-181720537D01*
X49561185Y-181641185D01*
X49640537Y-181544494D01*
X49699502Y-181434180D01*
X49735812Y-181314482D01*
X49748072Y-181190000D01*
X49748072Y-180340000D01*
X51847815Y-180340000D01*
X51876487Y-180631111D01*
X51961401Y-180911034D01*
X52099294Y-181169014D01*
X52284866Y-181395134D01*
X52510986Y-181580706D01*
X52768966Y-181718599D01*
X53048889Y-181803513D01*
X53267050Y-181825000D01*
X53412950Y-181825000D01*
X53631111Y-181803513D01*
X53911034Y-181718599D01*
X54169014Y-181580706D01*
X54395134Y-181395134D01*
X54580706Y-181169014D01*
X54610000Y-181114209D01*
X54639294Y-181169014D01*
X54824866Y-181395134D01*
X55050986Y-181580706D01*
X55308966Y-181718599D01*
X55588889Y-181803513D01*
X55807050Y-181825000D01*
X55952950Y-181825000D01*
X56171111Y-181803513D01*
X56451034Y-181718599D01*
X56709014Y-181580706D01*
X56935134Y-181395134D01*
X57120706Y-181169014D01*
X57150000Y-181114209D01*
X57179294Y-181169014D01*
X57364866Y-181395134D01*
X57590986Y-181580706D01*
X57848966Y-181718599D01*
X58128889Y-181803513D01*
X58347050Y-181825000D01*
X58492950Y-181825000D01*
X58711111Y-181803513D01*
X58991034Y-181718599D01*
X59249014Y-181580706D01*
X59475134Y-181395134D01*
X59660706Y-181169014D01*
X59690000Y-181114209D01*
X59719294Y-181169014D01*
X59904866Y-181395134D01*
X60130986Y-181580706D01*
X60388966Y-181718599D01*
X60668889Y-181803513D01*
X60887050Y-181825000D01*
X61032950Y-181825000D01*
X61251111Y-181803513D01*
X61531034Y-181718599D01*
X61789014Y-181580706D01*
X62015134Y-181395134D01*
X62200706Y-181169014D01*
X62230000Y-181114209D01*
X62259294Y-181169014D01*
X62444866Y-181395134D01*
X62670986Y-181580706D01*
X62928966Y-181718599D01*
X63208889Y-181803513D01*
X63427050Y-181825000D01*
X63572950Y-181825000D01*
X63791111Y-181803513D01*
X64071034Y-181718599D01*
X64329014Y-181580706D01*
X64555134Y-181395134D01*
X64579607Y-181365313D01*
X64600498Y-181434180D01*
X64659463Y-181544494D01*
X64738815Y-181641185D01*
X64835506Y-181720537D01*
X64945820Y-181779502D01*
X65065518Y-181815812D01*
X65190000Y-181828072D01*
X66890000Y-181828072D01*
X67014482Y-181815812D01*
X67134180Y-181779502D01*
X67244494Y-181720537D01*
X67341185Y-181641185D01*
X67420537Y-181544494D01*
X67479502Y-181434180D01*
X67515812Y-181314482D01*
X67528072Y-181190000D01*
X67528072Y-179490000D01*
X67515812Y-179365518D01*
X67479502Y-179245820D01*
X67420537Y-179135506D01*
X67341185Y-179038815D01*
X67244494Y-178959463D01*
X67134180Y-178900498D01*
X67014482Y-178864188D01*
X66890000Y-178851928D01*
X65190000Y-178851928D01*
X65065518Y-178864188D01*
X64945820Y-178900498D01*
X64835506Y-178959463D01*
X64738815Y-179038815D01*
X64659463Y-179135506D01*
X64600498Y-179245820D01*
X64579607Y-179314687D01*
X64555134Y-179284866D01*
X64329014Y-179099294D01*
X64071034Y-178961401D01*
X63791111Y-178876487D01*
X63572950Y-178855000D01*
X63427050Y-178855000D01*
X63208889Y-178876487D01*
X62928966Y-178961401D01*
X62670986Y-179099294D01*
X62444866Y-179284866D01*
X62259294Y-179510986D01*
X62230000Y-179565791D01*
X62200706Y-179510986D01*
X62015134Y-179284866D01*
X61789014Y-179099294D01*
X61531034Y-178961401D01*
X61251111Y-178876487D01*
X61032950Y-178855000D01*
X60887050Y-178855000D01*
X60668889Y-178876487D01*
X60388966Y-178961401D01*
X60130986Y-179099294D01*
X59904866Y-179284866D01*
X59719294Y-179510986D01*
X59690000Y-179565791D01*
X59660706Y-179510986D01*
X59475134Y-179284866D01*
X59249014Y-179099294D01*
X58991034Y-178961401D01*
X58711111Y-178876487D01*
X58492950Y-178855000D01*
X58347050Y-178855000D01*
X58128889Y-178876487D01*
X57848966Y-178961401D01*
X57590986Y-179099294D01*
X57364866Y-179284866D01*
X57179294Y-179510986D01*
X57150000Y-179565791D01*
X57120706Y-179510986D01*
X56935134Y-179284866D01*
X56709014Y-179099294D01*
X56451034Y-178961401D01*
X56171111Y-178876487D01*
X55952950Y-178855000D01*
X55807050Y-178855000D01*
X55588889Y-178876487D01*
X55308966Y-178961401D01*
X55050986Y-179099294D01*
X54824866Y-179284866D01*
X54639294Y-179510986D01*
X54610000Y-179565791D01*
X54580706Y-179510986D01*
X54395134Y-179284866D01*
X54169014Y-179099294D01*
X53911034Y-178961401D01*
X53631111Y-178876487D01*
X53412950Y-178855000D01*
X53267050Y-178855000D01*
X53048889Y-178876487D01*
X52768966Y-178961401D01*
X52510986Y-179099294D01*
X52284866Y-179284866D01*
X52099294Y-179510986D01*
X51961401Y-179768966D01*
X51876487Y-180048889D01*
X51847815Y-180340000D01*
X49748072Y-180340000D01*
X49748072Y-179490000D01*
X49735812Y-179365518D01*
X49699502Y-179245820D01*
X49640537Y-179135506D01*
X49561185Y-179038815D01*
X49464494Y-178959463D01*
X49354180Y-178900498D01*
X49234482Y-178864188D01*
X49110000Y-178851928D01*
X47410000Y-178851928D01*
X47285518Y-178864188D01*
X47165820Y-178900498D01*
X47055506Y-178959463D01*
X46958815Y-179038815D01*
X46879463Y-179135506D01*
X46820498Y-179245820D01*
X46799607Y-179314687D01*
X46775134Y-179284866D01*
X46549014Y-179099294D01*
X46291034Y-178961401D01*
X46011111Y-178876487D01*
X45792950Y-178855000D01*
X45647050Y-178855000D01*
X45428889Y-178876487D01*
X45148966Y-178961401D01*
X44890986Y-179099294D01*
X44664866Y-179284866D01*
X44479294Y-179510986D01*
X44444799Y-179575523D01*
X44375178Y-179458645D01*
X44180269Y-179242412D01*
X43946920Y-179068359D01*
X43684099Y-178943175D01*
X43536890Y-178898524D01*
X43307000Y-179019845D01*
X43053000Y-179019845D01*
X42823110Y-178898524D01*
X42675901Y-178943175D01*
X42413080Y-179068359D01*
X42179731Y-179242412D01*
X41984822Y-179458645D01*
X41910000Y-179584255D01*
X41835178Y-179458645D01*
X41640269Y-179242412D01*
X41406920Y-179068359D01*
X41144099Y-178943175D01*
X40996890Y-178898524D01*
X40767000Y-179019845D01*
X40513000Y-179019845D01*
X40283110Y-178898524D01*
X40135901Y-178943175D01*
X39873080Y-179068359D01*
X39639731Y-179242412D01*
X39444822Y-179458645D01*
X39375201Y-179575523D01*
X39340706Y-179510986D01*
X39155134Y-179284866D01*
X38989000Y-179148523D01*
X38989000Y-174968072D01*
X40000000Y-174968072D01*
X40124482Y-174955812D01*
X40244180Y-174919502D01*
X40354494Y-174860537D01*
X40451185Y-174781185D01*
X40530537Y-174684494D01*
X40589502Y-174574180D01*
X40625812Y-174454482D01*
X40638072Y-174330000D01*
X40638072Y-172330000D01*
X40625812Y-172205518D01*
X40589502Y-172085820D01*
X40530537Y-171975506D01*
X40451185Y-171878815D01*
X40354494Y-171799463D01*
X40244180Y-171740498D01*
X40124482Y-171704188D01*
X40000000Y-171691928D01*
X38989000Y-171691928D01*
X38989000Y-168651408D01*
X39094180Y-168619502D01*
X39204494Y-168560537D01*
X39250000Y-168523191D01*
X39295506Y-168560537D01*
X39405820Y-168619502D01*
X39525518Y-168655812D01*
X39650000Y-168668072D01*
X41150000Y-168668072D01*
X41274482Y-168655812D01*
X41394180Y-168619502D01*
X41407902Y-168612167D01*
X41407902Y-169386468D01*
X41404215Y-169423901D01*
X41418928Y-169573279D01*
X41462500Y-169716916D01*
X41533256Y-169849293D01*
X41596742Y-169926650D01*
X41628480Y-169965323D01*
X41657550Y-169989180D01*
X45930721Y-174262352D01*
X45954578Y-174291422D01*
X45983648Y-174315279D01*
X46070607Y-174386645D01*
X46118044Y-174412000D01*
X46202985Y-174457402D01*
X46346622Y-174500974D01*
X46458574Y-174512000D01*
X46458577Y-174512000D01*
X46496000Y-174515686D01*
X46533423Y-174512000D01*
X48592454Y-174512000D01*
X48592637Y-174512122D01*
X48749147Y-174576951D01*
X48915297Y-174610000D01*
X49084703Y-174610000D01*
X49250853Y-174576951D01*
X49407363Y-174512122D01*
X49548218Y-174418005D01*
X49668005Y-174298218D01*
X49762122Y-174157363D01*
X49826951Y-174000853D01*
X49850791Y-173881000D01*
X49982568Y-173881000D01*
X50019991Y-173884686D01*
X50057414Y-173881000D01*
X50057417Y-173881000D01*
X50169369Y-173869974D01*
X50313006Y-173826402D01*
X50445383Y-173755645D01*
X50561413Y-173660422D01*
X50585274Y-173631347D01*
X51097556Y-173119066D01*
X51097772Y-173119023D01*
X51114727Y-173112000D01*
X52687426Y-173112000D01*
X52799378Y-173100974D01*
X52943015Y-173057402D01*
X53075392Y-172986645D01*
X53191422Y-172891422D01*
X53286645Y-172775392D01*
X53357402Y-172643015D01*
X53400974Y-172499378D01*
X53415686Y-172350000D01*
X53401737Y-172208368D01*
X53402006Y-172208637D01*
X53402049Y-172208853D01*
X53466878Y-172365363D01*
X53560995Y-172506218D01*
X53680782Y-172626005D01*
X53821637Y-172720122D01*
X53978147Y-172784951D01*
X54144297Y-172818000D01*
X54313703Y-172818000D01*
X54479853Y-172784951D01*
X54636363Y-172720122D01*
X54777218Y-172626005D01*
X54897005Y-172506218D01*
X54991122Y-172365363D01*
X55055951Y-172208853D01*
X55089000Y-172042703D01*
X55089000Y-171998501D01*
X55218637Y-172085122D01*
X55375147Y-172149951D01*
X55541297Y-172183000D01*
X55710703Y-172183000D01*
X55876853Y-172149951D01*
X56033363Y-172085122D01*
X56174218Y-171991005D01*
X56294005Y-171871218D01*
X56388122Y-171730363D01*
X56452951Y-171573853D01*
X56486000Y-171407703D01*
X56486000Y-171238297D01*
X56476563Y-171190855D01*
X57245774Y-171960066D01*
X57250104Y-171981834D01*
X57321905Y-172155178D01*
X57426145Y-172311184D01*
X57558816Y-172443855D01*
X57714822Y-172548095D01*
X57888166Y-172619896D01*
X58072187Y-172656500D01*
X58259813Y-172656500D01*
X58443834Y-172619896D01*
X58617178Y-172548095D01*
X58773184Y-172443855D01*
X58905855Y-172311184D01*
X59010095Y-172155178D01*
X59081896Y-171981834D01*
X59118500Y-171797813D01*
X59118500Y-171610187D01*
X59081896Y-171426166D01*
X59010095Y-171252822D01*
X58905855Y-171096816D01*
X58773184Y-170964145D01*
X58746486Y-170946306D01*
X57787352Y-169987172D01*
X57805864Y-169971980D01*
X57901087Y-169855950D01*
X57971844Y-169723573D01*
X58015416Y-169579936D01*
X58026442Y-169467984D01*
X58026442Y-169467982D01*
X58030128Y-169430559D01*
X58026442Y-169393136D01*
X58026442Y-168496178D01*
X58030128Y-168458755D01*
X58024621Y-168402844D01*
X58015416Y-168309378D01*
X58014993Y-168307983D01*
X58026259Y-168193592D01*
X58014855Y-168077798D01*
X58074465Y-168083669D01*
X59690000Y-169699204D01*
X59690001Y-172809567D01*
X59686314Y-172847000D01*
X59701027Y-172996378D01*
X59744599Y-173140015D01*
X59815355Y-173272392D01*
X59873004Y-173342637D01*
X59910579Y-173388422D01*
X59939649Y-173412279D01*
X60136876Y-173609506D01*
X60171414Y-173692889D01*
X60273738Y-173846028D01*
X60403972Y-173976262D01*
X60557111Y-174078586D01*
X60727271Y-174149068D01*
X60907911Y-174185000D01*
X61092089Y-174185000D01*
X61272729Y-174149068D01*
X61442889Y-174078586D01*
X61542542Y-174012000D01*
X62457458Y-174012000D01*
X62557111Y-174078586D01*
X62727271Y-174149068D01*
X62907911Y-174185000D01*
X63092089Y-174185000D01*
X63272729Y-174149068D01*
X63442889Y-174078586D01*
X63542542Y-174012000D01*
X63861928Y-174012000D01*
X63861928Y-174550000D01*
X63874188Y-174674482D01*
X63910498Y-174794180D01*
X63969463Y-174904494D01*
X64048815Y-175001185D01*
X64145506Y-175080537D01*
X64255820Y-175139502D01*
X64375518Y-175175812D01*
X64500000Y-175188072D01*
X66600000Y-175188072D01*
X66724482Y-175175812D01*
X66844180Y-175139502D01*
X66954494Y-175080537D01*
X67000000Y-175043191D01*
X67045506Y-175080537D01*
X67155820Y-175139502D01*
X67275518Y-175175812D01*
X67400000Y-175188072D01*
X69342400Y-175188072D01*
X69342400Y-183965393D01*
X69329620Y-184095734D01*
X69301118Y-184190137D01*
X69254932Y-184277000D01*
X12750215Y-184277000D01*
X12747621Y-184273865D01*
X12701760Y-184189046D01*
X12673249Y-184096941D01*
X12659993Y-183970823D01*
X12657707Y-175124978D01*
X12660498Y-175134180D01*
X12719463Y-175244494D01*
X12798815Y-175341185D01*
X12895506Y-175420537D01*
X13005820Y-175479502D01*
X13125518Y-175515812D01*
X13250000Y-175528072D01*
X14950000Y-175528072D01*
X15074482Y-175515812D01*
X15194180Y-175479502D01*
X15304494Y-175420537D01*
X15401185Y-175341185D01*
X15480537Y-175244494D01*
X15539502Y-175134180D01*
X15575812Y-175014482D01*
X15588072Y-174890000D01*
X15588072Y-173190000D01*
X15575812Y-173065518D01*
X15539502Y-172945820D01*
X15480537Y-172835506D01*
X15401185Y-172738815D01*
X15304494Y-172659463D01*
X15194180Y-172600498D01*
X15125313Y-172579607D01*
X15155134Y-172555134D01*
X15340706Y-172329014D01*
X15478599Y-172071034D01*
X15563513Y-171791111D01*
X15592185Y-171500000D01*
X15563513Y-171208889D01*
X15478599Y-170928966D01*
X15340706Y-170670986D01*
X15195807Y-170494426D01*
X16384339Y-169305894D01*
X16415925Y-169364988D01*
X16574630Y-169558370D01*
X16768012Y-169717075D01*
X16988641Y-169835003D01*
X17228037Y-169907623D01*
X17414620Y-169926000D01*
X18301380Y-169926000D01*
X18487963Y-169907623D01*
X18727359Y-169835003D01*
X18947988Y-169717075D01*
X19141370Y-169558370D01*
X19300075Y-169364988D01*
X19418003Y-169144359D01*
X19490623Y-168904963D01*
X19515144Y-168656000D01*
X19498948Y-168491559D01*
X19636000Y-168491559D01*
X19760482Y-168479299D01*
X19880180Y-168442989D01*
X19990494Y-168384024D01*
X20087185Y-168304672D01*
X20166537Y-168207981D01*
X20225502Y-168097667D01*
X20261812Y-167977969D01*
X20274072Y-167853487D01*
X20274072Y-167599488D01*
X21475253Y-167599488D01*
X25301928Y-171426164D01*
X25301928Y-173231000D01*
X25314188Y-173355482D01*
X25350498Y-173475180D01*
X25409463Y-173585494D01*
X25488815Y-173682185D01*
X25585506Y-173761537D01*
X25695820Y-173820502D01*
X25815518Y-173856812D01*
X25940000Y-173869072D01*
X26747517Y-173869072D01*
X26684104Y-174022166D01*
X26647500Y-174206187D01*
X26647500Y-174393813D01*
X26684104Y-174577834D01*
X26755905Y-174751178D01*
X26860145Y-174907184D01*
X26992816Y-175039855D01*
X27148822Y-175144095D01*
X27322166Y-175215896D01*
X27506187Y-175252500D01*
X27693813Y-175252500D01*
X27877834Y-175215896D01*
X28051178Y-175144095D01*
X28207184Y-175039855D01*
X28339855Y-174907184D01*
X28444095Y-174751178D01*
X28470992Y-174686242D01*
X28515234Y-174642000D01*
X28515239Y-174641996D01*
X28537736Y-174619499D01*
X28571659Y-174591659D01*
X28682753Y-174456291D01*
X28765303Y-174301851D01*
X28809311Y-174156775D01*
X28816136Y-174134275D01*
X28821621Y-174078586D01*
X28829000Y-174003667D01*
X28829000Y-174003661D01*
X28833300Y-173960001D01*
X28829000Y-173916341D01*
X28829000Y-173858140D01*
X28940000Y-173869072D01*
X29154250Y-173866000D01*
X29313000Y-173707250D01*
X29313000Y-172108000D01*
X29567000Y-172108000D01*
X29567000Y-173707250D01*
X29725750Y-173866000D01*
X29940000Y-173869072D01*
X30064482Y-173856812D01*
X30184180Y-173820502D01*
X30294494Y-173761537D01*
X30391185Y-173682185D01*
X30470537Y-173585494D01*
X30529502Y-173475180D01*
X30565812Y-173355482D01*
X30578072Y-173231000D01*
X30575000Y-172266750D01*
X30416250Y-172108000D01*
X29567000Y-172108000D01*
X29313000Y-172108000D01*
X29293000Y-172108000D01*
X29293000Y-171854000D01*
X29313000Y-171854000D01*
X29313000Y-171834000D01*
X29567000Y-171834000D01*
X29567000Y-171854000D01*
X30416250Y-171854000D01*
X30575000Y-171695250D01*
X30578072Y-170731000D01*
X30565812Y-170606518D01*
X30529502Y-170486820D01*
X30470537Y-170376506D01*
X30391185Y-170279815D01*
X30294494Y-170200463D01*
X30184180Y-170141498D01*
X30064482Y-170105188D01*
X29940000Y-170092928D01*
X29725750Y-170096000D01*
X29567002Y-170254748D01*
X29567002Y-170133399D01*
X29578072Y-170021000D01*
X29578072Y-166243000D01*
X32270765Y-166243000D01*
X33630506Y-167602741D01*
X33630506Y-167602741D01*
G37*
X33630506Y-167602741D02*
X33658341Y-167636659D01*
X33793709Y-167747753D01*
X33948149Y-167830303D01*
X34024578Y-167853487D01*
X34115725Y-167881136D01*
X34132325Y-167882771D01*
X34246333Y-167894000D01*
X34246340Y-167894000D01*
X34290000Y-167898300D01*
X34333660Y-167894000D01*
X34411928Y-167894000D01*
X34411928Y-168030000D01*
X34424188Y-168154482D01*
X34460498Y-168274180D01*
X34519463Y-168384494D01*
X34598815Y-168481185D01*
X34695506Y-168560537D01*
X34805820Y-168619502D01*
X34925518Y-168655812D01*
X35050000Y-168668072D01*
X36550000Y-168668072D01*
X36674482Y-168655812D01*
X36794180Y-168619502D01*
X36904494Y-168560537D01*
X36950000Y-168523191D01*
X36995506Y-168560537D01*
X37105820Y-168619502D01*
X37211001Y-168651408D01*
X37211000Y-171691928D01*
X36200000Y-171691928D01*
X36075518Y-171704188D01*
X35955820Y-171740498D01*
X35845506Y-171799463D01*
X35748815Y-171878815D01*
X35669463Y-171975506D01*
X35610498Y-172085820D01*
X35574188Y-172205518D01*
X35561928Y-172330000D01*
X35561928Y-174330000D01*
X35574188Y-174454482D01*
X35610498Y-174574180D01*
X35669463Y-174684494D01*
X35748815Y-174781185D01*
X35845506Y-174860537D01*
X35955820Y-174919502D01*
X36075518Y-174955812D01*
X36200000Y-174968072D01*
X37211000Y-174968072D01*
X37211001Y-179148523D01*
X37044866Y-179284866D01*
X36908523Y-179451000D01*
X36751477Y-179451000D01*
X36615134Y-179284866D01*
X36389014Y-179099294D01*
X36131034Y-178961401D01*
X35851111Y-178876487D01*
X35632950Y-178855000D01*
X35487050Y-178855000D01*
X35268889Y-178876487D01*
X34988966Y-178961401D01*
X34730986Y-179099294D01*
X34504866Y-179284866D01*
X34319294Y-179510986D01*
X34290000Y-179565791D01*
X34260706Y-179510986D01*
X34075134Y-179284866D01*
X33849014Y-179099294D01*
X33591034Y-178961401D01*
X33311111Y-178876487D01*
X33092950Y-178855000D01*
X32947050Y-178855000D01*
X32728889Y-178876487D01*
X32448966Y-178961401D01*
X32190986Y-179099294D01*
X31964866Y-179284866D01*
X31779294Y-179510986D01*
X31750000Y-179565791D01*
X31720706Y-179510986D01*
X31535134Y-179284866D01*
X31309014Y-179099294D01*
X31051034Y-178961401D01*
X30771111Y-178876487D01*
X30552950Y-178855000D01*
X30407050Y-178855000D01*
X30188889Y-178876487D01*
X29908966Y-178961401D01*
X29650986Y-179099294D01*
X29424866Y-179284866D01*
X29239294Y-179510986D01*
X29101401Y-179768966D01*
X29016487Y-180048889D01*
X28987815Y-180340000D01*
X29016487Y-180631111D01*
X29101401Y-180911034D01*
X29239294Y-181169014D01*
X29424866Y-181395134D01*
X29650986Y-181580706D01*
X29908966Y-181718599D01*
X30188889Y-181803513D01*
X30407050Y-181825000D01*
X30552950Y-181825000D01*
X30771111Y-181803513D01*
X31051034Y-181718599D01*
X31309014Y-181580706D01*
X31535134Y-181395134D01*
X31720706Y-181169014D01*
X31750000Y-181114209D01*
X31779294Y-181169014D01*
X31964866Y-181395134D01*
X32190986Y-181580706D01*
X32448966Y-181718599D01*
X32728889Y-181803513D01*
X32947050Y-181825000D01*
X33092950Y-181825000D01*
X33311111Y-181803513D01*
X33591034Y-181718599D01*
X33849014Y-181580706D01*
X34075134Y-181395134D01*
X34260706Y-181169014D01*
X34290000Y-181114209D01*
X34319294Y-181169014D01*
X34504866Y-181395134D01*
X34730986Y-181580706D01*
X34988966Y-181718599D01*
X35268889Y-181803513D01*
X35487050Y-181825000D01*
X35632950Y-181825000D01*
X35851111Y-181803513D01*
X36131034Y-181718599D01*
X36389014Y-181580706D01*
X36615134Y-181395134D01*
X36751477Y-181229000D01*
X36908523Y-181229000D01*
X37044866Y-181395134D01*
X37270986Y-181580706D01*
X37528966Y-181718599D01*
X37808889Y-181803513D01*
X38027050Y-181825000D01*
X38172950Y-181825000D01*
X38391111Y-181803513D01*
X38671034Y-181718599D01*
X38929014Y-181580706D01*
X39155134Y-181395134D01*
X39340706Y-181169014D01*
X39375201Y-181104477D01*
X39444822Y-181221355D01*
X39639731Y-181437588D01*
X39873080Y-181611641D01*
X40135901Y-181736825D01*
X40283110Y-181781476D01*
X40513000Y-181660155D01*
X40513000Y-180467000D01*
X40767000Y-180467000D01*
X40767000Y-181660155D01*
X40996890Y-181781476D01*
X41144099Y-181736825D01*
X41406920Y-181611641D01*
X41640269Y-181437588D01*
X41835178Y-181221355D01*
X41910000Y-181095745D01*
X41984822Y-181221355D01*
X42179731Y-181437588D01*
X42413080Y-181611641D01*
X42675901Y-181736825D01*
X42823110Y-181781476D01*
X43053000Y-181660155D01*
X43053000Y-180467000D01*
X40767000Y-180467000D01*
X40513000Y-180467000D01*
X40493000Y-180467000D01*
X40493000Y-180213000D01*
X40513000Y-180213000D01*
X40513000Y-179019845D01*
X40767000Y-179019845D01*
X40767000Y-180213000D01*
X43053000Y-180213000D01*
X43053000Y-179019845D01*
X43307000Y-179019845D01*
X43307000Y-180213000D01*
X43327000Y-180213000D01*
X43327000Y-180467000D01*
X43307000Y-180467000D01*
X43307000Y-181660155D01*
X43536890Y-181781476D01*
X43684099Y-181736825D01*
X43946920Y-181611641D01*
X44180269Y-181437588D01*
X44375178Y-181221355D01*
X44444799Y-181104477D01*
X44479294Y-181169014D01*
X44664866Y-181395134D01*
X44890986Y-181580706D01*
X45148966Y-181718599D01*
X45428889Y-181803513D01*
X45647050Y-181825000D01*
X45792950Y-181825000D01*
X46011111Y-181803513D01*
X46291034Y-181718599D01*
X46549014Y-181580706D01*
X46775134Y-181395134D01*
X46799607Y-181365313D01*
X46820498Y-181434180D01*
X46879463Y-181544494D01*
X46958815Y-181641185D01*
X47055506Y-181720537D01*
X47165820Y-181779502D01*
X47285518Y-181815812D01*
X47410000Y-181828072D01*
X49110000Y-181828072D01*
X49234482Y-181815812D01*
X49354180Y-181779502D01*
X49464494Y-181720537D01*
X49561185Y-181641185D01*
X49640537Y-181544494D01*
X49699502Y-181434180D01*
X49735812Y-181314482D01*
X49748072Y-181190000D01*
X49748072Y-180340000D01*
X51847815Y-180340000D01*
X51876487Y-180631111D01*
X51961401Y-180911034D01*
X52099294Y-181169014D01*
X52284866Y-181395134D01*
X52510986Y-181580706D01*
X52768966Y-181718599D01*
X53048889Y-181803513D01*
X53267050Y-181825000D01*
X53412950Y-181825000D01*
X53631111Y-181803513D01*
X53911034Y-181718599D01*
X54169014Y-181580706D01*
X54395134Y-181395134D01*
X54580706Y-181169014D01*
X54610000Y-181114209D01*
X54639294Y-181169014D01*
X54824866Y-181395134D01*
X55050986Y-181580706D01*
X55308966Y-181718599D01*
X55588889Y-181803513D01*
X55807050Y-181825000D01*
X55952950Y-181825000D01*
X56171111Y-181803513D01*
X56451034Y-181718599D01*
X56709014Y-181580706D01*
X56935134Y-181395134D01*
X57120706Y-181169014D01*
X57150000Y-181114209D01*
X57179294Y-181169014D01*
X57364866Y-181395134D01*
X57590986Y-181580706D01*
X57848966Y-181718599D01*
X58128889Y-181803513D01*
X58347050Y-181825000D01*
X58492950Y-181825000D01*
X58711111Y-181803513D01*
X58991034Y-181718599D01*
X59249014Y-181580706D01*
X59475134Y-181395134D01*
X59660706Y-181169014D01*
X59690000Y-181114209D01*
X59719294Y-181169014D01*
X59904866Y-181395134D01*
X60130986Y-181580706D01*
X60388966Y-181718599D01*
X60668889Y-181803513D01*
X60887050Y-181825000D01*
X61032950Y-181825000D01*
X61251111Y-181803513D01*
X61531034Y-181718599D01*
X61789014Y-181580706D01*
X62015134Y-181395134D01*
X62200706Y-181169014D01*
X62230000Y-181114209D01*
X62259294Y-181169014D01*
X62444866Y-181395134D01*
X62670986Y-181580706D01*
X62928966Y-181718599D01*
X63208889Y-181803513D01*
X63427050Y-181825000D01*
X63572950Y-181825000D01*
X63791111Y-181803513D01*
X64071034Y-181718599D01*
X64329014Y-181580706D01*
X64555134Y-181395134D01*
X64579607Y-181365313D01*
X64600498Y-181434180D01*
X64659463Y-181544494D01*
X64738815Y-181641185D01*
X64835506Y-181720537D01*
X64945820Y-181779502D01*
X65065518Y-181815812D01*
X65190000Y-181828072D01*
X66890000Y-181828072D01*
X67014482Y-181815812D01*
X67134180Y-181779502D01*
X67244494Y-181720537D01*
X67341185Y-181641185D01*
X67420537Y-181544494D01*
X67479502Y-181434180D01*
X67515812Y-181314482D01*
X67528072Y-181190000D01*
X67528072Y-179490000D01*
X67515812Y-179365518D01*
X67479502Y-179245820D01*
X67420537Y-179135506D01*
X67341185Y-179038815D01*
X67244494Y-178959463D01*
X67134180Y-178900498D01*
X67014482Y-178864188D01*
X66890000Y-178851928D01*
X65190000Y-178851928D01*
X65065518Y-178864188D01*
X64945820Y-178900498D01*
X64835506Y-178959463D01*
X64738815Y-179038815D01*
X64659463Y-179135506D01*
X64600498Y-179245820D01*
X64579607Y-179314687D01*
X64555134Y-179284866D01*
X64329014Y-179099294D01*
X64071034Y-178961401D01*
X63791111Y-178876487D01*
X63572950Y-178855000D01*
X63427050Y-178855000D01*
X63208889Y-178876487D01*
X62928966Y-178961401D01*
X62670986Y-179099294D01*
X62444866Y-179284866D01*
X62259294Y-179510986D01*
X62230000Y-179565791D01*
X62200706Y-179510986D01*
X62015134Y-179284866D01*
X61789014Y-179099294D01*
X61531034Y-178961401D01*
X61251111Y-178876487D01*
X61032950Y-178855000D01*
X60887050Y-178855000D01*
X60668889Y-178876487D01*
X60388966Y-178961401D01*
X60130986Y-179099294D01*
X59904866Y-179284866D01*
X59719294Y-179510986D01*
X59690000Y-179565791D01*
X59660706Y-179510986D01*
X59475134Y-179284866D01*
X59249014Y-179099294D01*
X58991034Y-178961401D01*
X58711111Y-178876487D01*
X58492950Y-178855000D01*
X58347050Y-178855000D01*
X58128889Y-178876487D01*
X57848966Y-178961401D01*
X57590986Y-179099294D01*
X57364866Y-179284866D01*
X57179294Y-179510986D01*
X57150000Y-179565791D01*
X57120706Y-179510986D01*
X56935134Y-179284866D01*
X56709014Y-179099294D01*
X56451034Y-178961401D01*
X56171111Y-178876487D01*
X55952950Y-178855000D01*
X55807050Y-178855000D01*
X55588889Y-178876487D01*
X55308966Y-178961401D01*
X55050986Y-179099294D01*
X54824866Y-179284866D01*
X54639294Y-179510986D01*
X54610000Y-179565791D01*
X54580706Y-179510986D01*
X54395134Y-179284866D01*
X54169014Y-179099294D01*
X53911034Y-178961401D01*
X53631111Y-178876487D01*
X53412950Y-178855000D01*
X53267050Y-178855000D01*
X53048889Y-178876487D01*
X52768966Y-178961401D01*
X52510986Y-179099294D01*
X52284866Y-179284866D01*
X52099294Y-179510986D01*
X51961401Y-179768966D01*
X51876487Y-180048889D01*
X51847815Y-180340000D01*
X49748072Y-180340000D01*
X49748072Y-179490000D01*
X49735812Y-179365518D01*
X49699502Y-179245820D01*
X49640537Y-179135506D01*
X49561185Y-179038815D01*
X49464494Y-178959463D01*
X49354180Y-178900498D01*
X49234482Y-178864188D01*
X49110000Y-178851928D01*
X47410000Y-178851928D01*
X47285518Y-178864188D01*
X47165820Y-178900498D01*
X47055506Y-178959463D01*
X46958815Y-179038815D01*
X46879463Y-179135506D01*
X46820498Y-179245820D01*
X46799607Y-179314687D01*
X46775134Y-179284866D01*
X46549014Y-179099294D01*
X46291034Y-178961401D01*
X46011111Y-178876487D01*
X45792950Y-178855000D01*
X45647050Y-178855000D01*
X45428889Y-178876487D01*
X45148966Y-178961401D01*
X44890986Y-179099294D01*
X44664866Y-179284866D01*
X44479294Y-179510986D01*
X44444799Y-179575523D01*
X44375178Y-179458645D01*
X44180269Y-179242412D01*
X43946920Y-179068359D01*
X43684099Y-178943175D01*
X43536890Y-178898524D01*
X43307000Y-179019845D01*
X43053000Y-179019845D01*
X42823110Y-178898524D01*
X42675901Y-178943175D01*
X42413080Y-179068359D01*
X42179731Y-179242412D01*
X41984822Y-179458645D01*
X41910000Y-179584255D01*
X41835178Y-179458645D01*
X41640269Y-179242412D01*
X41406920Y-179068359D01*
X41144099Y-178943175D01*
X40996890Y-178898524D01*
X40767000Y-179019845D01*
X40513000Y-179019845D01*
X40283110Y-178898524D01*
X40135901Y-178943175D01*
X39873080Y-179068359D01*
X39639731Y-179242412D01*
X39444822Y-179458645D01*
X39375201Y-179575523D01*
X39340706Y-179510986D01*
X39155134Y-179284866D01*
X38989000Y-179148523D01*
X38989000Y-174968072D01*
X40000000Y-174968072D01*
X40124482Y-174955812D01*
X40244180Y-174919502D01*
X40354494Y-174860537D01*
X40451185Y-174781185D01*
X40530537Y-174684494D01*
X40589502Y-174574180D01*
X40625812Y-174454482D01*
X40638072Y-174330000D01*
X40638072Y-172330000D01*
X40625812Y-172205518D01*
X40589502Y-172085820D01*
X40530537Y-171975506D01*
X40451185Y-171878815D01*
X40354494Y-171799463D01*
X40244180Y-171740498D01*
X40124482Y-171704188D01*
X40000000Y-171691928D01*
X38989000Y-171691928D01*
X38989000Y-168651408D01*
X39094180Y-168619502D01*
X39204494Y-168560537D01*
X39250000Y-168523191D01*
X39295506Y-168560537D01*
X39405820Y-168619502D01*
X39525518Y-168655812D01*
X39650000Y-168668072D01*
X41150000Y-168668072D01*
X41274482Y-168655812D01*
X41394180Y-168619502D01*
X41407902Y-168612167D01*
X41407902Y-169386468D01*
X41404215Y-169423901D01*
X41418928Y-169573279D01*
X41462500Y-169716916D01*
X41533256Y-169849293D01*
X41596742Y-169926650D01*
X41628480Y-169965323D01*
X41657550Y-169989180D01*
X45930721Y-174262352D01*
X45954578Y-174291422D01*
X45983648Y-174315279D01*
X46070607Y-174386645D01*
X46118044Y-174412000D01*
X46202985Y-174457402D01*
X46346622Y-174500974D01*
X46458574Y-174512000D01*
X46458577Y-174512000D01*
X46496000Y-174515686D01*
X46533423Y-174512000D01*
X48592454Y-174512000D01*
X48592637Y-174512122D01*
X48749147Y-174576951D01*
X48915297Y-174610000D01*
X49084703Y-174610000D01*
X49250853Y-174576951D01*
X49407363Y-174512122D01*
X49548218Y-174418005D01*
X49668005Y-174298218D01*
X49762122Y-174157363D01*
X49826951Y-174000853D01*
X49850791Y-173881000D01*
X49982568Y-173881000D01*
X50019991Y-173884686D01*
X50057414Y-173881000D01*
X50057417Y-173881000D01*
X50169369Y-173869974D01*
X50313006Y-173826402D01*
X50445383Y-173755645D01*
X50561413Y-173660422D01*
X50585274Y-173631347D01*
X51097556Y-173119066D01*
X51097772Y-173119023D01*
X51114727Y-173112000D01*
X52687426Y-173112000D01*
X52799378Y-173100974D01*
X52943015Y-173057402D01*
X53075392Y-172986645D01*
X53191422Y-172891422D01*
X53286645Y-172775392D01*
X53357402Y-172643015D01*
X53400974Y-172499378D01*
X53415686Y-172350000D01*
X53401737Y-172208368D01*
X53402006Y-172208637D01*
X53402049Y-172208853D01*
X53466878Y-172365363D01*
X53560995Y-172506218D01*
X53680782Y-172626005D01*
X53821637Y-172720122D01*
X53978147Y-172784951D01*
X54144297Y-172818000D01*
X54313703Y-172818000D01*
X54479853Y-172784951D01*
X54636363Y-172720122D01*
X54777218Y-172626005D01*
X54897005Y-172506218D01*
X54991122Y-172365363D01*
X55055951Y-172208853D01*
X55089000Y-172042703D01*
X55089000Y-171998501D01*
X55218637Y-172085122D01*
X55375147Y-172149951D01*
X55541297Y-172183000D01*
X55710703Y-172183000D01*
X55876853Y-172149951D01*
X56033363Y-172085122D01*
X56174218Y-171991005D01*
X56294005Y-171871218D01*
X56388122Y-171730363D01*
X56452951Y-171573853D01*
X56486000Y-171407703D01*
X56486000Y-171238297D01*
X56476563Y-171190855D01*
X57245774Y-171960066D01*
X57250104Y-171981834D01*
X57321905Y-172155178D01*
X57426145Y-172311184D01*
X57558816Y-172443855D01*
X57714822Y-172548095D01*
X57888166Y-172619896D01*
X58072187Y-172656500D01*
X58259813Y-172656500D01*
X58443834Y-172619896D01*
X58617178Y-172548095D01*
X58773184Y-172443855D01*
X58905855Y-172311184D01*
X59010095Y-172155178D01*
X59081896Y-171981834D01*
X59118500Y-171797813D01*
X59118500Y-171610187D01*
X59081896Y-171426166D01*
X59010095Y-171252822D01*
X58905855Y-171096816D01*
X58773184Y-170964145D01*
X58746486Y-170946306D01*
X57787352Y-169987172D01*
X57805864Y-169971980D01*
X57901087Y-169855950D01*
X57971844Y-169723573D01*
X58015416Y-169579936D01*
X58026442Y-169467984D01*
X58026442Y-169467982D01*
X58030128Y-169430559D01*
X58026442Y-169393136D01*
X58026442Y-168496178D01*
X58030128Y-168458755D01*
X58024621Y-168402844D01*
X58015416Y-168309378D01*
X58014993Y-168307983D01*
X58026259Y-168193592D01*
X58014855Y-168077798D01*
X58074465Y-168083669D01*
X59690000Y-169699204D01*
X59690001Y-172809567D01*
X59686314Y-172847000D01*
X59701027Y-172996378D01*
X59744599Y-173140015D01*
X59815355Y-173272392D01*
X59873004Y-173342637D01*
X59910579Y-173388422D01*
X59939649Y-173412279D01*
X60136876Y-173609506D01*
X60171414Y-173692889D01*
X60273738Y-173846028D01*
X60403972Y-173976262D01*
X60557111Y-174078586D01*
X60727271Y-174149068D01*
X60907911Y-174185000D01*
X61092089Y-174185000D01*
X61272729Y-174149068D01*
X61442889Y-174078586D01*
X61542542Y-174012000D01*
X62457458Y-174012000D01*
X62557111Y-174078586D01*
X62727271Y-174149068D01*
X62907911Y-174185000D01*
X63092089Y-174185000D01*
X63272729Y-174149068D01*
X63442889Y-174078586D01*
X63542542Y-174012000D01*
X63861928Y-174012000D01*
X63861928Y-174550000D01*
X63874188Y-174674482D01*
X63910498Y-174794180D01*
X63969463Y-174904494D01*
X64048815Y-175001185D01*
X64145506Y-175080537D01*
X64255820Y-175139502D01*
X64375518Y-175175812D01*
X64500000Y-175188072D01*
X66600000Y-175188072D01*
X66724482Y-175175812D01*
X66844180Y-175139502D01*
X66954494Y-175080537D01*
X67000000Y-175043191D01*
X67045506Y-175080537D01*
X67155820Y-175139502D01*
X67275518Y-175175812D01*
X67400000Y-175188072D01*
X69342400Y-175188072D01*
X69342400Y-183965393D01*
X69329620Y-184095734D01*
X69301118Y-184190137D01*
X69254932Y-184277000D01*
X12750215Y-184277000D01*
X12747621Y-184273865D01*
X12701760Y-184189046D01*
X12673249Y-184096941D01*
X12659993Y-183970823D01*
X12657707Y-175124978D01*
X12660498Y-175134180D01*
X12719463Y-175244494D01*
X12798815Y-175341185D01*
X12895506Y-175420537D01*
X13005820Y-175479502D01*
X13125518Y-175515812D01*
X13250000Y-175528072D01*
X14950000Y-175528072D01*
X15074482Y-175515812D01*
X15194180Y-175479502D01*
X15304494Y-175420537D01*
X15401185Y-175341185D01*
X15480537Y-175244494D01*
X15539502Y-175134180D01*
X15575812Y-175014482D01*
X15588072Y-174890000D01*
X15588072Y-173190000D01*
X15575812Y-173065518D01*
X15539502Y-172945820D01*
X15480537Y-172835506D01*
X15401185Y-172738815D01*
X15304494Y-172659463D01*
X15194180Y-172600498D01*
X15125313Y-172579607D01*
X15155134Y-172555134D01*
X15340706Y-172329014D01*
X15478599Y-172071034D01*
X15563513Y-171791111D01*
X15592185Y-171500000D01*
X15563513Y-171208889D01*
X15478599Y-170928966D01*
X15340706Y-170670986D01*
X15195807Y-170494426D01*
X16384339Y-169305894D01*
X16415925Y-169364988D01*
X16574630Y-169558370D01*
X16768012Y-169717075D01*
X16988641Y-169835003D01*
X17228037Y-169907623D01*
X17414620Y-169926000D01*
X18301380Y-169926000D01*
X18487963Y-169907623D01*
X18727359Y-169835003D01*
X18947988Y-169717075D01*
X19141370Y-169558370D01*
X19300075Y-169364988D01*
X19418003Y-169144359D01*
X19490623Y-168904963D01*
X19515144Y-168656000D01*
X19498948Y-168491559D01*
X19636000Y-168491559D01*
X19760482Y-168479299D01*
X19880180Y-168442989D01*
X19990494Y-168384024D01*
X20087185Y-168304672D01*
X20166537Y-168207981D01*
X20225502Y-168097667D01*
X20261812Y-167977969D01*
X20274072Y-167853487D01*
X20274072Y-167599488D01*
X21475253Y-167599488D01*
X25301928Y-171426164D01*
X25301928Y-173231000D01*
X25314188Y-173355482D01*
X25350498Y-173475180D01*
X25409463Y-173585494D01*
X25488815Y-173682185D01*
X25585506Y-173761537D01*
X25695820Y-173820502D01*
X25815518Y-173856812D01*
X25940000Y-173869072D01*
X26747517Y-173869072D01*
X26684104Y-174022166D01*
X26647500Y-174206187D01*
X26647500Y-174393813D01*
X26684104Y-174577834D01*
X26755905Y-174751178D01*
X26860145Y-174907184D01*
X26992816Y-175039855D01*
X27148822Y-175144095D01*
X27322166Y-175215896D01*
X27506187Y-175252500D01*
X27693813Y-175252500D01*
X27877834Y-175215896D01*
X28051178Y-175144095D01*
X28207184Y-175039855D01*
X28339855Y-174907184D01*
X28444095Y-174751178D01*
X28470992Y-174686242D01*
X28515234Y-174642000D01*
X28515239Y-174641996D01*
X28537736Y-174619499D01*
X28571659Y-174591659D01*
X28682753Y-174456291D01*
X28765303Y-174301851D01*
X28809311Y-174156775D01*
X28816136Y-174134275D01*
X28821621Y-174078586D01*
X28829000Y-174003667D01*
X28829000Y-174003661D01*
X28833300Y-173960001D01*
X28829000Y-173916341D01*
X28829000Y-173858140D01*
X28940000Y-173869072D01*
X29154250Y-173866000D01*
X29313000Y-173707250D01*
X29313000Y-172108000D01*
X29567000Y-172108000D01*
X29567000Y-173707250D01*
X29725750Y-173866000D01*
X29940000Y-173869072D01*
X30064482Y-173856812D01*
X30184180Y-173820502D01*
X30294494Y-173761537D01*
X30391185Y-173682185D01*
X30470537Y-173585494D01*
X30529502Y-173475180D01*
X30565812Y-173355482D01*
X30578072Y-173231000D01*
X30575000Y-172266750D01*
X30416250Y-172108000D01*
X29567000Y-172108000D01*
X29313000Y-172108000D01*
X29293000Y-172108000D01*
X29293000Y-171854000D01*
X29313000Y-171854000D01*
X29313000Y-171834000D01*
X29567000Y-171834000D01*
X29567000Y-171854000D01*
X30416250Y-171854000D01*
X30575000Y-171695250D01*
X30578072Y-170731000D01*
X30565812Y-170606518D01*
X30529502Y-170486820D01*
X30470537Y-170376506D01*
X30391185Y-170279815D01*
X30294494Y-170200463D01*
X30184180Y-170141498D01*
X30064482Y-170105188D01*
X29940000Y-170092928D01*
X29725750Y-170096000D01*
X29567002Y-170254748D01*
X29567002Y-170133399D01*
X29578072Y-170021000D01*
X29578072Y-166243000D01*
X32270765Y-166243000D01*
X33630506Y-167602741D01*
G36*
X50084920Y-171884525D02*
G01*
X50084797Y-171884709D01*
X50019968Y-172041219D01*
X50019925Y-172041435D01*
X49704361Y-172357000D01*
X49067368Y-172357000D01*
X49044378Y-172350026D01*
X48932426Y-172339000D01*
X48327658Y-172339000D01*
X48325000Y-172088750D01*
X48166250Y-171930000D01*
X47117000Y-171930000D01*
X47117000Y-171950000D01*
X46863000Y-171950000D01*
X46863000Y-171930000D01*
X46843000Y-171930000D01*
X46843000Y-171676000D01*
X46863000Y-171676000D01*
X46863000Y-171656000D01*
X47117000Y-171656000D01*
X47117000Y-171676000D01*
X48166250Y-171676000D01*
X48251921Y-171590329D01*
X48252707Y-171591506D01*
X48372494Y-171711293D01*
X48513349Y-171805410D01*
X48669859Y-171870239D01*
X48836009Y-171903288D01*
X49005415Y-171903288D01*
X49171565Y-171870239D01*
X49328075Y-171805410D01*
X49468930Y-171711293D01*
X49588717Y-171591506D01*
X49682834Y-171450651D01*
X49747663Y-171294141D01*
X49747706Y-171293924D01*
X50084919Y-170956711D01*
X50084920Y-171884525D01*
X50084920Y-171884525D01*
G37*
X50084920Y-171884525D02*
X50084797Y-171884709D01*
X50019968Y-172041219D01*
X50019925Y-172041435D01*
X49704361Y-172357000D01*
X49067368Y-172357000D01*
X49044378Y-172350026D01*
X48932426Y-172339000D01*
X48327658Y-172339000D01*
X48325000Y-172088750D01*
X48166250Y-171930000D01*
X47117000Y-171930000D01*
X47117000Y-171950000D01*
X46863000Y-171950000D01*
X46863000Y-171930000D01*
X46843000Y-171930000D01*
X46843000Y-171676000D01*
X46863000Y-171676000D01*
X46863000Y-171656000D01*
X47117000Y-171656000D01*
X47117000Y-171676000D01*
X48166250Y-171676000D01*
X48251921Y-171590329D01*
X48252707Y-171591506D01*
X48372494Y-171711293D01*
X48513349Y-171805410D01*
X48669859Y-171870239D01*
X48836009Y-171903288D01*
X49005415Y-171903288D01*
X49171565Y-171870239D01*
X49328075Y-171805410D01*
X49468930Y-171711293D01*
X49588717Y-171591506D01*
X49682834Y-171450651D01*
X49747663Y-171294141D01*
X49747706Y-171293924D01*
X50084919Y-170956711D01*
X50084920Y-171884525D01*
G36*
X41311928Y-161940000D02*
G01*
X41324188Y-162064482D01*
X41360498Y-162184180D01*
X41419463Y-162294494D01*
X41498815Y-162391185D01*
X41595506Y-162470537D01*
X41705820Y-162529502D01*
X41825518Y-162565812D01*
X41950000Y-162578072D01*
X42238001Y-162578072D01*
X42238001Y-162788293D01*
X42226049Y-162817147D01*
X42193000Y-162983297D01*
X42193000Y-163152703D01*
X42226049Y-163318853D01*
X42290878Y-163475363D01*
X42384995Y-163616218D01*
X42504782Y-163736005D01*
X42645637Y-163830122D01*
X42802147Y-163894951D01*
X42968297Y-163928000D01*
X43137703Y-163928000D01*
X43303853Y-163894951D01*
X43460363Y-163830122D01*
X43601218Y-163736005D01*
X43721005Y-163616218D01*
X43815122Y-163475363D01*
X43879951Y-163318853D01*
X43913000Y-163152703D01*
X43913000Y-162983297D01*
X43879951Y-162817147D01*
X43815122Y-162660637D01*
X43762000Y-162581135D01*
X43762000Y-162578072D01*
X44050000Y-162578072D01*
X44174482Y-162565812D01*
X44294180Y-162529502D01*
X44404494Y-162470537D01*
X44450000Y-162433191D01*
X44495506Y-162470537D01*
X44605820Y-162529502D01*
X44725518Y-162565812D01*
X44850000Y-162578072D01*
X46578748Y-162578072D01*
X46578748Y-166564320D01*
X46575061Y-166601753D01*
X46589774Y-166751131D01*
X46633346Y-166894768D01*
X46704102Y-167027145D01*
X46761735Y-167097370D01*
X46799326Y-167143175D01*
X46828396Y-167167032D01*
X48652363Y-168991000D01*
X48208545Y-168991000D01*
X48178405Y-168934613D01*
X48067962Y-168800038D01*
X47933387Y-168689595D01*
X47779851Y-168607528D01*
X47613255Y-168556992D01*
X47440001Y-168539928D01*
X46539999Y-168539928D01*
X46366745Y-168556992D01*
X46200149Y-168607528D01*
X46046613Y-168689595D01*
X45912038Y-168800038D01*
X45801595Y-168934613D01*
X45788537Y-168959042D01*
X45723147Y-168972049D01*
X45566637Y-169036878D01*
X45425782Y-169130995D01*
X45305995Y-169250782D01*
X45211878Y-169391637D01*
X45147049Y-169548147D01*
X45114000Y-169714297D01*
X45114000Y-169883703D01*
X45147049Y-170049853D01*
X45211878Y-170206363D01*
X45305995Y-170347218D01*
X45425782Y-170467005D01*
X45566637Y-170561122D01*
X45723147Y-170625951D01*
X45870415Y-170655244D01*
X45912038Y-170705962D01*
X45918594Y-170711342D01*
X45838815Y-170776815D01*
X45759463Y-170873506D01*
X45700498Y-170983820D01*
X45672701Y-171075456D01*
X43434000Y-168836756D01*
X43434000Y-166364792D01*
X43437686Y-166327369D01*
X43433734Y-166287247D01*
X43422974Y-166177991D01*
X43379402Y-166034354D01*
X43343780Y-165967710D01*
X43308645Y-165901976D01*
X43266228Y-165850292D01*
X43213422Y-165785947D01*
X43184347Y-165762086D01*
X42177904Y-164755643D01*
X42154042Y-164726567D01*
X42038012Y-164631344D01*
X41905635Y-164560587D01*
X41761998Y-164517015D01*
X41650046Y-164505989D01*
X41650043Y-164505989D01*
X41612620Y-164502303D01*
X41575197Y-164505989D01*
X39052500Y-164505989D01*
X39052500Y-164475676D01*
X39015896Y-164291655D01*
X38944095Y-164118311D01*
X38870606Y-164008328D01*
X38941829Y-163970258D01*
X38989000Y-163931546D01*
X39036171Y-163970258D01*
X39172418Y-164043084D01*
X39320255Y-164087929D01*
X39474000Y-164103072D01*
X39774000Y-164103072D01*
X39927745Y-164087929D01*
X40075582Y-164043084D01*
X40211829Y-163970258D01*
X40331251Y-163872251D01*
X40429258Y-163752829D01*
X40502084Y-163616582D01*
X40546929Y-163468745D01*
X40562072Y-163315000D01*
X40562072Y-161810558D01*
X40574630Y-161798000D01*
X41311928Y-161798000D01*
X41311928Y-161940000D01*
X41311928Y-161940000D01*
G37*
X41311928Y-161940000D02*
X41324188Y-162064482D01*
X41360498Y-162184180D01*
X41419463Y-162294494D01*
X41498815Y-162391185D01*
X41595506Y-162470537D01*
X41705820Y-162529502D01*
X41825518Y-162565812D01*
X41950000Y-162578072D01*
X42238001Y-162578072D01*
X42238001Y-162788293D01*
X42226049Y-162817147D01*
X42193000Y-162983297D01*
X42193000Y-163152703D01*
X42226049Y-163318853D01*
X42290878Y-163475363D01*
X42384995Y-163616218D01*
X42504782Y-163736005D01*
X42645637Y-163830122D01*
X42802147Y-163894951D01*
X42968297Y-163928000D01*
X43137703Y-163928000D01*
X43303853Y-163894951D01*
X43460363Y-163830122D01*
X43601218Y-163736005D01*
X43721005Y-163616218D01*
X43815122Y-163475363D01*
X43879951Y-163318853D01*
X43913000Y-163152703D01*
X43913000Y-162983297D01*
X43879951Y-162817147D01*
X43815122Y-162660637D01*
X43762000Y-162581135D01*
X43762000Y-162578072D01*
X44050000Y-162578072D01*
X44174482Y-162565812D01*
X44294180Y-162529502D01*
X44404494Y-162470537D01*
X44450000Y-162433191D01*
X44495506Y-162470537D01*
X44605820Y-162529502D01*
X44725518Y-162565812D01*
X44850000Y-162578072D01*
X46578748Y-162578072D01*
X46578748Y-166564320D01*
X46575061Y-166601753D01*
X46589774Y-166751131D01*
X46633346Y-166894768D01*
X46704102Y-167027145D01*
X46761735Y-167097370D01*
X46799326Y-167143175D01*
X46828396Y-167167032D01*
X48652363Y-168991000D01*
X48208545Y-168991000D01*
X48178405Y-168934613D01*
X48067962Y-168800038D01*
X47933387Y-168689595D01*
X47779851Y-168607528D01*
X47613255Y-168556992D01*
X47440001Y-168539928D01*
X46539999Y-168539928D01*
X46366745Y-168556992D01*
X46200149Y-168607528D01*
X46046613Y-168689595D01*
X45912038Y-168800038D01*
X45801595Y-168934613D01*
X45788537Y-168959042D01*
X45723147Y-168972049D01*
X45566637Y-169036878D01*
X45425782Y-169130995D01*
X45305995Y-169250782D01*
X45211878Y-169391637D01*
X45147049Y-169548147D01*
X45114000Y-169714297D01*
X45114000Y-169883703D01*
X45147049Y-170049853D01*
X45211878Y-170206363D01*
X45305995Y-170347218D01*
X45425782Y-170467005D01*
X45566637Y-170561122D01*
X45723147Y-170625951D01*
X45870415Y-170655244D01*
X45912038Y-170705962D01*
X45918594Y-170711342D01*
X45838815Y-170776815D01*
X45759463Y-170873506D01*
X45700498Y-170983820D01*
X45672701Y-171075456D01*
X43434000Y-168836756D01*
X43434000Y-166364792D01*
X43437686Y-166327369D01*
X43433734Y-166287247D01*
X43422974Y-166177991D01*
X43379402Y-166034354D01*
X43343780Y-165967710D01*
X43308645Y-165901976D01*
X43266228Y-165850292D01*
X43213422Y-165785947D01*
X43184347Y-165762086D01*
X42177904Y-164755643D01*
X42154042Y-164726567D01*
X42038012Y-164631344D01*
X41905635Y-164560587D01*
X41761998Y-164517015D01*
X41650046Y-164505989D01*
X41650043Y-164505989D01*
X41612620Y-164502303D01*
X41575197Y-164505989D01*
X39052500Y-164505989D01*
X39052500Y-164475676D01*
X39015896Y-164291655D01*
X38944095Y-164118311D01*
X38870606Y-164008328D01*
X38941829Y-163970258D01*
X38989000Y-163931546D01*
X39036171Y-163970258D01*
X39172418Y-164043084D01*
X39320255Y-164087929D01*
X39474000Y-164103072D01*
X39774000Y-164103072D01*
X39927745Y-164087929D01*
X40075582Y-164043084D01*
X40211829Y-163970258D01*
X40331251Y-163872251D01*
X40429258Y-163752829D01*
X40502084Y-163616582D01*
X40546929Y-163468745D01*
X40562072Y-163315000D01*
X40562072Y-161810558D01*
X40574630Y-161798000D01*
X41311928Y-161798000D01*
X41311928Y-161940000D01*
G36*
X18104711Y-158098342D02*
G01*
X18128568Y-158127412D01*
X18244598Y-158222635D01*
X18376975Y-158293392D01*
X18520612Y-158336964D01*
X18632564Y-158347990D01*
X18632566Y-158347990D01*
X18669989Y-158351676D01*
X18707412Y-158347990D01*
X24786928Y-158347990D01*
X24786928Y-158990001D01*
X24803992Y-159163255D01*
X24854528Y-159329851D01*
X24936595Y-159483387D01*
X25047038Y-159617962D01*
X25181613Y-159728405D01*
X25296849Y-159790000D01*
X25181613Y-159851595D01*
X25047038Y-159962038D01*
X24936595Y-160096613D01*
X24854528Y-160250149D01*
X24803992Y-160416745D01*
X24786928Y-160589999D01*
X24786928Y-161490001D01*
X24803992Y-161663255D01*
X24854528Y-161829851D01*
X24936595Y-161983387D01*
X25047038Y-162117962D01*
X25181613Y-162228405D01*
X25335149Y-162310472D01*
X25501745Y-162361008D01*
X25674999Y-162378072D01*
X26325001Y-162378072D01*
X26498255Y-162361008D01*
X26664851Y-162310472D01*
X26818387Y-162228405D01*
X26952962Y-162117962D01*
X27025000Y-162030184D01*
X27097038Y-162117962D01*
X27231613Y-162228405D01*
X27385149Y-162310472D01*
X27551745Y-162361008D01*
X27724999Y-162378072D01*
X28313574Y-162378072D01*
X28238905Y-162489822D01*
X28167104Y-162663166D01*
X28130500Y-162847187D01*
X28130500Y-163034813D01*
X28167104Y-163218834D01*
X28236139Y-163385500D01*
X22102357Y-163385500D01*
X22149068Y-163272729D01*
X22185000Y-163092089D01*
X22185000Y-162907911D01*
X22149068Y-162727271D01*
X22078586Y-162557111D01*
X21976262Y-162403972D01*
X21846028Y-162273738D01*
X21692889Y-162171414D01*
X21522729Y-162100932D01*
X21342089Y-162065000D01*
X21157911Y-162065000D01*
X20977271Y-162100932D01*
X20807111Y-162171414D01*
X20653972Y-162273738D01*
X20558210Y-162369500D01*
X20263828Y-162369500D01*
X20274072Y-162265487D01*
X20274072Y-161711513D01*
X20261812Y-161587031D01*
X20258390Y-161575750D01*
X20261812Y-161564469D01*
X20274072Y-161439987D01*
X20274072Y-161140013D01*
X20273209Y-161131250D01*
X20274072Y-161122487D01*
X20274072Y-160822513D01*
X20261812Y-160698031D01*
X20225502Y-160578333D01*
X20166537Y-160468019D01*
X20087185Y-160371328D01*
X19990494Y-160291976D01*
X19880180Y-160233011D01*
X19760482Y-160196701D01*
X19636000Y-160184441D01*
X19498948Y-160184441D01*
X19515144Y-160020000D01*
X19490623Y-159771037D01*
X19418003Y-159531641D01*
X19300075Y-159311012D01*
X19141370Y-159117630D01*
X18947988Y-158958925D01*
X18727359Y-158840997D01*
X18487963Y-158768377D01*
X18301380Y-158750000D01*
X17414620Y-158750000D01*
X17228037Y-158768377D01*
X16988641Y-158840997D01*
X16768012Y-158958925D01*
X16574630Y-159117630D01*
X16415925Y-159311012D01*
X16297997Y-159531641D01*
X16225377Y-159771037D01*
X16200856Y-160020000D01*
X16225377Y-160268963D01*
X16297997Y-160508359D01*
X16415925Y-160728988D01*
X16574630Y-160922370D01*
X16768012Y-161081075D01*
X16988641Y-161199003D01*
X17228037Y-161271623D01*
X17324779Y-161281151D01*
X17344395Y-161297250D01*
X17316578Y-161320078D01*
X17292721Y-161349148D01*
X17218648Y-161423221D01*
X17189577Y-161447079D01*
X17165720Y-161476149D01*
X15487654Y-163154216D01*
X15458578Y-163178078D01*
X15413708Y-163232753D01*
X15363355Y-163294108D01*
X15345817Y-163326920D01*
X15292598Y-163426486D01*
X15249026Y-163570123D01*
X15238536Y-163676637D01*
X15234314Y-163719500D01*
X15238000Y-163756924D01*
X15238001Y-165060567D01*
X15234314Y-165098000D01*
X15249027Y-165247378D01*
X15292599Y-165391015D01*
X15363355Y-165523392D01*
X15434721Y-165610351D01*
X15458579Y-165639422D01*
X15487649Y-165663279D01*
X16500066Y-166675696D01*
X15000665Y-168175098D01*
X14998403Y-168167641D01*
X14880475Y-167947012D01*
X14721770Y-167753630D01*
X14528388Y-167594925D01*
X14307759Y-167476997D01*
X14068363Y-167404377D01*
X13881780Y-167386000D01*
X13198220Y-167386000D01*
X13011637Y-167404377D01*
X12772241Y-167476997D01*
X12655746Y-167539265D01*
X12654091Y-161135851D01*
X12772241Y-161199003D01*
X13011637Y-161271623D01*
X13198220Y-161290000D01*
X13881780Y-161290000D01*
X14068363Y-161271623D01*
X14307759Y-161199003D01*
X14528388Y-161081075D01*
X14721770Y-160922370D01*
X14880475Y-160728988D01*
X14998403Y-160508359D01*
X15071023Y-160268963D01*
X15095544Y-160020000D01*
X15071023Y-159771037D01*
X14998403Y-159531641D01*
X14880475Y-159311012D01*
X14721770Y-159117630D01*
X14528388Y-158958925D01*
X14307759Y-158840997D01*
X14068363Y-158768377D01*
X13881780Y-158750000D01*
X13198220Y-158750000D01*
X13011637Y-158768377D01*
X12772241Y-158840997D01*
X12653514Y-158904457D01*
X12652367Y-154466655D01*
X12715518Y-154485812D01*
X12840000Y-154498072D01*
X13840000Y-154498072D01*
X13964482Y-154485812D01*
X14084180Y-154449502D01*
X14194494Y-154390537D01*
X14291185Y-154311185D01*
X14303071Y-154296701D01*
X18104711Y-158098342D01*
X18104711Y-158098342D01*
G37*
X18104711Y-158098342D02*
X18128568Y-158127412D01*
X18244598Y-158222635D01*
X18376975Y-158293392D01*
X18520612Y-158336964D01*
X18632564Y-158347990D01*
X18632566Y-158347990D01*
X18669989Y-158351676D01*
X18707412Y-158347990D01*
X24786928Y-158347990D01*
X24786928Y-158990001D01*
X24803992Y-159163255D01*
X24854528Y-159329851D01*
X24936595Y-159483387D01*
X25047038Y-159617962D01*
X25181613Y-159728405D01*
X25296849Y-159790000D01*
X25181613Y-159851595D01*
X25047038Y-159962038D01*
X24936595Y-160096613D01*
X24854528Y-160250149D01*
X24803992Y-160416745D01*
X24786928Y-160589999D01*
X24786928Y-161490001D01*
X24803992Y-161663255D01*
X24854528Y-161829851D01*
X24936595Y-161983387D01*
X25047038Y-162117962D01*
X25181613Y-162228405D01*
X25335149Y-162310472D01*
X25501745Y-162361008D01*
X25674999Y-162378072D01*
X26325001Y-162378072D01*
X26498255Y-162361008D01*
X26664851Y-162310472D01*
X26818387Y-162228405D01*
X26952962Y-162117962D01*
X27025000Y-162030184D01*
X27097038Y-162117962D01*
X27231613Y-162228405D01*
X27385149Y-162310472D01*
X27551745Y-162361008D01*
X27724999Y-162378072D01*
X28313574Y-162378072D01*
X28238905Y-162489822D01*
X28167104Y-162663166D01*
X28130500Y-162847187D01*
X28130500Y-163034813D01*
X28167104Y-163218834D01*
X28236139Y-163385500D01*
X22102357Y-163385500D01*
X22149068Y-163272729D01*
X22185000Y-163092089D01*
X22185000Y-162907911D01*
X22149068Y-162727271D01*
X22078586Y-162557111D01*
X21976262Y-162403972D01*
X21846028Y-162273738D01*
X21692889Y-162171414D01*
X21522729Y-162100932D01*
X21342089Y-162065000D01*
X21157911Y-162065000D01*
X20977271Y-162100932D01*
X20807111Y-162171414D01*
X20653972Y-162273738D01*
X20558210Y-162369500D01*
X20263828Y-162369500D01*
X20274072Y-162265487D01*
X20274072Y-161711513D01*
X20261812Y-161587031D01*
X20258390Y-161575750D01*
X20261812Y-161564469D01*
X20274072Y-161439987D01*
X20274072Y-161140013D01*
X20273209Y-161131250D01*
X20274072Y-161122487D01*
X20274072Y-160822513D01*
X20261812Y-160698031D01*
X20225502Y-160578333D01*
X20166537Y-160468019D01*
X20087185Y-160371328D01*
X19990494Y-160291976D01*
X19880180Y-160233011D01*
X19760482Y-160196701D01*
X19636000Y-160184441D01*
X19498948Y-160184441D01*
X19515144Y-160020000D01*
X19490623Y-159771037D01*
X19418003Y-159531641D01*
X19300075Y-159311012D01*
X19141370Y-159117630D01*
X18947988Y-158958925D01*
X18727359Y-158840997D01*
X18487963Y-158768377D01*
X18301380Y-158750000D01*
X17414620Y-158750000D01*
X17228037Y-158768377D01*
X16988641Y-158840997D01*
X16768012Y-158958925D01*
X16574630Y-159117630D01*
X16415925Y-159311012D01*
X16297997Y-159531641D01*
X16225377Y-159771037D01*
X16200856Y-160020000D01*
X16225377Y-160268963D01*
X16297997Y-160508359D01*
X16415925Y-160728988D01*
X16574630Y-160922370D01*
X16768012Y-161081075D01*
X16988641Y-161199003D01*
X17228037Y-161271623D01*
X17324779Y-161281151D01*
X17344395Y-161297250D01*
X17316578Y-161320078D01*
X17292721Y-161349148D01*
X17218648Y-161423221D01*
X17189577Y-161447079D01*
X17165720Y-161476149D01*
X15487654Y-163154216D01*
X15458578Y-163178078D01*
X15413708Y-163232753D01*
X15363355Y-163294108D01*
X15345817Y-163326920D01*
X15292598Y-163426486D01*
X15249026Y-163570123D01*
X15238536Y-163676637D01*
X15234314Y-163719500D01*
X15238000Y-163756924D01*
X15238001Y-165060567D01*
X15234314Y-165098000D01*
X15249027Y-165247378D01*
X15292599Y-165391015D01*
X15363355Y-165523392D01*
X15434721Y-165610351D01*
X15458579Y-165639422D01*
X15487649Y-165663279D01*
X16500066Y-166675696D01*
X15000665Y-168175098D01*
X14998403Y-168167641D01*
X14880475Y-167947012D01*
X14721770Y-167753630D01*
X14528388Y-167594925D01*
X14307759Y-167476997D01*
X14068363Y-167404377D01*
X13881780Y-167386000D01*
X13198220Y-167386000D01*
X13011637Y-167404377D01*
X12772241Y-167476997D01*
X12655746Y-167539265D01*
X12654091Y-161135851D01*
X12772241Y-161199003D01*
X13011637Y-161271623D01*
X13198220Y-161290000D01*
X13881780Y-161290000D01*
X14068363Y-161271623D01*
X14307759Y-161199003D01*
X14528388Y-161081075D01*
X14721770Y-160922370D01*
X14880475Y-160728988D01*
X14998403Y-160508359D01*
X15071023Y-160268963D01*
X15095544Y-160020000D01*
X15071023Y-159771037D01*
X14998403Y-159531641D01*
X14880475Y-159311012D01*
X14721770Y-159117630D01*
X14528388Y-158958925D01*
X14307759Y-158840997D01*
X14068363Y-158768377D01*
X13881780Y-158750000D01*
X13198220Y-158750000D01*
X13011637Y-158768377D01*
X12772241Y-158840997D01*
X12653514Y-158904457D01*
X12652367Y-154466655D01*
X12715518Y-154485812D01*
X12840000Y-154498072D01*
X13840000Y-154498072D01*
X13964482Y-154485812D01*
X14084180Y-154449502D01*
X14194494Y-154390537D01*
X14291185Y-154311185D01*
X14303071Y-154296701D01*
X18104711Y-158098342D01*
G36*
X53542889Y-161326222D02*
G01*
X53639580Y-161405574D01*
X53640057Y-161405829D01*
X53640313Y-161406308D01*
X53719665Y-161502999D01*
X54108574Y-161891908D01*
X54205265Y-161971260D01*
X54205744Y-161971516D01*
X54205999Y-161971993D01*
X54285351Y-162068684D01*
X54674260Y-162457593D01*
X54770951Y-162536945D01*
X54771429Y-162537200D01*
X54771684Y-162537678D01*
X54851036Y-162634369D01*
X55239945Y-163023278D01*
X55336636Y-163102630D01*
X55337114Y-163102886D01*
X55337370Y-163103364D01*
X55416722Y-163200055D01*
X55805631Y-163588964D01*
X55902322Y-163668316D01*
X55902800Y-163668571D01*
X55903055Y-163669049D01*
X55982407Y-163765740D01*
X56371316Y-164154649D01*
X56468007Y-164234001D01*
X56468484Y-164234256D01*
X56468740Y-164234735D01*
X56548092Y-164331426D01*
X56604729Y-164388063D01*
X56538980Y-164431995D01*
X56419193Y-164551782D01*
X56325076Y-164692637D01*
X56260247Y-164849147D01*
X56227198Y-165015297D01*
X56227198Y-165184703D01*
X56260247Y-165350853D01*
X56325076Y-165507363D01*
X56419193Y-165648218D01*
X56538980Y-165768005D01*
X56604729Y-165811937D01*
X56548092Y-165868574D01*
X56468740Y-165965265D01*
X56468179Y-165966315D01*
X56381090Y-166039922D01*
X56381090Y-166170141D01*
X56373465Y-166195277D01*
X56361205Y-166319759D01*
X56372609Y-166435553D01*
X56256816Y-166424149D01*
X56132334Y-166436409D01*
X56107198Y-166444034D01*
X55976978Y-166444034D01*
X55903370Y-166531124D01*
X55902322Y-166531684D01*
X55805631Y-166611036D01*
X55416722Y-166999945D01*
X55337370Y-167096636D01*
X55336809Y-167097685D01*
X55249719Y-167171293D01*
X55249719Y-167301515D01*
X55242095Y-167326648D01*
X55236579Y-167382657D01*
X55137467Y-167283545D01*
X55099546Y-167321466D01*
X55078969Y-167271790D01*
X54984852Y-167130935D01*
X54865065Y-167011148D01*
X54724210Y-166917031D01*
X54567700Y-166852202D01*
X54401550Y-166819153D01*
X54232144Y-166819153D01*
X54065994Y-166852202D01*
X53909484Y-166917031D01*
X53909301Y-166917153D01*
X52101017Y-166917153D01*
X52110218Y-166911005D01*
X52230005Y-166791218D01*
X52324122Y-166650363D01*
X52388951Y-166493853D01*
X52422000Y-166327703D01*
X52422000Y-166158297D01*
X52388951Y-165992147D01*
X52324122Y-165835637D01*
X52230005Y-165694782D01*
X52205634Y-165670411D01*
X52330051Y-165545994D01*
X52330267Y-165545951D01*
X52486777Y-165481122D01*
X52627632Y-165387005D01*
X52747419Y-165267218D01*
X52841536Y-165126363D01*
X52906365Y-164969853D01*
X52939414Y-164803703D01*
X52939414Y-164634297D01*
X52933670Y-164605421D01*
X52965777Y-164592122D01*
X53106632Y-164498005D01*
X53226419Y-164378218D01*
X53320536Y-164237363D01*
X53385365Y-164080853D01*
X53418414Y-163914703D01*
X53418414Y-163745297D01*
X53385365Y-163579147D01*
X53320536Y-163422637D01*
X53226419Y-163281782D01*
X53106632Y-163161995D01*
X52965777Y-163067878D01*
X52809267Y-163003049D01*
X52809051Y-163003006D01*
X52134689Y-162328644D01*
X52394649Y-162068684D01*
X52474001Y-161971993D01*
X52474561Y-161970946D01*
X52561652Y-161897337D01*
X52561652Y-161767114D01*
X52569276Y-161741981D01*
X52581536Y-161617499D01*
X52570132Y-161501705D01*
X52685926Y-161513109D01*
X52810408Y-161500849D01*
X52835541Y-161493225D01*
X52965764Y-161493225D01*
X53039373Y-161406134D01*
X53040420Y-161405574D01*
X53137111Y-161326222D01*
X53340000Y-161123333D01*
X53542889Y-161326222D01*
X53542889Y-161326222D01*
G37*
X53542889Y-161326222D02*
X53639580Y-161405574D01*
X53640057Y-161405829D01*
X53640313Y-161406308D01*
X53719665Y-161502999D01*
X54108574Y-161891908D01*
X54205265Y-161971260D01*
X54205744Y-161971516D01*
X54205999Y-161971993D01*
X54285351Y-162068684D01*
X54674260Y-162457593D01*
X54770951Y-162536945D01*
X54771429Y-162537200D01*
X54771684Y-162537678D01*
X54851036Y-162634369D01*
X55239945Y-163023278D01*
X55336636Y-163102630D01*
X55337114Y-163102886D01*
X55337370Y-163103364D01*
X55416722Y-163200055D01*
X55805631Y-163588964D01*
X55902322Y-163668316D01*
X55902800Y-163668571D01*
X55903055Y-163669049D01*
X55982407Y-163765740D01*
X56371316Y-164154649D01*
X56468007Y-164234001D01*
X56468484Y-164234256D01*
X56468740Y-164234735D01*
X56548092Y-164331426D01*
X56604729Y-164388063D01*
X56538980Y-164431995D01*
X56419193Y-164551782D01*
X56325076Y-164692637D01*
X56260247Y-164849147D01*
X56227198Y-165015297D01*
X56227198Y-165184703D01*
X56260247Y-165350853D01*
X56325076Y-165507363D01*
X56419193Y-165648218D01*
X56538980Y-165768005D01*
X56604729Y-165811937D01*
X56548092Y-165868574D01*
X56468740Y-165965265D01*
X56468179Y-165966315D01*
X56381090Y-166039922D01*
X56381090Y-166170141D01*
X56373465Y-166195277D01*
X56361205Y-166319759D01*
X56372609Y-166435553D01*
X56256816Y-166424149D01*
X56132334Y-166436409D01*
X56107198Y-166444034D01*
X55976978Y-166444034D01*
X55903370Y-166531124D01*
X55902322Y-166531684D01*
X55805631Y-166611036D01*
X55416722Y-166999945D01*
X55337370Y-167096636D01*
X55336809Y-167097685D01*
X55249719Y-167171293D01*
X55249719Y-167301515D01*
X55242095Y-167326648D01*
X55236579Y-167382657D01*
X55137467Y-167283545D01*
X55099546Y-167321466D01*
X55078969Y-167271790D01*
X54984852Y-167130935D01*
X54865065Y-167011148D01*
X54724210Y-166917031D01*
X54567700Y-166852202D01*
X54401550Y-166819153D01*
X54232144Y-166819153D01*
X54065994Y-166852202D01*
X53909484Y-166917031D01*
X53909301Y-166917153D01*
X52101017Y-166917153D01*
X52110218Y-166911005D01*
X52230005Y-166791218D01*
X52324122Y-166650363D01*
X52388951Y-166493853D01*
X52422000Y-166327703D01*
X52422000Y-166158297D01*
X52388951Y-165992147D01*
X52324122Y-165835637D01*
X52230005Y-165694782D01*
X52205634Y-165670411D01*
X52330051Y-165545994D01*
X52330267Y-165545951D01*
X52486777Y-165481122D01*
X52627632Y-165387005D01*
X52747419Y-165267218D01*
X52841536Y-165126363D01*
X52906365Y-164969853D01*
X52939414Y-164803703D01*
X52939414Y-164634297D01*
X52933670Y-164605421D01*
X52965777Y-164592122D01*
X53106632Y-164498005D01*
X53226419Y-164378218D01*
X53320536Y-164237363D01*
X53385365Y-164080853D01*
X53418414Y-163914703D01*
X53418414Y-163745297D01*
X53385365Y-163579147D01*
X53320536Y-163422637D01*
X53226419Y-163281782D01*
X53106632Y-163161995D01*
X52965777Y-163067878D01*
X52809267Y-163003049D01*
X52809051Y-163003006D01*
X52134689Y-162328644D01*
X52394649Y-162068684D01*
X52474001Y-161971993D01*
X52474561Y-161970946D01*
X52561652Y-161897337D01*
X52561652Y-161767114D01*
X52569276Y-161741981D01*
X52581536Y-161617499D01*
X52570132Y-161501705D01*
X52685926Y-161513109D01*
X52810408Y-161500849D01*
X52835541Y-161493225D01*
X52965764Y-161493225D01*
X53039373Y-161406134D01*
X53040420Y-161405574D01*
X53137111Y-161326222D01*
X53340000Y-161123333D01*
X53542889Y-161326222D01*
G36*
X16001928Y-147560000D02*
G01*
X16014188Y-147684482D01*
X16050498Y-147804180D01*
X16109463Y-147914494D01*
X16188815Y-148011185D01*
X16285506Y-148090537D01*
X16395820Y-148149502D01*
X16515518Y-148185812D01*
X16640000Y-148198072D01*
X17640000Y-148198072D01*
X17764482Y-148185812D01*
X17884180Y-148149502D01*
X17994494Y-148090537D01*
X18091185Y-148011185D01*
X18170537Y-147914494D01*
X18229502Y-147804180D01*
X18265812Y-147684482D01*
X18278072Y-147560000D01*
X18278072Y-146177000D01*
X69336932Y-146177000D01*
X69342401Y-146229038D01*
X69342401Y-161293964D01*
X69211252Y-161215843D01*
X68936891Y-161118519D01*
X68707000Y-161239186D01*
X68707000Y-162433000D01*
X68727000Y-162433000D01*
X68727000Y-162687000D01*
X68707000Y-162687000D01*
X68707000Y-162707000D01*
X68453000Y-162707000D01*
X68453000Y-162687000D01*
X68433000Y-162687000D01*
X68433000Y-162433000D01*
X68453000Y-162433000D01*
X68453000Y-161239186D01*
X68223109Y-161118519D01*
X67948748Y-161215843D01*
X67866830Y-161264639D01*
X67851403Y-161213784D01*
X67811972Y-161140013D01*
X67780646Y-161081406D01*
X67709280Y-160994447D01*
X67685423Y-160965377D01*
X67656353Y-160941520D01*
X61396486Y-154681654D01*
X61372624Y-154652578D01*
X61256594Y-154557355D01*
X61124217Y-154486598D01*
X60980580Y-154443026D01*
X60868628Y-154432000D01*
X60868625Y-154432000D01*
X60831202Y-154428314D01*
X60793779Y-154432000D01*
X57811546Y-154432000D01*
X57811363Y-154431878D01*
X57654853Y-154367049D01*
X57488703Y-154334000D01*
X57319297Y-154334000D01*
X57153147Y-154367049D01*
X56996637Y-154431878D01*
X56855782Y-154525995D01*
X56735995Y-154645782D01*
X56641878Y-154786637D01*
X56577049Y-154943147D01*
X56544000Y-155109297D01*
X56544000Y-155160890D01*
X56430408Y-155138295D01*
X56261002Y-155138295D01*
X56094852Y-155171344D01*
X55970488Y-155222858D01*
X54102000Y-153354370D01*
X54102000Y-151136526D01*
X54169014Y-151100706D01*
X54395134Y-150915134D01*
X54580706Y-150689014D01*
X54610000Y-150634209D01*
X54639294Y-150689014D01*
X54824866Y-150915134D01*
X55050986Y-151100706D01*
X55308966Y-151238599D01*
X55588889Y-151323513D01*
X55807050Y-151345000D01*
X55952950Y-151345000D01*
X56171111Y-151323513D01*
X56451034Y-151238599D01*
X56709014Y-151100706D01*
X56935134Y-150915134D01*
X57120706Y-150689014D01*
X57150000Y-150634209D01*
X57179294Y-150689014D01*
X57364866Y-150915134D01*
X57590986Y-151100706D01*
X57848966Y-151238599D01*
X58128889Y-151323513D01*
X58347050Y-151345000D01*
X58492950Y-151345000D01*
X58711111Y-151323513D01*
X58991034Y-151238599D01*
X59249014Y-151100706D01*
X59475134Y-150915134D01*
X59660706Y-150689014D01*
X59690000Y-150634209D01*
X59719294Y-150689014D01*
X59904866Y-150915134D01*
X60130986Y-151100706D01*
X60388966Y-151238599D01*
X60668889Y-151323513D01*
X60887050Y-151345000D01*
X61032950Y-151345000D01*
X61251111Y-151323513D01*
X61531034Y-151238599D01*
X61789014Y-151100706D01*
X62015134Y-150915134D01*
X62200706Y-150689014D01*
X62230000Y-150634209D01*
X62259294Y-150689014D01*
X62444866Y-150915134D01*
X62670986Y-151100706D01*
X62928966Y-151238599D01*
X63208889Y-151323513D01*
X63427050Y-151345000D01*
X63572950Y-151345000D01*
X63791111Y-151323513D01*
X64071034Y-151238599D01*
X64329014Y-151100706D01*
X64555134Y-150915134D01*
X64579607Y-150885313D01*
X64600498Y-150954180D01*
X64659463Y-151064494D01*
X64738815Y-151161185D01*
X64835506Y-151240537D01*
X64945820Y-151299502D01*
X65065518Y-151335812D01*
X65190000Y-151348072D01*
X66890000Y-151348072D01*
X67014482Y-151335812D01*
X67134180Y-151299502D01*
X67244494Y-151240537D01*
X67341185Y-151161185D01*
X67420537Y-151064494D01*
X67479502Y-150954180D01*
X67515812Y-150834482D01*
X67528072Y-150710000D01*
X67528072Y-149010000D01*
X67515812Y-148885518D01*
X67479502Y-148765820D01*
X67420537Y-148655506D01*
X67341185Y-148558815D01*
X67244494Y-148479463D01*
X67134180Y-148420498D01*
X67014482Y-148384188D01*
X66890000Y-148371928D01*
X65190000Y-148371928D01*
X65065518Y-148384188D01*
X64945820Y-148420498D01*
X64835506Y-148479463D01*
X64738815Y-148558815D01*
X64659463Y-148655506D01*
X64600498Y-148765820D01*
X64579607Y-148834687D01*
X64555134Y-148804866D01*
X64329014Y-148619294D01*
X64071034Y-148481401D01*
X63791111Y-148396487D01*
X63572950Y-148375000D01*
X63427050Y-148375000D01*
X63208889Y-148396487D01*
X62928966Y-148481401D01*
X62670986Y-148619294D01*
X62444866Y-148804866D01*
X62259294Y-149030986D01*
X62230000Y-149085791D01*
X62200706Y-149030986D01*
X62015134Y-148804866D01*
X61789014Y-148619294D01*
X61531034Y-148481401D01*
X61251111Y-148396487D01*
X61032950Y-148375000D01*
X60887050Y-148375000D01*
X60668889Y-148396487D01*
X60388966Y-148481401D01*
X60130986Y-148619294D01*
X59904866Y-148804866D01*
X59719294Y-149030986D01*
X59690000Y-149085791D01*
X59660706Y-149030986D01*
X59475134Y-148804866D01*
X59249014Y-148619294D01*
X58991034Y-148481401D01*
X58711111Y-148396487D01*
X58492950Y-148375000D01*
X58347050Y-148375000D01*
X58128889Y-148396487D01*
X57848966Y-148481401D01*
X57590986Y-148619294D01*
X57364866Y-148804866D01*
X57179294Y-149030986D01*
X57150000Y-149085791D01*
X57120706Y-149030986D01*
X56935134Y-148804866D01*
X56709014Y-148619294D01*
X56451034Y-148481401D01*
X56171111Y-148396487D01*
X55952950Y-148375000D01*
X55807050Y-148375000D01*
X55588889Y-148396487D01*
X55308966Y-148481401D01*
X55050986Y-148619294D01*
X54824866Y-148804866D01*
X54639294Y-149030986D01*
X54610000Y-149085791D01*
X54580706Y-149030986D01*
X54395134Y-148804866D01*
X54169014Y-148619294D01*
X53911034Y-148481401D01*
X53631111Y-148396487D01*
X53412950Y-148375000D01*
X53267050Y-148375000D01*
X53048889Y-148396487D01*
X52768966Y-148481401D01*
X52510986Y-148619294D01*
X52284866Y-148804866D01*
X52099294Y-149030986D01*
X52070000Y-149085791D01*
X52040706Y-149030986D01*
X51855134Y-148804866D01*
X51629014Y-148619294D01*
X51371034Y-148481401D01*
X51091111Y-148396487D01*
X50872950Y-148375000D01*
X50727050Y-148375000D01*
X50508889Y-148396487D01*
X50228966Y-148481401D01*
X49970986Y-148619294D01*
X49744866Y-148804866D01*
X49559294Y-149030986D01*
X49530000Y-149085791D01*
X49500706Y-149030986D01*
X49315134Y-148804866D01*
X49089014Y-148619294D01*
X48831034Y-148481401D01*
X48551111Y-148396487D01*
X48332950Y-148375000D01*
X48187050Y-148375000D01*
X47968889Y-148396487D01*
X47688966Y-148481401D01*
X47430986Y-148619294D01*
X47204866Y-148804866D01*
X47019294Y-149030986D01*
X46881401Y-149288966D01*
X46796487Y-149568889D01*
X46767815Y-149860000D01*
X46796487Y-150151111D01*
X46881401Y-150431034D01*
X47019294Y-150689014D01*
X47204866Y-150915134D01*
X47430986Y-151100706D01*
X47688966Y-151238599D01*
X47968889Y-151323513D01*
X48187050Y-151345000D01*
X48332950Y-151345000D01*
X48551111Y-151323513D01*
X48623825Y-151301455D01*
X54267415Y-156945046D01*
X54202637Y-156971878D01*
X54061782Y-157065995D01*
X53941995Y-157185782D01*
X53847878Y-157326637D01*
X53783049Y-157483147D01*
X53783006Y-157483363D01*
X52377155Y-158889215D01*
X52297958Y-158824220D01*
X52187644Y-158765255D01*
X52067946Y-158728945D01*
X52036194Y-158725818D01*
X51954793Y-158603994D01*
X51835006Y-158484207D01*
X51694151Y-158390090D01*
X51537641Y-158325261D01*
X51371491Y-158292212D01*
X51202085Y-158292212D01*
X51035935Y-158325261D01*
X50879425Y-158390090D01*
X50738570Y-158484207D01*
X50618783Y-158603994D01*
X50524666Y-158744849D01*
X50459837Y-158901359D01*
X50426788Y-159067509D01*
X50426788Y-159236915D01*
X50459837Y-159403065D01*
X50524666Y-159559575D01*
X50618783Y-159700430D01*
X50659275Y-159740922D01*
X50644508Y-159755689D01*
X50743619Y-159854800D01*
X50687611Y-159860316D01*
X50662475Y-159867941D01*
X50532256Y-159867941D01*
X50458649Y-159955030D01*
X50457599Y-159955591D01*
X50360908Y-160034943D01*
X50233072Y-160162779D01*
X50233072Y-159703999D01*
X50216008Y-159530745D01*
X50165472Y-159364149D01*
X50083405Y-159210613D01*
X49972962Y-159076038D01*
X49885184Y-159004000D01*
X49972962Y-158931962D01*
X50083405Y-158797387D01*
X50165472Y-158643851D01*
X50216008Y-158477255D01*
X50233072Y-158304001D01*
X50233072Y-157653999D01*
X50216008Y-157480745D01*
X50165472Y-157314149D01*
X50083405Y-157160613D01*
X49972962Y-157026038D01*
X49838387Y-156915595D01*
X49684851Y-156833528D01*
X49518255Y-156782992D01*
X49345001Y-156765928D01*
X49193203Y-156765928D01*
X44356528Y-151929254D01*
X44328688Y-151895331D01*
X44193320Y-151784237D01*
X44038880Y-151701687D01*
X43871303Y-151650854D01*
X43740696Y-151637990D01*
X43740689Y-151637990D01*
X43697029Y-151633690D01*
X43653369Y-151637990D01*
X31285678Y-151637990D01*
X31242010Y-151633689D01*
X31067735Y-151650854D01*
X31016902Y-151666274D01*
X30900159Y-151701687D01*
X30745719Y-151784237D01*
X30721726Y-151803928D01*
X30283999Y-151803928D01*
X30110745Y-151820992D01*
X30033979Y-151844279D01*
X30033979Y-151383651D01*
X30116175Y-151301455D01*
X30188889Y-151323513D01*
X30407050Y-151345000D01*
X30552950Y-151345000D01*
X30771111Y-151323513D01*
X31051034Y-151238599D01*
X31309014Y-151100706D01*
X31535134Y-150915134D01*
X31720706Y-150689014D01*
X31750000Y-150634209D01*
X31779294Y-150689014D01*
X31964866Y-150915134D01*
X32190986Y-151100706D01*
X32448966Y-151238599D01*
X32728889Y-151323513D01*
X32947050Y-151345000D01*
X33092950Y-151345000D01*
X33311111Y-151323513D01*
X33591034Y-151238599D01*
X33849014Y-151100706D01*
X34075134Y-150915134D01*
X34260706Y-150689014D01*
X34290000Y-150634209D01*
X34319294Y-150689014D01*
X34504866Y-150915134D01*
X34730986Y-151100706D01*
X34988966Y-151238599D01*
X35268889Y-151323513D01*
X35487050Y-151345000D01*
X35632950Y-151345000D01*
X35851111Y-151323513D01*
X36131034Y-151238599D01*
X36389014Y-151100706D01*
X36615134Y-150915134D01*
X36800706Y-150689014D01*
X36830000Y-150634209D01*
X36859294Y-150689014D01*
X37044866Y-150915134D01*
X37270986Y-151100706D01*
X37528966Y-151238599D01*
X37808889Y-151323513D01*
X38027050Y-151345000D01*
X38172950Y-151345000D01*
X38391111Y-151323513D01*
X38671034Y-151238599D01*
X38929014Y-151100706D01*
X39155134Y-150915134D01*
X39340706Y-150689014D01*
X39370000Y-150634209D01*
X39399294Y-150689014D01*
X39584866Y-150915134D01*
X39810986Y-151100706D01*
X40068966Y-151238599D01*
X40348889Y-151323513D01*
X40567050Y-151345000D01*
X40712950Y-151345000D01*
X40931111Y-151323513D01*
X41211034Y-151238599D01*
X41469014Y-151100706D01*
X41695134Y-150915134D01*
X41719607Y-150885313D01*
X41740498Y-150954180D01*
X41799463Y-151064494D01*
X41878815Y-151161185D01*
X41975506Y-151240537D01*
X42085820Y-151299502D01*
X42205518Y-151335812D01*
X42330000Y-151348072D01*
X44030000Y-151348072D01*
X44154482Y-151335812D01*
X44274180Y-151299502D01*
X44384494Y-151240537D01*
X44481185Y-151161185D01*
X44560537Y-151064494D01*
X44619502Y-150954180D01*
X44655812Y-150834482D01*
X44668072Y-150710000D01*
X44668072Y-149010000D01*
X44655812Y-148885518D01*
X44619502Y-148765820D01*
X44560537Y-148655506D01*
X44481185Y-148558815D01*
X44384494Y-148479463D01*
X44274180Y-148420498D01*
X44154482Y-148384188D01*
X44030000Y-148371928D01*
X42330000Y-148371928D01*
X42205518Y-148384188D01*
X42085820Y-148420498D01*
X41975506Y-148479463D01*
X41878815Y-148558815D01*
X41799463Y-148655506D01*
X41740498Y-148765820D01*
X41719607Y-148834687D01*
X41695134Y-148804866D01*
X41469014Y-148619294D01*
X41211034Y-148481401D01*
X40931111Y-148396487D01*
X40712950Y-148375000D01*
X40567050Y-148375000D01*
X40348889Y-148396487D01*
X40068966Y-148481401D01*
X39810986Y-148619294D01*
X39584866Y-148804866D01*
X39399294Y-149030986D01*
X39370000Y-149085791D01*
X39340706Y-149030986D01*
X39155134Y-148804866D01*
X38929014Y-148619294D01*
X38671034Y-148481401D01*
X38391111Y-148396487D01*
X38172950Y-148375000D01*
X38027050Y-148375000D01*
X37808889Y-148396487D01*
X37528966Y-148481401D01*
X37270986Y-148619294D01*
X37044866Y-148804866D01*
X36859294Y-149030986D01*
X36830000Y-149085791D01*
X36800706Y-149030986D01*
X36615134Y-148804866D01*
X36389014Y-148619294D01*
X36131034Y-148481401D01*
X35851111Y-148396487D01*
X35632950Y-148375000D01*
X35487050Y-148375000D01*
X35268889Y-148396487D01*
X34988966Y-148481401D01*
X34730986Y-148619294D01*
X34504866Y-148804866D01*
X34319294Y-149030986D01*
X34290000Y-149085791D01*
X34260706Y-149030986D01*
X34075134Y-148804866D01*
X33849014Y-148619294D01*
X33591034Y-148481401D01*
X33311111Y-148396487D01*
X33092950Y-148375000D01*
X32947050Y-148375000D01*
X32728889Y-148396487D01*
X32448966Y-148481401D01*
X32190986Y-148619294D01*
X31964866Y-148804866D01*
X31779294Y-149030986D01*
X31750000Y-149085791D01*
X31720706Y-149030986D01*
X31535134Y-148804866D01*
X31309014Y-148619294D01*
X31051034Y-148481401D01*
X30771111Y-148396487D01*
X30552950Y-148375000D01*
X30407050Y-148375000D01*
X30188889Y-148396487D01*
X29908966Y-148481401D01*
X29650986Y-148619294D01*
X29424866Y-148804866D01*
X29239294Y-149030986D01*
X29210000Y-149085791D01*
X29180706Y-149030986D01*
X28995134Y-148804866D01*
X28769014Y-148619294D01*
X28511034Y-148481401D01*
X28231111Y-148396487D01*
X28012950Y-148375000D01*
X27867050Y-148375000D01*
X27648889Y-148396487D01*
X27368966Y-148481401D01*
X27110986Y-148619294D01*
X26884866Y-148804866D01*
X26699294Y-149030986D01*
X26670000Y-149085791D01*
X26640706Y-149030986D01*
X26455134Y-148804866D01*
X26229014Y-148619294D01*
X25971034Y-148481401D01*
X25691111Y-148396487D01*
X25472950Y-148375000D01*
X25327050Y-148375000D01*
X25108889Y-148396487D01*
X24828966Y-148481401D01*
X24570986Y-148619294D01*
X24344866Y-148804866D01*
X24159294Y-149030986D01*
X24130000Y-149085791D01*
X24100706Y-149030986D01*
X23915134Y-148804866D01*
X23689014Y-148619294D01*
X23431034Y-148481401D01*
X23151111Y-148396487D01*
X22932950Y-148375000D01*
X22787050Y-148375000D01*
X22568889Y-148396487D01*
X22288966Y-148481401D01*
X22030986Y-148619294D01*
X21804866Y-148804866D01*
X21619294Y-149030986D01*
X21590000Y-149085791D01*
X21560706Y-149030986D01*
X21375134Y-148804866D01*
X21149014Y-148619294D01*
X20891034Y-148481401D01*
X20611111Y-148396487D01*
X20392950Y-148375000D01*
X20247050Y-148375000D01*
X20028889Y-148396487D01*
X19748966Y-148481401D01*
X19490986Y-148619294D01*
X19264866Y-148804866D01*
X19079294Y-149030986D01*
X18941401Y-149288966D01*
X18856487Y-149568889D01*
X18827815Y-149860000D01*
X18856487Y-150151111D01*
X18941401Y-150431034D01*
X19079294Y-150689014D01*
X19264866Y-150915134D01*
X19490986Y-151100706D01*
X19748966Y-151238599D01*
X20028889Y-151323513D01*
X20247050Y-151345000D01*
X20392950Y-151345000D01*
X20611111Y-151323513D01*
X20891034Y-151238599D01*
X21149014Y-151100706D01*
X21375134Y-150915134D01*
X21560706Y-150689014D01*
X21590000Y-150634209D01*
X21619294Y-150689014D01*
X21804866Y-150915134D01*
X22030986Y-151100706D01*
X22288966Y-151238599D01*
X22568889Y-151323513D01*
X22787050Y-151345000D01*
X22932950Y-151345000D01*
X23151111Y-151323513D01*
X23431034Y-151238599D01*
X23689014Y-151100706D01*
X23915134Y-150915134D01*
X24100706Y-150689014D01*
X24130000Y-150634209D01*
X24159294Y-150689014D01*
X24344866Y-150915134D01*
X24570986Y-151100706D01*
X24828966Y-151238599D01*
X25108889Y-151323513D01*
X25327050Y-151345000D01*
X25472950Y-151345000D01*
X25691111Y-151323513D01*
X25971034Y-151238599D01*
X26229014Y-151100706D01*
X26455134Y-150915134D01*
X26640706Y-150689014D01*
X26670000Y-150634209D01*
X26699294Y-150689014D01*
X26884866Y-150915134D01*
X27110986Y-151100706D01*
X27368966Y-151238599D01*
X27648889Y-151323513D01*
X27867050Y-151345000D01*
X28012950Y-151345000D01*
X28231111Y-151323513D01*
X28509979Y-151238919D01*
X28509979Y-152202791D01*
X28301950Y-152205000D01*
X28143200Y-152363750D01*
X28143200Y-153413000D01*
X28163200Y-153413000D01*
X28163200Y-153667000D01*
X28143200Y-153667000D01*
X28143200Y-153687000D01*
X27889200Y-153687000D01*
X27889200Y-153667000D01*
X27869200Y-153667000D01*
X27869200Y-153413000D01*
X27889200Y-153413000D01*
X27889200Y-152363750D01*
X27730450Y-152205000D01*
X27441200Y-152201928D01*
X27316718Y-152214188D01*
X27197020Y-152250498D01*
X27086706Y-152309463D01*
X26990015Y-152388815D01*
X26924542Y-152468594D01*
X26919162Y-152462038D01*
X26784587Y-152351595D01*
X26631051Y-152269528D01*
X26464455Y-152218992D01*
X26291201Y-152201928D01*
X25641199Y-152201928D01*
X25467945Y-152218992D01*
X25301349Y-152269528D01*
X25147813Y-152351595D01*
X25013238Y-152462038D01*
X24902795Y-152596613D01*
X24820728Y-152750149D01*
X24770192Y-152916745D01*
X24755254Y-153068414D01*
X24666655Y-152935816D01*
X24533984Y-152803145D01*
X24377978Y-152698905D01*
X24204634Y-152627104D01*
X24020613Y-152590500D01*
X23832987Y-152590500D01*
X23648966Y-152627104D01*
X23475622Y-152698905D01*
X23319616Y-152803145D01*
X23186945Y-152935816D01*
X23082705Y-153091822D01*
X23010904Y-153265166D01*
X22974300Y-153449187D01*
X22974300Y-153636813D01*
X23010904Y-153820834D01*
X23082705Y-153994178D01*
X23088601Y-154003002D01*
X23088600Y-155458158D01*
X23006505Y-155581022D01*
X22934704Y-155754366D01*
X22898100Y-155938387D01*
X22898100Y-156126013D01*
X22934704Y-156310034D01*
X23006505Y-156483378D01*
X23110745Y-156639384D01*
X23243416Y-156772055D01*
X23321142Y-156823990D01*
X18985621Y-156823990D01*
X16659702Y-154498072D01*
X17640000Y-154498072D01*
X17764482Y-154485812D01*
X17884180Y-154449502D01*
X17994494Y-154390537D01*
X18091185Y-154311185D01*
X18170537Y-154214494D01*
X18229502Y-154104180D01*
X18265812Y-153984482D01*
X18278072Y-153860000D01*
X18278072Y-152160000D01*
X18265812Y-152035518D01*
X18229502Y-151915820D01*
X18170537Y-151805506D01*
X18091185Y-151708815D01*
X17994494Y-151629463D01*
X17884180Y-151570498D01*
X17764482Y-151534188D01*
X17640000Y-151521928D01*
X16640000Y-151521928D01*
X16515518Y-151534188D01*
X16395820Y-151570498D01*
X16285506Y-151629463D01*
X16188815Y-151708815D01*
X16109463Y-151805506D01*
X16050498Y-151915820D01*
X16014188Y-152035518D01*
X16001928Y-152160000D01*
X16001928Y-153840298D01*
X14659284Y-152497654D01*
X14635422Y-152468578D01*
X14519392Y-152373355D01*
X14478072Y-152351269D01*
X14478072Y-152160000D01*
X14465812Y-152035518D01*
X14429502Y-151915820D01*
X14370537Y-151805506D01*
X14291185Y-151708815D01*
X14194494Y-151629463D01*
X14102000Y-151580023D01*
X14102000Y-148139977D01*
X14194494Y-148090537D01*
X14291185Y-148011185D01*
X14370537Y-147914494D01*
X14429502Y-147804180D01*
X14465812Y-147684482D01*
X14478072Y-147560000D01*
X14478072Y-146177000D01*
X16001928Y-146177000D01*
X16001928Y-147560000D01*
X16001928Y-147560000D01*
G37*
X16001928Y-147560000D02*
X16014188Y-147684482D01*
X16050498Y-147804180D01*
X16109463Y-147914494D01*
X16188815Y-148011185D01*
X16285506Y-148090537D01*
X16395820Y-148149502D01*
X16515518Y-148185812D01*
X16640000Y-148198072D01*
X17640000Y-148198072D01*
X17764482Y-148185812D01*
X17884180Y-148149502D01*
X17994494Y-148090537D01*
X18091185Y-148011185D01*
X18170537Y-147914494D01*
X18229502Y-147804180D01*
X18265812Y-147684482D01*
X18278072Y-147560000D01*
X18278072Y-146177000D01*
X69336932Y-146177000D01*
X69342401Y-146229038D01*
X69342401Y-161293964D01*
X69211252Y-161215843D01*
X68936891Y-161118519D01*
X68707000Y-161239186D01*
X68707000Y-162433000D01*
X68727000Y-162433000D01*
X68727000Y-162687000D01*
X68707000Y-162687000D01*
X68707000Y-162707000D01*
X68453000Y-162707000D01*
X68453000Y-162687000D01*
X68433000Y-162687000D01*
X68433000Y-162433000D01*
X68453000Y-162433000D01*
X68453000Y-161239186D01*
X68223109Y-161118519D01*
X67948748Y-161215843D01*
X67866830Y-161264639D01*
X67851403Y-161213784D01*
X67811972Y-161140013D01*
X67780646Y-161081406D01*
X67709280Y-160994447D01*
X67685423Y-160965377D01*
X67656353Y-160941520D01*
X61396486Y-154681654D01*
X61372624Y-154652578D01*
X61256594Y-154557355D01*
X61124217Y-154486598D01*
X60980580Y-154443026D01*
X60868628Y-154432000D01*
X60868625Y-154432000D01*
X60831202Y-154428314D01*
X60793779Y-154432000D01*
X57811546Y-154432000D01*
X57811363Y-154431878D01*
X57654853Y-154367049D01*
X57488703Y-154334000D01*
X57319297Y-154334000D01*
X57153147Y-154367049D01*
X56996637Y-154431878D01*
X56855782Y-154525995D01*
X56735995Y-154645782D01*
X56641878Y-154786637D01*
X56577049Y-154943147D01*
X56544000Y-155109297D01*
X56544000Y-155160890D01*
X56430408Y-155138295D01*
X56261002Y-155138295D01*
X56094852Y-155171344D01*
X55970488Y-155222858D01*
X54102000Y-153354370D01*
X54102000Y-151136526D01*
X54169014Y-151100706D01*
X54395134Y-150915134D01*
X54580706Y-150689014D01*
X54610000Y-150634209D01*
X54639294Y-150689014D01*
X54824866Y-150915134D01*
X55050986Y-151100706D01*
X55308966Y-151238599D01*
X55588889Y-151323513D01*
X55807050Y-151345000D01*
X55952950Y-151345000D01*
X56171111Y-151323513D01*
X56451034Y-151238599D01*
X56709014Y-151100706D01*
X56935134Y-150915134D01*
X57120706Y-150689014D01*
X57150000Y-150634209D01*
X57179294Y-150689014D01*
X57364866Y-150915134D01*
X57590986Y-151100706D01*
X57848966Y-151238599D01*
X58128889Y-151323513D01*
X58347050Y-151345000D01*
X58492950Y-151345000D01*
X58711111Y-151323513D01*
X58991034Y-151238599D01*
X59249014Y-151100706D01*
X59475134Y-150915134D01*
X59660706Y-150689014D01*
X59690000Y-150634209D01*
X59719294Y-150689014D01*
X59904866Y-150915134D01*
X60130986Y-151100706D01*
X60388966Y-151238599D01*
X60668889Y-151323513D01*
X60887050Y-151345000D01*
X61032950Y-151345000D01*
X61251111Y-151323513D01*
X61531034Y-151238599D01*
X61789014Y-151100706D01*
X62015134Y-150915134D01*
X62200706Y-150689014D01*
X62230000Y-150634209D01*
X62259294Y-150689014D01*
X62444866Y-150915134D01*
X62670986Y-151100706D01*
X62928966Y-151238599D01*
X63208889Y-151323513D01*
X63427050Y-151345000D01*
X63572950Y-151345000D01*
X63791111Y-151323513D01*
X64071034Y-151238599D01*
X64329014Y-151100706D01*
X64555134Y-150915134D01*
X64579607Y-150885313D01*
X64600498Y-150954180D01*
X64659463Y-151064494D01*
X64738815Y-151161185D01*
X64835506Y-151240537D01*
X64945820Y-151299502D01*
X65065518Y-151335812D01*
X65190000Y-151348072D01*
X66890000Y-151348072D01*
X67014482Y-151335812D01*
X67134180Y-151299502D01*
X67244494Y-151240537D01*
X67341185Y-151161185D01*
X67420537Y-151064494D01*
X67479502Y-150954180D01*
X67515812Y-150834482D01*
X67528072Y-150710000D01*
X67528072Y-149010000D01*
X67515812Y-148885518D01*
X67479502Y-148765820D01*
X67420537Y-148655506D01*
X67341185Y-148558815D01*
X67244494Y-148479463D01*
X67134180Y-148420498D01*
X67014482Y-148384188D01*
X66890000Y-148371928D01*
X65190000Y-148371928D01*
X65065518Y-148384188D01*
X64945820Y-148420498D01*
X64835506Y-148479463D01*
X64738815Y-148558815D01*
X64659463Y-148655506D01*
X64600498Y-148765820D01*
X64579607Y-148834687D01*
X64555134Y-148804866D01*
X64329014Y-148619294D01*
X64071034Y-148481401D01*
X63791111Y-148396487D01*
X63572950Y-148375000D01*
X63427050Y-148375000D01*
X63208889Y-148396487D01*
X62928966Y-148481401D01*
X62670986Y-148619294D01*
X62444866Y-148804866D01*
X62259294Y-149030986D01*
X62230000Y-149085791D01*
X62200706Y-149030986D01*
X62015134Y-148804866D01*
X61789014Y-148619294D01*
X61531034Y-148481401D01*
X61251111Y-148396487D01*
X61032950Y-148375000D01*
X60887050Y-148375000D01*
X60668889Y-148396487D01*
X60388966Y-148481401D01*
X60130986Y-148619294D01*
X59904866Y-148804866D01*
X59719294Y-149030986D01*
X59690000Y-149085791D01*
X59660706Y-149030986D01*
X59475134Y-148804866D01*
X59249014Y-148619294D01*
X58991034Y-148481401D01*
X58711111Y-148396487D01*
X58492950Y-148375000D01*
X58347050Y-148375000D01*
X58128889Y-148396487D01*
X57848966Y-148481401D01*
X57590986Y-148619294D01*
X57364866Y-148804866D01*
X57179294Y-149030986D01*
X57150000Y-149085791D01*
X57120706Y-149030986D01*
X56935134Y-148804866D01*
X56709014Y-148619294D01*
X56451034Y-148481401D01*
X56171111Y-148396487D01*
X55952950Y-148375000D01*
X55807050Y-148375000D01*
X55588889Y-148396487D01*
X55308966Y-148481401D01*
X55050986Y-148619294D01*
X54824866Y-148804866D01*
X54639294Y-149030986D01*
X54610000Y-149085791D01*
X54580706Y-149030986D01*
X54395134Y-148804866D01*
X54169014Y-148619294D01*
X53911034Y-148481401D01*
X53631111Y-148396487D01*
X53412950Y-148375000D01*
X53267050Y-148375000D01*
X53048889Y-148396487D01*
X52768966Y-148481401D01*
X52510986Y-148619294D01*
X52284866Y-148804866D01*
X52099294Y-149030986D01*
X52070000Y-149085791D01*
X52040706Y-149030986D01*
X51855134Y-148804866D01*
X51629014Y-148619294D01*
X51371034Y-148481401D01*
X51091111Y-148396487D01*
X50872950Y-148375000D01*
X50727050Y-148375000D01*
X50508889Y-148396487D01*
X50228966Y-148481401D01*
X49970986Y-148619294D01*
X49744866Y-148804866D01*
X49559294Y-149030986D01*
X49530000Y-149085791D01*
X49500706Y-149030986D01*
X49315134Y-148804866D01*
X49089014Y-148619294D01*
X48831034Y-148481401D01*
X48551111Y-148396487D01*
X48332950Y-148375000D01*
X48187050Y-148375000D01*
X47968889Y-148396487D01*
X47688966Y-148481401D01*
X47430986Y-148619294D01*
X47204866Y-148804866D01*
X47019294Y-149030986D01*
X46881401Y-149288966D01*
X46796487Y-149568889D01*
X46767815Y-149860000D01*
X46796487Y-150151111D01*
X46881401Y-150431034D01*
X47019294Y-150689014D01*
X47204866Y-150915134D01*
X47430986Y-151100706D01*
X47688966Y-151238599D01*
X47968889Y-151323513D01*
X48187050Y-151345000D01*
X48332950Y-151345000D01*
X48551111Y-151323513D01*
X48623825Y-151301455D01*
X54267415Y-156945046D01*
X54202637Y-156971878D01*
X54061782Y-157065995D01*
X53941995Y-157185782D01*
X53847878Y-157326637D01*
X53783049Y-157483147D01*
X53783006Y-157483363D01*
X52377155Y-158889215D01*
X52297958Y-158824220D01*
X52187644Y-158765255D01*
X52067946Y-158728945D01*
X52036194Y-158725818D01*
X51954793Y-158603994D01*
X51835006Y-158484207D01*
X51694151Y-158390090D01*
X51537641Y-158325261D01*
X51371491Y-158292212D01*
X51202085Y-158292212D01*
X51035935Y-158325261D01*
X50879425Y-158390090D01*
X50738570Y-158484207D01*
X50618783Y-158603994D01*
X50524666Y-158744849D01*
X50459837Y-158901359D01*
X50426788Y-159067509D01*
X50426788Y-159236915D01*
X50459837Y-159403065D01*
X50524666Y-159559575D01*
X50618783Y-159700430D01*
X50659275Y-159740922D01*
X50644508Y-159755689D01*
X50743619Y-159854800D01*
X50687611Y-159860316D01*
X50662475Y-159867941D01*
X50532256Y-159867941D01*
X50458649Y-159955030D01*
X50457599Y-159955591D01*
X50360908Y-160034943D01*
X50233072Y-160162779D01*
X50233072Y-159703999D01*
X50216008Y-159530745D01*
X50165472Y-159364149D01*
X50083405Y-159210613D01*
X49972962Y-159076038D01*
X49885184Y-159004000D01*
X49972962Y-158931962D01*
X50083405Y-158797387D01*
X50165472Y-158643851D01*
X50216008Y-158477255D01*
X50233072Y-158304001D01*
X50233072Y-157653999D01*
X50216008Y-157480745D01*
X50165472Y-157314149D01*
X50083405Y-157160613D01*
X49972962Y-157026038D01*
X49838387Y-156915595D01*
X49684851Y-156833528D01*
X49518255Y-156782992D01*
X49345001Y-156765928D01*
X49193203Y-156765928D01*
X44356528Y-151929254D01*
X44328688Y-151895331D01*
X44193320Y-151784237D01*
X44038880Y-151701687D01*
X43871303Y-151650854D01*
X43740696Y-151637990D01*
X43740689Y-151637990D01*
X43697029Y-151633690D01*
X43653369Y-151637990D01*
X31285678Y-151637990D01*
X31242010Y-151633689D01*
X31067735Y-151650854D01*
X31016902Y-151666274D01*
X30900159Y-151701687D01*
X30745719Y-151784237D01*
X30721726Y-151803928D01*
X30283999Y-151803928D01*
X30110745Y-151820992D01*
X30033979Y-151844279D01*
X30033979Y-151383651D01*
X30116175Y-151301455D01*
X30188889Y-151323513D01*
X30407050Y-151345000D01*
X30552950Y-151345000D01*
X30771111Y-151323513D01*
X31051034Y-151238599D01*
X31309014Y-151100706D01*
X31535134Y-150915134D01*
X31720706Y-150689014D01*
X31750000Y-150634209D01*
X31779294Y-150689014D01*
X31964866Y-150915134D01*
X32190986Y-151100706D01*
X32448966Y-151238599D01*
X32728889Y-151323513D01*
X32947050Y-151345000D01*
X33092950Y-151345000D01*
X33311111Y-151323513D01*
X33591034Y-151238599D01*
X33849014Y-151100706D01*
X34075134Y-150915134D01*
X34260706Y-150689014D01*
X34290000Y-150634209D01*
X34319294Y-150689014D01*
X34504866Y-150915134D01*
X34730986Y-151100706D01*
X34988966Y-151238599D01*
X35268889Y-151323513D01*
X35487050Y-151345000D01*
X35632950Y-151345000D01*
X35851111Y-151323513D01*
X36131034Y-151238599D01*
X36389014Y-151100706D01*
X36615134Y-150915134D01*
X36800706Y-150689014D01*
X36830000Y-150634209D01*
X36859294Y-150689014D01*
X37044866Y-150915134D01*
X37270986Y-151100706D01*
X37528966Y-151238599D01*
X37808889Y-151323513D01*
X38027050Y-151345000D01*
X38172950Y-151345000D01*
X38391111Y-151323513D01*
X38671034Y-151238599D01*
X38929014Y-151100706D01*
X39155134Y-150915134D01*
X39340706Y-150689014D01*
X39370000Y-150634209D01*
X39399294Y-150689014D01*
X39584866Y-150915134D01*
X39810986Y-151100706D01*
X40068966Y-151238599D01*
X40348889Y-151323513D01*
X40567050Y-151345000D01*
X40712950Y-151345000D01*
X40931111Y-151323513D01*
X41211034Y-151238599D01*
X41469014Y-151100706D01*
X41695134Y-150915134D01*
X41719607Y-150885313D01*
X41740498Y-150954180D01*
X41799463Y-151064494D01*
X41878815Y-151161185D01*
X41975506Y-151240537D01*
X42085820Y-151299502D01*
X42205518Y-151335812D01*
X42330000Y-151348072D01*
X44030000Y-151348072D01*
X44154482Y-151335812D01*
X44274180Y-151299502D01*
X44384494Y-151240537D01*
X44481185Y-151161185D01*
X44560537Y-151064494D01*
X44619502Y-150954180D01*
X44655812Y-150834482D01*
X44668072Y-150710000D01*
X44668072Y-149010000D01*
X44655812Y-148885518D01*
X44619502Y-148765820D01*
X44560537Y-148655506D01*
X44481185Y-148558815D01*
X44384494Y-148479463D01*
X44274180Y-148420498D01*
X44154482Y-148384188D01*
X44030000Y-148371928D01*
X42330000Y-148371928D01*
X42205518Y-148384188D01*
X42085820Y-148420498D01*
X41975506Y-148479463D01*
X41878815Y-148558815D01*
X41799463Y-148655506D01*
X41740498Y-148765820D01*
X41719607Y-148834687D01*
X41695134Y-148804866D01*
X41469014Y-148619294D01*
X41211034Y-148481401D01*
X40931111Y-148396487D01*
X40712950Y-148375000D01*
X40567050Y-148375000D01*
X40348889Y-148396487D01*
X40068966Y-148481401D01*
X39810986Y-148619294D01*
X39584866Y-148804866D01*
X39399294Y-149030986D01*
X39370000Y-149085791D01*
X39340706Y-149030986D01*
X39155134Y-148804866D01*
X38929014Y-148619294D01*
X38671034Y-148481401D01*
X38391111Y-148396487D01*
X38172950Y-148375000D01*
X38027050Y-148375000D01*
X37808889Y-148396487D01*
X37528966Y-148481401D01*
X37270986Y-148619294D01*
X37044866Y-148804866D01*
X36859294Y-149030986D01*
X36830000Y-149085791D01*
X36800706Y-149030986D01*
X36615134Y-148804866D01*
X36389014Y-148619294D01*
X36131034Y-148481401D01*
X35851111Y-148396487D01*
X35632950Y-148375000D01*
X35487050Y-148375000D01*
X35268889Y-148396487D01*
X34988966Y-148481401D01*
X34730986Y-148619294D01*
X34504866Y-148804866D01*
X34319294Y-149030986D01*
X34290000Y-149085791D01*
X34260706Y-149030986D01*
X34075134Y-148804866D01*
X33849014Y-148619294D01*
X33591034Y-148481401D01*
X33311111Y-148396487D01*
X33092950Y-148375000D01*
X32947050Y-148375000D01*
X32728889Y-148396487D01*
X32448966Y-148481401D01*
X32190986Y-148619294D01*
X31964866Y-148804866D01*
X31779294Y-149030986D01*
X31750000Y-149085791D01*
X31720706Y-149030986D01*
X31535134Y-148804866D01*
X31309014Y-148619294D01*
X31051034Y-148481401D01*
X30771111Y-148396487D01*
X30552950Y-148375000D01*
X30407050Y-148375000D01*
X30188889Y-148396487D01*
X29908966Y-148481401D01*
X29650986Y-148619294D01*
X29424866Y-148804866D01*
X29239294Y-149030986D01*
X29210000Y-149085791D01*
X29180706Y-149030986D01*
X28995134Y-148804866D01*
X28769014Y-148619294D01*
X28511034Y-148481401D01*
X28231111Y-148396487D01*
X28012950Y-148375000D01*
X27867050Y-148375000D01*
X27648889Y-148396487D01*
X27368966Y-148481401D01*
X27110986Y-148619294D01*
X26884866Y-148804866D01*
X26699294Y-149030986D01*
X26670000Y-149085791D01*
X26640706Y-149030986D01*
X26455134Y-148804866D01*
X26229014Y-148619294D01*
X25971034Y-148481401D01*
X25691111Y-148396487D01*
X25472950Y-148375000D01*
X25327050Y-148375000D01*
X25108889Y-148396487D01*
X24828966Y-148481401D01*
X24570986Y-148619294D01*
X24344866Y-148804866D01*
X24159294Y-149030986D01*
X24130000Y-149085791D01*
X24100706Y-149030986D01*
X23915134Y-148804866D01*
X23689014Y-148619294D01*
X23431034Y-148481401D01*
X23151111Y-148396487D01*
X22932950Y-148375000D01*
X22787050Y-148375000D01*
X22568889Y-148396487D01*
X22288966Y-148481401D01*
X22030986Y-148619294D01*
X21804866Y-148804866D01*
X21619294Y-149030986D01*
X21590000Y-149085791D01*
X21560706Y-149030986D01*
X21375134Y-148804866D01*
X21149014Y-148619294D01*
X20891034Y-148481401D01*
X20611111Y-148396487D01*
X20392950Y-148375000D01*
X20247050Y-148375000D01*
X20028889Y-148396487D01*
X19748966Y-148481401D01*
X19490986Y-148619294D01*
X19264866Y-148804866D01*
X19079294Y-149030986D01*
X18941401Y-149288966D01*
X18856487Y-149568889D01*
X18827815Y-149860000D01*
X18856487Y-150151111D01*
X18941401Y-150431034D01*
X19079294Y-150689014D01*
X19264866Y-150915134D01*
X19490986Y-151100706D01*
X19748966Y-151238599D01*
X20028889Y-151323513D01*
X20247050Y-151345000D01*
X20392950Y-151345000D01*
X20611111Y-151323513D01*
X20891034Y-151238599D01*
X21149014Y-151100706D01*
X21375134Y-150915134D01*
X21560706Y-150689014D01*
X21590000Y-150634209D01*
X21619294Y-150689014D01*
X21804866Y-150915134D01*
X22030986Y-151100706D01*
X22288966Y-151238599D01*
X22568889Y-151323513D01*
X22787050Y-151345000D01*
X22932950Y-151345000D01*
X23151111Y-151323513D01*
X23431034Y-151238599D01*
X23689014Y-151100706D01*
X23915134Y-150915134D01*
X24100706Y-150689014D01*
X24130000Y-150634209D01*
X24159294Y-150689014D01*
X24344866Y-150915134D01*
X24570986Y-151100706D01*
X24828966Y-151238599D01*
X25108889Y-151323513D01*
X25327050Y-151345000D01*
X25472950Y-151345000D01*
X25691111Y-151323513D01*
X25971034Y-151238599D01*
X26229014Y-151100706D01*
X26455134Y-150915134D01*
X26640706Y-150689014D01*
X26670000Y-150634209D01*
X26699294Y-150689014D01*
X26884866Y-150915134D01*
X27110986Y-151100706D01*
X27368966Y-151238599D01*
X27648889Y-151323513D01*
X27867050Y-151345000D01*
X28012950Y-151345000D01*
X28231111Y-151323513D01*
X28509979Y-151238919D01*
X28509979Y-152202791D01*
X28301950Y-152205000D01*
X28143200Y-152363750D01*
X28143200Y-153413000D01*
X28163200Y-153413000D01*
X28163200Y-153667000D01*
X28143200Y-153667000D01*
X28143200Y-153687000D01*
X27889200Y-153687000D01*
X27889200Y-153667000D01*
X27869200Y-153667000D01*
X27869200Y-153413000D01*
X27889200Y-153413000D01*
X27889200Y-152363750D01*
X27730450Y-152205000D01*
X27441200Y-152201928D01*
X27316718Y-152214188D01*
X27197020Y-152250498D01*
X27086706Y-152309463D01*
X26990015Y-152388815D01*
X26924542Y-152468594D01*
X26919162Y-152462038D01*
X26784587Y-152351595D01*
X26631051Y-152269528D01*
X26464455Y-152218992D01*
X26291201Y-152201928D01*
X25641199Y-152201928D01*
X25467945Y-152218992D01*
X25301349Y-152269528D01*
X25147813Y-152351595D01*
X25013238Y-152462038D01*
X24902795Y-152596613D01*
X24820728Y-152750149D01*
X24770192Y-152916745D01*
X24755254Y-153068414D01*
X24666655Y-152935816D01*
X24533984Y-152803145D01*
X24377978Y-152698905D01*
X24204634Y-152627104D01*
X24020613Y-152590500D01*
X23832987Y-152590500D01*
X23648966Y-152627104D01*
X23475622Y-152698905D01*
X23319616Y-152803145D01*
X23186945Y-152935816D01*
X23082705Y-153091822D01*
X23010904Y-153265166D01*
X22974300Y-153449187D01*
X22974300Y-153636813D01*
X23010904Y-153820834D01*
X23082705Y-153994178D01*
X23088601Y-154003002D01*
X23088600Y-155458158D01*
X23006505Y-155581022D01*
X22934704Y-155754366D01*
X22898100Y-155938387D01*
X22898100Y-156126013D01*
X22934704Y-156310034D01*
X23006505Y-156483378D01*
X23110745Y-156639384D01*
X23243416Y-156772055D01*
X23321142Y-156823990D01*
X18985621Y-156823990D01*
X16659702Y-154498072D01*
X17640000Y-154498072D01*
X17764482Y-154485812D01*
X17884180Y-154449502D01*
X17994494Y-154390537D01*
X18091185Y-154311185D01*
X18170537Y-154214494D01*
X18229502Y-154104180D01*
X18265812Y-153984482D01*
X18278072Y-153860000D01*
X18278072Y-152160000D01*
X18265812Y-152035518D01*
X18229502Y-151915820D01*
X18170537Y-151805506D01*
X18091185Y-151708815D01*
X17994494Y-151629463D01*
X17884180Y-151570498D01*
X17764482Y-151534188D01*
X17640000Y-151521928D01*
X16640000Y-151521928D01*
X16515518Y-151534188D01*
X16395820Y-151570498D01*
X16285506Y-151629463D01*
X16188815Y-151708815D01*
X16109463Y-151805506D01*
X16050498Y-151915820D01*
X16014188Y-152035518D01*
X16001928Y-152160000D01*
X16001928Y-153840298D01*
X14659284Y-152497654D01*
X14635422Y-152468578D01*
X14519392Y-152373355D01*
X14478072Y-152351269D01*
X14478072Y-152160000D01*
X14465812Y-152035518D01*
X14429502Y-151915820D01*
X14370537Y-151805506D01*
X14291185Y-151708815D01*
X14194494Y-151629463D01*
X14102000Y-151580023D01*
X14102000Y-148139977D01*
X14194494Y-148090537D01*
X14291185Y-148011185D01*
X14370537Y-147914494D01*
X14429502Y-147804180D01*
X14465812Y-147684482D01*
X14478072Y-147560000D01*
X14478072Y-146177000D01*
X16001928Y-146177000D01*
X16001928Y-147560000D01*
G36*
X33781878Y-154913637D02*
G01*
X33717049Y-155070147D01*
X33684000Y-155236297D01*
X33684000Y-155405703D01*
X33717049Y-155571853D01*
X33781878Y-155728363D01*
X33782001Y-155728547D01*
X33782001Y-156017073D01*
X33725582Y-155986916D01*
X33577745Y-155942071D01*
X33424000Y-155926928D01*
X33124000Y-155926928D01*
X32970255Y-155942071D01*
X32822418Y-155986916D01*
X32686171Y-156059742D01*
X32639000Y-156098454D01*
X32591829Y-156059742D01*
X32455582Y-155986916D01*
X32307745Y-155942071D01*
X32154000Y-155926928D01*
X32001721Y-155926928D01*
X32023502Y-155886180D01*
X32059812Y-155766482D01*
X32072072Y-155642000D01*
X32069000Y-155352750D01*
X31910250Y-155194000D01*
X30861000Y-155194000D01*
X30861000Y-157413000D01*
X30881000Y-157413000D01*
X30881000Y-157667000D01*
X30861000Y-157667000D01*
X30861000Y-157687000D01*
X30607000Y-157687000D01*
X30607000Y-157667000D01*
X30587000Y-157667000D01*
X30587000Y-157413000D01*
X30607000Y-157413000D01*
X30607000Y-155194000D01*
X30587000Y-155194000D01*
X30587000Y-154940000D01*
X30607000Y-154940000D01*
X30607000Y-154920000D01*
X30861000Y-154920000D01*
X30861000Y-154940000D01*
X31910250Y-154940000D01*
X31977260Y-154872990D01*
X33557587Y-154872990D01*
X33595010Y-154876676D01*
X33632433Y-154872990D01*
X33632436Y-154872990D01*
X33744388Y-154861964D01*
X33834713Y-154834564D01*
X33781878Y-154913637D01*
X33781878Y-154913637D01*
G37*
X33781878Y-154913637D02*
X33717049Y-155070147D01*
X33684000Y-155236297D01*
X33684000Y-155405703D01*
X33717049Y-155571853D01*
X33781878Y-155728363D01*
X33782001Y-155728547D01*
X33782001Y-156017073D01*
X33725582Y-155986916D01*
X33577745Y-155942071D01*
X33424000Y-155926928D01*
X33124000Y-155926928D01*
X32970255Y-155942071D01*
X32822418Y-155986916D01*
X32686171Y-156059742D01*
X32639000Y-156098454D01*
X32591829Y-156059742D01*
X32455582Y-155986916D01*
X32307745Y-155942071D01*
X32154000Y-155926928D01*
X32001721Y-155926928D01*
X32023502Y-155886180D01*
X32059812Y-155766482D01*
X32072072Y-155642000D01*
X32069000Y-155352750D01*
X31910250Y-155194000D01*
X30861000Y-155194000D01*
X30861000Y-157413000D01*
X30881000Y-157413000D01*
X30881000Y-157667000D01*
X30861000Y-157667000D01*
X30861000Y-157687000D01*
X30607000Y-157687000D01*
X30607000Y-157667000D01*
X30587000Y-157667000D01*
X30587000Y-157413000D01*
X30607000Y-157413000D01*
X30607000Y-155194000D01*
X30587000Y-155194000D01*
X30587000Y-154940000D01*
X30607000Y-154940000D01*
X30607000Y-154920000D01*
X30861000Y-154920000D01*
X30861000Y-154940000D01*
X31910250Y-154940000D01*
X31977260Y-154872990D01*
X33557587Y-154872990D01*
X33595010Y-154876676D01*
X33632433Y-154872990D01*
X33632436Y-154872990D01*
X33744388Y-154861964D01*
X33834713Y-154834564D01*
X33781878Y-154913637D01*
%TD*%
M02*
