M48
; DRILL file {KiCad (5.1.2-1)-1} date Monday, January 20, 2020 at 05:34:25 PM
; FORMAT={-:-/ absolute / metric / decimal}
; #@! TF.CreationDate,2020-01-20T17:34:25-08:00
; #@! TF.GenerationSoftware,Kicad,Pcbnew,(5.1.2-1)-1
FMAT,2
METRIC
T1C0.300
T2C0.508
T3C1.000
T4C1.016
%
G90
G05
T1
X17.5Y-164.1
X17.5Y-165.135
X21.25Y-163.0
X21.25Y-165.75
X25.908Y-156.083
X25.908Y-158.496
X25.908Y-161.036
X26.035Y-153.543
X28.067Y-155.956
X30.734Y-164.177
X31.496Y-164.592
X34.544Y-153.26
X34.544Y-155.321
X35.787Y-164.113
X37.084Y-163.83
X43.0Y-156.75
X43.053Y-163.068
X45.974Y-169.799
X48.387Y-164.084
X48.387Y-166.116
X48.895Y-163.449
X48.895Y-166.751
X48.921Y-171.043
X49.0Y-173.75
X50.847Y-172.292
X50.932Y-165.867
X51.287Y-159.152
X51.562Y-166.243
X52.079Y-164.719
X52.558Y-163.83
X54.229Y-171.958
X54.317Y-167.679
X54.61Y-157.734
X55.245Y-159.258
X55.626Y-171.323
X55.753Y-159.893
X55.88Y-170.434
X56.261Y-160.528
X56.346Y-155.998
X56.769Y-161.036
X57.023Y-155.956
X57.087Y-165.1
X57.404Y-161.671
X57.404Y-155.194
X60.96Y-171.196
X61.0Y-173.25
X62.992Y-171.196
X63.0Y-173.25
T2
X17.145Y-146.812
X17.145Y-153.035
X18.923Y-161.14
X18.923Y-167.663
X23.851Y-156.032
X23.876Y-158.496
X23.876Y-161.036
X23.927Y-153.543
X26.416Y-171.958
X27.6Y-174.3
X28.067Y-153.543
X29.083Y-162.941
X29.464Y-172.085
X30.734Y-153.035
X30.734Y-153.035
X30.734Y-155.067
X35.687Y-167.005
X38.1Y-164.569
X38.1Y-167.005
X38.1Y-173.482
X40.386Y-167.132
X43.0Y-158.75
X43.18Y-176.276
X45.331Y-170.823
X45.847Y-161.036
X48.618Y-161.493
X52.7Y-155.9
X53.213Y-168.638
X54.229Y-164.465
X55.7Y-154.4
X58.166Y-171.704
X65.5Y-171.25
X68.5Y-173.5
T3
X48.26Y-149.86
X50.8Y-149.86
X53.34Y-149.86
X55.88Y-149.86
X58.42Y-149.86
X60.96Y-149.86
X63.5Y-149.86
X66.04Y-149.86
X66.04Y-162.56
X66.04Y-165.1
X66.04Y-167.64
X68.58Y-162.56
X68.58Y-165.1
X68.58Y-167.64
X53.34Y-180.34
X55.88Y-180.34
X58.42Y-180.34
X60.96Y-180.34
X63.5Y-180.34
X66.04Y-180.34
X14.1Y-171.5
X14.1Y-174.04
X30.48Y-180.34
X33.02Y-180.34
X35.56Y-180.34
X38.1Y-180.34
X40.64Y-180.34
X43.18Y-180.34
X45.72Y-180.34
X48.26Y-180.34
X20.32Y-149.86
X22.86Y-149.86
X25.4Y-149.86
X27.94Y-149.86
X30.48Y-149.86
X33.02Y-149.86
X35.56Y-149.86
X38.1Y-149.86
X40.64Y-149.86
X43.18Y-149.86
T4
G00X13.819Y-160.02
M15
G01X13.261Y-160.02
M16
G05
G00X13.819Y-168.656
M15
G01X13.261Y-168.656
M16
G05
G00X18.239Y-160.02
M15
G01X17.477Y-160.02
M16
G05
G00X18.239Y-168.656
M15
G01X17.477Y-168.656
M16
G05
T0
M30
