%FSLAX45Y45*%
G04 Gerber Fmt 4.5, Leading zero omitted, Abs format (unit mm)*
G04 Created by KiCad (PCBNEW (5.1.2-1)-1) date 2019-12-21 14:34:48*
%MOMM*%
%LPD*%
G04 APERTURE LIST*
%ADD10C,0.050000*%
%ADD11C,0.049987*%
%ADD12C,0.200000*%
%ADD13C,0.300000*%
G04 APERTURE END LIST*
D10*
X1315720Y-14502280D02*
X6883400Y-14503400D01*
X1315720Y-18515480D02*
X6883400Y-18516600D01*
X7000240Y-18399760D02*
X7000240Y-14620240D01*
X1199023Y-14620240D02*
X1200000Y-18399760D01*
D11*
X6883400Y-14503400D02*
G75*
G02X7000240Y-14620240I0J-116840D01*
G01*
X7000240Y-18399760D02*
G75*
G02X6883400Y-18516600I-116840J0D01*
G01*
X1315720Y-18515480D02*
G75*
G02X1200000Y-18399760I0J115720D01*
G01*
X1199023Y-14620240D02*
G75*
G02X1315720Y-14502280I117967J0D01*
G01*
D12*
X2575800Y-15593300D02*
X2605800Y-15623300D01*
X2605800Y-15593300D02*
X2575800Y-15623300D01*
X2575800Y-15834600D02*
X2605800Y-15864600D01*
X2605800Y-15834600D02*
X2575800Y-15864600D01*
X2575800Y-16088600D02*
X2605800Y-16118600D01*
X2605800Y-16088600D02*
X2575800Y-16118600D01*
X2588500Y-15339300D02*
X2618500Y-15369300D01*
X2618500Y-15339300D02*
X2588500Y-15369300D01*
X2791700Y-15580600D02*
X2821700Y-15610600D01*
X2821700Y-15580600D02*
X2791700Y-15610600D01*
X3058400Y-16402650D02*
X3088400Y-16432650D01*
X3088400Y-16402650D02*
X3058400Y-16432650D01*
X3134600Y-16444200D02*
X3164600Y-16474200D01*
X3164600Y-16444200D02*
X3134600Y-16474200D01*
X3439400Y-15310999D02*
X3469400Y-15340999D01*
X3469400Y-15310999D02*
X3439400Y-15340999D01*
X3439400Y-15517100D02*
X3469400Y-15547100D01*
X3469400Y-15517100D02*
X3439400Y-15547100D01*
X3563700Y-16396300D02*
X3593700Y-16426300D01*
X3593700Y-16396300D02*
X3563700Y-16426300D01*
X3693400Y-16368000D02*
X3723400Y-16398000D01*
X3723400Y-16368000D02*
X3693400Y-16398000D01*
X4290300Y-15669500D02*
X4320300Y-15699500D01*
X4320300Y-15669500D02*
X4290300Y-15699500D01*
X4290300Y-16291800D02*
X4320300Y-16321800D01*
X4320300Y-16291800D02*
X4290300Y-16321800D01*
X4582400Y-16964900D02*
X4612400Y-16994900D01*
X4612400Y-16964900D02*
X4582400Y-16994900D01*
X4823700Y-16393400D02*
X4853700Y-16423400D01*
X4853700Y-16393400D02*
X4823700Y-16423400D01*
X4823700Y-16596600D02*
X4853700Y-16626600D01*
X4853700Y-16596600D02*
X4823700Y-16626600D01*
X4874500Y-16329900D02*
X4904500Y-16359900D01*
X4904500Y-16329900D02*
X4874500Y-16359900D01*
X4874500Y-16660100D02*
X4904500Y-16690100D01*
X4904500Y-16660100D02*
X4874500Y-16690100D01*
X4877071Y-17089329D02*
X4907071Y-17119329D01*
X4907071Y-17089329D02*
X4877071Y-17119329D01*
X5060000Y-17425000D02*
X5090000Y-17455000D01*
X5090000Y-17425000D02*
X5060000Y-17455000D01*
X5065000Y-17218900D02*
X5095000Y-17248900D01*
X5095000Y-17218900D02*
X5065000Y-17248900D01*
X5078171Y-16571671D02*
X5108171Y-16601671D01*
X5108171Y-16571671D02*
X5078171Y-16601671D01*
X5113679Y-15900221D02*
X5143679Y-15930221D01*
X5143679Y-15900221D02*
X5113679Y-15930221D01*
X5141200Y-16609300D02*
X5171200Y-16639300D01*
X5171200Y-16609300D02*
X5141200Y-16639300D01*
X5192941Y-16456900D02*
X5222941Y-16486900D01*
X5222941Y-16456900D02*
X5192941Y-16486900D01*
X5240841Y-16368000D02*
X5270841Y-16398000D01*
X5270841Y-16368000D02*
X5240841Y-16398000D01*
X5250000Y-17425000D02*
X5280000Y-17455000D01*
X5280000Y-17425000D02*
X5250000Y-17455000D01*
X5407900Y-17180800D02*
X5437900Y-17210800D01*
X5437900Y-17180800D02*
X5407900Y-17210800D01*
X5416685Y-16752915D02*
X5446685Y-16782915D01*
X5446685Y-16752915D02*
X5416685Y-16782915D01*
X5446000Y-15758400D02*
X5476000Y-15788400D01*
X5476000Y-15758400D02*
X5446000Y-15788400D01*
X5455000Y-17425000D02*
X5485000Y-17455000D01*
X5485000Y-17425000D02*
X5455000Y-17455000D01*
X5509500Y-15910800D02*
X5539500Y-15940800D01*
X5539500Y-15910800D02*
X5509500Y-15940800D01*
X5547600Y-17117300D02*
X5577600Y-17147300D01*
X5577600Y-17117300D02*
X5547600Y-17147300D01*
X5560300Y-15974300D02*
X5590300Y-16004300D01*
X5590300Y-15974300D02*
X5560300Y-16004300D01*
X5573000Y-17028400D02*
X5603000Y-17058400D01*
X5603000Y-17028400D02*
X5573000Y-17058400D01*
X5611100Y-16037800D02*
X5641100Y-16067800D01*
X5641100Y-16037800D02*
X5611100Y-16067800D01*
X5619570Y-15584829D02*
X5649570Y-15614829D01*
X5649570Y-15584829D02*
X5619570Y-15614829D01*
X5661900Y-16088600D02*
X5691900Y-16118600D01*
X5691900Y-16088600D02*
X5661900Y-16118600D01*
X5687300Y-15580600D02*
X5717300Y-15610600D01*
X5717300Y-15580600D02*
X5687300Y-15610600D01*
X5693720Y-16495000D02*
X5723720Y-16525000D01*
X5723720Y-16495000D02*
X5693720Y-16525000D01*
X5725399Y-16152100D02*
X5755399Y-16182100D01*
X5755399Y-16152100D02*
X5725399Y-16182100D01*
X5725400Y-15504400D02*
X5755400Y-15534400D01*
X5755400Y-15504400D02*
X5725400Y-15534400D01*
X6068300Y-17307800D02*
X6098300Y-17337800D01*
X6098300Y-17307800D02*
X6068300Y-17337800D01*
X6081000Y-17104600D02*
X6111000Y-17134600D01*
X6111000Y-17104600D02*
X6081000Y-17134600D01*
X6284200Y-17104600D02*
X6314200Y-17134600D01*
X6314200Y-17104600D02*
X6284200Y-17134600D01*
X6284200Y-17295100D02*
X6314200Y-17325100D01*
X6314200Y-17295100D02*
X6284200Y-17325100D01*
X1739900Y-14681200D02*
G75*
G03X1739900Y-14681200I-25400J0D01*
G01*
X1739900Y-15303500D02*
G75*
G03X1739900Y-15303500I-25400J0D01*
G01*
X1917700Y-16114001D02*
G75*
G03X1917700Y-16114001I-25400J0D01*
G01*
X1917700Y-16766299D02*
G75*
G03X1917700Y-16766299I-25400J0D01*
G01*
X2410460Y-15603220D02*
G75*
G03X2410460Y-15603220I-25400J0D01*
G01*
X2413000Y-15849600D02*
G75*
G03X2413000Y-15849600I-25400J0D01*
G01*
X2413000Y-16103600D02*
G75*
G03X2413000Y-16103600I-25400J0D01*
G01*
X2418080Y-15354300D02*
G75*
G03X2418080Y-15354300I-25400J0D01*
G01*
X2667000Y-17195800D02*
G75*
G03X2667000Y-17195800I-25400J0D01*
G01*
X2785400Y-17430000D02*
G75*
G03X2785400Y-17430000I-25400J0D01*
G01*
X2832100Y-15354300D02*
G75*
G03X2832100Y-15354300I-25400J0D01*
G01*
X2933700Y-16294100D02*
G75*
G03X2933700Y-16294100I-25400J0D01*
G01*
X2971800Y-17208500D02*
G75*
G03X2971800Y-17208500I-25400J0D01*
G01*
X3098800Y-15303500D02*
G75*
G03X3098800Y-15303500I-25400J0D01*
G01*
X3098800Y-15303500D02*
G75*
G03X3098800Y-15303500I-25400J0D01*
G01*
X3098800Y-15506700D02*
G75*
G03X3098800Y-15506700I-25400J0D01*
G01*
X3594100Y-16700500D02*
G75*
G03X3594100Y-16700500I-25400J0D01*
G01*
X3835400Y-16456949D02*
G75*
G03X3835400Y-16456949I-25400J0D01*
G01*
X3835400Y-16700500D02*
G75*
G03X3835400Y-16700500I-25400J0D01*
G01*
X3835400Y-17348200D02*
G75*
G03X3835400Y-17348200I-25400J0D01*
G01*
X4064000Y-16713200D02*
G75*
G03X4064000Y-16713200I-25400J0D01*
G01*
X4343400Y-17627600D02*
G75*
G03X4343400Y-17627600I-25400J0D01*
G01*
X4558472Y-17082328D02*
G75*
G03X4558472Y-17082328I-25400J0D01*
G01*
X4610100Y-16103600D02*
G75*
G03X4610100Y-16103600I-25400J0D01*
G01*
X4622800Y-15875000D02*
G75*
G03X4622800Y-15875000I-25400J0D01*
G01*
X4887250Y-16149259D02*
G75*
G03X4887250Y-16149259I-25400J0D01*
G01*
X5295400Y-15590000D02*
G75*
G03X5295400Y-15590000I-25400J0D01*
G01*
X5346700Y-16863808D02*
G75*
G03X5346700Y-16863808I-25400J0D01*
G01*
X5448300Y-16446500D02*
G75*
G03X5448300Y-16446500I-25400J0D01*
G01*
X5595400Y-15440000D02*
G75*
G03X5595400Y-15440000I-25400J0D01*
G01*
X5842000Y-17170400D02*
G75*
G03X5842000Y-17170400I-25400J0D01*
G01*
X6883400Y-17106900D02*
G75*
G03X6883400Y-17106900I-25400J0D01*
G01*
X6883400Y-17335500D02*
G75*
G03X6883400Y-17335500I-25400J0D01*
G01*
X4826000Y-14936000D02*
X4826000Y-15036000D01*
X4776000Y-14986000D02*
X4876000Y-14986000D01*
X5080000Y-14936000D02*
X5080000Y-15036000D01*
X5030000Y-14986000D02*
X5130000Y-14986000D01*
X5334000Y-14936000D02*
X5334000Y-15036000D01*
X5284000Y-14986000D02*
X5384000Y-14986000D01*
X5588000Y-14936000D02*
X5588000Y-15036000D01*
X5538000Y-14986000D02*
X5638000Y-14986000D01*
X5842000Y-14936000D02*
X5842000Y-15036000D01*
X5792000Y-14986000D02*
X5892000Y-14986000D01*
X6096000Y-14936000D02*
X6096000Y-15036000D01*
X6046000Y-14986000D02*
X6146000Y-14986000D01*
X6350000Y-14936000D02*
X6350000Y-15036000D01*
X6300000Y-14986000D02*
X6400000Y-14986000D01*
X6604000Y-14936000D02*
X6604000Y-15036000D01*
X6554000Y-14986000D02*
X6654000Y-14986000D01*
X6604000Y-16206000D02*
X6604000Y-16306000D01*
X6554000Y-16256000D02*
X6654000Y-16256000D01*
X6604000Y-16460000D02*
X6604000Y-16560000D01*
X6554000Y-16510000D02*
X6654000Y-16510000D01*
X6604000Y-16714000D02*
X6604000Y-16814000D01*
X6554000Y-16764000D02*
X6654000Y-16764000D01*
X6858000Y-16206000D02*
X6858000Y-16306000D01*
X6808000Y-16256000D02*
X6908000Y-16256000D01*
X6858000Y-16460000D02*
X6858000Y-16560000D01*
X6808000Y-16510000D02*
X6908000Y-16510000D01*
X6858000Y-16714000D02*
X6858000Y-16814000D01*
X6808000Y-16764000D02*
X6908000Y-16764000D01*
X5334000Y-17984000D02*
X5334000Y-18084000D01*
X5284000Y-18034000D02*
X5384000Y-18034000D01*
X5588000Y-17984000D02*
X5588000Y-18084000D01*
X5538000Y-18034000D02*
X5638000Y-18034000D01*
X5842000Y-17984000D02*
X5842000Y-18084000D01*
X5792000Y-18034000D02*
X5892000Y-18034000D01*
X6096000Y-17984000D02*
X6096000Y-18084000D01*
X6046000Y-18034000D02*
X6146000Y-18034000D01*
X6350000Y-17984000D02*
X6350000Y-18084000D01*
X6300000Y-18034000D02*
X6400000Y-18034000D01*
X6604000Y-17984000D02*
X6604000Y-18084000D01*
X6554000Y-18034000D02*
X6654000Y-18034000D01*
X2032000Y-14936000D02*
X2032000Y-15036000D01*
X1982000Y-14986000D02*
X2082000Y-14986000D01*
X2286000Y-14936000D02*
X2286000Y-15036000D01*
X2236000Y-14986000D02*
X2336000Y-14986000D01*
X2540000Y-14936000D02*
X2540000Y-15036000D01*
X2490000Y-14986000D02*
X2590000Y-14986000D01*
X2794000Y-14936000D02*
X2794000Y-15036000D01*
X2744000Y-14986000D02*
X2844000Y-14986000D01*
X3048000Y-14936000D02*
X3048000Y-15036000D01*
X2998000Y-14986000D02*
X3098000Y-14986000D01*
X3302000Y-14936000D02*
X3302000Y-15036000D01*
X3252000Y-14986000D02*
X3352000Y-14986000D01*
X3556000Y-14936000D02*
X3556000Y-15036000D01*
X3506000Y-14986000D02*
X3606000Y-14986000D01*
X3810000Y-14936000D02*
X3810000Y-15036000D01*
X3760000Y-14986000D02*
X3860000Y-14986000D01*
X4064000Y-14936000D02*
X4064000Y-15036000D01*
X4014000Y-14986000D02*
X4114000Y-14986000D01*
X4318000Y-14936000D02*
X4318000Y-15036000D01*
X4268000Y-14986000D02*
X4368000Y-14986000D01*
X1410000Y-17100000D02*
X1410000Y-17200000D01*
X1360000Y-17150000D02*
X1460000Y-17150000D01*
X1410000Y-17354000D02*
X1410000Y-17454000D01*
X1360000Y-17404000D02*
X1460000Y-17404000D01*
X3048000Y-17984000D02*
X3048000Y-18084000D01*
X2998000Y-18034000D02*
X3098000Y-18034000D01*
X3302000Y-17984000D02*
X3302000Y-18084000D01*
X3252000Y-18034000D02*
X3352000Y-18034000D01*
X3556000Y-17984000D02*
X3556000Y-18084000D01*
X3506000Y-18034000D02*
X3606000Y-18034000D01*
X3810000Y-17984000D02*
X3810000Y-18084000D01*
X3760000Y-18034000D02*
X3860000Y-18034000D01*
X4064000Y-17984000D02*
X4064000Y-18084000D01*
X4014000Y-18034000D02*
X4114000Y-18034000D01*
X4318000Y-17984000D02*
X4318000Y-18084000D01*
X4268000Y-18034000D02*
X4368000Y-18034000D01*
X4572000Y-17984000D02*
X4572000Y-18084000D01*
X4522000Y-18034000D02*
X4622000Y-18034000D01*
X4826000Y-17984000D02*
X4826000Y-18084000D01*
X4776000Y-18034000D02*
X4876000Y-18034000D01*
X1389921Y-16037921D02*
X1389921Y-15966079D01*
X1318079Y-15966079D01*
X1318079Y-16037921D01*
X1389921Y-16037921D01*
X1381940Y-15961200D02*
X1326060Y-15961200D01*
X1381940Y-16042800D02*
X1326060Y-16042800D01*
X1326060Y-15961200D02*
G75*
G03X1326060Y-16042800I0J-40800D01*
G01*
X1381940Y-16042800D02*
G75*
G03X1381940Y-15961200I0J40800D01*
G01*
X1389921Y-16901521D02*
X1389921Y-16829679D01*
X1318079Y-16829679D01*
X1318079Y-16901521D01*
X1389921Y-16901521D01*
X1381940Y-16824800D02*
X1326060Y-16824800D01*
X1381940Y-16906400D02*
X1326060Y-16906400D01*
X1326060Y-16824800D02*
G75*
G03X1326060Y-16906400I0J-40800D01*
G01*
X1381940Y-16906400D02*
G75*
G03X1381940Y-16824800I0J40800D01*
G01*
X1821721Y-16037921D02*
X1821721Y-15966079D01*
X1749879Y-15966079D01*
X1749879Y-16037921D01*
X1821721Y-16037921D01*
X1823900Y-15961200D02*
X1747700Y-15961200D01*
X1823900Y-16042800D02*
X1747700Y-16042800D01*
X1747700Y-15961200D02*
G75*
G03X1747700Y-16042800I0J-40800D01*
G01*
X1823900Y-16042800D02*
G75*
G03X1823900Y-15961200I0J40800D01*
G01*
X1821721Y-16901521D02*
X1821721Y-16829679D01*
X1749879Y-16829679D01*
X1749879Y-16901521D01*
X1821721Y-16901521D01*
X1823900Y-16824800D02*
X1747700Y-16824800D01*
X1823900Y-16906400D02*
X1747700Y-16906400D01*
X1747700Y-16824800D02*
G75*
G03X1747700Y-16906400I0J-40800D01*
G01*
X1823900Y-16906400D02*
G75*
G03X1823900Y-16824800I0J40800D01*
G01*
D13*
X1482952Y-18984814D02*
X1482952Y-18684814D01*
X1554380Y-18684814D01*
X1597237Y-18699100D01*
X1625809Y-18727672D01*
X1640094Y-18756243D01*
X1654380Y-18813386D01*
X1654380Y-18856243D01*
X1640094Y-18913386D01*
X1625809Y-18941957D01*
X1597237Y-18970529D01*
X1554380Y-18984814D01*
X1482952Y-18984814D01*
X1782952Y-18984814D02*
X1782952Y-18784814D01*
X1782952Y-18841957D02*
X1797237Y-18813386D01*
X1811523Y-18799100D01*
X1840094Y-18784814D01*
X1868666Y-18784814D01*
X1968666Y-18984814D02*
X1968666Y-18784814D01*
X1968666Y-18684814D02*
X1954380Y-18699100D01*
X1968666Y-18713386D01*
X1982952Y-18699100D01*
X1968666Y-18684814D01*
X1968666Y-18713386D01*
X2154380Y-18984814D02*
X2125809Y-18970529D01*
X2111523Y-18941957D01*
X2111523Y-18684814D01*
X2311523Y-18984814D02*
X2282952Y-18970529D01*
X2268666Y-18941957D01*
X2268666Y-18684814D01*
X2654380Y-18984814D02*
X2654380Y-18684814D01*
X2754380Y-18899100D01*
X2854380Y-18684814D01*
X2854380Y-18984814D01*
X3125809Y-18984814D02*
X3125809Y-18827672D01*
X3111523Y-18799100D01*
X3082952Y-18784814D01*
X3025809Y-18784814D01*
X2997237Y-18799100D01*
X3125809Y-18970529D02*
X3097237Y-18984814D01*
X3025809Y-18984814D01*
X2997237Y-18970529D01*
X2982952Y-18941957D01*
X2982952Y-18913386D01*
X2997237Y-18884814D01*
X3025809Y-18870529D01*
X3097237Y-18870529D01*
X3125809Y-18856243D01*
X3268666Y-18784814D02*
X3268666Y-19084814D01*
X3268666Y-18799100D02*
X3297237Y-18784814D01*
X3354380Y-18784814D01*
X3382952Y-18799100D01*
X3397237Y-18813386D01*
X3411523Y-18841957D01*
X3411523Y-18927672D01*
X3397237Y-18956243D01*
X3382952Y-18970529D01*
X3354380Y-18984814D01*
X3297237Y-18984814D01*
X3268666Y-18970529D01*
X3540094Y-18956243D02*
X3554380Y-18970529D01*
X3540094Y-18984814D01*
X3525809Y-18970529D01*
X3540094Y-18956243D01*
X3540094Y-18984814D01*
X3540094Y-18799100D02*
X3554380Y-18813386D01*
X3540094Y-18827672D01*
X3525809Y-18813386D01*
X3540094Y-18799100D01*
X3540094Y-18827672D01*
X1166523Y-19464100D02*
X1196523Y-19494100D01*
X1196523Y-19464100D02*
X1166523Y-19494100D01*
X1540094Y-19314814D02*
X1568666Y-19314814D01*
X1597237Y-19329100D01*
X1611523Y-19343386D01*
X1625809Y-19371957D01*
X1640094Y-19429100D01*
X1640094Y-19500529D01*
X1625809Y-19557672D01*
X1611523Y-19586243D01*
X1597237Y-19600529D01*
X1568666Y-19614814D01*
X1540094Y-19614814D01*
X1511523Y-19600529D01*
X1497237Y-19586243D01*
X1482952Y-19557672D01*
X1468666Y-19500529D01*
X1468666Y-19429100D01*
X1482952Y-19371957D01*
X1497237Y-19343386D01*
X1511523Y-19329100D01*
X1540094Y-19314814D01*
X1768666Y-19586243D02*
X1782952Y-19600529D01*
X1768666Y-19614814D01*
X1754380Y-19600529D01*
X1768666Y-19586243D01*
X1768666Y-19614814D01*
X1882952Y-19314814D02*
X2068666Y-19314814D01*
X1968666Y-19429100D01*
X2011523Y-19429100D01*
X2040094Y-19443386D01*
X2054380Y-19457672D01*
X2068666Y-19486243D01*
X2068666Y-19557672D01*
X2054380Y-19586243D01*
X2040094Y-19600529D01*
X2011523Y-19614814D01*
X1925809Y-19614814D01*
X1897237Y-19600529D01*
X1882952Y-19586243D01*
X2254380Y-19314814D02*
X2282952Y-19314814D01*
X2311523Y-19329100D01*
X2325809Y-19343386D01*
X2340095Y-19371957D01*
X2354380Y-19429100D01*
X2354380Y-19500529D01*
X2340095Y-19557672D01*
X2325809Y-19586243D01*
X2311523Y-19600529D01*
X2282952Y-19614814D01*
X2254380Y-19614814D01*
X2225809Y-19600529D01*
X2211523Y-19586243D01*
X2197237Y-19557672D01*
X2182952Y-19500529D01*
X2182952Y-19429100D01*
X2197237Y-19371957D01*
X2211523Y-19343386D01*
X2225809Y-19329100D01*
X2254380Y-19314814D01*
X2482952Y-19614814D02*
X2482952Y-19414814D01*
X2482952Y-19443386D02*
X2497237Y-19429100D01*
X2525809Y-19414814D01*
X2568666Y-19414814D01*
X2597237Y-19429100D01*
X2611523Y-19457672D01*
X2611523Y-19614814D01*
X2611523Y-19457672D02*
X2625809Y-19429100D01*
X2654380Y-19414814D01*
X2697237Y-19414814D01*
X2725809Y-19429100D01*
X2740095Y-19457672D01*
X2740095Y-19614814D01*
X2882952Y-19614814D02*
X2882952Y-19414814D01*
X2882952Y-19443386D02*
X2897237Y-19429100D01*
X2925809Y-19414814D01*
X2968666Y-19414814D01*
X2997237Y-19429100D01*
X3011523Y-19457672D01*
X3011523Y-19614814D01*
X3011523Y-19457672D02*
X3025809Y-19429100D01*
X3054380Y-19414814D01*
X3097237Y-19414814D01*
X3125809Y-19429100D01*
X3140094Y-19457672D01*
X3140094Y-19614814D01*
X3725809Y-19300529D02*
X3468666Y-19686243D01*
X4111523Y-19314814D02*
X4140094Y-19314814D01*
X4168666Y-19329100D01*
X4182952Y-19343386D01*
X4197237Y-19371957D01*
X4211523Y-19429100D01*
X4211523Y-19500529D01*
X4197237Y-19557672D01*
X4182952Y-19586243D01*
X4168666Y-19600529D01*
X4140094Y-19614814D01*
X4111523Y-19614814D01*
X4082952Y-19600529D01*
X4068666Y-19586243D01*
X4054380Y-19557672D01*
X4040094Y-19500529D01*
X4040094Y-19429100D01*
X4054380Y-19371957D01*
X4068666Y-19343386D01*
X4082952Y-19329100D01*
X4111523Y-19314814D01*
X4340095Y-19586243D02*
X4354380Y-19600529D01*
X4340095Y-19614814D01*
X4325809Y-19600529D01*
X4340095Y-19586243D01*
X4340095Y-19614814D01*
X4540095Y-19314814D02*
X4568666Y-19314814D01*
X4597237Y-19329100D01*
X4611523Y-19343386D01*
X4625809Y-19371957D01*
X4640095Y-19429100D01*
X4640095Y-19500529D01*
X4625809Y-19557672D01*
X4611523Y-19586243D01*
X4597237Y-19600529D01*
X4568666Y-19614814D01*
X4540095Y-19614814D01*
X4511523Y-19600529D01*
X4497237Y-19586243D01*
X4482952Y-19557672D01*
X4468666Y-19500529D01*
X4468666Y-19429100D01*
X4482952Y-19371957D01*
X4497237Y-19343386D01*
X4511523Y-19329100D01*
X4540095Y-19314814D01*
X4925809Y-19614814D02*
X4754380Y-19614814D01*
X4840095Y-19614814D02*
X4840095Y-19314814D01*
X4811523Y-19357672D01*
X4782952Y-19386243D01*
X4754380Y-19400529D01*
X5040095Y-19343386D02*
X5054380Y-19329100D01*
X5082952Y-19314814D01*
X5154380Y-19314814D01*
X5182952Y-19329100D01*
X5197237Y-19343386D01*
X5211523Y-19371957D01*
X5211523Y-19400529D01*
X5197237Y-19443386D01*
X5025809Y-19614814D01*
X5211523Y-19614814D01*
X5325809Y-19314814D02*
X5325809Y-19371957D01*
X5440095Y-19314814D02*
X5440095Y-19371957D01*
X5882952Y-19729100D02*
X5868666Y-19714814D01*
X5840094Y-19671957D01*
X5825809Y-19643386D01*
X5811523Y-19600529D01*
X5797237Y-19529100D01*
X5797237Y-19471957D01*
X5811523Y-19400529D01*
X5825809Y-19357672D01*
X5840094Y-19329100D01*
X5868666Y-19286243D01*
X5882952Y-19271957D01*
X6125809Y-19414814D02*
X6125809Y-19614814D01*
X6054380Y-19300529D02*
X5982952Y-19514814D01*
X6168666Y-19514814D01*
X6411523Y-19314814D02*
X6354380Y-19314814D01*
X6325809Y-19329100D01*
X6311523Y-19343386D01*
X6282952Y-19386243D01*
X6268666Y-19443386D01*
X6268666Y-19557672D01*
X6282952Y-19586243D01*
X6297237Y-19600529D01*
X6325809Y-19614814D01*
X6382952Y-19614814D01*
X6411523Y-19600529D01*
X6425809Y-19586243D01*
X6440094Y-19557672D01*
X6440094Y-19486243D01*
X6425809Y-19457672D01*
X6411523Y-19443386D01*
X6382952Y-19429100D01*
X6325809Y-19429100D01*
X6297237Y-19443386D01*
X6282952Y-19457672D01*
X6268666Y-19486243D01*
X6797237Y-19614814D02*
X6797237Y-19314814D01*
X6925809Y-19614814D02*
X6925809Y-19457672D01*
X6911523Y-19429100D01*
X6882952Y-19414814D01*
X6840094Y-19414814D01*
X6811523Y-19429100D01*
X6797237Y-19443386D01*
X7111523Y-19614814D02*
X7082952Y-19600529D01*
X7068666Y-19586243D01*
X7054380Y-19557672D01*
X7054380Y-19471957D01*
X7068666Y-19443386D01*
X7082952Y-19429100D01*
X7111523Y-19414814D01*
X7154380Y-19414814D01*
X7182952Y-19429100D01*
X7197237Y-19443386D01*
X7211523Y-19471957D01*
X7211523Y-19557672D01*
X7197237Y-19586243D01*
X7182952Y-19600529D01*
X7154380Y-19614814D01*
X7111523Y-19614814D01*
X7382952Y-19614814D02*
X7354380Y-19600529D01*
X7340094Y-19571957D01*
X7340094Y-19314814D01*
X7611523Y-19600529D02*
X7582952Y-19614814D01*
X7525809Y-19614814D01*
X7497237Y-19600529D01*
X7482952Y-19571957D01*
X7482952Y-19457672D01*
X7497237Y-19429100D01*
X7525809Y-19414814D01*
X7582952Y-19414814D01*
X7611523Y-19429100D01*
X7625809Y-19457672D01*
X7625809Y-19486243D01*
X7482952Y-19514814D01*
X7740094Y-19600529D02*
X7768666Y-19614814D01*
X7825809Y-19614814D01*
X7854380Y-19600529D01*
X7868666Y-19571957D01*
X7868666Y-19557672D01*
X7854380Y-19529100D01*
X7825809Y-19514814D01*
X7782952Y-19514814D01*
X7754380Y-19500529D01*
X7740094Y-19471957D01*
X7740094Y-19457672D01*
X7754380Y-19429100D01*
X7782952Y-19414814D01*
X7825809Y-19414814D01*
X7854380Y-19429100D01*
X7968666Y-19729100D02*
X7982952Y-19714814D01*
X8011523Y-19671957D01*
X8025809Y-19643386D01*
X8040094Y-19600529D01*
X8054380Y-19529100D01*
X8054380Y-19471957D01*
X8040094Y-19400529D01*
X8025809Y-19357672D01*
X8011523Y-19329100D01*
X7982952Y-19286243D01*
X7968666Y-19271957D01*
X1196523Y-19875100D02*
G75*
G03X1196523Y-19875100I-25400J0D01*
G01*
X1540094Y-19710814D02*
X1568666Y-19710814D01*
X1597237Y-19725100D01*
X1611523Y-19739386D01*
X1625809Y-19767957D01*
X1640094Y-19825100D01*
X1640094Y-19896529D01*
X1625809Y-19953672D01*
X1611523Y-19982243D01*
X1597237Y-19996529D01*
X1568666Y-20010814D01*
X1540094Y-20010814D01*
X1511523Y-19996529D01*
X1497237Y-19982243D01*
X1482952Y-19953672D01*
X1468666Y-19896529D01*
X1468666Y-19825100D01*
X1482952Y-19767957D01*
X1497237Y-19739386D01*
X1511523Y-19725100D01*
X1540094Y-19710814D01*
X1768666Y-19982243D02*
X1782952Y-19996529D01*
X1768666Y-20010814D01*
X1754380Y-19996529D01*
X1768666Y-19982243D01*
X1768666Y-20010814D01*
X2054380Y-19710814D02*
X1911523Y-19710814D01*
X1897237Y-19853672D01*
X1911523Y-19839386D01*
X1940094Y-19825100D01*
X2011523Y-19825100D01*
X2040094Y-19839386D01*
X2054380Y-19853672D01*
X2068666Y-19882243D01*
X2068666Y-19953672D01*
X2054380Y-19982243D01*
X2040094Y-19996529D01*
X2011523Y-20010814D01*
X1940094Y-20010814D01*
X1911523Y-19996529D01*
X1897237Y-19982243D01*
X2354380Y-20010814D02*
X2182952Y-20010814D01*
X2268666Y-20010814D02*
X2268666Y-19710814D01*
X2240095Y-19753672D01*
X2211523Y-19782243D01*
X2182952Y-19796529D01*
X2482952Y-20010814D02*
X2482952Y-19810814D01*
X2482952Y-19839386D02*
X2497237Y-19825100D01*
X2525809Y-19810814D01*
X2568666Y-19810814D01*
X2597237Y-19825100D01*
X2611523Y-19853672D01*
X2611523Y-20010814D01*
X2611523Y-19853672D02*
X2625809Y-19825100D01*
X2654380Y-19810814D01*
X2697237Y-19810814D01*
X2725809Y-19825100D01*
X2740095Y-19853672D01*
X2740095Y-20010814D01*
X2882952Y-20010814D02*
X2882952Y-19810814D01*
X2882952Y-19839386D02*
X2897237Y-19825100D01*
X2925809Y-19810814D01*
X2968666Y-19810814D01*
X2997237Y-19825100D01*
X3011523Y-19853672D01*
X3011523Y-20010814D01*
X3011523Y-19853672D02*
X3025809Y-19825100D01*
X3054380Y-19810814D01*
X3097237Y-19810814D01*
X3125809Y-19825100D01*
X3140094Y-19853672D01*
X3140094Y-20010814D01*
X3725809Y-19696529D02*
X3468666Y-20082243D01*
X4111523Y-19710814D02*
X4140094Y-19710814D01*
X4168666Y-19725100D01*
X4182952Y-19739386D01*
X4197237Y-19767957D01*
X4211523Y-19825100D01*
X4211523Y-19896529D01*
X4197237Y-19953672D01*
X4182952Y-19982243D01*
X4168666Y-19996529D01*
X4140094Y-20010814D01*
X4111523Y-20010814D01*
X4082952Y-19996529D01*
X4068666Y-19982243D01*
X4054380Y-19953672D01*
X4040094Y-19896529D01*
X4040094Y-19825100D01*
X4054380Y-19767957D01*
X4068666Y-19739386D01*
X4082952Y-19725100D01*
X4111523Y-19710814D01*
X4340095Y-19982243D02*
X4354380Y-19996529D01*
X4340095Y-20010814D01*
X4325809Y-19996529D01*
X4340095Y-19982243D01*
X4340095Y-20010814D01*
X4540095Y-19710814D02*
X4568666Y-19710814D01*
X4597237Y-19725100D01*
X4611523Y-19739386D01*
X4625809Y-19767957D01*
X4640095Y-19825100D01*
X4640095Y-19896529D01*
X4625809Y-19953672D01*
X4611523Y-19982243D01*
X4597237Y-19996529D01*
X4568666Y-20010814D01*
X4540095Y-20010814D01*
X4511523Y-19996529D01*
X4497237Y-19982243D01*
X4482952Y-19953672D01*
X4468666Y-19896529D01*
X4468666Y-19825100D01*
X4482952Y-19767957D01*
X4497237Y-19739386D01*
X4511523Y-19725100D01*
X4540095Y-19710814D01*
X4754380Y-19739386D02*
X4768666Y-19725100D01*
X4797237Y-19710814D01*
X4868666Y-19710814D01*
X4897237Y-19725100D01*
X4911523Y-19739386D01*
X4925809Y-19767957D01*
X4925809Y-19796529D01*
X4911523Y-19839386D01*
X4740095Y-20010814D01*
X4925809Y-20010814D01*
X5111523Y-19710814D02*
X5140095Y-19710814D01*
X5168666Y-19725100D01*
X5182952Y-19739386D01*
X5197237Y-19767957D01*
X5211523Y-19825100D01*
X5211523Y-19896529D01*
X5197237Y-19953672D01*
X5182952Y-19982243D01*
X5168666Y-19996529D01*
X5140095Y-20010814D01*
X5111523Y-20010814D01*
X5082952Y-19996529D01*
X5068666Y-19982243D01*
X5054380Y-19953672D01*
X5040095Y-19896529D01*
X5040095Y-19825100D01*
X5054380Y-19767957D01*
X5068666Y-19739386D01*
X5082952Y-19725100D01*
X5111523Y-19710814D01*
X5325809Y-19710814D02*
X5325809Y-19767957D01*
X5440095Y-19710814D02*
X5440095Y-19767957D01*
X5882952Y-20125100D02*
X5868666Y-20110814D01*
X5840094Y-20067957D01*
X5825809Y-20039386D01*
X5811523Y-19996529D01*
X5797237Y-19925100D01*
X5797237Y-19867957D01*
X5811523Y-19796529D01*
X5825809Y-19753672D01*
X5840094Y-19725100D01*
X5868666Y-19682243D01*
X5882952Y-19667957D01*
X5968666Y-19710814D02*
X6154380Y-19710814D01*
X6054380Y-19825100D01*
X6097237Y-19825100D01*
X6125809Y-19839386D01*
X6140094Y-19853672D01*
X6154380Y-19882243D01*
X6154380Y-19953672D01*
X6140094Y-19982243D01*
X6125809Y-19996529D01*
X6097237Y-20010814D01*
X6011523Y-20010814D01*
X5982952Y-19996529D01*
X5968666Y-19982243D01*
X6254380Y-19710814D02*
X6440094Y-19710814D01*
X6340094Y-19825100D01*
X6382952Y-19825100D01*
X6411523Y-19839386D01*
X6425809Y-19853672D01*
X6440094Y-19882243D01*
X6440094Y-19953672D01*
X6425809Y-19982243D01*
X6411523Y-19996529D01*
X6382952Y-20010814D01*
X6297237Y-20010814D01*
X6268666Y-19996529D01*
X6254380Y-19982243D01*
X6797237Y-20010814D02*
X6797237Y-19710814D01*
X6925809Y-20010814D02*
X6925809Y-19853672D01*
X6911523Y-19825100D01*
X6882952Y-19810814D01*
X6840094Y-19810814D01*
X6811523Y-19825100D01*
X6797237Y-19839386D01*
X7111523Y-20010814D02*
X7082952Y-19996529D01*
X7068666Y-19982243D01*
X7054380Y-19953672D01*
X7054380Y-19867957D01*
X7068666Y-19839386D01*
X7082952Y-19825100D01*
X7111523Y-19810814D01*
X7154380Y-19810814D01*
X7182952Y-19825100D01*
X7197237Y-19839386D01*
X7211523Y-19867957D01*
X7211523Y-19953672D01*
X7197237Y-19982243D01*
X7182952Y-19996529D01*
X7154380Y-20010814D01*
X7111523Y-20010814D01*
X7382952Y-20010814D02*
X7354380Y-19996529D01*
X7340094Y-19967957D01*
X7340094Y-19710814D01*
X7611523Y-19996529D02*
X7582952Y-20010814D01*
X7525809Y-20010814D01*
X7497237Y-19996529D01*
X7482952Y-19967957D01*
X7482952Y-19853672D01*
X7497237Y-19825100D01*
X7525809Y-19810814D01*
X7582952Y-19810814D01*
X7611523Y-19825100D01*
X7625809Y-19853672D01*
X7625809Y-19882243D01*
X7482952Y-19910814D01*
X7740094Y-19996529D02*
X7768666Y-20010814D01*
X7825809Y-20010814D01*
X7854380Y-19996529D01*
X7868666Y-19967957D01*
X7868666Y-19953672D01*
X7854380Y-19925100D01*
X7825809Y-19910814D01*
X7782952Y-19910814D01*
X7754380Y-19896529D01*
X7740094Y-19867957D01*
X7740094Y-19853672D01*
X7754380Y-19825100D01*
X7782952Y-19810814D01*
X7825809Y-19810814D01*
X7854380Y-19825100D01*
X7968666Y-20125100D02*
X7982952Y-20110814D01*
X8011523Y-20067957D01*
X8025809Y-20039386D01*
X8040094Y-19996529D01*
X8054380Y-19925100D01*
X8054380Y-19867957D01*
X8040094Y-19796529D01*
X8025809Y-19753672D01*
X8011523Y-19725100D01*
X7982952Y-19682243D01*
X7968666Y-19667957D01*
X1146523Y-20221100D02*
X1146523Y-20321100D01*
X1096523Y-20271100D02*
X1196523Y-20271100D01*
X1640094Y-20406814D02*
X1468666Y-20406814D01*
X1554380Y-20406814D02*
X1554380Y-20106814D01*
X1525809Y-20149672D01*
X1497237Y-20178243D01*
X1468666Y-20192529D01*
X1768666Y-20378243D02*
X1782952Y-20392529D01*
X1768666Y-20406814D01*
X1754380Y-20392529D01*
X1768666Y-20378243D01*
X1768666Y-20406814D01*
X1968666Y-20106814D02*
X1997237Y-20106814D01*
X2025809Y-20121100D01*
X2040094Y-20135386D01*
X2054380Y-20163957D01*
X2068666Y-20221100D01*
X2068666Y-20292529D01*
X2054380Y-20349672D01*
X2040094Y-20378243D01*
X2025809Y-20392529D01*
X1997237Y-20406814D01*
X1968666Y-20406814D01*
X1940094Y-20392529D01*
X1925809Y-20378243D01*
X1911523Y-20349672D01*
X1897237Y-20292529D01*
X1897237Y-20221100D01*
X1911523Y-20163957D01*
X1925809Y-20135386D01*
X1940094Y-20121100D01*
X1968666Y-20106814D01*
X2254380Y-20106814D02*
X2282952Y-20106814D01*
X2311523Y-20121100D01*
X2325809Y-20135386D01*
X2340095Y-20163957D01*
X2354380Y-20221100D01*
X2354380Y-20292529D01*
X2340095Y-20349672D01*
X2325809Y-20378243D01*
X2311523Y-20392529D01*
X2282952Y-20406814D01*
X2254380Y-20406814D01*
X2225809Y-20392529D01*
X2211523Y-20378243D01*
X2197237Y-20349672D01*
X2182952Y-20292529D01*
X2182952Y-20221100D01*
X2197237Y-20163957D01*
X2211523Y-20135386D01*
X2225809Y-20121100D01*
X2254380Y-20106814D01*
X2482952Y-20406814D02*
X2482952Y-20206814D01*
X2482952Y-20235386D02*
X2497237Y-20221100D01*
X2525809Y-20206814D01*
X2568666Y-20206814D01*
X2597237Y-20221100D01*
X2611523Y-20249672D01*
X2611523Y-20406814D01*
X2611523Y-20249672D02*
X2625809Y-20221100D01*
X2654380Y-20206814D01*
X2697237Y-20206814D01*
X2725809Y-20221100D01*
X2740095Y-20249672D01*
X2740095Y-20406814D01*
X2882952Y-20406814D02*
X2882952Y-20206814D01*
X2882952Y-20235386D02*
X2897237Y-20221100D01*
X2925809Y-20206814D01*
X2968666Y-20206814D01*
X2997237Y-20221100D01*
X3011523Y-20249672D01*
X3011523Y-20406814D01*
X3011523Y-20249672D02*
X3025809Y-20221100D01*
X3054380Y-20206814D01*
X3097237Y-20206814D01*
X3125809Y-20221100D01*
X3140094Y-20249672D01*
X3140094Y-20406814D01*
X3725809Y-20092529D02*
X3468666Y-20478243D01*
X4111523Y-20106814D02*
X4140094Y-20106814D01*
X4168666Y-20121100D01*
X4182952Y-20135386D01*
X4197237Y-20163957D01*
X4211523Y-20221100D01*
X4211523Y-20292529D01*
X4197237Y-20349672D01*
X4182952Y-20378243D01*
X4168666Y-20392529D01*
X4140094Y-20406814D01*
X4111523Y-20406814D01*
X4082952Y-20392529D01*
X4068666Y-20378243D01*
X4054380Y-20349672D01*
X4040094Y-20292529D01*
X4040094Y-20221100D01*
X4054380Y-20163957D01*
X4068666Y-20135386D01*
X4082952Y-20121100D01*
X4111523Y-20106814D01*
X4340095Y-20378243D02*
X4354380Y-20392529D01*
X4340095Y-20406814D01*
X4325809Y-20392529D01*
X4340095Y-20378243D01*
X4340095Y-20406814D01*
X4540095Y-20106814D02*
X4568666Y-20106814D01*
X4597237Y-20121100D01*
X4611523Y-20135386D01*
X4625809Y-20163957D01*
X4640095Y-20221100D01*
X4640095Y-20292529D01*
X4625809Y-20349672D01*
X4611523Y-20378243D01*
X4597237Y-20392529D01*
X4568666Y-20406814D01*
X4540095Y-20406814D01*
X4511523Y-20392529D01*
X4497237Y-20378243D01*
X4482952Y-20349672D01*
X4468666Y-20292529D01*
X4468666Y-20221100D01*
X4482952Y-20163957D01*
X4497237Y-20135386D01*
X4511523Y-20121100D01*
X4540095Y-20106814D01*
X4740095Y-20106814D02*
X4925809Y-20106814D01*
X4825809Y-20221100D01*
X4868666Y-20221100D01*
X4897237Y-20235386D01*
X4911523Y-20249672D01*
X4925809Y-20278243D01*
X4925809Y-20349672D01*
X4911523Y-20378243D01*
X4897237Y-20392529D01*
X4868666Y-20406814D01*
X4782952Y-20406814D01*
X4754380Y-20392529D01*
X4740095Y-20378243D01*
X5068666Y-20406814D02*
X5125809Y-20406814D01*
X5154380Y-20392529D01*
X5168666Y-20378243D01*
X5197237Y-20335386D01*
X5211523Y-20278243D01*
X5211523Y-20163957D01*
X5197237Y-20135386D01*
X5182952Y-20121100D01*
X5154380Y-20106814D01*
X5097237Y-20106814D01*
X5068666Y-20121100D01*
X5054380Y-20135386D01*
X5040095Y-20163957D01*
X5040095Y-20235386D01*
X5054380Y-20263957D01*
X5068666Y-20278243D01*
X5097237Y-20292529D01*
X5154380Y-20292529D01*
X5182952Y-20278243D01*
X5197237Y-20263957D01*
X5211523Y-20235386D01*
X5325809Y-20106814D02*
X5325809Y-20163957D01*
X5440095Y-20106814D02*
X5440095Y-20163957D01*
X5882952Y-20521100D02*
X5868666Y-20506814D01*
X5840094Y-20463957D01*
X5825809Y-20435386D01*
X5811523Y-20392529D01*
X5797237Y-20321100D01*
X5797237Y-20263957D01*
X5811523Y-20192529D01*
X5825809Y-20149672D01*
X5840094Y-20121100D01*
X5868666Y-20078243D01*
X5882952Y-20063957D01*
X6125809Y-20206814D02*
X6125809Y-20406814D01*
X6054380Y-20092529D02*
X5982952Y-20306814D01*
X6168666Y-20306814D01*
X6340094Y-20106814D02*
X6368666Y-20106814D01*
X6397237Y-20121100D01*
X6411523Y-20135386D01*
X6425809Y-20163957D01*
X6440094Y-20221100D01*
X6440094Y-20292529D01*
X6425809Y-20349672D01*
X6411523Y-20378243D01*
X6397237Y-20392529D01*
X6368666Y-20406814D01*
X6340094Y-20406814D01*
X6311523Y-20392529D01*
X6297237Y-20378243D01*
X6282952Y-20349672D01*
X6268666Y-20292529D01*
X6268666Y-20221100D01*
X6282952Y-20163957D01*
X6297237Y-20135386D01*
X6311523Y-20121100D01*
X6340094Y-20106814D01*
X6797237Y-20406814D02*
X6797237Y-20106814D01*
X6925809Y-20406814D02*
X6925809Y-20249672D01*
X6911523Y-20221100D01*
X6882952Y-20206814D01*
X6840094Y-20206814D01*
X6811523Y-20221100D01*
X6797237Y-20235386D01*
X7111523Y-20406814D02*
X7082952Y-20392529D01*
X7068666Y-20378243D01*
X7054380Y-20349672D01*
X7054380Y-20263957D01*
X7068666Y-20235386D01*
X7082952Y-20221100D01*
X7111523Y-20206814D01*
X7154380Y-20206814D01*
X7182952Y-20221100D01*
X7197237Y-20235386D01*
X7211523Y-20263957D01*
X7211523Y-20349672D01*
X7197237Y-20378243D01*
X7182952Y-20392529D01*
X7154380Y-20406814D01*
X7111523Y-20406814D01*
X7382952Y-20406814D02*
X7354380Y-20392529D01*
X7340094Y-20363957D01*
X7340094Y-20106814D01*
X7611523Y-20392529D02*
X7582952Y-20406814D01*
X7525809Y-20406814D01*
X7497237Y-20392529D01*
X7482952Y-20363957D01*
X7482952Y-20249672D01*
X7497237Y-20221100D01*
X7525809Y-20206814D01*
X7582952Y-20206814D01*
X7611523Y-20221100D01*
X7625809Y-20249672D01*
X7625809Y-20278243D01*
X7482952Y-20306814D01*
X7740094Y-20392529D02*
X7768666Y-20406814D01*
X7825809Y-20406814D01*
X7854380Y-20392529D01*
X7868666Y-20363957D01*
X7868666Y-20349672D01*
X7854380Y-20321100D01*
X7825809Y-20306814D01*
X7782952Y-20306814D01*
X7754380Y-20292529D01*
X7740094Y-20263957D01*
X7740094Y-20249672D01*
X7754380Y-20221100D01*
X7782952Y-20206814D01*
X7825809Y-20206814D01*
X7854380Y-20221100D01*
X7968666Y-20521100D02*
X7982952Y-20506814D01*
X8011523Y-20463957D01*
X8025809Y-20435386D01*
X8040094Y-20392529D01*
X8054380Y-20321100D01*
X8054380Y-20263957D01*
X8040094Y-20192529D01*
X8025809Y-20149672D01*
X8011523Y-20121100D01*
X7982952Y-20078243D01*
X7968666Y-20063957D01*
X1181645Y-20703022D02*
X1181645Y-20631179D01*
X1109802Y-20631179D01*
X1109802Y-20703022D01*
X1181645Y-20703022D01*
X1640094Y-20802814D02*
X1468666Y-20802814D01*
X1554380Y-20802814D02*
X1554380Y-20502814D01*
X1525809Y-20545672D01*
X1497237Y-20574243D01*
X1468666Y-20588529D01*
X1768666Y-20774243D02*
X1782952Y-20788529D01*
X1768666Y-20802814D01*
X1754380Y-20788529D01*
X1768666Y-20774243D01*
X1768666Y-20802814D01*
X1968666Y-20502814D02*
X1997237Y-20502814D01*
X2025809Y-20517100D01*
X2040094Y-20531386D01*
X2054380Y-20559957D01*
X2068666Y-20617100D01*
X2068666Y-20688529D01*
X2054380Y-20745672D01*
X2040094Y-20774243D01*
X2025809Y-20788529D01*
X1997237Y-20802814D01*
X1968666Y-20802814D01*
X1940094Y-20788529D01*
X1925809Y-20774243D01*
X1911523Y-20745672D01*
X1897237Y-20688529D01*
X1897237Y-20617100D01*
X1911523Y-20559957D01*
X1925809Y-20531386D01*
X1940094Y-20517100D01*
X1968666Y-20502814D01*
X2182952Y-20531386D02*
X2197237Y-20517100D01*
X2225809Y-20502814D01*
X2297237Y-20502814D01*
X2325809Y-20517100D01*
X2340095Y-20531386D01*
X2354380Y-20559957D01*
X2354380Y-20588529D01*
X2340095Y-20631386D01*
X2168666Y-20802814D01*
X2354380Y-20802814D01*
X2482952Y-20802814D02*
X2482952Y-20602814D01*
X2482952Y-20631386D02*
X2497237Y-20617100D01*
X2525809Y-20602814D01*
X2568666Y-20602814D01*
X2597237Y-20617100D01*
X2611523Y-20645672D01*
X2611523Y-20802814D01*
X2611523Y-20645672D02*
X2625809Y-20617100D01*
X2654380Y-20602814D01*
X2697237Y-20602814D01*
X2725809Y-20617100D01*
X2740095Y-20645672D01*
X2740095Y-20802814D01*
X2882952Y-20802814D02*
X2882952Y-20602814D01*
X2882952Y-20631386D02*
X2897237Y-20617100D01*
X2925809Y-20602814D01*
X2968666Y-20602814D01*
X2997237Y-20617100D01*
X3011523Y-20645672D01*
X3011523Y-20802814D01*
X3011523Y-20645672D02*
X3025809Y-20617100D01*
X3054380Y-20602814D01*
X3097237Y-20602814D01*
X3125809Y-20617100D01*
X3140094Y-20645672D01*
X3140094Y-20802814D01*
X3725809Y-20488529D02*
X3468666Y-20874243D01*
X4111523Y-20502814D02*
X4140094Y-20502814D01*
X4168666Y-20517100D01*
X4182952Y-20531386D01*
X4197237Y-20559957D01*
X4211523Y-20617100D01*
X4211523Y-20688529D01*
X4197237Y-20745672D01*
X4182952Y-20774243D01*
X4168666Y-20788529D01*
X4140094Y-20802814D01*
X4111523Y-20802814D01*
X4082952Y-20788529D01*
X4068666Y-20774243D01*
X4054380Y-20745672D01*
X4040094Y-20688529D01*
X4040094Y-20617100D01*
X4054380Y-20559957D01*
X4068666Y-20531386D01*
X4082952Y-20517100D01*
X4111523Y-20502814D01*
X4340095Y-20774243D02*
X4354380Y-20788529D01*
X4340095Y-20802814D01*
X4325809Y-20788529D01*
X4340095Y-20774243D01*
X4340095Y-20802814D01*
X4540095Y-20502814D02*
X4568666Y-20502814D01*
X4597237Y-20517100D01*
X4611523Y-20531386D01*
X4625809Y-20559957D01*
X4640095Y-20617100D01*
X4640095Y-20688529D01*
X4625809Y-20745672D01*
X4611523Y-20774243D01*
X4597237Y-20788529D01*
X4568666Y-20802814D01*
X4540095Y-20802814D01*
X4511523Y-20788529D01*
X4497237Y-20774243D01*
X4482952Y-20745672D01*
X4468666Y-20688529D01*
X4468666Y-20617100D01*
X4482952Y-20559957D01*
X4497237Y-20531386D01*
X4511523Y-20517100D01*
X4540095Y-20502814D01*
X4897237Y-20602814D02*
X4897237Y-20802814D01*
X4825809Y-20488529D02*
X4754380Y-20702814D01*
X4940095Y-20702814D01*
X5111523Y-20502814D02*
X5140095Y-20502814D01*
X5168666Y-20517100D01*
X5182952Y-20531386D01*
X5197237Y-20559957D01*
X5211523Y-20617100D01*
X5211523Y-20688529D01*
X5197237Y-20745672D01*
X5182952Y-20774243D01*
X5168666Y-20788529D01*
X5140095Y-20802814D01*
X5111523Y-20802814D01*
X5082952Y-20788529D01*
X5068666Y-20774243D01*
X5054380Y-20745672D01*
X5040095Y-20688529D01*
X5040095Y-20617100D01*
X5054380Y-20559957D01*
X5068666Y-20531386D01*
X5082952Y-20517100D01*
X5111523Y-20502814D01*
X5325809Y-20502814D02*
X5325809Y-20559957D01*
X5440095Y-20502814D02*
X5440095Y-20559957D01*
X5882952Y-20917100D02*
X5868666Y-20902814D01*
X5840094Y-20859957D01*
X5825809Y-20831386D01*
X5811523Y-20788529D01*
X5797237Y-20717100D01*
X5797237Y-20659957D01*
X5811523Y-20588529D01*
X5825809Y-20545672D01*
X5840094Y-20517100D01*
X5868666Y-20474243D01*
X5882952Y-20459957D01*
X6054380Y-20502814D02*
X6082952Y-20502814D01*
X6111523Y-20517100D01*
X6125809Y-20531386D01*
X6140094Y-20559957D01*
X6154380Y-20617100D01*
X6154380Y-20688529D01*
X6140094Y-20745672D01*
X6125809Y-20774243D01*
X6111523Y-20788529D01*
X6082952Y-20802814D01*
X6054380Y-20802814D01*
X6025809Y-20788529D01*
X6011523Y-20774243D01*
X5997237Y-20745672D01*
X5982952Y-20688529D01*
X5982952Y-20617100D01*
X5997237Y-20559957D01*
X6011523Y-20531386D01*
X6025809Y-20517100D01*
X6054380Y-20502814D01*
X6511523Y-20802814D02*
X6511523Y-20502814D01*
X6640094Y-20802814D02*
X6640094Y-20645672D01*
X6625809Y-20617100D01*
X6597237Y-20602814D01*
X6554380Y-20602814D01*
X6525809Y-20617100D01*
X6511523Y-20631386D01*
X6825809Y-20802814D02*
X6797237Y-20788529D01*
X6782952Y-20774243D01*
X6768666Y-20745672D01*
X6768666Y-20659957D01*
X6782952Y-20631386D01*
X6797237Y-20617100D01*
X6825809Y-20602814D01*
X6868666Y-20602814D01*
X6897237Y-20617100D01*
X6911523Y-20631386D01*
X6925809Y-20659957D01*
X6925809Y-20745672D01*
X6911523Y-20774243D01*
X6897237Y-20788529D01*
X6868666Y-20802814D01*
X6825809Y-20802814D01*
X7097237Y-20802814D02*
X7068666Y-20788529D01*
X7054380Y-20759957D01*
X7054380Y-20502814D01*
X7325809Y-20788529D02*
X7297237Y-20802814D01*
X7240094Y-20802814D01*
X7211523Y-20788529D01*
X7197237Y-20759957D01*
X7197237Y-20645672D01*
X7211523Y-20617100D01*
X7240094Y-20602814D01*
X7297237Y-20602814D01*
X7325809Y-20617100D01*
X7340094Y-20645672D01*
X7340094Y-20674243D01*
X7197237Y-20702814D01*
X7454380Y-20788529D02*
X7482952Y-20802814D01*
X7540094Y-20802814D01*
X7568666Y-20788529D01*
X7582952Y-20759957D01*
X7582952Y-20745672D01*
X7568666Y-20717100D01*
X7540094Y-20702814D01*
X7497237Y-20702814D01*
X7468666Y-20688529D01*
X7454380Y-20659957D01*
X7454380Y-20645672D01*
X7468666Y-20617100D01*
X7497237Y-20602814D01*
X7540094Y-20602814D01*
X7568666Y-20617100D01*
X7940094Y-20688529D02*
X8168666Y-20688529D01*
X8054380Y-20802814D02*
X8054380Y-20574243D01*
X8668666Y-20602814D02*
X8668666Y-20802814D01*
X8597237Y-20488529D02*
X8525809Y-20702814D01*
X8711523Y-20702814D01*
X9040095Y-20788529D02*
X9068666Y-20802814D01*
X9125809Y-20802814D01*
X9154380Y-20788529D01*
X9168666Y-20759957D01*
X9168666Y-20745672D01*
X9154380Y-20717100D01*
X9125809Y-20702814D01*
X9082952Y-20702814D01*
X9054380Y-20688529D01*
X9040095Y-20659957D01*
X9040095Y-20645672D01*
X9054380Y-20617100D01*
X9082952Y-20602814D01*
X9125809Y-20602814D01*
X9154380Y-20617100D01*
X9340095Y-20802814D02*
X9311523Y-20788529D01*
X9297237Y-20759957D01*
X9297237Y-20502814D01*
X9497237Y-20802814D02*
X9468666Y-20788529D01*
X9454380Y-20774243D01*
X9440095Y-20745672D01*
X9440095Y-20659957D01*
X9454380Y-20631386D01*
X9468666Y-20617100D01*
X9497237Y-20602814D01*
X9540095Y-20602814D01*
X9568666Y-20617100D01*
X9582952Y-20631386D01*
X9597237Y-20659957D01*
X9597237Y-20745672D01*
X9582952Y-20774243D01*
X9568666Y-20788529D01*
X9540095Y-20802814D01*
X9497237Y-20802814D01*
X9682952Y-20602814D02*
X9797237Y-20602814D01*
X9725809Y-20502814D02*
X9725809Y-20759957D01*
X9740095Y-20788529D01*
X9768666Y-20802814D01*
X9797237Y-20802814D01*
X9882952Y-20788529D02*
X9911523Y-20802814D01*
X9968666Y-20802814D01*
X9997237Y-20788529D01*
X10011523Y-20759957D01*
X10011523Y-20745672D01*
X9997237Y-20717100D01*
X9968666Y-20702814D01*
X9925809Y-20702814D01*
X9897237Y-20688529D01*
X9882952Y-20659957D01*
X9882952Y-20645672D01*
X9897237Y-20617100D01*
X9925809Y-20602814D01*
X9968666Y-20602814D01*
X9997237Y-20617100D01*
X10111523Y-20917100D02*
X10125809Y-20902814D01*
X10154380Y-20859957D01*
X10168666Y-20831386D01*
X10182952Y-20788529D01*
X10197237Y-20717100D01*
X10197237Y-20659957D01*
X10182952Y-20588529D01*
X10168666Y-20545672D01*
X10154380Y-20517100D01*
X10125809Y-20474243D01*
X10111523Y-20459957D01*
M02*
