G04 #@! TF.GenerationSoftware,KiCad,Pcbnew,(5.1.2-1)-1*
G04 #@! TF.CreationDate,2020-04-01T22:22:55+05:30*
G04 #@! TF.ProjectId,Alchitry_HDMI_Shield,416c6368-6974-4727-995f-48444d495f53,rev?*
G04 #@! TF.SameCoordinates,Original*
G04 #@! TF.FileFunction,Legend,Bot*
G04 #@! TF.FilePolarity,Positive*
%FSLAX46Y46*%
G04 Gerber Fmt 4.6, Leading zero omitted, Abs format (unit mm)*
G04 Created by KiCad (PCBNEW (5.1.2-1)-1) date 2020-04-01 22:22:55*
%MOMM*%
%LPD*%
G04 APERTURE LIST*
%ADD10C,0.127000*%
%ADD11C,0.120000*%
%ADD12C,0.150000*%
G04 APERTURE END LIST*
D10*
X35100000Y-53300000D02*
X34900000Y-53300000D01*
X35100000Y-51700000D02*
X35100000Y-53300000D01*
X34900000Y-51700000D02*
X35100000Y-51700000D01*
X50100000Y-54500000D02*
X50100000Y-50500000D01*
X34900000Y-54500000D02*
X50100000Y-54500000D01*
X34900000Y-53300000D02*
X34900000Y-54500000D01*
X34900000Y-51700000D02*
X34900000Y-53300000D01*
X34900000Y-50500000D02*
X34900000Y-51700000D01*
X50100000Y-50500000D02*
X34900000Y-50500000D01*
X56600000Y-53300000D02*
X56400000Y-53300000D01*
X56600000Y-51700000D02*
X56600000Y-53300000D01*
X56400000Y-51700000D02*
X56600000Y-51700000D01*
X71600000Y-54500000D02*
X71600000Y-50500000D01*
X56400000Y-54500000D02*
X71600000Y-54500000D01*
X56400000Y-53300000D02*
X56400000Y-54500000D01*
X56400000Y-51700000D02*
X56400000Y-53300000D01*
X56400000Y-50500000D02*
X56400000Y-51700000D01*
X71600000Y-50500000D02*
X56400000Y-50500000D01*
X31100000Y-17300000D02*
X30900000Y-17300000D01*
X31100000Y-15700000D02*
X31100000Y-17300000D01*
X30900000Y-15700000D02*
X31100000Y-15700000D01*
X46100000Y-18500000D02*
X46100000Y-14500000D01*
X30900000Y-18500000D02*
X46100000Y-18500000D01*
X30900000Y-17300000D02*
X30900000Y-18500000D01*
X30900000Y-15700000D02*
X30900000Y-17300000D01*
X30900000Y-14500000D02*
X30900000Y-15700000D01*
X46100000Y-14500000D02*
X30900000Y-14500000D01*
X56600000Y-17300000D02*
X56400000Y-17300000D01*
X56600000Y-15700000D02*
X56600000Y-17300000D01*
X56400000Y-15700000D02*
X56600000Y-15700000D01*
X71600000Y-18500000D02*
X71600000Y-14500000D01*
X56400000Y-18500000D02*
X71600000Y-18500000D01*
X56400000Y-17300000D02*
X56400000Y-18500000D01*
X56400000Y-15700000D02*
X56400000Y-17300000D01*
X56400000Y-14500000D02*
X56400000Y-15700000D01*
X71600000Y-14500000D02*
X56400000Y-14500000D01*
D11*
X40837221Y-21990000D02*
X41162779Y-21990000D01*
X40837221Y-23010000D02*
X41162779Y-23010000D01*
X44490000Y-23875279D02*
X44490000Y-23549721D01*
X45510000Y-23875279D02*
X45510000Y-23549721D01*
X37662779Y-25010000D02*
X37337221Y-25010000D01*
X37662779Y-23990000D02*
X37337221Y-23990000D01*
X37662779Y-23510000D02*
X37337221Y-23510000D01*
X37662779Y-22490000D02*
X37337221Y-22490000D01*
X32453733Y-25490000D02*
X32796267Y-25490000D01*
X32453733Y-26510000D02*
X32796267Y-26510000D01*
X31010000Y-28328733D02*
X31010000Y-28671267D01*
X29990000Y-28328733D02*
X29990000Y-28671267D01*
X31490000Y-36671267D02*
X31490000Y-36328733D01*
X32510000Y-36671267D02*
X32510000Y-36328733D01*
X37328733Y-42490000D02*
X37671267Y-42490000D01*
X37328733Y-43510000D02*
X37671267Y-43510000D01*
X41500000Y-43200000D02*
X41500000Y-41800000D01*
X40800000Y-41100000D02*
X40200000Y-41100000D01*
X39500000Y-41800000D02*
X39500000Y-43200000D01*
X40200000Y-43900000D02*
X40800000Y-43900000D01*
X40800000Y-43900000D02*
G75*
G03X41500000Y-43200000I0J700000D01*
G01*
X39500000Y-43200000D02*
G75*
G03X40200000Y-43900000I700000J0D01*
G01*
X40200000Y-41100000D02*
G75*
G03X39500000Y-41800000I0J-700000D01*
G01*
X41500000Y-41800000D02*
G75*
G03X40800000Y-41100000I-700000J0D01*
G01*
X50450000Y-32800000D02*
G75*
G03X51150000Y-33500000I700000J0D01*
G01*
X51150000Y-31500000D02*
G75*
G03X50450000Y-32200000I0J-700000D01*
G01*
X54550000Y-32200000D02*
G75*
G03X53850000Y-31500000I-700000J0D01*
G01*
X53850000Y-33500000D02*
G75*
G03X54550000Y-32800000I0J700000D01*
G01*
X51100000Y-33500000D02*
X53900000Y-33500000D01*
X54550000Y-32800000D02*
X54550000Y-32200000D01*
X53900000Y-31500000D02*
X51100000Y-31500000D01*
X50450000Y-32200000D02*
X50450000Y-32800000D01*
X51300000Y-31300000D02*
X51000000Y-31000000D01*
X51000000Y-31000000D02*
X51600000Y-31000000D01*
X51300000Y-31300000D02*
X51600000Y-31000000D01*
X50450000Y-30300000D02*
G75*
G03X51150000Y-31000000I700000J0D01*
G01*
X51150000Y-29000000D02*
G75*
G03X50450000Y-29700000I0J-700000D01*
G01*
X54550000Y-29700000D02*
G75*
G03X53850000Y-29000000I-700000J0D01*
G01*
X53850000Y-31000000D02*
G75*
G03X54550000Y-30300000I0J700000D01*
G01*
X51100000Y-31000000D02*
X53900000Y-31000000D01*
X54550000Y-30300000D02*
X54550000Y-29700000D01*
X53900000Y-29000000D02*
X51100000Y-29000000D01*
X50450000Y-29700000D02*
X50450000Y-30300000D01*
X51300000Y-28800000D02*
X51000000Y-28500000D01*
X51000000Y-28500000D02*
X51600000Y-28500000D01*
X51300000Y-28800000D02*
X51600000Y-28500000D01*
X50450000Y-27800000D02*
G75*
G03X51150000Y-28500000I700000J0D01*
G01*
X51150000Y-26500000D02*
G75*
G03X50450000Y-27200000I0J-700000D01*
G01*
X54550000Y-27200000D02*
G75*
G03X53850000Y-26500000I-700000J0D01*
G01*
X53850000Y-28500000D02*
G75*
G03X54550000Y-27800000I0J700000D01*
G01*
X51100000Y-28500000D02*
X53900000Y-28500000D01*
X54550000Y-27800000D02*
X54550000Y-27200000D01*
X53900000Y-26500000D02*
X51100000Y-26500000D01*
X50450000Y-27200000D02*
X50450000Y-27800000D01*
X51300000Y-26300000D02*
X51000000Y-26000000D01*
X51000000Y-26000000D02*
X51600000Y-26000000D01*
X51300000Y-26300000D02*
X51600000Y-26000000D01*
X26700000Y-19450000D02*
G75*
G03X26000000Y-20150000I0J-700000D01*
G01*
X28000000Y-20150000D02*
G75*
G03X27300000Y-19450000I-700000J0D01*
G01*
X27300000Y-23550000D02*
G75*
G03X28000000Y-22850000I0J700000D01*
G01*
X26000000Y-22850000D02*
G75*
G03X26700000Y-23550000I700000J0D01*
G01*
X26000000Y-20100000D02*
X26000000Y-22900000D01*
X26700000Y-23550000D02*
X27300000Y-23550000D01*
X28000000Y-22900000D02*
X28000000Y-20100000D01*
X27300000Y-19450000D02*
X26700000Y-19450000D01*
X28200000Y-20300000D02*
X28500000Y-20000000D01*
X28500000Y-20000000D02*
X28500000Y-20600000D01*
X28200000Y-20300000D02*
X28500000Y-20600000D01*
X31490000Y-28671267D02*
X31490000Y-28328733D01*
X32510000Y-28671267D02*
X32510000Y-28328733D01*
X32990000Y-28671267D02*
X32990000Y-28328733D01*
X34010000Y-28671267D02*
X34010000Y-28328733D01*
X32990000Y-32171267D02*
X32990000Y-31828733D01*
X34010000Y-32171267D02*
X34010000Y-31828733D01*
X31490000Y-32171267D02*
X31490000Y-31828733D01*
X32510000Y-32171267D02*
X32510000Y-31828733D01*
X34010000Y-36328733D02*
X34010000Y-36671267D01*
X32990000Y-36328733D02*
X32990000Y-36671267D01*
X41828733Y-23990000D02*
X42171267Y-23990000D01*
X41828733Y-25010000D02*
X42171267Y-25010000D01*
X47328733Y-23990000D02*
X47671267Y-23990000D01*
X47328733Y-25010000D02*
X47671267Y-25010000D01*
X47328733Y-22490000D02*
X47671267Y-22490000D01*
X47328733Y-23510000D02*
X47671267Y-23510000D01*
X37671267Y-40990000D02*
X37328733Y-40990000D01*
X37671267Y-42010000D02*
X37328733Y-42010000D01*
D12*
X41166666Y-21202380D02*
X41500000Y-20726190D01*
X41738095Y-21202380D02*
X41738095Y-20202380D01*
X41357142Y-20202380D01*
X41261904Y-20250000D01*
X41214285Y-20297619D01*
X41166666Y-20392857D01*
X41166666Y-20535714D01*
X41214285Y-20630952D01*
X41261904Y-20678571D01*
X41357142Y-20726190D01*
X41738095Y-20726190D01*
X40261904Y-20202380D02*
X40738095Y-20202380D01*
X40785714Y-20678571D01*
X40738095Y-20630952D01*
X40642857Y-20583333D01*
X40404761Y-20583333D01*
X40309523Y-20630952D01*
X40261904Y-20678571D01*
X40214285Y-20773809D01*
X40214285Y-21011904D01*
X40261904Y-21107142D01*
X40309523Y-21154761D01*
X40404761Y-21202380D01*
X40642857Y-21202380D01*
X40738095Y-21154761D01*
X40785714Y-21107142D01*
X45452380Y-21083333D02*
X44976190Y-20750000D01*
X45452380Y-20511904D02*
X44452380Y-20511904D01*
X44452380Y-20892857D01*
X44500000Y-20988095D01*
X44547619Y-21035714D01*
X44642857Y-21083333D01*
X44785714Y-21083333D01*
X44880952Y-21035714D01*
X44928571Y-20988095D01*
X44976190Y-20892857D01*
X44976190Y-20511904D01*
X44785714Y-21940476D02*
X45452380Y-21940476D01*
X44404761Y-21702380D02*
X45119047Y-21464285D01*
X45119047Y-22083333D01*
X35166666Y-24952380D02*
X35500000Y-24476190D01*
X35738095Y-24952380D02*
X35738095Y-23952380D01*
X35357142Y-23952380D01*
X35261904Y-24000000D01*
X35214285Y-24047619D01*
X35166666Y-24142857D01*
X35166666Y-24285714D01*
X35214285Y-24380952D01*
X35261904Y-24428571D01*
X35357142Y-24476190D01*
X35738095Y-24476190D01*
X34833333Y-23952380D02*
X34214285Y-23952380D01*
X34547619Y-24333333D01*
X34404761Y-24333333D01*
X34309523Y-24380952D01*
X34261904Y-24428571D01*
X34214285Y-24523809D01*
X34214285Y-24761904D01*
X34261904Y-24857142D01*
X34309523Y-24904761D01*
X34404761Y-24952380D01*
X34690476Y-24952380D01*
X34785714Y-24904761D01*
X34833333Y-24857142D01*
X35166666Y-23452380D02*
X35500000Y-22976190D01*
X35738095Y-23452380D02*
X35738095Y-22452380D01*
X35357142Y-22452380D01*
X35261904Y-22500000D01*
X35214285Y-22547619D01*
X35166666Y-22642857D01*
X35166666Y-22785714D01*
X35214285Y-22880952D01*
X35261904Y-22928571D01*
X35357142Y-22976190D01*
X35738095Y-22976190D01*
X34785714Y-22547619D02*
X34738095Y-22500000D01*
X34642857Y-22452380D01*
X34404761Y-22452380D01*
X34309523Y-22500000D01*
X34261904Y-22547619D01*
X34214285Y-22642857D01*
X34214285Y-22738095D01*
X34261904Y-22880952D01*
X34833333Y-23452380D01*
X34214285Y-23452380D01*
X30166666Y-26452380D02*
X30500000Y-25976190D01*
X30738095Y-26452380D02*
X30738095Y-25452380D01*
X30357142Y-25452380D01*
X30261904Y-25500000D01*
X30214285Y-25547619D01*
X30166666Y-25642857D01*
X30166666Y-25785714D01*
X30214285Y-25880952D01*
X30261904Y-25928571D01*
X30357142Y-25976190D01*
X30738095Y-25976190D01*
X29214285Y-26452380D02*
X29785714Y-26452380D01*
X29500000Y-26452380D02*
X29500000Y-25452380D01*
X29595238Y-25595238D01*
X29690476Y-25690476D01*
X29785714Y-25738095D01*
X28202380Y-28333333D02*
X28202380Y-27857142D01*
X27202380Y-27857142D01*
X27202380Y-28571428D02*
X27202380Y-29190476D01*
X27583333Y-28857142D01*
X27583333Y-29000000D01*
X27630952Y-29095238D01*
X27678571Y-29142857D01*
X27773809Y-29190476D01*
X28011904Y-29190476D01*
X28107142Y-29142857D01*
X28154761Y-29095238D01*
X28202380Y-29000000D01*
X28202380Y-28714285D01*
X28154761Y-28619047D01*
X28107142Y-28571428D01*
X30952380Y-36333333D02*
X30952380Y-35857142D01*
X29952380Y-35857142D01*
X30047619Y-36619047D02*
X30000000Y-36666666D01*
X29952380Y-36761904D01*
X29952380Y-37000000D01*
X30000000Y-37095238D01*
X30047619Y-37142857D01*
X30142857Y-37190476D01*
X30238095Y-37190476D01*
X30380952Y-37142857D01*
X30952380Y-36571428D01*
X30952380Y-37190476D01*
X34916666Y-43452380D02*
X35392857Y-43452380D01*
X35392857Y-42452380D01*
X34059523Y-43452380D02*
X34630952Y-43452380D01*
X34345238Y-43452380D02*
X34345238Y-42452380D01*
X34440476Y-42595238D01*
X34535714Y-42690476D01*
X34630952Y-42738095D01*
X41752380Y-41666666D02*
X42466666Y-41666666D01*
X42609523Y-41619047D01*
X42704761Y-41523809D01*
X42752380Y-41380952D01*
X42752380Y-41285714D01*
X42752380Y-42142857D02*
X41752380Y-42142857D01*
X41752380Y-42523809D01*
X41800000Y-42619047D01*
X41847619Y-42666666D01*
X41942857Y-42714285D01*
X42085714Y-42714285D01*
X42180952Y-42666666D01*
X42228571Y-42619047D01*
X42276190Y-42523809D01*
X42276190Y-42142857D01*
X41752380Y-43619047D02*
X41752380Y-43142857D01*
X42228571Y-43095238D01*
X42180952Y-43142857D01*
X42133333Y-43238095D01*
X42133333Y-43476190D01*
X42180952Y-43571428D01*
X42228571Y-43619047D01*
X42323809Y-43666666D01*
X42561904Y-43666666D01*
X42657142Y-43619047D01*
X42704761Y-43571428D01*
X42752380Y-43476190D01*
X42752380Y-43238095D01*
X42704761Y-43142857D01*
X42657142Y-43095238D01*
X57083333Y-31952380D02*
X57083333Y-32666666D01*
X57130952Y-32809523D01*
X57226190Y-32904761D01*
X57369047Y-32952380D01*
X57464285Y-32952380D01*
X56607142Y-32952380D02*
X56607142Y-31952380D01*
X56226190Y-31952380D01*
X56130952Y-32000000D01*
X56083333Y-32047619D01*
X56035714Y-32142857D01*
X56035714Y-32285714D01*
X56083333Y-32380952D01*
X56130952Y-32428571D01*
X56226190Y-32476190D01*
X56607142Y-32476190D01*
X55178571Y-32285714D02*
X55178571Y-32952380D01*
X55416666Y-31904761D02*
X55654761Y-32619047D01*
X55035714Y-32619047D01*
X57083333Y-29452380D02*
X57083333Y-30166666D01*
X57130952Y-30309523D01*
X57226190Y-30404761D01*
X57369047Y-30452380D01*
X57464285Y-30452380D01*
X56607142Y-30452380D02*
X56607142Y-29452380D01*
X56226190Y-29452380D01*
X56130952Y-29500000D01*
X56083333Y-29547619D01*
X56035714Y-29642857D01*
X56035714Y-29785714D01*
X56083333Y-29880952D01*
X56130952Y-29928571D01*
X56226190Y-29976190D01*
X56607142Y-29976190D01*
X55702380Y-29452380D02*
X55083333Y-29452380D01*
X55416666Y-29833333D01*
X55273809Y-29833333D01*
X55178571Y-29880952D01*
X55130952Y-29928571D01*
X55083333Y-30023809D01*
X55083333Y-30261904D01*
X55130952Y-30357142D01*
X55178571Y-30404761D01*
X55273809Y-30452380D01*
X55559523Y-30452380D01*
X55654761Y-30404761D01*
X55702380Y-30357142D01*
X57083333Y-26952380D02*
X57083333Y-27666666D01*
X57130952Y-27809523D01*
X57226190Y-27904761D01*
X57369047Y-27952380D01*
X57464285Y-27952380D01*
X56607142Y-27952380D02*
X56607142Y-26952380D01*
X56226190Y-26952380D01*
X56130952Y-27000000D01*
X56083333Y-27047619D01*
X56035714Y-27142857D01*
X56035714Y-27285714D01*
X56083333Y-27380952D01*
X56130952Y-27428571D01*
X56226190Y-27476190D01*
X56607142Y-27476190D01*
X55654761Y-27047619D02*
X55607142Y-27000000D01*
X55511904Y-26952380D01*
X55273809Y-26952380D01*
X55178571Y-27000000D01*
X55130952Y-27047619D01*
X55083333Y-27142857D01*
X55083333Y-27238095D01*
X55130952Y-27380952D01*
X55702380Y-27952380D01*
X55083333Y-27952380D01*
X24652380Y-20666666D02*
X25366666Y-20666666D01*
X25509523Y-20619047D01*
X25604761Y-20523809D01*
X25652380Y-20380952D01*
X25652380Y-20285714D01*
X25652380Y-21142857D02*
X24652380Y-21142857D01*
X24652380Y-21523809D01*
X24700000Y-21619047D01*
X24747619Y-21666666D01*
X24842857Y-21714285D01*
X24985714Y-21714285D01*
X25080952Y-21666666D01*
X25128571Y-21619047D01*
X25176190Y-21523809D01*
X25176190Y-21142857D01*
X25652380Y-22666666D02*
X25652380Y-22095238D01*
X25652380Y-22380952D02*
X24652380Y-22380952D01*
X24795238Y-22285714D01*
X24890476Y-22190476D01*
X24938095Y-22095238D01*
X29357142Y-28333333D02*
X29404761Y-28285714D01*
X29452380Y-28142857D01*
X29452380Y-28047619D01*
X29404761Y-27904761D01*
X29309523Y-27809523D01*
X29214285Y-27761904D01*
X29023809Y-27714285D01*
X28880952Y-27714285D01*
X28690476Y-27761904D01*
X28595238Y-27809523D01*
X28500000Y-27904761D01*
X28452380Y-28047619D01*
X28452380Y-28142857D01*
X28500000Y-28285714D01*
X28547619Y-28333333D01*
X29452380Y-28809523D02*
X29452380Y-29000000D01*
X29404761Y-29095238D01*
X29357142Y-29142857D01*
X29214285Y-29238095D01*
X29023809Y-29285714D01*
X28642857Y-29285714D01*
X28547619Y-29238095D01*
X28500000Y-29190476D01*
X28452380Y-29095238D01*
X28452380Y-28904761D01*
X28500000Y-28809523D01*
X28547619Y-28761904D01*
X28642857Y-28714285D01*
X28880952Y-28714285D01*
X28976190Y-28761904D01*
X29023809Y-28809523D01*
X29071428Y-28904761D01*
X29071428Y-29095238D01*
X29023809Y-29190476D01*
X28976190Y-29238095D01*
X28880952Y-29285714D01*
X35287142Y-28333333D02*
X35334761Y-28285714D01*
X35382380Y-28142857D01*
X35382380Y-28047619D01*
X35334761Y-27904761D01*
X35239523Y-27809523D01*
X35144285Y-27761904D01*
X34953809Y-27714285D01*
X34810952Y-27714285D01*
X34620476Y-27761904D01*
X34525238Y-27809523D01*
X34430000Y-27904761D01*
X34382380Y-28047619D01*
X34382380Y-28142857D01*
X34430000Y-28285714D01*
X34477619Y-28333333D01*
X34810952Y-28904761D02*
X34763333Y-28809523D01*
X34715714Y-28761904D01*
X34620476Y-28714285D01*
X34572857Y-28714285D01*
X34477619Y-28761904D01*
X34430000Y-28809523D01*
X34382380Y-28904761D01*
X34382380Y-29095238D01*
X34430000Y-29190476D01*
X34477619Y-29238095D01*
X34572857Y-29285714D01*
X34620476Y-29285714D01*
X34715714Y-29238095D01*
X34763333Y-29190476D01*
X34810952Y-29095238D01*
X34810952Y-28904761D01*
X34858571Y-28809523D01*
X34906190Y-28761904D01*
X35001428Y-28714285D01*
X35191904Y-28714285D01*
X35287142Y-28761904D01*
X35334761Y-28809523D01*
X35382380Y-28904761D01*
X35382380Y-29095238D01*
X35334761Y-29190476D01*
X35287142Y-29238095D01*
X35191904Y-29285714D01*
X35001428Y-29285714D01*
X34906190Y-29238095D01*
X34858571Y-29190476D01*
X34810952Y-29095238D01*
X35287142Y-31833333D02*
X35334761Y-31785714D01*
X35382380Y-31642857D01*
X35382380Y-31547619D01*
X35334761Y-31404761D01*
X35239523Y-31309523D01*
X35144285Y-31261904D01*
X34953809Y-31214285D01*
X34810952Y-31214285D01*
X34620476Y-31261904D01*
X34525238Y-31309523D01*
X34430000Y-31404761D01*
X34382380Y-31547619D01*
X34382380Y-31642857D01*
X34430000Y-31785714D01*
X34477619Y-31833333D01*
X34382380Y-32166666D02*
X34382380Y-32833333D01*
X35382380Y-32404761D01*
X31107142Y-31833333D02*
X31154761Y-31785714D01*
X31202380Y-31642857D01*
X31202380Y-31547619D01*
X31154761Y-31404761D01*
X31059523Y-31309523D01*
X30964285Y-31261904D01*
X30773809Y-31214285D01*
X30630952Y-31214285D01*
X30440476Y-31261904D01*
X30345238Y-31309523D01*
X30250000Y-31404761D01*
X30202380Y-31547619D01*
X30202380Y-31642857D01*
X30250000Y-31785714D01*
X30297619Y-31833333D01*
X30202380Y-32690476D02*
X30202380Y-32500000D01*
X30250000Y-32404761D01*
X30297619Y-32357142D01*
X30440476Y-32261904D01*
X30630952Y-32214285D01*
X31011904Y-32214285D01*
X31107142Y-32261904D01*
X31154761Y-32309523D01*
X31202380Y-32404761D01*
X31202380Y-32595238D01*
X31154761Y-32690476D01*
X31107142Y-32738095D01*
X31011904Y-32785714D01*
X30773809Y-32785714D01*
X30678571Y-32738095D01*
X30630952Y-32690476D01*
X30583333Y-32595238D01*
X30583333Y-32404761D01*
X30630952Y-32309523D01*
X30678571Y-32261904D01*
X30773809Y-32214285D01*
X35357142Y-36333333D02*
X35404761Y-36285714D01*
X35452380Y-36142857D01*
X35452380Y-36047619D01*
X35404761Y-35904761D01*
X35309523Y-35809523D01*
X35214285Y-35761904D01*
X35023809Y-35714285D01*
X34880952Y-35714285D01*
X34690476Y-35761904D01*
X34595238Y-35809523D01*
X34500000Y-35904761D01*
X34452380Y-36047619D01*
X34452380Y-36142857D01*
X34500000Y-36285714D01*
X34547619Y-36333333D01*
X34452380Y-37238095D02*
X34452380Y-36761904D01*
X34928571Y-36714285D01*
X34880952Y-36761904D01*
X34833333Y-36857142D01*
X34833333Y-37095238D01*
X34880952Y-37190476D01*
X34928571Y-37238095D01*
X35023809Y-37285714D01*
X35261904Y-37285714D01*
X35357142Y-37238095D01*
X35404761Y-37190476D01*
X35452380Y-37095238D01*
X35452380Y-36857142D01*
X35404761Y-36761904D01*
X35357142Y-36714285D01*
X42166666Y-26287142D02*
X42214285Y-26334761D01*
X42357142Y-26382380D01*
X42452380Y-26382380D01*
X42595238Y-26334761D01*
X42690476Y-26239523D01*
X42738095Y-26144285D01*
X42785714Y-25953809D01*
X42785714Y-25810952D01*
X42738095Y-25620476D01*
X42690476Y-25525238D01*
X42595238Y-25430000D01*
X42452380Y-25382380D01*
X42357142Y-25382380D01*
X42214285Y-25430000D01*
X42166666Y-25477619D01*
X41309523Y-25715714D02*
X41309523Y-26382380D01*
X41547619Y-25334761D02*
X41785714Y-26049047D01*
X41166666Y-26049047D01*
X50416666Y-24857142D02*
X50464285Y-24904761D01*
X50607142Y-24952380D01*
X50702380Y-24952380D01*
X50845238Y-24904761D01*
X50940476Y-24809523D01*
X50988095Y-24714285D01*
X51035714Y-24523809D01*
X51035714Y-24380952D01*
X50988095Y-24190476D01*
X50940476Y-24095238D01*
X50845238Y-24000000D01*
X50702380Y-23952380D01*
X50607142Y-23952380D01*
X50464285Y-24000000D01*
X50416666Y-24047619D01*
X50083333Y-23952380D02*
X49464285Y-23952380D01*
X49797619Y-24333333D01*
X49654761Y-24333333D01*
X49559523Y-24380952D01*
X49511904Y-24428571D01*
X49464285Y-24523809D01*
X49464285Y-24761904D01*
X49511904Y-24857142D01*
X49559523Y-24904761D01*
X49654761Y-24952380D01*
X49940476Y-24952380D01*
X50035714Y-24904761D01*
X50083333Y-24857142D01*
X50416666Y-23357142D02*
X50464285Y-23404761D01*
X50607142Y-23452380D01*
X50702380Y-23452380D01*
X50845238Y-23404761D01*
X50940476Y-23309523D01*
X50988095Y-23214285D01*
X51035714Y-23023809D01*
X51035714Y-22880952D01*
X50988095Y-22690476D01*
X50940476Y-22595238D01*
X50845238Y-22500000D01*
X50702380Y-22452380D01*
X50607142Y-22452380D01*
X50464285Y-22500000D01*
X50416666Y-22547619D01*
X50035714Y-22547619D02*
X49988095Y-22500000D01*
X49892857Y-22452380D01*
X49654761Y-22452380D01*
X49559523Y-22500000D01*
X49511904Y-22547619D01*
X49464285Y-22642857D01*
X49464285Y-22738095D01*
X49511904Y-22880952D01*
X50083333Y-23452380D01*
X49464285Y-23452380D01*
X34916666Y-41857142D02*
X34964285Y-41904761D01*
X35107142Y-41952380D01*
X35202380Y-41952380D01*
X35345238Y-41904761D01*
X35440476Y-41809523D01*
X35488095Y-41714285D01*
X35535714Y-41523809D01*
X35535714Y-41380952D01*
X35488095Y-41190476D01*
X35440476Y-41095238D01*
X35345238Y-41000000D01*
X35202380Y-40952380D01*
X35107142Y-40952380D01*
X34964285Y-41000000D01*
X34916666Y-41047619D01*
X33964285Y-41952380D02*
X34535714Y-41952380D01*
X34250000Y-41952380D02*
X34250000Y-40952380D01*
X34345238Y-41095238D01*
X34440476Y-41190476D01*
X34535714Y-41238095D01*
M02*
