%TF.GenerationSoftware,KiCad,Pcbnew,(5.1.2-1)-1*%
%TF.CreationDate,2019-12-21T14:34:47+05:30*%
%TF.ProjectId,Uno Panel,556e6f20-5061-46e6-956c-2e6b69636164,rev?*%
%TF.SameCoordinates,Original*%
%TF.FileFunction,Soldermask,Top*%
%TF.FilePolarity,Negative*%
%FSLAX46Y46*%
G04 Gerber Fmt 4.6, Leading zero omitted, Abs format (unit mm)*
G04 Created by KiCad (PCBNEW (5.1.2-1)-1) date 2019-12-21 14:34:47*
%MOMM*%
%LPD*%
G04 APERTURE LIST*
%ADD10C,0.203200*%
%ADD11C,0.100000*%
G04 APERTURE END LIST*
D10*
X14419306Y-179240589D02*
X14846938Y-178812957D01*
X14558286Y-179614766D02*
X14071856Y-178305145D01*
X15156970Y-179016082D01*
X15253187Y-178064603D02*
X15627365Y-178545688D01*
X14542250Y-177834751D02*
X15253187Y-178064603D01*
X15140934Y-177236067D01*
X15814453Y-177417810D02*
X16113795Y-177118469D01*
X16653680Y-177519373D02*
X16226048Y-177947004D01*
X15440276Y-176936725D01*
X15867907Y-176509094D01*
X16626953Y-176605311D02*
X16926294Y-176305969D01*
X17466179Y-176706873D02*
X17038548Y-177134505D01*
X16252775Y-176124226D01*
X16680406Y-175696595D01*
X17851047Y-176322005D02*
X17065275Y-175311727D01*
X17279090Y-175097911D01*
X17444797Y-175017730D01*
X17605159Y-175028421D01*
X17722758Y-175081875D01*
X17915192Y-175231546D01*
X18027445Y-175375871D01*
X18134353Y-175611068D01*
X18166425Y-175750049D01*
X18155734Y-175931792D01*
X18064863Y-176108190D01*
X17851047Y-176322005D01*
X17963300Y-174413701D02*
X18599402Y-175231546D01*
X18717000Y-175285000D01*
X18797181Y-175290345D01*
X18920125Y-175252927D01*
X19091178Y-175081875D01*
X19139286Y-174948240D01*
X19144632Y-174857368D01*
X19112559Y-174718388D01*
X18476458Y-173900543D01*
X19689861Y-174483191D02*
X18904089Y-173472912D01*
X20117493Y-174055560D02*
X19331720Y-173045281D01*
X20630650Y-173542402D01*
X19844878Y-172532123D01*
X20443561Y-171933440D02*
X20614614Y-171762387D01*
X20737558Y-171724969D01*
X20897920Y-171735660D01*
X21090354Y-171885331D01*
X21352278Y-172222091D01*
X21459186Y-172457288D01*
X21448495Y-172639031D01*
X21400386Y-172772666D01*
X21229334Y-172943719D01*
X21106390Y-172981136D01*
X20946028Y-172970445D01*
X20753594Y-172820775D01*
X20491670Y-172484015D01*
X20384762Y-172248818D01*
X20395453Y-172067074D01*
X20443561Y-171933440D01*
X16081082Y-180218154D02*
X16000901Y-180212809D01*
X15877957Y-180250226D01*
X15792431Y-180335753D01*
X15744322Y-180469387D01*
X15738977Y-180560259D01*
X15771049Y-180699239D01*
X15845885Y-180795456D01*
X15963483Y-180848910D01*
X16043664Y-180854256D01*
X16166608Y-180816838D01*
X16252134Y-180731312D01*
X16300243Y-180597677D01*
X16305588Y-180506805D01*
X16006246Y-180121937D02*
X16305588Y-180506805D01*
X16385769Y-180512151D01*
X16428532Y-180469387D01*
X16476641Y-180335753D01*
X16444568Y-180196773D01*
X16257480Y-179956230D01*
X16059700Y-179897431D01*
X15856575Y-179929503D01*
X15648105Y-180052447D01*
X15514470Y-180271608D01*
X15461016Y-180496114D01*
X15487743Y-180725966D01*
X15594651Y-180961163D01*
X15787085Y-181110834D01*
X15984865Y-181169634D01*
X16187990Y-181137561D01*
X16396460Y-181014617D01*
X16530095Y-180795456D01*
X16583549Y-180570950D01*
X16786673Y-179854668D02*
X17214305Y-179427036D01*
X16925654Y-180228845D02*
X16439223Y-178919224D01*
X17524337Y-179630161D01*
X17620554Y-178678682D02*
X17994732Y-179159767D01*
X16909617Y-178448830D02*
X17620554Y-178678682D01*
X17508301Y-177850146D01*
X18181820Y-178031889D02*
X18481162Y-177732547D01*
X19021047Y-178133452D02*
X18593415Y-178561083D01*
X17807643Y-177550804D01*
X18235274Y-177123173D01*
X18994320Y-177219390D02*
X19293662Y-176920048D01*
X19833546Y-177320952D02*
X19405915Y-177748584D01*
X18620142Y-176738305D01*
X19047774Y-176310674D01*
X20218414Y-176936084D02*
X19432642Y-175925805D01*
X19646457Y-175711990D01*
X19812164Y-175631809D01*
X19972526Y-175642500D01*
X20090125Y-175695954D01*
X20282559Y-175845625D01*
X20394812Y-175989950D01*
X20501720Y-176225147D01*
X20533792Y-176364127D01*
X20523101Y-176545871D01*
X20432230Y-176722269D01*
X20218414Y-176936084D01*
X21116440Y-176038059D02*
X20330667Y-175027780D01*
X20630009Y-174728438D02*
X21143167Y-174215280D01*
X21672360Y-175482138D02*
X20886588Y-174471859D01*
X22025156Y-174274080D02*
X22399333Y-174755165D01*
X21314219Y-174044228D02*
X22025156Y-174274080D01*
X21912903Y-173445544D01*
X22730748Y-173910593D02*
X23158379Y-173482962D01*
X22869728Y-174284771D02*
X22383297Y-172975150D01*
X23468412Y-173686087D01*
X19250257Y-180885687D02*
X18576738Y-180703944D01*
X18737100Y-181398844D02*
X17951328Y-180388566D01*
X18293433Y-180046461D01*
X18416377Y-180009043D01*
X18496557Y-180014388D01*
X18614156Y-180067842D01*
X18726409Y-180212168D01*
X18758481Y-180351148D01*
X18753136Y-180442020D01*
X18705028Y-180575654D01*
X18362923Y-180917759D01*
X19939813Y-180110605D02*
X19891704Y-180244240D01*
X19720652Y-180415293D01*
X19597708Y-180452710D01*
X19480109Y-180399256D01*
X19180767Y-180014388D01*
X19148695Y-179875408D01*
X19196804Y-179741773D01*
X19367856Y-179570721D01*
X19490800Y-179533303D01*
X19608399Y-179586757D01*
X19683234Y-179682974D01*
X19330438Y-180206822D01*
X19795487Y-179143090D02*
X20533151Y-179602793D01*
X20223119Y-178715458D01*
X22243676Y-177892268D02*
X21730519Y-178405426D01*
X21987097Y-178148847D02*
X21201325Y-177138568D01*
X21228052Y-177368420D01*
X21217361Y-177550163D01*
X21169253Y-177683798D01*
X22553709Y-177411183D02*
X22633890Y-177416528D01*
X22628544Y-177507400D01*
X22548363Y-177502055D01*
X22553709Y-177411183D01*
X22628544Y-177507400D01*
X22441456Y-175898438D02*
X22526982Y-175812911D01*
X22649926Y-175775494D01*
X22730107Y-175780839D01*
X22847705Y-175834293D01*
X23040139Y-175983964D01*
X23227228Y-176224506D01*
X23334136Y-176459704D01*
X23366208Y-176598684D01*
X23360863Y-176689555D01*
X23312754Y-176823190D01*
X23227228Y-176908716D01*
X23104284Y-176946134D01*
X23024103Y-176940789D01*
X22906505Y-176887335D01*
X22714071Y-176737664D01*
X22526982Y-176497121D01*
X22420074Y-176261924D01*
X22388002Y-176122944D01*
X22393347Y-176032072D01*
X22441456Y-175898438D01*
D11*
G36*
X66941000Y-181241000D02*
G01*
X65139000Y-181241000D01*
X65139000Y-179439000D01*
X66941000Y-179439000D01*
X66941000Y-181241000D01*
X66941000Y-181241000D01*
G37*
G36*
X63610443Y-179445519D02*
G01*
X63676627Y-179452037D01*
X63846466Y-179503557D01*
X64002991Y-179587222D01*
X64038729Y-179616552D01*
X64140186Y-179699814D01*
X64223448Y-179801271D01*
X64252778Y-179837009D01*
X64336443Y-179993534D01*
X64387963Y-180163373D01*
X64405359Y-180340000D01*
X64387963Y-180516627D01*
X64336443Y-180686466D01*
X64252778Y-180842991D01*
X64223448Y-180878729D01*
X64140186Y-180980186D01*
X64038729Y-181063448D01*
X64002991Y-181092778D01*
X63846466Y-181176443D01*
X63676627Y-181227963D01*
X63610442Y-181234482D01*
X63544260Y-181241000D01*
X63455740Y-181241000D01*
X63389558Y-181234482D01*
X63323373Y-181227963D01*
X63153534Y-181176443D01*
X62997009Y-181092778D01*
X62961271Y-181063448D01*
X62859814Y-180980186D01*
X62776552Y-180878729D01*
X62747222Y-180842991D01*
X62663557Y-180686466D01*
X62612037Y-180516627D01*
X62594641Y-180340000D01*
X62612037Y-180163373D01*
X62663557Y-179993534D01*
X62747222Y-179837009D01*
X62776552Y-179801271D01*
X62859814Y-179699814D01*
X62961271Y-179616552D01*
X62997009Y-179587222D01*
X63153534Y-179503557D01*
X63323373Y-179452037D01*
X63389557Y-179445519D01*
X63455740Y-179439000D01*
X63544260Y-179439000D01*
X63610443Y-179445519D01*
X63610443Y-179445519D01*
G37*
G36*
X61070443Y-179445519D02*
G01*
X61136627Y-179452037D01*
X61306466Y-179503557D01*
X61462991Y-179587222D01*
X61498729Y-179616552D01*
X61600186Y-179699814D01*
X61683448Y-179801271D01*
X61712778Y-179837009D01*
X61796443Y-179993534D01*
X61847963Y-180163373D01*
X61865359Y-180340000D01*
X61847963Y-180516627D01*
X61796443Y-180686466D01*
X61712778Y-180842991D01*
X61683448Y-180878729D01*
X61600186Y-180980186D01*
X61498729Y-181063448D01*
X61462991Y-181092778D01*
X61306466Y-181176443D01*
X61136627Y-181227963D01*
X61070442Y-181234482D01*
X61004260Y-181241000D01*
X60915740Y-181241000D01*
X60849558Y-181234482D01*
X60783373Y-181227963D01*
X60613534Y-181176443D01*
X60457009Y-181092778D01*
X60421271Y-181063448D01*
X60319814Y-180980186D01*
X60236552Y-180878729D01*
X60207222Y-180842991D01*
X60123557Y-180686466D01*
X60072037Y-180516627D01*
X60054641Y-180340000D01*
X60072037Y-180163373D01*
X60123557Y-179993534D01*
X60207222Y-179837009D01*
X60236552Y-179801271D01*
X60319814Y-179699814D01*
X60421271Y-179616552D01*
X60457009Y-179587222D01*
X60613534Y-179503557D01*
X60783373Y-179452037D01*
X60849557Y-179445519D01*
X60915740Y-179439000D01*
X61004260Y-179439000D01*
X61070443Y-179445519D01*
X61070443Y-179445519D01*
G37*
G36*
X58530443Y-179445519D02*
G01*
X58596627Y-179452037D01*
X58766466Y-179503557D01*
X58922991Y-179587222D01*
X58958729Y-179616552D01*
X59060186Y-179699814D01*
X59143448Y-179801271D01*
X59172778Y-179837009D01*
X59256443Y-179993534D01*
X59307963Y-180163373D01*
X59325359Y-180340000D01*
X59307963Y-180516627D01*
X59256443Y-180686466D01*
X59172778Y-180842991D01*
X59143448Y-180878729D01*
X59060186Y-180980186D01*
X58958729Y-181063448D01*
X58922991Y-181092778D01*
X58766466Y-181176443D01*
X58596627Y-181227963D01*
X58530442Y-181234482D01*
X58464260Y-181241000D01*
X58375740Y-181241000D01*
X58309558Y-181234482D01*
X58243373Y-181227963D01*
X58073534Y-181176443D01*
X57917009Y-181092778D01*
X57881271Y-181063448D01*
X57779814Y-180980186D01*
X57696552Y-180878729D01*
X57667222Y-180842991D01*
X57583557Y-180686466D01*
X57532037Y-180516627D01*
X57514641Y-180340000D01*
X57532037Y-180163373D01*
X57583557Y-179993534D01*
X57667222Y-179837009D01*
X57696552Y-179801271D01*
X57779814Y-179699814D01*
X57881271Y-179616552D01*
X57917009Y-179587222D01*
X58073534Y-179503557D01*
X58243373Y-179452037D01*
X58309557Y-179445519D01*
X58375740Y-179439000D01*
X58464260Y-179439000D01*
X58530443Y-179445519D01*
X58530443Y-179445519D01*
G37*
G36*
X55990443Y-179445519D02*
G01*
X56056627Y-179452037D01*
X56226466Y-179503557D01*
X56382991Y-179587222D01*
X56418729Y-179616552D01*
X56520186Y-179699814D01*
X56603448Y-179801271D01*
X56632778Y-179837009D01*
X56716443Y-179993534D01*
X56767963Y-180163373D01*
X56785359Y-180340000D01*
X56767963Y-180516627D01*
X56716443Y-180686466D01*
X56632778Y-180842991D01*
X56603448Y-180878729D01*
X56520186Y-180980186D01*
X56418729Y-181063448D01*
X56382991Y-181092778D01*
X56226466Y-181176443D01*
X56056627Y-181227963D01*
X55990442Y-181234482D01*
X55924260Y-181241000D01*
X55835740Y-181241000D01*
X55769558Y-181234482D01*
X55703373Y-181227963D01*
X55533534Y-181176443D01*
X55377009Y-181092778D01*
X55341271Y-181063448D01*
X55239814Y-180980186D01*
X55156552Y-180878729D01*
X55127222Y-180842991D01*
X55043557Y-180686466D01*
X54992037Y-180516627D01*
X54974641Y-180340000D01*
X54992037Y-180163373D01*
X55043557Y-179993534D01*
X55127222Y-179837009D01*
X55156552Y-179801271D01*
X55239814Y-179699814D01*
X55341271Y-179616552D01*
X55377009Y-179587222D01*
X55533534Y-179503557D01*
X55703373Y-179452037D01*
X55769557Y-179445519D01*
X55835740Y-179439000D01*
X55924260Y-179439000D01*
X55990443Y-179445519D01*
X55990443Y-179445519D01*
G37*
G36*
X53450443Y-179445519D02*
G01*
X53516627Y-179452037D01*
X53686466Y-179503557D01*
X53842991Y-179587222D01*
X53878729Y-179616552D01*
X53980186Y-179699814D01*
X54063448Y-179801271D01*
X54092778Y-179837009D01*
X54176443Y-179993534D01*
X54227963Y-180163373D01*
X54245359Y-180340000D01*
X54227963Y-180516627D01*
X54176443Y-180686466D01*
X54092778Y-180842991D01*
X54063448Y-180878729D01*
X53980186Y-180980186D01*
X53878729Y-181063448D01*
X53842991Y-181092778D01*
X53686466Y-181176443D01*
X53516627Y-181227963D01*
X53450442Y-181234482D01*
X53384260Y-181241000D01*
X53295740Y-181241000D01*
X53229558Y-181234482D01*
X53163373Y-181227963D01*
X52993534Y-181176443D01*
X52837009Y-181092778D01*
X52801271Y-181063448D01*
X52699814Y-180980186D01*
X52616552Y-180878729D01*
X52587222Y-180842991D01*
X52503557Y-180686466D01*
X52452037Y-180516627D01*
X52434641Y-180340000D01*
X52452037Y-180163373D01*
X52503557Y-179993534D01*
X52587222Y-179837009D01*
X52616552Y-179801271D01*
X52699814Y-179699814D01*
X52801271Y-179616552D01*
X52837009Y-179587222D01*
X52993534Y-179503557D01*
X53163373Y-179452037D01*
X53229557Y-179445519D01*
X53295740Y-179439000D01*
X53384260Y-179439000D01*
X53450443Y-179445519D01*
X53450443Y-179445519D01*
G37*
G36*
X49161000Y-181241000D02*
G01*
X47359000Y-181241000D01*
X47359000Y-179439000D01*
X49161000Y-179439000D01*
X49161000Y-181241000D01*
X49161000Y-181241000D01*
G37*
G36*
X45830443Y-179445519D02*
G01*
X45896627Y-179452037D01*
X46066466Y-179503557D01*
X46222991Y-179587222D01*
X46258729Y-179616552D01*
X46360186Y-179699814D01*
X46443448Y-179801271D01*
X46472778Y-179837009D01*
X46556443Y-179993534D01*
X46607963Y-180163373D01*
X46625359Y-180340000D01*
X46607963Y-180516627D01*
X46556443Y-180686466D01*
X46472778Y-180842991D01*
X46443448Y-180878729D01*
X46360186Y-180980186D01*
X46258729Y-181063448D01*
X46222991Y-181092778D01*
X46066466Y-181176443D01*
X45896627Y-181227963D01*
X45830442Y-181234482D01*
X45764260Y-181241000D01*
X45675740Y-181241000D01*
X45609558Y-181234482D01*
X45543373Y-181227963D01*
X45373534Y-181176443D01*
X45217009Y-181092778D01*
X45181271Y-181063448D01*
X45079814Y-180980186D01*
X44996552Y-180878729D01*
X44967222Y-180842991D01*
X44883557Y-180686466D01*
X44832037Y-180516627D01*
X44814641Y-180340000D01*
X44832037Y-180163373D01*
X44883557Y-179993534D01*
X44967222Y-179837009D01*
X44996552Y-179801271D01*
X45079814Y-179699814D01*
X45181271Y-179616552D01*
X45217009Y-179587222D01*
X45373534Y-179503557D01*
X45543373Y-179452037D01*
X45609557Y-179445519D01*
X45675740Y-179439000D01*
X45764260Y-179439000D01*
X45830443Y-179445519D01*
X45830443Y-179445519D01*
G37*
G36*
X43290443Y-179445519D02*
G01*
X43356627Y-179452037D01*
X43526466Y-179503557D01*
X43682991Y-179587222D01*
X43718729Y-179616552D01*
X43820186Y-179699814D01*
X43903448Y-179801271D01*
X43932778Y-179837009D01*
X44016443Y-179993534D01*
X44067963Y-180163373D01*
X44085359Y-180340000D01*
X44067963Y-180516627D01*
X44016443Y-180686466D01*
X43932778Y-180842991D01*
X43903448Y-180878729D01*
X43820186Y-180980186D01*
X43718729Y-181063448D01*
X43682991Y-181092778D01*
X43526466Y-181176443D01*
X43356627Y-181227963D01*
X43290442Y-181234482D01*
X43224260Y-181241000D01*
X43135740Y-181241000D01*
X43069558Y-181234482D01*
X43003373Y-181227963D01*
X42833534Y-181176443D01*
X42677009Y-181092778D01*
X42641271Y-181063448D01*
X42539814Y-180980186D01*
X42456552Y-180878729D01*
X42427222Y-180842991D01*
X42343557Y-180686466D01*
X42292037Y-180516627D01*
X42274641Y-180340000D01*
X42292037Y-180163373D01*
X42343557Y-179993534D01*
X42427222Y-179837009D01*
X42456552Y-179801271D01*
X42539814Y-179699814D01*
X42641271Y-179616552D01*
X42677009Y-179587222D01*
X42833534Y-179503557D01*
X43003373Y-179452037D01*
X43069557Y-179445519D01*
X43135740Y-179439000D01*
X43224260Y-179439000D01*
X43290443Y-179445519D01*
X43290443Y-179445519D01*
G37*
G36*
X40750443Y-179445519D02*
G01*
X40816627Y-179452037D01*
X40986466Y-179503557D01*
X41142991Y-179587222D01*
X41178729Y-179616552D01*
X41280186Y-179699814D01*
X41363448Y-179801271D01*
X41392778Y-179837009D01*
X41476443Y-179993534D01*
X41527963Y-180163373D01*
X41545359Y-180340000D01*
X41527963Y-180516627D01*
X41476443Y-180686466D01*
X41392778Y-180842991D01*
X41363448Y-180878729D01*
X41280186Y-180980186D01*
X41178729Y-181063448D01*
X41142991Y-181092778D01*
X40986466Y-181176443D01*
X40816627Y-181227963D01*
X40750442Y-181234482D01*
X40684260Y-181241000D01*
X40595740Y-181241000D01*
X40529558Y-181234482D01*
X40463373Y-181227963D01*
X40293534Y-181176443D01*
X40137009Y-181092778D01*
X40101271Y-181063448D01*
X39999814Y-180980186D01*
X39916552Y-180878729D01*
X39887222Y-180842991D01*
X39803557Y-180686466D01*
X39752037Y-180516627D01*
X39734641Y-180340000D01*
X39752037Y-180163373D01*
X39803557Y-179993534D01*
X39887222Y-179837009D01*
X39916552Y-179801271D01*
X39999814Y-179699814D01*
X40101271Y-179616552D01*
X40137009Y-179587222D01*
X40293534Y-179503557D01*
X40463373Y-179452037D01*
X40529557Y-179445519D01*
X40595740Y-179439000D01*
X40684260Y-179439000D01*
X40750443Y-179445519D01*
X40750443Y-179445519D01*
G37*
G36*
X38210443Y-179445519D02*
G01*
X38276627Y-179452037D01*
X38446466Y-179503557D01*
X38602991Y-179587222D01*
X38638729Y-179616552D01*
X38740186Y-179699814D01*
X38823448Y-179801271D01*
X38852778Y-179837009D01*
X38936443Y-179993534D01*
X38987963Y-180163373D01*
X39005359Y-180340000D01*
X38987963Y-180516627D01*
X38936443Y-180686466D01*
X38852778Y-180842991D01*
X38823448Y-180878729D01*
X38740186Y-180980186D01*
X38638729Y-181063448D01*
X38602991Y-181092778D01*
X38446466Y-181176443D01*
X38276627Y-181227963D01*
X38210442Y-181234482D01*
X38144260Y-181241000D01*
X38055740Y-181241000D01*
X37989558Y-181234482D01*
X37923373Y-181227963D01*
X37753534Y-181176443D01*
X37597009Y-181092778D01*
X37561271Y-181063448D01*
X37459814Y-180980186D01*
X37376552Y-180878729D01*
X37347222Y-180842991D01*
X37263557Y-180686466D01*
X37212037Y-180516627D01*
X37194641Y-180340000D01*
X37212037Y-180163373D01*
X37263557Y-179993534D01*
X37347222Y-179837009D01*
X37376552Y-179801271D01*
X37459814Y-179699814D01*
X37561271Y-179616552D01*
X37597009Y-179587222D01*
X37753534Y-179503557D01*
X37923373Y-179452037D01*
X37989557Y-179445519D01*
X38055740Y-179439000D01*
X38144260Y-179439000D01*
X38210443Y-179445519D01*
X38210443Y-179445519D01*
G37*
G36*
X35670443Y-179445519D02*
G01*
X35736627Y-179452037D01*
X35906466Y-179503557D01*
X36062991Y-179587222D01*
X36098729Y-179616552D01*
X36200186Y-179699814D01*
X36283448Y-179801271D01*
X36312778Y-179837009D01*
X36396443Y-179993534D01*
X36447963Y-180163373D01*
X36465359Y-180340000D01*
X36447963Y-180516627D01*
X36396443Y-180686466D01*
X36312778Y-180842991D01*
X36283448Y-180878729D01*
X36200186Y-180980186D01*
X36098729Y-181063448D01*
X36062991Y-181092778D01*
X35906466Y-181176443D01*
X35736627Y-181227963D01*
X35670442Y-181234482D01*
X35604260Y-181241000D01*
X35515740Y-181241000D01*
X35449558Y-181234482D01*
X35383373Y-181227963D01*
X35213534Y-181176443D01*
X35057009Y-181092778D01*
X35021271Y-181063448D01*
X34919814Y-180980186D01*
X34836552Y-180878729D01*
X34807222Y-180842991D01*
X34723557Y-180686466D01*
X34672037Y-180516627D01*
X34654641Y-180340000D01*
X34672037Y-180163373D01*
X34723557Y-179993534D01*
X34807222Y-179837009D01*
X34836552Y-179801271D01*
X34919814Y-179699814D01*
X35021271Y-179616552D01*
X35057009Y-179587222D01*
X35213534Y-179503557D01*
X35383373Y-179452037D01*
X35449557Y-179445519D01*
X35515740Y-179439000D01*
X35604260Y-179439000D01*
X35670443Y-179445519D01*
X35670443Y-179445519D01*
G37*
G36*
X33130443Y-179445519D02*
G01*
X33196627Y-179452037D01*
X33366466Y-179503557D01*
X33522991Y-179587222D01*
X33558729Y-179616552D01*
X33660186Y-179699814D01*
X33743448Y-179801271D01*
X33772778Y-179837009D01*
X33856443Y-179993534D01*
X33907963Y-180163373D01*
X33925359Y-180340000D01*
X33907963Y-180516627D01*
X33856443Y-180686466D01*
X33772778Y-180842991D01*
X33743448Y-180878729D01*
X33660186Y-180980186D01*
X33558729Y-181063448D01*
X33522991Y-181092778D01*
X33366466Y-181176443D01*
X33196627Y-181227963D01*
X33130442Y-181234482D01*
X33064260Y-181241000D01*
X32975740Y-181241000D01*
X32909558Y-181234482D01*
X32843373Y-181227963D01*
X32673534Y-181176443D01*
X32517009Y-181092778D01*
X32481271Y-181063448D01*
X32379814Y-180980186D01*
X32296552Y-180878729D01*
X32267222Y-180842991D01*
X32183557Y-180686466D01*
X32132037Y-180516627D01*
X32114641Y-180340000D01*
X32132037Y-180163373D01*
X32183557Y-179993534D01*
X32267222Y-179837009D01*
X32296552Y-179801271D01*
X32379814Y-179699814D01*
X32481271Y-179616552D01*
X32517009Y-179587222D01*
X32673534Y-179503557D01*
X32843373Y-179452037D01*
X32909557Y-179445519D01*
X32975740Y-179439000D01*
X33064260Y-179439000D01*
X33130443Y-179445519D01*
X33130443Y-179445519D01*
G37*
G36*
X30590443Y-179445519D02*
G01*
X30656627Y-179452037D01*
X30826466Y-179503557D01*
X30982991Y-179587222D01*
X31018729Y-179616552D01*
X31120186Y-179699814D01*
X31203448Y-179801271D01*
X31232778Y-179837009D01*
X31316443Y-179993534D01*
X31367963Y-180163373D01*
X31385359Y-180340000D01*
X31367963Y-180516627D01*
X31316443Y-180686466D01*
X31232778Y-180842991D01*
X31203448Y-180878729D01*
X31120186Y-180980186D01*
X31018729Y-181063448D01*
X30982991Y-181092778D01*
X30826466Y-181176443D01*
X30656627Y-181227963D01*
X30590442Y-181234482D01*
X30524260Y-181241000D01*
X30435740Y-181241000D01*
X30369558Y-181234482D01*
X30303373Y-181227963D01*
X30133534Y-181176443D01*
X29977009Y-181092778D01*
X29941271Y-181063448D01*
X29839814Y-180980186D01*
X29756552Y-180878729D01*
X29727222Y-180842991D01*
X29643557Y-180686466D01*
X29592037Y-180516627D01*
X29574641Y-180340000D01*
X29592037Y-180163373D01*
X29643557Y-179993534D01*
X29727222Y-179837009D01*
X29756552Y-179801271D01*
X29839814Y-179699814D01*
X29941271Y-179616552D01*
X29977009Y-179587222D01*
X30133534Y-179503557D01*
X30303373Y-179452037D01*
X30369557Y-179445519D01*
X30435740Y-179439000D01*
X30524260Y-179439000D01*
X30590443Y-179445519D01*
X30590443Y-179445519D01*
G37*
G36*
X51388674Y-173767465D02*
G01*
X51426367Y-173778899D01*
X51461103Y-173797466D01*
X51491548Y-173822452D01*
X51516534Y-173852897D01*
X51535101Y-173887633D01*
X51546535Y-173925326D01*
X51551000Y-173970661D01*
X51551000Y-174807339D01*
X51546535Y-174852674D01*
X51535101Y-174890367D01*
X51516534Y-174925103D01*
X51491548Y-174955548D01*
X51461103Y-174980534D01*
X51426367Y-174999101D01*
X51388674Y-175010535D01*
X51343339Y-175015000D01*
X50256661Y-175015000D01*
X50211326Y-175010535D01*
X50173633Y-174999101D01*
X50138897Y-174980534D01*
X50108452Y-174955548D01*
X50083466Y-174925103D01*
X50064899Y-174890367D01*
X50053465Y-174852674D01*
X50049000Y-174807339D01*
X50049000Y-173970661D01*
X50053465Y-173925326D01*
X50064899Y-173887633D01*
X50083466Y-173852897D01*
X50108452Y-173822452D01*
X50138897Y-173797466D01*
X50173633Y-173778899D01*
X50211326Y-173767465D01*
X50256661Y-173763000D01*
X51343339Y-173763000D01*
X51388674Y-173767465D01*
X51388674Y-173767465D01*
G37*
G36*
X15001000Y-174941000D02*
G01*
X13199000Y-174941000D01*
X13199000Y-173139000D01*
X15001000Y-173139000D01*
X15001000Y-174941000D01*
X15001000Y-174941000D01*
G37*
G36*
X40051000Y-174381000D02*
G01*
X36149000Y-174381000D01*
X36149000Y-172279000D01*
X40051000Y-172279000D01*
X40051000Y-174381000D01*
X40051000Y-174381000D01*
G37*
G36*
X66781000Y-174291000D02*
G01*
X64579000Y-174291000D01*
X64579000Y-172389000D01*
X66781000Y-172389000D01*
X66781000Y-174291000D01*
X66781000Y-174291000D01*
G37*
G36*
X69681000Y-174291000D02*
G01*
X67479000Y-174291000D01*
X67479000Y-172389000D01*
X69681000Y-172389000D01*
X69681000Y-174291000D01*
X69681000Y-174291000D01*
G37*
G36*
X49483674Y-172497465D02*
G01*
X49521367Y-172508899D01*
X49556103Y-172527466D01*
X49586548Y-172552452D01*
X49611534Y-172582897D01*
X49630101Y-172617633D01*
X49641535Y-172655326D01*
X49646000Y-172700661D01*
X49646000Y-173537339D01*
X49641535Y-173582674D01*
X49630101Y-173620367D01*
X49611534Y-173655103D01*
X49586548Y-173685548D01*
X49556103Y-173710534D01*
X49521367Y-173729101D01*
X49483674Y-173740535D01*
X49438339Y-173745000D01*
X48351661Y-173745000D01*
X48306326Y-173740535D01*
X48268633Y-173729101D01*
X48233897Y-173710534D01*
X48203452Y-173685548D01*
X48178466Y-173655103D01*
X48159899Y-173620367D01*
X48148465Y-173582674D01*
X48144000Y-173537339D01*
X48144000Y-172700661D01*
X48148465Y-172655326D01*
X48159899Y-172617633D01*
X48178466Y-172582897D01*
X48203452Y-172552452D01*
X48233897Y-172527466D01*
X48268633Y-172508899D01*
X48306326Y-172497465D01*
X48351661Y-172493000D01*
X49438339Y-172493000D01*
X49483674Y-172497465D01*
X49483674Y-172497465D01*
G37*
G36*
X26991000Y-173282000D02*
G01*
X25889000Y-173282000D01*
X25889000Y-170680000D01*
X26991000Y-170680000D01*
X26991000Y-173282000D01*
X26991000Y-173282000D01*
G37*
G36*
X28991000Y-169820001D02*
G01*
X28993402Y-169844387D01*
X29000515Y-169867836D01*
X29012066Y-169889447D01*
X29027611Y-169908389D01*
X29046553Y-169923934D01*
X29048607Y-169925032D01*
X29011994Y-169979951D01*
X29000465Y-170001574D01*
X28993376Y-170025030D01*
X28991000Y-170049288D01*
X28991000Y-170075051D01*
X28969690Y-170081515D01*
X28948079Y-170093066D01*
X28929137Y-170108611D01*
X28913520Y-170127662D01*
X28674852Y-170485664D01*
X28668507Y-170497565D01*
X28659996Y-170507947D01*
X28511994Y-170729950D01*
X28500465Y-170751573D01*
X28493376Y-170775029D01*
X28491000Y-170799287D01*
X28491000Y-173282000D01*
X27389000Y-173282000D01*
X27389000Y-170799287D01*
X27386598Y-170774901D01*
X27379485Y-170751452D01*
X27368006Y-170729950D01*
X27220004Y-170507947D01*
X27211500Y-170497563D01*
X27205148Y-170485664D01*
X26966480Y-170127662D01*
X26950955Y-170108704D01*
X26932029Y-170093139D01*
X26910431Y-170081565D01*
X26889000Y-170075039D01*
X26889000Y-170049288D01*
X26886598Y-170024902D01*
X26879485Y-170001453D01*
X26868006Y-169979951D01*
X26831393Y-169925032D01*
X26833447Y-169923934D01*
X26852389Y-169908389D01*
X26867934Y-169889447D01*
X26879485Y-169867836D01*
X26886598Y-169844387D01*
X26889000Y-169820001D01*
X26889000Y-165970000D01*
X28991000Y-165970000D01*
X28991000Y-169820001D01*
X28991000Y-169820001D01*
G37*
G36*
X29991000Y-173282000D02*
G01*
X28889000Y-173282000D01*
X28889000Y-170680000D01*
X29991000Y-170680000D01*
X29991000Y-173282000D01*
X29991000Y-173282000D01*
G37*
G36*
X51388674Y-171717465D02*
G01*
X51426367Y-171728899D01*
X51461103Y-171747466D01*
X51491548Y-171772452D01*
X51516534Y-171802897D01*
X51535101Y-171837633D01*
X51546535Y-171875326D01*
X51551000Y-171920661D01*
X51551000Y-172757339D01*
X51546535Y-172802674D01*
X51535101Y-172840367D01*
X51516534Y-172875103D01*
X51491548Y-172905548D01*
X51461103Y-172930534D01*
X51426367Y-172949101D01*
X51388674Y-172960535D01*
X51343339Y-172965000D01*
X50256661Y-172965000D01*
X50211326Y-172960535D01*
X50173633Y-172949101D01*
X50138897Y-172930534D01*
X50108452Y-172905548D01*
X50083466Y-172875103D01*
X50064899Y-172840367D01*
X50053465Y-172802674D01*
X50049000Y-172757339D01*
X50049000Y-171920661D01*
X50053465Y-171875326D01*
X50064899Y-171837633D01*
X50083466Y-171802897D01*
X50108452Y-171772452D01*
X50138897Y-171747466D01*
X50173633Y-171728899D01*
X50211326Y-171717465D01*
X50256661Y-171713000D01*
X51343339Y-171713000D01*
X51388674Y-171717465D01*
X51388674Y-171717465D01*
G37*
G36*
X47578674Y-171181465D02*
G01*
X47616367Y-171192899D01*
X47651103Y-171211466D01*
X47681548Y-171236452D01*
X47706534Y-171266897D01*
X47725101Y-171301633D01*
X47736535Y-171339326D01*
X47741000Y-171384661D01*
X47741000Y-172221339D01*
X47736535Y-172266674D01*
X47725101Y-172304367D01*
X47706534Y-172339103D01*
X47681548Y-172369548D01*
X47651103Y-172394534D01*
X47616367Y-172413101D01*
X47578674Y-172424535D01*
X47533339Y-172429000D01*
X46446661Y-172429000D01*
X46401326Y-172424535D01*
X46363633Y-172413101D01*
X46328897Y-172394534D01*
X46298452Y-172369548D01*
X46273466Y-172339103D01*
X46254899Y-172304367D01*
X46243465Y-172266674D01*
X46239000Y-172221339D01*
X46239000Y-171384661D01*
X46243465Y-171339326D01*
X46254899Y-171301633D01*
X46273466Y-171266897D01*
X46298452Y-171236452D01*
X46328897Y-171211466D01*
X46363633Y-171192899D01*
X46401326Y-171181465D01*
X46446661Y-171177000D01*
X47533339Y-171177000D01*
X47578674Y-171181465D01*
X47578674Y-171181465D01*
G37*
G36*
X14208488Y-170605326D02*
G01*
X14276627Y-170612037D01*
X14446466Y-170663557D01*
X14446468Y-170663558D01*
X14524728Y-170705389D01*
X14602991Y-170747222D01*
X14636718Y-170774901D01*
X14740186Y-170859814D01*
X14823448Y-170961271D01*
X14852778Y-170997009D01*
X14936443Y-171153534D01*
X14987963Y-171323373D01*
X15005359Y-171500000D01*
X14987963Y-171676627D01*
X14936443Y-171846466D01*
X14852778Y-172002991D01*
X14823448Y-172038729D01*
X14740186Y-172140186D01*
X14641299Y-172221339D01*
X14602991Y-172252778D01*
X14446466Y-172336443D01*
X14276627Y-172387963D01*
X14210442Y-172394482D01*
X14144260Y-172401000D01*
X14055740Y-172401000D01*
X13989558Y-172394482D01*
X13923373Y-172387963D01*
X13753534Y-172336443D01*
X13597009Y-172252778D01*
X13558701Y-172221339D01*
X13459814Y-172140186D01*
X13376552Y-172038729D01*
X13347222Y-172002991D01*
X13263557Y-171846466D01*
X13212037Y-171676627D01*
X13194641Y-171500000D01*
X13212037Y-171323373D01*
X13263557Y-171153534D01*
X13347222Y-170997009D01*
X13376552Y-170961271D01*
X13459814Y-170859814D01*
X13563282Y-170774901D01*
X13597009Y-170747222D01*
X13675272Y-170705389D01*
X13753532Y-170663558D01*
X13753534Y-170663557D01*
X13923373Y-170612037D01*
X13991512Y-170605326D01*
X14055740Y-170599000D01*
X14144260Y-170599000D01*
X14208488Y-170605326D01*
X14208488Y-170605326D01*
G37*
G36*
X69681000Y-171991000D02*
G01*
X67479000Y-171991000D01*
X67479000Y-170089000D01*
X69681000Y-170089000D01*
X69681000Y-171991000D01*
X69681000Y-171991000D01*
G37*
G36*
X66781000Y-171991000D02*
G01*
X64579000Y-171991000D01*
X64579000Y-170089000D01*
X66781000Y-170089000D01*
X66781000Y-171991000D01*
X66781000Y-171991000D01*
G37*
G36*
X49483674Y-170447465D02*
G01*
X49521367Y-170458899D01*
X49556103Y-170477466D01*
X49586548Y-170502452D01*
X49611534Y-170532897D01*
X49630101Y-170567633D01*
X49641535Y-170605326D01*
X49646000Y-170650661D01*
X49646000Y-171487339D01*
X49641535Y-171532674D01*
X49630101Y-171570367D01*
X49611534Y-171605103D01*
X49586548Y-171635548D01*
X49556103Y-171660534D01*
X49521367Y-171679101D01*
X49483674Y-171690535D01*
X49438339Y-171695000D01*
X48351661Y-171695000D01*
X48306326Y-171690535D01*
X48268633Y-171679101D01*
X48233897Y-171660534D01*
X48203452Y-171635548D01*
X48178466Y-171605103D01*
X48159899Y-171570367D01*
X48148465Y-171532674D01*
X48144000Y-171487339D01*
X48144000Y-170650661D01*
X48148465Y-170605326D01*
X48159899Y-170567633D01*
X48178466Y-170532897D01*
X48203452Y-170502452D01*
X48233897Y-170477466D01*
X48268633Y-170458899D01*
X48306326Y-170447465D01*
X48351661Y-170443000D01*
X49438339Y-170443000D01*
X49483674Y-170447465D01*
X49483674Y-170447465D01*
G37*
G36*
X59157368Y-166496536D02*
G01*
X58696334Y-166957570D01*
X58591682Y-167062221D01*
X58130648Y-167523255D01*
X58025997Y-167627907D01*
X55867907Y-169785997D01*
X55763255Y-169890648D01*
X55302221Y-170351682D01*
X55197570Y-170456334D01*
X54736536Y-170917368D01*
X53533040Y-169713872D01*
X53994074Y-169252838D01*
X53994075Y-169252839D01*
X54010339Y-169236575D01*
X54010348Y-169236564D01*
X54098726Y-169148187D01*
X54098725Y-169148186D01*
X54559759Y-168687152D01*
X54559760Y-168687153D01*
X54648137Y-168598775D01*
X54648148Y-168598766D01*
X54664412Y-168582502D01*
X54664411Y-168582501D01*
X55125445Y-168121467D01*
X55125446Y-168121468D01*
X55213833Y-168033080D01*
X55230097Y-168016817D01*
X55230096Y-168016816D01*
X55691130Y-167555782D01*
X55691131Y-167555783D01*
X55795783Y-167451131D01*
X55795782Y-167451130D01*
X56256816Y-166990096D01*
X56256817Y-166990097D01*
X56345204Y-166901709D01*
X56361468Y-166885446D01*
X56361467Y-166885445D01*
X56822501Y-166424411D01*
X56822502Y-166424412D01*
X56838766Y-166408148D01*
X56838775Y-166408137D01*
X56927153Y-166319760D01*
X56927152Y-166319759D01*
X57388186Y-165858725D01*
X57388187Y-165858726D01*
X57476564Y-165770348D01*
X57476575Y-165770339D01*
X57492839Y-165754075D01*
X57492838Y-165754074D01*
X57953872Y-165293040D01*
X59157368Y-166496536D01*
X59157368Y-166496536D01*
G37*
G36*
X49187162Y-165754074D02*
G01*
X49187162Y-165754075D01*
X49203426Y-165770339D01*
X49203432Y-165770344D01*
X49291814Y-165858726D01*
X49291814Y-165858725D01*
X49752848Y-166319759D01*
X49752848Y-166319760D01*
X49841230Y-166408142D01*
X49841235Y-166408148D01*
X49857499Y-166424412D01*
X49857499Y-166424411D01*
X50318533Y-166885445D01*
X50318533Y-166885446D01*
X50423184Y-166990097D01*
X50423184Y-166990096D01*
X50884218Y-167451130D01*
X50884218Y-167451131D01*
X50988870Y-167555783D01*
X50988870Y-167555782D01*
X51449904Y-168016816D01*
X51449904Y-168016817D01*
X51554555Y-168121468D01*
X51554555Y-168121467D01*
X52015589Y-168582501D01*
X52015589Y-168582502D01*
X52031853Y-168598766D01*
X52031859Y-168598771D01*
X52120241Y-168687153D01*
X52120241Y-168687152D01*
X52581275Y-169148186D01*
X52581275Y-169148187D01*
X52669657Y-169236569D01*
X52669662Y-169236575D01*
X52685926Y-169252839D01*
X52685926Y-169252838D01*
X53146960Y-169713872D01*
X51943464Y-170917368D01*
X51482430Y-170456334D01*
X51482431Y-170456334D01*
X51394049Y-170367952D01*
X51394044Y-170367946D01*
X51377780Y-170351682D01*
X51377779Y-170351682D01*
X50916745Y-169890648D01*
X50916746Y-169890648D01*
X50900482Y-169874384D01*
X50900476Y-169874379D01*
X50812094Y-169785997D01*
X50812093Y-169785997D01*
X50351059Y-169324963D01*
X50351060Y-169324963D01*
X50246409Y-169220312D01*
X50246408Y-169220312D01*
X49785374Y-168759278D01*
X49785375Y-168759278D01*
X49680723Y-168654626D01*
X49680722Y-168654626D01*
X49219688Y-168193592D01*
X49219689Y-168193592D01*
X49115038Y-168088941D01*
X49115037Y-168088941D01*
X48654003Y-167627907D01*
X48654004Y-167627907D01*
X48565622Y-167539525D01*
X48565617Y-167539519D01*
X48549353Y-167523255D01*
X48549352Y-167523255D01*
X48088318Y-167062221D01*
X48088319Y-167062221D01*
X48072055Y-167045957D01*
X48072049Y-167045952D01*
X47983667Y-166957570D01*
X47983666Y-166957570D01*
X47522632Y-166496536D01*
X48726128Y-165293040D01*
X49187162Y-165754074D01*
X49187162Y-165754074D01*
G37*
G36*
X47578674Y-169131465D02*
G01*
X47616367Y-169142899D01*
X47651103Y-169161466D01*
X47681548Y-169186452D01*
X47706534Y-169216897D01*
X47725101Y-169251633D01*
X47736535Y-169289326D01*
X47741000Y-169334661D01*
X47741000Y-170171339D01*
X47736535Y-170216674D01*
X47725101Y-170254367D01*
X47706534Y-170289103D01*
X47681548Y-170319548D01*
X47651103Y-170344534D01*
X47616367Y-170363101D01*
X47578674Y-170374535D01*
X47533339Y-170379000D01*
X46446661Y-170379000D01*
X46401326Y-170374535D01*
X46363633Y-170363101D01*
X46328897Y-170344534D01*
X46298452Y-170319548D01*
X46273466Y-170289103D01*
X46254899Y-170254367D01*
X46243465Y-170216674D01*
X46239000Y-170171339D01*
X46239000Y-169334661D01*
X46243465Y-169289326D01*
X46254899Y-169251633D01*
X46273466Y-169216897D01*
X46298452Y-169186452D01*
X46328897Y-169161466D01*
X46363633Y-169142899D01*
X46401326Y-169131465D01*
X46446661Y-169127000D01*
X47533339Y-169127000D01*
X47578674Y-169131465D01*
X47578674Y-169131465D01*
G37*
G36*
X18339885Y-159340617D02*
G01*
X18373479Y-159343926D01*
X18449394Y-159366954D01*
X18502795Y-159383153D01*
X18621964Y-159446851D01*
X18726423Y-159532577D01*
X18812149Y-159637036D01*
X18875847Y-159756205D01*
X18915074Y-159885522D01*
X18928319Y-160020000D01*
X18915074Y-160154478D01*
X18875847Y-160283795D01*
X18812149Y-160402964D01*
X18726423Y-160507423D01*
X18674678Y-160549888D01*
X18657351Y-160567215D01*
X18643737Y-160587589D01*
X18634360Y-160610228D01*
X18629579Y-160634261D01*
X18629579Y-160658766D01*
X18634359Y-160682799D01*
X18643736Y-160705438D01*
X18657350Y-160725812D01*
X18674677Y-160743139D01*
X18695051Y-160756753D01*
X18717690Y-160766130D01*
X18741723Y-160770911D01*
X18753976Y-160771513D01*
X19687000Y-160771513D01*
X19687000Y-167904487D01*
X18753976Y-167904487D01*
X18729590Y-167906889D01*
X18706141Y-167914002D01*
X18684530Y-167925553D01*
X18665588Y-167941098D01*
X18650043Y-167960040D01*
X18638492Y-167981651D01*
X18631379Y-168005100D01*
X18628977Y-168029486D01*
X18631379Y-168053872D01*
X18638492Y-168077321D01*
X18650043Y-168098932D01*
X18665588Y-168117874D01*
X18674678Y-168126112D01*
X18726423Y-168168577D01*
X18812149Y-168273036D01*
X18875847Y-168392205D01*
X18875848Y-168392209D01*
X18915074Y-168521521D01*
X18921080Y-168582501D01*
X18928319Y-168656000D01*
X18915074Y-168790478D01*
X18875847Y-168919795D01*
X18812149Y-169038964D01*
X18726423Y-169143423D01*
X18621964Y-169229149D01*
X18502795Y-169292847D01*
X18495641Y-169295017D01*
X18373479Y-169332074D01*
X18339885Y-169335383D01*
X18272700Y-169342000D01*
X17443300Y-169342000D01*
X17376115Y-169335383D01*
X17342521Y-169332074D01*
X17220359Y-169295017D01*
X17213205Y-169292847D01*
X17094036Y-169229149D01*
X16989577Y-169143423D01*
X16903851Y-169038964D01*
X16840153Y-168919795D01*
X16800926Y-168790478D01*
X16787681Y-168656000D01*
X16794920Y-168582501D01*
X16800926Y-168521521D01*
X16840152Y-168392209D01*
X16840153Y-168392205D01*
X16903851Y-168273036D01*
X16989577Y-168168577D01*
X17094036Y-168082851D01*
X17213205Y-168019153D01*
X17320955Y-167986468D01*
X17342521Y-167979926D01*
X17376115Y-167976617D01*
X17443300Y-167970000D01*
X17936001Y-167970000D01*
X17960387Y-167967598D01*
X17983836Y-167960485D01*
X18005447Y-167948934D01*
X18024389Y-167933389D01*
X18039934Y-167914447D01*
X18051485Y-167892836D01*
X18058598Y-167869387D01*
X18061000Y-167845001D01*
X18061000Y-160830999D01*
X18058598Y-160806613D01*
X18051485Y-160783164D01*
X18039934Y-160761553D01*
X18024389Y-160742611D01*
X18005447Y-160727066D01*
X17983836Y-160715515D01*
X17960387Y-160708402D01*
X17936001Y-160706000D01*
X17443300Y-160706000D01*
X17376115Y-160699383D01*
X17342521Y-160696074D01*
X17266606Y-160673046D01*
X17213205Y-160656847D01*
X17094036Y-160593149D01*
X16989577Y-160507423D01*
X16903851Y-160402964D01*
X16840153Y-160283795D01*
X16800926Y-160154478D01*
X16787681Y-160020000D01*
X16800926Y-159885522D01*
X16840153Y-159756205D01*
X16903851Y-159637036D01*
X16989577Y-159532577D01*
X17094036Y-159446851D01*
X17213205Y-159383153D01*
X17266606Y-159366954D01*
X17342521Y-159343926D01*
X17376115Y-159340617D01*
X17443300Y-159334000D01*
X18272700Y-159334000D01*
X18339885Y-159340617D01*
X18339885Y-159340617D01*
G37*
G36*
X13920285Y-167976617D02*
G01*
X13953879Y-167979926D01*
X13975445Y-167986468D01*
X14083195Y-168019153D01*
X14202364Y-168082851D01*
X14306823Y-168168577D01*
X14392549Y-168273036D01*
X14456247Y-168392205D01*
X14456248Y-168392209D01*
X14495474Y-168521521D01*
X14501480Y-168582501D01*
X14508719Y-168656000D01*
X14495474Y-168790478D01*
X14456247Y-168919795D01*
X14392549Y-169038964D01*
X14306823Y-169143423D01*
X14202364Y-169229149D01*
X14083195Y-169292847D01*
X14076041Y-169295017D01*
X13953879Y-169332074D01*
X13920285Y-169335383D01*
X13853100Y-169342000D01*
X13226900Y-169342000D01*
X13159715Y-169335383D01*
X13126121Y-169332074D01*
X13003959Y-169295017D01*
X12996805Y-169292847D01*
X12877636Y-169229149D01*
X12773177Y-169143423D01*
X12687451Y-169038964D01*
X12623753Y-168919795D01*
X12584526Y-168790478D01*
X12571281Y-168656000D01*
X12578520Y-168582501D01*
X12584526Y-168521521D01*
X12623752Y-168392209D01*
X12623753Y-168392205D01*
X12687451Y-168273036D01*
X12773177Y-168168577D01*
X12877636Y-168082851D01*
X12996805Y-168019153D01*
X13104555Y-167986468D01*
X13126121Y-167979926D01*
X13159715Y-167976617D01*
X13226900Y-167970000D01*
X13853100Y-167970000D01*
X13920285Y-167976617D01*
X13920285Y-167976617D01*
G37*
G36*
X66150442Y-166745518D02*
G01*
X66216627Y-166752037D01*
X66386466Y-166803557D01*
X66542991Y-166887222D01*
X66544532Y-166888487D01*
X66680186Y-166999814D01*
X66731401Y-167062221D01*
X66792778Y-167137009D01*
X66876443Y-167293534D01*
X66927963Y-167463373D01*
X66945359Y-167640000D01*
X66927963Y-167816627D01*
X66876443Y-167986466D01*
X66876442Y-167986468D01*
X66858972Y-168019152D01*
X66792778Y-168142991D01*
X66771780Y-168168577D01*
X66680186Y-168280186D01*
X66578729Y-168363448D01*
X66542991Y-168392778D01*
X66386466Y-168476443D01*
X66216627Y-168527963D01*
X66150442Y-168534482D01*
X66084260Y-168541000D01*
X65995740Y-168541000D01*
X65929558Y-168534482D01*
X65863373Y-168527963D01*
X65693534Y-168476443D01*
X65537009Y-168392778D01*
X65501271Y-168363448D01*
X65399814Y-168280186D01*
X65308220Y-168168577D01*
X65287222Y-168142991D01*
X65221028Y-168019152D01*
X65203558Y-167986468D01*
X65203557Y-167986466D01*
X65152037Y-167816627D01*
X65134641Y-167640000D01*
X65152037Y-167463373D01*
X65203557Y-167293534D01*
X65287222Y-167137009D01*
X65348599Y-167062221D01*
X65399814Y-166999814D01*
X65535468Y-166888487D01*
X65537009Y-166887222D01*
X65693534Y-166803557D01*
X65863373Y-166752037D01*
X65929558Y-166745518D01*
X65995740Y-166739000D01*
X66084260Y-166739000D01*
X66150442Y-166745518D01*
X66150442Y-166745518D01*
G37*
G36*
X68690442Y-166745518D02*
G01*
X68756627Y-166752037D01*
X68926466Y-166803557D01*
X69082991Y-166887222D01*
X69084532Y-166888487D01*
X69220186Y-166999814D01*
X69271401Y-167062221D01*
X69332778Y-167137009D01*
X69416443Y-167293534D01*
X69467963Y-167463373D01*
X69485359Y-167640000D01*
X69467963Y-167816627D01*
X69416443Y-167986466D01*
X69416442Y-167986468D01*
X69398972Y-168019152D01*
X69332778Y-168142991D01*
X69311780Y-168168577D01*
X69220186Y-168280186D01*
X69118729Y-168363448D01*
X69082991Y-168392778D01*
X68926466Y-168476443D01*
X68756627Y-168527963D01*
X68690442Y-168534482D01*
X68624260Y-168541000D01*
X68535740Y-168541000D01*
X68469558Y-168534482D01*
X68403373Y-168527963D01*
X68233534Y-168476443D01*
X68077009Y-168392778D01*
X68041271Y-168363448D01*
X67939814Y-168280186D01*
X67848220Y-168168577D01*
X67827222Y-168142991D01*
X67761028Y-168019152D01*
X67743558Y-167986468D01*
X67743557Y-167986466D01*
X67692037Y-167816627D01*
X67674641Y-167640000D01*
X67692037Y-167463373D01*
X67743557Y-167293534D01*
X67827222Y-167137009D01*
X67888599Y-167062221D01*
X67939814Y-166999814D01*
X68075468Y-166888487D01*
X68077009Y-166887222D01*
X68233534Y-166803557D01*
X68403373Y-166752037D01*
X68469558Y-166745518D01*
X68535740Y-166739000D01*
X68624260Y-166739000D01*
X68690442Y-166745518D01*
X68690442Y-166745518D01*
G37*
G36*
X38901000Y-168081000D02*
G01*
X37299000Y-168081000D01*
X37299000Y-165979000D01*
X38901000Y-165979000D01*
X38901000Y-168081000D01*
X38901000Y-168081000D01*
G37*
G36*
X36601000Y-168081000D02*
G01*
X34999000Y-168081000D01*
X34999000Y-165979000D01*
X36601000Y-165979000D01*
X36601000Y-168081000D01*
X36601000Y-168081000D01*
G37*
G36*
X41201000Y-168081000D02*
G01*
X39599000Y-168081000D01*
X39599000Y-165979000D01*
X41201000Y-165979000D01*
X41201000Y-168081000D01*
X41201000Y-168081000D01*
G37*
G36*
X68690442Y-164205518D02*
G01*
X68756627Y-164212037D01*
X68926466Y-164263557D01*
X69082991Y-164347222D01*
X69084532Y-164348487D01*
X69220186Y-164459814D01*
X69303448Y-164561271D01*
X69332778Y-164597009D01*
X69416443Y-164753534D01*
X69467963Y-164923373D01*
X69485359Y-165100000D01*
X69467963Y-165276627D01*
X69416443Y-165446466D01*
X69332778Y-165602991D01*
X69303448Y-165638729D01*
X69220186Y-165740186D01*
X69118729Y-165823448D01*
X69082991Y-165852778D01*
X68926466Y-165936443D01*
X68756627Y-165987963D01*
X68690443Y-165994481D01*
X68624260Y-166001000D01*
X68535740Y-166001000D01*
X68469557Y-165994481D01*
X68403373Y-165987963D01*
X68233534Y-165936443D01*
X68077009Y-165852778D01*
X68041271Y-165823448D01*
X67939814Y-165740186D01*
X67856552Y-165638729D01*
X67827222Y-165602991D01*
X67743557Y-165446466D01*
X67692037Y-165276627D01*
X67674641Y-165100000D01*
X67692037Y-164923373D01*
X67743557Y-164753534D01*
X67827222Y-164597009D01*
X67856552Y-164561271D01*
X67939814Y-164459814D01*
X68075468Y-164348487D01*
X68077009Y-164347222D01*
X68233534Y-164263557D01*
X68403373Y-164212037D01*
X68469558Y-164205518D01*
X68535740Y-164199000D01*
X68624260Y-164199000D01*
X68690442Y-164205518D01*
X68690442Y-164205518D01*
G37*
G36*
X66150442Y-164205518D02*
G01*
X66216627Y-164212037D01*
X66386466Y-164263557D01*
X66542991Y-164347222D01*
X66544532Y-164348487D01*
X66680186Y-164459814D01*
X66763448Y-164561271D01*
X66792778Y-164597009D01*
X66876443Y-164753534D01*
X66927963Y-164923373D01*
X66945359Y-165100000D01*
X66927963Y-165276627D01*
X66876443Y-165446466D01*
X66792778Y-165602991D01*
X66763448Y-165638729D01*
X66680186Y-165740186D01*
X66578729Y-165823448D01*
X66542991Y-165852778D01*
X66386466Y-165936443D01*
X66216627Y-165987963D01*
X66150443Y-165994481D01*
X66084260Y-166001000D01*
X65995740Y-166001000D01*
X65929557Y-165994481D01*
X65863373Y-165987963D01*
X65693534Y-165936443D01*
X65537009Y-165852778D01*
X65501271Y-165823448D01*
X65399814Y-165740186D01*
X65316552Y-165638729D01*
X65287222Y-165602991D01*
X65203557Y-165446466D01*
X65152037Y-165276627D01*
X65134641Y-165100000D01*
X65152037Y-164923373D01*
X65203557Y-164753534D01*
X65287222Y-164597009D01*
X65316552Y-164561271D01*
X65399814Y-164459814D01*
X65535468Y-164348487D01*
X65537009Y-164347222D01*
X65693534Y-164263557D01*
X65863373Y-164212037D01*
X65929558Y-164205518D01*
X65995740Y-164199000D01*
X66084260Y-164199000D01*
X66150442Y-164205518D01*
X66150442Y-164205518D01*
G37*
G36*
X55197570Y-159743666D02*
G01*
X55197570Y-159743667D01*
X55285952Y-159832049D01*
X55285957Y-159832055D01*
X55302221Y-159848319D01*
X55302221Y-159848318D01*
X55763255Y-160309352D01*
X55763255Y-160309353D01*
X55779519Y-160325617D01*
X55779525Y-160325622D01*
X55867907Y-160414004D01*
X55867907Y-160414003D01*
X56328941Y-160875037D01*
X56328941Y-160875038D01*
X56433592Y-160979689D01*
X56433592Y-160979688D01*
X56894626Y-161440722D01*
X56894626Y-161440723D01*
X56999278Y-161545375D01*
X56999278Y-161545374D01*
X57460312Y-162006408D01*
X57460312Y-162006409D01*
X57564963Y-162111060D01*
X57564963Y-162111059D01*
X58025997Y-162572093D01*
X58025997Y-162572094D01*
X58114379Y-162660476D01*
X58114384Y-162660482D01*
X58130648Y-162676746D01*
X58130648Y-162676745D01*
X58591682Y-163137779D01*
X58591682Y-163137780D01*
X58607946Y-163154044D01*
X58607952Y-163154049D01*
X58696334Y-163242431D01*
X58696334Y-163242430D01*
X59157368Y-163703464D01*
X57953872Y-164906960D01*
X57492838Y-164445926D01*
X57492839Y-164445926D01*
X57476575Y-164429662D01*
X57476569Y-164429657D01*
X57388187Y-164341275D01*
X57388186Y-164341275D01*
X56927152Y-163880241D01*
X56927153Y-163880241D01*
X56838771Y-163791859D01*
X56838766Y-163791853D01*
X56822502Y-163775589D01*
X56822501Y-163775589D01*
X56361467Y-163314555D01*
X56361468Y-163314555D01*
X56256817Y-163209904D01*
X56256816Y-163209904D01*
X55795782Y-162748870D01*
X55795783Y-162748870D01*
X55691131Y-162644218D01*
X55691130Y-162644218D01*
X55230096Y-162183184D01*
X55230097Y-162183184D01*
X55125446Y-162078533D01*
X55125445Y-162078533D01*
X54664411Y-161617499D01*
X54664412Y-161617499D01*
X54648148Y-161601235D01*
X54648142Y-161601230D01*
X54559760Y-161512848D01*
X54559759Y-161512848D01*
X54098725Y-161051814D01*
X54098726Y-161051814D01*
X54010344Y-160963432D01*
X54010339Y-160963426D01*
X53994075Y-160947162D01*
X53994074Y-160947162D01*
X53533040Y-160486128D01*
X54736536Y-159282632D01*
X55197570Y-159743666D01*
X55197570Y-159743666D01*
G37*
G36*
X53146960Y-160486128D02*
G01*
X52669662Y-160963426D01*
X52581275Y-161051814D01*
X52120241Y-161512848D01*
X52031853Y-161601235D01*
X51554555Y-162078533D01*
X51466167Y-162166920D01*
X51449904Y-162183184D01*
X50423184Y-163209904D01*
X50334796Y-163298291D01*
X50318533Y-163314555D01*
X49841235Y-163791853D01*
X49752848Y-163880241D01*
X49291814Y-164341275D01*
X49203426Y-164429662D01*
X48726128Y-164906960D01*
X47522632Y-163703464D01*
X47983666Y-163242430D01*
X47983667Y-163242431D01*
X48072044Y-163154053D01*
X48072055Y-163154044D01*
X48088319Y-163137780D01*
X48088318Y-163137779D01*
X48549352Y-162676745D01*
X48549353Y-162676746D01*
X48565617Y-162660482D01*
X48565626Y-162660471D01*
X48654004Y-162572094D01*
X48654003Y-162572093D01*
X49115037Y-162111059D01*
X49115038Y-162111060D01*
X49219689Y-162006409D01*
X49219688Y-162006408D01*
X49680722Y-161545374D01*
X49680723Y-161545375D01*
X49785375Y-161440723D01*
X49785374Y-161440722D01*
X50246408Y-160979688D01*
X50246409Y-160979689D01*
X50351060Y-160875038D01*
X50351059Y-160875037D01*
X50812093Y-160414003D01*
X50812094Y-160414004D01*
X50900471Y-160325626D01*
X50900482Y-160325617D01*
X50916746Y-160309353D01*
X50916745Y-160309352D01*
X51377779Y-159848318D01*
X51377780Y-159848319D01*
X51394044Y-159832055D01*
X51394053Y-159832044D01*
X51482431Y-159743667D01*
X51482430Y-159743666D01*
X51943464Y-159282632D01*
X53146960Y-160486128D01*
X53146960Y-160486128D01*
G37*
G36*
X30993928Y-161466764D02*
G01*
X31015009Y-161473160D01*
X31034445Y-161483548D01*
X31051476Y-161497524D01*
X31065452Y-161514555D01*
X31075840Y-161533991D01*
X31082236Y-161555072D01*
X31085000Y-161583140D01*
X31085000Y-163396860D01*
X31082236Y-163424928D01*
X31075840Y-163446009D01*
X31065452Y-163465445D01*
X31051476Y-163482476D01*
X31034445Y-163496452D01*
X31015009Y-163506840D01*
X30993928Y-163513236D01*
X30965860Y-163516000D01*
X30502140Y-163516000D01*
X30474072Y-163513236D01*
X30452991Y-163506840D01*
X30433555Y-163496452D01*
X30416524Y-163482476D01*
X30402548Y-163465445D01*
X30392160Y-163446009D01*
X30385764Y-163424928D01*
X30383000Y-163396860D01*
X30383000Y-161583140D01*
X30385764Y-161555072D01*
X30392160Y-161533991D01*
X30402548Y-161514555D01*
X30416524Y-161497524D01*
X30433555Y-161483548D01*
X30452991Y-161473160D01*
X30474072Y-161466764D01*
X30502140Y-161464000D01*
X30965860Y-161464000D01*
X30993928Y-161466764D01*
X30993928Y-161466764D01*
G37*
G36*
X32263928Y-161466764D02*
G01*
X32285009Y-161473160D01*
X32304445Y-161483548D01*
X32321476Y-161497524D01*
X32335452Y-161514555D01*
X32345840Y-161533991D01*
X32352236Y-161555072D01*
X32355000Y-161583140D01*
X32355000Y-163396860D01*
X32352236Y-163424928D01*
X32345840Y-163446009D01*
X32335452Y-163465445D01*
X32321476Y-163482476D01*
X32304445Y-163496452D01*
X32285009Y-163506840D01*
X32263928Y-163513236D01*
X32235860Y-163516000D01*
X31772140Y-163516000D01*
X31744072Y-163513236D01*
X31722991Y-163506840D01*
X31703555Y-163496452D01*
X31686524Y-163482476D01*
X31672548Y-163465445D01*
X31662160Y-163446009D01*
X31655764Y-163424928D01*
X31653000Y-163396860D01*
X31653000Y-161583140D01*
X31655764Y-161555072D01*
X31662160Y-161533991D01*
X31672548Y-161514555D01*
X31686524Y-161497524D01*
X31703555Y-161483548D01*
X31722991Y-161473160D01*
X31744072Y-161466764D01*
X31772140Y-161464000D01*
X32235860Y-161464000D01*
X32263928Y-161466764D01*
X32263928Y-161466764D01*
G37*
G36*
X33533928Y-161466764D02*
G01*
X33555009Y-161473160D01*
X33574445Y-161483548D01*
X33591476Y-161497524D01*
X33605452Y-161514555D01*
X33615840Y-161533991D01*
X33622236Y-161555072D01*
X33625000Y-161583140D01*
X33625000Y-163396860D01*
X33622236Y-163424928D01*
X33615840Y-163446009D01*
X33605452Y-163465445D01*
X33591476Y-163482476D01*
X33574445Y-163496452D01*
X33555009Y-163506840D01*
X33533928Y-163513236D01*
X33505860Y-163516000D01*
X33042140Y-163516000D01*
X33014072Y-163513236D01*
X32992991Y-163506840D01*
X32973555Y-163496452D01*
X32956524Y-163482476D01*
X32942548Y-163465445D01*
X32932160Y-163446009D01*
X32925764Y-163424928D01*
X32923000Y-163396860D01*
X32923000Y-161583140D01*
X32925764Y-161555072D01*
X32932160Y-161533991D01*
X32942548Y-161514555D01*
X32956524Y-161497524D01*
X32973555Y-161483548D01*
X32992991Y-161473160D01*
X33014072Y-161466764D01*
X33042140Y-161464000D01*
X33505860Y-161464000D01*
X33533928Y-161466764D01*
X33533928Y-161466764D01*
G37*
G36*
X34803928Y-161466764D02*
G01*
X34825009Y-161473160D01*
X34844445Y-161483548D01*
X34861476Y-161497524D01*
X34875452Y-161514555D01*
X34885840Y-161533991D01*
X34892236Y-161555072D01*
X34895000Y-161583140D01*
X34895000Y-163396860D01*
X34892236Y-163424928D01*
X34885840Y-163446009D01*
X34875452Y-163465445D01*
X34861476Y-163482476D01*
X34844445Y-163496452D01*
X34825009Y-163506840D01*
X34803928Y-163513236D01*
X34775860Y-163516000D01*
X34312140Y-163516000D01*
X34284072Y-163513236D01*
X34262991Y-163506840D01*
X34243555Y-163496452D01*
X34226524Y-163482476D01*
X34212548Y-163465445D01*
X34202160Y-163446009D01*
X34195764Y-163424928D01*
X34193000Y-163396860D01*
X34193000Y-161583140D01*
X34195764Y-161555072D01*
X34202160Y-161533991D01*
X34212548Y-161514555D01*
X34226524Y-161497524D01*
X34243555Y-161483548D01*
X34262991Y-161473160D01*
X34284072Y-161466764D01*
X34312140Y-161464000D01*
X34775860Y-161464000D01*
X34803928Y-161466764D01*
X34803928Y-161466764D01*
G37*
G36*
X36073928Y-161466764D02*
G01*
X36095009Y-161473160D01*
X36114445Y-161483548D01*
X36131476Y-161497524D01*
X36145452Y-161514555D01*
X36155840Y-161533991D01*
X36162236Y-161555072D01*
X36165000Y-161583140D01*
X36165000Y-163396860D01*
X36162236Y-163424928D01*
X36155840Y-163446009D01*
X36145452Y-163465445D01*
X36131476Y-163482476D01*
X36114445Y-163496452D01*
X36095009Y-163506840D01*
X36073928Y-163513236D01*
X36045860Y-163516000D01*
X35582140Y-163516000D01*
X35554072Y-163513236D01*
X35532991Y-163506840D01*
X35513555Y-163496452D01*
X35496524Y-163482476D01*
X35482548Y-163465445D01*
X35472160Y-163446009D01*
X35465764Y-163424928D01*
X35463000Y-163396860D01*
X35463000Y-161583140D01*
X35465764Y-161555072D01*
X35472160Y-161533991D01*
X35482548Y-161514555D01*
X35496524Y-161497524D01*
X35513555Y-161483548D01*
X35532991Y-161473160D01*
X35554072Y-161466764D01*
X35582140Y-161464000D01*
X36045860Y-161464000D01*
X36073928Y-161466764D01*
X36073928Y-161466764D01*
G37*
G36*
X37343928Y-161466764D02*
G01*
X37365009Y-161473160D01*
X37384445Y-161483548D01*
X37401476Y-161497524D01*
X37415452Y-161514555D01*
X37425840Y-161533991D01*
X37432236Y-161555072D01*
X37435000Y-161583140D01*
X37435000Y-163396860D01*
X37432236Y-163424928D01*
X37425840Y-163446009D01*
X37415452Y-163465445D01*
X37401476Y-163482476D01*
X37384445Y-163496452D01*
X37365009Y-163506840D01*
X37343928Y-163513236D01*
X37315860Y-163516000D01*
X36852140Y-163516000D01*
X36824072Y-163513236D01*
X36802991Y-163506840D01*
X36783555Y-163496452D01*
X36766524Y-163482476D01*
X36752548Y-163465445D01*
X36742160Y-163446009D01*
X36735764Y-163424928D01*
X36733000Y-163396860D01*
X36733000Y-161583140D01*
X36735764Y-161555072D01*
X36742160Y-161533991D01*
X36752548Y-161514555D01*
X36766524Y-161497524D01*
X36783555Y-161483548D01*
X36802991Y-161473160D01*
X36824072Y-161466764D01*
X36852140Y-161464000D01*
X37315860Y-161464000D01*
X37343928Y-161466764D01*
X37343928Y-161466764D01*
G37*
G36*
X38613928Y-161466764D02*
G01*
X38635009Y-161473160D01*
X38654445Y-161483548D01*
X38671476Y-161497524D01*
X38685452Y-161514555D01*
X38695840Y-161533991D01*
X38702236Y-161555072D01*
X38705000Y-161583140D01*
X38705000Y-163396860D01*
X38702236Y-163424928D01*
X38695840Y-163446009D01*
X38685452Y-163465445D01*
X38671476Y-163482476D01*
X38654445Y-163496452D01*
X38635009Y-163506840D01*
X38613928Y-163513236D01*
X38585860Y-163516000D01*
X38122140Y-163516000D01*
X38094072Y-163513236D01*
X38072991Y-163506840D01*
X38053555Y-163496452D01*
X38036524Y-163482476D01*
X38022548Y-163465445D01*
X38012160Y-163446009D01*
X38005764Y-163424928D01*
X38003000Y-163396860D01*
X38003000Y-161583140D01*
X38005764Y-161555072D01*
X38012160Y-161533991D01*
X38022548Y-161514555D01*
X38036524Y-161497524D01*
X38053555Y-161483548D01*
X38072991Y-161473160D01*
X38094072Y-161466764D01*
X38122140Y-161464000D01*
X38585860Y-161464000D01*
X38613928Y-161466764D01*
X38613928Y-161466764D01*
G37*
G36*
X39883928Y-161466764D02*
G01*
X39905009Y-161473160D01*
X39924445Y-161483548D01*
X39941476Y-161497524D01*
X39955452Y-161514555D01*
X39965840Y-161533991D01*
X39972236Y-161555072D01*
X39975000Y-161583140D01*
X39975000Y-163396860D01*
X39972236Y-163424928D01*
X39965840Y-163446009D01*
X39955452Y-163465445D01*
X39941476Y-163482476D01*
X39924445Y-163496452D01*
X39905009Y-163506840D01*
X39883928Y-163513236D01*
X39855860Y-163516000D01*
X39392140Y-163516000D01*
X39364072Y-163513236D01*
X39342991Y-163506840D01*
X39323555Y-163496452D01*
X39306524Y-163482476D01*
X39292548Y-163465445D01*
X39282160Y-163446009D01*
X39275764Y-163424928D01*
X39273000Y-163396860D01*
X39273000Y-161583140D01*
X39275764Y-161555072D01*
X39282160Y-161533991D01*
X39292548Y-161514555D01*
X39306524Y-161497524D01*
X39323555Y-161483548D01*
X39342991Y-161473160D01*
X39364072Y-161466764D01*
X39392140Y-161464000D01*
X39855860Y-161464000D01*
X39883928Y-161466764D01*
X39883928Y-161466764D01*
G37*
G36*
X68690442Y-161665518D02*
G01*
X68756627Y-161672037D01*
X68926466Y-161723557D01*
X69082991Y-161807222D01*
X69118729Y-161836552D01*
X69220186Y-161919814D01*
X69291251Y-162006408D01*
X69332778Y-162057009D01*
X69332779Y-162057011D01*
X69400221Y-162183184D01*
X69416443Y-162213534D01*
X69467963Y-162383373D01*
X69485359Y-162560000D01*
X69467963Y-162736627D01*
X69416443Y-162906466D01*
X69332778Y-163062991D01*
X69303448Y-163098729D01*
X69220186Y-163200186D01*
X69118729Y-163283448D01*
X69082991Y-163312778D01*
X68926466Y-163396443D01*
X68756627Y-163447963D01*
X68690442Y-163454482D01*
X68624260Y-163461000D01*
X68535740Y-163461000D01*
X68469558Y-163454482D01*
X68403373Y-163447963D01*
X68233534Y-163396443D01*
X68077009Y-163312778D01*
X68041271Y-163283448D01*
X67939814Y-163200186D01*
X67856552Y-163098729D01*
X67827222Y-163062991D01*
X67743557Y-162906466D01*
X67692037Y-162736627D01*
X67674641Y-162560000D01*
X67692037Y-162383373D01*
X67743557Y-162213534D01*
X67759780Y-162183184D01*
X67827221Y-162057011D01*
X67827222Y-162057009D01*
X67868749Y-162006408D01*
X67939814Y-161919814D01*
X68041271Y-161836552D01*
X68077009Y-161807222D01*
X68233534Y-161723557D01*
X68403373Y-161672037D01*
X68469558Y-161665518D01*
X68535740Y-161659000D01*
X68624260Y-161659000D01*
X68690442Y-161665518D01*
X68690442Y-161665518D01*
G37*
G36*
X66941000Y-163461000D02*
G01*
X65139000Y-163461000D01*
X65139000Y-161659000D01*
X66941000Y-161659000D01*
X66941000Y-163461000D01*
X66941000Y-163461000D01*
G37*
G36*
X47001000Y-161991000D02*
G01*
X44799000Y-161991000D01*
X44799000Y-160089000D01*
X47001000Y-160089000D01*
X47001000Y-161991000D01*
X47001000Y-161991000D01*
G37*
G36*
X44101000Y-161991000D02*
G01*
X41899000Y-161991000D01*
X41899000Y-160089000D01*
X44101000Y-160089000D01*
X44101000Y-161991000D01*
X44101000Y-161991000D01*
G37*
G36*
X26463674Y-160293465D02*
G01*
X26501367Y-160304899D01*
X26536103Y-160323466D01*
X26566548Y-160348452D01*
X26591534Y-160378897D01*
X26610101Y-160413633D01*
X26621535Y-160451326D01*
X26626000Y-160496661D01*
X26626000Y-161583339D01*
X26621535Y-161628674D01*
X26610101Y-161666367D01*
X26591534Y-161701103D01*
X26566548Y-161731548D01*
X26536103Y-161756534D01*
X26501367Y-161775101D01*
X26463674Y-161786535D01*
X26418339Y-161791000D01*
X25581661Y-161791000D01*
X25536326Y-161786535D01*
X25498633Y-161775101D01*
X25463897Y-161756534D01*
X25433452Y-161731548D01*
X25408466Y-161701103D01*
X25389899Y-161666367D01*
X25378465Y-161628674D01*
X25374000Y-161583339D01*
X25374000Y-160496661D01*
X25378465Y-160451326D01*
X25389899Y-160413633D01*
X25408466Y-160378897D01*
X25433452Y-160348452D01*
X25463897Y-160323466D01*
X25498633Y-160304899D01*
X25536326Y-160293465D01*
X25581661Y-160289000D01*
X26418339Y-160289000D01*
X26463674Y-160293465D01*
X26463674Y-160293465D01*
G37*
G36*
X28513674Y-160293465D02*
G01*
X28551367Y-160304899D01*
X28586103Y-160323466D01*
X28616548Y-160348452D01*
X28641534Y-160378897D01*
X28660101Y-160413633D01*
X28671535Y-160451326D01*
X28676000Y-160496661D01*
X28676000Y-161583339D01*
X28671535Y-161628674D01*
X28660101Y-161666367D01*
X28641534Y-161701103D01*
X28616548Y-161731548D01*
X28586103Y-161756534D01*
X28551367Y-161775101D01*
X28513674Y-161786535D01*
X28468339Y-161791000D01*
X27631661Y-161791000D01*
X27586326Y-161786535D01*
X27548633Y-161775101D01*
X27513897Y-161756534D01*
X27483452Y-161731548D01*
X27458466Y-161701103D01*
X27439899Y-161666367D01*
X27428465Y-161628674D01*
X27424000Y-161583339D01*
X27424000Y-160496661D01*
X27428465Y-160451326D01*
X27439899Y-160413633D01*
X27458466Y-160378897D01*
X27483452Y-160348452D01*
X27513897Y-160323466D01*
X27548633Y-160304899D01*
X27586326Y-160293465D01*
X27631661Y-160289000D01*
X28468339Y-160289000D01*
X28513674Y-160293465D01*
X28513674Y-160293465D01*
G37*
G36*
X13920285Y-159340617D02*
G01*
X13953879Y-159343926D01*
X14029794Y-159366954D01*
X14083195Y-159383153D01*
X14202364Y-159446851D01*
X14306823Y-159532577D01*
X14392549Y-159637036D01*
X14456247Y-159756205D01*
X14495474Y-159885522D01*
X14508719Y-160020000D01*
X14495474Y-160154478D01*
X14456247Y-160283795D01*
X14392549Y-160402964D01*
X14306823Y-160507423D01*
X14202364Y-160593149D01*
X14083195Y-160656847D01*
X14029794Y-160673046D01*
X13953879Y-160696074D01*
X13920285Y-160699383D01*
X13853100Y-160706000D01*
X13226900Y-160706000D01*
X13159715Y-160699383D01*
X13126121Y-160696074D01*
X13050206Y-160673046D01*
X12996805Y-160656847D01*
X12877636Y-160593149D01*
X12773177Y-160507423D01*
X12687451Y-160402964D01*
X12623753Y-160283795D01*
X12584526Y-160154478D01*
X12571281Y-160020000D01*
X12584526Y-159885522D01*
X12623753Y-159756205D01*
X12687451Y-159637036D01*
X12773177Y-159532577D01*
X12877636Y-159446851D01*
X12996805Y-159383153D01*
X13050206Y-159366954D01*
X13126121Y-159343926D01*
X13159715Y-159340617D01*
X13226900Y-159334000D01*
X13853100Y-159334000D01*
X13920285Y-159340617D01*
X13920285Y-159340617D01*
G37*
G36*
X49483674Y-159407465D02*
G01*
X49521367Y-159418899D01*
X49556103Y-159437466D01*
X49586548Y-159462452D01*
X49611534Y-159492897D01*
X49630101Y-159527633D01*
X49641535Y-159565326D01*
X49646000Y-159610661D01*
X49646000Y-160447339D01*
X49641535Y-160492674D01*
X49630101Y-160530367D01*
X49611534Y-160565103D01*
X49586548Y-160595548D01*
X49556103Y-160620534D01*
X49521367Y-160639101D01*
X49483674Y-160650535D01*
X49438339Y-160655000D01*
X48351661Y-160655000D01*
X48306326Y-160650535D01*
X48268633Y-160639101D01*
X48233897Y-160620534D01*
X48203452Y-160595548D01*
X48178466Y-160565103D01*
X48159899Y-160530367D01*
X48148465Y-160492674D01*
X48144000Y-160447339D01*
X48144000Y-159610661D01*
X48148465Y-159565326D01*
X48159899Y-159527633D01*
X48178466Y-159492897D01*
X48203452Y-159462452D01*
X48233897Y-159437466D01*
X48268633Y-159418899D01*
X48306326Y-159407465D01*
X48351661Y-159403000D01*
X49438339Y-159403000D01*
X49483674Y-159407465D01*
X49483674Y-159407465D01*
G37*
G36*
X47001000Y-159691000D02*
G01*
X44799000Y-159691000D01*
X44799000Y-157789000D01*
X47001000Y-157789000D01*
X47001000Y-159691000D01*
X47001000Y-159691000D01*
G37*
G36*
X44101000Y-159691000D02*
G01*
X41899000Y-159691000D01*
X41899000Y-157789000D01*
X44101000Y-157789000D01*
X44101000Y-159691000D01*
X44101000Y-159691000D01*
G37*
G36*
X26463674Y-157793465D02*
G01*
X26501367Y-157804899D01*
X26536103Y-157823466D01*
X26566548Y-157848452D01*
X26591534Y-157878897D01*
X26610101Y-157913633D01*
X26621535Y-157951326D01*
X26626000Y-157996661D01*
X26626000Y-159083339D01*
X26621535Y-159128674D01*
X26610101Y-159166367D01*
X26591534Y-159201103D01*
X26566548Y-159231548D01*
X26536103Y-159256534D01*
X26501367Y-159275101D01*
X26463674Y-159286535D01*
X26418339Y-159291000D01*
X25581661Y-159291000D01*
X25536326Y-159286535D01*
X25498633Y-159275101D01*
X25463897Y-159256534D01*
X25433452Y-159231548D01*
X25408466Y-159201103D01*
X25389899Y-159166367D01*
X25378465Y-159128674D01*
X25374000Y-159083339D01*
X25374000Y-157996661D01*
X25378465Y-157951326D01*
X25389899Y-157913633D01*
X25408466Y-157878897D01*
X25433452Y-157848452D01*
X25463897Y-157823466D01*
X25498633Y-157804899D01*
X25536326Y-157793465D01*
X25581661Y-157789000D01*
X26418339Y-157789000D01*
X26463674Y-157793465D01*
X26463674Y-157793465D01*
G37*
G36*
X28513674Y-157793465D02*
G01*
X28551367Y-157804899D01*
X28586103Y-157823466D01*
X28616548Y-157848452D01*
X28641534Y-157878897D01*
X28660101Y-157913633D01*
X28671535Y-157951326D01*
X28676000Y-157996661D01*
X28676000Y-159083339D01*
X28671535Y-159128674D01*
X28660101Y-159166367D01*
X28641534Y-159201103D01*
X28616548Y-159231548D01*
X28586103Y-159256534D01*
X28551367Y-159275101D01*
X28513674Y-159286535D01*
X28468339Y-159291000D01*
X27631661Y-159291000D01*
X27586326Y-159286535D01*
X27548633Y-159275101D01*
X27513897Y-159256534D01*
X27483452Y-159231548D01*
X27458466Y-159201103D01*
X27439899Y-159166367D01*
X27428465Y-159128674D01*
X27424000Y-159083339D01*
X27424000Y-157996661D01*
X27428465Y-157951326D01*
X27439899Y-157913633D01*
X27458466Y-157878897D01*
X27483452Y-157848452D01*
X27513897Y-157823466D01*
X27548633Y-157804899D01*
X27586326Y-157793465D01*
X27631661Y-157789000D01*
X28468339Y-157789000D01*
X28513674Y-157793465D01*
X28513674Y-157793465D01*
G37*
G36*
X49483674Y-157357465D02*
G01*
X49521367Y-157368899D01*
X49556103Y-157387466D01*
X49586548Y-157412452D01*
X49611534Y-157442897D01*
X49630101Y-157477633D01*
X49641535Y-157515326D01*
X49646000Y-157560661D01*
X49646000Y-158397339D01*
X49641535Y-158442674D01*
X49630101Y-158480367D01*
X49611534Y-158515103D01*
X49586548Y-158545548D01*
X49556103Y-158570534D01*
X49521367Y-158589101D01*
X49483674Y-158600535D01*
X49438339Y-158605000D01*
X48351661Y-158605000D01*
X48306326Y-158600535D01*
X48268633Y-158589101D01*
X48233897Y-158570534D01*
X48203452Y-158545548D01*
X48178466Y-158515103D01*
X48159899Y-158480367D01*
X48148465Y-158442674D01*
X48144000Y-158397339D01*
X48144000Y-157560661D01*
X48148465Y-157515326D01*
X48159899Y-157477633D01*
X48178466Y-157442897D01*
X48203452Y-157412452D01*
X48233897Y-157387466D01*
X48268633Y-157368899D01*
X48306326Y-157357465D01*
X48351661Y-157353000D01*
X49438339Y-157353000D01*
X49483674Y-157357465D01*
X49483674Y-157357465D01*
G37*
G36*
X37343928Y-156516764D02*
G01*
X37365009Y-156523160D01*
X37384445Y-156533548D01*
X37401476Y-156547524D01*
X37415452Y-156564555D01*
X37425840Y-156583991D01*
X37432236Y-156605072D01*
X37435000Y-156633140D01*
X37435000Y-158446860D01*
X37432236Y-158474928D01*
X37425840Y-158496009D01*
X37415452Y-158515445D01*
X37401476Y-158532476D01*
X37384445Y-158546452D01*
X37365009Y-158556840D01*
X37343928Y-158563236D01*
X37315860Y-158566000D01*
X36852140Y-158566000D01*
X36824072Y-158563236D01*
X36802991Y-158556840D01*
X36783555Y-158546452D01*
X36766524Y-158532476D01*
X36752548Y-158515445D01*
X36742160Y-158496009D01*
X36735764Y-158474928D01*
X36733000Y-158446860D01*
X36733000Y-156633140D01*
X36735764Y-156605072D01*
X36742160Y-156583991D01*
X36752548Y-156564555D01*
X36766524Y-156547524D01*
X36783555Y-156533548D01*
X36802991Y-156523160D01*
X36824072Y-156516764D01*
X36852140Y-156514000D01*
X37315860Y-156514000D01*
X37343928Y-156516764D01*
X37343928Y-156516764D01*
G37*
G36*
X38613928Y-156516764D02*
G01*
X38635009Y-156523160D01*
X38654445Y-156533548D01*
X38671476Y-156547524D01*
X38685452Y-156564555D01*
X38695840Y-156583991D01*
X38702236Y-156605072D01*
X38705000Y-156633140D01*
X38705000Y-158446860D01*
X38702236Y-158474928D01*
X38695840Y-158496009D01*
X38685452Y-158515445D01*
X38671476Y-158532476D01*
X38654445Y-158546452D01*
X38635009Y-158556840D01*
X38613928Y-158563236D01*
X38585860Y-158566000D01*
X38122140Y-158566000D01*
X38094072Y-158563236D01*
X38072991Y-158556840D01*
X38053555Y-158546452D01*
X38036524Y-158532476D01*
X38022548Y-158515445D01*
X38012160Y-158496009D01*
X38005764Y-158474928D01*
X38003000Y-158446860D01*
X38003000Y-156633140D01*
X38005764Y-156605072D01*
X38012160Y-156583991D01*
X38022548Y-156564555D01*
X38036524Y-156547524D01*
X38053555Y-156533548D01*
X38072991Y-156523160D01*
X38094072Y-156516764D01*
X38122140Y-156514000D01*
X38585860Y-156514000D01*
X38613928Y-156516764D01*
X38613928Y-156516764D01*
G37*
G36*
X39883928Y-156516764D02*
G01*
X39905009Y-156523160D01*
X39924445Y-156533548D01*
X39941476Y-156547524D01*
X39955452Y-156564555D01*
X39965840Y-156583991D01*
X39972236Y-156605072D01*
X39975000Y-156633140D01*
X39975000Y-158446860D01*
X39972236Y-158474928D01*
X39965840Y-158496009D01*
X39955452Y-158515445D01*
X39941476Y-158532476D01*
X39924445Y-158546452D01*
X39905009Y-158556840D01*
X39883928Y-158563236D01*
X39855860Y-158566000D01*
X39392140Y-158566000D01*
X39364072Y-158563236D01*
X39342991Y-158556840D01*
X39323555Y-158546452D01*
X39306524Y-158532476D01*
X39292548Y-158515445D01*
X39282160Y-158496009D01*
X39275764Y-158474928D01*
X39273000Y-158446860D01*
X39273000Y-156633140D01*
X39275764Y-156605072D01*
X39282160Y-156583991D01*
X39292548Y-156564555D01*
X39306524Y-156547524D01*
X39323555Y-156533548D01*
X39342991Y-156523160D01*
X39364072Y-156516764D01*
X39392140Y-156514000D01*
X39855860Y-156514000D01*
X39883928Y-156516764D01*
X39883928Y-156516764D01*
G37*
G36*
X36073928Y-156516764D02*
G01*
X36095009Y-156523160D01*
X36114445Y-156533548D01*
X36131476Y-156547524D01*
X36145452Y-156564555D01*
X36155840Y-156583991D01*
X36162236Y-156605072D01*
X36165000Y-156633140D01*
X36165000Y-158446860D01*
X36162236Y-158474928D01*
X36155840Y-158496009D01*
X36145452Y-158515445D01*
X36131476Y-158532476D01*
X36114445Y-158546452D01*
X36095009Y-158556840D01*
X36073928Y-158563236D01*
X36045860Y-158566000D01*
X35582140Y-158566000D01*
X35554072Y-158563236D01*
X35532991Y-158556840D01*
X35513555Y-158546452D01*
X35496524Y-158532476D01*
X35482548Y-158515445D01*
X35472160Y-158496009D01*
X35465764Y-158474928D01*
X35463000Y-158446860D01*
X35463000Y-156633140D01*
X35465764Y-156605072D01*
X35472160Y-156583991D01*
X35482548Y-156564555D01*
X35496524Y-156547524D01*
X35513555Y-156533548D01*
X35532991Y-156523160D01*
X35554072Y-156516764D01*
X35582140Y-156514000D01*
X36045860Y-156514000D01*
X36073928Y-156516764D01*
X36073928Y-156516764D01*
G37*
G36*
X34803928Y-156516764D02*
G01*
X34825009Y-156523160D01*
X34844445Y-156533548D01*
X34861476Y-156547524D01*
X34875452Y-156564555D01*
X34885840Y-156583991D01*
X34892236Y-156605072D01*
X34895000Y-156633140D01*
X34895000Y-158446860D01*
X34892236Y-158474928D01*
X34885840Y-158496009D01*
X34875452Y-158515445D01*
X34861476Y-158532476D01*
X34844445Y-158546452D01*
X34825009Y-158556840D01*
X34803928Y-158563236D01*
X34775860Y-158566000D01*
X34312140Y-158566000D01*
X34284072Y-158563236D01*
X34262991Y-158556840D01*
X34243555Y-158546452D01*
X34226524Y-158532476D01*
X34212548Y-158515445D01*
X34202160Y-158496009D01*
X34195764Y-158474928D01*
X34193000Y-158446860D01*
X34193000Y-156633140D01*
X34195764Y-156605072D01*
X34202160Y-156583991D01*
X34212548Y-156564555D01*
X34226524Y-156547524D01*
X34243555Y-156533548D01*
X34262991Y-156523160D01*
X34284072Y-156516764D01*
X34312140Y-156514000D01*
X34775860Y-156514000D01*
X34803928Y-156516764D01*
X34803928Y-156516764D01*
G37*
G36*
X33533928Y-156516764D02*
G01*
X33555009Y-156523160D01*
X33574445Y-156533548D01*
X33591476Y-156547524D01*
X33605452Y-156564555D01*
X33615840Y-156583991D01*
X33622236Y-156605072D01*
X33625000Y-156633140D01*
X33625000Y-158446860D01*
X33622236Y-158474928D01*
X33615840Y-158496009D01*
X33605452Y-158515445D01*
X33591476Y-158532476D01*
X33574445Y-158546452D01*
X33555009Y-158556840D01*
X33533928Y-158563236D01*
X33505860Y-158566000D01*
X33042140Y-158566000D01*
X33014072Y-158563236D01*
X32992991Y-158556840D01*
X32973555Y-158546452D01*
X32956524Y-158532476D01*
X32942548Y-158515445D01*
X32932160Y-158496009D01*
X32925764Y-158474928D01*
X32923000Y-158446860D01*
X32923000Y-156633140D01*
X32925764Y-156605072D01*
X32932160Y-156583991D01*
X32942548Y-156564555D01*
X32956524Y-156547524D01*
X32973555Y-156533548D01*
X32992991Y-156523160D01*
X33014072Y-156516764D01*
X33042140Y-156514000D01*
X33505860Y-156514000D01*
X33533928Y-156516764D01*
X33533928Y-156516764D01*
G37*
G36*
X32263928Y-156516764D02*
G01*
X32285009Y-156523160D01*
X32304445Y-156533548D01*
X32321476Y-156547524D01*
X32335452Y-156564555D01*
X32345840Y-156583991D01*
X32352236Y-156605072D01*
X32355000Y-156633140D01*
X32355000Y-158446860D01*
X32352236Y-158474928D01*
X32345840Y-158496009D01*
X32335452Y-158515445D01*
X32321476Y-158532476D01*
X32304445Y-158546452D01*
X32285009Y-158556840D01*
X32263928Y-158563236D01*
X32235860Y-158566000D01*
X31772140Y-158566000D01*
X31744072Y-158563236D01*
X31722991Y-158556840D01*
X31703555Y-158546452D01*
X31686524Y-158532476D01*
X31672548Y-158515445D01*
X31662160Y-158496009D01*
X31655764Y-158474928D01*
X31653000Y-158446860D01*
X31653000Y-156633140D01*
X31655764Y-156605072D01*
X31662160Y-156583991D01*
X31672548Y-156564555D01*
X31686524Y-156547524D01*
X31703555Y-156533548D01*
X31722991Y-156523160D01*
X31744072Y-156516764D01*
X31772140Y-156514000D01*
X32235860Y-156514000D01*
X32263928Y-156516764D01*
X32263928Y-156516764D01*
G37*
G36*
X30993928Y-156516764D02*
G01*
X31015009Y-156523160D01*
X31034445Y-156533548D01*
X31051476Y-156547524D01*
X31065452Y-156564555D01*
X31075840Y-156583991D01*
X31082236Y-156605072D01*
X31085000Y-156633140D01*
X31085000Y-158446860D01*
X31082236Y-158474928D01*
X31075840Y-158496009D01*
X31065452Y-158515445D01*
X31051476Y-158532476D01*
X31034445Y-158546452D01*
X31015009Y-158556840D01*
X30993928Y-158563236D01*
X30965860Y-158566000D01*
X30502140Y-158566000D01*
X30474072Y-158563236D01*
X30452991Y-158556840D01*
X30433555Y-158546452D01*
X30416524Y-158532476D01*
X30402548Y-158515445D01*
X30392160Y-158496009D01*
X30385764Y-158474928D01*
X30383000Y-158446860D01*
X30383000Y-156633140D01*
X30385764Y-156605072D01*
X30392160Y-156583991D01*
X30402548Y-156564555D01*
X30416524Y-156547524D01*
X30433555Y-156533548D01*
X30452991Y-156523160D01*
X30474072Y-156516764D01*
X30502140Y-156514000D01*
X30965860Y-156514000D01*
X30993928Y-156516764D01*
X30993928Y-156516764D01*
G37*
G36*
X28505274Y-155293465D02*
G01*
X28542967Y-155304899D01*
X28577703Y-155323466D01*
X28608148Y-155348452D01*
X28633134Y-155378897D01*
X28651701Y-155413633D01*
X28663135Y-155451326D01*
X28667600Y-155496661D01*
X28667600Y-156583339D01*
X28663135Y-156628674D01*
X28651701Y-156666367D01*
X28633134Y-156701103D01*
X28608148Y-156731548D01*
X28577703Y-156756534D01*
X28542967Y-156775101D01*
X28505274Y-156786535D01*
X28459939Y-156791000D01*
X27623261Y-156791000D01*
X27577926Y-156786535D01*
X27540233Y-156775101D01*
X27505497Y-156756534D01*
X27475052Y-156731548D01*
X27450066Y-156701103D01*
X27431499Y-156666367D01*
X27420065Y-156628674D01*
X27415600Y-156583339D01*
X27415600Y-155496661D01*
X27420065Y-155451326D01*
X27431499Y-155413633D01*
X27450066Y-155378897D01*
X27475052Y-155348452D01*
X27505497Y-155323466D01*
X27540233Y-155304899D01*
X27577926Y-155293465D01*
X27623261Y-155289000D01*
X28459939Y-155289000D01*
X28505274Y-155293465D01*
X28505274Y-155293465D01*
G37*
G36*
X26455274Y-155293465D02*
G01*
X26492967Y-155304899D01*
X26527703Y-155323466D01*
X26558148Y-155348452D01*
X26583134Y-155378897D01*
X26601701Y-155413633D01*
X26613135Y-155451326D01*
X26617600Y-155496661D01*
X26617600Y-156583339D01*
X26613135Y-156628674D01*
X26601701Y-156666367D01*
X26583134Y-156701103D01*
X26558148Y-156731548D01*
X26527703Y-156756534D01*
X26492967Y-156775101D01*
X26455274Y-156786535D01*
X26409939Y-156791000D01*
X25573261Y-156791000D01*
X25527926Y-156786535D01*
X25490233Y-156775101D01*
X25455497Y-156756534D01*
X25425052Y-156731548D01*
X25400066Y-156701103D01*
X25381499Y-156666367D01*
X25370065Y-156628674D01*
X25365600Y-156583339D01*
X25365600Y-155496661D01*
X25370065Y-155451326D01*
X25381499Y-155413633D01*
X25400066Y-155378897D01*
X25425052Y-155348452D01*
X25455497Y-155323466D01*
X25490233Y-155304899D01*
X25527926Y-155293465D01*
X25573261Y-155289000D01*
X26409939Y-155289000D01*
X26455274Y-155293465D01*
X26455274Y-155293465D01*
G37*
G36*
X31322674Y-154445465D02*
G01*
X31360367Y-154456899D01*
X31395103Y-154475466D01*
X31425548Y-154500452D01*
X31450534Y-154530897D01*
X31469101Y-154565633D01*
X31480535Y-154603326D01*
X31485000Y-154648661D01*
X31485000Y-155485339D01*
X31480535Y-155530674D01*
X31469101Y-155568367D01*
X31450534Y-155603103D01*
X31425548Y-155633548D01*
X31395103Y-155658534D01*
X31360367Y-155677101D01*
X31322674Y-155688535D01*
X31277339Y-155693000D01*
X30190661Y-155693000D01*
X30145326Y-155688535D01*
X30107633Y-155677101D01*
X30072897Y-155658534D01*
X30042452Y-155633548D01*
X30017466Y-155603103D01*
X29998899Y-155568367D01*
X29987465Y-155530674D01*
X29983000Y-155485339D01*
X29983000Y-154648661D01*
X29987465Y-154603326D01*
X29998899Y-154565633D01*
X30017466Y-154530897D01*
X30042452Y-154500452D01*
X30072897Y-154475466D01*
X30107633Y-154456899D01*
X30145326Y-154445465D01*
X30190661Y-154441000D01*
X31277339Y-154441000D01*
X31322674Y-154445465D01*
X31322674Y-154445465D01*
G37*
G36*
X28479874Y-152793465D02*
G01*
X28517567Y-152804899D01*
X28552303Y-152823466D01*
X28582748Y-152848452D01*
X28607734Y-152878897D01*
X28626301Y-152913633D01*
X28637735Y-152951326D01*
X28642200Y-152996661D01*
X28642200Y-154083339D01*
X28637735Y-154128674D01*
X28626301Y-154166367D01*
X28607734Y-154201103D01*
X28582748Y-154231548D01*
X28552303Y-154256534D01*
X28517567Y-154275101D01*
X28479874Y-154286535D01*
X28434539Y-154291000D01*
X27597861Y-154291000D01*
X27552526Y-154286535D01*
X27514833Y-154275101D01*
X27480097Y-154256534D01*
X27449652Y-154231548D01*
X27424666Y-154201103D01*
X27406099Y-154166367D01*
X27394665Y-154128674D01*
X27390200Y-154083339D01*
X27390200Y-152996661D01*
X27394665Y-152951326D01*
X27406099Y-152913633D01*
X27424666Y-152878897D01*
X27449652Y-152848452D01*
X27480097Y-152823466D01*
X27514833Y-152804899D01*
X27552526Y-152793465D01*
X27597861Y-152789000D01*
X28434539Y-152789000D01*
X28479874Y-152793465D01*
X28479874Y-152793465D01*
G37*
G36*
X26429874Y-152793465D02*
G01*
X26467567Y-152804899D01*
X26502303Y-152823466D01*
X26532748Y-152848452D01*
X26557734Y-152878897D01*
X26576301Y-152913633D01*
X26587735Y-152951326D01*
X26592200Y-152996661D01*
X26592200Y-154083339D01*
X26587735Y-154128674D01*
X26576301Y-154166367D01*
X26557734Y-154201103D01*
X26532748Y-154231548D01*
X26502303Y-154256534D01*
X26467567Y-154275101D01*
X26429874Y-154286535D01*
X26384539Y-154291000D01*
X25547861Y-154291000D01*
X25502526Y-154286535D01*
X25464833Y-154275101D01*
X25430097Y-154256534D01*
X25399652Y-154231548D01*
X25374666Y-154201103D01*
X25356099Y-154166367D01*
X25344665Y-154128674D01*
X25340200Y-154083339D01*
X25340200Y-152996661D01*
X25344665Y-152951326D01*
X25356099Y-152913633D01*
X25374666Y-152878897D01*
X25399652Y-152848452D01*
X25430097Y-152823466D01*
X25464833Y-152804899D01*
X25502526Y-152793465D01*
X25547861Y-152789000D01*
X26384539Y-152789000D01*
X26429874Y-152793465D01*
X26429874Y-152793465D01*
G37*
G36*
X17691000Y-153911000D02*
G01*
X16589000Y-153911000D01*
X16589000Y-152109000D01*
X17691000Y-152109000D01*
X17691000Y-153911000D01*
X17691000Y-153911000D01*
G37*
G36*
X13891000Y-153911000D02*
G01*
X12789000Y-153911000D01*
X12789000Y-152109000D01*
X13891000Y-152109000D01*
X13891000Y-153911000D01*
X13891000Y-153911000D01*
G37*
G36*
X31322674Y-152395465D02*
G01*
X31360367Y-152406899D01*
X31395103Y-152425466D01*
X31425548Y-152450452D01*
X31450534Y-152480897D01*
X31469101Y-152515633D01*
X31480535Y-152553326D01*
X31485000Y-152598661D01*
X31485000Y-153435339D01*
X31480535Y-153480674D01*
X31469101Y-153518367D01*
X31450534Y-153553103D01*
X31425548Y-153583548D01*
X31395103Y-153608534D01*
X31360367Y-153627101D01*
X31322674Y-153638535D01*
X31277339Y-153643000D01*
X30190661Y-153643000D01*
X30145326Y-153638535D01*
X30107633Y-153627101D01*
X30072897Y-153608534D01*
X30042452Y-153583548D01*
X30017466Y-153553103D01*
X29998899Y-153518367D01*
X29987465Y-153480674D01*
X29983000Y-153435339D01*
X29983000Y-152598661D01*
X29987465Y-152553326D01*
X29998899Y-152515633D01*
X30017466Y-152480897D01*
X30042452Y-152450452D01*
X30072897Y-152425466D01*
X30107633Y-152406899D01*
X30145326Y-152395465D01*
X30190661Y-152391000D01*
X31277339Y-152391000D01*
X31322674Y-152395465D01*
X31322674Y-152395465D01*
G37*
G36*
X35670443Y-148965519D02*
G01*
X35736627Y-148972037D01*
X35906466Y-149023557D01*
X36062991Y-149107222D01*
X36098729Y-149136552D01*
X36200186Y-149219814D01*
X36283448Y-149321271D01*
X36312778Y-149357009D01*
X36396443Y-149513534D01*
X36447963Y-149683373D01*
X36465359Y-149860000D01*
X36447963Y-150036627D01*
X36396443Y-150206466D01*
X36312778Y-150362991D01*
X36283448Y-150398729D01*
X36200186Y-150500186D01*
X36098729Y-150583448D01*
X36062991Y-150612778D01*
X35906466Y-150696443D01*
X35736627Y-150747963D01*
X35670443Y-150754481D01*
X35604260Y-150761000D01*
X35515740Y-150761000D01*
X35449557Y-150754481D01*
X35383373Y-150747963D01*
X35213534Y-150696443D01*
X35057009Y-150612778D01*
X35021271Y-150583448D01*
X34919814Y-150500186D01*
X34836552Y-150398729D01*
X34807222Y-150362991D01*
X34723557Y-150206466D01*
X34672037Y-150036627D01*
X34654641Y-149860000D01*
X34672037Y-149683373D01*
X34723557Y-149513534D01*
X34807222Y-149357009D01*
X34836552Y-149321271D01*
X34919814Y-149219814D01*
X35021271Y-149136552D01*
X35057009Y-149107222D01*
X35213534Y-149023557D01*
X35383373Y-148972037D01*
X35449557Y-148965519D01*
X35515740Y-148959000D01*
X35604260Y-148959000D01*
X35670443Y-148965519D01*
X35670443Y-148965519D01*
G37*
G36*
X38210443Y-148965519D02*
G01*
X38276627Y-148972037D01*
X38446466Y-149023557D01*
X38602991Y-149107222D01*
X38638729Y-149136552D01*
X38740186Y-149219814D01*
X38823448Y-149321271D01*
X38852778Y-149357009D01*
X38936443Y-149513534D01*
X38987963Y-149683373D01*
X39005359Y-149860000D01*
X38987963Y-150036627D01*
X38936443Y-150206466D01*
X38852778Y-150362991D01*
X38823448Y-150398729D01*
X38740186Y-150500186D01*
X38638729Y-150583448D01*
X38602991Y-150612778D01*
X38446466Y-150696443D01*
X38276627Y-150747963D01*
X38210443Y-150754481D01*
X38144260Y-150761000D01*
X38055740Y-150761000D01*
X37989557Y-150754481D01*
X37923373Y-150747963D01*
X37753534Y-150696443D01*
X37597009Y-150612778D01*
X37561271Y-150583448D01*
X37459814Y-150500186D01*
X37376552Y-150398729D01*
X37347222Y-150362991D01*
X37263557Y-150206466D01*
X37212037Y-150036627D01*
X37194641Y-149860000D01*
X37212037Y-149683373D01*
X37263557Y-149513534D01*
X37347222Y-149357009D01*
X37376552Y-149321271D01*
X37459814Y-149219814D01*
X37561271Y-149136552D01*
X37597009Y-149107222D01*
X37753534Y-149023557D01*
X37923373Y-148972037D01*
X37989557Y-148965519D01*
X38055740Y-148959000D01*
X38144260Y-148959000D01*
X38210443Y-148965519D01*
X38210443Y-148965519D01*
G37*
G36*
X40750443Y-148965519D02*
G01*
X40816627Y-148972037D01*
X40986466Y-149023557D01*
X41142991Y-149107222D01*
X41178729Y-149136552D01*
X41280186Y-149219814D01*
X41363448Y-149321271D01*
X41392778Y-149357009D01*
X41476443Y-149513534D01*
X41527963Y-149683373D01*
X41545359Y-149860000D01*
X41527963Y-150036627D01*
X41476443Y-150206466D01*
X41392778Y-150362991D01*
X41363448Y-150398729D01*
X41280186Y-150500186D01*
X41178729Y-150583448D01*
X41142991Y-150612778D01*
X40986466Y-150696443D01*
X40816627Y-150747963D01*
X40750443Y-150754481D01*
X40684260Y-150761000D01*
X40595740Y-150761000D01*
X40529557Y-150754481D01*
X40463373Y-150747963D01*
X40293534Y-150696443D01*
X40137009Y-150612778D01*
X40101271Y-150583448D01*
X39999814Y-150500186D01*
X39916552Y-150398729D01*
X39887222Y-150362991D01*
X39803557Y-150206466D01*
X39752037Y-150036627D01*
X39734641Y-149860000D01*
X39752037Y-149683373D01*
X39803557Y-149513534D01*
X39887222Y-149357009D01*
X39916552Y-149321271D01*
X39999814Y-149219814D01*
X40101271Y-149136552D01*
X40137009Y-149107222D01*
X40293534Y-149023557D01*
X40463373Y-148972037D01*
X40529557Y-148965519D01*
X40595740Y-148959000D01*
X40684260Y-148959000D01*
X40750443Y-148965519D01*
X40750443Y-148965519D01*
G37*
G36*
X44081000Y-150761000D02*
G01*
X42279000Y-150761000D01*
X42279000Y-148959000D01*
X44081000Y-148959000D01*
X44081000Y-150761000D01*
X44081000Y-150761000D01*
G37*
G36*
X48370443Y-148965519D02*
G01*
X48436627Y-148972037D01*
X48606466Y-149023557D01*
X48762991Y-149107222D01*
X48798729Y-149136552D01*
X48900186Y-149219814D01*
X48983448Y-149321271D01*
X49012778Y-149357009D01*
X49096443Y-149513534D01*
X49147963Y-149683373D01*
X49165359Y-149860000D01*
X49147963Y-150036627D01*
X49096443Y-150206466D01*
X49012778Y-150362991D01*
X48983448Y-150398729D01*
X48900186Y-150500186D01*
X48798729Y-150583448D01*
X48762991Y-150612778D01*
X48606466Y-150696443D01*
X48436627Y-150747963D01*
X48370443Y-150754481D01*
X48304260Y-150761000D01*
X48215740Y-150761000D01*
X48149557Y-150754481D01*
X48083373Y-150747963D01*
X47913534Y-150696443D01*
X47757009Y-150612778D01*
X47721271Y-150583448D01*
X47619814Y-150500186D01*
X47536552Y-150398729D01*
X47507222Y-150362991D01*
X47423557Y-150206466D01*
X47372037Y-150036627D01*
X47354641Y-149860000D01*
X47372037Y-149683373D01*
X47423557Y-149513534D01*
X47507222Y-149357009D01*
X47536552Y-149321271D01*
X47619814Y-149219814D01*
X47721271Y-149136552D01*
X47757009Y-149107222D01*
X47913534Y-149023557D01*
X48083373Y-148972037D01*
X48149557Y-148965519D01*
X48215740Y-148959000D01*
X48304260Y-148959000D01*
X48370443Y-148965519D01*
X48370443Y-148965519D01*
G37*
G36*
X50910443Y-148965519D02*
G01*
X50976627Y-148972037D01*
X51146466Y-149023557D01*
X51302991Y-149107222D01*
X51338729Y-149136552D01*
X51440186Y-149219814D01*
X51523448Y-149321271D01*
X51552778Y-149357009D01*
X51636443Y-149513534D01*
X51687963Y-149683373D01*
X51705359Y-149860000D01*
X51687963Y-150036627D01*
X51636443Y-150206466D01*
X51552778Y-150362991D01*
X51523448Y-150398729D01*
X51440186Y-150500186D01*
X51338729Y-150583448D01*
X51302991Y-150612778D01*
X51146466Y-150696443D01*
X50976627Y-150747963D01*
X50910443Y-150754481D01*
X50844260Y-150761000D01*
X50755740Y-150761000D01*
X50689557Y-150754481D01*
X50623373Y-150747963D01*
X50453534Y-150696443D01*
X50297009Y-150612778D01*
X50261271Y-150583448D01*
X50159814Y-150500186D01*
X50076552Y-150398729D01*
X50047222Y-150362991D01*
X49963557Y-150206466D01*
X49912037Y-150036627D01*
X49894641Y-149860000D01*
X49912037Y-149683373D01*
X49963557Y-149513534D01*
X50047222Y-149357009D01*
X50076552Y-149321271D01*
X50159814Y-149219814D01*
X50261271Y-149136552D01*
X50297009Y-149107222D01*
X50453534Y-149023557D01*
X50623373Y-148972037D01*
X50689557Y-148965519D01*
X50755740Y-148959000D01*
X50844260Y-148959000D01*
X50910443Y-148965519D01*
X50910443Y-148965519D01*
G37*
G36*
X53450443Y-148965519D02*
G01*
X53516627Y-148972037D01*
X53686466Y-149023557D01*
X53842991Y-149107222D01*
X53878729Y-149136552D01*
X53980186Y-149219814D01*
X54063448Y-149321271D01*
X54092778Y-149357009D01*
X54176443Y-149513534D01*
X54227963Y-149683373D01*
X54245359Y-149860000D01*
X54227963Y-150036627D01*
X54176443Y-150206466D01*
X54092778Y-150362991D01*
X54063448Y-150398729D01*
X53980186Y-150500186D01*
X53878729Y-150583448D01*
X53842991Y-150612778D01*
X53686466Y-150696443D01*
X53516627Y-150747963D01*
X53450443Y-150754481D01*
X53384260Y-150761000D01*
X53295740Y-150761000D01*
X53229557Y-150754481D01*
X53163373Y-150747963D01*
X52993534Y-150696443D01*
X52837009Y-150612778D01*
X52801271Y-150583448D01*
X52699814Y-150500186D01*
X52616552Y-150398729D01*
X52587222Y-150362991D01*
X52503557Y-150206466D01*
X52452037Y-150036627D01*
X52434641Y-149860000D01*
X52452037Y-149683373D01*
X52503557Y-149513534D01*
X52587222Y-149357009D01*
X52616552Y-149321271D01*
X52699814Y-149219814D01*
X52801271Y-149136552D01*
X52837009Y-149107222D01*
X52993534Y-149023557D01*
X53163373Y-148972037D01*
X53229557Y-148965519D01*
X53295740Y-148959000D01*
X53384260Y-148959000D01*
X53450443Y-148965519D01*
X53450443Y-148965519D01*
G37*
G36*
X55990443Y-148965519D02*
G01*
X56056627Y-148972037D01*
X56226466Y-149023557D01*
X56382991Y-149107222D01*
X56418729Y-149136552D01*
X56520186Y-149219814D01*
X56603448Y-149321271D01*
X56632778Y-149357009D01*
X56716443Y-149513534D01*
X56767963Y-149683373D01*
X56785359Y-149860000D01*
X56767963Y-150036627D01*
X56716443Y-150206466D01*
X56632778Y-150362991D01*
X56603448Y-150398729D01*
X56520186Y-150500186D01*
X56418729Y-150583448D01*
X56382991Y-150612778D01*
X56226466Y-150696443D01*
X56056627Y-150747963D01*
X55990443Y-150754481D01*
X55924260Y-150761000D01*
X55835740Y-150761000D01*
X55769557Y-150754481D01*
X55703373Y-150747963D01*
X55533534Y-150696443D01*
X55377009Y-150612778D01*
X55341271Y-150583448D01*
X55239814Y-150500186D01*
X55156552Y-150398729D01*
X55127222Y-150362991D01*
X55043557Y-150206466D01*
X54992037Y-150036627D01*
X54974641Y-149860000D01*
X54992037Y-149683373D01*
X55043557Y-149513534D01*
X55127222Y-149357009D01*
X55156552Y-149321271D01*
X55239814Y-149219814D01*
X55341271Y-149136552D01*
X55377009Y-149107222D01*
X55533534Y-149023557D01*
X55703373Y-148972037D01*
X55769557Y-148965519D01*
X55835740Y-148959000D01*
X55924260Y-148959000D01*
X55990443Y-148965519D01*
X55990443Y-148965519D01*
G37*
G36*
X58530443Y-148965519D02*
G01*
X58596627Y-148972037D01*
X58766466Y-149023557D01*
X58922991Y-149107222D01*
X58958729Y-149136552D01*
X59060186Y-149219814D01*
X59143448Y-149321271D01*
X59172778Y-149357009D01*
X59256443Y-149513534D01*
X59307963Y-149683373D01*
X59325359Y-149860000D01*
X59307963Y-150036627D01*
X59256443Y-150206466D01*
X59172778Y-150362991D01*
X59143448Y-150398729D01*
X59060186Y-150500186D01*
X58958729Y-150583448D01*
X58922991Y-150612778D01*
X58766466Y-150696443D01*
X58596627Y-150747963D01*
X58530443Y-150754481D01*
X58464260Y-150761000D01*
X58375740Y-150761000D01*
X58309557Y-150754481D01*
X58243373Y-150747963D01*
X58073534Y-150696443D01*
X57917009Y-150612778D01*
X57881271Y-150583448D01*
X57779814Y-150500186D01*
X57696552Y-150398729D01*
X57667222Y-150362991D01*
X57583557Y-150206466D01*
X57532037Y-150036627D01*
X57514641Y-149860000D01*
X57532037Y-149683373D01*
X57583557Y-149513534D01*
X57667222Y-149357009D01*
X57696552Y-149321271D01*
X57779814Y-149219814D01*
X57881271Y-149136552D01*
X57917009Y-149107222D01*
X58073534Y-149023557D01*
X58243373Y-148972037D01*
X58309557Y-148965519D01*
X58375740Y-148959000D01*
X58464260Y-148959000D01*
X58530443Y-148965519D01*
X58530443Y-148965519D01*
G37*
G36*
X61070443Y-148965519D02*
G01*
X61136627Y-148972037D01*
X61306466Y-149023557D01*
X61462991Y-149107222D01*
X61498729Y-149136552D01*
X61600186Y-149219814D01*
X61683448Y-149321271D01*
X61712778Y-149357009D01*
X61796443Y-149513534D01*
X61847963Y-149683373D01*
X61865359Y-149860000D01*
X61847963Y-150036627D01*
X61796443Y-150206466D01*
X61712778Y-150362991D01*
X61683448Y-150398729D01*
X61600186Y-150500186D01*
X61498729Y-150583448D01*
X61462991Y-150612778D01*
X61306466Y-150696443D01*
X61136627Y-150747963D01*
X61070443Y-150754481D01*
X61004260Y-150761000D01*
X60915740Y-150761000D01*
X60849557Y-150754481D01*
X60783373Y-150747963D01*
X60613534Y-150696443D01*
X60457009Y-150612778D01*
X60421271Y-150583448D01*
X60319814Y-150500186D01*
X60236552Y-150398729D01*
X60207222Y-150362991D01*
X60123557Y-150206466D01*
X60072037Y-150036627D01*
X60054641Y-149860000D01*
X60072037Y-149683373D01*
X60123557Y-149513534D01*
X60207222Y-149357009D01*
X60236552Y-149321271D01*
X60319814Y-149219814D01*
X60421271Y-149136552D01*
X60457009Y-149107222D01*
X60613534Y-149023557D01*
X60783373Y-148972037D01*
X60849557Y-148965519D01*
X60915740Y-148959000D01*
X61004260Y-148959000D01*
X61070443Y-148965519D01*
X61070443Y-148965519D01*
G37*
G36*
X63610443Y-148965519D02*
G01*
X63676627Y-148972037D01*
X63846466Y-149023557D01*
X64002991Y-149107222D01*
X64038729Y-149136552D01*
X64140186Y-149219814D01*
X64223448Y-149321271D01*
X64252778Y-149357009D01*
X64336443Y-149513534D01*
X64387963Y-149683373D01*
X64405359Y-149860000D01*
X64387963Y-150036627D01*
X64336443Y-150206466D01*
X64252778Y-150362991D01*
X64223448Y-150398729D01*
X64140186Y-150500186D01*
X64038729Y-150583448D01*
X64002991Y-150612778D01*
X63846466Y-150696443D01*
X63676627Y-150747963D01*
X63610443Y-150754481D01*
X63544260Y-150761000D01*
X63455740Y-150761000D01*
X63389557Y-150754481D01*
X63323373Y-150747963D01*
X63153534Y-150696443D01*
X62997009Y-150612778D01*
X62961271Y-150583448D01*
X62859814Y-150500186D01*
X62776552Y-150398729D01*
X62747222Y-150362991D01*
X62663557Y-150206466D01*
X62612037Y-150036627D01*
X62594641Y-149860000D01*
X62612037Y-149683373D01*
X62663557Y-149513534D01*
X62747222Y-149357009D01*
X62776552Y-149321271D01*
X62859814Y-149219814D01*
X62961271Y-149136552D01*
X62997009Y-149107222D01*
X63153534Y-149023557D01*
X63323373Y-148972037D01*
X63389557Y-148965519D01*
X63455740Y-148959000D01*
X63544260Y-148959000D01*
X63610443Y-148965519D01*
X63610443Y-148965519D01*
G37*
G36*
X66941000Y-150761000D02*
G01*
X65139000Y-150761000D01*
X65139000Y-148959000D01*
X66941000Y-148959000D01*
X66941000Y-150761000D01*
X66941000Y-150761000D01*
G37*
G36*
X33130443Y-148965519D02*
G01*
X33196627Y-148972037D01*
X33366466Y-149023557D01*
X33522991Y-149107222D01*
X33558729Y-149136552D01*
X33660186Y-149219814D01*
X33743448Y-149321271D01*
X33772778Y-149357009D01*
X33856443Y-149513534D01*
X33907963Y-149683373D01*
X33925359Y-149860000D01*
X33907963Y-150036627D01*
X33856443Y-150206466D01*
X33772778Y-150362991D01*
X33743448Y-150398729D01*
X33660186Y-150500186D01*
X33558729Y-150583448D01*
X33522991Y-150612778D01*
X33366466Y-150696443D01*
X33196627Y-150747963D01*
X33130443Y-150754481D01*
X33064260Y-150761000D01*
X32975740Y-150761000D01*
X32909557Y-150754481D01*
X32843373Y-150747963D01*
X32673534Y-150696443D01*
X32517009Y-150612778D01*
X32481271Y-150583448D01*
X32379814Y-150500186D01*
X32296552Y-150398729D01*
X32267222Y-150362991D01*
X32183557Y-150206466D01*
X32132037Y-150036627D01*
X32114641Y-149860000D01*
X32132037Y-149683373D01*
X32183557Y-149513534D01*
X32267222Y-149357009D01*
X32296552Y-149321271D01*
X32379814Y-149219814D01*
X32481271Y-149136552D01*
X32517009Y-149107222D01*
X32673534Y-149023557D01*
X32843373Y-148972037D01*
X32909557Y-148965519D01*
X32975740Y-148959000D01*
X33064260Y-148959000D01*
X33130443Y-148965519D01*
X33130443Y-148965519D01*
G37*
G36*
X30590443Y-148965519D02*
G01*
X30656627Y-148972037D01*
X30826466Y-149023557D01*
X30982991Y-149107222D01*
X31018729Y-149136552D01*
X31120186Y-149219814D01*
X31203448Y-149321271D01*
X31232778Y-149357009D01*
X31316443Y-149513534D01*
X31367963Y-149683373D01*
X31385359Y-149860000D01*
X31367963Y-150036627D01*
X31316443Y-150206466D01*
X31232778Y-150362991D01*
X31203448Y-150398729D01*
X31120186Y-150500186D01*
X31018729Y-150583448D01*
X30982991Y-150612778D01*
X30826466Y-150696443D01*
X30656627Y-150747963D01*
X30590443Y-150754481D01*
X30524260Y-150761000D01*
X30435740Y-150761000D01*
X30369557Y-150754481D01*
X30303373Y-150747963D01*
X30133534Y-150696443D01*
X29977009Y-150612778D01*
X29941271Y-150583448D01*
X29839814Y-150500186D01*
X29756552Y-150398729D01*
X29727222Y-150362991D01*
X29643557Y-150206466D01*
X29592037Y-150036627D01*
X29574641Y-149860000D01*
X29592037Y-149683373D01*
X29643557Y-149513534D01*
X29727222Y-149357009D01*
X29756552Y-149321271D01*
X29839814Y-149219814D01*
X29941271Y-149136552D01*
X29977009Y-149107222D01*
X30133534Y-149023557D01*
X30303373Y-148972037D01*
X30369557Y-148965519D01*
X30435740Y-148959000D01*
X30524260Y-148959000D01*
X30590443Y-148965519D01*
X30590443Y-148965519D01*
G37*
G36*
X28050443Y-148965519D02*
G01*
X28116627Y-148972037D01*
X28286466Y-149023557D01*
X28442991Y-149107222D01*
X28478729Y-149136552D01*
X28580186Y-149219814D01*
X28663448Y-149321271D01*
X28692778Y-149357009D01*
X28776443Y-149513534D01*
X28827963Y-149683373D01*
X28845359Y-149860000D01*
X28827963Y-150036627D01*
X28776443Y-150206466D01*
X28692778Y-150362991D01*
X28663448Y-150398729D01*
X28580186Y-150500186D01*
X28478729Y-150583448D01*
X28442991Y-150612778D01*
X28286466Y-150696443D01*
X28116627Y-150747963D01*
X28050443Y-150754481D01*
X27984260Y-150761000D01*
X27895740Y-150761000D01*
X27829557Y-150754481D01*
X27763373Y-150747963D01*
X27593534Y-150696443D01*
X27437009Y-150612778D01*
X27401271Y-150583448D01*
X27299814Y-150500186D01*
X27216552Y-150398729D01*
X27187222Y-150362991D01*
X27103557Y-150206466D01*
X27052037Y-150036627D01*
X27034641Y-149860000D01*
X27052037Y-149683373D01*
X27103557Y-149513534D01*
X27187222Y-149357009D01*
X27216552Y-149321271D01*
X27299814Y-149219814D01*
X27401271Y-149136552D01*
X27437009Y-149107222D01*
X27593534Y-149023557D01*
X27763373Y-148972037D01*
X27829557Y-148965519D01*
X27895740Y-148959000D01*
X27984260Y-148959000D01*
X28050443Y-148965519D01*
X28050443Y-148965519D01*
G37*
G36*
X25510443Y-148965519D02*
G01*
X25576627Y-148972037D01*
X25746466Y-149023557D01*
X25902991Y-149107222D01*
X25938729Y-149136552D01*
X26040186Y-149219814D01*
X26123448Y-149321271D01*
X26152778Y-149357009D01*
X26236443Y-149513534D01*
X26287963Y-149683373D01*
X26305359Y-149860000D01*
X26287963Y-150036627D01*
X26236443Y-150206466D01*
X26152778Y-150362991D01*
X26123448Y-150398729D01*
X26040186Y-150500186D01*
X25938729Y-150583448D01*
X25902991Y-150612778D01*
X25746466Y-150696443D01*
X25576627Y-150747963D01*
X25510443Y-150754481D01*
X25444260Y-150761000D01*
X25355740Y-150761000D01*
X25289557Y-150754481D01*
X25223373Y-150747963D01*
X25053534Y-150696443D01*
X24897009Y-150612778D01*
X24861271Y-150583448D01*
X24759814Y-150500186D01*
X24676552Y-150398729D01*
X24647222Y-150362991D01*
X24563557Y-150206466D01*
X24512037Y-150036627D01*
X24494641Y-149860000D01*
X24512037Y-149683373D01*
X24563557Y-149513534D01*
X24647222Y-149357009D01*
X24676552Y-149321271D01*
X24759814Y-149219814D01*
X24861271Y-149136552D01*
X24897009Y-149107222D01*
X25053534Y-149023557D01*
X25223373Y-148972037D01*
X25289557Y-148965519D01*
X25355740Y-148959000D01*
X25444260Y-148959000D01*
X25510443Y-148965519D01*
X25510443Y-148965519D01*
G37*
G36*
X22970443Y-148965519D02*
G01*
X23036627Y-148972037D01*
X23206466Y-149023557D01*
X23362991Y-149107222D01*
X23398729Y-149136552D01*
X23500186Y-149219814D01*
X23583448Y-149321271D01*
X23612778Y-149357009D01*
X23696443Y-149513534D01*
X23747963Y-149683373D01*
X23765359Y-149860000D01*
X23747963Y-150036627D01*
X23696443Y-150206466D01*
X23612778Y-150362991D01*
X23583448Y-150398729D01*
X23500186Y-150500186D01*
X23398729Y-150583448D01*
X23362991Y-150612778D01*
X23206466Y-150696443D01*
X23036627Y-150747963D01*
X22970443Y-150754481D01*
X22904260Y-150761000D01*
X22815740Y-150761000D01*
X22749557Y-150754481D01*
X22683373Y-150747963D01*
X22513534Y-150696443D01*
X22357009Y-150612778D01*
X22321271Y-150583448D01*
X22219814Y-150500186D01*
X22136552Y-150398729D01*
X22107222Y-150362991D01*
X22023557Y-150206466D01*
X21972037Y-150036627D01*
X21954641Y-149860000D01*
X21972037Y-149683373D01*
X22023557Y-149513534D01*
X22107222Y-149357009D01*
X22136552Y-149321271D01*
X22219814Y-149219814D01*
X22321271Y-149136552D01*
X22357009Y-149107222D01*
X22513534Y-149023557D01*
X22683373Y-148972037D01*
X22749557Y-148965519D01*
X22815740Y-148959000D01*
X22904260Y-148959000D01*
X22970443Y-148965519D01*
X22970443Y-148965519D01*
G37*
G36*
X20430443Y-148965519D02*
G01*
X20496627Y-148972037D01*
X20666466Y-149023557D01*
X20822991Y-149107222D01*
X20858729Y-149136552D01*
X20960186Y-149219814D01*
X21043448Y-149321271D01*
X21072778Y-149357009D01*
X21156443Y-149513534D01*
X21207963Y-149683373D01*
X21225359Y-149860000D01*
X21207963Y-150036627D01*
X21156443Y-150206466D01*
X21072778Y-150362991D01*
X21043448Y-150398729D01*
X20960186Y-150500186D01*
X20858729Y-150583448D01*
X20822991Y-150612778D01*
X20666466Y-150696443D01*
X20496627Y-150747963D01*
X20430443Y-150754481D01*
X20364260Y-150761000D01*
X20275740Y-150761000D01*
X20209557Y-150754481D01*
X20143373Y-150747963D01*
X19973534Y-150696443D01*
X19817009Y-150612778D01*
X19781271Y-150583448D01*
X19679814Y-150500186D01*
X19596552Y-150398729D01*
X19567222Y-150362991D01*
X19483557Y-150206466D01*
X19432037Y-150036627D01*
X19414641Y-149860000D01*
X19432037Y-149683373D01*
X19483557Y-149513534D01*
X19567222Y-149357009D01*
X19596552Y-149321271D01*
X19679814Y-149219814D01*
X19781271Y-149136552D01*
X19817009Y-149107222D01*
X19973534Y-149023557D01*
X20143373Y-148972037D01*
X20209557Y-148965519D01*
X20275740Y-148959000D01*
X20364260Y-148959000D01*
X20430443Y-148965519D01*
X20430443Y-148965519D01*
G37*
G36*
X17691000Y-147611000D02*
G01*
X16589000Y-147611000D01*
X16589000Y-145809000D01*
X17691000Y-145809000D01*
X17691000Y-147611000D01*
X17691000Y-147611000D01*
G37*
G36*
X13891000Y-147611000D02*
G01*
X12789000Y-147611000D01*
X12789000Y-145809000D01*
X13891000Y-145809000D01*
X13891000Y-147611000D01*
X13891000Y-147611000D01*
G37*
M02*
