%TF.GenerationSoftware,KiCad,Pcbnew,(5.1.2-1)-1*%
%TF.CreationDate,2020-01-20T17:34:23-08:00*%
%TF.ProjectId,Uno rev1.1,556e6f20-7265-4763-912e-312e6b696361,rev?*%
%TF.SameCoordinates,Original*%
%TF.FileFunction,Legend,Bot*%
%TF.FilePolarity,Positive*%
%FSLAX46Y46*%
G04 Gerber Fmt 4.6, Leading zero omitted, Abs format (unit mm)*
G04 Created by KiCad (PCBNEW (5.1.2-1)-1) date 2020-01-20 17:34:23*
%MOMM*%
%LPD*%
G04 APERTURE LIST*
%ADD10C,0.150000*%
%ADD11C,0.120000*%
G04 APERTURE END LIST*
D10*
X68389523Y-160742380D02*
X67913333Y-160742380D01*
X67865714Y-161218571D01*
X67913333Y-161170952D01*
X68008571Y-161123333D01*
X68246666Y-161123333D01*
X68341904Y-161170952D01*
X68389523Y-161218571D01*
X68437142Y-161313809D01*
X68437142Y-161551904D01*
X68389523Y-161647142D01*
X68341904Y-161694761D01*
X68246666Y-161742380D01*
X68008571Y-161742380D01*
X67913333Y-161694761D01*
X67865714Y-161647142D01*
X68722857Y-160742380D02*
X69056190Y-161742380D01*
X69389523Y-160742380D01*
D11*
%TO.C,R6*%
X20540000Y-167036252D02*
X20540000Y-166513748D01*
X21960000Y-167036252D02*
X21960000Y-166513748D01*
%TO.C,R5*%
X21935000Y-161763748D02*
X21935000Y-162286252D01*
X20515000Y-161763748D02*
X20515000Y-162286252D01*
%TO.C,C14*%
X15990000Y-172786252D02*
X15990000Y-172263748D01*
X17410000Y-172786252D02*
X17410000Y-172263748D01*
%TO.C,C3*%
X35090000Y-168261252D02*
X35090000Y-167738748D01*
X36510000Y-168261252D02*
X36510000Y-167738748D01*
%TO.C,R2*%
X25144252Y-160326000D02*
X24621748Y-160326000D01*
X25144252Y-161746000D02*
X24621748Y-161746000D01*
%TO.C,R3*%
X25144252Y-157830000D02*
X24621748Y-157830000D01*
X25144252Y-159250000D02*
X24621748Y-159250000D01*
%TO.C,R4*%
X63710000Y-172451252D02*
X63710000Y-171928748D01*
X62290000Y-172451252D02*
X62290000Y-171928748D01*
%TO.C,R8*%
X24621748Y-156750000D02*
X25144252Y-156750000D01*
X24621748Y-155330000D02*
X25144252Y-155330000D01*
%TO.C,R7*%
X25236252Y-152830000D02*
X24713748Y-152830000D01*
X25236252Y-154250000D02*
X24713748Y-154250000D01*
%TO.C,C1*%
X27126000Y-173244252D02*
X27126000Y-172721748D01*
X25706000Y-173244252D02*
X25706000Y-172721748D01*
%TO.C,C2*%
X29725252Y-172273000D02*
X29202748Y-172273000D01*
X29725252Y-173693000D02*
X29202748Y-173693000D01*
%TO.C,C4*%
X37390000Y-172077748D02*
X37390000Y-172600252D01*
X38810000Y-172077748D02*
X38810000Y-172600252D01*
%TO.C,C5*%
X53821529Y-165876563D02*
X54190995Y-165507097D01*
X52817437Y-164872471D02*
X53186903Y-164503005D01*
%TO.C,C6*%
X38810000Y-168291252D02*
X38810000Y-167768748D01*
X37390000Y-168291252D02*
X37390000Y-167768748D01*
%TO.C,C8*%
X33834000Y-153907748D02*
X33834000Y-154430252D01*
X35254000Y-153907748D02*
X35254000Y-154430252D01*
%TO.C,C9*%
X60250000Y-173864748D02*
X60250000Y-174387252D01*
X61670000Y-173864748D02*
X61670000Y-174387252D01*
%TO.C,C10*%
X43710000Y-155954252D02*
X43710000Y-155431748D01*
X42290000Y-155954252D02*
X42290000Y-155431748D01*
%TO.C,C11*%
X60250000Y-169909748D02*
X60250000Y-170432252D01*
X61670000Y-169909748D02*
X61670000Y-170432252D01*
%TO.C,C12*%
X43710000Y-164354252D02*
X43710000Y-163831748D01*
X42290000Y-164354252D02*
X42290000Y-163831748D01*
%TD*%
M02*
