M48
; DRILL file {KiCad (5.1.2-1)-1} date Wednesday, February 12, 2020 at 02:58:38 AM
; FORMAT={-:-/ absolute / metric / decimal}
; #@! TF.CreationDate,2020-02-12T02:58:38-08:00
; #@! TF.GenerationSoftware,Kicad,Pcbnew,(5.1.2-1)-1
FMAT,2
METRIC
T1C0.300
T2C0.400
T3C0.650
T4C1.000
T5C1.016
T6C2.200
%
G90
G05
T1
X19.4Y-28.229
X19.4Y-29.279
X19.736Y-22.669
X21.0Y-34.4
X22.034Y-43.688
X22.514Y-45.021
X24.0Y-26.0
X24.125Y-27.925
X25.475Y-30.0
X26.6Y-25.925
X26.6Y-42.2
X26.67Y-30.035
X26.67Y-46.228
X26.675Y-27.975
X28.956Y-46.355
X29.2Y-27.95
X30.438Y-30.613
X31.75Y-27.975
X35.814Y-40.132
X37.846Y-37.592
X37.846Y-51.308
X39.688Y-42.926
X41.656Y-42.862
X42.672Y-46.101
X43.33Y-43.457
X43.434Y-37.592
X44.284Y-27.516
X44.45Y-50.038
X44.731Y-40.931
X44.87Y-26.23
X46.038Y-51.498
X46.228Y-49.466
X46.736Y-41.148
X46.863Y-56.261
X46.863Y-58.229
X47.498Y-43.307
X47.498Y-49.593
X48.201Y-39.937
X49.784Y-55.944
X49.784Y-57.975
X51.8Y-37.3
X52.4Y-37.5
X53.0Y-37.7
X53.722Y-37.422
X55.88Y-42.926
X56.0Y-48.0
X56.07Y-40.894
X56.1Y-38.9
X56.325Y-43.434
X56.388Y-53.276
X56.4Y-39.4
X56.578Y-41.402
X57.0Y-36.6
X59.69Y-38.672
X60.198Y-38.036
X60.706Y-35.75
X61.214Y-35.369
X61.722Y-35.75
X62.23Y-35.369
X62.735Y-35.75
X63.246Y-35.369
X63.465Y-49.012
X63.563Y-50.101
X63.563Y-50.8
X63.563Y-57.785
X63.622Y-47.353
X63.691Y-55.816
X63.725Y-35.75
X63.91Y-47.907
X64.003Y-48.616
X64.198Y-35.369
X64.706Y-35.75
X65.215Y-35.242
X65.722Y-35.687
X66.23Y-35.242
X66.548Y-44.45
X66.733Y-35.623
X67.2Y-41.3
X67.24Y-35.2
X67.726Y-35.56
X68.135Y-41.402
X68.22Y-35.179
X69.278Y-48.768
X69.278Y-55.753
X69.313Y-48.006
X69.342Y-56.388
X69.792Y-29.4
X69.792Y-46.863
X70.271Y-46.164
X70.985Y-32.795
X71.401Y-44.409
X71.501Y-25.717
X71.501Y-33.274
X71.628Y-43.878
X72.326Y-52.006
X74.358Y-44.895
X74.549Y-40.957
X74.803Y-58.166
X74.93Y-55.88
X76.0Y-45.0
X77.597Y-58.039
X77.66Y-55.88
T2
X21.9Y-25.8
X24.4Y-46.4
X24.641Y-38.641
X26.6Y-40.2
X29.0Y-43.4
X30.672Y-44.928
X36.512Y-52.578
X39.624Y-45.293
X40.5Y-48.0
X46.799Y-44.64
X58.039Y-31.178
X58.039Y-34.798
X62.865Y-30.29
X64.516Y-44.45
X64.897Y-46.736
X66.4Y-47.6
X66.421Y-26.733
X66.557Y-42.98
X66.96Y-55.02
X69.278Y-57.34
X88.35Y-17.0
X88.833Y-15.833
X88.833Y-18.167
X90.0Y-15.35
X90.0Y-18.65
X91.167Y-15.833
X91.167Y-18.167
X91.65Y-17.0
X88.35Y-72.0
X88.833Y-70.833
X88.833Y-73.167
X90.0Y-70.35
X90.0Y-73.65
X91.167Y-70.833
X91.167Y-73.167
X91.65Y-72.0
X15.35Y-72.0
X15.833Y-70.833
X15.833Y-73.167
X17.0Y-70.35
X17.0Y-73.65
X18.167Y-70.833
X18.167Y-73.167
X18.65Y-72.0
T3
X18.95Y-25.56
X18.95Y-31.33
T4
X71.12Y-68.58
X71.12Y-71.12
X73.66Y-68.58
X73.66Y-71.12
X76.2Y-68.58
X76.2Y-71.12
X16.6Y-50.96
X16.6Y-53.5
X16.6Y-56.04
X19.14Y-50.96
X19.14Y-53.5
X19.14Y-56.04
X25.4Y-17.78
X25.4Y-20.32
X27.94Y-17.78
X27.94Y-20.32
X30.48Y-17.78
X30.48Y-20.32
X33.02Y-17.78
X33.02Y-20.32
X35.56Y-17.78
X35.56Y-20.32
X38.1Y-17.78
X38.1Y-20.32
X40.64Y-17.78
X40.64Y-20.32
X43.18Y-17.78
X43.18Y-20.32
X45.72Y-17.78
X45.72Y-20.32
X86.36Y-22.86
X86.36Y-25.4
X86.36Y-27.94
X86.36Y-30.48
X86.36Y-33.02
X86.36Y-35.56
X86.36Y-38.1
X86.36Y-40.64
X86.36Y-43.18
X86.36Y-45.72
X86.36Y-48.26
X86.36Y-50.8
X86.36Y-53.34
X86.36Y-55.88
X86.36Y-58.42
X86.36Y-60.96
X86.36Y-63.5
X86.36Y-66.04
X88.9Y-22.86
X88.9Y-25.4
X88.9Y-27.94
X88.9Y-30.48
X88.9Y-33.02
X88.9Y-35.56
X88.9Y-38.1
X88.9Y-40.64
X88.9Y-43.18
X88.9Y-45.72
X88.9Y-48.26
X88.9Y-50.8
X88.9Y-53.34
X88.9Y-55.88
X88.9Y-58.42
X88.9Y-60.96
X88.9Y-63.5
X88.9Y-66.04
X35.56Y-68.58
X35.56Y-71.12
X38.1Y-68.58
X38.1Y-71.12
X40.64Y-68.58
X40.64Y-71.12
X43.18Y-68.58
X43.18Y-71.12
X45.72Y-68.58
X45.72Y-71.12
X48.26Y-68.58
X48.26Y-71.12
X50.8Y-68.58
X50.8Y-71.12
X53.34Y-68.58
X53.34Y-71.12
X55.88Y-68.58
X55.88Y-71.12
X58.42Y-68.58
X58.42Y-71.12
X60.96Y-68.58
X60.96Y-71.12
X55.88Y-17.78
X55.88Y-20.32
X58.42Y-17.78
X58.42Y-20.32
X60.96Y-17.78
X60.96Y-20.32
X63.5Y-17.78
X63.5Y-20.32
X66.04Y-17.78
X66.04Y-20.32
X68.58Y-17.78
X68.58Y-20.32
X71.12Y-17.78
X71.12Y-20.32
X73.66Y-17.78
X73.66Y-20.32
X76.2Y-17.78
X76.2Y-20.32
T6
X90.0Y-17.0
X90.0Y-72.0
X17.0Y-72.0
T5
G00X15.519Y-24.13
M15
G01X14.961Y-24.13
M16
G05
G00X15.519Y-32.766
M15
G01X14.961Y-32.766
M16
G05
G00X19.939Y-24.13
M15
G01X19.177Y-24.13
M16
G05
G00X19.939Y-32.766
M15
G01X19.177Y-32.766
M16
G05
T0
M30
