%FSLAX45Y45*%
G04 Gerber Fmt 4.5, Leading zero omitted, Abs format (unit mm)*
G04 Created by KiCad (PCBNEW (5.1.2-1)-1) date 2019-12-25 23:24:40*
%MOMM*%
%LPD*%
G04 APERTURE LIST*
%ADD10C,0.050000*%
%ADD11C,0.200000*%
%ADD12C,0.300000*%
G04 APERTURE END LIST*
D10*
X9245600Y-1270000D02*
G75*
G02X9448800Y-1473200I0J-203200D01*
G01*
X9448800Y-7442200D02*
G75*
G02X9245600Y-7645400I-203200J0D01*
G01*
X1473200Y-7645400D02*
G75*
G02X1270000Y-7442200I0J203200D01*
G01*
X1270000Y-1473200D02*
G75*
G02X1473200Y-1270000I203200J0D01*
G01*
X9245600Y-7645400D02*
X1473200Y-7645400D01*
X9448800Y-1473200D02*
X9448800Y-7442200D01*
X1270000Y-7442200D02*
X1270000Y-1473200D01*
X1473200Y-1270000D02*
X9245600Y-1270000D01*
D11*
X1958575Y-2251950D02*
X1988575Y-2281950D01*
X1988575Y-2251950D02*
X1958575Y-2281950D01*
X2188450Y-4353800D02*
X2218450Y-4383800D01*
X2218450Y-4353800D02*
X2188450Y-4383800D01*
X2236350Y-4487150D02*
X2266350Y-4517150D01*
X2266350Y-4487150D02*
X2236350Y-4517150D01*
X2398000Y-2988550D02*
X2428000Y-3018550D01*
X2428000Y-2988550D02*
X2398000Y-3018550D01*
X2423400Y-4607800D02*
X2453400Y-4637800D01*
X2453400Y-4607800D02*
X2423400Y-4637800D01*
X2499600Y-4201400D02*
X2529600Y-4231400D01*
X2529600Y-4201400D02*
X2499600Y-4231400D01*
X2652000Y-2988550D02*
X2682000Y-3018550D01*
X2682000Y-2988550D02*
X2652000Y-3018550D01*
X2652000Y-4607800D02*
X2682000Y-4637800D01*
X2682000Y-4607800D02*
X2652000Y-4637800D01*
X2658350Y-4271250D02*
X2688350Y-4301250D01*
X2688350Y-4271250D02*
X2658350Y-4301250D01*
X2804400Y-4201400D02*
X2834400Y-4231400D01*
X2834400Y-4201400D02*
X2804400Y-4231400D01*
X2880600Y-4620500D02*
X2910600Y-4650500D01*
X2910600Y-4620500D02*
X2880600Y-4650500D01*
X3566401Y-3998200D02*
X3596401Y-4028200D01*
X3596401Y-3998200D02*
X3566401Y-4028200D01*
X3769600Y-3744200D02*
X3799600Y-3774200D01*
X3799600Y-3744200D02*
X3769600Y-3774200D01*
X3769600Y-5115800D02*
X3799600Y-5145800D01*
X3799600Y-5115800D02*
X3769600Y-5145800D01*
X3953750Y-4277600D02*
X3983750Y-4307600D01*
X3983750Y-4277600D02*
X3953750Y-4307600D01*
X4150600Y-4271250D02*
X4180600Y-4301250D01*
X4180600Y-4271250D02*
X4150600Y-4301250D01*
X4239500Y-2194800D02*
X4269500Y-2224800D01*
X4269500Y-2194800D02*
X4239500Y-2224800D01*
X4252200Y-2448800D02*
X4282200Y-2478800D01*
X4282200Y-2448800D02*
X4252200Y-2478800D01*
X4252200Y-4595100D02*
X4282200Y-4625100D01*
X4282200Y-4595100D02*
X4252200Y-4625100D01*
X4255100Y-2550400D02*
X4285100Y-2580400D01*
X4285100Y-2550400D02*
X4255100Y-2580400D01*
X4318003Y-4330703D02*
X4348003Y-4360703D01*
X4348003Y-4330703D02*
X4318003Y-4360703D01*
X4328400Y-3744200D02*
X4358400Y-3774200D01*
X4358400Y-3744200D02*
X4328400Y-3774200D01*
X4430000Y-4988800D02*
X4460000Y-5018800D01*
X4460000Y-4988800D02*
X4430000Y-5018800D01*
X4506200Y-4029950D02*
X4536200Y-4059950D01*
X4536200Y-4029950D02*
X4506200Y-4059950D01*
X4557000Y-2556750D02*
X4587000Y-2586750D01*
X4587000Y-2556750D02*
X4557000Y-2586750D01*
X4588750Y-5134850D02*
X4618750Y-5164850D01*
X4618750Y-5134850D02*
X4588750Y-5164850D01*
X4607800Y-4931650D02*
X4637800Y-4961650D01*
X4637800Y-4931650D02*
X4607800Y-4961650D01*
X4658600Y-4099800D02*
X4688600Y-4129800D01*
X4688600Y-4099800D02*
X4658600Y-4129800D01*
X4671300Y-5611100D02*
X4701300Y-5641100D01*
X4701300Y-5611100D02*
X4671300Y-5641100D01*
X4671300Y-5807950D02*
X4701300Y-5837950D01*
X4701300Y-5807950D02*
X4671300Y-5837950D01*
X4696700Y-2455150D02*
X4726700Y-2485150D01*
X4726700Y-2455150D02*
X4696700Y-2485150D01*
X4734800Y-4315700D02*
X4764800Y-4345700D01*
X4764800Y-4315700D02*
X4734800Y-4345700D01*
X4734800Y-4944350D02*
X4764800Y-4974350D01*
X4764800Y-4944350D02*
X4734800Y-4974350D01*
X4811000Y-3972800D02*
X4841000Y-4002800D01*
X4841000Y-3972800D02*
X4811000Y-4002800D01*
X4963400Y-5579350D02*
X4993400Y-5609350D01*
X4993400Y-5579350D02*
X4963400Y-5609350D01*
X4963400Y-5782550D02*
X4993400Y-5812550D01*
X4993400Y-5782550D02*
X4963400Y-5812550D01*
X5573000Y-4277600D02*
X5603000Y-4307600D01*
X5603000Y-4277600D02*
X5573000Y-4307600D01*
X5592050Y-3877550D02*
X5622050Y-3907550D01*
X5622050Y-3877550D02*
X5592050Y-3907550D01*
X5592050Y-4074400D02*
X5622050Y-4104400D01*
X5622050Y-4074400D02*
X5592050Y-4104400D01*
X5617450Y-4328400D02*
X5647450Y-4358400D01*
X5647450Y-4328400D02*
X5617450Y-4358400D01*
X5623800Y-5312650D02*
X5653800Y-5342650D01*
X5653800Y-5312650D02*
X5623800Y-5342650D01*
X5642850Y-3928350D02*
X5672850Y-3958350D01*
X5672850Y-3928350D02*
X5642850Y-3958350D01*
X5642850Y-4125200D02*
X5672850Y-4155200D01*
X5672850Y-4125200D02*
X5642850Y-4155200D01*
X5807950Y-3629900D02*
X5837950Y-3659900D01*
X5837950Y-3629900D02*
X5807950Y-3659900D01*
X5954000Y-3852150D02*
X5984000Y-3882150D01*
X5984000Y-3852150D02*
X5954000Y-3882150D01*
X6004800Y-3788650D02*
X6034800Y-3818650D01*
X6034800Y-3788650D02*
X6004800Y-3818650D01*
X6055600Y-3560050D02*
X6085600Y-3590050D01*
X6085600Y-3560050D02*
X6055600Y-3590050D01*
X6106400Y-3521950D02*
X6136400Y-3551950D01*
X6136400Y-3521950D02*
X6106400Y-3551950D01*
X6157200Y-3560050D02*
X6187200Y-3590050D01*
X6187200Y-3560050D02*
X6157200Y-3590050D01*
X6208000Y-3521950D02*
X6238000Y-3551950D01*
X6238000Y-3521950D02*
X6208000Y-3551950D01*
X6258500Y-3560050D02*
X6288500Y-3590050D01*
X6288500Y-3560050D02*
X6258500Y-3590050D01*
X6309600Y-3521950D02*
X6339600Y-3551950D01*
X6339600Y-3521950D02*
X6309600Y-3551950D01*
X6331505Y-4886158D02*
X6361505Y-4916158D01*
X6361505Y-4886158D02*
X6331505Y-4916158D01*
X6341350Y-4995150D02*
X6371350Y-5025150D01*
X6371350Y-4995150D02*
X6341350Y-5025150D01*
X6341350Y-5065000D02*
X6371350Y-5095000D01*
X6371350Y-5065000D02*
X6341350Y-5095000D01*
X6341350Y-5763500D02*
X6371350Y-5793500D01*
X6371350Y-5763500D02*
X6341350Y-5793500D01*
X6347187Y-4720330D02*
X6377187Y-4750330D01*
X6377187Y-4720330D02*
X6347187Y-4750330D01*
X6354050Y-5566650D02*
X6384050Y-5596650D01*
X6384050Y-5566650D02*
X6354050Y-5596650D01*
X6357501Y-3560050D02*
X6387501Y-3590050D01*
X6387501Y-3560050D02*
X6357501Y-3590050D01*
X6375951Y-4775750D02*
X6405951Y-4805750D01*
X6405951Y-4775750D02*
X6375951Y-4805750D01*
X6385253Y-4846604D02*
X6415253Y-4876604D01*
X6415253Y-4846604D02*
X6385253Y-4876604D01*
X6404850Y-3521950D02*
X6434850Y-3551950D01*
X6434850Y-3521950D02*
X6404850Y-3551950D01*
X6455650Y-3560050D02*
X6485650Y-3590050D01*
X6485650Y-3560050D02*
X6455650Y-3590050D01*
X6506450Y-3509250D02*
X6536450Y-3539250D01*
X6536450Y-3509250D02*
X6506450Y-3539250D01*
X6557250Y-3553700D02*
X6587250Y-3583700D01*
X6587250Y-3553700D02*
X6557250Y-3583700D01*
X6608050Y-3509250D02*
X6638050Y-3539250D01*
X6638050Y-3509250D02*
X6608050Y-3539250D01*
X6639800Y-4430000D02*
X6669800Y-4460000D01*
X6669800Y-4430000D02*
X6639800Y-4460000D01*
X6658300Y-3547350D02*
X6688300Y-3577350D01*
X6688300Y-3547350D02*
X6658300Y-3577350D01*
X6709044Y-3504955D02*
X6739044Y-3534955D01*
X6739044Y-3504955D02*
X6709044Y-3534955D01*
X6757551Y-3541000D02*
X6787551Y-3571000D01*
X6787551Y-3541000D02*
X6757551Y-3571000D01*
X6766800Y-4055350D02*
X6796800Y-4085350D01*
X6796800Y-4055350D02*
X6766800Y-4085350D01*
X6798550Y-4125200D02*
X6828550Y-4155200D01*
X6828550Y-4125200D02*
X6798550Y-4155200D01*
X6811250Y-3502900D02*
X6841250Y-3532900D01*
X6841250Y-3502900D02*
X6811250Y-3532900D01*
X6912850Y-4861800D02*
X6942850Y-4891800D01*
X6942850Y-4861800D02*
X6912850Y-4891800D01*
X6912850Y-5560300D02*
X6942850Y-5590300D01*
X6942850Y-5560300D02*
X6912850Y-5590300D01*
X6916301Y-4785600D02*
X6946301Y-4815600D01*
X6946301Y-4785600D02*
X6916301Y-4815600D01*
X6919200Y-5623800D02*
X6949200Y-5653800D01*
X6949200Y-5623800D02*
X6919200Y-5653800D01*
X6964202Y-2925050D02*
X6994202Y-2955050D01*
X6994202Y-2925050D02*
X6964202Y-2955050D01*
X6964202Y-4671300D02*
X6994202Y-4701300D01*
X6994202Y-4671300D02*
X6964202Y-4701300D01*
X7012103Y-4601450D02*
X7042103Y-4631450D01*
X7042103Y-4601450D02*
X7012103Y-4631450D01*
X7083491Y-3264500D02*
X7113491Y-3294500D01*
X7113491Y-3264500D02*
X7083491Y-3294500D01*
X7125071Y-4425885D02*
X7155071Y-4455885D01*
X7155071Y-4425885D02*
X7125071Y-4455885D01*
X7135100Y-2556750D02*
X7165100Y-2586750D01*
X7165100Y-2556750D02*
X7135100Y-2586750D01*
X7135100Y-3312400D02*
X7165100Y-3342400D01*
X7165100Y-3312400D02*
X7135100Y-3342400D01*
X7147800Y-4372850D02*
X7177800Y-4402850D01*
X7177800Y-4372850D02*
X7147800Y-4402850D01*
X7217650Y-5185650D02*
X7247650Y-5215650D01*
X7247650Y-5185650D02*
X7217650Y-5215650D01*
X7420850Y-4474450D02*
X7450850Y-4504450D01*
X7450850Y-4474450D02*
X7420850Y-4504450D01*
X7439900Y-4080750D02*
X7469900Y-4110750D01*
X7469900Y-4080750D02*
X7439900Y-4110750D01*
X7465300Y-5801600D02*
X7495300Y-5831600D01*
X7495300Y-5801600D02*
X7465300Y-5831600D01*
X7478000Y-5573000D02*
X7508000Y-5603000D01*
X7508000Y-5573000D02*
X7478000Y-5603000D01*
X7744700Y-5788900D02*
X7774700Y-5818900D01*
X7774700Y-5788900D02*
X7744700Y-5818900D01*
X7751050Y-5573000D02*
X7781050Y-5603000D01*
X7781050Y-5573000D02*
X7751050Y-5603000D01*
X2718750Y-2463800D02*
G75*
G03X2718750Y-2463800I-20000J0D01*
G01*
X2915600Y-2463800D02*
G75*
G03X2915600Y-2463800I-20000J0D01*
G01*
X3671250Y-5257800D02*
G75*
G03X3671250Y-5257800I-20000J0D01*
G01*
X3982400Y-4529301D02*
G75*
G03X3982400Y-4529301I-20000J0D01*
G01*
X4699950Y-4464050D02*
G75*
G03X4699950Y-4464050I-20000J0D01*
G01*
X5823900Y-3117850D02*
G75*
G03X5823900Y-3117850I-20000J0D01*
G01*
X5823900Y-3479800D02*
G75*
G03X5823900Y-3479800I-20000J0D01*
G01*
X6306500Y-3028950D02*
G75*
G03X6306500Y-3028950I-20000J0D01*
G01*
X6471600Y-4445000D02*
G75*
G03X6471600Y-4445000I-20000J0D01*
G01*
X6509700Y-4673600D02*
G75*
G03X6509700Y-4673600I-20000J0D01*
G01*
X6516050Y-5734050D02*
G75*
G03X6516050Y-5734050I-20000J0D01*
G01*
X6662100Y-2673350D02*
G75*
G03X6662100Y-2673350I-20000J0D01*
G01*
X6674800Y-4445000D02*
G75*
G03X6674800Y-4445000I-20000J0D01*
G01*
X6693850Y-4787900D02*
G75*
G03X6693850Y-4787900I-20000J0D01*
G01*
X6719250Y-5486400D02*
G75*
G03X6719250Y-5486400I-20000J0D01*
G01*
X6947850Y-5734050D02*
G75*
G03X6947850Y-5734050I-20000J0D01*
G01*
X2540000Y-1728000D02*
X2540000Y-1828000D01*
X2490000Y-1778000D02*
X2590000Y-1778000D01*
X2540000Y-1982000D02*
X2540000Y-2082000D01*
X2490000Y-2032000D02*
X2590000Y-2032000D01*
X2794000Y-1728000D02*
X2794000Y-1828000D01*
X2744000Y-1778000D02*
X2844000Y-1778000D01*
X2794000Y-1982000D02*
X2794000Y-2082000D01*
X2744000Y-2032000D02*
X2844000Y-2032000D01*
X3048000Y-1728000D02*
X3048000Y-1828000D01*
X2998000Y-1778000D02*
X3098000Y-1778000D01*
X3048000Y-1982000D02*
X3048000Y-2082000D01*
X2998000Y-2032000D02*
X3098000Y-2032000D01*
X3302000Y-1728000D02*
X3302000Y-1828000D01*
X3252000Y-1778000D02*
X3352000Y-1778000D01*
X3302000Y-1982000D02*
X3302000Y-2082000D01*
X3252000Y-2032000D02*
X3352000Y-2032000D01*
X3556000Y-1728000D02*
X3556000Y-1828000D01*
X3506000Y-1778000D02*
X3606000Y-1778000D01*
X3556000Y-1982000D02*
X3556000Y-2082000D01*
X3506000Y-2032000D02*
X3606000Y-2032000D01*
X3810000Y-1728000D02*
X3810000Y-1828000D01*
X3760000Y-1778000D02*
X3860000Y-1778000D01*
X3810000Y-1982000D02*
X3810000Y-2082000D01*
X3760000Y-2032000D02*
X3860000Y-2032000D01*
X4064000Y-1728000D02*
X4064000Y-1828000D01*
X4014000Y-1778000D02*
X4114000Y-1778000D01*
X4064000Y-1982000D02*
X4064000Y-2082000D01*
X4014000Y-2032000D02*
X4114000Y-2032000D01*
X4318000Y-1728000D02*
X4318000Y-1828000D01*
X4268000Y-1778000D02*
X4368000Y-1778000D01*
X4318000Y-1982000D02*
X4318000Y-2082000D01*
X4268000Y-2032000D02*
X4368000Y-2032000D01*
X4572000Y-1728000D02*
X4572000Y-1828000D01*
X4522000Y-1778000D02*
X4622000Y-1778000D01*
X4572000Y-1982000D02*
X4572000Y-2082000D01*
X4522000Y-2032000D02*
X4622000Y-2032000D01*
X3556000Y-6808000D02*
X3556000Y-6908000D01*
X3506000Y-6858000D02*
X3606000Y-6858000D01*
X3556000Y-7062000D02*
X3556000Y-7162000D01*
X3506000Y-7112000D02*
X3606000Y-7112000D01*
X3810000Y-6808000D02*
X3810000Y-6908000D01*
X3760000Y-6858000D02*
X3860000Y-6858000D01*
X3810000Y-7062000D02*
X3810000Y-7162000D01*
X3760000Y-7112000D02*
X3860000Y-7112000D01*
X4064000Y-6808000D02*
X4064000Y-6908000D01*
X4014000Y-6858000D02*
X4114000Y-6858000D01*
X4064000Y-7062000D02*
X4064000Y-7162000D01*
X4014000Y-7112000D02*
X4114000Y-7112000D01*
X4318000Y-6808000D02*
X4318000Y-6908000D01*
X4268000Y-6858000D02*
X4368000Y-6858000D01*
X4318000Y-7062000D02*
X4318000Y-7162000D01*
X4268000Y-7112000D02*
X4368000Y-7112000D01*
X4572000Y-6808000D02*
X4572000Y-6908000D01*
X4522000Y-6858000D02*
X4622000Y-6858000D01*
X4572000Y-7062000D02*
X4572000Y-7162000D01*
X4522000Y-7112000D02*
X4622000Y-7112000D01*
X4826000Y-6808000D02*
X4826000Y-6908000D01*
X4776000Y-6858000D02*
X4876000Y-6858000D01*
X4826000Y-7062000D02*
X4826000Y-7162000D01*
X4776000Y-7112000D02*
X4876000Y-7112000D01*
X5080000Y-6808000D02*
X5080000Y-6908000D01*
X5030000Y-6858000D02*
X5130000Y-6858000D01*
X5080000Y-7062000D02*
X5080000Y-7162000D01*
X5030000Y-7112000D02*
X5130000Y-7112000D01*
X5334000Y-6808000D02*
X5334000Y-6908000D01*
X5284000Y-6858000D02*
X5384000Y-6858000D01*
X5334000Y-7062000D02*
X5334000Y-7162000D01*
X5284000Y-7112000D02*
X5384000Y-7112000D01*
X5588000Y-6808000D02*
X5588000Y-6908000D01*
X5538000Y-6858000D02*
X5638000Y-6858000D01*
X5588000Y-7062000D02*
X5588000Y-7162000D01*
X5538000Y-7112000D02*
X5638000Y-7112000D01*
X5842000Y-6808000D02*
X5842000Y-6908000D01*
X5792000Y-6858000D02*
X5892000Y-6858000D01*
X5842000Y-7062000D02*
X5842000Y-7162000D01*
X5792000Y-7112000D02*
X5892000Y-7112000D01*
X6096000Y-6808000D02*
X6096000Y-6908000D01*
X6046000Y-6858000D02*
X6146000Y-6858000D01*
X6096000Y-7062000D02*
X6096000Y-7162000D01*
X6046000Y-7112000D02*
X6146000Y-7112000D01*
X8636000Y-2236000D02*
X8636000Y-2336000D01*
X8586000Y-2286000D02*
X8686000Y-2286000D01*
X8636000Y-2490000D02*
X8636000Y-2590000D01*
X8586000Y-2540000D02*
X8686000Y-2540000D01*
X8636000Y-2744000D02*
X8636000Y-2844000D01*
X8586000Y-2794000D02*
X8686000Y-2794000D01*
X8636000Y-2998000D02*
X8636000Y-3098000D01*
X8586000Y-3048000D02*
X8686000Y-3048000D01*
X8636000Y-3252000D02*
X8636000Y-3352000D01*
X8586000Y-3302000D02*
X8686000Y-3302000D01*
X8636000Y-3506000D02*
X8636000Y-3606000D01*
X8586000Y-3556000D02*
X8686000Y-3556000D01*
X8636000Y-3760000D02*
X8636000Y-3860000D01*
X8586000Y-3810000D02*
X8686000Y-3810000D01*
X8636000Y-4014000D02*
X8636000Y-4114000D01*
X8586000Y-4064000D02*
X8686000Y-4064000D01*
X8636000Y-4268000D02*
X8636000Y-4368000D01*
X8586000Y-4318000D02*
X8686000Y-4318000D01*
X8636000Y-4522000D02*
X8636000Y-4622000D01*
X8586000Y-4572000D02*
X8686000Y-4572000D01*
X8636000Y-4776000D02*
X8636000Y-4876000D01*
X8586000Y-4826000D02*
X8686000Y-4826000D01*
X8636000Y-5030000D02*
X8636000Y-5130000D01*
X8586000Y-5080000D02*
X8686000Y-5080000D01*
X8636000Y-5284000D02*
X8636000Y-5384000D01*
X8586000Y-5334000D02*
X8686000Y-5334000D01*
X8636000Y-5538000D02*
X8636000Y-5638000D01*
X8586000Y-5588000D02*
X8686000Y-5588000D01*
X8636000Y-5792000D02*
X8636000Y-5892000D01*
X8586000Y-5842000D02*
X8686000Y-5842000D01*
X8636000Y-6046000D02*
X8636000Y-6146000D01*
X8586000Y-6096000D02*
X8686000Y-6096000D01*
X8636000Y-6300000D02*
X8636000Y-6400000D01*
X8586000Y-6350000D02*
X8686000Y-6350000D01*
X8636000Y-6554000D02*
X8636000Y-6654000D01*
X8586000Y-6604000D02*
X8686000Y-6604000D01*
X8890000Y-2236000D02*
X8890000Y-2336000D01*
X8840000Y-2286000D02*
X8940000Y-2286000D01*
X8890000Y-2490000D02*
X8890000Y-2590000D01*
X8840000Y-2540000D02*
X8940000Y-2540000D01*
X8890000Y-2744000D02*
X8890000Y-2844000D01*
X8840000Y-2794000D02*
X8940000Y-2794000D01*
X8890000Y-2998000D02*
X8890000Y-3098000D01*
X8840000Y-3048000D02*
X8940000Y-3048000D01*
X8890000Y-3252000D02*
X8890000Y-3352000D01*
X8840000Y-3302000D02*
X8940000Y-3302000D01*
X8890000Y-3506000D02*
X8890000Y-3606000D01*
X8840000Y-3556000D02*
X8940000Y-3556000D01*
X8890000Y-3760000D02*
X8890000Y-3860000D01*
X8840000Y-3810000D02*
X8940000Y-3810000D01*
X8890000Y-4014000D02*
X8890000Y-4114000D01*
X8840000Y-4064000D02*
X8940000Y-4064000D01*
X8890000Y-4268000D02*
X8890000Y-4368000D01*
X8840000Y-4318000D02*
X8940000Y-4318000D01*
X8890000Y-4522000D02*
X8890000Y-4622000D01*
X8840000Y-4572000D02*
X8940000Y-4572000D01*
X8890000Y-4776000D02*
X8890000Y-4876000D01*
X8840000Y-4826000D02*
X8940000Y-4826000D01*
X8890000Y-5030000D02*
X8890000Y-5130000D01*
X8840000Y-5080000D02*
X8940000Y-5080000D01*
X8890000Y-5284000D02*
X8890000Y-5384000D01*
X8840000Y-5334000D02*
X8940000Y-5334000D01*
X8890000Y-5538000D02*
X8890000Y-5638000D01*
X8840000Y-5588000D02*
X8940000Y-5588000D01*
X8890000Y-5792000D02*
X8890000Y-5892000D01*
X8840000Y-5842000D02*
X8940000Y-5842000D01*
X8890000Y-6046000D02*
X8890000Y-6146000D01*
X8840000Y-6096000D02*
X8940000Y-6096000D01*
X8890000Y-6300000D02*
X8890000Y-6400000D01*
X8840000Y-6350000D02*
X8940000Y-6350000D01*
X8890000Y-6554000D02*
X8890000Y-6654000D01*
X8840000Y-6604000D02*
X8940000Y-6604000D01*
X7112000Y-6808000D02*
X7112000Y-6908000D01*
X7062000Y-6858000D02*
X7162000Y-6858000D01*
X7112000Y-7062000D02*
X7112000Y-7162000D01*
X7062000Y-7112000D02*
X7162000Y-7112000D01*
X7366000Y-6808000D02*
X7366000Y-6908000D01*
X7316000Y-6858000D02*
X7416000Y-6858000D01*
X7366000Y-7062000D02*
X7366000Y-7162000D01*
X7316000Y-7112000D02*
X7416000Y-7112000D01*
X7620000Y-6808000D02*
X7620000Y-6908000D01*
X7570000Y-6858000D02*
X7670000Y-6858000D01*
X7620000Y-7062000D02*
X7620000Y-7162000D01*
X7570000Y-7112000D02*
X7670000Y-7112000D01*
X5588000Y-1728000D02*
X5588000Y-1828000D01*
X5538000Y-1778000D02*
X5638000Y-1778000D01*
X5588000Y-1982000D02*
X5588000Y-2082000D01*
X5538000Y-2032000D02*
X5638000Y-2032000D01*
X5842000Y-1728000D02*
X5842000Y-1828000D01*
X5792000Y-1778000D02*
X5892000Y-1778000D01*
X5842000Y-1982000D02*
X5842000Y-2082000D01*
X5792000Y-2032000D02*
X5892000Y-2032000D01*
X6096000Y-1728000D02*
X6096000Y-1828000D01*
X6046000Y-1778000D02*
X6146000Y-1778000D01*
X6096000Y-1982000D02*
X6096000Y-2082000D01*
X6046000Y-2032000D02*
X6146000Y-2032000D01*
X6350000Y-1728000D02*
X6350000Y-1828000D01*
X6300000Y-1778000D02*
X6400000Y-1778000D01*
X6350000Y-1982000D02*
X6350000Y-2082000D01*
X6300000Y-2032000D02*
X6400000Y-2032000D01*
X6604000Y-1728000D02*
X6604000Y-1828000D01*
X6554000Y-1778000D02*
X6654000Y-1778000D01*
X6604000Y-1982000D02*
X6604000Y-2082000D01*
X6554000Y-2032000D02*
X6654000Y-2032000D01*
X6858000Y-1728000D02*
X6858000Y-1828000D01*
X6808000Y-1778000D02*
X6908000Y-1778000D01*
X6858000Y-1982000D02*
X6858000Y-2082000D01*
X6808000Y-2032000D02*
X6908000Y-2032000D01*
X7112000Y-1728000D02*
X7112000Y-1828000D01*
X7062000Y-1778000D02*
X7162000Y-1778000D01*
X7112000Y-1982000D02*
X7112000Y-2082000D01*
X7062000Y-2032000D02*
X7162000Y-2032000D01*
X7366000Y-1728000D02*
X7366000Y-1828000D01*
X7316000Y-1778000D02*
X7416000Y-1778000D01*
X7366000Y-1982000D02*
X7366000Y-2082000D01*
X7316000Y-2032000D02*
X7416000Y-2032000D01*
X7620000Y-1728000D02*
X7620000Y-1828000D01*
X7570000Y-1778000D02*
X7670000Y-1778000D01*
X7620000Y-1982000D02*
X7620000Y-2082000D01*
X7570000Y-2032000D02*
X7670000Y-2032000D01*
X1559921Y-2448921D02*
X1559921Y-2377079D01*
X1488079Y-2377079D01*
X1488079Y-2448921D01*
X1559921Y-2448921D01*
X1551940Y-2372200D02*
X1496060Y-2372200D01*
X1551940Y-2453800D02*
X1496060Y-2453800D01*
X1496060Y-2372200D02*
G75*
G03X1496060Y-2453800I0J-40800D01*
G01*
X1551940Y-2453800D02*
G75*
G03X1551940Y-2372200I0J40800D01*
G01*
X1559921Y-3312521D02*
X1559921Y-3240679D01*
X1488079Y-3240679D01*
X1488079Y-3312521D01*
X1559921Y-3312521D01*
X1551940Y-3235800D02*
X1496060Y-3235800D01*
X1551940Y-3317400D02*
X1496060Y-3317400D01*
X1496060Y-3235800D02*
G75*
G03X1496060Y-3317400I0J-40800D01*
G01*
X1551940Y-3317400D02*
G75*
G03X1551940Y-3235800I0J40800D01*
G01*
X1991721Y-2448921D02*
X1991721Y-2377079D01*
X1919879Y-2377079D01*
X1919879Y-2448921D01*
X1991721Y-2448921D01*
X1993900Y-2372200D02*
X1917700Y-2372200D01*
X1993900Y-2453800D02*
X1917700Y-2453800D01*
X1917700Y-2372200D02*
G75*
G03X1917700Y-2453800I0J-40800D01*
G01*
X1993900Y-2453800D02*
G75*
G03X1993900Y-2372200I0J40800D01*
G01*
X1991721Y-3312521D02*
X1991721Y-3240679D01*
X1919879Y-3240679D01*
X1919879Y-3312521D01*
X1991721Y-3312521D01*
X1993900Y-3235800D02*
X1917700Y-3235800D01*
X1993900Y-3317400D02*
X1917700Y-3317400D01*
X1917700Y-3235800D02*
G75*
G03X1917700Y-3317400I0J-40800D01*
G01*
X1993900Y-3317400D02*
G75*
G03X1993900Y-3235800I0J40800D01*
G01*
D12*
X1553928Y-8113614D02*
X1553928Y-7813614D01*
X1625357Y-7813614D01*
X1668214Y-7827900D01*
X1696786Y-7856471D01*
X1711071Y-7885043D01*
X1725357Y-7942186D01*
X1725357Y-7985043D01*
X1711071Y-8042186D01*
X1696786Y-8070757D01*
X1668214Y-8099329D01*
X1625357Y-8113614D01*
X1553928Y-8113614D01*
X1853928Y-8113614D02*
X1853928Y-7913614D01*
X1853928Y-7970757D02*
X1868214Y-7942186D01*
X1882500Y-7927900D01*
X1911071Y-7913614D01*
X1939643Y-7913614D01*
X2039643Y-8113614D02*
X2039643Y-7913614D01*
X2039643Y-7813614D02*
X2025357Y-7827900D01*
X2039643Y-7842186D01*
X2053928Y-7827900D01*
X2039643Y-7813614D01*
X2039643Y-7842186D01*
X2225357Y-8113614D02*
X2196786Y-8099329D01*
X2182500Y-8070757D01*
X2182500Y-7813614D01*
X2382500Y-8113614D02*
X2353928Y-8099329D01*
X2339643Y-8070757D01*
X2339643Y-7813614D01*
X2725357Y-8113614D02*
X2725357Y-7813614D01*
X2825357Y-8027900D01*
X2925357Y-7813614D01*
X2925357Y-8113614D01*
X3196786Y-8113614D02*
X3196786Y-7956471D01*
X3182500Y-7927900D01*
X3153928Y-7913614D01*
X3096786Y-7913614D01*
X3068214Y-7927900D01*
X3196786Y-8099329D02*
X3168214Y-8113614D01*
X3096786Y-8113614D01*
X3068214Y-8099329D01*
X3053928Y-8070757D01*
X3053928Y-8042186D01*
X3068214Y-8013614D01*
X3096786Y-7999329D01*
X3168214Y-7999329D01*
X3196786Y-7985043D01*
X3339643Y-7913614D02*
X3339643Y-8213614D01*
X3339643Y-7927900D02*
X3368214Y-7913614D01*
X3425357Y-7913614D01*
X3453928Y-7927900D01*
X3468214Y-7942186D01*
X3482500Y-7970757D01*
X3482500Y-8056471D01*
X3468214Y-8085043D01*
X3453928Y-8099329D01*
X3425357Y-8113614D01*
X3368214Y-8113614D01*
X3339643Y-8099329D01*
X3611071Y-8085043D02*
X3625357Y-8099329D01*
X3611071Y-8113614D01*
X3596786Y-8099329D01*
X3611071Y-8085043D01*
X3611071Y-8113614D01*
X3611071Y-7927900D02*
X3625357Y-7942186D01*
X3611071Y-7956471D01*
X3596786Y-7942186D01*
X3611071Y-7927900D01*
X3611071Y-7956471D01*
X1237500Y-8592900D02*
X1267500Y-8622900D01*
X1267500Y-8592900D02*
X1237500Y-8622900D01*
X1611071Y-8443614D02*
X1639643Y-8443614D01*
X1668214Y-8457900D01*
X1682500Y-8472186D01*
X1696786Y-8500757D01*
X1711071Y-8557900D01*
X1711071Y-8629329D01*
X1696786Y-8686472D01*
X1682500Y-8715043D01*
X1668214Y-8729329D01*
X1639643Y-8743614D01*
X1611071Y-8743614D01*
X1582500Y-8729329D01*
X1568214Y-8715043D01*
X1553928Y-8686472D01*
X1539643Y-8629329D01*
X1539643Y-8557900D01*
X1553928Y-8500757D01*
X1568214Y-8472186D01*
X1582500Y-8457900D01*
X1611071Y-8443614D01*
X1839643Y-8715043D02*
X1853928Y-8729329D01*
X1839643Y-8743614D01*
X1825357Y-8729329D01*
X1839643Y-8715043D01*
X1839643Y-8743614D01*
X1953928Y-8443614D02*
X2139643Y-8443614D01*
X2039643Y-8557900D01*
X2082500Y-8557900D01*
X2111071Y-8572186D01*
X2125357Y-8586472D01*
X2139643Y-8615043D01*
X2139643Y-8686472D01*
X2125357Y-8715043D01*
X2111071Y-8729329D01*
X2082500Y-8743614D01*
X1996786Y-8743614D01*
X1968214Y-8729329D01*
X1953928Y-8715043D01*
X2325357Y-8443614D02*
X2353928Y-8443614D01*
X2382500Y-8457900D01*
X2396786Y-8472186D01*
X2411071Y-8500757D01*
X2425357Y-8557900D01*
X2425357Y-8629329D01*
X2411071Y-8686472D01*
X2396786Y-8715043D01*
X2382500Y-8729329D01*
X2353928Y-8743614D01*
X2325357Y-8743614D01*
X2296786Y-8729329D01*
X2282500Y-8715043D01*
X2268214Y-8686472D01*
X2253928Y-8629329D01*
X2253928Y-8557900D01*
X2268214Y-8500757D01*
X2282500Y-8472186D01*
X2296786Y-8457900D01*
X2325357Y-8443614D01*
X2553928Y-8743614D02*
X2553928Y-8543614D01*
X2553928Y-8572186D02*
X2568214Y-8557900D01*
X2596786Y-8543614D01*
X2639643Y-8543614D01*
X2668214Y-8557900D01*
X2682500Y-8586472D01*
X2682500Y-8743614D01*
X2682500Y-8586472D02*
X2696786Y-8557900D01*
X2725357Y-8543614D01*
X2768214Y-8543614D01*
X2796786Y-8557900D01*
X2811071Y-8586472D01*
X2811071Y-8743614D01*
X2953928Y-8743614D02*
X2953928Y-8543614D01*
X2953928Y-8572186D02*
X2968214Y-8557900D01*
X2996786Y-8543614D01*
X3039643Y-8543614D01*
X3068214Y-8557900D01*
X3082500Y-8586472D01*
X3082500Y-8743614D01*
X3082500Y-8586472D02*
X3096786Y-8557900D01*
X3125357Y-8543614D01*
X3168214Y-8543614D01*
X3196786Y-8557900D01*
X3211071Y-8586472D01*
X3211071Y-8743614D01*
X3796786Y-8429329D02*
X3539643Y-8815043D01*
X4182500Y-8443614D02*
X4211071Y-8443614D01*
X4239643Y-8457900D01*
X4253928Y-8472186D01*
X4268214Y-8500757D01*
X4282500Y-8557900D01*
X4282500Y-8629329D01*
X4268214Y-8686472D01*
X4253928Y-8715043D01*
X4239643Y-8729329D01*
X4211071Y-8743614D01*
X4182500Y-8743614D01*
X4153928Y-8729329D01*
X4139643Y-8715043D01*
X4125357Y-8686472D01*
X4111071Y-8629329D01*
X4111071Y-8557900D01*
X4125357Y-8500757D01*
X4139643Y-8472186D01*
X4153928Y-8457900D01*
X4182500Y-8443614D01*
X4411071Y-8715043D02*
X4425357Y-8729329D01*
X4411071Y-8743614D01*
X4396786Y-8729329D01*
X4411071Y-8715043D01*
X4411071Y-8743614D01*
X4611071Y-8443614D02*
X4639643Y-8443614D01*
X4668214Y-8457900D01*
X4682500Y-8472186D01*
X4696786Y-8500757D01*
X4711071Y-8557900D01*
X4711071Y-8629329D01*
X4696786Y-8686472D01*
X4682500Y-8715043D01*
X4668214Y-8729329D01*
X4639643Y-8743614D01*
X4611071Y-8743614D01*
X4582500Y-8729329D01*
X4568214Y-8715043D01*
X4553928Y-8686472D01*
X4539643Y-8629329D01*
X4539643Y-8557900D01*
X4553928Y-8500757D01*
X4568214Y-8472186D01*
X4582500Y-8457900D01*
X4611071Y-8443614D01*
X4996786Y-8743614D02*
X4825357Y-8743614D01*
X4911071Y-8743614D02*
X4911071Y-8443614D01*
X4882500Y-8486472D01*
X4853928Y-8515043D01*
X4825357Y-8529329D01*
X5111071Y-8472186D02*
X5125357Y-8457900D01*
X5153928Y-8443614D01*
X5225357Y-8443614D01*
X5253928Y-8457900D01*
X5268214Y-8472186D01*
X5282500Y-8500757D01*
X5282500Y-8529329D01*
X5268214Y-8572186D01*
X5096786Y-8743614D01*
X5282500Y-8743614D01*
X5396786Y-8443614D02*
X5396786Y-8500757D01*
X5511071Y-8443614D02*
X5511071Y-8500757D01*
X5953928Y-8857900D02*
X5939643Y-8843614D01*
X5911071Y-8800757D01*
X5896786Y-8772186D01*
X5882500Y-8729329D01*
X5868214Y-8657900D01*
X5868214Y-8600757D01*
X5882500Y-8529329D01*
X5896786Y-8486472D01*
X5911071Y-8457900D01*
X5939643Y-8415043D01*
X5953928Y-8400757D01*
X6082500Y-8743614D02*
X6139643Y-8743614D01*
X6168214Y-8729329D01*
X6182500Y-8715043D01*
X6211071Y-8672186D01*
X6225357Y-8615043D01*
X6225357Y-8500757D01*
X6211071Y-8472186D01*
X6196786Y-8457900D01*
X6168214Y-8443614D01*
X6111071Y-8443614D01*
X6082500Y-8457900D01*
X6068214Y-8472186D01*
X6053928Y-8500757D01*
X6053928Y-8572186D01*
X6068214Y-8600757D01*
X6082500Y-8615043D01*
X6111071Y-8629329D01*
X6168214Y-8629329D01*
X6196786Y-8615043D01*
X6211071Y-8600757D01*
X6225357Y-8572186D01*
X6339643Y-8472186D02*
X6353928Y-8457900D01*
X6382500Y-8443614D01*
X6453928Y-8443614D01*
X6482500Y-8457900D01*
X6496786Y-8472186D01*
X6511071Y-8500757D01*
X6511071Y-8529329D01*
X6496786Y-8572186D01*
X6325357Y-8743614D01*
X6511071Y-8743614D01*
X6868214Y-8743614D02*
X6868214Y-8443614D01*
X6996786Y-8743614D02*
X6996786Y-8586472D01*
X6982500Y-8557900D01*
X6953928Y-8543614D01*
X6911071Y-8543614D01*
X6882500Y-8557900D01*
X6868214Y-8572186D01*
X7182500Y-8743614D02*
X7153928Y-8729329D01*
X7139643Y-8715043D01*
X7125357Y-8686472D01*
X7125357Y-8600757D01*
X7139643Y-8572186D01*
X7153928Y-8557900D01*
X7182500Y-8543614D01*
X7225357Y-8543614D01*
X7253928Y-8557900D01*
X7268214Y-8572186D01*
X7282500Y-8600757D01*
X7282500Y-8686472D01*
X7268214Y-8715043D01*
X7253928Y-8729329D01*
X7225357Y-8743614D01*
X7182500Y-8743614D01*
X7453928Y-8743614D02*
X7425357Y-8729329D01*
X7411071Y-8700757D01*
X7411071Y-8443614D01*
X7682500Y-8729329D02*
X7653928Y-8743614D01*
X7596786Y-8743614D01*
X7568214Y-8729329D01*
X7553928Y-8700757D01*
X7553928Y-8586472D01*
X7568214Y-8557900D01*
X7596786Y-8543614D01*
X7653928Y-8543614D01*
X7682500Y-8557900D01*
X7696786Y-8586472D01*
X7696786Y-8615043D01*
X7553928Y-8643614D01*
X7811071Y-8729329D02*
X7839643Y-8743614D01*
X7896786Y-8743614D01*
X7925357Y-8729329D01*
X7939643Y-8700757D01*
X7939643Y-8686472D01*
X7925357Y-8657900D01*
X7896786Y-8643614D01*
X7853928Y-8643614D01*
X7825357Y-8629329D01*
X7811071Y-8600757D01*
X7811071Y-8586472D01*
X7825357Y-8557900D01*
X7853928Y-8543614D01*
X7896786Y-8543614D01*
X7925357Y-8557900D01*
X8039643Y-8857900D02*
X8053928Y-8843614D01*
X8082500Y-8800757D01*
X8096786Y-8772186D01*
X8111071Y-8729329D01*
X8125357Y-8657900D01*
X8125357Y-8600757D01*
X8111071Y-8529329D01*
X8096786Y-8486472D01*
X8082500Y-8457900D01*
X8053928Y-8415043D01*
X8039643Y-8400757D01*
X1267500Y-9003900D02*
G75*
G03X1267500Y-9003900I-20000J0D01*
G01*
X1611071Y-8839614D02*
X1639643Y-8839614D01*
X1668214Y-8853900D01*
X1682500Y-8868186D01*
X1696786Y-8896757D01*
X1711071Y-8953900D01*
X1711071Y-9025329D01*
X1696786Y-9082472D01*
X1682500Y-9111043D01*
X1668214Y-9125329D01*
X1639643Y-9139614D01*
X1611071Y-9139614D01*
X1582500Y-9125329D01*
X1568214Y-9111043D01*
X1553928Y-9082472D01*
X1539643Y-9025329D01*
X1539643Y-8953900D01*
X1553928Y-8896757D01*
X1568214Y-8868186D01*
X1582500Y-8853900D01*
X1611071Y-8839614D01*
X1839643Y-9111043D02*
X1853928Y-9125329D01*
X1839643Y-9139614D01*
X1825357Y-9125329D01*
X1839643Y-9111043D01*
X1839643Y-9139614D01*
X2111071Y-8939614D02*
X2111071Y-9139614D01*
X2039643Y-8825329D02*
X1968214Y-9039614D01*
X2153928Y-9039614D01*
X2325357Y-8839614D02*
X2353928Y-8839614D01*
X2382500Y-8853900D01*
X2396786Y-8868186D01*
X2411071Y-8896757D01*
X2425357Y-8953900D01*
X2425357Y-9025329D01*
X2411071Y-9082472D01*
X2396786Y-9111043D01*
X2382500Y-9125329D01*
X2353928Y-9139614D01*
X2325357Y-9139614D01*
X2296786Y-9125329D01*
X2282500Y-9111043D01*
X2268214Y-9082472D01*
X2253928Y-9025329D01*
X2253928Y-8953900D01*
X2268214Y-8896757D01*
X2282500Y-8868186D01*
X2296786Y-8853900D01*
X2325357Y-8839614D01*
X2553928Y-9139614D02*
X2553928Y-8939614D01*
X2553928Y-8968186D02*
X2568214Y-8953900D01*
X2596786Y-8939614D01*
X2639643Y-8939614D01*
X2668214Y-8953900D01*
X2682500Y-8982472D01*
X2682500Y-9139614D01*
X2682500Y-8982472D02*
X2696786Y-8953900D01*
X2725357Y-8939614D01*
X2768214Y-8939614D01*
X2796786Y-8953900D01*
X2811071Y-8982472D01*
X2811071Y-9139614D01*
X2953928Y-9139614D02*
X2953928Y-8939614D01*
X2953928Y-8968186D02*
X2968214Y-8953900D01*
X2996786Y-8939614D01*
X3039643Y-8939614D01*
X3068214Y-8953900D01*
X3082500Y-8982472D01*
X3082500Y-9139614D01*
X3082500Y-8982472D02*
X3096786Y-8953900D01*
X3125357Y-8939614D01*
X3168214Y-8939614D01*
X3196786Y-8953900D01*
X3211071Y-8982472D01*
X3211071Y-9139614D01*
X3796786Y-8825329D02*
X3539643Y-9211043D01*
X4182500Y-8839614D02*
X4211071Y-8839614D01*
X4239643Y-8853900D01*
X4253928Y-8868186D01*
X4268214Y-8896757D01*
X4282500Y-8953900D01*
X4282500Y-9025329D01*
X4268214Y-9082472D01*
X4253928Y-9111043D01*
X4239643Y-9125329D01*
X4211071Y-9139614D01*
X4182500Y-9139614D01*
X4153928Y-9125329D01*
X4139643Y-9111043D01*
X4125357Y-9082472D01*
X4111071Y-9025329D01*
X4111071Y-8953900D01*
X4125357Y-8896757D01*
X4139643Y-8868186D01*
X4153928Y-8853900D01*
X4182500Y-8839614D01*
X4411071Y-9111043D02*
X4425357Y-9125329D01*
X4411071Y-9139614D01*
X4396786Y-9125329D01*
X4411071Y-9111043D01*
X4411071Y-9139614D01*
X4611071Y-8839614D02*
X4639643Y-8839614D01*
X4668214Y-8853900D01*
X4682500Y-8868186D01*
X4696786Y-8896757D01*
X4711071Y-8953900D01*
X4711071Y-9025329D01*
X4696786Y-9082472D01*
X4682500Y-9111043D01*
X4668214Y-9125329D01*
X4639643Y-9139614D01*
X4611071Y-9139614D01*
X4582500Y-9125329D01*
X4568214Y-9111043D01*
X4553928Y-9082472D01*
X4539643Y-9025329D01*
X4539643Y-8953900D01*
X4553928Y-8896757D01*
X4568214Y-8868186D01*
X4582500Y-8853900D01*
X4611071Y-8839614D01*
X4996786Y-9139614D02*
X4825357Y-9139614D01*
X4911071Y-9139614D02*
X4911071Y-8839614D01*
X4882500Y-8882472D01*
X4853928Y-8911043D01*
X4825357Y-8925329D01*
X5253928Y-8839614D02*
X5196786Y-8839614D01*
X5168214Y-8853900D01*
X5153928Y-8868186D01*
X5125357Y-8911043D01*
X5111071Y-8968186D01*
X5111071Y-9082472D01*
X5125357Y-9111043D01*
X5139643Y-9125329D01*
X5168214Y-9139614D01*
X5225357Y-9139614D01*
X5253928Y-9125329D01*
X5268214Y-9111043D01*
X5282500Y-9082472D01*
X5282500Y-9011043D01*
X5268214Y-8982472D01*
X5253928Y-8968186D01*
X5225357Y-8953900D01*
X5168214Y-8953900D01*
X5139643Y-8968186D01*
X5125357Y-8982472D01*
X5111071Y-9011043D01*
X5396786Y-8839614D02*
X5396786Y-8896757D01*
X5511071Y-8839614D02*
X5511071Y-8896757D01*
X5953928Y-9253900D02*
X5939643Y-9239614D01*
X5911071Y-9196757D01*
X5896786Y-9168186D01*
X5882500Y-9125329D01*
X5868214Y-9053900D01*
X5868214Y-8996757D01*
X5882500Y-8925329D01*
X5896786Y-8882472D01*
X5911071Y-8853900D01*
X5939643Y-8811043D01*
X5953928Y-8796757D01*
X6225357Y-9139614D02*
X6053928Y-9139614D01*
X6139643Y-9139614D02*
X6139643Y-8839614D01*
X6111071Y-8882472D01*
X6082500Y-8911043D01*
X6053928Y-8925329D01*
X6482500Y-8839614D02*
X6425357Y-8839614D01*
X6396786Y-8853900D01*
X6382500Y-8868186D01*
X6353928Y-8911043D01*
X6339643Y-8968186D01*
X6339643Y-9082472D01*
X6353928Y-9111043D01*
X6368214Y-9125329D01*
X6396786Y-9139614D01*
X6453928Y-9139614D01*
X6482500Y-9125329D01*
X6496786Y-9111043D01*
X6511071Y-9082472D01*
X6511071Y-9011043D01*
X6496786Y-8982472D01*
X6482500Y-8968186D01*
X6453928Y-8953900D01*
X6396786Y-8953900D01*
X6368214Y-8968186D01*
X6353928Y-8982472D01*
X6339643Y-9011043D01*
X6868214Y-9139614D02*
X6868214Y-8839614D01*
X6996786Y-9139614D02*
X6996786Y-8982472D01*
X6982500Y-8953900D01*
X6953928Y-8939614D01*
X6911071Y-8939614D01*
X6882500Y-8953900D01*
X6868214Y-8968186D01*
X7182500Y-9139614D02*
X7153928Y-9125329D01*
X7139643Y-9111043D01*
X7125357Y-9082472D01*
X7125357Y-8996757D01*
X7139643Y-8968186D01*
X7153928Y-8953900D01*
X7182500Y-8939614D01*
X7225357Y-8939614D01*
X7253928Y-8953900D01*
X7268214Y-8968186D01*
X7282500Y-8996757D01*
X7282500Y-9082472D01*
X7268214Y-9111043D01*
X7253928Y-9125329D01*
X7225357Y-9139614D01*
X7182500Y-9139614D01*
X7453928Y-9139614D02*
X7425357Y-9125329D01*
X7411071Y-9096757D01*
X7411071Y-8839614D01*
X7682500Y-9125329D02*
X7653928Y-9139614D01*
X7596786Y-9139614D01*
X7568214Y-9125329D01*
X7553928Y-9096757D01*
X7553928Y-8982472D01*
X7568214Y-8953900D01*
X7596786Y-8939614D01*
X7653928Y-8939614D01*
X7682500Y-8953900D01*
X7696786Y-8982472D01*
X7696786Y-9011043D01*
X7553928Y-9039614D01*
X7811071Y-9125329D02*
X7839643Y-9139614D01*
X7896786Y-9139614D01*
X7925357Y-9125329D01*
X7939643Y-9096757D01*
X7939643Y-9082472D01*
X7925357Y-9053900D01*
X7896786Y-9039614D01*
X7853928Y-9039614D01*
X7825357Y-9025329D01*
X7811071Y-8996757D01*
X7811071Y-8982472D01*
X7825357Y-8953900D01*
X7853928Y-8939614D01*
X7896786Y-8939614D01*
X7925357Y-8953900D01*
X8039643Y-9253900D02*
X8053928Y-9239614D01*
X8082500Y-9196757D01*
X8096786Y-9168186D01*
X8111071Y-9125329D01*
X8125357Y-9053900D01*
X8125357Y-8996757D01*
X8111071Y-8925329D01*
X8096786Y-8882472D01*
X8082500Y-8853900D01*
X8053928Y-8811043D01*
X8039643Y-8796757D01*
X1217500Y-9349900D02*
X1217500Y-9449900D01*
X1167500Y-9399900D02*
X1267500Y-9399900D01*
X1711071Y-9535614D02*
X1539643Y-9535614D01*
X1625357Y-9535614D02*
X1625357Y-9235614D01*
X1596786Y-9278472D01*
X1568214Y-9307043D01*
X1539643Y-9321329D01*
X1839643Y-9507043D02*
X1853928Y-9521329D01*
X1839643Y-9535614D01*
X1825357Y-9521329D01*
X1839643Y-9507043D01*
X1839643Y-9535614D01*
X2039643Y-9235614D02*
X2068214Y-9235614D01*
X2096786Y-9249900D01*
X2111071Y-9264186D01*
X2125357Y-9292757D01*
X2139643Y-9349900D01*
X2139643Y-9421329D01*
X2125357Y-9478472D01*
X2111071Y-9507043D01*
X2096786Y-9521329D01*
X2068214Y-9535614D01*
X2039643Y-9535614D01*
X2011071Y-9521329D01*
X1996786Y-9507043D01*
X1982500Y-9478472D01*
X1968214Y-9421329D01*
X1968214Y-9349900D01*
X1982500Y-9292757D01*
X1996786Y-9264186D01*
X2011071Y-9249900D01*
X2039643Y-9235614D01*
X2325357Y-9235614D02*
X2353928Y-9235614D01*
X2382500Y-9249900D01*
X2396786Y-9264186D01*
X2411071Y-9292757D01*
X2425357Y-9349900D01*
X2425357Y-9421329D01*
X2411071Y-9478472D01*
X2396786Y-9507043D01*
X2382500Y-9521329D01*
X2353928Y-9535614D01*
X2325357Y-9535614D01*
X2296786Y-9521329D01*
X2282500Y-9507043D01*
X2268214Y-9478472D01*
X2253928Y-9421329D01*
X2253928Y-9349900D01*
X2268214Y-9292757D01*
X2282500Y-9264186D01*
X2296786Y-9249900D01*
X2325357Y-9235614D01*
X2553928Y-9535614D02*
X2553928Y-9335614D01*
X2553928Y-9364186D02*
X2568214Y-9349900D01*
X2596786Y-9335614D01*
X2639643Y-9335614D01*
X2668214Y-9349900D01*
X2682500Y-9378472D01*
X2682500Y-9535614D01*
X2682500Y-9378472D02*
X2696786Y-9349900D01*
X2725357Y-9335614D01*
X2768214Y-9335614D01*
X2796786Y-9349900D01*
X2811071Y-9378472D01*
X2811071Y-9535614D01*
X2953928Y-9535614D02*
X2953928Y-9335614D01*
X2953928Y-9364186D02*
X2968214Y-9349900D01*
X2996786Y-9335614D01*
X3039643Y-9335614D01*
X3068214Y-9349900D01*
X3082500Y-9378472D01*
X3082500Y-9535614D01*
X3082500Y-9378472D02*
X3096786Y-9349900D01*
X3125357Y-9335614D01*
X3168214Y-9335614D01*
X3196786Y-9349900D01*
X3211071Y-9378472D01*
X3211071Y-9535614D01*
X3796786Y-9221329D02*
X3539643Y-9607043D01*
X4182500Y-9235614D02*
X4211071Y-9235614D01*
X4239643Y-9249900D01*
X4253928Y-9264186D01*
X4268214Y-9292757D01*
X4282500Y-9349900D01*
X4282500Y-9421329D01*
X4268214Y-9478472D01*
X4253928Y-9507043D01*
X4239643Y-9521329D01*
X4211071Y-9535614D01*
X4182500Y-9535614D01*
X4153928Y-9521329D01*
X4139643Y-9507043D01*
X4125357Y-9478472D01*
X4111071Y-9421329D01*
X4111071Y-9349900D01*
X4125357Y-9292757D01*
X4139643Y-9264186D01*
X4153928Y-9249900D01*
X4182500Y-9235614D01*
X4411071Y-9507043D02*
X4425357Y-9521329D01*
X4411071Y-9535614D01*
X4396786Y-9521329D01*
X4411071Y-9507043D01*
X4411071Y-9535614D01*
X4611071Y-9235614D02*
X4639643Y-9235614D01*
X4668214Y-9249900D01*
X4682500Y-9264186D01*
X4696786Y-9292757D01*
X4711071Y-9349900D01*
X4711071Y-9421329D01*
X4696786Y-9478472D01*
X4682500Y-9507043D01*
X4668214Y-9521329D01*
X4639643Y-9535614D01*
X4611071Y-9535614D01*
X4582500Y-9521329D01*
X4568214Y-9507043D01*
X4553928Y-9478472D01*
X4539643Y-9421329D01*
X4539643Y-9349900D01*
X4553928Y-9292757D01*
X4568214Y-9264186D01*
X4582500Y-9249900D01*
X4611071Y-9235614D01*
X4811071Y-9235614D02*
X4996786Y-9235614D01*
X4896786Y-9349900D01*
X4939643Y-9349900D01*
X4968214Y-9364186D01*
X4982500Y-9378472D01*
X4996786Y-9407043D01*
X4996786Y-9478472D01*
X4982500Y-9507043D01*
X4968214Y-9521329D01*
X4939643Y-9535614D01*
X4853928Y-9535614D01*
X4825357Y-9521329D01*
X4811071Y-9507043D01*
X5139643Y-9535614D02*
X5196786Y-9535614D01*
X5225357Y-9521329D01*
X5239643Y-9507043D01*
X5268214Y-9464186D01*
X5282500Y-9407043D01*
X5282500Y-9292757D01*
X5268214Y-9264186D01*
X5253928Y-9249900D01*
X5225357Y-9235614D01*
X5168214Y-9235614D01*
X5139643Y-9249900D01*
X5125357Y-9264186D01*
X5111071Y-9292757D01*
X5111071Y-9364186D01*
X5125357Y-9392757D01*
X5139643Y-9407043D01*
X5168214Y-9421329D01*
X5225357Y-9421329D01*
X5253928Y-9407043D01*
X5268214Y-9392757D01*
X5282500Y-9364186D01*
X5396786Y-9235614D02*
X5396786Y-9292757D01*
X5511071Y-9235614D02*
X5511071Y-9292757D01*
X5953928Y-9649900D02*
X5939643Y-9635614D01*
X5911071Y-9592757D01*
X5896786Y-9564186D01*
X5882500Y-9521329D01*
X5868214Y-9449900D01*
X5868214Y-9392757D01*
X5882500Y-9321329D01*
X5896786Y-9278472D01*
X5911071Y-9249900D01*
X5939643Y-9207043D01*
X5953928Y-9192757D01*
X6225357Y-9535614D02*
X6053928Y-9535614D01*
X6139643Y-9535614D02*
X6139643Y-9235614D01*
X6111071Y-9278472D01*
X6082500Y-9307043D01*
X6053928Y-9321329D01*
X6411071Y-9235614D02*
X6439643Y-9235614D01*
X6468214Y-9249900D01*
X6482500Y-9264186D01*
X6496786Y-9292757D01*
X6511071Y-9349900D01*
X6511071Y-9421329D01*
X6496786Y-9478472D01*
X6482500Y-9507043D01*
X6468214Y-9521329D01*
X6439643Y-9535614D01*
X6411071Y-9535614D01*
X6382500Y-9521329D01*
X6368214Y-9507043D01*
X6353928Y-9478472D01*
X6339643Y-9421329D01*
X6339643Y-9349900D01*
X6353928Y-9292757D01*
X6368214Y-9264186D01*
X6382500Y-9249900D01*
X6411071Y-9235614D01*
X6696786Y-9235614D02*
X6725357Y-9235614D01*
X6753928Y-9249900D01*
X6768214Y-9264186D01*
X6782500Y-9292757D01*
X6796786Y-9349900D01*
X6796786Y-9421329D01*
X6782500Y-9478472D01*
X6768214Y-9507043D01*
X6753928Y-9521329D01*
X6725357Y-9535614D01*
X6696786Y-9535614D01*
X6668214Y-9521329D01*
X6653928Y-9507043D01*
X6639643Y-9478472D01*
X6625357Y-9421329D01*
X6625357Y-9349900D01*
X6639643Y-9292757D01*
X6653928Y-9264186D01*
X6668214Y-9249900D01*
X6696786Y-9235614D01*
X7153928Y-9535614D02*
X7153928Y-9235614D01*
X7282500Y-9535614D02*
X7282500Y-9378472D01*
X7268214Y-9349900D01*
X7239643Y-9335614D01*
X7196786Y-9335614D01*
X7168214Y-9349900D01*
X7153928Y-9364186D01*
X7468214Y-9535614D02*
X7439643Y-9521329D01*
X7425357Y-9507043D01*
X7411071Y-9478472D01*
X7411071Y-9392757D01*
X7425357Y-9364186D01*
X7439643Y-9349900D01*
X7468214Y-9335614D01*
X7511071Y-9335614D01*
X7539643Y-9349900D01*
X7553928Y-9364186D01*
X7568214Y-9392757D01*
X7568214Y-9478472D01*
X7553928Y-9507043D01*
X7539643Y-9521329D01*
X7511071Y-9535614D01*
X7468214Y-9535614D01*
X7739643Y-9535614D02*
X7711071Y-9521329D01*
X7696786Y-9492757D01*
X7696786Y-9235614D01*
X7968214Y-9521329D02*
X7939643Y-9535614D01*
X7882500Y-9535614D01*
X7853928Y-9521329D01*
X7839643Y-9492757D01*
X7839643Y-9378472D01*
X7853928Y-9349900D01*
X7882500Y-9335614D01*
X7939643Y-9335614D01*
X7968214Y-9349900D01*
X7982500Y-9378472D01*
X7982500Y-9407043D01*
X7839643Y-9435614D01*
X8096786Y-9521329D02*
X8125357Y-9535614D01*
X8182500Y-9535614D01*
X8211071Y-9521329D01*
X8225357Y-9492757D01*
X8225357Y-9478472D01*
X8211071Y-9449900D01*
X8182500Y-9435614D01*
X8139643Y-9435614D01*
X8111071Y-9421329D01*
X8096786Y-9392757D01*
X8096786Y-9378472D01*
X8111071Y-9349900D01*
X8139643Y-9335614D01*
X8182500Y-9335614D01*
X8211071Y-9349900D01*
X8325357Y-9649900D02*
X8339643Y-9635614D01*
X8368214Y-9592757D01*
X8382500Y-9564186D01*
X8396786Y-9521329D01*
X8411071Y-9449900D01*
X8411071Y-9392757D01*
X8396786Y-9321329D01*
X8382500Y-9278472D01*
X8368214Y-9249900D01*
X8339643Y-9207043D01*
X8325357Y-9192757D01*
X1252621Y-9831822D02*
X1252621Y-9759979D01*
X1180779Y-9759979D01*
X1180779Y-9831822D01*
X1252621Y-9831822D01*
X1711071Y-9931614D02*
X1539643Y-9931614D01*
X1625357Y-9931614D02*
X1625357Y-9631614D01*
X1596786Y-9674472D01*
X1568214Y-9703043D01*
X1539643Y-9717329D01*
X1839643Y-9903043D02*
X1853928Y-9917329D01*
X1839643Y-9931614D01*
X1825357Y-9917329D01*
X1839643Y-9903043D01*
X1839643Y-9931614D01*
X2039643Y-9631614D02*
X2068214Y-9631614D01*
X2096786Y-9645900D01*
X2111071Y-9660186D01*
X2125357Y-9688757D01*
X2139643Y-9745900D01*
X2139643Y-9817329D01*
X2125357Y-9874472D01*
X2111071Y-9903043D01*
X2096786Y-9917329D01*
X2068214Y-9931614D01*
X2039643Y-9931614D01*
X2011071Y-9917329D01*
X1996786Y-9903043D01*
X1982500Y-9874472D01*
X1968214Y-9817329D01*
X1968214Y-9745900D01*
X1982500Y-9688757D01*
X1996786Y-9660186D01*
X2011071Y-9645900D01*
X2039643Y-9631614D01*
X2253928Y-9660186D02*
X2268214Y-9645900D01*
X2296786Y-9631614D01*
X2368214Y-9631614D01*
X2396786Y-9645900D01*
X2411071Y-9660186D01*
X2425357Y-9688757D01*
X2425357Y-9717329D01*
X2411071Y-9760186D01*
X2239643Y-9931614D01*
X2425357Y-9931614D01*
X2553928Y-9931614D02*
X2553928Y-9731614D01*
X2553928Y-9760186D02*
X2568214Y-9745900D01*
X2596786Y-9731614D01*
X2639643Y-9731614D01*
X2668214Y-9745900D01*
X2682500Y-9774472D01*
X2682500Y-9931614D01*
X2682500Y-9774472D02*
X2696786Y-9745900D01*
X2725357Y-9731614D01*
X2768214Y-9731614D01*
X2796786Y-9745900D01*
X2811071Y-9774472D01*
X2811071Y-9931614D01*
X2953928Y-9931614D02*
X2953928Y-9731614D01*
X2953928Y-9760186D02*
X2968214Y-9745900D01*
X2996786Y-9731614D01*
X3039643Y-9731614D01*
X3068214Y-9745900D01*
X3082500Y-9774472D01*
X3082500Y-9931614D01*
X3082500Y-9774472D02*
X3096786Y-9745900D01*
X3125357Y-9731614D01*
X3168214Y-9731614D01*
X3196786Y-9745900D01*
X3211071Y-9774472D01*
X3211071Y-9931614D01*
X3796786Y-9617329D02*
X3539643Y-10003043D01*
X4182500Y-9631614D02*
X4211071Y-9631614D01*
X4239643Y-9645900D01*
X4253928Y-9660186D01*
X4268214Y-9688757D01*
X4282500Y-9745900D01*
X4282500Y-9817329D01*
X4268214Y-9874472D01*
X4253928Y-9903043D01*
X4239643Y-9917329D01*
X4211071Y-9931614D01*
X4182500Y-9931614D01*
X4153928Y-9917329D01*
X4139643Y-9903043D01*
X4125357Y-9874472D01*
X4111071Y-9817329D01*
X4111071Y-9745900D01*
X4125357Y-9688757D01*
X4139643Y-9660186D01*
X4153928Y-9645900D01*
X4182500Y-9631614D01*
X4411071Y-9903043D02*
X4425357Y-9917329D01*
X4411071Y-9931614D01*
X4396786Y-9917329D01*
X4411071Y-9903043D01*
X4411071Y-9931614D01*
X4611071Y-9631614D02*
X4639643Y-9631614D01*
X4668214Y-9645900D01*
X4682500Y-9660186D01*
X4696786Y-9688757D01*
X4711071Y-9745900D01*
X4711071Y-9817329D01*
X4696786Y-9874472D01*
X4682500Y-9903043D01*
X4668214Y-9917329D01*
X4639643Y-9931614D01*
X4611071Y-9931614D01*
X4582500Y-9917329D01*
X4568214Y-9903043D01*
X4553928Y-9874472D01*
X4539643Y-9817329D01*
X4539643Y-9745900D01*
X4553928Y-9688757D01*
X4568214Y-9660186D01*
X4582500Y-9645900D01*
X4611071Y-9631614D01*
X4968214Y-9731614D02*
X4968214Y-9931614D01*
X4896786Y-9617329D02*
X4825357Y-9831614D01*
X5011071Y-9831614D01*
X5182500Y-9631614D02*
X5211071Y-9631614D01*
X5239643Y-9645900D01*
X5253928Y-9660186D01*
X5268214Y-9688757D01*
X5282500Y-9745900D01*
X5282500Y-9817329D01*
X5268214Y-9874472D01*
X5253928Y-9903043D01*
X5239643Y-9917329D01*
X5211071Y-9931614D01*
X5182500Y-9931614D01*
X5153928Y-9917329D01*
X5139643Y-9903043D01*
X5125357Y-9874472D01*
X5111071Y-9817329D01*
X5111071Y-9745900D01*
X5125357Y-9688757D01*
X5139643Y-9660186D01*
X5153928Y-9645900D01*
X5182500Y-9631614D01*
X5396786Y-9631614D02*
X5396786Y-9688757D01*
X5511071Y-9631614D02*
X5511071Y-9688757D01*
X5953928Y-10045900D02*
X5939643Y-10031614D01*
X5911071Y-9988757D01*
X5896786Y-9960186D01*
X5882500Y-9917329D01*
X5868214Y-9845900D01*
X5868214Y-9788757D01*
X5882500Y-9717329D01*
X5896786Y-9674472D01*
X5911071Y-9645900D01*
X5939643Y-9603043D01*
X5953928Y-9588757D01*
X6125357Y-9631614D02*
X6153928Y-9631614D01*
X6182500Y-9645900D01*
X6196786Y-9660186D01*
X6211071Y-9688757D01*
X6225357Y-9745900D01*
X6225357Y-9817329D01*
X6211071Y-9874472D01*
X6196786Y-9903043D01*
X6182500Y-9917329D01*
X6153928Y-9931614D01*
X6125357Y-9931614D01*
X6096786Y-9917329D01*
X6082500Y-9903043D01*
X6068214Y-9874472D01*
X6053928Y-9817329D01*
X6053928Y-9745900D01*
X6068214Y-9688757D01*
X6082500Y-9660186D01*
X6096786Y-9645900D01*
X6125357Y-9631614D01*
X6582500Y-9931614D02*
X6582500Y-9631614D01*
X6711071Y-9931614D02*
X6711071Y-9774472D01*
X6696786Y-9745900D01*
X6668214Y-9731614D01*
X6625357Y-9731614D01*
X6596786Y-9745900D01*
X6582500Y-9760186D01*
X6896786Y-9931614D02*
X6868214Y-9917329D01*
X6853928Y-9903043D01*
X6839643Y-9874472D01*
X6839643Y-9788757D01*
X6853928Y-9760186D01*
X6868214Y-9745900D01*
X6896786Y-9731614D01*
X6939643Y-9731614D01*
X6968214Y-9745900D01*
X6982500Y-9760186D01*
X6996786Y-9788757D01*
X6996786Y-9874472D01*
X6982500Y-9903043D01*
X6968214Y-9917329D01*
X6939643Y-9931614D01*
X6896786Y-9931614D01*
X7168214Y-9931614D02*
X7139643Y-9917329D01*
X7125357Y-9888757D01*
X7125357Y-9631614D01*
X7396786Y-9917329D02*
X7368214Y-9931614D01*
X7311071Y-9931614D01*
X7282500Y-9917329D01*
X7268214Y-9888757D01*
X7268214Y-9774472D01*
X7282500Y-9745900D01*
X7311071Y-9731614D01*
X7368214Y-9731614D01*
X7396786Y-9745900D01*
X7411071Y-9774472D01*
X7411071Y-9803043D01*
X7268214Y-9831614D01*
X7525357Y-9917329D02*
X7553928Y-9931614D01*
X7611071Y-9931614D01*
X7639643Y-9917329D01*
X7653928Y-9888757D01*
X7653928Y-9874472D01*
X7639643Y-9845900D01*
X7611071Y-9831614D01*
X7568214Y-9831614D01*
X7539643Y-9817329D01*
X7525357Y-9788757D01*
X7525357Y-9774472D01*
X7539643Y-9745900D01*
X7568214Y-9731614D01*
X7611071Y-9731614D01*
X7639643Y-9745900D01*
X8011071Y-9817329D02*
X8239643Y-9817329D01*
X8125357Y-9931614D02*
X8125357Y-9703043D01*
X8739643Y-9731614D02*
X8739643Y-9931614D01*
X8668214Y-9617329D02*
X8596786Y-9831614D01*
X8782500Y-9831614D01*
X9111071Y-9917329D02*
X9139643Y-9931614D01*
X9196786Y-9931614D01*
X9225357Y-9917329D01*
X9239643Y-9888757D01*
X9239643Y-9874472D01*
X9225357Y-9845900D01*
X9196786Y-9831614D01*
X9153928Y-9831614D01*
X9125357Y-9817329D01*
X9111071Y-9788757D01*
X9111071Y-9774472D01*
X9125357Y-9745900D01*
X9153928Y-9731614D01*
X9196786Y-9731614D01*
X9225357Y-9745900D01*
X9411071Y-9931614D02*
X9382500Y-9917329D01*
X9368214Y-9888757D01*
X9368214Y-9631614D01*
X9568214Y-9931614D02*
X9539643Y-9917329D01*
X9525357Y-9903043D01*
X9511071Y-9874472D01*
X9511071Y-9788757D01*
X9525357Y-9760186D01*
X9539643Y-9745900D01*
X9568214Y-9731614D01*
X9611071Y-9731614D01*
X9639643Y-9745900D01*
X9653928Y-9760186D01*
X9668214Y-9788757D01*
X9668214Y-9874472D01*
X9653928Y-9903043D01*
X9639643Y-9917329D01*
X9611071Y-9931614D01*
X9568214Y-9931614D01*
X9753928Y-9731614D02*
X9868214Y-9731614D01*
X9796786Y-9631614D02*
X9796786Y-9888757D01*
X9811071Y-9917329D01*
X9839643Y-9931614D01*
X9868214Y-9931614D01*
X9953928Y-9917329D02*
X9982500Y-9931614D01*
X10039643Y-9931614D01*
X10068214Y-9917329D01*
X10082500Y-9888757D01*
X10082500Y-9874472D01*
X10068214Y-9845900D01*
X10039643Y-9831614D01*
X9996786Y-9831614D01*
X9968214Y-9817329D01*
X9953928Y-9788757D01*
X9953928Y-9774472D01*
X9968214Y-9745900D01*
X9996786Y-9731614D01*
X10039643Y-9731614D01*
X10068214Y-9745900D01*
X10182500Y-10045900D02*
X10196786Y-10031614D01*
X10225357Y-9988757D01*
X10239643Y-9960186D01*
X10253928Y-9917329D01*
X10268214Y-9845900D01*
X10268214Y-9788757D01*
X10253928Y-9717329D01*
X10239643Y-9674472D01*
X10225357Y-9645900D01*
X10196786Y-9603043D01*
X10182500Y-9588757D01*
M02*
