M48
; DRILL file {KiCad (5.99.0-3349-gc9824bbd9)} date Tuesday, September 22, 2020 at 10:37:00 AM
; FORMAT={-:-/ absolute / inch / decimal}
; #@! TF.CreationDate,2020-09-22T10:37:00-07:00
; #@! TF.GenerationSoftware,Kicad,Pcbnew,(5.99.0-3349-gc9824bbd9)
; #@! TF.FileFunction,NonPlated,1,4,NPTH
FMAT,2
INCH
T1C0.0217
T2C0.0866
%
G90
G05
T1
X1.2421Y-2.372
X1.2421Y-2.4705
X1.3996Y-3.7894
X1.3996Y-3.8878
X1.7894Y-2.372
X1.7894Y-2.4705
X1.9469Y-3.7894
X1.9469Y-3.8878
X2.2461Y-2.372
X2.2461Y-2.4705
X2.2461Y-3.7894
X2.2461Y-3.8878
X2.7933Y-2.372
X2.7933Y-2.4705
X2.7933Y-3.7894
X2.7933Y-3.8878
X1.2421Y-0.6004
X1.2421Y-0.6988
X1.3996Y-2.0177
X1.3996Y-2.1161
X1.7894Y-0.6004
X1.7894Y-0.6988
X1.9469Y-2.0177
X1.9469Y-2.1161
X2.2461Y-0.6004
X2.2461Y-0.6988
X2.2461Y-2.0177
X2.2461Y-2.1161
X2.7933Y-0.6004
X2.7933Y-0.6988
X2.7933Y-2.0177
X2.7933Y-2.1161
T2
X0.5709Y-2.3425
X0.5709Y-3.9173
X2.9331Y-2.3425
X2.9331Y-3.9173
X0.5709Y-0.5709
X0.5709Y-2.1457
X2.9331Y-0.5709
X2.9331Y-2.1457
T0
M30
