G04 #@! TF.GenerationSoftware,KiCad,Pcbnew,(5.99.0-3349-gc9824bbd9)*
G04 #@! TF.CreationDate,2020-09-22T10:36:58-07:00*
G04 #@! TF.ProjectId,Alchitry_IO_Shield,416c6368-6974-4727-995f-494f5f536869,rev?*
G04 #@! TF.SameCoordinates,Original*
G04 #@! TF.FileFunction,Legend,Top*
G04 #@! TF.FilePolarity,Positive*
%FSLAX46Y46*%
G04 Gerber Fmt 4.6, Leading zero omitted, Abs format (unit mm)*
G04 Created by KiCad (PCBNEW (5.99.0-3349-gc9824bbd9)) date 2020-09-22 10:36:58*
%MOMM*%
%LPD*%
G01*
G04 APERTURE LIST*
%ADD10C,0.250000*%
%ADD11C,0.150000*%
%ADD12C,0.100000*%
%ADD13C,0.120000*%
%ADD14C,0.127000*%
G04 APERTURE END LIST*
D10*
X14548184Y-64452380D02*
X14673184Y-63452380D01*
X15339851Y-63452380D02*
X15530327Y-63452380D01*
X15619613Y-63500000D01*
X15702946Y-63595238D01*
X15726755Y-63785714D01*
X15685089Y-64119047D01*
X15613660Y-64309523D01*
X15506517Y-64404761D01*
X15405327Y-64452380D01*
X15214851Y-64452380D01*
X15125565Y-64404761D01*
X15042232Y-64309523D01*
X15018422Y-64119047D01*
X15060089Y-63785714D01*
X15131517Y-63595238D01*
X15238660Y-63500000D01*
X15339851Y-63452380D01*
X16792232Y-64404761D02*
X16881517Y-64452380D01*
X17071994Y-64452380D01*
X17173184Y-64404761D01*
X17232708Y-64309523D01*
X17238660Y-64261904D01*
X17202946Y-64166666D01*
X17113660Y-64119047D01*
X16970803Y-64119047D01*
X16881517Y-64071428D01*
X16845803Y-63976190D01*
X16851755Y-63928571D01*
X16911279Y-63833333D01*
X17012470Y-63785714D01*
X17155327Y-63785714D01*
X17244613Y-63833333D01*
X17643422Y-64452380D02*
X17768422Y-63452380D01*
X18071994Y-64452380D02*
X18137470Y-63928571D01*
X18101755Y-63833333D01*
X18012470Y-63785714D01*
X17869613Y-63785714D01*
X17768422Y-63833333D01*
X17714851Y-63880952D01*
X18548184Y-64452380D02*
X18631517Y-63785714D01*
X18673184Y-63452380D02*
X18619613Y-63500000D01*
X18661279Y-63547619D01*
X18714851Y-63500000D01*
X18673184Y-63452380D01*
X18661279Y-63547619D01*
X19411279Y-64404761D02*
X19310089Y-64452380D01*
X19119613Y-64452380D01*
X19030327Y-64404761D01*
X18994613Y-64309523D01*
X19042232Y-63928571D01*
X19101755Y-63833333D01*
X19202946Y-63785714D01*
X19393422Y-63785714D01*
X19482708Y-63833333D01*
X19518422Y-63928571D01*
X19506517Y-64023809D01*
X19018422Y-64119047D01*
X20024375Y-64452380D02*
X19935089Y-64404761D01*
X19899375Y-64309523D01*
X20006517Y-63452380D01*
X20833898Y-64452380D02*
X20958898Y-63452380D01*
X20839851Y-64404761D02*
X20738660Y-64452380D01*
X20548184Y-64452380D01*
X20458898Y-64404761D01*
X20417232Y-64357142D01*
X20381517Y-64261904D01*
X20417232Y-63976190D01*
X20476755Y-63880952D01*
X20530327Y-63833333D01*
X20631517Y-63785714D01*
X20821994Y-63785714D01*
X20911279Y-63833333D01*
X22119613Y-64071428D02*
X22881517Y-64071428D01*
X22452946Y-64452380D02*
X22548184Y-63690476D01*
X24071994Y-64452380D02*
X24196994Y-63452380D01*
X24137470Y-63928571D02*
X24708898Y-63928571D01*
X24643422Y-64452380D02*
X24768422Y-63452380D01*
X25119613Y-64452380D02*
X25244613Y-63452380D01*
X25482708Y-63452380D01*
X25619613Y-63500000D01*
X25702946Y-63595238D01*
X25738660Y-63690476D01*
X25762470Y-63880952D01*
X25744613Y-64023809D01*
X25673184Y-64214285D01*
X25613660Y-64309523D01*
X25506517Y-64404761D01*
X25357708Y-64452380D01*
X25119613Y-64452380D01*
X26119613Y-64452380D02*
X26244613Y-63452380D01*
X26488660Y-64166666D01*
X26911279Y-63452380D01*
X26786279Y-64452380D01*
X27262470Y-64452380D02*
X27387470Y-63452380D01*
X19506517Y-65062380D02*
X19714851Y-66062380D01*
X20173184Y-65062380D01*
X20893422Y-65395714D02*
X20810089Y-66062380D01*
X20702946Y-65014761D02*
X20375565Y-65729047D01*
X20994613Y-65729047D01*
X21345803Y-65967142D02*
X21387470Y-66014761D01*
X21333898Y-66062380D01*
X21292232Y-66014761D01*
X21345803Y-65967142D01*
X21333898Y-66062380D01*
X22125565Y-65062380D02*
X22220803Y-65062380D01*
X22310089Y-65110000D01*
X22351755Y-65157619D01*
X22387470Y-65252857D01*
X22411279Y-65443333D01*
X22381517Y-65681428D01*
X22310089Y-65871904D01*
X22250565Y-65967142D01*
X22196994Y-66014761D01*
X22095803Y-66062380D01*
X22000565Y-66062380D01*
X21911279Y-66014761D01*
X21869613Y-65967142D01*
X21833898Y-65871904D01*
X21810089Y-65681428D01*
X21839851Y-65443333D01*
X21911279Y-65252857D01*
X21970803Y-65157619D01*
X22024375Y-65110000D01*
X22125565Y-65062380D01*
X14548184Y-19452380D02*
X14673184Y-18452380D01*
X15339851Y-18452380D02*
X15530327Y-18452380D01*
X15619613Y-18500000D01*
X15702946Y-18595238D01*
X15726755Y-18785714D01*
X15685089Y-19119047D01*
X15613660Y-19309523D01*
X15506517Y-19404761D01*
X15405327Y-19452380D01*
X15214851Y-19452380D01*
X15125565Y-19404761D01*
X15042232Y-19309523D01*
X15018422Y-19119047D01*
X15060089Y-18785714D01*
X15131517Y-18595238D01*
X15238660Y-18500000D01*
X15339851Y-18452380D01*
X16792232Y-19404761D02*
X16881517Y-19452380D01*
X17071994Y-19452380D01*
X17173184Y-19404761D01*
X17232708Y-19309523D01*
X17238660Y-19261904D01*
X17202946Y-19166666D01*
X17113660Y-19119047D01*
X16970803Y-19119047D01*
X16881517Y-19071428D01*
X16845803Y-18976190D01*
X16851755Y-18928571D01*
X16911279Y-18833333D01*
X17012470Y-18785714D01*
X17155327Y-18785714D01*
X17244613Y-18833333D01*
X17643422Y-19452380D02*
X17768422Y-18452380D01*
X18071994Y-19452380D02*
X18137470Y-18928571D01*
X18101755Y-18833333D01*
X18012470Y-18785714D01*
X17869613Y-18785714D01*
X17768422Y-18833333D01*
X17714851Y-18880952D01*
X18548184Y-19452380D02*
X18631517Y-18785714D01*
X18673184Y-18452380D02*
X18619613Y-18500000D01*
X18661279Y-18547619D01*
X18714851Y-18500000D01*
X18673184Y-18452380D01*
X18661279Y-18547619D01*
X19411279Y-19404761D02*
X19310089Y-19452380D01*
X19119613Y-19452380D01*
X19030327Y-19404761D01*
X18994613Y-19309523D01*
X19042232Y-18928571D01*
X19101755Y-18833333D01*
X19202946Y-18785714D01*
X19393422Y-18785714D01*
X19482708Y-18833333D01*
X19518422Y-18928571D01*
X19506517Y-19023809D01*
X19018422Y-19119047D01*
X20024375Y-19452380D02*
X19935089Y-19404761D01*
X19899375Y-19309523D01*
X20006517Y-18452380D01*
X20833898Y-19452380D02*
X20958898Y-18452380D01*
X20839851Y-19404761D02*
X20738660Y-19452380D01*
X20548184Y-19452380D01*
X20458898Y-19404761D01*
X20417232Y-19357142D01*
X20381517Y-19261904D01*
X20417232Y-18976190D01*
X20476755Y-18880952D01*
X20530327Y-18833333D01*
X20631517Y-18785714D01*
X20821994Y-18785714D01*
X20911279Y-18833333D01*
X22119613Y-19071428D02*
X22881517Y-19071428D01*
X22452946Y-19452380D02*
X22548184Y-18690476D01*
X24071994Y-19452380D02*
X24196994Y-18452380D01*
X24137470Y-18928571D02*
X24708898Y-18928571D01*
X24643422Y-19452380D02*
X24768422Y-18452380D01*
X25119613Y-19452380D02*
X25244613Y-18452380D01*
X25482708Y-18452380D01*
X25619613Y-18500000D01*
X25702946Y-18595238D01*
X25738660Y-18690476D01*
X25762470Y-18880952D01*
X25744613Y-19023809D01*
X25673184Y-19214285D01*
X25613660Y-19309523D01*
X25506517Y-19404761D01*
X25357708Y-19452380D01*
X25119613Y-19452380D01*
X26119613Y-19452380D02*
X26244613Y-18452380D01*
X26488660Y-19166666D01*
X26911279Y-18452380D01*
X26786279Y-19452380D01*
X27262470Y-19452380D02*
X27387470Y-18452380D01*
X19506517Y-20062380D02*
X19714851Y-21062380D01*
X20173184Y-20062380D01*
X20893422Y-20395714D02*
X20810089Y-21062380D01*
X20702946Y-20014761D02*
X20375565Y-20729047D01*
X20994613Y-20729047D01*
X21345803Y-20967142D02*
X21387470Y-21014761D01*
X21333898Y-21062380D01*
X21292232Y-21014761D01*
X21345803Y-20967142D01*
X21333898Y-21062380D01*
X22125565Y-20062380D02*
X22220803Y-20062380D01*
X22310089Y-20110000D01*
X22351755Y-20157619D01*
X22387470Y-20252857D01*
X22411279Y-20443333D01*
X22381517Y-20681428D01*
X22310089Y-20871904D01*
X22250565Y-20967142D01*
X22196994Y-21014761D01*
X22095803Y-21062380D01*
X22000565Y-21062380D01*
X21911279Y-21014761D01*
X21869613Y-20967142D01*
X21833898Y-20871904D01*
X21810089Y-20681428D01*
X21839851Y-20443333D01*
X21911279Y-20252857D01*
X21970803Y-20157619D01*
X22024375Y-20110000D01*
X22125565Y-20062380D01*
D11*
X33910714Y-67022380D02*
X33910714Y-66022380D01*
X34148809Y-66022380D01*
X34291666Y-66070000D01*
X34386904Y-66165238D01*
X34434523Y-66260476D01*
X34482142Y-66450952D01*
X34482142Y-66593809D01*
X34434523Y-66784285D01*
X34386904Y-66879523D01*
X34291666Y-66974761D01*
X34148809Y-67022380D01*
X33910714Y-67022380D01*
X34863095Y-66117619D02*
X34910714Y-66070000D01*
X35005952Y-66022380D01*
X35244047Y-66022380D01*
X35339285Y-66070000D01*
X35386904Y-66117619D01*
X35434523Y-66212857D01*
X35434523Y-66308095D01*
X35386904Y-66450952D01*
X34815476Y-67022380D01*
X35434523Y-67022380D01*
X35767857Y-66022380D02*
X36386904Y-66022380D01*
X36053571Y-66403333D01*
X36196428Y-66403333D01*
X36291666Y-66450952D01*
X36339285Y-66498571D01*
X36386904Y-66593809D01*
X36386904Y-66831904D01*
X36339285Y-66927142D01*
X36291666Y-66974761D01*
X36196428Y-67022380D01*
X35910714Y-67022380D01*
X35815476Y-66974761D01*
X35767857Y-66927142D01*
X37910714Y-67022380D02*
X37910714Y-66022380D01*
X38148809Y-66022380D01*
X38291666Y-66070000D01*
X38386904Y-66165238D01*
X38434523Y-66260476D01*
X38482142Y-66450952D01*
X38482142Y-66593809D01*
X38434523Y-66784285D01*
X38386904Y-66879523D01*
X38291666Y-66974761D01*
X38148809Y-67022380D01*
X37910714Y-67022380D01*
X38863095Y-66117619D02*
X38910714Y-66070000D01*
X39005952Y-66022380D01*
X39244047Y-66022380D01*
X39339285Y-66070000D01*
X39386904Y-66117619D01*
X39434523Y-66212857D01*
X39434523Y-66308095D01*
X39386904Y-66450952D01*
X38815476Y-67022380D01*
X39434523Y-67022380D01*
X39815476Y-66117619D02*
X39863095Y-66070000D01*
X39958333Y-66022380D01*
X40196428Y-66022380D01*
X40291666Y-66070000D01*
X40339285Y-66117619D01*
X40386904Y-66212857D01*
X40386904Y-66308095D01*
X40339285Y-66450952D01*
X39767857Y-67022380D01*
X40386904Y-67022380D01*
X29910714Y-67022380D02*
X29910714Y-66022380D01*
X30148809Y-66022380D01*
X30291666Y-66070000D01*
X30386904Y-66165238D01*
X30434523Y-66260476D01*
X30482142Y-66450952D01*
X30482142Y-66593809D01*
X30434523Y-66784285D01*
X30386904Y-66879523D01*
X30291666Y-66974761D01*
X30148809Y-67022380D01*
X29910714Y-67022380D01*
X30863095Y-66117619D02*
X30910714Y-66070000D01*
X31005952Y-66022380D01*
X31244047Y-66022380D01*
X31339285Y-66070000D01*
X31386904Y-66117619D01*
X31434523Y-66212857D01*
X31434523Y-66308095D01*
X31386904Y-66450952D01*
X30815476Y-67022380D01*
X31434523Y-67022380D01*
X32291666Y-66355714D02*
X32291666Y-67022380D01*
X32053571Y-65974761D02*
X31815476Y-66689047D01*
X32434523Y-66689047D01*
X41910714Y-67022380D02*
X41910714Y-66022380D01*
X42148809Y-66022380D01*
X42291666Y-66070000D01*
X42386904Y-66165238D01*
X42434523Y-66260476D01*
X42482142Y-66450952D01*
X42482142Y-66593809D01*
X42434523Y-66784285D01*
X42386904Y-66879523D01*
X42291666Y-66974761D01*
X42148809Y-67022380D01*
X41910714Y-67022380D01*
X42863095Y-66117619D02*
X42910714Y-66070000D01*
X43005952Y-66022380D01*
X43244047Y-66022380D01*
X43339285Y-66070000D01*
X43386904Y-66117619D01*
X43434523Y-66212857D01*
X43434523Y-66308095D01*
X43386904Y-66450952D01*
X42815476Y-67022380D01*
X43434523Y-67022380D01*
X44386904Y-67022380D02*
X43815476Y-67022380D01*
X44101190Y-67022380D02*
X44101190Y-66022380D01*
X44005952Y-66165238D01*
X43910714Y-66260476D01*
X43815476Y-66308095D01*
X29910714Y-70022380D02*
X29910714Y-69022380D01*
X30148809Y-69022380D01*
X30291666Y-69070000D01*
X30386904Y-69165238D01*
X30434523Y-69260476D01*
X30482142Y-69450952D01*
X30482142Y-69593809D01*
X30434523Y-69784285D01*
X30386904Y-69879523D01*
X30291666Y-69974761D01*
X30148809Y-70022380D01*
X29910714Y-70022380D01*
X30863095Y-69117619D02*
X30910714Y-69070000D01*
X31005952Y-69022380D01*
X31244047Y-69022380D01*
X31339285Y-69070000D01*
X31386904Y-69117619D01*
X31434523Y-69212857D01*
X31434523Y-69308095D01*
X31386904Y-69450952D01*
X30815476Y-70022380D01*
X31434523Y-70022380D01*
X32053571Y-69022380D02*
X32148809Y-69022380D01*
X32244047Y-69070000D01*
X32291666Y-69117619D01*
X32339285Y-69212857D01*
X32386904Y-69403333D01*
X32386904Y-69641428D01*
X32339285Y-69831904D01*
X32291666Y-69927142D01*
X32244047Y-69974761D01*
X32148809Y-70022380D01*
X32053571Y-70022380D01*
X31958333Y-69974761D01*
X31910714Y-69927142D01*
X31863095Y-69831904D01*
X31815476Y-69641428D01*
X31815476Y-69403333D01*
X31863095Y-69212857D01*
X31910714Y-69117619D01*
X31958333Y-69070000D01*
X32053571Y-69022380D01*
X33910714Y-70022380D02*
X33910714Y-69022380D01*
X34148809Y-69022380D01*
X34291666Y-69070000D01*
X34386904Y-69165238D01*
X34434523Y-69260476D01*
X34482142Y-69450952D01*
X34482142Y-69593809D01*
X34434523Y-69784285D01*
X34386904Y-69879523D01*
X34291666Y-69974761D01*
X34148809Y-70022380D01*
X33910714Y-70022380D01*
X35434523Y-70022380D02*
X34863095Y-70022380D01*
X35148809Y-70022380D02*
X35148809Y-69022380D01*
X35053571Y-69165238D01*
X34958333Y-69260476D01*
X34863095Y-69308095D01*
X35910714Y-70022380D02*
X36101190Y-70022380D01*
X36196428Y-69974761D01*
X36244047Y-69927142D01*
X36339285Y-69784285D01*
X36386904Y-69593809D01*
X36386904Y-69212857D01*
X36339285Y-69117619D01*
X36291666Y-69070000D01*
X36196428Y-69022380D01*
X36005952Y-69022380D01*
X35910714Y-69070000D01*
X35863095Y-69117619D01*
X35815476Y-69212857D01*
X35815476Y-69450952D01*
X35863095Y-69546190D01*
X35910714Y-69593809D01*
X36005952Y-69641428D01*
X36196428Y-69641428D01*
X36291666Y-69593809D01*
X36339285Y-69546190D01*
X36386904Y-69450952D01*
X37910714Y-70022380D02*
X37910714Y-69022380D01*
X38148809Y-69022380D01*
X38291666Y-69070000D01*
X38386904Y-69165238D01*
X38434523Y-69260476D01*
X38482142Y-69450952D01*
X38482142Y-69593809D01*
X38434523Y-69784285D01*
X38386904Y-69879523D01*
X38291666Y-69974761D01*
X38148809Y-70022380D01*
X37910714Y-70022380D01*
X39434523Y-70022380D02*
X38863095Y-70022380D01*
X39148809Y-70022380D02*
X39148809Y-69022380D01*
X39053571Y-69165238D01*
X38958333Y-69260476D01*
X38863095Y-69308095D01*
X40005952Y-69450952D02*
X39910714Y-69403333D01*
X39863095Y-69355714D01*
X39815476Y-69260476D01*
X39815476Y-69212857D01*
X39863095Y-69117619D01*
X39910714Y-69070000D01*
X40005952Y-69022380D01*
X40196428Y-69022380D01*
X40291666Y-69070000D01*
X40339285Y-69117619D01*
X40386904Y-69212857D01*
X40386904Y-69260476D01*
X40339285Y-69355714D01*
X40291666Y-69403333D01*
X40196428Y-69450952D01*
X40005952Y-69450952D01*
X39910714Y-69498571D01*
X39863095Y-69546190D01*
X39815476Y-69641428D01*
X39815476Y-69831904D01*
X39863095Y-69927142D01*
X39910714Y-69974761D01*
X40005952Y-70022380D01*
X40196428Y-70022380D01*
X40291666Y-69974761D01*
X40339285Y-69927142D01*
X40386904Y-69831904D01*
X40386904Y-69641428D01*
X40339285Y-69546190D01*
X40291666Y-69498571D01*
X40196428Y-69450952D01*
X41910714Y-70022380D02*
X41910714Y-69022380D01*
X42148809Y-69022380D01*
X42291666Y-69070000D01*
X42386904Y-69165238D01*
X42434523Y-69260476D01*
X42482142Y-69450952D01*
X42482142Y-69593809D01*
X42434523Y-69784285D01*
X42386904Y-69879523D01*
X42291666Y-69974761D01*
X42148809Y-70022380D01*
X41910714Y-70022380D01*
X43434523Y-70022380D02*
X42863095Y-70022380D01*
X43148809Y-70022380D02*
X43148809Y-69022380D01*
X43053571Y-69165238D01*
X42958333Y-69260476D01*
X42863095Y-69308095D01*
X43767857Y-69022380D02*
X44434523Y-69022380D01*
X44005952Y-70022380D01*
X29910714Y-73022380D02*
X29910714Y-72022380D01*
X30148809Y-72022380D01*
X30291666Y-72070000D01*
X30386904Y-72165238D01*
X30434523Y-72260476D01*
X30482142Y-72450952D01*
X30482142Y-72593809D01*
X30434523Y-72784285D01*
X30386904Y-72879523D01*
X30291666Y-72974761D01*
X30148809Y-73022380D01*
X29910714Y-73022380D01*
X31434523Y-73022380D02*
X30863095Y-73022380D01*
X31148809Y-73022380D02*
X31148809Y-72022380D01*
X31053571Y-72165238D01*
X30958333Y-72260476D01*
X30863095Y-72308095D01*
X32291666Y-72022380D02*
X32101190Y-72022380D01*
X32005952Y-72070000D01*
X31958333Y-72117619D01*
X31863095Y-72260476D01*
X31815476Y-72450952D01*
X31815476Y-72831904D01*
X31863095Y-72927142D01*
X31910714Y-72974761D01*
X32005952Y-73022380D01*
X32196428Y-73022380D01*
X32291666Y-72974761D01*
X32339285Y-72927142D01*
X32386904Y-72831904D01*
X32386904Y-72593809D01*
X32339285Y-72498571D01*
X32291666Y-72450952D01*
X32196428Y-72403333D01*
X32005952Y-72403333D01*
X31910714Y-72450952D01*
X31863095Y-72498571D01*
X31815476Y-72593809D01*
X34386904Y-82022380D02*
X34386904Y-81022380D01*
X34625000Y-81022380D01*
X34767857Y-81070000D01*
X34863095Y-81165238D01*
X34910714Y-81260476D01*
X34958333Y-81450952D01*
X34958333Y-81593809D01*
X34910714Y-81784285D01*
X34863095Y-81879523D01*
X34767857Y-81974761D01*
X34625000Y-82022380D01*
X34386904Y-82022380D01*
X35291666Y-81022380D02*
X35910714Y-81022380D01*
X35577380Y-81403333D01*
X35720238Y-81403333D01*
X35815476Y-81450952D01*
X35863095Y-81498571D01*
X35910714Y-81593809D01*
X35910714Y-81831904D01*
X35863095Y-81927142D01*
X35815476Y-81974761D01*
X35720238Y-82022380D01*
X35434523Y-82022380D01*
X35339285Y-81974761D01*
X35291666Y-81927142D01*
X37910714Y-76022380D02*
X37910714Y-75022380D01*
X38148809Y-75022380D01*
X38291666Y-75070000D01*
X38386904Y-75165238D01*
X38434523Y-75260476D01*
X38482142Y-75450952D01*
X38482142Y-75593809D01*
X38434523Y-75784285D01*
X38386904Y-75879523D01*
X38291666Y-75974761D01*
X38148809Y-76022380D01*
X37910714Y-76022380D01*
X39434523Y-76022380D02*
X38863095Y-76022380D01*
X39148809Y-76022380D02*
X39148809Y-75022380D01*
X39053571Y-75165238D01*
X38958333Y-75260476D01*
X38863095Y-75308095D01*
X40053571Y-75022380D02*
X40148809Y-75022380D01*
X40244047Y-75070000D01*
X40291666Y-75117619D01*
X40339285Y-75212857D01*
X40386904Y-75403333D01*
X40386904Y-75641428D01*
X40339285Y-75831904D01*
X40291666Y-75927142D01*
X40244047Y-75974761D01*
X40148809Y-76022380D01*
X40053571Y-76022380D01*
X39958333Y-75974761D01*
X39910714Y-75927142D01*
X39863095Y-75831904D01*
X39815476Y-75641428D01*
X39815476Y-75403333D01*
X39863095Y-75212857D01*
X39910714Y-75117619D01*
X39958333Y-75070000D01*
X40053571Y-75022380D01*
X33910714Y-73022380D02*
X33910714Y-72022380D01*
X34148809Y-72022380D01*
X34291666Y-72070000D01*
X34386904Y-72165238D01*
X34434523Y-72260476D01*
X34482142Y-72450952D01*
X34482142Y-72593809D01*
X34434523Y-72784285D01*
X34386904Y-72879523D01*
X34291666Y-72974761D01*
X34148809Y-73022380D01*
X33910714Y-73022380D01*
X35434523Y-73022380D02*
X34863095Y-73022380D01*
X35148809Y-73022380D02*
X35148809Y-72022380D01*
X35053571Y-72165238D01*
X34958333Y-72260476D01*
X34863095Y-72308095D01*
X36339285Y-72022380D02*
X35863095Y-72022380D01*
X35815476Y-72498571D01*
X35863095Y-72450952D01*
X35958333Y-72403333D01*
X36196428Y-72403333D01*
X36291666Y-72450952D01*
X36339285Y-72498571D01*
X36386904Y-72593809D01*
X36386904Y-72831904D01*
X36339285Y-72927142D01*
X36291666Y-72974761D01*
X36196428Y-73022380D01*
X35958333Y-73022380D01*
X35863095Y-72974761D01*
X35815476Y-72927142D01*
X38386904Y-79022380D02*
X38386904Y-78022380D01*
X38625000Y-78022380D01*
X38767857Y-78070000D01*
X38863095Y-78165238D01*
X38910714Y-78260476D01*
X38958333Y-78450952D01*
X38958333Y-78593809D01*
X38910714Y-78784285D01*
X38863095Y-78879523D01*
X38767857Y-78974761D01*
X38625000Y-79022380D01*
X38386904Y-79022380D01*
X39815476Y-78022380D02*
X39625000Y-78022380D01*
X39529761Y-78070000D01*
X39482142Y-78117619D01*
X39386904Y-78260476D01*
X39339285Y-78450952D01*
X39339285Y-78831904D01*
X39386904Y-78927142D01*
X39434523Y-78974761D01*
X39529761Y-79022380D01*
X39720238Y-79022380D01*
X39815476Y-78974761D01*
X39863095Y-78927142D01*
X39910714Y-78831904D01*
X39910714Y-78593809D01*
X39863095Y-78498571D01*
X39815476Y-78450952D01*
X39720238Y-78403333D01*
X39529761Y-78403333D01*
X39434523Y-78450952D01*
X39386904Y-78498571D01*
X39339285Y-78593809D01*
X42386904Y-79022380D02*
X42386904Y-78022380D01*
X42625000Y-78022380D01*
X42767857Y-78070000D01*
X42863095Y-78165238D01*
X42910714Y-78260476D01*
X42958333Y-78450952D01*
X42958333Y-78593809D01*
X42910714Y-78784285D01*
X42863095Y-78879523D01*
X42767857Y-78974761D01*
X42625000Y-79022380D01*
X42386904Y-79022380D01*
X43863095Y-78022380D02*
X43386904Y-78022380D01*
X43339285Y-78498571D01*
X43386904Y-78450952D01*
X43482142Y-78403333D01*
X43720238Y-78403333D01*
X43815476Y-78450952D01*
X43863095Y-78498571D01*
X43910714Y-78593809D01*
X43910714Y-78831904D01*
X43863095Y-78927142D01*
X43815476Y-78974761D01*
X43720238Y-79022380D01*
X43482142Y-79022380D01*
X43386904Y-78974761D01*
X43339285Y-78927142D01*
X34386904Y-79022380D02*
X34386904Y-78022380D01*
X34625000Y-78022380D01*
X34767857Y-78070000D01*
X34863095Y-78165238D01*
X34910714Y-78260476D01*
X34958333Y-78450952D01*
X34958333Y-78593809D01*
X34910714Y-78784285D01*
X34863095Y-78879523D01*
X34767857Y-78974761D01*
X34625000Y-79022380D01*
X34386904Y-79022380D01*
X35291666Y-78022380D02*
X35958333Y-78022380D01*
X35529761Y-79022380D01*
X41910714Y-73022380D02*
X41910714Y-72022380D01*
X42148809Y-72022380D01*
X42291666Y-72070000D01*
X42386904Y-72165238D01*
X42434523Y-72260476D01*
X42482142Y-72450952D01*
X42482142Y-72593809D01*
X42434523Y-72784285D01*
X42386904Y-72879523D01*
X42291666Y-72974761D01*
X42148809Y-73022380D01*
X41910714Y-73022380D01*
X43434523Y-73022380D02*
X42863095Y-73022380D01*
X43148809Y-73022380D02*
X43148809Y-72022380D01*
X43053571Y-72165238D01*
X42958333Y-72260476D01*
X42863095Y-72308095D01*
X43767857Y-72022380D02*
X44386904Y-72022380D01*
X44053571Y-72403333D01*
X44196428Y-72403333D01*
X44291666Y-72450952D01*
X44339285Y-72498571D01*
X44386904Y-72593809D01*
X44386904Y-72831904D01*
X44339285Y-72927142D01*
X44291666Y-72974761D01*
X44196428Y-73022380D01*
X43910714Y-73022380D01*
X43815476Y-72974761D01*
X43767857Y-72927142D01*
X30386904Y-82022380D02*
X30386904Y-81022380D01*
X30625000Y-81022380D01*
X30767857Y-81070000D01*
X30863095Y-81165238D01*
X30910714Y-81260476D01*
X30958333Y-81450952D01*
X30958333Y-81593809D01*
X30910714Y-81784285D01*
X30863095Y-81879523D01*
X30767857Y-81974761D01*
X30625000Y-82022380D01*
X30386904Y-82022380D01*
X31815476Y-81355714D02*
X31815476Y-82022380D01*
X31577380Y-80974761D02*
X31339285Y-81689047D01*
X31958333Y-81689047D01*
X42386904Y-82022380D02*
X42386904Y-81022380D01*
X42625000Y-81022380D01*
X42767857Y-81070000D01*
X42863095Y-81165238D01*
X42910714Y-81260476D01*
X42958333Y-81450952D01*
X42958333Y-81593809D01*
X42910714Y-81784285D01*
X42863095Y-81879523D01*
X42767857Y-81974761D01*
X42625000Y-82022380D01*
X42386904Y-82022380D01*
X43910714Y-82022380D02*
X43339285Y-82022380D01*
X43625000Y-82022380D02*
X43625000Y-81022380D01*
X43529761Y-81165238D01*
X43434523Y-81260476D01*
X43339285Y-81308095D01*
X38386904Y-82022380D02*
X38386904Y-81022380D01*
X38625000Y-81022380D01*
X38767857Y-81070000D01*
X38863095Y-81165238D01*
X38910714Y-81260476D01*
X38958333Y-81450952D01*
X38958333Y-81593809D01*
X38910714Y-81784285D01*
X38863095Y-81879523D01*
X38767857Y-81974761D01*
X38625000Y-82022380D01*
X38386904Y-82022380D01*
X39339285Y-81117619D02*
X39386904Y-81070000D01*
X39482142Y-81022380D01*
X39720238Y-81022380D01*
X39815476Y-81070000D01*
X39863095Y-81117619D01*
X39910714Y-81212857D01*
X39910714Y-81308095D01*
X39863095Y-81450952D01*
X39291666Y-82022380D01*
X39910714Y-82022380D01*
X33910714Y-76022380D02*
X33910714Y-75022380D01*
X34148809Y-75022380D01*
X34291666Y-75070000D01*
X34386904Y-75165238D01*
X34434523Y-75260476D01*
X34482142Y-75450952D01*
X34482142Y-75593809D01*
X34434523Y-75784285D01*
X34386904Y-75879523D01*
X34291666Y-75974761D01*
X34148809Y-76022380D01*
X33910714Y-76022380D01*
X35434523Y-76022380D02*
X34863095Y-76022380D01*
X35148809Y-76022380D02*
X35148809Y-75022380D01*
X35053571Y-75165238D01*
X34958333Y-75260476D01*
X34863095Y-75308095D01*
X36386904Y-76022380D02*
X35815476Y-76022380D01*
X36101190Y-76022380D02*
X36101190Y-75022380D01*
X36005952Y-75165238D01*
X35910714Y-75260476D01*
X35815476Y-75308095D01*
D12*
X28210952Y-88026190D02*
X28210952Y-87526190D01*
X28330000Y-87526190D01*
X28401428Y-87550000D01*
X28449047Y-87597619D01*
X28472857Y-87645238D01*
X28496666Y-87740476D01*
X28496666Y-87811904D01*
X28472857Y-87907142D01*
X28449047Y-87954761D01*
X28401428Y-88002380D01*
X28330000Y-88026190D01*
X28210952Y-88026190D01*
X28710952Y-88026190D02*
X28710952Y-87526190D01*
X28996666Y-88026190D02*
X28782380Y-87740476D01*
X28996666Y-87526190D02*
X28710952Y-87811904D01*
X29472857Y-88026190D02*
X29187142Y-88026190D01*
X29330000Y-88026190D02*
X29330000Y-87526190D01*
X29282380Y-87597619D01*
X29234761Y-87645238D01*
X29187142Y-87669047D01*
D11*
X37910714Y-73022380D02*
X37910714Y-72022380D01*
X38148809Y-72022380D01*
X38291666Y-72070000D01*
X38386904Y-72165238D01*
X38434523Y-72260476D01*
X38482142Y-72450952D01*
X38482142Y-72593809D01*
X38434523Y-72784285D01*
X38386904Y-72879523D01*
X38291666Y-72974761D01*
X38148809Y-73022380D01*
X37910714Y-73022380D01*
X39434523Y-73022380D02*
X38863095Y-73022380D01*
X39148809Y-73022380D02*
X39148809Y-72022380D01*
X39053571Y-72165238D01*
X38958333Y-72260476D01*
X38863095Y-72308095D01*
X40291666Y-72355714D02*
X40291666Y-73022380D01*
X40053571Y-71974761D02*
X39815476Y-72689047D01*
X40434523Y-72689047D01*
X29910714Y-76022380D02*
X29910714Y-75022380D01*
X30148809Y-75022380D01*
X30291666Y-75070000D01*
X30386904Y-75165238D01*
X30434523Y-75260476D01*
X30482142Y-75450952D01*
X30482142Y-75593809D01*
X30434523Y-75784285D01*
X30386904Y-75879523D01*
X30291666Y-75974761D01*
X30148809Y-76022380D01*
X29910714Y-76022380D01*
X31434523Y-76022380D02*
X30863095Y-76022380D01*
X31148809Y-76022380D02*
X31148809Y-75022380D01*
X31053571Y-75165238D01*
X30958333Y-75260476D01*
X30863095Y-75308095D01*
X31815476Y-75117619D02*
X31863095Y-75070000D01*
X31958333Y-75022380D01*
X32196428Y-75022380D01*
X32291666Y-75070000D01*
X32339285Y-75117619D01*
X32386904Y-75212857D01*
X32386904Y-75308095D01*
X32339285Y-75450952D01*
X31767857Y-76022380D01*
X32386904Y-76022380D01*
X42386904Y-76022380D02*
X42386904Y-75022380D01*
X42625000Y-75022380D01*
X42767857Y-75070000D01*
X42863095Y-75165238D01*
X42910714Y-75260476D01*
X42958333Y-75450952D01*
X42958333Y-75593809D01*
X42910714Y-75784285D01*
X42863095Y-75879523D01*
X42767857Y-75974761D01*
X42625000Y-76022380D01*
X42386904Y-76022380D01*
X43434523Y-76022380D02*
X43625000Y-76022380D01*
X43720238Y-75974761D01*
X43767857Y-75927142D01*
X43863095Y-75784285D01*
X43910714Y-75593809D01*
X43910714Y-75212857D01*
X43863095Y-75117619D01*
X43815476Y-75070000D01*
X43720238Y-75022380D01*
X43529761Y-75022380D01*
X43434523Y-75070000D01*
X43386904Y-75117619D01*
X43339285Y-75212857D01*
X43339285Y-75450952D01*
X43386904Y-75546190D01*
X43434523Y-75593809D01*
X43529761Y-75641428D01*
X43720238Y-75641428D01*
X43815476Y-75593809D01*
X43863095Y-75546190D01*
X43910714Y-75450952D01*
X30386904Y-79022380D02*
X30386904Y-78022380D01*
X30625000Y-78022380D01*
X30767857Y-78070000D01*
X30863095Y-78165238D01*
X30910714Y-78260476D01*
X30958333Y-78450952D01*
X30958333Y-78593809D01*
X30910714Y-78784285D01*
X30863095Y-78879523D01*
X30767857Y-78974761D01*
X30625000Y-79022380D01*
X30386904Y-79022380D01*
X31529761Y-78450952D02*
X31434523Y-78403333D01*
X31386904Y-78355714D01*
X31339285Y-78260476D01*
X31339285Y-78212857D01*
X31386904Y-78117619D01*
X31434523Y-78070000D01*
X31529761Y-78022380D01*
X31720238Y-78022380D01*
X31815476Y-78070000D01*
X31863095Y-78117619D01*
X31910714Y-78212857D01*
X31910714Y-78260476D01*
X31863095Y-78355714D01*
X31815476Y-78403333D01*
X31720238Y-78450952D01*
X31529761Y-78450952D01*
X31434523Y-78498571D01*
X31386904Y-78546190D01*
X31339285Y-78641428D01*
X31339285Y-78831904D01*
X31386904Y-78927142D01*
X31434523Y-78974761D01*
X31529761Y-79022380D01*
X31720238Y-79022380D01*
X31815476Y-78974761D01*
X31863095Y-78927142D01*
X31910714Y-78831904D01*
X31910714Y-78641428D01*
X31863095Y-78546190D01*
X31815476Y-78498571D01*
X31720238Y-78450952D01*
D12*
X29980952Y-90326190D02*
X29980952Y-89826190D01*
X30100000Y-89826190D01*
X30171428Y-89850000D01*
X30219047Y-89897619D01*
X30242857Y-89945238D01*
X30266666Y-90040476D01*
X30266666Y-90111904D01*
X30242857Y-90207142D01*
X30219047Y-90254761D01*
X30171428Y-90302380D01*
X30100000Y-90326190D01*
X29980952Y-90326190D01*
X30480952Y-90326190D02*
X30480952Y-89826190D01*
X30766666Y-90326190D02*
X30552380Y-90040476D01*
X30766666Y-89826190D02*
X30480952Y-90111904D01*
X30957142Y-89873809D02*
X30980952Y-89850000D01*
X31028571Y-89826190D01*
X31147619Y-89826190D01*
X31195238Y-89850000D01*
X31219047Y-89873809D01*
X31242857Y-89921428D01*
X31242857Y-89969047D01*
X31219047Y-90040476D01*
X30933333Y-90326190D01*
X31242857Y-90326190D01*
X29980952Y-93626190D02*
X29980952Y-93126190D01*
X30100000Y-93126190D01*
X30171428Y-93150000D01*
X30219047Y-93197619D01*
X30242857Y-93245238D01*
X30266666Y-93340476D01*
X30266666Y-93411904D01*
X30242857Y-93507142D01*
X30219047Y-93554761D01*
X30171428Y-93602380D01*
X30100000Y-93626190D01*
X29980952Y-93626190D01*
X30480952Y-93626190D02*
X30480952Y-93126190D01*
X30766666Y-93626190D02*
X30552380Y-93340476D01*
X30766666Y-93126190D02*
X30480952Y-93411904D01*
X30933333Y-93126190D02*
X31242857Y-93126190D01*
X31076190Y-93316666D01*
X31147619Y-93316666D01*
X31195238Y-93340476D01*
X31219047Y-93364285D01*
X31242857Y-93411904D01*
X31242857Y-93530952D01*
X31219047Y-93578571D01*
X31195238Y-93602380D01*
X31147619Y-93626190D01*
X31004761Y-93626190D01*
X30957142Y-93602380D01*
X30933333Y-93578571D01*
X23630952Y-87926190D02*
X23630952Y-87426190D01*
X23750000Y-87426190D01*
X23821428Y-87450000D01*
X23869047Y-87497619D01*
X23892857Y-87545238D01*
X23916666Y-87640476D01*
X23916666Y-87711904D01*
X23892857Y-87807142D01*
X23869047Y-87854761D01*
X23821428Y-87902380D01*
X23750000Y-87926190D01*
X23630952Y-87926190D01*
X24130952Y-87926190D02*
X24130952Y-87426190D01*
X24416666Y-87926190D02*
X24202380Y-87640476D01*
X24416666Y-87426190D02*
X24130952Y-87711904D01*
X24630952Y-87664285D02*
X24797619Y-87664285D01*
X24869047Y-87926190D02*
X24630952Y-87926190D01*
X24630952Y-87426190D01*
X24869047Y-87426190D01*
X25083333Y-87926190D02*
X25083333Y-87426190D01*
X25369047Y-87926190D01*
X25369047Y-87426190D01*
X29980952Y-48626190D02*
X29980952Y-48126190D01*
X30100000Y-48126190D01*
X30171428Y-48150000D01*
X30219047Y-48197619D01*
X30242857Y-48245238D01*
X30266666Y-48340476D01*
X30266666Y-48411904D01*
X30242857Y-48507142D01*
X30219047Y-48554761D01*
X30171428Y-48602380D01*
X30100000Y-48626190D01*
X29980952Y-48626190D01*
X30480952Y-48626190D02*
X30480952Y-48126190D01*
X30766666Y-48626190D02*
X30552380Y-48340476D01*
X30766666Y-48126190D02*
X30480952Y-48411904D01*
X30933333Y-48126190D02*
X31242857Y-48126190D01*
X31076190Y-48316666D01*
X31147619Y-48316666D01*
X31195238Y-48340476D01*
X31219047Y-48364285D01*
X31242857Y-48411904D01*
X31242857Y-48530952D01*
X31219047Y-48578571D01*
X31195238Y-48602380D01*
X31147619Y-48626190D01*
X31004761Y-48626190D01*
X30957142Y-48602380D01*
X30933333Y-48578571D01*
X23630952Y-42926190D02*
X23630952Y-42426190D01*
X23750000Y-42426190D01*
X23821428Y-42450000D01*
X23869047Y-42497619D01*
X23892857Y-42545238D01*
X23916666Y-42640476D01*
X23916666Y-42711904D01*
X23892857Y-42807142D01*
X23869047Y-42854761D01*
X23821428Y-42902380D01*
X23750000Y-42926190D01*
X23630952Y-42926190D01*
X24130952Y-42926190D02*
X24130952Y-42426190D01*
X24416666Y-42926190D02*
X24202380Y-42640476D01*
X24416666Y-42426190D02*
X24130952Y-42711904D01*
X24630952Y-42664285D02*
X24797619Y-42664285D01*
X24869047Y-42926190D02*
X24630952Y-42926190D01*
X24630952Y-42426190D01*
X24869047Y-42426190D01*
X25083333Y-42926190D02*
X25083333Y-42426190D01*
X25369047Y-42926190D01*
X25369047Y-42426190D01*
X29980952Y-45326190D02*
X29980952Y-44826190D01*
X30100000Y-44826190D01*
X30171428Y-44850000D01*
X30219047Y-44897619D01*
X30242857Y-44945238D01*
X30266666Y-45040476D01*
X30266666Y-45111904D01*
X30242857Y-45207142D01*
X30219047Y-45254761D01*
X30171428Y-45302380D01*
X30100000Y-45326190D01*
X29980952Y-45326190D01*
X30480952Y-45326190D02*
X30480952Y-44826190D01*
X30766666Y-45326190D02*
X30552380Y-45040476D01*
X30766666Y-44826190D02*
X30480952Y-45111904D01*
X30957142Y-44873809D02*
X30980952Y-44850000D01*
X31028571Y-44826190D01*
X31147619Y-44826190D01*
X31195238Y-44850000D01*
X31219047Y-44873809D01*
X31242857Y-44921428D01*
X31242857Y-44969047D01*
X31219047Y-45040476D01*
X30933333Y-45326190D01*
X31242857Y-45326190D01*
X28210952Y-43026190D02*
X28210952Y-42526190D01*
X28330000Y-42526190D01*
X28401428Y-42550000D01*
X28449047Y-42597619D01*
X28472857Y-42645238D01*
X28496666Y-42740476D01*
X28496666Y-42811904D01*
X28472857Y-42907142D01*
X28449047Y-42954761D01*
X28401428Y-43002380D01*
X28330000Y-43026190D01*
X28210952Y-43026190D01*
X28710952Y-43026190D02*
X28710952Y-42526190D01*
X28996666Y-43026190D02*
X28782380Y-42740476D01*
X28996666Y-42526190D02*
X28710952Y-42811904D01*
X29472857Y-43026190D02*
X29187142Y-43026190D01*
X29330000Y-43026190D02*
X29330000Y-42526190D01*
X29282380Y-42597619D01*
X29234761Y-42645238D01*
X29187142Y-42669047D01*
D11*
X30386904Y-34022380D02*
X30386904Y-33022380D01*
X30625000Y-33022380D01*
X30767857Y-33070000D01*
X30863095Y-33165238D01*
X30910714Y-33260476D01*
X30958333Y-33450952D01*
X30958333Y-33593809D01*
X30910714Y-33784285D01*
X30863095Y-33879523D01*
X30767857Y-33974761D01*
X30625000Y-34022380D01*
X30386904Y-34022380D01*
X31529761Y-33450952D02*
X31434523Y-33403333D01*
X31386904Y-33355714D01*
X31339285Y-33260476D01*
X31339285Y-33212857D01*
X31386904Y-33117619D01*
X31434523Y-33070000D01*
X31529761Y-33022380D01*
X31720238Y-33022380D01*
X31815476Y-33070000D01*
X31863095Y-33117619D01*
X31910714Y-33212857D01*
X31910714Y-33260476D01*
X31863095Y-33355714D01*
X31815476Y-33403333D01*
X31720238Y-33450952D01*
X31529761Y-33450952D01*
X31434523Y-33498571D01*
X31386904Y-33546190D01*
X31339285Y-33641428D01*
X31339285Y-33831904D01*
X31386904Y-33927142D01*
X31434523Y-33974761D01*
X31529761Y-34022380D01*
X31720238Y-34022380D01*
X31815476Y-33974761D01*
X31863095Y-33927142D01*
X31910714Y-33831904D01*
X31910714Y-33641428D01*
X31863095Y-33546190D01*
X31815476Y-33498571D01*
X31720238Y-33450952D01*
X42386904Y-31022380D02*
X42386904Y-30022380D01*
X42625000Y-30022380D01*
X42767857Y-30070000D01*
X42863095Y-30165238D01*
X42910714Y-30260476D01*
X42958333Y-30450952D01*
X42958333Y-30593809D01*
X42910714Y-30784285D01*
X42863095Y-30879523D01*
X42767857Y-30974761D01*
X42625000Y-31022380D01*
X42386904Y-31022380D01*
X43434523Y-31022380D02*
X43625000Y-31022380D01*
X43720238Y-30974761D01*
X43767857Y-30927142D01*
X43863095Y-30784285D01*
X43910714Y-30593809D01*
X43910714Y-30212857D01*
X43863095Y-30117619D01*
X43815476Y-30070000D01*
X43720238Y-30022380D01*
X43529761Y-30022380D01*
X43434523Y-30070000D01*
X43386904Y-30117619D01*
X43339285Y-30212857D01*
X43339285Y-30450952D01*
X43386904Y-30546190D01*
X43434523Y-30593809D01*
X43529761Y-30641428D01*
X43720238Y-30641428D01*
X43815476Y-30593809D01*
X43863095Y-30546190D01*
X43910714Y-30450952D01*
X33910714Y-31022380D02*
X33910714Y-30022380D01*
X34148809Y-30022380D01*
X34291666Y-30070000D01*
X34386904Y-30165238D01*
X34434523Y-30260476D01*
X34482142Y-30450952D01*
X34482142Y-30593809D01*
X34434523Y-30784285D01*
X34386904Y-30879523D01*
X34291666Y-30974761D01*
X34148809Y-31022380D01*
X33910714Y-31022380D01*
X35434523Y-31022380D02*
X34863095Y-31022380D01*
X35148809Y-31022380D02*
X35148809Y-30022380D01*
X35053571Y-30165238D01*
X34958333Y-30260476D01*
X34863095Y-30308095D01*
X36386904Y-31022380D02*
X35815476Y-31022380D01*
X36101190Y-31022380D02*
X36101190Y-30022380D01*
X36005952Y-30165238D01*
X35910714Y-30260476D01*
X35815476Y-30308095D01*
X38386904Y-37022380D02*
X38386904Y-36022380D01*
X38625000Y-36022380D01*
X38767857Y-36070000D01*
X38863095Y-36165238D01*
X38910714Y-36260476D01*
X38958333Y-36450952D01*
X38958333Y-36593809D01*
X38910714Y-36784285D01*
X38863095Y-36879523D01*
X38767857Y-36974761D01*
X38625000Y-37022380D01*
X38386904Y-37022380D01*
X39339285Y-36117619D02*
X39386904Y-36070000D01*
X39482142Y-36022380D01*
X39720238Y-36022380D01*
X39815476Y-36070000D01*
X39863095Y-36117619D01*
X39910714Y-36212857D01*
X39910714Y-36308095D01*
X39863095Y-36450952D01*
X39291666Y-37022380D01*
X39910714Y-37022380D01*
X42386904Y-37022380D02*
X42386904Y-36022380D01*
X42625000Y-36022380D01*
X42767857Y-36070000D01*
X42863095Y-36165238D01*
X42910714Y-36260476D01*
X42958333Y-36450952D01*
X42958333Y-36593809D01*
X42910714Y-36784285D01*
X42863095Y-36879523D01*
X42767857Y-36974761D01*
X42625000Y-37022380D01*
X42386904Y-37022380D01*
X43910714Y-37022380D02*
X43339285Y-37022380D01*
X43625000Y-37022380D02*
X43625000Y-36022380D01*
X43529761Y-36165238D01*
X43434523Y-36260476D01*
X43339285Y-36308095D01*
X30386904Y-37022380D02*
X30386904Y-36022380D01*
X30625000Y-36022380D01*
X30767857Y-36070000D01*
X30863095Y-36165238D01*
X30910714Y-36260476D01*
X30958333Y-36450952D01*
X30958333Y-36593809D01*
X30910714Y-36784285D01*
X30863095Y-36879523D01*
X30767857Y-36974761D01*
X30625000Y-37022380D01*
X30386904Y-37022380D01*
X31815476Y-36355714D02*
X31815476Y-37022380D01*
X31577380Y-35974761D02*
X31339285Y-36689047D01*
X31958333Y-36689047D01*
X41910714Y-28022380D02*
X41910714Y-27022380D01*
X42148809Y-27022380D01*
X42291666Y-27070000D01*
X42386904Y-27165238D01*
X42434523Y-27260476D01*
X42482142Y-27450952D01*
X42482142Y-27593809D01*
X42434523Y-27784285D01*
X42386904Y-27879523D01*
X42291666Y-27974761D01*
X42148809Y-28022380D01*
X41910714Y-28022380D01*
X43434523Y-28022380D02*
X42863095Y-28022380D01*
X43148809Y-28022380D02*
X43148809Y-27022380D01*
X43053571Y-27165238D01*
X42958333Y-27260476D01*
X42863095Y-27308095D01*
X43767857Y-27022380D02*
X44386904Y-27022380D01*
X44053571Y-27403333D01*
X44196428Y-27403333D01*
X44291666Y-27450952D01*
X44339285Y-27498571D01*
X44386904Y-27593809D01*
X44386904Y-27831904D01*
X44339285Y-27927142D01*
X44291666Y-27974761D01*
X44196428Y-28022380D01*
X43910714Y-28022380D01*
X43815476Y-27974761D01*
X43767857Y-27927142D01*
X34386904Y-34022380D02*
X34386904Y-33022380D01*
X34625000Y-33022380D01*
X34767857Y-33070000D01*
X34863095Y-33165238D01*
X34910714Y-33260476D01*
X34958333Y-33450952D01*
X34958333Y-33593809D01*
X34910714Y-33784285D01*
X34863095Y-33879523D01*
X34767857Y-33974761D01*
X34625000Y-34022380D01*
X34386904Y-34022380D01*
X35291666Y-33022380D02*
X35958333Y-33022380D01*
X35529761Y-34022380D01*
X42386904Y-34022380D02*
X42386904Y-33022380D01*
X42625000Y-33022380D01*
X42767857Y-33070000D01*
X42863095Y-33165238D01*
X42910714Y-33260476D01*
X42958333Y-33450952D01*
X42958333Y-33593809D01*
X42910714Y-33784285D01*
X42863095Y-33879523D01*
X42767857Y-33974761D01*
X42625000Y-34022380D01*
X42386904Y-34022380D01*
X43863095Y-33022380D02*
X43386904Y-33022380D01*
X43339285Y-33498571D01*
X43386904Y-33450952D01*
X43482142Y-33403333D01*
X43720238Y-33403333D01*
X43815476Y-33450952D01*
X43863095Y-33498571D01*
X43910714Y-33593809D01*
X43910714Y-33831904D01*
X43863095Y-33927142D01*
X43815476Y-33974761D01*
X43720238Y-34022380D01*
X43482142Y-34022380D01*
X43386904Y-33974761D01*
X43339285Y-33927142D01*
X29910714Y-31022380D02*
X29910714Y-30022380D01*
X30148809Y-30022380D01*
X30291666Y-30070000D01*
X30386904Y-30165238D01*
X30434523Y-30260476D01*
X30482142Y-30450952D01*
X30482142Y-30593809D01*
X30434523Y-30784285D01*
X30386904Y-30879523D01*
X30291666Y-30974761D01*
X30148809Y-31022380D01*
X29910714Y-31022380D01*
X31434523Y-31022380D02*
X30863095Y-31022380D01*
X31148809Y-31022380D02*
X31148809Y-30022380D01*
X31053571Y-30165238D01*
X30958333Y-30260476D01*
X30863095Y-30308095D01*
X31815476Y-30117619D02*
X31863095Y-30070000D01*
X31958333Y-30022380D01*
X32196428Y-30022380D01*
X32291666Y-30070000D01*
X32339285Y-30117619D01*
X32386904Y-30212857D01*
X32386904Y-30308095D01*
X32339285Y-30450952D01*
X31767857Y-31022380D01*
X32386904Y-31022380D01*
X37910714Y-28022380D02*
X37910714Y-27022380D01*
X38148809Y-27022380D01*
X38291666Y-27070000D01*
X38386904Y-27165238D01*
X38434523Y-27260476D01*
X38482142Y-27450952D01*
X38482142Y-27593809D01*
X38434523Y-27784285D01*
X38386904Y-27879523D01*
X38291666Y-27974761D01*
X38148809Y-28022380D01*
X37910714Y-28022380D01*
X39434523Y-28022380D02*
X38863095Y-28022380D01*
X39148809Y-28022380D02*
X39148809Y-27022380D01*
X39053571Y-27165238D01*
X38958333Y-27260476D01*
X38863095Y-27308095D01*
X40291666Y-27355714D02*
X40291666Y-28022380D01*
X40053571Y-26974761D02*
X39815476Y-27689047D01*
X40434523Y-27689047D01*
X38386904Y-34022380D02*
X38386904Y-33022380D01*
X38625000Y-33022380D01*
X38767857Y-33070000D01*
X38863095Y-33165238D01*
X38910714Y-33260476D01*
X38958333Y-33450952D01*
X38958333Y-33593809D01*
X38910714Y-33784285D01*
X38863095Y-33879523D01*
X38767857Y-33974761D01*
X38625000Y-34022380D01*
X38386904Y-34022380D01*
X39815476Y-33022380D02*
X39625000Y-33022380D01*
X39529761Y-33070000D01*
X39482142Y-33117619D01*
X39386904Y-33260476D01*
X39339285Y-33450952D01*
X39339285Y-33831904D01*
X39386904Y-33927142D01*
X39434523Y-33974761D01*
X39529761Y-34022380D01*
X39720238Y-34022380D01*
X39815476Y-33974761D01*
X39863095Y-33927142D01*
X39910714Y-33831904D01*
X39910714Y-33593809D01*
X39863095Y-33498571D01*
X39815476Y-33450952D01*
X39720238Y-33403333D01*
X39529761Y-33403333D01*
X39434523Y-33450952D01*
X39386904Y-33498571D01*
X39339285Y-33593809D01*
X33910714Y-28022380D02*
X33910714Y-27022380D01*
X34148809Y-27022380D01*
X34291666Y-27070000D01*
X34386904Y-27165238D01*
X34434523Y-27260476D01*
X34482142Y-27450952D01*
X34482142Y-27593809D01*
X34434523Y-27784285D01*
X34386904Y-27879523D01*
X34291666Y-27974761D01*
X34148809Y-28022380D01*
X33910714Y-28022380D01*
X35434523Y-28022380D02*
X34863095Y-28022380D01*
X35148809Y-28022380D02*
X35148809Y-27022380D01*
X35053571Y-27165238D01*
X34958333Y-27260476D01*
X34863095Y-27308095D01*
X36339285Y-27022380D02*
X35863095Y-27022380D01*
X35815476Y-27498571D01*
X35863095Y-27450952D01*
X35958333Y-27403333D01*
X36196428Y-27403333D01*
X36291666Y-27450952D01*
X36339285Y-27498571D01*
X36386904Y-27593809D01*
X36386904Y-27831904D01*
X36339285Y-27927142D01*
X36291666Y-27974761D01*
X36196428Y-28022380D01*
X35958333Y-28022380D01*
X35863095Y-27974761D01*
X35815476Y-27927142D01*
X37910714Y-31022380D02*
X37910714Y-30022380D01*
X38148809Y-30022380D01*
X38291666Y-30070000D01*
X38386904Y-30165238D01*
X38434523Y-30260476D01*
X38482142Y-30450952D01*
X38482142Y-30593809D01*
X38434523Y-30784285D01*
X38386904Y-30879523D01*
X38291666Y-30974761D01*
X38148809Y-31022380D01*
X37910714Y-31022380D01*
X39434523Y-31022380D02*
X38863095Y-31022380D01*
X39148809Y-31022380D02*
X39148809Y-30022380D01*
X39053571Y-30165238D01*
X38958333Y-30260476D01*
X38863095Y-30308095D01*
X40053571Y-30022380D02*
X40148809Y-30022380D01*
X40244047Y-30070000D01*
X40291666Y-30117619D01*
X40339285Y-30212857D01*
X40386904Y-30403333D01*
X40386904Y-30641428D01*
X40339285Y-30831904D01*
X40291666Y-30927142D01*
X40244047Y-30974761D01*
X40148809Y-31022380D01*
X40053571Y-31022380D01*
X39958333Y-30974761D01*
X39910714Y-30927142D01*
X39863095Y-30831904D01*
X39815476Y-30641428D01*
X39815476Y-30403333D01*
X39863095Y-30212857D01*
X39910714Y-30117619D01*
X39958333Y-30070000D01*
X40053571Y-30022380D01*
X34386904Y-37022380D02*
X34386904Y-36022380D01*
X34625000Y-36022380D01*
X34767857Y-36070000D01*
X34863095Y-36165238D01*
X34910714Y-36260476D01*
X34958333Y-36450952D01*
X34958333Y-36593809D01*
X34910714Y-36784285D01*
X34863095Y-36879523D01*
X34767857Y-36974761D01*
X34625000Y-37022380D01*
X34386904Y-37022380D01*
X35291666Y-36022380D02*
X35910714Y-36022380D01*
X35577380Y-36403333D01*
X35720238Y-36403333D01*
X35815476Y-36450952D01*
X35863095Y-36498571D01*
X35910714Y-36593809D01*
X35910714Y-36831904D01*
X35863095Y-36927142D01*
X35815476Y-36974761D01*
X35720238Y-37022380D01*
X35434523Y-37022380D01*
X35339285Y-36974761D01*
X35291666Y-36927142D01*
X29910714Y-28022380D02*
X29910714Y-27022380D01*
X30148809Y-27022380D01*
X30291666Y-27070000D01*
X30386904Y-27165238D01*
X30434523Y-27260476D01*
X30482142Y-27450952D01*
X30482142Y-27593809D01*
X30434523Y-27784285D01*
X30386904Y-27879523D01*
X30291666Y-27974761D01*
X30148809Y-28022380D01*
X29910714Y-28022380D01*
X31434523Y-28022380D02*
X30863095Y-28022380D01*
X31148809Y-28022380D02*
X31148809Y-27022380D01*
X31053571Y-27165238D01*
X30958333Y-27260476D01*
X30863095Y-27308095D01*
X32291666Y-27022380D02*
X32101190Y-27022380D01*
X32005952Y-27070000D01*
X31958333Y-27117619D01*
X31863095Y-27260476D01*
X31815476Y-27450952D01*
X31815476Y-27831904D01*
X31863095Y-27927142D01*
X31910714Y-27974761D01*
X32005952Y-28022380D01*
X32196428Y-28022380D01*
X32291666Y-27974761D01*
X32339285Y-27927142D01*
X32386904Y-27831904D01*
X32386904Y-27593809D01*
X32339285Y-27498571D01*
X32291666Y-27450952D01*
X32196428Y-27403333D01*
X32005952Y-27403333D01*
X31910714Y-27450952D01*
X31863095Y-27498571D01*
X31815476Y-27593809D01*
X41910714Y-25022380D02*
X41910714Y-24022380D01*
X42148809Y-24022380D01*
X42291666Y-24070000D01*
X42386904Y-24165238D01*
X42434523Y-24260476D01*
X42482142Y-24450952D01*
X42482142Y-24593809D01*
X42434523Y-24784285D01*
X42386904Y-24879523D01*
X42291666Y-24974761D01*
X42148809Y-25022380D01*
X41910714Y-25022380D01*
X43434523Y-25022380D02*
X42863095Y-25022380D01*
X43148809Y-25022380D02*
X43148809Y-24022380D01*
X43053571Y-24165238D01*
X42958333Y-24260476D01*
X42863095Y-24308095D01*
X43767857Y-24022380D02*
X44434523Y-24022380D01*
X44005952Y-25022380D01*
X37910714Y-25022380D02*
X37910714Y-24022380D01*
X38148809Y-24022380D01*
X38291666Y-24070000D01*
X38386904Y-24165238D01*
X38434523Y-24260476D01*
X38482142Y-24450952D01*
X38482142Y-24593809D01*
X38434523Y-24784285D01*
X38386904Y-24879523D01*
X38291666Y-24974761D01*
X38148809Y-25022380D01*
X37910714Y-25022380D01*
X39434523Y-25022380D02*
X38863095Y-25022380D01*
X39148809Y-25022380D02*
X39148809Y-24022380D01*
X39053571Y-24165238D01*
X38958333Y-24260476D01*
X38863095Y-24308095D01*
X40005952Y-24450952D02*
X39910714Y-24403333D01*
X39863095Y-24355714D01*
X39815476Y-24260476D01*
X39815476Y-24212857D01*
X39863095Y-24117619D01*
X39910714Y-24070000D01*
X40005952Y-24022380D01*
X40196428Y-24022380D01*
X40291666Y-24070000D01*
X40339285Y-24117619D01*
X40386904Y-24212857D01*
X40386904Y-24260476D01*
X40339285Y-24355714D01*
X40291666Y-24403333D01*
X40196428Y-24450952D01*
X40005952Y-24450952D01*
X39910714Y-24498571D01*
X39863095Y-24546190D01*
X39815476Y-24641428D01*
X39815476Y-24831904D01*
X39863095Y-24927142D01*
X39910714Y-24974761D01*
X40005952Y-25022380D01*
X40196428Y-25022380D01*
X40291666Y-24974761D01*
X40339285Y-24927142D01*
X40386904Y-24831904D01*
X40386904Y-24641428D01*
X40339285Y-24546190D01*
X40291666Y-24498571D01*
X40196428Y-24450952D01*
X33910714Y-25022380D02*
X33910714Y-24022380D01*
X34148809Y-24022380D01*
X34291666Y-24070000D01*
X34386904Y-24165238D01*
X34434523Y-24260476D01*
X34482142Y-24450952D01*
X34482142Y-24593809D01*
X34434523Y-24784285D01*
X34386904Y-24879523D01*
X34291666Y-24974761D01*
X34148809Y-25022380D01*
X33910714Y-25022380D01*
X35434523Y-25022380D02*
X34863095Y-25022380D01*
X35148809Y-25022380D02*
X35148809Y-24022380D01*
X35053571Y-24165238D01*
X34958333Y-24260476D01*
X34863095Y-24308095D01*
X35910714Y-25022380D02*
X36101190Y-25022380D01*
X36196428Y-24974761D01*
X36244047Y-24927142D01*
X36339285Y-24784285D01*
X36386904Y-24593809D01*
X36386904Y-24212857D01*
X36339285Y-24117619D01*
X36291666Y-24070000D01*
X36196428Y-24022380D01*
X36005952Y-24022380D01*
X35910714Y-24070000D01*
X35863095Y-24117619D01*
X35815476Y-24212857D01*
X35815476Y-24450952D01*
X35863095Y-24546190D01*
X35910714Y-24593809D01*
X36005952Y-24641428D01*
X36196428Y-24641428D01*
X36291666Y-24593809D01*
X36339285Y-24546190D01*
X36386904Y-24450952D01*
X29910714Y-25022380D02*
X29910714Y-24022380D01*
X30148809Y-24022380D01*
X30291666Y-24070000D01*
X30386904Y-24165238D01*
X30434523Y-24260476D01*
X30482142Y-24450952D01*
X30482142Y-24593809D01*
X30434523Y-24784285D01*
X30386904Y-24879523D01*
X30291666Y-24974761D01*
X30148809Y-25022380D01*
X29910714Y-25022380D01*
X30863095Y-24117619D02*
X30910714Y-24070000D01*
X31005952Y-24022380D01*
X31244047Y-24022380D01*
X31339285Y-24070000D01*
X31386904Y-24117619D01*
X31434523Y-24212857D01*
X31434523Y-24308095D01*
X31386904Y-24450952D01*
X30815476Y-25022380D01*
X31434523Y-25022380D01*
X32053571Y-24022380D02*
X32148809Y-24022380D01*
X32244047Y-24070000D01*
X32291666Y-24117619D01*
X32339285Y-24212857D01*
X32386904Y-24403333D01*
X32386904Y-24641428D01*
X32339285Y-24831904D01*
X32291666Y-24927142D01*
X32244047Y-24974761D01*
X32148809Y-25022380D01*
X32053571Y-25022380D01*
X31958333Y-24974761D01*
X31910714Y-24927142D01*
X31863095Y-24831904D01*
X31815476Y-24641428D01*
X31815476Y-24403333D01*
X31863095Y-24212857D01*
X31910714Y-24117619D01*
X31958333Y-24070000D01*
X32053571Y-24022380D01*
X41910714Y-22022380D02*
X41910714Y-21022380D01*
X42148809Y-21022380D01*
X42291666Y-21070000D01*
X42386904Y-21165238D01*
X42434523Y-21260476D01*
X42482142Y-21450952D01*
X42482142Y-21593809D01*
X42434523Y-21784285D01*
X42386904Y-21879523D01*
X42291666Y-21974761D01*
X42148809Y-22022380D01*
X41910714Y-22022380D01*
X42863095Y-21117619D02*
X42910714Y-21070000D01*
X43005952Y-21022380D01*
X43244047Y-21022380D01*
X43339285Y-21070000D01*
X43386904Y-21117619D01*
X43434523Y-21212857D01*
X43434523Y-21308095D01*
X43386904Y-21450952D01*
X42815476Y-22022380D01*
X43434523Y-22022380D01*
X44386904Y-22022380D02*
X43815476Y-22022380D01*
X44101190Y-22022380D02*
X44101190Y-21022380D01*
X44005952Y-21165238D01*
X43910714Y-21260476D01*
X43815476Y-21308095D01*
X29910714Y-22022380D02*
X29910714Y-21022380D01*
X30148809Y-21022380D01*
X30291666Y-21070000D01*
X30386904Y-21165238D01*
X30434523Y-21260476D01*
X30482142Y-21450952D01*
X30482142Y-21593809D01*
X30434523Y-21784285D01*
X30386904Y-21879523D01*
X30291666Y-21974761D01*
X30148809Y-22022380D01*
X29910714Y-22022380D01*
X30863095Y-21117619D02*
X30910714Y-21070000D01*
X31005952Y-21022380D01*
X31244047Y-21022380D01*
X31339285Y-21070000D01*
X31386904Y-21117619D01*
X31434523Y-21212857D01*
X31434523Y-21308095D01*
X31386904Y-21450952D01*
X30815476Y-22022380D01*
X31434523Y-22022380D01*
X32291666Y-21355714D02*
X32291666Y-22022380D01*
X32053571Y-20974761D02*
X31815476Y-21689047D01*
X32434523Y-21689047D01*
X37910714Y-22022380D02*
X37910714Y-21022380D01*
X38148809Y-21022380D01*
X38291666Y-21070000D01*
X38386904Y-21165238D01*
X38434523Y-21260476D01*
X38482142Y-21450952D01*
X38482142Y-21593809D01*
X38434523Y-21784285D01*
X38386904Y-21879523D01*
X38291666Y-21974761D01*
X38148809Y-22022380D01*
X37910714Y-22022380D01*
X38863095Y-21117619D02*
X38910714Y-21070000D01*
X39005952Y-21022380D01*
X39244047Y-21022380D01*
X39339285Y-21070000D01*
X39386904Y-21117619D01*
X39434523Y-21212857D01*
X39434523Y-21308095D01*
X39386904Y-21450952D01*
X38815476Y-22022380D01*
X39434523Y-22022380D01*
X39815476Y-21117619D02*
X39863095Y-21070000D01*
X39958333Y-21022380D01*
X40196428Y-21022380D01*
X40291666Y-21070000D01*
X40339285Y-21117619D01*
X40386904Y-21212857D01*
X40386904Y-21308095D01*
X40339285Y-21450952D01*
X39767857Y-22022380D01*
X40386904Y-22022380D01*
X33910714Y-22022380D02*
X33910714Y-21022380D01*
X34148809Y-21022380D01*
X34291666Y-21070000D01*
X34386904Y-21165238D01*
X34434523Y-21260476D01*
X34482142Y-21450952D01*
X34482142Y-21593809D01*
X34434523Y-21784285D01*
X34386904Y-21879523D01*
X34291666Y-21974761D01*
X34148809Y-22022380D01*
X33910714Y-22022380D01*
X34863095Y-21117619D02*
X34910714Y-21070000D01*
X35005952Y-21022380D01*
X35244047Y-21022380D01*
X35339285Y-21070000D01*
X35386904Y-21117619D01*
X35434523Y-21212857D01*
X35434523Y-21308095D01*
X35386904Y-21450952D01*
X34815476Y-22022380D01*
X35434523Y-22022380D01*
X35767857Y-21022380D02*
X36386904Y-21022380D01*
X36053571Y-21403333D01*
X36196428Y-21403333D01*
X36291666Y-21450952D01*
X36339285Y-21498571D01*
X36386904Y-21593809D01*
X36386904Y-21831904D01*
X36339285Y-21927142D01*
X36291666Y-21974761D01*
X36196428Y-22022380D01*
X35910714Y-22022380D01*
X35815476Y-21974761D01*
X35767857Y-21927142D01*
D13*
X18510000Y-98662779D02*
X18510000Y-98337221D01*
X17490000Y-98662779D02*
X17490000Y-98337221D01*
X17990000Y-90012779D02*
X17990000Y-89687221D01*
X19010000Y-90012779D02*
X19010000Y-89687221D01*
X31737221Y-100010000D02*
X32062779Y-100010000D01*
X31737221Y-98990000D02*
X32062779Y-98990000D01*
X17490000Y-94512779D02*
X17490000Y-94187221D01*
X18510000Y-94512779D02*
X18510000Y-94187221D01*
X55570000Y-80940000D02*
X55570000Y-91060000D01*
X48430000Y-91000000D02*
X48430000Y-86000000D01*
X71570000Y-80940000D02*
X71570000Y-91060000D01*
X64430000Y-91000000D02*
X64430000Y-86000000D01*
X35925000Y-67265000D02*
X33640000Y-67265000D01*
X33640000Y-67265000D02*
X33640000Y-68735000D01*
X33640000Y-68735000D02*
X35925000Y-68735000D01*
X37640000Y-67265000D02*
X37640000Y-68735000D01*
X39925000Y-67265000D02*
X37640000Y-67265000D01*
X37640000Y-68735000D02*
X39925000Y-68735000D01*
X29640000Y-68735000D02*
X31925000Y-68735000D01*
X29640000Y-67265000D02*
X29640000Y-68735000D01*
X31925000Y-67265000D02*
X29640000Y-67265000D01*
X43925000Y-67265000D02*
X41640000Y-67265000D01*
X41640000Y-68735000D02*
X43925000Y-68735000D01*
X41640000Y-67265000D02*
X41640000Y-68735000D01*
X29640000Y-70265000D02*
X29640000Y-71735000D01*
X29640000Y-71735000D02*
X31925000Y-71735000D01*
X31925000Y-70265000D02*
X29640000Y-70265000D01*
X33640000Y-71735000D02*
X35925000Y-71735000D01*
X35925000Y-70265000D02*
X33640000Y-70265000D01*
X33640000Y-70265000D02*
X33640000Y-71735000D01*
X37640000Y-70265000D02*
X37640000Y-71735000D01*
X39925000Y-70265000D02*
X37640000Y-70265000D01*
X37640000Y-71735000D02*
X39925000Y-71735000D01*
X41640000Y-70265000D02*
X41640000Y-71735000D01*
X41640000Y-71735000D02*
X43925000Y-71735000D01*
X43925000Y-70265000D02*
X41640000Y-70265000D01*
X29640000Y-73265000D02*
X29640000Y-74735000D01*
X29640000Y-74735000D02*
X31925000Y-74735000D01*
X31925000Y-73265000D02*
X29640000Y-73265000D01*
X33640000Y-83735000D02*
X35925000Y-83735000D01*
X35925000Y-82265000D02*
X33640000Y-82265000D01*
X33640000Y-82265000D02*
X33640000Y-83735000D01*
X39925000Y-76265000D02*
X37640000Y-76265000D01*
X37640000Y-76265000D02*
X37640000Y-77735000D01*
X37640000Y-77735000D02*
X39925000Y-77735000D01*
X33640000Y-74735000D02*
X35925000Y-74735000D01*
X33640000Y-73265000D02*
X33640000Y-74735000D01*
X35925000Y-73265000D02*
X33640000Y-73265000D01*
X37640000Y-80735000D02*
X39925000Y-80735000D01*
X37640000Y-79265000D02*
X37640000Y-80735000D01*
X39925000Y-79265000D02*
X37640000Y-79265000D01*
X43925000Y-79265000D02*
X41640000Y-79265000D01*
X41640000Y-79265000D02*
X41640000Y-80735000D01*
X41640000Y-80735000D02*
X43925000Y-80735000D01*
X33640000Y-80735000D02*
X35925000Y-80735000D01*
X35925000Y-79265000D02*
X33640000Y-79265000D01*
X33640000Y-79265000D02*
X33640000Y-80735000D01*
X43925000Y-73265000D02*
X41640000Y-73265000D01*
X41640000Y-74735000D02*
X43925000Y-74735000D01*
X41640000Y-73265000D02*
X41640000Y-74735000D01*
X29640000Y-83735000D02*
X31925000Y-83735000D01*
X29640000Y-82265000D02*
X29640000Y-83735000D01*
X31925000Y-82265000D02*
X29640000Y-82265000D01*
X43925000Y-82265000D02*
X41640000Y-82265000D01*
X41640000Y-82265000D02*
X41640000Y-83735000D01*
X41640000Y-83735000D02*
X43925000Y-83735000D01*
X37640000Y-82265000D02*
X37640000Y-83735000D01*
X37640000Y-83735000D02*
X39925000Y-83735000D01*
X39925000Y-82265000D02*
X37640000Y-82265000D01*
X35925000Y-76265000D02*
X33640000Y-76265000D01*
X33640000Y-77735000D02*
X35925000Y-77735000D01*
X33640000Y-76265000D02*
X33640000Y-77735000D01*
X29830000Y-88788677D02*
X27730000Y-88788677D01*
X27430000Y-88300000D02*
X27430000Y-88500000D01*
X30130000Y-88300000D02*
X30130000Y-88500000D01*
X27730000Y-88037287D02*
X29830000Y-88037287D01*
X27424012Y-88335865D02*
G75*
G02*
X27724012Y-88035865I300000J0D01*
G01*
X30130315Y-88488677D02*
G75*
G02*
X29830315Y-88788677I-300000J0D01*
G01*
X29828550Y-88035865D02*
G75*
G02*
X30128550Y-88335865I0J-300000D01*
G01*
X27725777Y-88788677D02*
G75*
G02*
X27425777Y-88488677I0J300000D01*
G01*
X37640000Y-74735000D02*
X39925000Y-74735000D01*
X37640000Y-73265000D02*
X37640000Y-74735000D01*
X39925000Y-73265000D02*
X37640000Y-73265000D01*
X31925000Y-76265000D02*
X29640000Y-76265000D01*
X29640000Y-76265000D02*
X29640000Y-77735000D01*
X29640000Y-77735000D02*
X31925000Y-77735000D01*
X41640000Y-77735000D02*
X43925000Y-77735000D01*
X41640000Y-76265000D02*
X41640000Y-77735000D01*
X43925000Y-76265000D02*
X41640000Y-76265000D01*
X31925000Y-79265000D02*
X29640000Y-79265000D01*
X29640000Y-80735000D02*
X31925000Y-80735000D01*
X29640000Y-79265000D02*
X29640000Y-80735000D01*
X56430000Y-91000000D02*
X56430000Y-86000000D01*
X63570000Y-80940000D02*
X63570000Y-91060000D01*
X60225000Y-71240000D02*
X61494000Y-71240000D01*
X60225000Y-76760000D02*
X60875000Y-76760000D01*
X71775000Y-76760000D02*
X71775000Y-71240000D01*
X70505000Y-71240000D02*
X71775000Y-71240000D01*
X70505000Y-76760000D02*
X71775000Y-76760000D01*
X60875000Y-78610000D02*
X60875000Y-76760000D01*
X60225000Y-76760000D02*
X60225000Y-71240000D01*
X30237287Y-92750000D02*
X30237287Y-90650000D01*
X30988677Y-90650000D02*
X30988677Y-92750000D01*
X30500000Y-90350000D02*
X30700000Y-90350000D01*
X30500000Y-93050000D02*
X30700000Y-93050000D01*
X30688677Y-90349685D02*
G75*
G02*
X30988677Y-90649685I0J-300000D01*
G01*
X30988677Y-92754223D02*
G75*
G02*
X30688677Y-93054223I-300000J0D01*
G01*
X30235865Y-90651450D02*
G75*
G02*
X30535865Y-90351450I300000J0D01*
G01*
X30535865Y-93055988D02*
G75*
G02*
X30235865Y-92755988I0J300000D01*
G01*
X20790000Y-87287221D02*
X20790000Y-87612779D01*
X21810000Y-87287221D02*
X21810000Y-87612779D01*
X32437221Y-98260000D02*
X32762779Y-98260000D01*
X32437221Y-97240000D02*
X32762779Y-97240000D01*
X26320000Y-100250000D02*
X26320000Y-99450000D01*
X22880000Y-100250000D02*
X22880000Y-99450000D01*
X30500000Y-96350000D02*
X30700000Y-96350000D01*
X30500000Y-93650000D02*
X30700000Y-93650000D01*
X30988677Y-93950000D02*
X30988677Y-96050000D01*
X30237287Y-96050000D02*
X30237287Y-93950000D01*
X30688677Y-93649685D02*
G75*
G02*
X30988677Y-93949685I0J-300000D01*
G01*
X30988677Y-96054223D02*
G75*
G02*
X30688677Y-96354223I-300000J0D01*
G01*
X30235865Y-93951450D02*
G75*
G02*
X30535865Y-93651450I300000J0D01*
G01*
X30535865Y-96355988D02*
G75*
G02*
X30235865Y-96055988I0J300000D01*
G01*
X21710000Y-93187221D02*
X21710000Y-93512779D01*
X20690000Y-93187221D02*
X20690000Y-93512779D01*
X29337221Y-98260000D02*
X29662779Y-98260000D01*
X29337221Y-97240000D02*
X29662779Y-97240000D01*
X20690000Y-96562779D02*
X20690000Y-96237221D01*
X21710000Y-96562779D02*
X21710000Y-96237221D01*
D14*
X50100000Y-95500000D02*
X50100000Y-99500000D01*
X35100000Y-96700000D02*
X34900000Y-96700000D01*
X71600000Y-59500000D02*
X71600000Y-63500000D01*
X71600000Y-63500000D02*
X56400000Y-63500000D01*
X56400000Y-99500000D02*
X56400000Y-98300000D01*
X56400000Y-62300000D02*
X56400000Y-60700000D01*
X30900000Y-63500000D02*
X30900000Y-62300000D01*
X56400000Y-95500000D02*
X71600000Y-95500000D01*
X46100000Y-63500000D02*
X30900000Y-63500000D01*
X56600000Y-98300000D02*
X56600000Y-96700000D01*
X56400000Y-62300000D02*
X56600000Y-62300000D01*
X34900000Y-96700000D02*
X34900000Y-95500000D01*
X34900000Y-98300000D02*
X34900000Y-96700000D01*
X56400000Y-63500000D02*
X56400000Y-62300000D01*
X56600000Y-96700000D02*
X56400000Y-96700000D01*
X46100000Y-59500000D02*
X46100000Y-63500000D01*
X35100000Y-98300000D02*
X35100000Y-96700000D01*
X56400000Y-60700000D02*
X56400000Y-59500000D01*
X56400000Y-98300000D02*
X56400000Y-96700000D01*
X71600000Y-99500000D02*
X56400000Y-99500000D01*
X71600000Y-95500000D02*
X71600000Y-99500000D01*
X50100000Y-99500000D02*
X34900000Y-99500000D01*
X56400000Y-98300000D02*
X56600000Y-98300000D01*
X30900000Y-62300000D02*
X31100000Y-62300000D01*
X56400000Y-96700000D02*
X56400000Y-95500000D01*
X31100000Y-62300000D02*
X31100000Y-60700000D01*
X56600000Y-60700000D02*
X56400000Y-60700000D01*
X30900000Y-60700000D02*
X30900000Y-59500000D01*
X30900000Y-59500000D02*
X46100000Y-59500000D01*
X56400000Y-59500000D02*
X71600000Y-59500000D01*
X34900000Y-99500000D02*
X34900000Y-98300000D01*
X31100000Y-60700000D02*
X30900000Y-60700000D01*
X34900000Y-98300000D02*
X35100000Y-98300000D01*
X56600000Y-62300000D02*
X56600000Y-60700000D01*
X30900000Y-62300000D02*
X30900000Y-60700000D01*
X34900000Y-95500000D02*
X50100000Y-95500000D01*
D13*
X25391127Y-88520000D02*
X25391127Y-88290000D01*
X23673018Y-88513040D02*
X23673018Y-88303040D01*
X25100000Y-87980000D02*
X24000000Y-87980000D01*
X25100000Y-88819987D02*
X24000000Y-88819987D01*
X25391127Y-88522502D02*
G75*
G02*
X25091127Y-88822502I-300000J0D01*
G01*
X23973018Y-88820512D02*
G75*
G02*
X23673018Y-88520512I0J300000D01*
G01*
X23673018Y-88281057D02*
G75*
G02*
X23973018Y-87981057I300000J0D01*
G01*
X25091127Y-87985563D02*
G75*
G02*
X25391127Y-88285563I0J-300000D01*
G01*
X48225000Y-76760000D02*
X48225000Y-71240000D01*
X58505000Y-71240000D02*
X59775000Y-71240000D01*
X59775000Y-76760000D02*
X59775000Y-71240000D01*
X48225000Y-71240000D02*
X49494000Y-71240000D01*
X48875000Y-78610000D02*
X48875000Y-76760000D01*
X58505000Y-76760000D02*
X59775000Y-76760000D01*
X48225000Y-76760000D02*
X48875000Y-76760000D01*
X30500000Y-51350000D02*
X30700000Y-51350000D01*
X30500000Y-48650000D02*
X30700000Y-48650000D01*
X30988677Y-48950000D02*
X30988677Y-51050000D01*
X30237287Y-51050000D02*
X30237287Y-48950000D01*
X30688677Y-48649685D02*
G75*
G02*
X30988677Y-48949685I0J-300000D01*
G01*
X30988677Y-51054223D02*
G75*
G02*
X30688677Y-51354223I-300000J0D01*
G01*
X30235865Y-48951450D02*
G75*
G02*
X30535865Y-48651450I300000J0D01*
G01*
X30535865Y-51355988D02*
G75*
G02*
X30235865Y-51055988I0J300000D01*
G01*
X25391127Y-43520000D02*
X25391127Y-43290000D01*
X23673018Y-43513040D02*
X23673018Y-43303040D01*
X25100000Y-42980000D02*
X24000000Y-42980000D01*
X25100000Y-43819987D02*
X24000000Y-43819987D01*
X25391127Y-43522502D02*
G75*
G02*
X25091127Y-43822502I-300000J0D01*
G01*
X23973018Y-43820512D02*
G75*
G02*
X23673018Y-43520512I0J300000D01*
G01*
X23673018Y-43281057D02*
G75*
G02*
X23973018Y-42981057I300000J0D01*
G01*
X25091127Y-42985563D02*
G75*
G02*
X25391127Y-43285563I0J-300000D01*
G01*
X48225000Y-31760000D02*
X48225000Y-26240000D01*
X58505000Y-26240000D02*
X59775000Y-26240000D01*
X59775000Y-31760000D02*
X59775000Y-26240000D01*
X48225000Y-26240000D02*
X49494000Y-26240000D01*
X48875000Y-33610000D02*
X48875000Y-31760000D01*
X58505000Y-31760000D02*
X59775000Y-31760000D01*
X48225000Y-31760000D02*
X48875000Y-31760000D01*
D14*
X50100000Y-50500000D02*
X50100000Y-54500000D01*
X35100000Y-51700000D02*
X34900000Y-51700000D01*
X71600000Y-14500000D02*
X71600000Y-18500000D01*
X71600000Y-18500000D02*
X56400000Y-18500000D01*
X56400000Y-54500000D02*
X56400000Y-53300000D01*
X56400000Y-17300000D02*
X56400000Y-15700000D01*
X30900000Y-18500000D02*
X30900000Y-17300000D01*
X56400000Y-50500000D02*
X71600000Y-50500000D01*
X46100000Y-18500000D02*
X30900000Y-18500000D01*
X56600000Y-53300000D02*
X56600000Y-51700000D01*
X56400000Y-17300000D02*
X56600000Y-17300000D01*
X34900000Y-51700000D02*
X34900000Y-50500000D01*
X34900000Y-53300000D02*
X34900000Y-51700000D01*
X56400000Y-18500000D02*
X56400000Y-17300000D01*
X56600000Y-51700000D02*
X56400000Y-51700000D01*
X46100000Y-14500000D02*
X46100000Y-18500000D01*
X35100000Y-53300000D02*
X35100000Y-51700000D01*
X56400000Y-15700000D02*
X56400000Y-14500000D01*
X56400000Y-53300000D02*
X56400000Y-51700000D01*
X71600000Y-54500000D02*
X56400000Y-54500000D01*
X71600000Y-50500000D02*
X71600000Y-54500000D01*
X50100000Y-54500000D02*
X34900000Y-54500000D01*
X56400000Y-53300000D02*
X56600000Y-53300000D01*
X30900000Y-17300000D02*
X31100000Y-17300000D01*
X56400000Y-51700000D02*
X56400000Y-50500000D01*
X31100000Y-17300000D02*
X31100000Y-15700000D01*
X56600000Y-15700000D02*
X56400000Y-15700000D01*
X30900000Y-15700000D02*
X30900000Y-14500000D01*
X30900000Y-14500000D02*
X46100000Y-14500000D01*
X56400000Y-14500000D02*
X71600000Y-14500000D01*
X34900000Y-54500000D02*
X34900000Y-53300000D01*
X31100000Y-15700000D02*
X30900000Y-15700000D01*
X34900000Y-53300000D02*
X35100000Y-53300000D01*
X56600000Y-17300000D02*
X56600000Y-15700000D01*
X30900000Y-17300000D02*
X30900000Y-15700000D01*
X34900000Y-50500000D02*
X50100000Y-50500000D01*
D13*
X30237287Y-47750000D02*
X30237287Y-45650000D01*
X30988677Y-45650000D02*
X30988677Y-47750000D01*
X30500000Y-45350000D02*
X30700000Y-45350000D01*
X30500000Y-48050000D02*
X30700000Y-48050000D01*
X30688677Y-45349685D02*
G75*
G02*
X30988677Y-45649685I0J-300000D01*
G01*
X30988677Y-47754223D02*
G75*
G02*
X30688677Y-48054223I-300000J0D01*
G01*
X30235865Y-45651450D02*
G75*
G02*
X30535865Y-45351450I300000J0D01*
G01*
X30535865Y-48055988D02*
G75*
G02*
X30235865Y-47755988I0J300000D01*
G01*
X29830000Y-43788677D02*
X27730000Y-43788677D01*
X27430000Y-43300000D02*
X27430000Y-43500000D01*
X30130000Y-43300000D02*
X30130000Y-43500000D01*
X27730000Y-43037287D02*
X29830000Y-43037287D01*
X27424012Y-43335865D02*
G75*
G02*
X27724012Y-43035865I300000J0D01*
G01*
X30130315Y-43488677D02*
G75*
G02*
X29830315Y-43788677I-300000J0D01*
G01*
X29828550Y-43035865D02*
G75*
G02*
X30128550Y-43335865I0J-300000D01*
G01*
X27725777Y-43788677D02*
G75*
G02*
X27425777Y-43488677I0J300000D01*
G01*
X56430000Y-46000000D02*
X56430000Y-41000000D01*
X63570000Y-35940000D02*
X63570000Y-46060000D01*
X60225000Y-26240000D02*
X61494000Y-26240000D01*
X60225000Y-31760000D02*
X60875000Y-31760000D01*
X71775000Y-31760000D02*
X71775000Y-26240000D01*
X70505000Y-26240000D02*
X71775000Y-26240000D01*
X70505000Y-31760000D02*
X71775000Y-31760000D01*
X60875000Y-33610000D02*
X60875000Y-31760000D01*
X60225000Y-31760000D02*
X60225000Y-26240000D01*
X31925000Y-34265000D02*
X29640000Y-34265000D01*
X29640000Y-35735000D02*
X31925000Y-35735000D01*
X29640000Y-34265000D02*
X29640000Y-35735000D01*
X41640000Y-32735000D02*
X43925000Y-32735000D01*
X41640000Y-31265000D02*
X41640000Y-32735000D01*
X43925000Y-31265000D02*
X41640000Y-31265000D01*
X35925000Y-31265000D02*
X33640000Y-31265000D01*
X33640000Y-32735000D02*
X35925000Y-32735000D01*
X33640000Y-31265000D02*
X33640000Y-32735000D01*
X37640000Y-37265000D02*
X37640000Y-38735000D01*
X37640000Y-38735000D02*
X39925000Y-38735000D01*
X39925000Y-37265000D02*
X37640000Y-37265000D01*
X43925000Y-37265000D02*
X41640000Y-37265000D01*
X41640000Y-37265000D02*
X41640000Y-38735000D01*
X41640000Y-38735000D02*
X43925000Y-38735000D01*
X29640000Y-38735000D02*
X31925000Y-38735000D01*
X29640000Y-37265000D02*
X29640000Y-38735000D01*
X31925000Y-37265000D02*
X29640000Y-37265000D01*
X43925000Y-28265000D02*
X41640000Y-28265000D01*
X41640000Y-29735000D02*
X43925000Y-29735000D01*
X41640000Y-28265000D02*
X41640000Y-29735000D01*
X33640000Y-35735000D02*
X35925000Y-35735000D01*
X35925000Y-34265000D02*
X33640000Y-34265000D01*
X33640000Y-34265000D02*
X33640000Y-35735000D01*
X43925000Y-34265000D02*
X41640000Y-34265000D01*
X41640000Y-34265000D02*
X41640000Y-35735000D01*
X41640000Y-35735000D02*
X43925000Y-35735000D01*
X31925000Y-31265000D02*
X29640000Y-31265000D01*
X29640000Y-31265000D02*
X29640000Y-32735000D01*
X29640000Y-32735000D02*
X31925000Y-32735000D01*
X37640000Y-29735000D02*
X39925000Y-29735000D01*
X37640000Y-28265000D02*
X37640000Y-29735000D01*
X39925000Y-28265000D02*
X37640000Y-28265000D01*
X37640000Y-35735000D02*
X39925000Y-35735000D01*
X37640000Y-34265000D02*
X37640000Y-35735000D01*
X39925000Y-34265000D02*
X37640000Y-34265000D01*
X33640000Y-29735000D02*
X35925000Y-29735000D01*
X33640000Y-28265000D02*
X33640000Y-29735000D01*
X35925000Y-28265000D02*
X33640000Y-28265000D01*
X39925000Y-31265000D02*
X37640000Y-31265000D01*
X37640000Y-31265000D02*
X37640000Y-32735000D01*
X37640000Y-32735000D02*
X39925000Y-32735000D01*
X33640000Y-38735000D02*
X35925000Y-38735000D01*
X35925000Y-37265000D02*
X33640000Y-37265000D01*
X33640000Y-37265000D02*
X33640000Y-38735000D01*
X29640000Y-28265000D02*
X29640000Y-29735000D01*
X29640000Y-29735000D02*
X31925000Y-29735000D01*
X31925000Y-28265000D02*
X29640000Y-28265000D01*
X41640000Y-25265000D02*
X41640000Y-26735000D01*
X41640000Y-26735000D02*
X43925000Y-26735000D01*
X43925000Y-25265000D02*
X41640000Y-25265000D01*
X37640000Y-25265000D02*
X37640000Y-26735000D01*
X39925000Y-25265000D02*
X37640000Y-25265000D01*
X37640000Y-26735000D02*
X39925000Y-26735000D01*
X33640000Y-26735000D02*
X35925000Y-26735000D01*
X35925000Y-25265000D02*
X33640000Y-25265000D01*
X33640000Y-25265000D02*
X33640000Y-26735000D01*
X29640000Y-25265000D02*
X29640000Y-26735000D01*
X29640000Y-26735000D02*
X31925000Y-26735000D01*
X31925000Y-25265000D02*
X29640000Y-25265000D01*
X43925000Y-22265000D02*
X41640000Y-22265000D01*
X41640000Y-23735000D02*
X43925000Y-23735000D01*
X41640000Y-22265000D02*
X41640000Y-23735000D01*
X29640000Y-23735000D02*
X31925000Y-23735000D01*
X29640000Y-22265000D02*
X29640000Y-23735000D01*
X31925000Y-22265000D02*
X29640000Y-22265000D01*
X37640000Y-22265000D02*
X37640000Y-23735000D01*
X39925000Y-22265000D02*
X37640000Y-22265000D01*
X37640000Y-23735000D02*
X39925000Y-23735000D01*
X35925000Y-22265000D02*
X33640000Y-22265000D01*
X33640000Y-22265000D02*
X33640000Y-23735000D01*
X33640000Y-23735000D02*
X35925000Y-23735000D01*
X71570000Y-35940000D02*
X71570000Y-46060000D01*
X64430000Y-46000000D02*
X64430000Y-41000000D01*
X55570000Y-35940000D02*
X55570000Y-46060000D01*
X48430000Y-46000000D02*
X48430000Y-41000000D01*
X17490000Y-49512779D02*
X17490000Y-49187221D01*
X18510000Y-49512779D02*
X18510000Y-49187221D01*
X31737221Y-55010000D02*
X32062779Y-55010000D01*
X31737221Y-53990000D02*
X32062779Y-53990000D01*
X17990000Y-45012779D02*
X17990000Y-44687221D01*
X19010000Y-45012779D02*
X19010000Y-44687221D01*
X18510000Y-53662779D02*
X18510000Y-53337221D01*
X17490000Y-53662779D02*
X17490000Y-53337221D01*
X26320000Y-55250000D02*
X26320000Y-54450000D01*
X22880000Y-55250000D02*
X22880000Y-54450000D01*
X20690000Y-51562779D02*
X20690000Y-51237221D01*
X21710000Y-51562779D02*
X21710000Y-51237221D01*
X21710000Y-48187221D02*
X21710000Y-48512779D01*
X20690000Y-48187221D02*
X20690000Y-48512779D01*
X29337221Y-53260000D02*
X29662779Y-53260000D01*
X29337221Y-52240000D02*
X29662779Y-52240000D01*
X20790000Y-42287221D02*
X20790000Y-42612779D01*
X21810000Y-42287221D02*
X21810000Y-42612779D01*
X32437221Y-53260000D02*
X32762779Y-53260000D01*
X32437221Y-52240000D02*
X32762779Y-52240000D01*
M02*
