G04 #@! TF.GenerationSoftware,KiCad,Pcbnew,(5.99.0-3349-gc9824bbd9)*
G04 #@! TF.CreationDate,2020-09-22T10:36:58-07:00*
G04 #@! TF.ProjectId,Alchitry_IO_Shield,416c6368-6974-4727-995f-494f5f536869,rev?*
G04 #@! TF.SameCoordinates,Original*
G04 #@! TF.FileFunction,Paste,Bot*
G04 #@! TF.FilePolarity,Positive*
%FSLAX46Y46*%
G04 Gerber Fmt 4.6, Leading zero omitted, Abs format (unit mm)*
G04 Created by KiCad (PCBNEW (5.99.0-3349-gc9824bbd9)) date 2020-09-22 10:36:58*
%MOMM*%
%LPD*%
G01*
G04 APERTURE LIST*
%ADD10R,0.500000X0.800000*%
%ADD11R,0.400000X0.800000*%
%ADD12R,0.900000X0.800000*%
%ADD13R,1.750000X1.750000*%
%ADD14R,0.300000X1.500000*%
%ADD15R,1.500000X0.300000*%
%ADD16R,0.250000X2.000000*%
G04 APERTURE END LIST*
D10*
X51200000Y-85900000D03*
D11*
X50400000Y-85900000D03*
X49600000Y-85900000D03*
D10*
X48800000Y-85900000D03*
X48800000Y-84100000D03*
D11*
X49600000Y-84100000D03*
X50400000Y-84100000D03*
D10*
X51200000Y-84100000D03*
X55200000Y-85900000D03*
D11*
X54400000Y-85900000D03*
X53600000Y-85900000D03*
D10*
X52800000Y-85900000D03*
X52800000Y-84100000D03*
D11*
X53600000Y-84100000D03*
X54400000Y-84100000D03*
D10*
X55200000Y-84100000D03*
X59050000Y-85900000D03*
D11*
X58250000Y-85900000D03*
X57450000Y-85900000D03*
D10*
X56650000Y-85900000D03*
X56650000Y-84100000D03*
D11*
X57450000Y-84100000D03*
X58250000Y-84100000D03*
D10*
X59050000Y-84100000D03*
X67200000Y-85900000D03*
D11*
X66400000Y-85900000D03*
X65600000Y-85900000D03*
D10*
X64800000Y-85900000D03*
X64800000Y-84100000D03*
D11*
X65600000Y-84100000D03*
X66400000Y-84100000D03*
D10*
X67200000Y-84100000D03*
X63200000Y-85900000D03*
D11*
X62400000Y-85900000D03*
X61600000Y-85900000D03*
D10*
X60800000Y-85900000D03*
X60800000Y-84100000D03*
D11*
X61600000Y-84100000D03*
X62400000Y-84100000D03*
D10*
X63200000Y-84100000D03*
X71200000Y-85900000D03*
D11*
X70400000Y-85900000D03*
X69600000Y-85900000D03*
D10*
X68800000Y-85900000D03*
X68800000Y-84100000D03*
D11*
X69600000Y-84100000D03*
X70400000Y-84100000D03*
D10*
X71200000Y-84100000D03*
D12*
X47600000Y-64150000D03*
X47600000Y-62250000D03*
X49600000Y-63200000D03*
X51200000Y-62550000D03*
X51200000Y-60650000D03*
X53200000Y-61600000D03*
X47600000Y-60450000D03*
X47600000Y-58550000D03*
X49600000Y-59500000D03*
D10*
X65200000Y-74900000D03*
D11*
X64400000Y-74900000D03*
X63600000Y-74900000D03*
D10*
X62800000Y-74900000D03*
X62800000Y-73100000D03*
D11*
X63600000Y-73100000D03*
X64400000Y-73100000D03*
D10*
X65200000Y-73100000D03*
X40700000Y-80900000D03*
D11*
X39900000Y-80900000D03*
X39100000Y-80900000D03*
D10*
X38300000Y-80900000D03*
X38300000Y-79100000D03*
D11*
X39100000Y-79100000D03*
X39900000Y-79100000D03*
D10*
X40700000Y-79100000D03*
X35900000Y-83900000D03*
D11*
X35100000Y-83900000D03*
X34300000Y-83900000D03*
D10*
X33500000Y-83900000D03*
X33500000Y-82100000D03*
D11*
X34300000Y-82100000D03*
X35100000Y-82100000D03*
D10*
X35900000Y-82100000D03*
D13*
X27100000Y-94200000D03*
X24900000Y-92000000D03*
X27100000Y-92000000D03*
X24900000Y-94200000D03*
D14*
X29750000Y-98800000D03*
X29250000Y-98800000D03*
X28750000Y-98800000D03*
X28250000Y-98800000D03*
X27750000Y-98800000D03*
X27250000Y-98800000D03*
X26750000Y-98800000D03*
X26250000Y-98800000D03*
X25750000Y-98800000D03*
X25250000Y-98800000D03*
X24750000Y-98800000D03*
X24250000Y-98800000D03*
X23750000Y-98800000D03*
X23250000Y-98800000D03*
X22750000Y-98800000D03*
X22250000Y-98800000D03*
D15*
X20300000Y-96850000D03*
X20300000Y-96350000D03*
X20300000Y-95850000D03*
X20300000Y-95350000D03*
X20300000Y-94850000D03*
X20300000Y-94350000D03*
X20300000Y-93850000D03*
X20300000Y-93350000D03*
X20300000Y-92850000D03*
X20300000Y-92350000D03*
X20300000Y-91850000D03*
X20300000Y-91350000D03*
X20300000Y-90850000D03*
X20300000Y-90350000D03*
X20300000Y-89850000D03*
X20300000Y-89350000D03*
D14*
X22250000Y-87400000D03*
X22750000Y-87400000D03*
X23250000Y-87400000D03*
X23750000Y-87400000D03*
X24250000Y-87400000D03*
X24750000Y-87400000D03*
X25250000Y-87400000D03*
X25750000Y-87400000D03*
X26250000Y-87400000D03*
X26750000Y-87400000D03*
X27250000Y-87400000D03*
X27750000Y-87400000D03*
X28250000Y-87400000D03*
X28750000Y-87400000D03*
X29250000Y-87400000D03*
X29750000Y-87400000D03*
D15*
X31700000Y-89350000D03*
X31700000Y-89850000D03*
X31700000Y-90350000D03*
X31700000Y-90850000D03*
X31700000Y-91350000D03*
X31700000Y-91850000D03*
X31700000Y-92350000D03*
X31700000Y-92850000D03*
X31700000Y-93350000D03*
X31700000Y-93850000D03*
X31700000Y-94350000D03*
X31700000Y-94850000D03*
X31700000Y-95350000D03*
X31700000Y-95850000D03*
X31700000Y-96350000D03*
X31700000Y-96850000D03*
D10*
X53200000Y-74900000D03*
D11*
X52400000Y-74900000D03*
X51600000Y-74900000D03*
D10*
X50800000Y-74900000D03*
X50800000Y-73100000D03*
D11*
X51600000Y-73100000D03*
X52400000Y-73100000D03*
D10*
X53200000Y-73100000D03*
G36*
G01*
X22727500Y-71305000D02*
X23072500Y-71305000D01*
G75*
G02*
X23220000Y-71452500I0J-147500D01*
G01*
X23220000Y-71747500D01*
G75*
G02*
X23072500Y-71895000I-147500J0D01*
G01*
X22727500Y-71895000D01*
G75*
G02*
X22580000Y-71747500I0J147500D01*
G01*
X22580000Y-71452500D01*
G75*
G02*
X22727500Y-71305000I147500J0D01*
G01*
G37*
G36*
G01*
X22750000Y-72440000D02*
X22750000Y-71640000D01*
G75*
G02*
X22825000Y-71565000I75000J0D01*
G01*
X22975000Y-71565000D01*
G75*
G02*
X23050000Y-71640000I0J-75000D01*
G01*
X23050000Y-72440000D01*
G75*
G02*
X22975000Y-72515000I-75000J0D01*
G01*
X22825000Y-72515000D01*
G75*
G02*
X22750000Y-72440000I0J75000D01*
G01*
G37*
G36*
G01*
X22727500Y-72275000D02*
X23072500Y-72275000D01*
G75*
G02*
X23220000Y-72422500I0J-147500D01*
G01*
X23220000Y-72717500D01*
G75*
G02*
X23072500Y-72865000I-147500J0D01*
G01*
X22727500Y-72865000D01*
G75*
G02*
X22580000Y-72717500I0J147500D01*
G01*
X22580000Y-72422500D01*
G75*
G02*
X22727500Y-72275000I147500J0D01*
G01*
G37*
G36*
G01*
X22727500Y-73190000D02*
X23072500Y-73190000D01*
G75*
G02*
X23220000Y-73337500I0J-147500D01*
G01*
X23220000Y-73632500D01*
G75*
G02*
X23072500Y-73780000I-147500J0D01*
G01*
X22727500Y-73780000D01*
G75*
G02*
X22580000Y-73632500I0J147500D01*
G01*
X22580000Y-73337500D01*
G75*
G02*
X22727500Y-73190000I147500J0D01*
G01*
G37*
X40700000Y-86900000D03*
D11*
X39900000Y-86900000D03*
X39100000Y-86900000D03*
D10*
X38300000Y-86900000D03*
X38300000Y-85100000D03*
D11*
X39100000Y-85100000D03*
X39900000Y-85100000D03*
D10*
X40700000Y-85100000D03*
X35900000Y-71900000D03*
D11*
X35100000Y-71900000D03*
X34300000Y-71900000D03*
D10*
X33500000Y-71900000D03*
X33500000Y-70100000D03*
D11*
X34300000Y-70100000D03*
X35100000Y-70100000D03*
D10*
X35900000Y-70100000D03*
X35900000Y-77900000D03*
D11*
X35100000Y-77900000D03*
X34300000Y-77900000D03*
D10*
X33500000Y-77900000D03*
X33500000Y-76100000D03*
D11*
X34300000Y-76100000D03*
X35100000Y-76100000D03*
D10*
X35900000Y-76100000D03*
X40700000Y-74900000D03*
D11*
X39900000Y-74900000D03*
X39100000Y-74900000D03*
D10*
X38300000Y-74900000D03*
X38300000Y-73100000D03*
D11*
X39100000Y-73100000D03*
X39900000Y-73100000D03*
D10*
X40700000Y-73100000D03*
X57200000Y-74900000D03*
D11*
X56400000Y-74900000D03*
X55600000Y-74900000D03*
D10*
X54800000Y-74900000D03*
X54800000Y-73100000D03*
D11*
X55600000Y-73100000D03*
X56400000Y-73100000D03*
D10*
X57200000Y-73100000D03*
X69200000Y-74900000D03*
D11*
X68400000Y-74900000D03*
X67600000Y-74900000D03*
D10*
X66800000Y-74900000D03*
X66800000Y-73100000D03*
D11*
X67600000Y-73100000D03*
X68400000Y-73100000D03*
D10*
X69200000Y-73100000D03*
D16*
X32500000Y-63700000D03*
X33000000Y-63700000D03*
X33500000Y-63700000D03*
X34000000Y-63700000D03*
X34500000Y-63700000D03*
X35000000Y-63700000D03*
X35500000Y-63700000D03*
X36000000Y-63700000D03*
X36500000Y-63700000D03*
X37000000Y-63700000D03*
X37500000Y-63700000D03*
X38000000Y-63700000D03*
X38500000Y-63700000D03*
X39000000Y-63700000D03*
X39500000Y-63700000D03*
X40000000Y-63700000D03*
X40500000Y-63700000D03*
X41000000Y-63700000D03*
X41500000Y-63700000D03*
X42000000Y-63700000D03*
X42500000Y-63700000D03*
X43000000Y-63700000D03*
X43500000Y-63700000D03*
X44000000Y-63700000D03*
X44500000Y-63700000D03*
X44500000Y-59300000D03*
X44000000Y-59300000D03*
X43500000Y-59300000D03*
X43000000Y-59300000D03*
X42500000Y-59300000D03*
X42000000Y-59300000D03*
X41500000Y-59300000D03*
X41000000Y-59300000D03*
X40500000Y-59300000D03*
X40000000Y-59300000D03*
X39500000Y-59300000D03*
X39000000Y-59300000D03*
X38500000Y-59300000D03*
X38000000Y-59300000D03*
X37500000Y-59300000D03*
X37000000Y-59300000D03*
X36500000Y-59300000D03*
X36000000Y-59300000D03*
X35500000Y-59300000D03*
X35000000Y-59300000D03*
X34500000Y-59300000D03*
X34000000Y-59300000D03*
X33500000Y-59300000D03*
X33000000Y-59300000D03*
X32500000Y-59300000D03*
X58000000Y-63700000D03*
X58500000Y-63700000D03*
X59000000Y-63700000D03*
X59500000Y-63700000D03*
X60000000Y-63700000D03*
X60500000Y-63700000D03*
X61000000Y-63700000D03*
X61500000Y-63700000D03*
X62000000Y-63700000D03*
X62500000Y-63700000D03*
X63000000Y-63700000D03*
X63500000Y-63700000D03*
X64000000Y-63700000D03*
X64500000Y-63700000D03*
X65000000Y-63700000D03*
X65500000Y-63700000D03*
X66000000Y-63700000D03*
X66500000Y-63700000D03*
X67000000Y-63700000D03*
X67500000Y-63700000D03*
X68000000Y-63700000D03*
X68500000Y-63700000D03*
X69000000Y-63700000D03*
X69500000Y-63700000D03*
X70000000Y-63700000D03*
X70000000Y-59300000D03*
X69500000Y-59300000D03*
X69000000Y-59300000D03*
X68500000Y-59300000D03*
X68000000Y-59300000D03*
X67500000Y-59300000D03*
X67000000Y-59300000D03*
X66500000Y-59300000D03*
X66000000Y-59300000D03*
X65500000Y-59300000D03*
X65000000Y-59300000D03*
X64500000Y-59300000D03*
X64000000Y-59300000D03*
X63500000Y-59300000D03*
X63000000Y-59300000D03*
X62500000Y-59300000D03*
X62000000Y-59300000D03*
X61500000Y-59300000D03*
X61000000Y-59300000D03*
X60500000Y-59300000D03*
X60000000Y-59300000D03*
X59500000Y-59300000D03*
X59000000Y-59300000D03*
X58500000Y-59300000D03*
X58000000Y-59300000D03*
X36500000Y-99700000D03*
X37000000Y-99700000D03*
X37500000Y-99700000D03*
X38000000Y-99700000D03*
X38500000Y-99700000D03*
X39000000Y-99700000D03*
X39500000Y-99700000D03*
X40000000Y-99700000D03*
X40500000Y-99700000D03*
X41000000Y-99700000D03*
X41500000Y-99700000D03*
X42000000Y-99700000D03*
X42500000Y-99700000D03*
X43000000Y-99700000D03*
X43500000Y-99700000D03*
X44000000Y-99700000D03*
X44500000Y-99700000D03*
X45000000Y-99700000D03*
X45500000Y-99700000D03*
X46000000Y-99700000D03*
X46500000Y-99700000D03*
X47000000Y-99700000D03*
X47500000Y-99700000D03*
X48000000Y-99700000D03*
X48500000Y-99700000D03*
X48500000Y-95300000D03*
X48000000Y-95300000D03*
X47500000Y-95300000D03*
X47000000Y-95300000D03*
X46500000Y-95300000D03*
X46000000Y-95300000D03*
X45500000Y-95300000D03*
X45000000Y-95300000D03*
X44500000Y-95300000D03*
X44000000Y-95300000D03*
X43500000Y-95300000D03*
X43000000Y-95300000D03*
X42500000Y-95300000D03*
X42000000Y-95300000D03*
X41500000Y-95300000D03*
X41000000Y-95300000D03*
X40500000Y-95300000D03*
X40000000Y-95300000D03*
X39500000Y-95300000D03*
X39000000Y-95300000D03*
X38500000Y-95300000D03*
X38000000Y-95300000D03*
X37500000Y-95300000D03*
X37000000Y-95300000D03*
X36500000Y-95300000D03*
X58000000Y-99700000D03*
X58500000Y-99700000D03*
X59000000Y-99700000D03*
X59500000Y-99700000D03*
X60000000Y-99700000D03*
X60500000Y-99700000D03*
X61000000Y-99700000D03*
X61500000Y-99700000D03*
X62000000Y-99700000D03*
X62500000Y-99700000D03*
X63000000Y-99700000D03*
X63500000Y-99700000D03*
X64000000Y-99700000D03*
X64500000Y-99700000D03*
X65000000Y-99700000D03*
X65500000Y-99700000D03*
X66000000Y-99700000D03*
X66500000Y-99700000D03*
X67000000Y-99700000D03*
X67500000Y-99700000D03*
X68000000Y-99700000D03*
X68500000Y-99700000D03*
X69000000Y-99700000D03*
X69500000Y-99700000D03*
X70000000Y-99700000D03*
X70000000Y-95300000D03*
X69500000Y-95300000D03*
X69000000Y-95300000D03*
X68500000Y-95300000D03*
X68000000Y-95300000D03*
X67500000Y-95300000D03*
X67000000Y-95300000D03*
X66500000Y-95300000D03*
X66000000Y-95300000D03*
X65500000Y-95300000D03*
X65000000Y-95300000D03*
X64500000Y-95300000D03*
X64000000Y-95300000D03*
X63500000Y-95300000D03*
X63000000Y-95300000D03*
X62500000Y-95300000D03*
X62000000Y-95300000D03*
X61500000Y-95300000D03*
X61000000Y-95300000D03*
X60500000Y-95300000D03*
X60000000Y-95300000D03*
X59500000Y-95300000D03*
X59000000Y-95300000D03*
X58500000Y-95300000D03*
X58000000Y-95300000D03*
X32500000Y-18700000D03*
X33000000Y-18700000D03*
X33500000Y-18700000D03*
X34000000Y-18700000D03*
X34500000Y-18700000D03*
X35000000Y-18700000D03*
X35500000Y-18700000D03*
X36000000Y-18700000D03*
X36500000Y-18700000D03*
X37000000Y-18700000D03*
X37500000Y-18700000D03*
X38000000Y-18700000D03*
X38500000Y-18700000D03*
X39000000Y-18700000D03*
X39500000Y-18700000D03*
X40000000Y-18700000D03*
X40500000Y-18700000D03*
X41000000Y-18700000D03*
X41500000Y-18700000D03*
X42000000Y-18700000D03*
X42500000Y-18700000D03*
X43000000Y-18700000D03*
X43500000Y-18700000D03*
X44000000Y-18700000D03*
X44500000Y-18700000D03*
X44500000Y-14300000D03*
X44000000Y-14300000D03*
X43500000Y-14300000D03*
X43000000Y-14300000D03*
X42500000Y-14300000D03*
X42000000Y-14300000D03*
X41500000Y-14300000D03*
X41000000Y-14300000D03*
X40500000Y-14300000D03*
X40000000Y-14300000D03*
X39500000Y-14300000D03*
X39000000Y-14300000D03*
X38500000Y-14300000D03*
X38000000Y-14300000D03*
X37500000Y-14300000D03*
X37000000Y-14300000D03*
X36500000Y-14300000D03*
X36000000Y-14300000D03*
X35500000Y-14300000D03*
X35000000Y-14300000D03*
X34500000Y-14300000D03*
X34000000Y-14300000D03*
X33500000Y-14300000D03*
X33000000Y-14300000D03*
X32500000Y-14300000D03*
X58000000Y-18700000D03*
X58500000Y-18700000D03*
X59000000Y-18700000D03*
X59500000Y-18700000D03*
X60000000Y-18700000D03*
X60500000Y-18700000D03*
X61000000Y-18700000D03*
X61500000Y-18700000D03*
X62000000Y-18700000D03*
X62500000Y-18700000D03*
X63000000Y-18700000D03*
X63500000Y-18700000D03*
X64000000Y-18700000D03*
X64500000Y-18700000D03*
X65000000Y-18700000D03*
X65500000Y-18700000D03*
X66000000Y-18700000D03*
X66500000Y-18700000D03*
X67000000Y-18700000D03*
X67500000Y-18700000D03*
X68000000Y-18700000D03*
X68500000Y-18700000D03*
X69000000Y-18700000D03*
X69500000Y-18700000D03*
X70000000Y-18700000D03*
X70000000Y-14300000D03*
X69500000Y-14300000D03*
X69000000Y-14300000D03*
X68500000Y-14300000D03*
X68000000Y-14300000D03*
X67500000Y-14300000D03*
X67000000Y-14300000D03*
X66500000Y-14300000D03*
X66000000Y-14300000D03*
X65500000Y-14300000D03*
X65000000Y-14300000D03*
X64500000Y-14300000D03*
X64000000Y-14300000D03*
X63500000Y-14300000D03*
X63000000Y-14300000D03*
X62500000Y-14300000D03*
X62000000Y-14300000D03*
X61500000Y-14300000D03*
X61000000Y-14300000D03*
X60500000Y-14300000D03*
X60000000Y-14300000D03*
X59500000Y-14300000D03*
X59000000Y-14300000D03*
X58500000Y-14300000D03*
X58000000Y-14300000D03*
X36500000Y-54700000D03*
X37000000Y-54700000D03*
X37500000Y-54700000D03*
X38000000Y-54700000D03*
X38500000Y-54700000D03*
X39000000Y-54700000D03*
X39500000Y-54700000D03*
X40000000Y-54700000D03*
X40500000Y-54700000D03*
X41000000Y-54700000D03*
X41500000Y-54700000D03*
X42000000Y-54700000D03*
X42500000Y-54700000D03*
X43000000Y-54700000D03*
X43500000Y-54700000D03*
X44000000Y-54700000D03*
X44500000Y-54700000D03*
X45000000Y-54700000D03*
X45500000Y-54700000D03*
X46000000Y-54700000D03*
X46500000Y-54700000D03*
X47000000Y-54700000D03*
X47500000Y-54700000D03*
X48000000Y-54700000D03*
X48500000Y-54700000D03*
X48500000Y-50300000D03*
X48000000Y-50300000D03*
X47500000Y-50300000D03*
X47000000Y-50300000D03*
X46500000Y-50300000D03*
X46000000Y-50300000D03*
X45500000Y-50300000D03*
X45000000Y-50300000D03*
X44500000Y-50300000D03*
X44000000Y-50300000D03*
X43500000Y-50300000D03*
X43000000Y-50300000D03*
X42500000Y-50300000D03*
X42000000Y-50300000D03*
X41500000Y-50300000D03*
X41000000Y-50300000D03*
X40500000Y-50300000D03*
X40000000Y-50300000D03*
X39500000Y-50300000D03*
X39000000Y-50300000D03*
X38500000Y-50300000D03*
X38000000Y-50300000D03*
X37500000Y-50300000D03*
X37000000Y-50300000D03*
X36500000Y-50300000D03*
X58000000Y-54700000D03*
X58500000Y-54700000D03*
X59000000Y-54700000D03*
X59500000Y-54700000D03*
X60000000Y-54700000D03*
X60500000Y-54700000D03*
X61000000Y-54700000D03*
X61500000Y-54700000D03*
X62000000Y-54700000D03*
X62500000Y-54700000D03*
X63000000Y-54700000D03*
X63500000Y-54700000D03*
X64000000Y-54700000D03*
X64500000Y-54700000D03*
X65000000Y-54700000D03*
X65500000Y-54700000D03*
X66000000Y-54700000D03*
X66500000Y-54700000D03*
X67000000Y-54700000D03*
X67500000Y-54700000D03*
X68000000Y-54700000D03*
X68500000Y-54700000D03*
X69000000Y-54700000D03*
X69500000Y-54700000D03*
X70000000Y-54700000D03*
X70000000Y-50300000D03*
X69500000Y-50300000D03*
X69000000Y-50300000D03*
X68500000Y-50300000D03*
X68000000Y-50300000D03*
X67500000Y-50300000D03*
X67000000Y-50300000D03*
X66500000Y-50300000D03*
X66000000Y-50300000D03*
X65500000Y-50300000D03*
X65000000Y-50300000D03*
X64500000Y-50300000D03*
X64000000Y-50300000D03*
X63500000Y-50300000D03*
X63000000Y-50300000D03*
X62500000Y-50300000D03*
X62000000Y-50300000D03*
X61500000Y-50300000D03*
X61000000Y-50300000D03*
X60500000Y-50300000D03*
X60000000Y-50300000D03*
X59500000Y-50300000D03*
X59000000Y-50300000D03*
X58500000Y-50300000D03*
X58000000Y-50300000D03*
D10*
X69200000Y-29900000D03*
D11*
X68400000Y-29900000D03*
X67600000Y-29900000D03*
D10*
X66800000Y-29900000D03*
X66800000Y-28100000D03*
D11*
X67600000Y-28100000D03*
X68400000Y-28100000D03*
D10*
X69200000Y-28100000D03*
X65200000Y-29900000D03*
D11*
X64400000Y-29900000D03*
X63600000Y-29900000D03*
D10*
X62800000Y-29900000D03*
X62800000Y-28100000D03*
D11*
X63600000Y-28100000D03*
X64400000Y-28100000D03*
D10*
X65200000Y-28100000D03*
X57200000Y-29900000D03*
D11*
X56400000Y-29900000D03*
X55600000Y-29900000D03*
D10*
X54800000Y-29900000D03*
X54800000Y-28100000D03*
D11*
X55600000Y-28100000D03*
X56400000Y-28100000D03*
D10*
X57200000Y-28100000D03*
X53200000Y-29900000D03*
D11*
X52400000Y-29900000D03*
X51600000Y-29900000D03*
D10*
X50800000Y-29900000D03*
X50800000Y-28100000D03*
D11*
X51600000Y-28100000D03*
X52400000Y-28100000D03*
D10*
X53200000Y-28100000D03*
D13*
X27100000Y-49200000D03*
X24900000Y-47000000D03*
X27100000Y-47000000D03*
X24900000Y-49200000D03*
D14*
X29750000Y-53800000D03*
X29250000Y-53800000D03*
X28750000Y-53800000D03*
X28250000Y-53800000D03*
X27750000Y-53800000D03*
X27250000Y-53800000D03*
X26750000Y-53800000D03*
X26250000Y-53800000D03*
X25750000Y-53800000D03*
X25250000Y-53800000D03*
X24750000Y-53800000D03*
X24250000Y-53800000D03*
X23750000Y-53800000D03*
X23250000Y-53800000D03*
X22750000Y-53800000D03*
X22250000Y-53800000D03*
D15*
X20300000Y-51850000D03*
X20300000Y-51350000D03*
X20300000Y-50850000D03*
X20300000Y-50350000D03*
X20300000Y-49850000D03*
X20300000Y-49350000D03*
X20300000Y-48850000D03*
X20300000Y-48350000D03*
X20300000Y-47850000D03*
X20300000Y-47350000D03*
X20300000Y-46850000D03*
X20300000Y-46350000D03*
X20300000Y-45850000D03*
X20300000Y-45350000D03*
X20300000Y-44850000D03*
X20300000Y-44350000D03*
D14*
X22250000Y-42400000D03*
X22750000Y-42400000D03*
X23250000Y-42400000D03*
X23750000Y-42400000D03*
X24250000Y-42400000D03*
X24750000Y-42400000D03*
X25250000Y-42400000D03*
X25750000Y-42400000D03*
X26250000Y-42400000D03*
X26750000Y-42400000D03*
X27250000Y-42400000D03*
X27750000Y-42400000D03*
X28250000Y-42400000D03*
X28750000Y-42400000D03*
X29250000Y-42400000D03*
X29750000Y-42400000D03*
D15*
X31700000Y-44350000D03*
X31700000Y-44850000D03*
X31700000Y-45350000D03*
X31700000Y-45850000D03*
X31700000Y-46350000D03*
X31700000Y-46850000D03*
X31700000Y-47350000D03*
X31700000Y-47850000D03*
X31700000Y-48350000D03*
X31700000Y-48850000D03*
X31700000Y-49350000D03*
X31700000Y-49850000D03*
X31700000Y-50350000D03*
X31700000Y-50850000D03*
X31700000Y-51350000D03*
X31700000Y-51850000D03*
D10*
X35900000Y-38900000D03*
D11*
X35100000Y-38900000D03*
X34300000Y-38900000D03*
D10*
X33500000Y-38900000D03*
X33500000Y-37100000D03*
D11*
X34300000Y-37100000D03*
X35100000Y-37100000D03*
D10*
X35900000Y-37100000D03*
X40700000Y-35900000D03*
D11*
X39900000Y-35900000D03*
X39100000Y-35900000D03*
D10*
X38300000Y-35900000D03*
X38300000Y-34100000D03*
D11*
X39100000Y-34100000D03*
X39900000Y-34100000D03*
D10*
X40700000Y-34100000D03*
X40700000Y-29900000D03*
D11*
X39900000Y-29900000D03*
X39100000Y-29900000D03*
D10*
X38300000Y-29900000D03*
X38300000Y-28100000D03*
D11*
X39100000Y-28100000D03*
X39900000Y-28100000D03*
D10*
X40700000Y-28100000D03*
X35900000Y-32900000D03*
D11*
X35100000Y-32900000D03*
X34300000Y-32900000D03*
D10*
X33500000Y-32900000D03*
X33500000Y-31100000D03*
D11*
X34300000Y-31100000D03*
X35100000Y-31100000D03*
D10*
X35900000Y-31100000D03*
X35900000Y-26900000D03*
D11*
X35100000Y-26900000D03*
X34300000Y-26900000D03*
D10*
X33500000Y-26900000D03*
X33500000Y-25100000D03*
D11*
X34300000Y-25100000D03*
X35100000Y-25100000D03*
D10*
X35900000Y-25100000D03*
X40700000Y-41900000D03*
D11*
X39900000Y-41900000D03*
X39100000Y-41900000D03*
D10*
X38300000Y-41900000D03*
X38300000Y-40100000D03*
D11*
X39100000Y-40100000D03*
X39900000Y-40100000D03*
D10*
X40700000Y-40100000D03*
G36*
G01*
X22727500Y-26305000D02*
X23072500Y-26305000D01*
G75*
G02*
X23220000Y-26452500I0J-147500D01*
G01*
X23220000Y-26747500D01*
G75*
G02*
X23072500Y-26895000I-147500J0D01*
G01*
X22727500Y-26895000D01*
G75*
G02*
X22580000Y-26747500I0J147500D01*
G01*
X22580000Y-26452500D01*
G75*
G02*
X22727500Y-26305000I147500J0D01*
G01*
G37*
G36*
G01*
X22750000Y-27440000D02*
X22750000Y-26640000D01*
G75*
G02*
X22825000Y-26565000I75000J0D01*
G01*
X22975000Y-26565000D01*
G75*
G02*
X23050000Y-26640000I0J-75000D01*
G01*
X23050000Y-27440000D01*
G75*
G02*
X22975000Y-27515000I-75000J0D01*
G01*
X22825000Y-27515000D01*
G75*
G02*
X22750000Y-27440000I0J75000D01*
G01*
G37*
G36*
G01*
X22727500Y-27275000D02*
X23072500Y-27275000D01*
G75*
G02*
X23220000Y-27422500I0J-147500D01*
G01*
X23220000Y-27717500D01*
G75*
G02*
X23072500Y-27865000I-147500J0D01*
G01*
X22727500Y-27865000D01*
G75*
G02*
X22580000Y-27717500I0J147500D01*
G01*
X22580000Y-27422500D01*
G75*
G02*
X22727500Y-27275000I147500J0D01*
G01*
G37*
G36*
G01*
X22727500Y-28190000D02*
X23072500Y-28190000D01*
G75*
G02*
X23220000Y-28337500I0J-147500D01*
G01*
X23220000Y-28632500D01*
G75*
G02*
X23072500Y-28780000I-147500J0D01*
G01*
X22727500Y-28780000D01*
G75*
G02*
X22580000Y-28632500I0J147500D01*
G01*
X22580000Y-28337500D01*
G75*
G02*
X22727500Y-28190000I147500J0D01*
G01*
G37*
D12*
X47600000Y-15450000D03*
X47600000Y-13550000D03*
X49600000Y-14500000D03*
X51200000Y-17550000D03*
X51200000Y-15650000D03*
X53200000Y-16600000D03*
X47600000Y-19150000D03*
X47600000Y-17250000D03*
X49600000Y-18200000D03*
D10*
X71200000Y-40900000D03*
D11*
X70400000Y-40900000D03*
X69600000Y-40900000D03*
D10*
X68800000Y-40900000D03*
X68800000Y-39100000D03*
D11*
X69600000Y-39100000D03*
X70400000Y-39100000D03*
D10*
X71200000Y-39100000D03*
X63200000Y-40900000D03*
D11*
X62400000Y-40900000D03*
X61600000Y-40900000D03*
D10*
X60800000Y-40900000D03*
X60800000Y-39100000D03*
D11*
X61600000Y-39100000D03*
X62400000Y-39100000D03*
D10*
X63200000Y-39100000D03*
X67200000Y-40900000D03*
D11*
X66400000Y-40900000D03*
X65600000Y-40900000D03*
D10*
X64800000Y-40900000D03*
X64800000Y-39100000D03*
D11*
X65600000Y-39100000D03*
X66400000Y-39100000D03*
D10*
X67200000Y-39100000D03*
X59050000Y-40900000D03*
D11*
X58250000Y-40900000D03*
X57450000Y-40900000D03*
D10*
X56650000Y-40900000D03*
X56650000Y-39100000D03*
D11*
X57450000Y-39100000D03*
X58250000Y-39100000D03*
D10*
X59050000Y-39100000D03*
X55200000Y-40900000D03*
D11*
X54400000Y-40900000D03*
X53600000Y-40900000D03*
D10*
X52800000Y-40900000D03*
X52800000Y-39100000D03*
D11*
X53600000Y-39100000D03*
X54400000Y-39100000D03*
D10*
X55200000Y-39100000D03*
X51200000Y-40900000D03*
D11*
X50400000Y-40900000D03*
X49600000Y-40900000D03*
D10*
X48800000Y-40900000D03*
X48800000Y-39100000D03*
D11*
X49600000Y-39100000D03*
X50400000Y-39100000D03*
D10*
X51200000Y-39100000D03*
M02*
