G04 #@! TF.GenerationSoftware,KiCad,Pcbnew,(5.99.0-3349-gc9824bbd9)*
G04 #@! TF.CreationDate,2020-09-22T10:36:58-07:00*
G04 #@! TF.ProjectId,Alchitry_IO_Shield,416c6368-6974-4727-995f-494f5f536869,rev?*
G04 #@! TF.SameCoordinates,Original*
G04 #@! TF.FileFunction,Legend,Bot*
G04 #@! TF.FilePolarity,Positive*
%FSLAX46Y46*%
G04 Gerber Fmt 4.6, Leading zero omitted, Abs format (unit mm)*
G04 Created by KiCad (PCBNEW (5.99.0-3349-gc9824bbd9)) date 2020-09-22 10:36:58*
%MOMM*%
%LPD*%
G01*
G04 APERTURE LIST*
%ADD10C,0.100000*%
%ADD11C,0.120000*%
%ADD12C,0.127000*%
G04 APERTURE END LIST*
D10*
X23840476Y-70526190D02*
X23673809Y-71026190D01*
X23507142Y-70526190D01*
X23459523Y-71073809D02*
X23078571Y-71073809D01*
X22983333Y-71002380D02*
X22911904Y-71026190D01*
X22792857Y-71026190D01*
X22745238Y-71002380D01*
X22721428Y-70978571D01*
X22697619Y-70930952D01*
X22697619Y-70883333D01*
X22721428Y-70835714D01*
X22745238Y-70811904D01*
X22792857Y-70788095D01*
X22888095Y-70764285D01*
X22935714Y-70740476D01*
X22959523Y-70716666D01*
X22983333Y-70669047D01*
X22983333Y-70621428D01*
X22959523Y-70573809D01*
X22935714Y-70550000D01*
X22888095Y-70526190D01*
X22769047Y-70526190D01*
X22697619Y-70550000D01*
X22292857Y-71002380D02*
X22340476Y-71026190D01*
X22435714Y-71026190D01*
X22483333Y-71002380D01*
X22507142Y-70954761D01*
X22507142Y-70764285D01*
X22483333Y-70716666D01*
X22435714Y-70692857D01*
X22340476Y-70692857D01*
X22292857Y-70716666D01*
X22269047Y-70764285D01*
X22269047Y-70811904D01*
X22507142Y-70859523D01*
X21983333Y-71026190D02*
X22030952Y-71002380D01*
X22054761Y-70954761D01*
X22054761Y-70526190D01*
X23840476Y-25526190D02*
X23673809Y-26026190D01*
X23507142Y-25526190D01*
X23459523Y-26073809D02*
X23078571Y-26073809D01*
X22983333Y-26002380D02*
X22911904Y-26026190D01*
X22792857Y-26026190D01*
X22745238Y-26002380D01*
X22721428Y-25978571D01*
X22697619Y-25930952D01*
X22697619Y-25883333D01*
X22721428Y-25835714D01*
X22745238Y-25811904D01*
X22792857Y-25788095D01*
X22888095Y-25764285D01*
X22935714Y-25740476D01*
X22959523Y-25716666D01*
X22983333Y-25669047D01*
X22983333Y-25621428D01*
X22959523Y-25573809D01*
X22935714Y-25550000D01*
X22888095Y-25526190D01*
X22769047Y-25526190D01*
X22697619Y-25550000D01*
X22292857Y-26002380D02*
X22340476Y-26026190D01*
X22435714Y-26026190D01*
X22483333Y-26002380D01*
X22507142Y-25954761D01*
X22507142Y-25764285D01*
X22483333Y-25716666D01*
X22435714Y-25692857D01*
X22340476Y-25692857D01*
X22292857Y-25716666D01*
X22269047Y-25764285D01*
X22269047Y-25811904D01*
X22507142Y-25859523D01*
X21983333Y-26026190D02*
X22030952Y-26002380D01*
X22054761Y-25954761D01*
X22054761Y-25526190D01*
D11*
X51680000Y-84500000D02*
X51680000Y-85500000D01*
X48320000Y-84500000D02*
X48320000Y-85500000D01*
X52320000Y-84500000D02*
X52320000Y-85500000D01*
X55680000Y-84500000D02*
X55680000Y-85500000D01*
X56170000Y-84500000D02*
X56170000Y-85500000D01*
X59530000Y-84500000D02*
X59530000Y-85500000D01*
X64320000Y-84500000D02*
X64320000Y-85500000D01*
X67680000Y-84500000D02*
X67680000Y-85500000D01*
X60320000Y-84500000D02*
X60320000Y-85500000D01*
X63680000Y-84500000D02*
X63680000Y-85500000D01*
X71680000Y-84500000D02*
X71680000Y-85500000D01*
X68320000Y-84500000D02*
X68320000Y-85500000D01*
X49360000Y-64780000D02*
X49360000Y-63850000D01*
X49360000Y-64780000D02*
X47200000Y-64780000D01*
X49360000Y-61620000D02*
X47900000Y-61620000D01*
X49360000Y-61620000D02*
X49360000Y-62550000D01*
X52960000Y-63180000D02*
X50800000Y-63180000D01*
X52960000Y-63180000D02*
X52960000Y-62250000D01*
X52960000Y-60020000D02*
X51500000Y-60020000D01*
X52960000Y-60020000D02*
X52960000Y-60950000D01*
X49360000Y-57920000D02*
X49360000Y-58850000D01*
X49360000Y-61080000D02*
X47200000Y-61080000D01*
X49360000Y-57920000D02*
X47900000Y-57920000D01*
X49360000Y-61080000D02*
X49360000Y-60150000D01*
X62320000Y-73500000D02*
X62320000Y-74500000D01*
X65680000Y-73500000D02*
X65680000Y-74500000D01*
X41180000Y-79500000D02*
X41180000Y-80500000D01*
X37820000Y-79500000D02*
X37820000Y-80500000D01*
X33020000Y-82500000D02*
X33020000Y-83500000D01*
X36380000Y-82500000D02*
X36380000Y-83500000D01*
X20825000Y-87925000D02*
X20825000Y-88975000D01*
X31175000Y-87925000D02*
X30125000Y-87925000D01*
X20825000Y-98275000D02*
X20825000Y-97225000D01*
X31175000Y-98275000D02*
X30225000Y-98275000D01*
X30225000Y-98275000D02*
X30225000Y-99550000D01*
X31175000Y-98275000D02*
X31175000Y-97225000D01*
X20825000Y-87925000D02*
X21875000Y-87925000D01*
X20825000Y-98275000D02*
X21875000Y-98275000D01*
X31175000Y-87925000D02*
X31175000Y-88975000D01*
X53680000Y-73500000D02*
X53680000Y-74500000D01*
X50320000Y-73500000D02*
X50320000Y-74500000D01*
X23288677Y-73600000D02*
X23288677Y-71500000D01*
X22800000Y-71200000D02*
X23000000Y-71200000D01*
X22537287Y-71500000D02*
X22537287Y-73600000D01*
X22800000Y-73900000D02*
X23000000Y-73900000D01*
X23288677Y-71495777D02*
G75*
G03*
X22988677Y-71195777I-300000J0D01*
G01*
X22535865Y-73598550D02*
G75*
G03*
X22835865Y-73898550I300000J0D01*
G01*
X22988677Y-73900315D02*
G75*
G03*
X23288677Y-73600315I0J300000D01*
G01*
X22835865Y-71194012D02*
G75*
G03*
X22535865Y-71494012I0J-300000D01*
G01*
X37820000Y-85500000D02*
X37820000Y-86500000D01*
X41180000Y-85500000D02*
X41180000Y-86500000D01*
X33020000Y-70500000D02*
X33020000Y-71500000D01*
X36380000Y-70500000D02*
X36380000Y-71500000D01*
X33020000Y-76500000D02*
X33020000Y-77500000D01*
X36380000Y-76500000D02*
X36380000Y-77500000D01*
X37820000Y-73500000D02*
X37820000Y-74500000D01*
X41180000Y-73500000D02*
X41180000Y-74500000D01*
X54320000Y-73500000D02*
X54320000Y-74500000D01*
X57680000Y-73500000D02*
X57680000Y-74500000D01*
X69680000Y-73500000D02*
X69680000Y-74500000D01*
X66320000Y-73500000D02*
X66320000Y-74500000D01*
D12*
X71600000Y-95500000D02*
X56400000Y-95500000D01*
X56600000Y-96700000D02*
X56600000Y-98300000D01*
X35100000Y-98300000D02*
X34900000Y-98300000D01*
X34900000Y-96700000D02*
X34900000Y-98300000D01*
X30900000Y-62300000D02*
X30900000Y-63500000D01*
X56400000Y-59500000D02*
X56400000Y-60700000D01*
X56400000Y-98300000D02*
X56400000Y-99500000D01*
X56400000Y-95500000D02*
X56400000Y-96700000D01*
X56400000Y-63500000D02*
X71600000Y-63500000D01*
X31100000Y-60700000D02*
X31100000Y-62300000D01*
X50100000Y-95500000D02*
X34900000Y-95500000D01*
X31100000Y-62300000D02*
X30900000Y-62300000D01*
X56400000Y-96700000D02*
X56600000Y-96700000D01*
X71600000Y-59500000D02*
X56400000Y-59500000D01*
X34900000Y-98300000D02*
X34900000Y-99500000D01*
X56400000Y-96700000D02*
X56400000Y-98300000D01*
X56600000Y-60700000D02*
X56600000Y-62300000D01*
X34900000Y-96700000D02*
X35100000Y-96700000D01*
X56600000Y-62300000D02*
X56400000Y-62300000D01*
X35100000Y-96700000D02*
X35100000Y-98300000D01*
X71600000Y-63500000D02*
X71600000Y-59500000D01*
X56400000Y-99500000D02*
X71600000Y-99500000D01*
X30900000Y-59500000D02*
X30900000Y-60700000D01*
X30900000Y-63500000D02*
X46100000Y-63500000D01*
X46100000Y-59500000D02*
X30900000Y-59500000D01*
X34900000Y-95500000D02*
X34900000Y-96700000D01*
X50100000Y-99500000D02*
X50100000Y-95500000D01*
X56600000Y-98300000D02*
X56400000Y-98300000D01*
X46100000Y-63500000D02*
X46100000Y-59500000D01*
X71600000Y-99500000D02*
X71600000Y-95500000D01*
X56400000Y-62300000D02*
X56400000Y-63500000D01*
X34900000Y-99500000D02*
X50100000Y-99500000D01*
X56400000Y-60700000D02*
X56600000Y-60700000D01*
X30900000Y-60700000D02*
X31100000Y-60700000D01*
X30900000Y-60700000D02*
X30900000Y-62300000D01*
X56400000Y-60700000D02*
X56400000Y-62300000D01*
X71600000Y-50500000D02*
X56400000Y-50500000D01*
X56600000Y-51700000D02*
X56600000Y-53300000D01*
X35100000Y-53300000D02*
X34900000Y-53300000D01*
X34900000Y-51700000D02*
X34900000Y-53300000D01*
X30900000Y-17300000D02*
X30900000Y-18500000D01*
X56400000Y-14500000D02*
X56400000Y-15700000D01*
X56400000Y-53300000D02*
X56400000Y-54500000D01*
X56400000Y-50500000D02*
X56400000Y-51700000D01*
X56400000Y-18500000D02*
X71600000Y-18500000D01*
X31100000Y-15700000D02*
X31100000Y-17300000D01*
X50100000Y-50500000D02*
X34900000Y-50500000D01*
X31100000Y-17300000D02*
X30900000Y-17300000D01*
X56400000Y-51700000D02*
X56600000Y-51700000D01*
X71600000Y-14500000D02*
X56400000Y-14500000D01*
X34900000Y-53300000D02*
X34900000Y-54500000D01*
X56400000Y-51700000D02*
X56400000Y-53300000D01*
X56600000Y-15700000D02*
X56600000Y-17300000D01*
X34900000Y-51700000D02*
X35100000Y-51700000D01*
X56600000Y-17300000D02*
X56400000Y-17300000D01*
X35100000Y-51700000D02*
X35100000Y-53300000D01*
X71600000Y-18500000D02*
X71600000Y-14500000D01*
X56400000Y-54500000D02*
X71600000Y-54500000D01*
X30900000Y-14500000D02*
X30900000Y-15700000D01*
X30900000Y-18500000D02*
X46100000Y-18500000D01*
X46100000Y-14500000D02*
X30900000Y-14500000D01*
X34900000Y-50500000D02*
X34900000Y-51700000D01*
X50100000Y-54500000D02*
X50100000Y-50500000D01*
X56600000Y-53300000D02*
X56400000Y-53300000D01*
X46100000Y-18500000D02*
X46100000Y-14500000D01*
X71600000Y-54500000D02*
X71600000Y-50500000D01*
X56400000Y-17300000D02*
X56400000Y-18500000D01*
X34900000Y-54500000D02*
X50100000Y-54500000D01*
X56400000Y-15700000D02*
X56600000Y-15700000D01*
X30900000Y-15700000D02*
X31100000Y-15700000D01*
X30900000Y-15700000D02*
X30900000Y-17300000D01*
X56400000Y-15700000D02*
X56400000Y-17300000D01*
D11*
X69680000Y-28500000D02*
X69680000Y-29500000D01*
X66320000Y-28500000D02*
X66320000Y-29500000D01*
X62320000Y-28500000D02*
X62320000Y-29500000D01*
X65680000Y-28500000D02*
X65680000Y-29500000D01*
X54320000Y-28500000D02*
X54320000Y-29500000D01*
X57680000Y-28500000D02*
X57680000Y-29500000D01*
X53680000Y-28500000D02*
X53680000Y-29500000D01*
X50320000Y-28500000D02*
X50320000Y-29500000D01*
X20825000Y-42925000D02*
X20825000Y-43975000D01*
X31175000Y-42925000D02*
X30125000Y-42925000D01*
X20825000Y-53275000D02*
X20825000Y-52225000D01*
X31175000Y-53275000D02*
X30225000Y-53275000D01*
X30225000Y-53275000D02*
X30225000Y-54550000D01*
X31175000Y-53275000D02*
X31175000Y-52225000D01*
X20825000Y-42925000D02*
X21875000Y-42925000D01*
X20825000Y-53275000D02*
X21875000Y-53275000D01*
X31175000Y-42925000D02*
X31175000Y-43975000D01*
X33020000Y-37500000D02*
X33020000Y-38500000D01*
X36380000Y-37500000D02*
X36380000Y-38500000D01*
X41180000Y-34500000D02*
X41180000Y-35500000D01*
X37820000Y-34500000D02*
X37820000Y-35500000D01*
X37820000Y-28500000D02*
X37820000Y-29500000D01*
X41180000Y-28500000D02*
X41180000Y-29500000D01*
X33020000Y-31500000D02*
X33020000Y-32500000D01*
X36380000Y-31500000D02*
X36380000Y-32500000D01*
X33020000Y-25500000D02*
X33020000Y-26500000D01*
X36380000Y-25500000D02*
X36380000Y-26500000D01*
X37820000Y-40500000D02*
X37820000Y-41500000D01*
X41180000Y-40500000D02*
X41180000Y-41500000D01*
X23288677Y-28600000D02*
X23288677Y-26500000D01*
X22800000Y-26200000D02*
X23000000Y-26200000D01*
X22537287Y-26500000D02*
X22537287Y-28600000D01*
X22800000Y-28900000D02*
X23000000Y-28900000D01*
X23288677Y-26495777D02*
G75*
G03*
X22988677Y-26195777I-300000J0D01*
G01*
X22535865Y-28598550D02*
G75*
G03*
X22835865Y-28898550I300000J0D01*
G01*
X22988677Y-28900315D02*
G75*
G03*
X23288677Y-28600315I0J300000D01*
G01*
X22835865Y-26194012D02*
G75*
G03*
X22535865Y-26494012I0J-300000D01*
G01*
X49360000Y-12920000D02*
X49360000Y-13850000D01*
X49360000Y-16080000D02*
X47200000Y-16080000D01*
X49360000Y-12920000D02*
X47900000Y-12920000D01*
X49360000Y-16080000D02*
X49360000Y-15150000D01*
X52960000Y-18180000D02*
X50800000Y-18180000D01*
X52960000Y-18180000D02*
X52960000Y-17250000D01*
X52960000Y-15020000D02*
X51500000Y-15020000D01*
X52960000Y-15020000D02*
X52960000Y-15950000D01*
X49360000Y-19780000D02*
X49360000Y-18850000D01*
X49360000Y-19780000D02*
X47200000Y-19780000D01*
X49360000Y-16620000D02*
X47900000Y-16620000D01*
X49360000Y-16620000D02*
X49360000Y-17550000D01*
X71680000Y-39500000D02*
X71680000Y-40500000D01*
X68320000Y-39500000D02*
X68320000Y-40500000D01*
X60320000Y-39500000D02*
X60320000Y-40500000D01*
X63680000Y-39500000D02*
X63680000Y-40500000D01*
X64320000Y-39500000D02*
X64320000Y-40500000D01*
X67680000Y-39500000D02*
X67680000Y-40500000D01*
X56170000Y-39500000D02*
X56170000Y-40500000D01*
X59530000Y-39500000D02*
X59530000Y-40500000D01*
X52320000Y-39500000D02*
X52320000Y-40500000D01*
X55680000Y-39500000D02*
X55680000Y-40500000D01*
X51680000Y-39500000D02*
X51680000Y-40500000D01*
X48320000Y-39500000D02*
X48320000Y-40500000D01*
M02*
