G04 #@! TF.GenerationSoftware,KiCad,Pcbnew,(5.99.0-1662-g9db296991)*
G04 #@! TF.CreationDate,2020-05-15T17:50:03+05:30*
G04 #@! TF.ProjectId,Alchitry_IO_Shield,416c6368-6974-4727-995f-494f5f536869,rev?*
G04 #@! TF.SameCoordinates,Original*
G04 #@! TF.FileFunction,Paste,Bot*
G04 #@! TF.FilePolarity,Positive*
%FSLAX46Y46*%
G04 Gerber Fmt 4.6, Leading zero omitted, Abs format (unit mm)*
G04 Created by KiCad (PCBNEW (5.99.0-1662-g9db296991)) date 2020-05-15 17:50:03*
%MOMM*%
%LPD*%
G01*
G04 APERTURE LIST*
%ADD10R,0.500000X0.800000*%
%ADD11R,0.400000X0.800000*%
%ADD12R,0.900000X0.800000*%
%ADD13R,0.250000X2.000000*%
%ADD14R,5.000000X5.000000*%
%ADD15R,0.300000X1.500000*%
%ADD16R,1.500000X0.300000*%
G04 APERTURE END LIST*
D10*
X48800000Y-39100000D03*
D11*
X49600000Y-39100000D03*
D10*
X51200000Y-39100000D03*
D11*
X50400000Y-39100000D03*
D10*
X48800000Y-40900000D03*
D11*
X50400000Y-40900000D03*
X49600000Y-40900000D03*
D10*
X51200000Y-40900000D03*
X52800000Y-39100000D03*
D11*
X53600000Y-39100000D03*
D10*
X55200000Y-39100000D03*
D11*
X54400000Y-39100000D03*
D10*
X52800000Y-40900000D03*
D11*
X54400000Y-40900000D03*
X53600000Y-40900000D03*
D10*
X55200000Y-40900000D03*
X56650000Y-39100000D03*
D11*
X57450000Y-39100000D03*
D10*
X59050000Y-39100000D03*
D11*
X58250000Y-39100000D03*
D10*
X56650000Y-40900000D03*
D11*
X58250000Y-40900000D03*
X57450000Y-40900000D03*
D10*
X59050000Y-40900000D03*
X64800000Y-39100000D03*
D11*
X65600000Y-39100000D03*
D10*
X67200000Y-39100000D03*
D11*
X66400000Y-39100000D03*
D10*
X64800000Y-40900000D03*
D11*
X66400000Y-40900000D03*
X65600000Y-40900000D03*
D10*
X67200000Y-40900000D03*
X60800000Y-39100000D03*
D11*
X61600000Y-39100000D03*
D10*
X63200000Y-39100000D03*
D11*
X62400000Y-39100000D03*
D10*
X60800000Y-40900000D03*
D11*
X62400000Y-40900000D03*
X61600000Y-40900000D03*
D10*
X63200000Y-40900000D03*
X68800000Y-39100000D03*
D11*
X69600000Y-39100000D03*
D10*
X71200000Y-39100000D03*
D11*
X70400000Y-39100000D03*
D10*
X68800000Y-40900000D03*
D11*
X70400000Y-40900000D03*
X69600000Y-40900000D03*
D10*
X71200000Y-40900000D03*
D12*
X49600000Y-18200000D03*
X47600000Y-17250000D03*
X47600000Y-19150000D03*
X53200000Y-16600000D03*
X51200000Y-15650000D03*
X51200000Y-17550000D03*
X49600000Y-14500000D03*
X47600000Y-13550000D03*
X47600000Y-15450000D03*
G36*
G01*
X22750000Y-27440000D02*
X22750000Y-26640000D01*
G75*
G02*
X22825000Y-26565000I75000J0D01*
G01*
X22975000Y-26565000D01*
G75*
G02*
X23050000Y-26640000I0J-75000D01*
G01*
X23050000Y-27440000D01*
G75*
G02*
X22975000Y-27515000I-75000J0D01*
G01*
X22825000Y-27515000D01*
G75*
G02*
X22750000Y-27440000I0J75000D01*
G01*
G37*
G36*
G01*
X23156250Y-29137500D02*
X22643750Y-29137500D01*
G75*
G02*
X22425000Y-28918750I0J218750D01*
G01*
X22425000Y-28481250D01*
G75*
G02*
X22643750Y-28262500I218750J0D01*
G01*
X23156250Y-28262500D01*
G75*
G02*
X23375000Y-28481250I0J-218750D01*
G01*
X23375000Y-28918750D01*
G75*
G02*
X23156250Y-29137500I-218750J0D01*
G01*
G37*
G36*
G01*
X22643750Y-26075000D02*
X23156250Y-26075000D01*
G75*
G02*
X23375000Y-26293750I0J-218750D01*
G01*
X23375000Y-26731250D01*
G75*
G02*
X23156250Y-26950000I-218750J0D01*
G01*
X22643750Y-26950000D01*
G75*
G02*
X22425000Y-26731250I0J218750D01*
G01*
X22425000Y-26293750D01*
G75*
G02*
X22643750Y-26075000I218750J0D01*
G01*
G37*
G36*
G01*
X22643750Y-27162500D02*
X23156250Y-27162500D01*
G75*
G02*
X23375000Y-27381250I0J-218750D01*
G01*
X23375000Y-27818750D01*
G75*
G02*
X23156250Y-28037500I-218750J0D01*
G01*
X22643750Y-28037500D01*
G75*
G02*
X22425000Y-27818750I0J218750D01*
G01*
X22425000Y-27381250D01*
G75*
G02*
X22643750Y-27162500I218750J0D01*
G01*
G37*
D13*
X41000000Y-54700000D03*
X41500000Y-54700000D03*
X43500000Y-54700000D03*
X69500000Y-54700000D03*
X44000000Y-54700000D03*
X43000000Y-54700000D03*
X65500000Y-54700000D03*
X66000000Y-54700000D03*
X42000000Y-54700000D03*
X42500000Y-50300000D03*
X70000000Y-54700000D03*
X45500000Y-50300000D03*
X36500000Y-50300000D03*
X40500000Y-50300000D03*
X37500000Y-50300000D03*
X41500000Y-50300000D03*
X47000000Y-50300000D03*
X39000000Y-50300000D03*
X38000000Y-50300000D03*
X40500000Y-54700000D03*
X39500000Y-54700000D03*
X37500000Y-54700000D03*
X66500000Y-54700000D03*
X67000000Y-54700000D03*
X67500000Y-54700000D03*
X68000000Y-54700000D03*
X68500000Y-54700000D03*
X39500000Y-50300000D03*
X42500000Y-54700000D03*
X69000000Y-54700000D03*
X43000000Y-50300000D03*
X36500000Y-54700000D03*
X44000000Y-50300000D03*
X48000000Y-50300000D03*
X44500000Y-50300000D03*
X40000000Y-54700000D03*
X45000000Y-54700000D03*
X45000000Y-50300000D03*
X46000000Y-50300000D03*
X46500000Y-50300000D03*
X44500000Y-54700000D03*
X46000000Y-54700000D03*
X42000000Y-50300000D03*
X41000000Y-50300000D03*
X38500000Y-50300000D03*
X37000000Y-54700000D03*
X47500000Y-50300000D03*
X48500000Y-50300000D03*
X45500000Y-54700000D03*
X40000000Y-50300000D03*
X37000000Y-50300000D03*
X39000000Y-54700000D03*
X38000000Y-54700000D03*
X65000000Y-54700000D03*
X38500000Y-54700000D03*
X43500000Y-50300000D03*
X46500000Y-54700000D03*
X47000000Y-54700000D03*
X47500000Y-54700000D03*
X48000000Y-54700000D03*
X48500000Y-54700000D03*
X69500000Y-50300000D03*
X63500000Y-50300000D03*
X69000000Y-50300000D03*
X70000000Y-50300000D03*
X68500000Y-50300000D03*
X61500000Y-14300000D03*
X64000000Y-18700000D03*
X65500000Y-14300000D03*
X63500000Y-14300000D03*
X63000000Y-14300000D03*
X60000000Y-14300000D03*
X67000000Y-14300000D03*
X62000000Y-18700000D03*
X68000000Y-18700000D03*
X58000000Y-18700000D03*
X60500000Y-18700000D03*
X68000000Y-14300000D03*
X67000000Y-18700000D03*
X69500000Y-14300000D03*
X66000000Y-14300000D03*
X66000000Y-18700000D03*
X64000000Y-14300000D03*
X66500000Y-14300000D03*
X59500000Y-14300000D03*
X65000000Y-14300000D03*
X69000000Y-14300000D03*
X59000000Y-18700000D03*
X58000000Y-14300000D03*
X62500000Y-14300000D03*
X67500000Y-14300000D03*
X68500000Y-14300000D03*
X60500000Y-14300000D03*
X67500000Y-18700000D03*
X69000000Y-18700000D03*
X62000000Y-14300000D03*
X61500000Y-18700000D03*
X61000000Y-14300000D03*
X68500000Y-18700000D03*
X61000000Y-18700000D03*
X65500000Y-18700000D03*
X69500000Y-18700000D03*
X58500000Y-14300000D03*
X59500000Y-18700000D03*
X60000000Y-18700000D03*
X64500000Y-18700000D03*
X59000000Y-14300000D03*
X63500000Y-18700000D03*
X62500000Y-18700000D03*
X66500000Y-18700000D03*
X65000000Y-18700000D03*
X58500000Y-18700000D03*
X63000000Y-18700000D03*
X64500000Y-14300000D03*
X70000000Y-14300000D03*
X36000000Y-18700000D03*
X34500000Y-18700000D03*
X35500000Y-18700000D03*
X39000000Y-18700000D03*
X67500000Y-50300000D03*
X38500000Y-18700000D03*
X66000000Y-50300000D03*
X40500000Y-14300000D03*
X41500000Y-18700000D03*
X43500000Y-14300000D03*
X33000000Y-18700000D03*
X43500000Y-18700000D03*
X32500000Y-14300000D03*
X70000000Y-18700000D03*
X38500000Y-14300000D03*
X36000000Y-14300000D03*
X37000000Y-14300000D03*
X35500000Y-14300000D03*
X35000000Y-18700000D03*
X39000000Y-14300000D03*
X67000000Y-50300000D03*
X39500000Y-14300000D03*
X40000000Y-14300000D03*
X44500000Y-18700000D03*
X65000000Y-50300000D03*
X38000000Y-18700000D03*
X66500000Y-50300000D03*
X64500000Y-50300000D03*
X41000000Y-14300000D03*
X42000000Y-14300000D03*
X42500000Y-14300000D03*
X44000000Y-14300000D03*
X37000000Y-18700000D03*
X32500000Y-18700000D03*
X64000000Y-50300000D03*
X39500000Y-18700000D03*
X35000000Y-14300000D03*
X44000000Y-18700000D03*
X40500000Y-18700000D03*
X33500000Y-18700000D03*
X41500000Y-14300000D03*
X43000000Y-14300000D03*
X38000000Y-14300000D03*
X34000000Y-18700000D03*
X68000000Y-50300000D03*
X36500000Y-14300000D03*
X40000000Y-18700000D03*
X42000000Y-18700000D03*
X65500000Y-50300000D03*
X33500000Y-14300000D03*
X33000000Y-14300000D03*
X36500000Y-18700000D03*
X44500000Y-14300000D03*
X37500000Y-14300000D03*
X37500000Y-18700000D03*
X34500000Y-14300000D03*
X34000000Y-14300000D03*
X42500000Y-18700000D03*
X43000000Y-18700000D03*
X41000000Y-18700000D03*
X62000000Y-50300000D03*
X63000000Y-50300000D03*
X62500000Y-50300000D03*
X61000000Y-50300000D03*
X58000000Y-50300000D03*
X58500000Y-50300000D03*
X60500000Y-50300000D03*
X64000000Y-54700000D03*
X63500000Y-54700000D03*
X59000000Y-50300000D03*
X61500000Y-50300000D03*
X60000000Y-50300000D03*
X59500000Y-50300000D03*
X62500000Y-54700000D03*
X60500000Y-54700000D03*
X63000000Y-54700000D03*
X62000000Y-54700000D03*
X61500000Y-54700000D03*
X59500000Y-54700000D03*
X61000000Y-54700000D03*
X58500000Y-54700000D03*
X60000000Y-54700000D03*
X64500000Y-54700000D03*
X59000000Y-54700000D03*
X58000000Y-54700000D03*
D10*
X53200000Y-29900000D03*
D11*
X51600000Y-29900000D03*
X52400000Y-29900000D03*
D10*
X50800000Y-29900000D03*
D11*
X52400000Y-28100000D03*
D10*
X53200000Y-28100000D03*
D11*
X51600000Y-28100000D03*
D10*
X50800000Y-28100000D03*
X57200000Y-29900000D03*
D11*
X55600000Y-29900000D03*
X56400000Y-29900000D03*
D10*
X54800000Y-29900000D03*
D11*
X56400000Y-28100000D03*
D10*
X57200000Y-28100000D03*
D11*
X55600000Y-28100000D03*
D10*
X54800000Y-28100000D03*
X65200000Y-29900000D03*
D11*
X63600000Y-29900000D03*
X64400000Y-29900000D03*
D10*
X62800000Y-29900000D03*
D11*
X64400000Y-28100000D03*
D10*
X65200000Y-28100000D03*
D11*
X63600000Y-28100000D03*
D10*
X62800000Y-28100000D03*
X69200000Y-29900000D03*
D11*
X67600000Y-29900000D03*
X68400000Y-29900000D03*
D10*
X66800000Y-29900000D03*
D11*
X68400000Y-28100000D03*
D10*
X69200000Y-28100000D03*
D11*
X67600000Y-28100000D03*
D10*
X66800000Y-28100000D03*
X35900000Y-26900000D03*
D11*
X34300000Y-26900000D03*
X35100000Y-26900000D03*
D10*
X33500000Y-26900000D03*
D11*
X35100000Y-25100000D03*
D10*
X35900000Y-25100000D03*
D11*
X34300000Y-25100000D03*
D10*
X33500000Y-25100000D03*
X40700000Y-29900000D03*
D11*
X39100000Y-29900000D03*
X39900000Y-29900000D03*
D10*
X38300000Y-29900000D03*
D11*
X39900000Y-28100000D03*
D10*
X40700000Y-28100000D03*
D11*
X39100000Y-28100000D03*
D10*
X38300000Y-28100000D03*
X35900000Y-32900000D03*
D11*
X34300000Y-32900000D03*
X35100000Y-32900000D03*
D10*
X33500000Y-32900000D03*
D11*
X35100000Y-31100000D03*
D10*
X35900000Y-31100000D03*
D11*
X34300000Y-31100000D03*
D10*
X33500000Y-31100000D03*
X40700000Y-35900000D03*
D11*
X39100000Y-35900000D03*
X39900000Y-35900000D03*
D10*
X38300000Y-35900000D03*
D11*
X39900000Y-34100000D03*
D10*
X40700000Y-34100000D03*
D11*
X39100000Y-34100000D03*
D10*
X38300000Y-34100000D03*
X35900000Y-38900000D03*
D11*
X34300000Y-38900000D03*
X35100000Y-38900000D03*
D10*
X33500000Y-38900000D03*
D11*
X35100000Y-37100000D03*
D10*
X35900000Y-37100000D03*
D11*
X34300000Y-37100000D03*
D10*
X33500000Y-37100000D03*
X40700000Y-41900000D03*
D11*
X39100000Y-41900000D03*
X39900000Y-41900000D03*
D10*
X38300000Y-41900000D03*
D11*
X39900000Y-40100000D03*
D10*
X40700000Y-40100000D03*
D11*
X39100000Y-40100000D03*
D10*
X38300000Y-40100000D03*
D14*
X26000000Y-48100000D03*
D15*
X29750000Y-53800000D03*
X29250000Y-53800000D03*
X28750000Y-53800000D03*
X28250000Y-53800000D03*
X27750000Y-53800000D03*
X27250000Y-53800000D03*
X26750000Y-53800000D03*
X26250000Y-53800000D03*
X25750000Y-53800000D03*
X25250000Y-53800000D03*
X24750000Y-53800000D03*
X24250000Y-53800000D03*
X23750000Y-53800000D03*
X23250000Y-53800000D03*
X22750000Y-53800000D03*
X22250000Y-53800000D03*
D16*
X20300000Y-51850000D03*
X20300000Y-51350000D03*
X20300000Y-50850000D03*
X20300000Y-50350000D03*
X20300000Y-49850000D03*
X20300000Y-49350000D03*
X20300000Y-48850000D03*
X20300000Y-48350000D03*
X20300000Y-47850000D03*
X20300000Y-47350000D03*
X20300000Y-46850000D03*
X20300000Y-46350000D03*
X20300000Y-45850000D03*
X20300000Y-45350000D03*
X20300000Y-44850000D03*
X20300000Y-44350000D03*
D15*
X22250000Y-42400000D03*
X22750000Y-42400000D03*
X23250000Y-42400000D03*
X23750000Y-42400000D03*
X24250000Y-42400000D03*
X24750000Y-42400000D03*
X25250000Y-42400000D03*
X25750000Y-42400000D03*
X26250000Y-42400000D03*
X26750000Y-42400000D03*
X27250000Y-42400000D03*
X27750000Y-42400000D03*
X28250000Y-42400000D03*
X28750000Y-42400000D03*
X29250000Y-42400000D03*
X29750000Y-42400000D03*
D16*
X31700000Y-44350000D03*
X31700000Y-44850000D03*
X31700000Y-45350000D03*
X31700000Y-45850000D03*
X31700000Y-46350000D03*
X31700000Y-46850000D03*
X31700000Y-47350000D03*
X31700000Y-47850000D03*
X31700000Y-48350000D03*
X31700000Y-48850000D03*
X31700000Y-49350000D03*
X31700000Y-49850000D03*
X31700000Y-50350000D03*
X31700000Y-50850000D03*
X31700000Y-51350000D03*
X31700000Y-51850000D03*
G36*
G01*
X20775000Y-53443750D02*
X20775000Y-53956250D01*
G75*
G02*
X20556250Y-54175000I-218750J0D01*
G01*
X20118750Y-54175000D01*
G75*
G02*
X19900000Y-53956250I0J218750D01*
G01*
X19900000Y-53443750D01*
G75*
G02*
X20118750Y-53225000I218750J0D01*
G01*
X20556250Y-53225000D01*
G75*
G02*
X20775000Y-53443750I0J-218750D01*
G01*
G37*
G36*
G01*
X19200000Y-53443750D02*
X19200000Y-53956250D01*
G75*
G02*
X18981250Y-54175000I-218750J0D01*
G01*
X18543750Y-54175000D01*
G75*
G02*
X18325000Y-53956250I0J218750D01*
G01*
X18325000Y-53443750D01*
G75*
G02*
X18543750Y-53225000I218750J0D01*
G01*
X18981250Y-53225000D01*
G75*
G02*
X19200000Y-53443750I0J-218750D01*
G01*
G37*
M02*
