G04 #@! TF.GenerationSoftware,KiCad,Pcbnew,(5.99.0-1662-g9db296991)*
G04 #@! TF.CreationDate,2020-05-15T17:50:03+05:30*
G04 #@! TF.ProjectId,Alchitry_IO_Shield,416c6368-6974-4727-995f-494f5f536869,rev?*
G04 #@! TF.SameCoordinates,Original*
G04 #@! TF.FileFunction,Legend,Top*
G04 #@! TF.FilePolarity,Positive*
%FSLAX46Y46*%
G04 Gerber Fmt 4.6, Leading zero omitted, Abs format (unit mm)*
G04 Created by KiCad (PCBNEW (5.99.0-1662-g9db296991)) date 2020-05-15 17:50:03*
%MOMM*%
%LPD*%
G01*
G04 APERTURE LIST*
%ADD10C,0.150000*%
%ADD11C,0.120000*%
%ADD12C,0.127000*%
G04 APERTURE END LIST*
D10*
X23416666Y-45052380D02*
X23416666Y-45766666D01*
X23369047Y-45909523D01*
X23273809Y-46004761D01*
X23130952Y-46052380D01*
X23035714Y-46052380D01*
X23892857Y-46052380D02*
X23892857Y-45052380D01*
X24273809Y-45052380D01*
X24369047Y-45100000D01*
X24416666Y-45147619D01*
X24464285Y-45242857D01*
X24464285Y-45385714D01*
X24416666Y-45480952D01*
X24369047Y-45528571D01*
X24273809Y-45576190D01*
X23892857Y-45576190D01*
X25321428Y-45385714D02*
X25321428Y-46052380D01*
X25083333Y-45004761D02*
X24845238Y-45719047D01*
X25464285Y-45719047D01*
X31052380Y-50383333D02*
X31766666Y-50383333D01*
X31909523Y-50430952D01*
X32004761Y-50526190D01*
X32052380Y-50669047D01*
X32052380Y-50764285D01*
X32052380Y-49907142D02*
X31052380Y-49907142D01*
X31052380Y-49526190D01*
X31100000Y-49430952D01*
X31147619Y-49383333D01*
X31242857Y-49335714D01*
X31385714Y-49335714D01*
X31480952Y-49383333D01*
X31528571Y-49430952D01*
X31576190Y-49526190D01*
X31576190Y-49907142D01*
X31052380Y-49002380D02*
X31052380Y-48383333D01*
X31433333Y-48716666D01*
X31433333Y-48573809D01*
X31480952Y-48478571D01*
X31528571Y-48430952D01*
X31623809Y-48383333D01*
X31861904Y-48383333D01*
X31957142Y-48430952D01*
X32004761Y-48478571D01*
X32052380Y-48573809D01*
X32052380Y-48859523D01*
X32004761Y-48954761D01*
X31957142Y-49002380D01*
X31052380Y-47083333D02*
X31766666Y-47083333D01*
X31909523Y-47130952D01*
X32004761Y-47226190D01*
X32052380Y-47369047D01*
X32052380Y-47464285D01*
X32052380Y-46607142D02*
X31052380Y-46607142D01*
X31052380Y-46226190D01*
X31100000Y-46130952D01*
X31147619Y-46083333D01*
X31242857Y-46035714D01*
X31385714Y-46035714D01*
X31480952Y-46083333D01*
X31528571Y-46130952D01*
X31576190Y-46226190D01*
X31576190Y-46607142D01*
X31147619Y-45654761D02*
X31100000Y-45607142D01*
X31052380Y-45511904D01*
X31052380Y-45273809D01*
X31100000Y-45178571D01*
X31147619Y-45130952D01*
X31242857Y-45083333D01*
X31338095Y-45083333D01*
X31480952Y-45130952D01*
X32052380Y-45702380D01*
X32052380Y-45083333D01*
X28666666Y-45202380D02*
X28666666Y-45916666D01*
X28619047Y-46059523D01*
X28523809Y-46154761D01*
X28380952Y-46202380D01*
X28285714Y-46202380D01*
X29142857Y-46202380D02*
X29142857Y-45202380D01*
X29523809Y-45202380D01*
X29619047Y-45250000D01*
X29666666Y-45297619D01*
X29714285Y-45392857D01*
X29714285Y-45535714D01*
X29666666Y-45630952D01*
X29619047Y-45678571D01*
X29523809Y-45726190D01*
X29142857Y-45726190D01*
X30666666Y-46202380D02*
X30095238Y-46202380D01*
X30380952Y-46202380D02*
X30380952Y-45202380D01*
X30285714Y-45345238D01*
X30190476Y-45440476D01*
X30095238Y-45488095D01*
X17552380Y-32433333D02*
X18266666Y-32433333D01*
X18409523Y-32480952D01*
X18504761Y-32576190D01*
X18552380Y-32719047D01*
X18552380Y-32814285D01*
X17552380Y-31766666D02*
X17552380Y-31671428D01*
X17600000Y-31576190D01*
X17647619Y-31528571D01*
X17742857Y-31480952D01*
X17933333Y-31433333D01*
X18171428Y-31433333D01*
X18361904Y-31480952D01*
X18457142Y-31528571D01*
X18504761Y-31576190D01*
X18552380Y-31671428D01*
X18552380Y-31766666D01*
X18504761Y-31861904D01*
X18457142Y-31909523D01*
X18361904Y-31957142D01*
X18171428Y-32004761D01*
X17933333Y-32004761D01*
X17742857Y-31957142D01*
X17647619Y-31909523D01*
X17600000Y-31861904D01*
X17552380Y-31766666D01*
X47629761Y-30333333D02*
X47677380Y-30190476D01*
X47677380Y-29952380D01*
X47629761Y-29857142D01*
X47582142Y-29809523D01*
X47486904Y-29761904D01*
X47391666Y-29761904D01*
X47296428Y-29809523D01*
X47248809Y-29857142D01*
X47201190Y-29952380D01*
X47153571Y-30142857D01*
X47105952Y-30238095D01*
X47058333Y-30285714D01*
X46963095Y-30333333D01*
X46867857Y-30333333D01*
X46772619Y-30285714D01*
X46725000Y-30238095D01*
X46677380Y-30142857D01*
X46677380Y-29904761D01*
X46725000Y-29761904D01*
X46677380Y-29428571D02*
X47677380Y-29190476D01*
X46963095Y-29000000D01*
X47677380Y-28809523D01*
X46677380Y-28571428D01*
X46772619Y-28238095D02*
X46725000Y-28190476D01*
X46677380Y-28095238D01*
X46677380Y-27857142D01*
X46725000Y-27761904D01*
X46772619Y-27714285D01*
X46867857Y-27666666D01*
X46963095Y-27666666D01*
X47105952Y-27714285D01*
X47677380Y-28285714D01*
X47677380Y-27666666D01*
X47606666Y-46961428D02*
X47606666Y-46485238D01*
X47892380Y-47056666D02*
X46892380Y-46723333D01*
X47892380Y-46390000D01*
X47368571Y-45723333D02*
X47368571Y-46056666D01*
X47892380Y-46056666D02*
X46892380Y-46056666D01*
X46892380Y-45580476D01*
X47368571Y-44866190D02*
X47368571Y-45199523D01*
X47892380Y-45199523D02*
X46892380Y-45199523D01*
X46892380Y-44723333D01*
X46892380Y-44437619D02*
X46892380Y-43818571D01*
X47273333Y-44151904D01*
X47273333Y-44009047D01*
X47320952Y-43913809D01*
X47368571Y-43866190D01*
X47463809Y-43818571D01*
X47701904Y-43818571D01*
X47797142Y-43866190D01*
X47844761Y-43913809D01*
X47892380Y-44009047D01*
X47892380Y-44294761D01*
X47844761Y-44390000D01*
X47797142Y-44437619D01*
X55606666Y-46961428D02*
X55606666Y-46485238D01*
X55892380Y-47056666D02*
X54892380Y-46723333D01*
X55892380Y-46390000D01*
X55368571Y-45723333D02*
X55368571Y-46056666D01*
X55892380Y-46056666D02*
X54892380Y-46056666D01*
X54892380Y-45580476D01*
X55368571Y-44866190D02*
X55368571Y-45199523D01*
X55892380Y-45199523D02*
X54892380Y-45199523D01*
X54892380Y-44723333D01*
X54987619Y-44390000D02*
X54940000Y-44342380D01*
X54892380Y-44247142D01*
X54892380Y-44009047D01*
X54940000Y-43913809D01*
X54987619Y-43866190D01*
X55082857Y-43818571D01*
X55178095Y-43818571D01*
X55320952Y-43866190D01*
X55892380Y-44437619D01*
X55892380Y-43818571D01*
X63606666Y-46961428D02*
X63606666Y-46485238D01*
X63892380Y-47056666D02*
X62892380Y-46723333D01*
X63892380Y-46390000D01*
X63368571Y-45723333D02*
X63368571Y-46056666D01*
X63892380Y-46056666D02*
X62892380Y-46056666D01*
X62892380Y-45580476D01*
X63368571Y-44866190D02*
X63368571Y-45199523D01*
X63892380Y-45199523D02*
X62892380Y-45199523D01*
X62892380Y-44723333D01*
X63892380Y-43818571D02*
X63892380Y-44390000D01*
X63892380Y-44104285D02*
X62892380Y-44104285D01*
X63035238Y-44199523D01*
X63130476Y-44294761D01*
X63178095Y-44390000D01*
X29910714Y-22022380D02*
X29910714Y-21022380D01*
X30148809Y-21022380D01*
X30291666Y-21070000D01*
X30386904Y-21165238D01*
X30434523Y-21260476D01*
X30482142Y-21450952D01*
X30482142Y-21593809D01*
X30434523Y-21784285D01*
X30386904Y-21879523D01*
X30291666Y-21974761D01*
X30148809Y-22022380D01*
X29910714Y-22022380D01*
X30863095Y-21117619D02*
X30910714Y-21070000D01*
X31005952Y-21022380D01*
X31244047Y-21022380D01*
X31339285Y-21070000D01*
X31386904Y-21117619D01*
X31434523Y-21212857D01*
X31434523Y-21308095D01*
X31386904Y-21450952D01*
X30815476Y-22022380D01*
X31434523Y-22022380D01*
X31767857Y-21022380D02*
X32386904Y-21022380D01*
X32053571Y-21403333D01*
X32196428Y-21403333D01*
X32291666Y-21450952D01*
X32339285Y-21498571D01*
X32386904Y-21593809D01*
X32386904Y-21831904D01*
X32339285Y-21927142D01*
X32291666Y-21974761D01*
X32196428Y-22022380D01*
X31910714Y-22022380D01*
X31815476Y-21974761D01*
X31767857Y-21927142D01*
X33910714Y-22022380D02*
X33910714Y-21022380D01*
X34148809Y-21022380D01*
X34291666Y-21070000D01*
X34386904Y-21165238D01*
X34434523Y-21260476D01*
X34482142Y-21450952D01*
X34482142Y-21593809D01*
X34434523Y-21784285D01*
X34386904Y-21879523D01*
X34291666Y-21974761D01*
X34148809Y-22022380D01*
X33910714Y-22022380D01*
X34863095Y-21117619D02*
X34910714Y-21070000D01*
X35005952Y-21022380D01*
X35244047Y-21022380D01*
X35339285Y-21070000D01*
X35386904Y-21117619D01*
X35434523Y-21212857D01*
X35434523Y-21308095D01*
X35386904Y-21450952D01*
X34815476Y-22022380D01*
X35434523Y-22022380D01*
X35815476Y-21117619D02*
X35863095Y-21070000D01*
X35958333Y-21022380D01*
X36196428Y-21022380D01*
X36291666Y-21070000D01*
X36339285Y-21117619D01*
X36386904Y-21212857D01*
X36386904Y-21308095D01*
X36339285Y-21450952D01*
X35767857Y-22022380D01*
X36386904Y-22022380D01*
X37910714Y-22022380D02*
X37910714Y-21022380D01*
X38148809Y-21022380D01*
X38291666Y-21070000D01*
X38386904Y-21165238D01*
X38434523Y-21260476D01*
X38482142Y-21450952D01*
X38482142Y-21593809D01*
X38434523Y-21784285D01*
X38386904Y-21879523D01*
X38291666Y-21974761D01*
X38148809Y-22022380D01*
X37910714Y-22022380D01*
X38863095Y-21117619D02*
X38910714Y-21070000D01*
X39005952Y-21022380D01*
X39244047Y-21022380D01*
X39339285Y-21070000D01*
X39386904Y-21117619D01*
X39434523Y-21212857D01*
X39434523Y-21308095D01*
X39386904Y-21450952D01*
X38815476Y-22022380D01*
X39434523Y-22022380D01*
X40386904Y-22022380D02*
X39815476Y-22022380D01*
X40101190Y-22022380D02*
X40101190Y-21022380D01*
X40005952Y-21165238D01*
X39910714Y-21260476D01*
X39815476Y-21308095D01*
X41910714Y-22022380D02*
X41910714Y-21022380D01*
X42148809Y-21022380D01*
X42291666Y-21070000D01*
X42386904Y-21165238D01*
X42434523Y-21260476D01*
X42482142Y-21450952D01*
X42482142Y-21593809D01*
X42434523Y-21784285D01*
X42386904Y-21879523D01*
X42291666Y-21974761D01*
X42148809Y-22022380D01*
X41910714Y-22022380D01*
X42863095Y-21117619D02*
X42910714Y-21070000D01*
X43005952Y-21022380D01*
X43244047Y-21022380D01*
X43339285Y-21070000D01*
X43386904Y-21117619D01*
X43434523Y-21212857D01*
X43434523Y-21308095D01*
X43386904Y-21450952D01*
X42815476Y-22022380D01*
X43434523Y-22022380D01*
X44053571Y-21022380D02*
X44148809Y-21022380D01*
X44244047Y-21070000D01*
X44291666Y-21117619D01*
X44339285Y-21212857D01*
X44386904Y-21403333D01*
X44386904Y-21641428D01*
X44339285Y-21831904D01*
X44291666Y-21927142D01*
X44244047Y-21974761D01*
X44148809Y-22022380D01*
X44053571Y-22022380D01*
X43958333Y-21974761D01*
X43910714Y-21927142D01*
X43863095Y-21831904D01*
X43815476Y-21641428D01*
X43815476Y-21403333D01*
X43863095Y-21212857D01*
X43910714Y-21117619D01*
X43958333Y-21070000D01*
X44053571Y-21022380D01*
X29910714Y-25022380D02*
X29910714Y-24022380D01*
X30148809Y-24022380D01*
X30291666Y-24070000D01*
X30386904Y-24165238D01*
X30434523Y-24260476D01*
X30482142Y-24450952D01*
X30482142Y-24593809D01*
X30434523Y-24784285D01*
X30386904Y-24879523D01*
X30291666Y-24974761D01*
X30148809Y-25022380D01*
X29910714Y-25022380D01*
X31434523Y-25022380D02*
X30863095Y-25022380D01*
X31148809Y-25022380D02*
X31148809Y-24022380D01*
X31053571Y-24165238D01*
X30958333Y-24260476D01*
X30863095Y-24308095D01*
X31910714Y-25022380D02*
X32101190Y-25022380D01*
X32196428Y-24974761D01*
X32244047Y-24927142D01*
X32339285Y-24784285D01*
X32386904Y-24593809D01*
X32386904Y-24212857D01*
X32339285Y-24117619D01*
X32291666Y-24070000D01*
X32196428Y-24022380D01*
X32005952Y-24022380D01*
X31910714Y-24070000D01*
X31863095Y-24117619D01*
X31815476Y-24212857D01*
X31815476Y-24450952D01*
X31863095Y-24546190D01*
X31910714Y-24593809D01*
X32005952Y-24641428D01*
X32196428Y-24641428D01*
X32291666Y-24593809D01*
X32339285Y-24546190D01*
X32386904Y-24450952D01*
X33910714Y-25022380D02*
X33910714Y-24022380D01*
X34148809Y-24022380D01*
X34291666Y-24070000D01*
X34386904Y-24165238D01*
X34434523Y-24260476D01*
X34482142Y-24450952D01*
X34482142Y-24593809D01*
X34434523Y-24784285D01*
X34386904Y-24879523D01*
X34291666Y-24974761D01*
X34148809Y-25022380D01*
X33910714Y-25022380D01*
X35434523Y-25022380D02*
X34863095Y-25022380D01*
X35148809Y-25022380D02*
X35148809Y-24022380D01*
X35053571Y-24165238D01*
X34958333Y-24260476D01*
X34863095Y-24308095D01*
X36005952Y-24450952D02*
X35910714Y-24403333D01*
X35863095Y-24355714D01*
X35815476Y-24260476D01*
X35815476Y-24212857D01*
X35863095Y-24117619D01*
X35910714Y-24070000D01*
X36005952Y-24022380D01*
X36196428Y-24022380D01*
X36291666Y-24070000D01*
X36339285Y-24117619D01*
X36386904Y-24212857D01*
X36386904Y-24260476D01*
X36339285Y-24355714D01*
X36291666Y-24403333D01*
X36196428Y-24450952D01*
X36005952Y-24450952D01*
X35910714Y-24498571D01*
X35863095Y-24546190D01*
X35815476Y-24641428D01*
X35815476Y-24831904D01*
X35863095Y-24927142D01*
X35910714Y-24974761D01*
X36005952Y-25022380D01*
X36196428Y-25022380D01*
X36291666Y-24974761D01*
X36339285Y-24927142D01*
X36386904Y-24831904D01*
X36386904Y-24641428D01*
X36339285Y-24546190D01*
X36291666Y-24498571D01*
X36196428Y-24450952D01*
X37910714Y-25022380D02*
X37910714Y-24022380D01*
X38148809Y-24022380D01*
X38291666Y-24070000D01*
X38386904Y-24165238D01*
X38434523Y-24260476D01*
X38482142Y-24450952D01*
X38482142Y-24593809D01*
X38434523Y-24784285D01*
X38386904Y-24879523D01*
X38291666Y-24974761D01*
X38148809Y-25022380D01*
X37910714Y-25022380D01*
X39434523Y-25022380D02*
X38863095Y-25022380D01*
X39148809Y-25022380D02*
X39148809Y-24022380D01*
X39053571Y-24165238D01*
X38958333Y-24260476D01*
X38863095Y-24308095D01*
X39767857Y-24022380D02*
X40434523Y-24022380D01*
X40005952Y-25022380D01*
X41910714Y-25022380D02*
X41910714Y-24022380D01*
X42148809Y-24022380D01*
X42291666Y-24070000D01*
X42386904Y-24165238D01*
X42434523Y-24260476D01*
X42482142Y-24450952D01*
X42482142Y-24593809D01*
X42434523Y-24784285D01*
X42386904Y-24879523D01*
X42291666Y-24974761D01*
X42148809Y-25022380D01*
X41910714Y-25022380D01*
X43434523Y-25022380D02*
X42863095Y-25022380D01*
X43148809Y-25022380D02*
X43148809Y-24022380D01*
X43053571Y-24165238D01*
X42958333Y-24260476D01*
X42863095Y-24308095D01*
X44291666Y-24022380D02*
X44101190Y-24022380D01*
X44005952Y-24070000D01*
X43958333Y-24117619D01*
X43863095Y-24260476D01*
X43815476Y-24450952D01*
X43815476Y-24831904D01*
X43863095Y-24927142D01*
X43910714Y-24974761D01*
X44005952Y-25022380D01*
X44196428Y-25022380D01*
X44291666Y-24974761D01*
X44339285Y-24927142D01*
X44386904Y-24831904D01*
X44386904Y-24593809D01*
X44339285Y-24498571D01*
X44291666Y-24450952D01*
X44196428Y-24403333D01*
X44005952Y-24403333D01*
X43910714Y-24450952D01*
X43863095Y-24498571D01*
X43815476Y-24593809D01*
X29910714Y-28022380D02*
X29910714Y-27022380D01*
X30148809Y-27022380D01*
X30291666Y-27070000D01*
X30386904Y-27165238D01*
X30434523Y-27260476D01*
X30482142Y-27450952D01*
X30482142Y-27593809D01*
X30434523Y-27784285D01*
X30386904Y-27879523D01*
X30291666Y-27974761D01*
X30148809Y-28022380D01*
X29910714Y-28022380D01*
X31434523Y-28022380D02*
X30863095Y-28022380D01*
X31148809Y-28022380D02*
X31148809Y-27022380D01*
X31053571Y-27165238D01*
X30958333Y-27260476D01*
X30863095Y-27308095D01*
X32339285Y-27022380D02*
X31863095Y-27022380D01*
X31815476Y-27498571D01*
X31863095Y-27450952D01*
X31958333Y-27403333D01*
X32196428Y-27403333D01*
X32291666Y-27450952D01*
X32339285Y-27498571D01*
X32386904Y-27593809D01*
X32386904Y-27831904D01*
X32339285Y-27927142D01*
X32291666Y-27974761D01*
X32196428Y-28022380D01*
X31958333Y-28022380D01*
X31863095Y-27974761D01*
X31815476Y-27927142D01*
X33910714Y-28022380D02*
X33910714Y-27022380D01*
X34148809Y-27022380D01*
X34291666Y-27070000D01*
X34386904Y-27165238D01*
X34434523Y-27260476D01*
X34482142Y-27450952D01*
X34482142Y-27593809D01*
X34434523Y-27784285D01*
X34386904Y-27879523D01*
X34291666Y-27974761D01*
X34148809Y-28022380D01*
X33910714Y-28022380D01*
X35434523Y-28022380D02*
X34863095Y-28022380D01*
X35148809Y-28022380D02*
X35148809Y-27022380D01*
X35053571Y-27165238D01*
X34958333Y-27260476D01*
X34863095Y-27308095D01*
X36291666Y-27355714D02*
X36291666Y-28022380D01*
X36053571Y-26974761D02*
X35815476Y-27689047D01*
X36434523Y-27689047D01*
X37910714Y-28022380D02*
X37910714Y-27022380D01*
X38148809Y-27022380D01*
X38291666Y-27070000D01*
X38386904Y-27165238D01*
X38434523Y-27260476D01*
X38482142Y-27450952D01*
X38482142Y-27593809D01*
X38434523Y-27784285D01*
X38386904Y-27879523D01*
X38291666Y-27974761D01*
X38148809Y-28022380D01*
X37910714Y-28022380D01*
X39434523Y-28022380D02*
X38863095Y-28022380D01*
X39148809Y-28022380D02*
X39148809Y-27022380D01*
X39053571Y-27165238D01*
X38958333Y-27260476D01*
X38863095Y-27308095D01*
X39767857Y-27022380D02*
X40386904Y-27022380D01*
X40053571Y-27403333D01*
X40196428Y-27403333D01*
X40291666Y-27450952D01*
X40339285Y-27498571D01*
X40386904Y-27593809D01*
X40386904Y-27831904D01*
X40339285Y-27927142D01*
X40291666Y-27974761D01*
X40196428Y-28022380D01*
X39910714Y-28022380D01*
X39815476Y-27974761D01*
X39767857Y-27927142D01*
X41910714Y-28022380D02*
X41910714Y-27022380D01*
X42148809Y-27022380D01*
X42291666Y-27070000D01*
X42386904Y-27165238D01*
X42434523Y-27260476D01*
X42482142Y-27450952D01*
X42482142Y-27593809D01*
X42434523Y-27784285D01*
X42386904Y-27879523D01*
X42291666Y-27974761D01*
X42148809Y-28022380D01*
X41910714Y-28022380D01*
X43434523Y-28022380D02*
X42863095Y-28022380D01*
X43148809Y-28022380D02*
X43148809Y-27022380D01*
X43053571Y-27165238D01*
X42958333Y-27260476D01*
X42863095Y-27308095D01*
X43815476Y-27117619D02*
X43863095Y-27070000D01*
X43958333Y-27022380D01*
X44196428Y-27022380D01*
X44291666Y-27070000D01*
X44339285Y-27117619D01*
X44386904Y-27212857D01*
X44386904Y-27308095D01*
X44339285Y-27450952D01*
X43767857Y-28022380D01*
X44386904Y-28022380D01*
X29910714Y-31022380D02*
X29910714Y-30022380D01*
X30148809Y-30022380D01*
X30291666Y-30070000D01*
X30386904Y-30165238D01*
X30434523Y-30260476D01*
X30482142Y-30450952D01*
X30482142Y-30593809D01*
X30434523Y-30784285D01*
X30386904Y-30879523D01*
X30291666Y-30974761D01*
X30148809Y-31022380D01*
X29910714Y-31022380D01*
X31434523Y-31022380D02*
X30863095Y-31022380D01*
X31148809Y-31022380D02*
X31148809Y-30022380D01*
X31053571Y-30165238D01*
X30958333Y-30260476D01*
X30863095Y-30308095D01*
X32386904Y-31022380D02*
X31815476Y-31022380D01*
X32101190Y-31022380D02*
X32101190Y-30022380D01*
X32005952Y-30165238D01*
X31910714Y-30260476D01*
X31815476Y-30308095D01*
X33910714Y-31022380D02*
X33910714Y-30022380D01*
X34148809Y-30022380D01*
X34291666Y-30070000D01*
X34386904Y-30165238D01*
X34434523Y-30260476D01*
X34482142Y-30450952D01*
X34482142Y-30593809D01*
X34434523Y-30784285D01*
X34386904Y-30879523D01*
X34291666Y-30974761D01*
X34148809Y-31022380D01*
X33910714Y-31022380D01*
X35434523Y-31022380D02*
X34863095Y-31022380D01*
X35148809Y-31022380D02*
X35148809Y-30022380D01*
X35053571Y-30165238D01*
X34958333Y-30260476D01*
X34863095Y-30308095D01*
X36053571Y-30022380D02*
X36148809Y-30022380D01*
X36244047Y-30070000D01*
X36291666Y-30117619D01*
X36339285Y-30212857D01*
X36386904Y-30403333D01*
X36386904Y-30641428D01*
X36339285Y-30831904D01*
X36291666Y-30927142D01*
X36244047Y-30974761D01*
X36148809Y-31022380D01*
X36053571Y-31022380D01*
X35958333Y-30974761D01*
X35910714Y-30927142D01*
X35863095Y-30831904D01*
X35815476Y-30641428D01*
X35815476Y-30403333D01*
X35863095Y-30212857D01*
X35910714Y-30117619D01*
X35958333Y-30070000D01*
X36053571Y-30022380D01*
X38386904Y-31022380D02*
X38386904Y-30022380D01*
X38625000Y-30022380D01*
X38767857Y-30070000D01*
X38863095Y-30165238D01*
X38910714Y-30260476D01*
X38958333Y-30450952D01*
X38958333Y-30593809D01*
X38910714Y-30784285D01*
X38863095Y-30879523D01*
X38767857Y-30974761D01*
X38625000Y-31022380D01*
X38386904Y-31022380D01*
X39434523Y-31022380D02*
X39625000Y-31022380D01*
X39720238Y-30974761D01*
X39767857Y-30927142D01*
X39863095Y-30784285D01*
X39910714Y-30593809D01*
X39910714Y-30212857D01*
X39863095Y-30117619D01*
X39815476Y-30070000D01*
X39720238Y-30022380D01*
X39529761Y-30022380D01*
X39434523Y-30070000D01*
X39386904Y-30117619D01*
X39339285Y-30212857D01*
X39339285Y-30450952D01*
X39386904Y-30546190D01*
X39434523Y-30593809D01*
X39529761Y-30641428D01*
X39720238Y-30641428D01*
X39815476Y-30593809D01*
X39863095Y-30546190D01*
X39910714Y-30450952D01*
X42386904Y-31022380D02*
X42386904Y-30022380D01*
X42625000Y-30022380D01*
X42767857Y-30070000D01*
X42863095Y-30165238D01*
X42910714Y-30260476D01*
X42958333Y-30450952D01*
X42958333Y-30593809D01*
X42910714Y-30784285D01*
X42863095Y-30879523D01*
X42767857Y-30974761D01*
X42625000Y-31022380D01*
X42386904Y-31022380D01*
X43529761Y-30450952D02*
X43434523Y-30403333D01*
X43386904Y-30355714D01*
X43339285Y-30260476D01*
X43339285Y-30212857D01*
X43386904Y-30117619D01*
X43434523Y-30070000D01*
X43529761Y-30022380D01*
X43720238Y-30022380D01*
X43815476Y-30070000D01*
X43863095Y-30117619D01*
X43910714Y-30212857D01*
X43910714Y-30260476D01*
X43863095Y-30355714D01*
X43815476Y-30403333D01*
X43720238Y-30450952D01*
X43529761Y-30450952D01*
X43434523Y-30498571D01*
X43386904Y-30546190D01*
X43339285Y-30641428D01*
X43339285Y-30831904D01*
X43386904Y-30927142D01*
X43434523Y-30974761D01*
X43529761Y-31022380D01*
X43720238Y-31022380D01*
X43815476Y-30974761D01*
X43863095Y-30927142D01*
X43910714Y-30831904D01*
X43910714Y-30641428D01*
X43863095Y-30546190D01*
X43815476Y-30498571D01*
X43720238Y-30450952D01*
X30386904Y-34022380D02*
X30386904Y-33022380D01*
X30625000Y-33022380D01*
X30767857Y-33070000D01*
X30863095Y-33165238D01*
X30910714Y-33260476D01*
X30958333Y-33450952D01*
X30958333Y-33593809D01*
X30910714Y-33784285D01*
X30863095Y-33879523D01*
X30767857Y-33974761D01*
X30625000Y-34022380D01*
X30386904Y-34022380D01*
X31291666Y-33022380D02*
X31958333Y-33022380D01*
X31529761Y-34022380D01*
X34386904Y-34022380D02*
X34386904Y-33022380D01*
X34625000Y-33022380D01*
X34767857Y-33070000D01*
X34863095Y-33165238D01*
X34910714Y-33260476D01*
X34958333Y-33450952D01*
X34958333Y-33593809D01*
X34910714Y-33784285D01*
X34863095Y-33879523D01*
X34767857Y-33974761D01*
X34625000Y-34022380D01*
X34386904Y-34022380D01*
X35815476Y-33022380D02*
X35625000Y-33022380D01*
X35529761Y-33070000D01*
X35482142Y-33117619D01*
X35386904Y-33260476D01*
X35339285Y-33450952D01*
X35339285Y-33831904D01*
X35386904Y-33927142D01*
X35434523Y-33974761D01*
X35529761Y-34022380D01*
X35720238Y-34022380D01*
X35815476Y-33974761D01*
X35863095Y-33927142D01*
X35910714Y-33831904D01*
X35910714Y-33593809D01*
X35863095Y-33498571D01*
X35815476Y-33450952D01*
X35720238Y-33403333D01*
X35529761Y-33403333D01*
X35434523Y-33450952D01*
X35386904Y-33498571D01*
X35339285Y-33593809D01*
X38386904Y-34022380D02*
X38386904Y-33022380D01*
X38625000Y-33022380D01*
X38767857Y-33070000D01*
X38863095Y-33165238D01*
X38910714Y-33260476D01*
X38958333Y-33450952D01*
X38958333Y-33593809D01*
X38910714Y-33784285D01*
X38863095Y-33879523D01*
X38767857Y-33974761D01*
X38625000Y-34022380D01*
X38386904Y-34022380D01*
X39863095Y-33022380D02*
X39386904Y-33022380D01*
X39339285Y-33498571D01*
X39386904Y-33450952D01*
X39482142Y-33403333D01*
X39720238Y-33403333D01*
X39815476Y-33450952D01*
X39863095Y-33498571D01*
X39910714Y-33593809D01*
X39910714Y-33831904D01*
X39863095Y-33927142D01*
X39815476Y-33974761D01*
X39720238Y-34022380D01*
X39482142Y-34022380D01*
X39386904Y-33974761D01*
X39339285Y-33927142D01*
X42386904Y-34022380D02*
X42386904Y-33022380D01*
X42625000Y-33022380D01*
X42767857Y-33070000D01*
X42863095Y-33165238D01*
X42910714Y-33260476D01*
X42958333Y-33450952D01*
X42958333Y-33593809D01*
X42910714Y-33784285D01*
X42863095Y-33879523D01*
X42767857Y-33974761D01*
X42625000Y-34022380D01*
X42386904Y-34022380D01*
X43815476Y-33355714D02*
X43815476Y-34022380D01*
X43577380Y-32974761D02*
X43339285Y-33689047D01*
X43958333Y-33689047D01*
X30386904Y-37022380D02*
X30386904Y-36022380D01*
X30625000Y-36022380D01*
X30767857Y-36070000D01*
X30863095Y-36165238D01*
X30910714Y-36260476D01*
X30958333Y-36450952D01*
X30958333Y-36593809D01*
X30910714Y-36784285D01*
X30863095Y-36879523D01*
X30767857Y-36974761D01*
X30625000Y-37022380D01*
X30386904Y-37022380D01*
X31291666Y-36022380D02*
X31910714Y-36022380D01*
X31577380Y-36403333D01*
X31720238Y-36403333D01*
X31815476Y-36450952D01*
X31863095Y-36498571D01*
X31910714Y-36593809D01*
X31910714Y-36831904D01*
X31863095Y-36927142D01*
X31815476Y-36974761D01*
X31720238Y-37022380D01*
X31434523Y-37022380D01*
X31339285Y-36974761D01*
X31291666Y-36927142D01*
X34386904Y-37022380D02*
X34386904Y-36022380D01*
X34625000Y-36022380D01*
X34767857Y-36070000D01*
X34863095Y-36165238D01*
X34910714Y-36260476D01*
X34958333Y-36450952D01*
X34958333Y-36593809D01*
X34910714Y-36784285D01*
X34863095Y-36879523D01*
X34767857Y-36974761D01*
X34625000Y-37022380D01*
X34386904Y-37022380D01*
X35339285Y-36117619D02*
X35386904Y-36070000D01*
X35482142Y-36022380D01*
X35720238Y-36022380D01*
X35815476Y-36070000D01*
X35863095Y-36117619D01*
X35910714Y-36212857D01*
X35910714Y-36308095D01*
X35863095Y-36450952D01*
X35291666Y-37022380D01*
X35910714Y-37022380D01*
X38386904Y-37022380D02*
X38386904Y-36022380D01*
X38625000Y-36022380D01*
X38767857Y-36070000D01*
X38863095Y-36165238D01*
X38910714Y-36260476D01*
X38958333Y-36450952D01*
X38958333Y-36593809D01*
X38910714Y-36784285D01*
X38863095Y-36879523D01*
X38767857Y-36974761D01*
X38625000Y-37022380D01*
X38386904Y-37022380D01*
X39910714Y-37022380D02*
X39339285Y-37022380D01*
X39625000Y-37022380D02*
X39625000Y-36022380D01*
X39529761Y-36165238D01*
X39434523Y-36260476D01*
X39339285Y-36308095D01*
X42386904Y-37022380D02*
X42386904Y-36022380D01*
X42625000Y-36022380D01*
X42767857Y-36070000D01*
X42863095Y-36165238D01*
X42910714Y-36260476D01*
X42958333Y-36450952D01*
X42958333Y-36593809D01*
X42910714Y-36784285D01*
X42863095Y-36879523D01*
X42767857Y-36974761D01*
X42625000Y-37022380D01*
X42386904Y-37022380D01*
X43577380Y-36022380D02*
X43672619Y-36022380D01*
X43767857Y-36070000D01*
X43815476Y-36117619D01*
X43863095Y-36212857D01*
X43910714Y-36403333D01*
X43910714Y-36641428D01*
X43863095Y-36831904D01*
X43815476Y-36927142D01*
X43767857Y-36974761D01*
X43672619Y-37022380D01*
X43577380Y-37022380D01*
X43482142Y-36974761D01*
X43434523Y-36927142D01*
X43386904Y-36831904D01*
X43339285Y-36641428D01*
X43339285Y-36403333D01*
X43386904Y-36212857D01*
X43434523Y-36117619D01*
X43482142Y-36070000D01*
X43577380Y-36022380D01*
X12238095Y-57452380D02*
X12238095Y-58261904D01*
X12285714Y-58357142D01*
X12333333Y-58404761D01*
X12428571Y-58452380D01*
X12619047Y-58452380D01*
X12714285Y-58404761D01*
X12761904Y-58357142D01*
X12809523Y-58261904D01*
X12809523Y-57452380D01*
X13476190Y-57452380D02*
X13571428Y-57452380D01*
X13666666Y-57500000D01*
X13714285Y-57547619D01*
X13761904Y-57642857D01*
X13809523Y-57833333D01*
X13809523Y-58071428D01*
X13761904Y-58261904D01*
X13714285Y-58357142D01*
X13666666Y-58404761D01*
X13571428Y-58452380D01*
X13476190Y-58452380D01*
X13380952Y-58404761D01*
X13333333Y-58357142D01*
X13285714Y-58261904D01*
X13238095Y-58071428D01*
X13238095Y-57833333D01*
X13285714Y-57642857D01*
X13333333Y-57547619D01*
X13380952Y-57500000D01*
X13476190Y-57452380D01*
X59629761Y-30333333D02*
X59677380Y-30190476D01*
X59677380Y-29952380D01*
X59629761Y-29857142D01*
X59582142Y-29809523D01*
X59486904Y-29761904D01*
X59391666Y-29761904D01*
X59296428Y-29809523D01*
X59248809Y-29857142D01*
X59201190Y-29952380D01*
X59153571Y-30142857D01*
X59105952Y-30238095D01*
X59058333Y-30285714D01*
X58963095Y-30333333D01*
X58867857Y-30333333D01*
X58772619Y-30285714D01*
X58725000Y-30238095D01*
X58677380Y-30142857D01*
X58677380Y-29904761D01*
X58725000Y-29761904D01*
X58677380Y-29428571D02*
X59677380Y-29190476D01*
X58963095Y-29000000D01*
X59677380Y-28809523D01*
X58677380Y-28571428D01*
X59677380Y-27666666D02*
X59677380Y-28238095D01*
X59677380Y-27952380D02*
X58677380Y-27952380D01*
X58820238Y-28047619D01*
X58915476Y-28142857D01*
X58963095Y-28238095D01*
X24059523Y-51052380D02*
X23726190Y-50576190D01*
X23488095Y-51052380D02*
X23488095Y-50052380D01*
X23869047Y-50052380D01*
X23964285Y-50100000D01*
X24011904Y-50147619D01*
X24059523Y-50242857D01*
X24059523Y-50385714D01*
X24011904Y-50480952D01*
X23964285Y-50528571D01*
X23869047Y-50576190D01*
X23488095Y-50576190D01*
X24488095Y-51052380D02*
X24488095Y-50052380D01*
X25059523Y-51052380D01*
X25059523Y-50052380D01*
X25440476Y-50052380D02*
X26107142Y-50052380D01*
X25678571Y-51052380D01*
X32433333Y-55052380D02*
X32100000Y-54576190D01*
X31861904Y-55052380D02*
X31861904Y-54052380D01*
X32242857Y-54052380D01*
X32338095Y-54100000D01*
X32385714Y-54147619D01*
X32433333Y-54242857D01*
X32433333Y-54385714D01*
X32385714Y-54480952D01*
X32338095Y-54528571D01*
X32242857Y-54576190D01*
X31861904Y-54576190D01*
X33290476Y-54385714D02*
X33290476Y-55052380D01*
X33052380Y-54004761D02*
X32814285Y-54719047D01*
X33433333Y-54719047D01*
X31795833Y-52702380D02*
X31462500Y-52226190D01*
X31224404Y-52702380D02*
X31224404Y-51702380D01*
X31605357Y-51702380D01*
X31700595Y-51750000D01*
X31748214Y-51797619D01*
X31795833Y-51892857D01*
X31795833Y-52035714D01*
X31748214Y-52130952D01*
X31700595Y-52178571D01*
X31605357Y-52226190D01*
X31224404Y-52226190D01*
X32129166Y-51702380D02*
X32748214Y-51702380D01*
X32414880Y-52083333D01*
X32557738Y-52083333D01*
X32652976Y-52130952D01*
X32700595Y-52178571D01*
X32748214Y-52273809D01*
X32748214Y-52511904D01*
X32700595Y-52607142D01*
X32652976Y-52654761D01*
X32557738Y-52702380D01*
X32272023Y-52702380D01*
X32176785Y-52654761D01*
X32129166Y-52607142D01*
X22452380Y-49016666D02*
X21976190Y-49350000D01*
X22452380Y-49588095D02*
X21452380Y-49588095D01*
X21452380Y-49207142D01*
X21500000Y-49111904D01*
X21547619Y-49064285D01*
X21642857Y-49016666D01*
X21785714Y-49016666D01*
X21880952Y-49064285D01*
X21928571Y-49111904D01*
X21976190Y-49207142D01*
X21976190Y-49588095D01*
X22452380Y-48064285D02*
X22452380Y-48635714D01*
X22452380Y-48350000D02*
X21452380Y-48350000D01*
X21595238Y-48445238D01*
X21690476Y-48540476D01*
X21738095Y-48635714D01*
X21547619Y-45558333D02*
X22023809Y-45225000D01*
X21547619Y-44986904D02*
X22547619Y-44986904D01*
X22547619Y-45367857D01*
X22500000Y-45463095D01*
X22452380Y-45510714D01*
X22357142Y-45558333D01*
X22214285Y-45558333D01*
X22119047Y-45510714D01*
X22071428Y-45463095D01*
X22023809Y-45367857D01*
X22023809Y-44986904D01*
X22547619Y-46177380D02*
X22547619Y-46272619D01*
X22500000Y-46367857D01*
X22452380Y-46415476D01*
X22357142Y-46463095D01*
X22166666Y-46510714D01*
X21928571Y-46510714D01*
X21738095Y-46463095D01*
X21642857Y-46415476D01*
X21595238Y-46367857D01*
X21547619Y-46272619D01*
X21547619Y-46177380D01*
X21595238Y-46082142D01*
X21642857Y-46034523D01*
X21738095Y-45986904D01*
X21928571Y-45939285D01*
X22166666Y-45939285D01*
X22357142Y-45986904D01*
X22452380Y-46034523D01*
X22500000Y-46082142D01*
X22547619Y-46177380D01*
X31733333Y-53077142D02*
X31685714Y-53124761D01*
X31542857Y-53172380D01*
X31447619Y-53172380D01*
X31304761Y-53124761D01*
X31209523Y-53029523D01*
X31161904Y-52934285D01*
X31114285Y-52743809D01*
X31114285Y-52600952D01*
X31161904Y-52410476D01*
X31209523Y-52315238D01*
X31304761Y-52220000D01*
X31447619Y-52172380D01*
X31542857Y-52172380D01*
X31685714Y-52220000D01*
X31733333Y-52267619D01*
X32066666Y-52172380D02*
X32733333Y-52172380D01*
X32304761Y-53172380D01*
X20942857Y-45033333D02*
X20895238Y-44985714D01*
X20847619Y-44842857D01*
X20847619Y-44747619D01*
X20895238Y-44604761D01*
X20990476Y-44509523D01*
X21085714Y-44461904D01*
X21276190Y-44414285D01*
X21419047Y-44414285D01*
X21609523Y-44461904D01*
X21704761Y-44509523D01*
X21800000Y-44604761D01*
X21847619Y-44747619D01*
X21847619Y-44842857D01*
X21800000Y-44985714D01*
X21752380Y-45033333D01*
X21752380Y-45414285D02*
X21800000Y-45461904D01*
X21847619Y-45557142D01*
X21847619Y-45795238D01*
X21800000Y-45890476D01*
X21752380Y-45938095D01*
X21657142Y-45985714D01*
X21561904Y-45985714D01*
X21419047Y-45938095D01*
X20847619Y-45366666D01*
X20847619Y-45985714D01*
X18857142Y-42266666D02*
X18904761Y-42314285D01*
X18952380Y-42457142D01*
X18952380Y-42552380D01*
X18904761Y-42695238D01*
X18809523Y-42790476D01*
X18714285Y-42838095D01*
X18523809Y-42885714D01*
X18380952Y-42885714D01*
X18190476Y-42838095D01*
X18095238Y-42790476D01*
X18000000Y-42695238D01*
X17952380Y-42552380D01*
X17952380Y-42457142D01*
X18000000Y-42314285D01*
X18047619Y-42266666D01*
X18952380Y-41314285D02*
X18952380Y-41885714D01*
X18952380Y-41600000D02*
X17952380Y-41600000D01*
X18095238Y-41695238D01*
X18190476Y-41790476D01*
X18238095Y-41885714D01*
X18357142Y-46766666D02*
X18404761Y-46814285D01*
X18452380Y-46957142D01*
X18452380Y-47052380D01*
X18404761Y-47195238D01*
X18309523Y-47290476D01*
X18214285Y-47338095D01*
X18023809Y-47385714D01*
X17880952Y-47385714D01*
X17690476Y-47338095D01*
X17595238Y-47290476D01*
X17500000Y-47195238D01*
X17452380Y-47052380D01*
X17452380Y-46957142D01*
X17500000Y-46814285D01*
X17547619Y-46766666D01*
X17452380Y-46147619D02*
X17452380Y-46052380D01*
X17500000Y-45957142D01*
X17547619Y-45909523D01*
X17642857Y-45861904D01*
X17833333Y-45814285D01*
X18071428Y-45814285D01*
X18261904Y-45861904D01*
X18357142Y-45909523D01*
X18404761Y-45957142D01*
X18452380Y-46052380D01*
X18452380Y-46147619D01*
X18404761Y-46242857D01*
X18357142Y-46290476D01*
X18261904Y-46338095D01*
X18071428Y-46385714D01*
X17833333Y-46385714D01*
X17642857Y-46338095D01*
X17547619Y-46290476D01*
X17500000Y-46242857D01*
X17452380Y-46147619D01*
D11*
X23740000Y-43500000D02*
X25250000Y-43500000D01*
X25550000Y-43800000D02*
X25550000Y-44400000D01*
X25250000Y-44700000D02*
X23740000Y-44700000D01*
X23440000Y-44400000D02*
X23440000Y-43800000D01*
X25250000Y-43500000D02*
G75*
G02*
X25550000Y-43800000I0J-300000D01*
G01*
X23740000Y-44700000D02*
G75*
G02*
X23440000Y-44400000I0J300000D01*
G01*
X25550000Y-44400000D02*
G75*
G02*
X25250000Y-44700000I-300000J0D01*
G01*
X23440000Y-43800000D02*
G75*
G02*
X23740000Y-43500000I300000J0D01*
G01*
X30800000Y-48650000D02*
X30800000Y-51250000D01*
X30500000Y-51550000D02*
X29900000Y-51550000D01*
X29600000Y-51250000D02*
X29600000Y-48650000D01*
X29900000Y-48350000D02*
X30500000Y-48350000D01*
X30800000Y-51250000D02*
G75*
G02*
X30500000Y-51550000I-300000J0D01*
G01*
X29600000Y-48650000D02*
G75*
G02*
X29900000Y-48350000I300000J0D01*
G01*
X29900000Y-51550000D02*
G75*
G02*
X29600000Y-51250000I0J300000D01*
G01*
X30500000Y-48350000D02*
G75*
G02*
X30800000Y-48650000I0J-300000D01*
G01*
X30800000Y-45350000D02*
X30800000Y-47950000D01*
X30500000Y-48250000D02*
X29900000Y-48250000D01*
X29600000Y-47950000D02*
X29600000Y-45350000D01*
X29900000Y-45050000D02*
X30500000Y-45050000D01*
X30800000Y-47950000D02*
G75*
G02*
X30500000Y-48250000I-300000J0D01*
G01*
X29600000Y-45350000D02*
G75*
G02*
X29900000Y-45050000I300000J0D01*
G01*
X29900000Y-48250000D02*
G75*
G02*
X29600000Y-47950000I0J300000D01*
G01*
X30500000Y-45050000D02*
G75*
G02*
X30800000Y-45350000I0J-300000D01*
G01*
X30400000Y-44950000D02*
X27800000Y-44950000D01*
X27500000Y-44650000D02*
X27500000Y-44050000D01*
X27800000Y-43750000D02*
X30400000Y-43750000D01*
X30700000Y-44050000D02*
X30700000Y-44650000D01*
X27800000Y-44950000D02*
G75*
G02*
X27500000Y-44650000I0J300000D01*
G01*
X30400000Y-43750000D02*
G75*
G02*
X30700000Y-44050000I0J-300000D01*
G01*
X27500000Y-44050000D02*
G75*
G02*
X27800000Y-43750000I300000J0D01*
G01*
X30700000Y-44650000D02*
G75*
G02*
X30400000Y-44950000I-300000J0D01*
G01*
X59775000Y-31760000D02*
X59775000Y-26240000D01*
X48875000Y-33610000D02*
X48875000Y-31760000D01*
X48225000Y-31760000D02*
X48875000Y-31760000D01*
X48225000Y-31760000D02*
X48225000Y-26240000D01*
X48225000Y-26240000D02*
X49494000Y-26240000D01*
X58505000Y-31760000D02*
X59775000Y-31760000D01*
X58505000Y-26240000D02*
X59775000Y-26240000D01*
X48430000Y-46000000D02*
X48430000Y-41000000D01*
X55570000Y-35940000D02*
X55570000Y-46060000D01*
X56430000Y-46000000D02*
X56430000Y-41000000D01*
X63570000Y-35940000D02*
X63570000Y-46060000D01*
X64430000Y-46000000D02*
X64430000Y-41000000D01*
X71570000Y-35940000D02*
X71570000Y-46060000D01*
X31925000Y-22265000D02*
X29465000Y-22265000D01*
X29465000Y-22265000D02*
X29465000Y-23735000D01*
X29465000Y-23735000D02*
X31925000Y-23735000D01*
X35925000Y-22265000D02*
X33465000Y-22265000D01*
X33465000Y-22265000D02*
X33465000Y-23735000D01*
X33465000Y-23735000D02*
X35925000Y-23735000D01*
X39925000Y-22265000D02*
X37465000Y-22265000D01*
X37465000Y-22265000D02*
X37465000Y-23735000D01*
X37465000Y-23735000D02*
X39925000Y-23735000D01*
X43925000Y-22265000D02*
X41465000Y-22265000D01*
X41465000Y-22265000D02*
X41465000Y-23735000D01*
X41465000Y-23735000D02*
X43925000Y-23735000D01*
X31925000Y-25265000D02*
X29465000Y-25265000D01*
X29465000Y-25265000D02*
X29465000Y-26735000D01*
X29465000Y-26735000D02*
X31925000Y-26735000D01*
X35925000Y-25265000D02*
X33465000Y-25265000D01*
X33465000Y-25265000D02*
X33465000Y-26735000D01*
X33465000Y-26735000D02*
X35925000Y-26735000D01*
X39925000Y-25265000D02*
X37465000Y-25265000D01*
X37465000Y-25265000D02*
X37465000Y-26735000D01*
X37465000Y-26735000D02*
X39925000Y-26735000D01*
X43925000Y-25265000D02*
X41465000Y-25265000D01*
X41465000Y-25265000D02*
X41465000Y-26735000D01*
X41465000Y-26735000D02*
X43925000Y-26735000D01*
X31925000Y-28265000D02*
X29465000Y-28265000D01*
X29465000Y-28265000D02*
X29465000Y-29735000D01*
X29465000Y-29735000D02*
X31925000Y-29735000D01*
X35925000Y-28265000D02*
X33465000Y-28265000D01*
X33465000Y-28265000D02*
X33465000Y-29735000D01*
X33465000Y-29735000D02*
X35925000Y-29735000D01*
X39925000Y-28265000D02*
X37465000Y-28265000D01*
X37465000Y-28265000D02*
X37465000Y-29735000D01*
X37465000Y-29735000D02*
X39925000Y-29735000D01*
X43925000Y-28265000D02*
X41465000Y-28265000D01*
X41465000Y-28265000D02*
X41465000Y-29735000D01*
X41465000Y-29735000D02*
X43925000Y-29735000D01*
X31925000Y-31265000D02*
X29465000Y-31265000D01*
X29465000Y-31265000D02*
X29465000Y-32735000D01*
X29465000Y-32735000D02*
X31925000Y-32735000D01*
X35925000Y-31265000D02*
X33465000Y-31265000D01*
X33465000Y-31265000D02*
X33465000Y-32735000D01*
X33465000Y-32735000D02*
X35925000Y-32735000D01*
X39925000Y-31265000D02*
X37465000Y-31265000D01*
X37465000Y-31265000D02*
X37465000Y-32735000D01*
X37465000Y-32735000D02*
X39925000Y-32735000D01*
X43925000Y-31265000D02*
X41465000Y-31265000D01*
X41465000Y-31265000D02*
X41465000Y-32735000D01*
X41465000Y-32735000D02*
X43925000Y-32735000D01*
X31925000Y-34265000D02*
X29465000Y-34265000D01*
X29465000Y-34265000D02*
X29465000Y-35735000D01*
X29465000Y-35735000D02*
X31925000Y-35735000D01*
X35925000Y-34265000D02*
X33465000Y-34265000D01*
X33465000Y-34265000D02*
X33465000Y-35735000D01*
X33465000Y-35735000D02*
X35925000Y-35735000D01*
X39925000Y-34265000D02*
X37465000Y-34265000D01*
X37465000Y-34265000D02*
X37465000Y-35735000D01*
X37465000Y-35735000D02*
X39925000Y-35735000D01*
X43925000Y-34265000D02*
X41465000Y-34265000D01*
X41465000Y-34265000D02*
X41465000Y-35735000D01*
X41465000Y-35735000D02*
X43925000Y-35735000D01*
X31925000Y-37265000D02*
X29465000Y-37265000D01*
X29465000Y-37265000D02*
X29465000Y-38735000D01*
X29465000Y-38735000D02*
X31925000Y-38735000D01*
X35925000Y-37265000D02*
X33465000Y-37265000D01*
X33465000Y-37265000D02*
X33465000Y-38735000D01*
X33465000Y-38735000D02*
X35925000Y-38735000D01*
X39925000Y-37265000D02*
X37465000Y-37265000D01*
X37465000Y-37265000D02*
X37465000Y-38735000D01*
X37465000Y-38735000D02*
X39925000Y-38735000D01*
X43925000Y-37265000D02*
X41465000Y-37265000D01*
X41465000Y-37265000D02*
X41465000Y-38735000D01*
X41465000Y-38735000D02*
X43925000Y-38735000D01*
D12*
X50100000Y-50500000D02*
X50100000Y-54500000D01*
X56600000Y-51700000D02*
X56400000Y-51700000D01*
X34900000Y-53300000D02*
X34900000Y-51700000D01*
X34900000Y-51700000D02*
X34900000Y-50500000D01*
X50100000Y-54500000D02*
X34900000Y-54500000D01*
X71600000Y-18500000D02*
X56400000Y-18500000D01*
X56400000Y-15700000D02*
X56400000Y-14500000D01*
X56400000Y-51700000D02*
X56400000Y-50500000D01*
X56400000Y-53300000D02*
X56600000Y-53300000D01*
X71600000Y-14500000D02*
X71600000Y-18500000D01*
X34900000Y-54500000D02*
X34900000Y-53300000D01*
X71600000Y-50500000D02*
X71600000Y-54500000D01*
X35100000Y-53300000D02*
X35100000Y-51700000D01*
X56400000Y-53300000D02*
X56400000Y-51700000D01*
X56600000Y-53300000D02*
X56600000Y-51700000D01*
X56400000Y-54500000D02*
X56400000Y-53300000D01*
X56400000Y-17300000D02*
X56400000Y-15700000D01*
X56400000Y-18500000D02*
X56400000Y-17300000D01*
X56400000Y-50500000D02*
X71600000Y-50500000D01*
X71600000Y-54500000D02*
X56400000Y-54500000D01*
X56400000Y-14500000D02*
X71600000Y-14500000D01*
X34900000Y-50500000D02*
X50100000Y-50500000D01*
X35100000Y-51700000D02*
X34900000Y-51700000D01*
X34900000Y-53300000D02*
X35100000Y-53300000D01*
X56400000Y-17300000D02*
X56600000Y-17300000D01*
X56600000Y-15700000D02*
X56400000Y-15700000D01*
X30900000Y-18500000D02*
X30900000Y-17300000D01*
X30900000Y-14500000D02*
X46100000Y-14500000D01*
X31100000Y-17300000D02*
X31100000Y-15700000D01*
X30900000Y-17300000D02*
X31100000Y-17300000D01*
X56600000Y-17300000D02*
X56600000Y-15700000D01*
X46100000Y-18500000D02*
X30900000Y-18500000D01*
X30900000Y-15700000D02*
X30900000Y-14500000D01*
X30900000Y-17300000D02*
X30900000Y-15700000D01*
X46100000Y-14500000D02*
X46100000Y-18500000D01*
X31100000Y-15700000D02*
X30900000Y-15700000D01*
D11*
X71775000Y-31760000D02*
X71775000Y-26240000D01*
X60875000Y-33610000D02*
X60875000Y-31760000D01*
X60225000Y-31760000D02*
X60875000Y-31760000D01*
X60225000Y-31760000D02*
X60225000Y-26240000D01*
X60225000Y-26240000D02*
X61494000Y-26240000D01*
X70505000Y-31760000D02*
X71775000Y-31760000D01*
X70505000Y-26240000D02*
X71775000Y-26240000D01*
X22780000Y-53250000D02*
X22780000Y-52450000D01*
X26220000Y-53250000D02*
X26220000Y-52450000D01*
X32437221Y-52340000D02*
X32762779Y-52340000D01*
X32437221Y-53360000D02*
X32762779Y-53360000D01*
X29337221Y-51740000D02*
X29662779Y-51740000D01*
X29337221Y-52760000D02*
X29662779Y-52760000D01*
X21490000Y-51512779D02*
X21490000Y-51187221D01*
X22510000Y-51512779D02*
X22510000Y-51187221D01*
X22510000Y-48178733D02*
X22510000Y-48521267D01*
X21490000Y-48178733D02*
X21490000Y-48521267D01*
X31728733Y-53640000D02*
X32071267Y-53640000D01*
X31728733Y-54660000D02*
X32071267Y-54660000D01*
X21810000Y-42278733D02*
X21810000Y-42621267D01*
X20790000Y-42278733D02*
X20790000Y-42621267D01*
X17990000Y-45021267D02*
X17990000Y-44678733D01*
X19010000Y-45021267D02*
X19010000Y-44678733D01*
X18510000Y-49521267D02*
X18510000Y-49178733D01*
X17490000Y-49521267D02*
X17490000Y-49178733D01*
M02*
