G04 #@! TF.GenerationSoftware,KiCad,Pcbnew,(5.1.2-1)-1*
G04 #@! TF.CreationDate,2020-02-12T02:58:35-08:00*
G04 #@! TF.ProjectId,Mega,4d656761-2e6b-4696-9361-645f70636258,rev?*
G04 #@! TF.SameCoordinates,Original*
G04 #@! TF.FileFunction,Legend,Top*
G04 #@! TF.FilePolarity,Positive*
%FSLAX46Y46*%
G04 Gerber Fmt 4.6, Leading zero omitted, Abs format (unit mm)*
G04 Created by KiCad (PCBNEW (5.1.2-1)-1) date 2020-02-12 02:58:35*
%MOMM*%
%LPD*%
G04 APERTURE LIST*
%ADD10C,0.150000*%
%ADD11C,0.149860*%
%ADD12C,0.120000*%
%ADD13C,0.254000*%
%ADD14C,0.127000*%
G04 APERTURE END LIST*
D10*
X21009523Y-50452380D02*
X20533333Y-50452380D01*
X20485714Y-50928571D01*
X20533333Y-50880952D01*
X20628571Y-50833333D01*
X20866666Y-50833333D01*
X20961904Y-50880952D01*
X21009523Y-50928571D01*
X21057142Y-51023809D01*
X21057142Y-51261904D01*
X21009523Y-51357142D01*
X20961904Y-51404761D01*
X20866666Y-51452380D01*
X20628571Y-51452380D01*
X20533333Y-51404761D01*
X20485714Y-51357142D01*
X21342857Y-50452380D02*
X21676190Y-51452380D01*
X22009523Y-50452380D01*
X76652380Y-74337619D02*
X76176190Y-74670952D01*
X76652380Y-74909047D02*
X75652380Y-74909047D01*
X75652380Y-74528095D01*
X75700000Y-74432857D01*
X75747619Y-74385238D01*
X75842857Y-74337619D01*
X75985714Y-74337619D01*
X76080952Y-74385238D01*
X76128571Y-74432857D01*
X76176190Y-74528095D01*
X76176190Y-74909047D01*
X76604761Y-73956666D02*
X76652380Y-73813809D01*
X76652380Y-73575714D01*
X76604761Y-73480476D01*
X76557142Y-73432857D01*
X76461904Y-73385238D01*
X76366666Y-73385238D01*
X76271428Y-73432857D01*
X76223809Y-73480476D01*
X76176190Y-73575714D01*
X76128571Y-73766190D01*
X76080952Y-73861428D01*
X76033333Y-73909047D01*
X75938095Y-73956666D01*
X75842857Y-73956666D01*
X75747619Y-73909047D01*
X75700000Y-73861428D01*
X75652380Y-73766190D01*
X75652380Y-73528095D01*
X75700000Y-73385238D01*
X75652380Y-73099523D02*
X75652380Y-72528095D01*
X76652380Y-72813809D02*
X75652380Y-72813809D01*
X74004761Y-75075714D02*
X74052380Y-74932857D01*
X74052380Y-74694761D01*
X74004761Y-74599523D01*
X73957142Y-74551904D01*
X73861904Y-74504285D01*
X73766666Y-74504285D01*
X73671428Y-74551904D01*
X73623809Y-74599523D01*
X73576190Y-74694761D01*
X73528571Y-74885238D01*
X73480952Y-74980476D01*
X73433333Y-75028095D01*
X73338095Y-75075714D01*
X73242857Y-75075714D01*
X73147619Y-75028095D01*
X73100000Y-74980476D01*
X73052380Y-74885238D01*
X73052380Y-74647142D01*
X73100000Y-74504285D01*
X73957142Y-73504285D02*
X74004761Y-73551904D01*
X74052380Y-73694761D01*
X74052380Y-73790000D01*
X74004761Y-73932857D01*
X73909523Y-74028095D01*
X73814285Y-74075714D01*
X73623809Y-74123333D01*
X73480952Y-74123333D01*
X73290476Y-74075714D01*
X73195238Y-74028095D01*
X73100000Y-73932857D01*
X73052380Y-73790000D01*
X73052380Y-73694761D01*
X73100000Y-73551904D01*
X73147619Y-73504285D01*
X74052380Y-73075714D02*
X73052380Y-73075714D01*
X74052380Y-72504285D02*
X73480952Y-72932857D01*
X73052380Y-72504285D02*
X73623809Y-73075714D01*
X71552380Y-75561428D02*
X70552380Y-75561428D01*
X71266666Y-75228095D01*
X70552380Y-74894761D01*
X71552380Y-74894761D01*
X71552380Y-74418571D02*
X70552380Y-74418571D01*
X71504761Y-73990000D02*
X71552380Y-73847142D01*
X71552380Y-73609047D01*
X71504761Y-73513809D01*
X71457142Y-73466190D01*
X71361904Y-73418571D01*
X71266666Y-73418571D01*
X71171428Y-73466190D01*
X71123809Y-73513809D01*
X71076190Y-73609047D01*
X71028571Y-73799523D01*
X70980952Y-73894761D01*
X70933333Y-73942380D01*
X70838095Y-73990000D01*
X70742857Y-73990000D01*
X70647619Y-73942380D01*
X70600000Y-73894761D01*
X70552380Y-73799523D01*
X70552380Y-73561428D01*
X70600000Y-73418571D01*
X70552380Y-72799523D02*
X70552380Y-72609047D01*
X70600000Y-72513809D01*
X70695238Y-72418571D01*
X70885714Y-72370952D01*
X71219047Y-72370952D01*
X71409523Y-72418571D01*
X71504761Y-72513809D01*
X71552380Y-72609047D01*
X71552380Y-72799523D01*
X71504761Y-72894761D01*
X71409523Y-72990000D01*
X71219047Y-73037619D01*
X70885714Y-73037619D01*
X70695238Y-72990000D01*
X70600000Y-72894761D01*
X70552380Y-72799523D01*
X75700000Y-66651904D02*
X75652380Y-66747142D01*
X75652380Y-66890000D01*
X75700000Y-67032857D01*
X75795238Y-67128095D01*
X75890476Y-67175714D01*
X76080952Y-67223333D01*
X76223809Y-67223333D01*
X76414285Y-67175714D01*
X76509523Y-67128095D01*
X76604761Y-67032857D01*
X76652380Y-66890000D01*
X76652380Y-66794761D01*
X76604761Y-66651904D01*
X76557142Y-66604285D01*
X76223809Y-66604285D01*
X76223809Y-66794761D01*
X76652380Y-66175714D02*
X75652380Y-66175714D01*
X76652380Y-65604285D01*
X75652380Y-65604285D01*
X76652380Y-65128095D02*
X75652380Y-65128095D01*
X75652380Y-64890000D01*
X75700000Y-64747142D01*
X75795238Y-64651904D01*
X75890476Y-64604285D01*
X76080952Y-64556666D01*
X76223809Y-64556666D01*
X76414285Y-64604285D01*
X76509523Y-64651904D01*
X76604761Y-64747142D01*
X76652380Y-64890000D01*
X76652380Y-65128095D01*
X74052380Y-67254404D02*
X73052380Y-67254404D01*
X73766666Y-66921071D01*
X73052380Y-66587738D01*
X74052380Y-66587738D01*
X73052380Y-65921071D02*
X73052380Y-65730595D01*
X73100000Y-65635357D01*
X73195238Y-65540119D01*
X73385714Y-65492500D01*
X73719047Y-65492500D01*
X73909523Y-65540119D01*
X74004761Y-65635357D01*
X74052380Y-65730595D01*
X74052380Y-65921071D01*
X74004761Y-66016309D01*
X73909523Y-66111547D01*
X73719047Y-66159166D01*
X73385714Y-66159166D01*
X73195238Y-66111547D01*
X73100000Y-66016309D01*
X73052380Y-65921071D01*
X74004761Y-65111547D02*
X74052380Y-64968690D01*
X74052380Y-64730595D01*
X74004761Y-64635357D01*
X73957142Y-64587738D01*
X73861904Y-64540119D01*
X73766666Y-64540119D01*
X73671428Y-64587738D01*
X73623809Y-64635357D01*
X73576190Y-64730595D01*
X73528571Y-64921071D01*
X73480952Y-65016309D01*
X73433333Y-65063928D01*
X73338095Y-65111547D01*
X73242857Y-65111547D01*
X73147619Y-65063928D01*
X73100000Y-65016309D01*
X73052380Y-64921071D01*
X73052380Y-64682976D01*
X73100000Y-64540119D01*
X74052380Y-64111547D02*
X73052380Y-64111547D01*
D11*
X16775142Y-58644714D02*
X16775142Y-57882714D01*
X17573428Y-58572142D02*
X17537142Y-58608428D01*
X17428285Y-58644714D01*
X17355714Y-58644714D01*
X17246857Y-58608428D01*
X17174285Y-58535857D01*
X17138000Y-58463285D01*
X17101714Y-58318142D01*
X17101714Y-58209285D01*
X17138000Y-58064142D01*
X17174285Y-57991571D01*
X17246857Y-57919000D01*
X17355714Y-57882714D01*
X17428285Y-57882714D01*
X17537142Y-57919000D01*
X17573428Y-57955285D01*
X17863714Y-58608428D02*
X17972571Y-58644714D01*
X18154000Y-58644714D01*
X18226571Y-58608428D01*
X18262857Y-58572142D01*
X18299142Y-58499571D01*
X18299142Y-58427000D01*
X18262857Y-58354428D01*
X18226571Y-58318142D01*
X18154000Y-58281857D01*
X18008857Y-58245571D01*
X17936285Y-58209285D01*
X17900000Y-58173000D01*
X17863714Y-58100428D01*
X17863714Y-58027857D01*
X17900000Y-57955285D01*
X17936285Y-57919000D01*
X18008857Y-57882714D01*
X18190285Y-57882714D01*
X18299142Y-57919000D01*
X18625714Y-58644714D02*
X18625714Y-57882714D01*
X18916000Y-57882714D01*
X18988571Y-57919000D01*
X19024857Y-57955285D01*
X19061142Y-58027857D01*
X19061142Y-58136714D01*
X19024857Y-58209285D01*
X18988571Y-58245571D01*
X18916000Y-58281857D01*
X18625714Y-58281857D01*
D10*
X60820761Y-49599904D02*
X60820761Y-50171333D01*
X60782666Y-50285619D01*
X60706476Y-50361809D01*
X60592190Y-50399904D01*
X60516000Y-50399904D01*
X61582666Y-50399904D02*
X61201714Y-50399904D01*
X61201714Y-49599904D01*
X62306476Y-50323714D02*
X62268380Y-50361809D01*
X62154095Y-50399904D01*
X62077904Y-50399904D01*
X61963619Y-50361809D01*
X61887428Y-50285619D01*
X61849333Y-50209428D01*
X61811238Y-50057047D01*
X61811238Y-49942761D01*
X61849333Y-49790380D01*
X61887428Y-49714190D01*
X61963619Y-49638000D01*
X62077904Y-49599904D01*
X62154095Y-49599904D01*
X62268380Y-49638000D01*
X62306476Y-49676095D01*
X62877904Y-49599904D02*
X62877904Y-50171333D01*
X62839809Y-50285619D01*
X62763619Y-50361809D01*
X62649333Y-50399904D01*
X62573142Y-50399904D01*
X63639809Y-50399904D02*
X63258857Y-50399904D01*
X63258857Y-49599904D01*
X64363619Y-50323714D02*
X64325523Y-50361809D01*
X64211238Y-50399904D01*
X64135047Y-50399904D01*
X64020761Y-50361809D01*
X63944571Y-50285619D01*
X63906476Y-50209428D01*
X63868380Y-50057047D01*
X63868380Y-49942761D01*
X63906476Y-49790380D01*
X63944571Y-49714190D01*
X64020761Y-49638000D01*
X64135047Y-49599904D01*
X64211238Y-49599904D01*
X64325523Y-49638000D01*
X64363619Y-49676095D01*
X64935047Y-49599904D02*
X64935047Y-50171333D01*
X64896952Y-50285619D01*
X64820761Y-50361809D01*
X64706476Y-50399904D01*
X64630285Y-50399904D01*
X65696952Y-50399904D02*
X65316000Y-50399904D01*
X65316000Y-49599904D01*
X66420761Y-50323714D02*
X66382666Y-50361809D01*
X66268380Y-50399904D01*
X66192190Y-50399904D01*
X66077904Y-50361809D01*
X66001714Y-50285619D01*
X65963619Y-50209428D01*
X65925523Y-50057047D01*
X65925523Y-49942761D01*
X65963619Y-49790380D01*
X66001714Y-49714190D01*
X66077904Y-49638000D01*
X66192190Y-49599904D01*
X66268380Y-49599904D01*
X66382666Y-49638000D01*
X66420761Y-49676095D01*
X66992190Y-49599904D02*
X66992190Y-50171333D01*
X66954095Y-50285619D01*
X66877904Y-50361809D01*
X66763619Y-50399904D01*
X66687428Y-50399904D01*
X67754095Y-50399904D02*
X67373142Y-50399904D01*
X67373142Y-49599904D01*
X68477904Y-50323714D02*
X68439809Y-50361809D01*
X68325523Y-50399904D01*
X68249333Y-50399904D01*
X68135047Y-50361809D01*
X68058857Y-50285619D01*
X68020761Y-50209428D01*
X67982666Y-50057047D01*
X67982666Y-49942761D01*
X68020761Y-49790380D01*
X68058857Y-49714190D01*
X68135047Y-49638000D01*
X68249333Y-49599904D01*
X68325523Y-49599904D01*
X68439809Y-49638000D01*
X68477904Y-49676095D01*
X70552380Y-66680476D02*
X70552380Y-67156666D01*
X71028571Y-67204285D01*
X70980952Y-67156666D01*
X70933333Y-67061428D01*
X70933333Y-66823333D01*
X70980952Y-66728095D01*
X71028571Y-66680476D01*
X71123809Y-66632857D01*
X71361904Y-66632857D01*
X71457142Y-66680476D01*
X71504761Y-66728095D01*
X71552380Y-66823333D01*
X71552380Y-67061428D01*
X71504761Y-67156666D01*
X71457142Y-67204285D01*
X70552380Y-66347142D02*
X71552380Y-66013809D01*
X70552380Y-65680476D01*
X35397000Y-73731214D02*
X35397000Y-73368357D01*
X35614714Y-73803785D02*
X34852714Y-73549785D01*
X35614714Y-73295785D01*
X35614714Y-72642642D02*
X35614714Y-73078071D01*
X35614714Y-72860357D02*
X34852714Y-72860357D01*
X34961571Y-72932928D01*
X35034142Y-73005500D01*
X35070428Y-73078071D01*
X37983000Y-73731214D02*
X37983000Y-73368357D01*
X38200714Y-73803785D02*
X37438714Y-73549785D01*
X38200714Y-73295785D01*
X37438714Y-73114357D02*
X37438714Y-72642642D01*
X37729000Y-72896642D01*
X37729000Y-72787785D01*
X37765285Y-72715214D01*
X37801571Y-72678928D01*
X37874142Y-72642642D01*
X38055571Y-72642642D01*
X38128142Y-72678928D01*
X38164428Y-72715214D01*
X38200714Y-72787785D01*
X38200714Y-73005500D01*
X38164428Y-73078071D01*
X38128142Y-73114357D01*
X40569000Y-73731214D02*
X40569000Y-73368357D01*
X40786714Y-73803785D02*
X40024714Y-73549785D01*
X40786714Y-73295785D01*
X40024714Y-72678928D02*
X40024714Y-73041785D01*
X40387571Y-73078071D01*
X40351285Y-73041785D01*
X40315000Y-72969214D01*
X40315000Y-72787785D01*
X40351285Y-72715214D01*
X40387571Y-72678928D01*
X40460142Y-72642642D01*
X40641571Y-72642642D01*
X40714142Y-72678928D01*
X40750428Y-72715214D01*
X40786714Y-72787785D01*
X40786714Y-72969214D01*
X40750428Y-73041785D01*
X40714142Y-73078071D01*
X43155000Y-73731214D02*
X43155000Y-73368357D01*
X43372714Y-73803785D02*
X42610714Y-73549785D01*
X43372714Y-73295785D01*
X42610714Y-73114357D02*
X42610714Y-72606357D01*
X43372714Y-72932928D01*
X45741000Y-73731214D02*
X45741000Y-73368357D01*
X45958714Y-73803785D02*
X45196714Y-73549785D01*
X45958714Y-73295785D01*
X45958714Y-73005500D02*
X45958714Y-72860357D01*
X45922428Y-72787785D01*
X45886142Y-72751500D01*
X45777285Y-72678928D01*
X45632142Y-72642642D01*
X45341857Y-72642642D01*
X45269285Y-72678928D01*
X45233000Y-72715214D01*
X45196714Y-72787785D01*
X45196714Y-72932928D01*
X45233000Y-73005500D01*
X45269285Y-73041785D01*
X45341857Y-73078071D01*
X45523285Y-73078071D01*
X45595857Y-73041785D01*
X45632142Y-73005500D01*
X45668428Y-72932928D01*
X45668428Y-72787785D01*
X45632142Y-72715214D01*
X45595857Y-72678928D01*
X45523285Y-72642642D01*
X48327000Y-74456928D02*
X48327000Y-74094071D01*
X48544714Y-74529500D02*
X47782714Y-74275500D01*
X48544714Y-74021500D01*
X48544714Y-73368357D02*
X48544714Y-73803785D01*
X48544714Y-73586071D02*
X47782714Y-73586071D01*
X47891571Y-73658642D01*
X47964142Y-73731214D01*
X48000428Y-73803785D01*
X48544714Y-72642642D02*
X48544714Y-73078071D01*
X48544714Y-72860357D02*
X47782714Y-72860357D01*
X47891571Y-72932928D01*
X47964142Y-73005500D01*
X48000428Y-73078071D01*
X50913000Y-74456928D02*
X50913000Y-74094071D01*
X51130714Y-74529500D02*
X50368714Y-74275500D01*
X51130714Y-74021500D01*
X51130714Y-73368357D02*
X51130714Y-73803785D01*
X51130714Y-73586071D02*
X50368714Y-73586071D01*
X50477571Y-73658642D01*
X50550142Y-73731214D01*
X50586428Y-73803785D01*
X50368714Y-73114357D02*
X50368714Y-72642642D01*
X50659000Y-72896642D01*
X50659000Y-72787785D01*
X50695285Y-72715214D01*
X50731571Y-72678928D01*
X50804142Y-72642642D01*
X50985571Y-72642642D01*
X51058142Y-72678928D01*
X51094428Y-72715214D01*
X51130714Y-72787785D01*
X51130714Y-73005500D01*
X51094428Y-73078071D01*
X51058142Y-73114357D01*
X53499000Y-74456928D02*
X53499000Y-74094071D01*
X53716714Y-74529500D02*
X52954714Y-74275500D01*
X53716714Y-74021500D01*
X53716714Y-73368357D02*
X53716714Y-73803785D01*
X53716714Y-73586071D02*
X52954714Y-73586071D01*
X53063571Y-73658642D01*
X53136142Y-73731214D01*
X53172428Y-73803785D01*
X52954714Y-72678928D02*
X52954714Y-73041785D01*
X53317571Y-73078071D01*
X53281285Y-73041785D01*
X53245000Y-72969214D01*
X53245000Y-72787785D01*
X53281285Y-72715214D01*
X53317571Y-72678928D01*
X53390142Y-72642642D01*
X53571571Y-72642642D01*
X53644142Y-72678928D01*
X53680428Y-72715214D01*
X53716714Y-72787785D01*
X53716714Y-72969214D01*
X53680428Y-73041785D01*
X53644142Y-73078071D01*
X55540714Y-73332071D02*
X55540714Y-73694928D01*
X55903571Y-73731214D01*
X55867285Y-73694928D01*
X55831000Y-73622357D01*
X55831000Y-73440928D01*
X55867285Y-73368357D01*
X55903571Y-73332071D01*
X55976142Y-73295785D01*
X56157571Y-73295785D01*
X56230142Y-73332071D01*
X56266428Y-73368357D01*
X56302714Y-73440928D01*
X56302714Y-73622357D01*
X56266428Y-73694928D01*
X56230142Y-73731214D01*
X55540714Y-73078071D02*
X56302714Y-72824071D01*
X55540714Y-72570071D01*
X58163000Y-74239214D02*
X58126714Y-74311785D01*
X58126714Y-74420642D01*
X58163000Y-74529500D01*
X58235571Y-74602071D01*
X58308142Y-74638357D01*
X58453285Y-74674642D01*
X58562142Y-74674642D01*
X58707285Y-74638357D01*
X58779857Y-74602071D01*
X58852428Y-74529500D01*
X58888714Y-74420642D01*
X58888714Y-74348071D01*
X58852428Y-74239214D01*
X58816142Y-74202928D01*
X58562142Y-74202928D01*
X58562142Y-74348071D01*
X58888714Y-73876357D02*
X58126714Y-73876357D01*
X58888714Y-73440928D01*
X58126714Y-73440928D01*
X58888714Y-73078071D02*
X58126714Y-73078071D01*
X58126714Y-72896642D01*
X58163000Y-72787785D01*
X58235571Y-72715214D01*
X58308142Y-72678928D01*
X58453285Y-72642642D01*
X58562142Y-72642642D01*
X58707285Y-72678928D01*
X58779857Y-72715214D01*
X58852428Y-72787785D01*
X58888714Y-72896642D01*
X58888714Y-73078071D01*
X60712714Y-74493214D02*
X60712714Y-74021500D01*
X61003000Y-74275500D01*
X61003000Y-74166642D01*
X61039285Y-74094071D01*
X61075571Y-74057785D01*
X61148142Y-74021500D01*
X61329571Y-74021500D01*
X61402142Y-74057785D01*
X61438428Y-74094071D01*
X61474714Y-74166642D01*
X61474714Y-74384357D01*
X61438428Y-74456928D01*
X61402142Y-74493214D01*
X60712714Y-73803785D02*
X61474714Y-73549785D01*
X60712714Y-73295785D01*
X60712714Y-73114357D02*
X60712714Y-72642642D01*
X61003000Y-72896642D01*
X61003000Y-72787785D01*
X61039285Y-72715214D01*
X61075571Y-72678928D01*
X61148142Y-72642642D01*
X61329571Y-72642642D01*
X61402142Y-72678928D01*
X61438428Y-72715214D01*
X61474714Y-72787785D01*
X61474714Y-73005500D01*
X61438428Y-73078071D01*
X61402142Y-73114357D01*
X35397000Y-66957357D02*
X35397000Y-66594500D01*
X35614714Y-67029928D02*
X34852714Y-66775928D01*
X35614714Y-66521928D01*
X34852714Y-66122785D02*
X34852714Y-66050214D01*
X34889000Y-65977642D01*
X34925285Y-65941357D01*
X34997857Y-65905071D01*
X35143000Y-65868785D01*
X35324428Y-65868785D01*
X35469571Y-65905071D01*
X35542142Y-65941357D01*
X35578428Y-65977642D01*
X35614714Y-66050214D01*
X35614714Y-66122785D01*
X35578428Y-66195357D01*
X35542142Y-66231642D01*
X35469571Y-66267928D01*
X35324428Y-66304214D01*
X35143000Y-66304214D01*
X34997857Y-66267928D01*
X34925285Y-66231642D01*
X34889000Y-66195357D01*
X34852714Y-66122785D01*
X37983000Y-66957357D02*
X37983000Y-66594500D01*
X38200714Y-67029928D02*
X37438714Y-66775928D01*
X38200714Y-66521928D01*
X37511285Y-66304214D02*
X37475000Y-66267928D01*
X37438714Y-66195357D01*
X37438714Y-66013928D01*
X37475000Y-65941357D01*
X37511285Y-65905071D01*
X37583857Y-65868785D01*
X37656428Y-65868785D01*
X37765285Y-65905071D01*
X38200714Y-66340500D01*
X38200714Y-65868785D01*
X40569000Y-66957357D02*
X40569000Y-66594500D01*
X40786714Y-67029928D02*
X40024714Y-66775928D01*
X40786714Y-66521928D01*
X40278714Y-65941357D02*
X40786714Y-65941357D01*
X39988428Y-66122785D02*
X40532714Y-66304214D01*
X40532714Y-65832500D01*
X43155000Y-66957357D02*
X43155000Y-66594500D01*
X43372714Y-67029928D02*
X42610714Y-66775928D01*
X43372714Y-66521928D01*
X42610714Y-65941357D02*
X42610714Y-66086500D01*
X42647000Y-66159071D01*
X42683285Y-66195357D01*
X42792142Y-66267928D01*
X42937285Y-66304214D01*
X43227571Y-66304214D01*
X43300142Y-66267928D01*
X43336428Y-66231642D01*
X43372714Y-66159071D01*
X43372714Y-66013928D01*
X43336428Y-65941357D01*
X43300142Y-65905071D01*
X43227571Y-65868785D01*
X43046142Y-65868785D01*
X42973571Y-65905071D01*
X42937285Y-65941357D01*
X42901000Y-66013928D01*
X42901000Y-66159071D01*
X42937285Y-66231642D01*
X42973571Y-66267928D01*
X43046142Y-66304214D01*
X45741000Y-66957357D02*
X45741000Y-66594500D01*
X45958714Y-67029928D02*
X45196714Y-66775928D01*
X45958714Y-66521928D01*
X45523285Y-66159071D02*
X45487000Y-66231642D01*
X45450714Y-66267928D01*
X45378142Y-66304214D01*
X45341857Y-66304214D01*
X45269285Y-66267928D01*
X45233000Y-66231642D01*
X45196714Y-66159071D01*
X45196714Y-66013928D01*
X45233000Y-65941357D01*
X45269285Y-65905071D01*
X45341857Y-65868785D01*
X45378142Y-65868785D01*
X45450714Y-65905071D01*
X45487000Y-65941357D01*
X45523285Y-66013928D01*
X45523285Y-66159071D01*
X45559571Y-66231642D01*
X45595857Y-66267928D01*
X45668428Y-66304214D01*
X45813571Y-66304214D01*
X45886142Y-66267928D01*
X45922428Y-66231642D01*
X45958714Y-66159071D01*
X45958714Y-66013928D01*
X45922428Y-65941357D01*
X45886142Y-65905071D01*
X45813571Y-65868785D01*
X45668428Y-65868785D01*
X45595857Y-65905071D01*
X45559571Y-65941357D01*
X45523285Y-66013928D01*
X48327000Y-66957357D02*
X48327000Y-66594500D01*
X48544714Y-67029928D02*
X47782714Y-66775928D01*
X48544714Y-66521928D01*
X48544714Y-65868785D02*
X48544714Y-66304214D01*
X48544714Y-66086500D02*
X47782714Y-66086500D01*
X47891571Y-66159071D01*
X47964142Y-66231642D01*
X48000428Y-66304214D01*
X47782714Y-65397071D02*
X47782714Y-65324500D01*
X47819000Y-65251928D01*
X47855285Y-65215642D01*
X47927857Y-65179357D01*
X48073000Y-65143071D01*
X48254428Y-65143071D01*
X48399571Y-65179357D01*
X48472142Y-65215642D01*
X48508428Y-65251928D01*
X48544714Y-65324500D01*
X48544714Y-65397071D01*
X48508428Y-65469642D01*
X48472142Y-65505928D01*
X48399571Y-65542214D01*
X48254428Y-65578500D01*
X48073000Y-65578500D01*
X47927857Y-65542214D01*
X47855285Y-65505928D01*
X47819000Y-65469642D01*
X47782714Y-65397071D01*
X50913000Y-66957357D02*
X50913000Y-66594500D01*
X51130714Y-67029928D02*
X50368714Y-66775928D01*
X51130714Y-66521928D01*
X51130714Y-65868785D02*
X51130714Y-66304214D01*
X51130714Y-66086500D02*
X50368714Y-66086500D01*
X50477571Y-66159071D01*
X50550142Y-66231642D01*
X50586428Y-66304214D01*
X50441285Y-65578500D02*
X50405000Y-65542214D01*
X50368714Y-65469642D01*
X50368714Y-65288214D01*
X50405000Y-65215642D01*
X50441285Y-65179357D01*
X50513857Y-65143071D01*
X50586428Y-65143071D01*
X50695285Y-65179357D01*
X51130714Y-65614785D01*
X51130714Y-65143071D01*
X53499000Y-66957357D02*
X53499000Y-66594500D01*
X53716714Y-67029928D02*
X52954714Y-66775928D01*
X53716714Y-66521928D01*
X53716714Y-65868785D02*
X53716714Y-66304214D01*
X53716714Y-66086500D02*
X52954714Y-66086500D01*
X53063571Y-66159071D01*
X53136142Y-66231642D01*
X53172428Y-66304214D01*
X53208714Y-65215642D02*
X53716714Y-65215642D01*
X52918428Y-65397071D02*
X53462714Y-65578500D01*
X53462714Y-65106785D01*
X55540714Y-66558214D02*
X55540714Y-66921071D01*
X55903571Y-66957357D01*
X55867285Y-66921071D01*
X55831000Y-66848500D01*
X55831000Y-66667071D01*
X55867285Y-66594500D01*
X55903571Y-66558214D01*
X55976142Y-66521928D01*
X56157571Y-66521928D01*
X56230142Y-66558214D01*
X56266428Y-66594500D01*
X56302714Y-66667071D01*
X56302714Y-66848500D01*
X56266428Y-66921071D01*
X56230142Y-66957357D01*
X55540714Y-66304214D02*
X56302714Y-66050214D01*
X55540714Y-65796214D01*
X58163000Y-66521928D02*
X58126714Y-66594500D01*
X58126714Y-66703357D01*
X58163000Y-66812214D01*
X58235571Y-66884785D01*
X58308142Y-66921071D01*
X58453285Y-66957357D01*
X58562142Y-66957357D01*
X58707285Y-66921071D01*
X58779857Y-66884785D01*
X58852428Y-66812214D01*
X58888714Y-66703357D01*
X58888714Y-66630785D01*
X58852428Y-66521928D01*
X58816142Y-66485642D01*
X58562142Y-66485642D01*
X58562142Y-66630785D01*
X58888714Y-66159071D02*
X58126714Y-66159071D01*
X58888714Y-65723642D01*
X58126714Y-65723642D01*
X58888714Y-65360785D02*
X58126714Y-65360785D01*
X58126714Y-65179357D01*
X58163000Y-65070500D01*
X58235571Y-64997928D01*
X58308142Y-64961642D01*
X58453285Y-64925357D01*
X58562142Y-64925357D01*
X58707285Y-64961642D01*
X58779857Y-64997928D01*
X58852428Y-65070500D01*
X58888714Y-65179357D01*
X58888714Y-65360785D01*
X60712714Y-66993642D02*
X60712714Y-66521928D01*
X61003000Y-66775928D01*
X61003000Y-66667071D01*
X61039285Y-66594500D01*
X61075571Y-66558214D01*
X61148142Y-66521928D01*
X61329571Y-66521928D01*
X61402142Y-66558214D01*
X61438428Y-66594500D01*
X61474714Y-66667071D01*
X61474714Y-66884785D01*
X61438428Y-66957357D01*
X61402142Y-66993642D01*
X60712714Y-66304214D02*
X61474714Y-66050214D01*
X60712714Y-65796214D01*
X60712714Y-65614785D02*
X60712714Y-65143071D01*
X61003000Y-65397071D01*
X61003000Y-65288214D01*
X61039285Y-65215642D01*
X61075571Y-65179357D01*
X61148142Y-65143071D01*
X61329571Y-65143071D01*
X61402142Y-65179357D01*
X61438428Y-65215642D01*
X61474714Y-65288214D01*
X61474714Y-65505928D01*
X61438428Y-65578500D01*
X61402142Y-65614785D01*
D11*
X69144714Y-70924857D02*
X68382714Y-70924857D01*
X69072142Y-70126571D02*
X69108428Y-70162857D01*
X69144714Y-70271714D01*
X69144714Y-70344285D01*
X69108428Y-70453142D01*
X69035857Y-70525714D01*
X68963285Y-70562000D01*
X68818142Y-70598285D01*
X68709285Y-70598285D01*
X68564142Y-70562000D01*
X68491571Y-70525714D01*
X68419000Y-70453142D01*
X68382714Y-70344285D01*
X68382714Y-70271714D01*
X68419000Y-70162857D01*
X68455285Y-70126571D01*
X69108428Y-69836285D02*
X69144714Y-69727428D01*
X69144714Y-69546000D01*
X69108428Y-69473428D01*
X69072142Y-69437142D01*
X68999571Y-69400857D01*
X68927000Y-69400857D01*
X68854428Y-69437142D01*
X68818142Y-69473428D01*
X68781857Y-69546000D01*
X68745571Y-69691142D01*
X68709285Y-69763714D01*
X68673000Y-69800000D01*
X68600428Y-69836285D01*
X68527857Y-69836285D01*
X68455285Y-69800000D01*
X68419000Y-69763714D01*
X68382714Y-69691142D01*
X68382714Y-69509714D01*
X68419000Y-69400857D01*
X69144714Y-69074285D02*
X68382714Y-69074285D01*
X68382714Y-68784000D01*
X68419000Y-68711428D01*
X68455285Y-68675142D01*
X68527857Y-68638857D01*
X68636714Y-68638857D01*
X68709285Y-68675142D01*
X68745571Y-68711428D01*
X68781857Y-68784000D01*
X68781857Y-69074285D01*
D10*
X90748285Y-22178714D02*
X90385428Y-22178714D01*
X90349142Y-22541571D01*
X90385428Y-22505285D01*
X90458000Y-22469000D01*
X90639428Y-22469000D01*
X90712000Y-22505285D01*
X90748285Y-22541571D01*
X90784571Y-22614142D01*
X90784571Y-22795571D01*
X90748285Y-22868142D01*
X90712000Y-22904428D01*
X90639428Y-22940714D01*
X90458000Y-22940714D01*
X90385428Y-22904428D01*
X90349142Y-22868142D01*
X91002285Y-22178714D02*
X91256285Y-22940714D01*
X91510285Y-22178714D01*
X90385428Y-25526714D02*
X90385428Y-24764714D01*
X90566857Y-24764714D01*
X90675714Y-24801000D01*
X90748285Y-24873571D01*
X90784571Y-24946142D01*
X90820857Y-25091285D01*
X90820857Y-25200142D01*
X90784571Y-25345285D01*
X90748285Y-25417857D01*
X90675714Y-25490428D01*
X90566857Y-25526714D01*
X90385428Y-25526714D01*
X91111142Y-24837285D02*
X91147428Y-24801000D01*
X91220000Y-24764714D01*
X91401428Y-24764714D01*
X91474000Y-24801000D01*
X91510285Y-24837285D01*
X91546571Y-24909857D01*
X91546571Y-24982428D01*
X91510285Y-25091285D01*
X91074857Y-25526714D01*
X91546571Y-25526714D01*
X91800571Y-24764714D02*
X92272285Y-24764714D01*
X92018285Y-25055000D01*
X92127142Y-25055000D01*
X92199714Y-25091285D01*
X92236000Y-25127571D01*
X92272285Y-25200142D01*
X92272285Y-25381571D01*
X92236000Y-25454142D01*
X92199714Y-25490428D01*
X92127142Y-25526714D01*
X91909428Y-25526714D01*
X91836857Y-25490428D01*
X91800571Y-25454142D01*
X90385428Y-28112714D02*
X90385428Y-27350714D01*
X90566857Y-27350714D01*
X90675714Y-27387000D01*
X90748285Y-27459571D01*
X90784571Y-27532142D01*
X90820857Y-27677285D01*
X90820857Y-27786142D01*
X90784571Y-27931285D01*
X90748285Y-28003857D01*
X90675714Y-28076428D01*
X90566857Y-28112714D01*
X90385428Y-28112714D01*
X91111142Y-27423285D02*
X91147428Y-27387000D01*
X91220000Y-27350714D01*
X91401428Y-27350714D01*
X91474000Y-27387000D01*
X91510285Y-27423285D01*
X91546571Y-27495857D01*
X91546571Y-27568428D01*
X91510285Y-27677285D01*
X91074857Y-28112714D01*
X91546571Y-28112714D01*
X92236000Y-27350714D02*
X91873142Y-27350714D01*
X91836857Y-27713571D01*
X91873142Y-27677285D01*
X91945714Y-27641000D01*
X92127142Y-27641000D01*
X92199714Y-27677285D01*
X92236000Y-27713571D01*
X92272285Y-27786142D01*
X92272285Y-27967571D01*
X92236000Y-28040142D01*
X92199714Y-28076428D01*
X92127142Y-28112714D01*
X91945714Y-28112714D01*
X91873142Y-28076428D01*
X91836857Y-28040142D01*
X90385428Y-30698714D02*
X90385428Y-29936714D01*
X90566857Y-29936714D01*
X90675714Y-29973000D01*
X90748285Y-30045571D01*
X90784571Y-30118142D01*
X90820857Y-30263285D01*
X90820857Y-30372142D01*
X90784571Y-30517285D01*
X90748285Y-30589857D01*
X90675714Y-30662428D01*
X90566857Y-30698714D01*
X90385428Y-30698714D01*
X91111142Y-30009285D02*
X91147428Y-29973000D01*
X91220000Y-29936714D01*
X91401428Y-29936714D01*
X91474000Y-29973000D01*
X91510285Y-30009285D01*
X91546571Y-30081857D01*
X91546571Y-30154428D01*
X91510285Y-30263285D01*
X91074857Y-30698714D01*
X91546571Y-30698714D01*
X91800571Y-29936714D02*
X92308571Y-29936714D01*
X91982000Y-30698714D01*
X90385428Y-33284714D02*
X90385428Y-32522714D01*
X90566857Y-32522714D01*
X90675714Y-32559000D01*
X90748285Y-32631571D01*
X90784571Y-32704142D01*
X90820857Y-32849285D01*
X90820857Y-32958142D01*
X90784571Y-33103285D01*
X90748285Y-33175857D01*
X90675714Y-33248428D01*
X90566857Y-33284714D01*
X90385428Y-33284714D01*
X91111142Y-32595285D02*
X91147428Y-32559000D01*
X91220000Y-32522714D01*
X91401428Y-32522714D01*
X91474000Y-32559000D01*
X91510285Y-32595285D01*
X91546571Y-32667857D01*
X91546571Y-32740428D01*
X91510285Y-32849285D01*
X91074857Y-33284714D01*
X91546571Y-33284714D01*
X91909428Y-33284714D02*
X92054571Y-33284714D01*
X92127142Y-33248428D01*
X92163428Y-33212142D01*
X92236000Y-33103285D01*
X92272285Y-32958142D01*
X92272285Y-32667857D01*
X92236000Y-32595285D01*
X92199714Y-32559000D01*
X92127142Y-32522714D01*
X91982000Y-32522714D01*
X91909428Y-32559000D01*
X91873142Y-32595285D01*
X91836857Y-32667857D01*
X91836857Y-32849285D01*
X91873142Y-32921857D01*
X91909428Y-32958142D01*
X91982000Y-32994428D01*
X92127142Y-32994428D01*
X92199714Y-32958142D01*
X92236000Y-32921857D01*
X92272285Y-32849285D01*
X90385428Y-35870714D02*
X90385428Y-35108714D01*
X90566857Y-35108714D01*
X90675714Y-35145000D01*
X90748285Y-35217571D01*
X90784571Y-35290142D01*
X90820857Y-35435285D01*
X90820857Y-35544142D01*
X90784571Y-35689285D01*
X90748285Y-35761857D01*
X90675714Y-35834428D01*
X90566857Y-35870714D01*
X90385428Y-35870714D01*
X91074857Y-35108714D02*
X91546571Y-35108714D01*
X91292571Y-35399000D01*
X91401428Y-35399000D01*
X91474000Y-35435285D01*
X91510285Y-35471571D01*
X91546571Y-35544142D01*
X91546571Y-35725571D01*
X91510285Y-35798142D01*
X91474000Y-35834428D01*
X91401428Y-35870714D01*
X91183714Y-35870714D01*
X91111142Y-35834428D01*
X91074857Y-35798142D01*
X92272285Y-35870714D02*
X91836857Y-35870714D01*
X92054571Y-35870714D02*
X92054571Y-35108714D01*
X91982000Y-35217571D01*
X91909428Y-35290142D01*
X91836857Y-35326428D01*
X90385428Y-38456714D02*
X90385428Y-37694714D01*
X90566857Y-37694714D01*
X90675714Y-37731000D01*
X90748285Y-37803571D01*
X90784571Y-37876142D01*
X90820857Y-38021285D01*
X90820857Y-38130142D01*
X90784571Y-38275285D01*
X90748285Y-38347857D01*
X90675714Y-38420428D01*
X90566857Y-38456714D01*
X90385428Y-38456714D01*
X91074857Y-37694714D02*
X91546571Y-37694714D01*
X91292571Y-37985000D01*
X91401428Y-37985000D01*
X91474000Y-38021285D01*
X91510285Y-38057571D01*
X91546571Y-38130142D01*
X91546571Y-38311571D01*
X91510285Y-38384142D01*
X91474000Y-38420428D01*
X91401428Y-38456714D01*
X91183714Y-38456714D01*
X91111142Y-38420428D01*
X91074857Y-38384142D01*
X91800571Y-37694714D02*
X92272285Y-37694714D01*
X92018285Y-37985000D01*
X92127142Y-37985000D01*
X92199714Y-38021285D01*
X92236000Y-38057571D01*
X92272285Y-38130142D01*
X92272285Y-38311571D01*
X92236000Y-38384142D01*
X92199714Y-38420428D01*
X92127142Y-38456714D01*
X91909428Y-38456714D01*
X91836857Y-38420428D01*
X91800571Y-38384142D01*
X90385428Y-41042714D02*
X90385428Y-40280714D01*
X90566857Y-40280714D01*
X90675714Y-40317000D01*
X90748285Y-40389571D01*
X90784571Y-40462142D01*
X90820857Y-40607285D01*
X90820857Y-40716142D01*
X90784571Y-40861285D01*
X90748285Y-40933857D01*
X90675714Y-41006428D01*
X90566857Y-41042714D01*
X90385428Y-41042714D01*
X91074857Y-40280714D02*
X91546571Y-40280714D01*
X91292571Y-40571000D01*
X91401428Y-40571000D01*
X91474000Y-40607285D01*
X91510285Y-40643571D01*
X91546571Y-40716142D01*
X91546571Y-40897571D01*
X91510285Y-40970142D01*
X91474000Y-41006428D01*
X91401428Y-41042714D01*
X91183714Y-41042714D01*
X91111142Y-41006428D01*
X91074857Y-40970142D01*
X92236000Y-40280714D02*
X91873142Y-40280714D01*
X91836857Y-40643571D01*
X91873142Y-40607285D01*
X91945714Y-40571000D01*
X92127142Y-40571000D01*
X92199714Y-40607285D01*
X92236000Y-40643571D01*
X92272285Y-40716142D01*
X92272285Y-40897571D01*
X92236000Y-40970142D01*
X92199714Y-41006428D01*
X92127142Y-41042714D01*
X91945714Y-41042714D01*
X91873142Y-41006428D01*
X91836857Y-40970142D01*
X90385428Y-43628714D02*
X90385428Y-42866714D01*
X90566857Y-42866714D01*
X90675714Y-42903000D01*
X90748285Y-42975571D01*
X90784571Y-43048142D01*
X90820857Y-43193285D01*
X90820857Y-43302142D01*
X90784571Y-43447285D01*
X90748285Y-43519857D01*
X90675714Y-43592428D01*
X90566857Y-43628714D01*
X90385428Y-43628714D01*
X91074857Y-42866714D02*
X91546571Y-42866714D01*
X91292571Y-43157000D01*
X91401428Y-43157000D01*
X91474000Y-43193285D01*
X91510285Y-43229571D01*
X91546571Y-43302142D01*
X91546571Y-43483571D01*
X91510285Y-43556142D01*
X91474000Y-43592428D01*
X91401428Y-43628714D01*
X91183714Y-43628714D01*
X91111142Y-43592428D01*
X91074857Y-43556142D01*
X91800571Y-42866714D02*
X92308571Y-42866714D01*
X91982000Y-43628714D01*
X90385428Y-46214714D02*
X90385428Y-45452714D01*
X90566857Y-45452714D01*
X90675714Y-45489000D01*
X90748285Y-45561571D01*
X90784571Y-45634142D01*
X90820857Y-45779285D01*
X90820857Y-45888142D01*
X90784571Y-46033285D01*
X90748285Y-46105857D01*
X90675714Y-46178428D01*
X90566857Y-46214714D01*
X90385428Y-46214714D01*
X91074857Y-45452714D02*
X91546571Y-45452714D01*
X91292571Y-45743000D01*
X91401428Y-45743000D01*
X91474000Y-45779285D01*
X91510285Y-45815571D01*
X91546571Y-45888142D01*
X91546571Y-46069571D01*
X91510285Y-46142142D01*
X91474000Y-46178428D01*
X91401428Y-46214714D01*
X91183714Y-46214714D01*
X91111142Y-46178428D01*
X91074857Y-46142142D01*
X91909428Y-46214714D02*
X92054571Y-46214714D01*
X92127142Y-46178428D01*
X92163428Y-46142142D01*
X92236000Y-46033285D01*
X92272285Y-45888142D01*
X92272285Y-45597857D01*
X92236000Y-45525285D01*
X92199714Y-45489000D01*
X92127142Y-45452714D01*
X91982000Y-45452714D01*
X91909428Y-45489000D01*
X91873142Y-45525285D01*
X91836857Y-45597857D01*
X91836857Y-45779285D01*
X91873142Y-45851857D01*
X91909428Y-45888142D01*
X91982000Y-45924428D01*
X92127142Y-45924428D01*
X92199714Y-45888142D01*
X92236000Y-45851857D01*
X92272285Y-45779285D01*
X90385428Y-48800714D02*
X90385428Y-48038714D01*
X90566857Y-48038714D01*
X90675714Y-48075000D01*
X90748285Y-48147571D01*
X90784571Y-48220142D01*
X90820857Y-48365285D01*
X90820857Y-48474142D01*
X90784571Y-48619285D01*
X90748285Y-48691857D01*
X90675714Y-48764428D01*
X90566857Y-48800714D01*
X90385428Y-48800714D01*
X91474000Y-48292714D02*
X91474000Y-48800714D01*
X91292571Y-48002428D02*
X91111142Y-48546714D01*
X91582857Y-48546714D01*
X92272285Y-48800714D02*
X91836857Y-48800714D01*
X92054571Y-48800714D02*
X92054571Y-48038714D01*
X91982000Y-48147571D01*
X91909428Y-48220142D01*
X91836857Y-48256428D01*
X90385428Y-51386714D02*
X90385428Y-50624714D01*
X90566857Y-50624714D01*
X90675714Y-50661000D01*
X90748285Y-50733571D01*
X90784571Y-50806142D01*
X90820857Y-50951285D01*
X90820857Y-51060142D01*
X90784571Y-51205285D01*
X90748285Y-51277857D01*
X90675714Y-51350428D01*
X90566857Y-51386714D01*
X90385428Y-51386714D01*
X91474000Y-50878714D02*
X91474000Y-51386714D01*
X91292571Y-50588428D02*
X91111142Y-51132714D01*
X91582857Y-51132714D01*
X91800571Y-50624714D02*
X92272285Y-50624714D01*
X92018285Y-50915000D01*
X92127142Y-50915000D01*
X92199714Y-50951285D01*
X92236000Y-50987571D01*
X92272285Y-51060142D01*
X92272285Y-51241571D01*
X92236000Y-51314142D01*
X92199714Y-51350428D01*
X92127142Y-51386714D01*
X91909428Y-51386714D01*
X91836857Y-51350428D01*
X91800571Y-51314142D01*
X90385428Y-53972714D02*
X90385428Y-53210714D01*
X90566857Y-53210714D01*
X90675714Y-53247000D01*
X90748285Y-53319571D01*
X90784571Y-53392142D01*
X90820857Y-53537285D01*
X90820857Y-53646142D01*
X90784571Y-53791285D01*
X90748285Y-53863857D01*
X90675714Y-53936428D01*
X90566857Y-53972714D01*
X90385428Y-53972714D01*
X91474000Y-53464714D02*
X91474000Y-53972714D01*
X91292571Y-53174428D02*
X91111142Y-53718714D01*
X91582857Y-53718714D01*
X92236000Y-53210714D02*
X91873142Y-53210714D01*
X91836857Y-53573571D01*
X91873142Y-53537285D01*
X91945714Y-53501000D01*
X92127142Y-53501000D01*
X92199714Y-53537285D01*
X92236000Y-53573571D01*
X92272285Y-53646142D01*
X92272285Y-53827571D01*
X92236000Y-53900142D01*
X92199714Y-53936428D01*
X92127142Y-53972714D01*
X91945714Y-53972714D01*
X91873142Y-53936428D01*
X91836857Y-53900142D01*
X90385428Y-56558714D02*
X90385428Y-55796714D01*
X90566857Y-55796714D01*
X90675714Y-55833000D01*
X90748285Y-55905571D01*
X90784571Y-55978142D01*
X90820857Y-56123285D01*
X90820857Y-56232142D01*
X90784571Y-56377285D01*
X90748285Y-56449857D01*
X90675714Y-56522428D01*
X90566857Y-56558714D01*
X90385428Y-56558714D01*
X91474000Y-56050714D02*
X91474000Y-56558714D01*
X91292571Y-55760428D02*
X91111142Y-56304714D01*
X91582857Y-56304714D01*
X91800571Y-55796714D02*
X92308571Y-55796714D01*
X91982000Y-56558714D01*
X90385428Y-59144714D02*
X90385428Y-58382714D01*
X90566857Y-58382714D01*
X90675714Y-58419000D01*
X90748285Y-58491571D01*
X90784571Y-58564142D01*
X90820857Y-58709285D01*
X90820857Y-58818142D01*
X90784571Y-58963285D01*
X90748285Y-59035857D01*
X90675714Y-59108428D01*
X90566857Y-59144714D01*
X90385428Y-59144714D01*
X91474000Y-58636714D02*
X91474000Y-59144714D01*
X91292571Y-58346428D02*
X91111142Y-58890714D01*
X91582857Y-58890714D01*
X91909428Y-59144714D02*
X92054571Y-59144714D01*
X92127142Y-59108428D01*
X92163428Y-59072142D01*
X92236000Y-58963285D01*
X92272285Y-58818142D01*
X92272285Y-58527857D01*
X92236000Y-58455285D01*
X92199714Y-58419000D01*
X92127142Y-58382714D01*
X91982000Y-58382714D01*
X91909428Y-58419000D01*
X91873142Y-58455285D01*
X91836857Y-58527857D01*
X91836857Y-58709285D01*
X91873142Y-58781857D01*
X91909428Y-58818142D01*
X91982000Y-58854428D01*
X92127142Y-58854428D01*
X92199714Y-58818142D01*
X92236000Y-58781857D01*
X92272285Y-58709285D01*
X90385428Y-61730714D02*
X90385428Y-60968714D01*
X90566857Y-60968714D01*
X90675714Y-61005000D01*
X90748285Y-61077571D01*
X90784571Y-61150142D01*
X90820857Y-61295285D01*
X90820857Y-61404142D01*
X90784571Y-61549285D01*
X90748285Y-61621857D01*
X90675714Y-61694428D01*
X90566857Y-61730714D01*
X90385428Y-61730714D01*
X91510285Y-60968714D02*
X91147428Y-60968714D01*
X91111142Y-61331571D01*
X91147428Y-61295285D01*
X91220000Y-61259000D01*
X91401428Y-61259000D01*
X91474000Y-61295285D01*
X91510285Y-61331571D01*
X91546571Y-61404142D01*
X91546571Y-61585571D01*
X91510285Y-61658142D01*
X91474000Y-61694428D01*
X91401428Y-61730714D01*
X91220000Y-61730714D01*
X91147428Y-61694428D01*
X91111142Y-61658142D01*
X92272285Y-61730714D02*
X91836857Y-61730714D01*
X92054571Y-61730714D02*
X92054571Y-60968714D01*
X91982000Y-61077571D01*
X91909428Y-61150142D01*
X91836857Y-61186428D01*
X90385428Y-64316714D02*
X90385428Y-63554714D01*
X90566857Y-63554714D01*
X90675714Y-63591000D01*
X90748285Y-63663571D01*
X90784571Y-63736142D01*
X90820857Y-63881285D01*
X90820857Y-63990142D01*
X90784571Y-64135285D01*
X90748285Y-64207857D01*
X90675714Y-64280428D01*
X90566857Y-64316714D01*
X90385428Y-64316714D01*
X91510285Y-63554714D02*
X91147428Y-63554714D01*
X91111142Y-63917571D01*
X91147428Y-63881285D01*
X91220000Y-63845000D01*
X91401428Y-63845000D01*
X91474000Y-63881285D01*
X91510285Y-63917571D01*
X91546571Y-63990142D01*
X91546571Y-64171571D01*
X91510285Y-64244142D01*
X91474000Y-64280428D01*
X91401428Y-64316714D01*
X91220000Y-64316714D01*
X91147428Y-64280428D01*
X91111142Y-64244142D01*
X91800571Y-63554714D02*
X92272285Y-63554714D01*
X92018285Y-63845000D01*
X92127142Y-63845000D01*
X92199714Y-63881285D01*
X92236000Y-63917571D01*
X92272285Y-63990142D01*
X92272285Y-64171571D01*
X92236000Y-64244142D01*
X92199714Y-64280428D01*
X92127142Y-64316714D01*
X91909428Y-64316714D01*
X91836857Y-64280428D01*
X91800571Y-64244142D01*
X90784571Y-66177000D02*
X90712000Y-66140714D01*
X90603142Y-66140714D01*
X90494285Y-66177000D01*
X90421714Y-66249571D01*
X90385428Y-66322142D01*
X90349142Y-66467285D01*
X90349142Y-66576142D01*
X90385428Y-66721285D01*
X90421714Y-66793857D01*
X90494285Y-66866428D01*
X90603142Y-66902714D01*
X90675714Y-66902714D01*
X90784571Y-66866428D01*
X90820857Y-66830142D01*
X90820857Y-66576142D01*
X90675714Y-66576142D01*
X91147428Y-66902714D02*
X91147428Y-66140714D01*
X91582857Y-66902714D01*
X91582857Y-66140714D01*
X91945714Y-66902714D02*
X91945714Y-66140714D01*
X92127142Y-66140714D01*
X92236000Y-66177000D01*
X92308571Y-66249571D01*
X92344857Y-66322142D01*
X92381142Y-66467285D01*
X92381142Y-66576142D01*
X92344857Y-66721285D01*
X92308571Y-66793857D01*
X92236000Y-66866428D01*
X92127142Y-66902714D01*
X91945714Y-66902714D01*
X84221428Y-22178714D02*
X83858571Y-22178714D01*
X83822285Y-22541571D01*
X83858571Y-22505285D01*
X83931142Y-22469000D01*
X84112571Y-22469000D01*
X84185142Y-22505285D01*
X84221428Y-22541571D01*
X84257714Y-22614142D01*
X84257714Y-22795571D01*
X84221428Y-22868142D01*
X84185142Y-22904428D01*
X84112571Y-22940714D01*
X83931142Y-22940714D01*
X83858571Y-22904428D01*
X83822285Y-22868142D01*
X84475428Y-22178714D02*
X84729428Y-22940714D01*
X84983428Y-22178714D01*
X83024000Y-25526714D02*
X83024000Y-24764714D01*
X83205428Y-24764714D01*
X83314285Y-24801000D01*
X83386857Y-24873571D01*
X83423142Y-24946142D01*
X83459428Y-25091285D01*
X83459428Y-25200142D01*
X83423142Y-25345285D01*
X83386857Y-25417857D01*
X83314285Y-25490428D01*
X83205428Y-25526714D01*
X83024000Y-25526714D01*
X83749714Y-24837285D02*
X83786000Y-24801000D01*
X83858571Y-24764714D01*
X84040000Y-24764714D01*
X84112571Y-24801000D01*
X84148857Y-24837285D01*
X84185142Y-24909857D01*
X84185142Y-24982428D01*
X84148857Y-25091285D01*
X83713428Y-25526714D01*
X84185142Y-25526714D01*
X84475428Y-24837285D02*
X84511714Y-24801000D01*
X84584285Y-24764714D01*
X84765714Y-24764714D01*
X84838285Y-24801000D01*
X84874571Y-24837285D01*
X84910857Y-24909857D01*
X84910857Y-24982428D01*
X84874571Y-25091285D01*
X84439142Y-25526714D01*
X84910857Y-25526714D01*
X83024000Y-28112714D02*
X83024000Y-27350714D01*
X83205428Y-27350714D01*
X83314285Y-27387000D01*
X83386857Y-27459571D01*
X83423142Y-27532142D01*
X83459428Y-27677285D01*
X83459428Y-27786142D01*
X83423142Y-27931285D01*
X83386857Y-28003857D01*
X83314285Y-28076428D01*
X83205428Y-28112714D01*
X83024000Y-28112714D01*
X83749714Y-27423285D02*
X83786000Y-27387000D01*
X83858571Y-27350714D01*
X84040000Y-27350714D01*
X84112571Y-27387000D01*
X84148857Y-27423285D01*
X84185142Y-27495857D01*
X84185142Y-27568428D01*
X84148857Y-27677285D01*
X83713428Y-28112714D01*
X84185142Y-28112714D01*
X84838285Y-27604714D02*
X84838285Y-28112714D01*
X84656857Y-27314428D02*
X84475428Y-27858714D01*
X84947142Y-27858714D01*
X83024000Y-30698714D02*
X83024000Y-29936714D01*
X83205428Y-29936714D01*
X83314285Y-29973000D01*
X83386857Y-30045571D01*
X83423142Y-30118142D01*
X83459428Y-30263285D01*
X83459428Y-30372142D01*
X83423142Y-30517285D01*
X83386857Y-30589857D01*
X83314285Y-30662428D01*
X83205428Y-30698714D01*
X83024000Y-30698714D01*
X83749714Y-30009285D02*
X83786000Y-29973000D01*
X83858571Y-29936714D01*
X84040000Y-29936714D01*
X84112571Y-29973000D01*
X84148857Y-30009285D01*
X84185142Y-30081857D01*
X84185142Y-30154428D01*
X84148857Y-30263285D01*
X83713428Y-30698714D01*
X84185142Y-30698714D01*
X84838285Y-29936714D02*
X84693142Y-29936714D01*
X84620571Y-29973000D01*
X84584285Y-30009285D01*
X84511714Y-30118142D01*
X84475428Y-30263285D01*
X84475428Y-30553571D01*
X84511714Y-30626142D01*
X84548000Y-30662428D01*
X84620571Y-30698714D01*
X84765714Y-30698714D01*
X84838285Y-30662428D01*
X84874571Y-30626142D01*
X84910857Y-30553571D01*
X84910857Y-30372142D01*
X84874571Y-30299571D01*
X84838285Y-30263285D01*
X84765714Y-30227000D01*
X84620571Y-30227000D01*
X84548000Y-30263285D01*
X84511714Y-30299571D01*
X84475428Y-30372142D01*
X83024000Y-33284714D02*
X83024000Y-32522714D01*
X83205428Y-32522714D01*
X83314285Y-32559000D01*
X83386857Y-32631571D01*
X83423142Y-32704142D01*
X83459428Y-32849285D01*
X83459428Y-32958142D01*
X83423142Y-33103285D01*
X83386857Y-33175857D01*
X83314285Y-33248428D01*
X83205428Y-33284714D01*
X83024000Y-33284714D01*
X83749714Y-32595285D02*
X83786000Y-32559000D01*
X83858571Y-32522714D01*
X84040000Y-32522714D01*
X84112571Y-32559000D01*
X84148857Y-32595285D01*
X84185142Y-32667857D01*
X84185142Y-32740428D01*
X84148857Y-32849285D01*
X83713428Y-33284714D01*
X84185142Y-33284714D01*
X84620571Y-32849285D02*
X84548000Y-32813000D01*
X84511714Y-32776714D01*
X84475428Y-32704142D01*
X84475428Y-32667857D01*
X84511714Y-32595285D01*
X84548000Y-32559000D01*
X84620571Y-32522714D01*
X84765714Y-32522714D01*
X84838285Y-32559000D01*
X84874571Y-32595285D01*
X84910857Y-32667857D01*
X84910857Y-32704142D01*
X84874571Y-32776714D01*
X84838285Y-32813000D01*
X84765714Y-32849285D01*
X84620571Y-32849285D01*
X84548000Y-32885571D01*
X84511714Y-32921857D01*
X84475428Y-32994428D01*
X84475428Y-33139571D01*
X84511714Y-33212142D01*
X84548000Y-33248428D01*
X84620571Y-33284714D01*
X84765714Y-33284714D01*
X84838285Y-33248428D01*
X84874571Y-33212142D01*
X84910857Y-33139571D01*
X84910857Y-32994428D01*
X84874571Y-32921857D01*
X84838285Y-32885571D01*
X84765714Y-32849285D01*
X83024000Y-35870714D02*
X83024000Y-35108714D01*
X83205428Y-35108714D01*
X83314285Y-35145000D01*
X83386857Y-35217571D01*
X83423142Y-35290142D01*
X83459428Y-35435285D01*
X83459428Y-35544142D01*
X83423142Y-35689285D01*
X83386857Y-35761857D01*
X83314285Y-35834428D01*
X83205428Y-35870714D01*
X83024000Y-35870714D01*
X83713428Y-35108714D02*
X84185142Y-35108714D01*
X83931142Y-35399000D01*
X84040000Y-35399000D01*
X84112571Y-35435285D01*
X84148857Y-35471571D01*
X84185142Y-35544142D01*
X84185142Y-35725571D01*
X84148857Y-35798142D01*
X84112571Y-35834428D01*
X84040000Y-35870714D01*
X83822285Y-35870714D01*
X83749714Y-35834428D01*
X83713428Y-35798142D01*
X84656857Y-35108714D02*
X84729428Y-35108714D01*
X84802000Y-35145000D01*
X84838285Y-35181285D01*
X84874571Y-35253857D01*
X84910857Y-35399000D01*
X84910857Y-35580428D01*
X84874571Y-35725571D01*
X84838285Y-35798142D01*
X84802000Y-35834428D01*
X84729428Y-35870714D01*
X84656857Y-35870714D01*
X84584285Y-35834428D01*
X84548000Y-35798142D01*
X84511714Y-35725571D01*
X84475428Y-35580428D01*
X84475428Y-35399000D01*
X84511714Y-35253857D01*
X84548000Y-35181285D01*
X84584285Y-35145000D01*
X84656857Y-35108714D01*
X83024000Y-38456714D02*
X83024000Y-37694714D01*
X83205428Y-37694714D01*
X83314285Y-37731000D01*
X83386857Y-37803571D01*
X83423142Y-37876142D01*
X83459428Y-38021285D01*
X83459428Y-38130142D01*
X83423142Y-38275285D01*
X83386857Y-38347857D01*
X83314285Y-38420428D01*
X83205428Y-38456714D01*
X83024000Y-38456714D01*
X83713428Y-37694714D02*
X84185142Y-37694714D01*
X83931142Y-37985000D01*
X84040000Y-37985000D01*
X84112571Y-38021285D01*
X84148857Y-38057571D01*
X84185142Y-38130142D01*
X84185142Y-38311571D01*
X84148857Y-38384142D01*
X84112571Y-38420428D01*
X84040000Y-38456714D01*
X83822285Y-38456714D01*
X83749714Y-38420428D01*
X83713428Y-38384142D01*
X84475428Y-37767285D02*
X84511714Y-37731000D01*
X84584285Y-37694714D01*
X84765714Y-37694714D01*
X84838285Y-37731000D01*
X84874571Y-37767285D01*
X84910857Y-37839857D01*
X84910857Y-37912428D01*
X84874571Y-38021285D01*
X84439142Y-38456714D01*
X84910857Y-38456714D01*
X83024000Y-41042714D02*
X83024000Y-40280714D01*
X83205428Y-40280714D01*
X83314285Y-40317000D01*
X83386857Y-40389571D01*
X83423142Y-40462142D01*
X83459428Y-40607285D01*
X83459428Y-40716142D01*
X83423142Y-40861285D01*
X83386857Y-40933857D01*
X83314285Y-41006428D01*
X83205428Y-41042714D01*
X83024000Y-41042714D01*
X83713428Y-40280714D02*
X84185142Y-40280714D01*
X83931142Y-40571000D01*
X84040000Y-40571000D01*
X84112571Y-40607285D01*
X84148857Y-40643571D01*
X84185142Y-40716142D01*
X84185142Y-40897571D01*
X84148857Y-40970142D01*
X84112571Y-41006428D01*
X84040000Y-41042714D01*
X83822285Y-41042714D01*
X83749714Y-41006428D01*
X83713428Y-40970142D01*
X84838285Y-40534714D02*
X84838285Y-41042714D01*
X84656857Y-40244428D02*
X84475428Y-40788714D01*
X84947142Y-40788714D01*
X83024000Y-43628714D02*
X83024000Y-42866714D01*
X83205428Y-42866714D01*
X83314285Y-42903000D01*
X83386857Y-42975571D01*
X83423142Y-43048142D01*
X83459428Y-43193285D01*
X83459428Y-43302142D01*
X83423142Y-43447285D01*
X83386857Y-43519857D01*
X83314285Y-43592428D01*
X83205428Y-43628714D01*
X83024000Y-43628714D01*
X83713428Y-42866714D02*
X84185142Y-42866714D01*
X83931142Y-43157000D01*
X84040000Y-43157000D01*
X84112571Y-43193285D01*
X84148857Y-43229571D01*
X84185142Y-43302142D01*
X84185142Y-43483571D01*
X84148857Y-43556142D01*
X84112571Y-43592428D01*
X84040000Y-43628714D01*
X83822285Y-43628714D01*
X83749714Y-43592428D01*
X83713428Y-43556142D01*
X84838285Y-42866714D02*
X84693142Y-42866714D01*
X84620571Y-42903000D01*
X84584285Y-42939285D01*
X84511714Y-43048142D01*
X84475428Y-43193285D01*
X84475428Y-43483571D01*
X84511714Y-43556142D01*
X84548000Y-43592428D01*
X84620571Y-43628714D01*
X84765714Y-43628714D01*
X84838285Y-43592428D01*
X84874571Y-43556142D01*
X84910857Y-43483571D01*
X84910857Y-43302142D01*
X84874571Y-43229571D01*
X84838285Y-43193285D01*
X84765714Y-43157000D01*
X84620571Y-43157000D01*
X84548000Y-43193285D01*
X84511714Y-43229571D01*
X84475428Y-43302142D01*
X83024000Y-46214714D02*
X83024000Y-45452714D01*
X83205428Y-45452714D01*
X83314285Y-45489000D01*
X83386857Y-45561571D01*
X83423142Y-45634142D01*
X83459428Y-45779285D01*
X83459428Y-45888142D01*
X83423142Y-46033285D01*
X83386857Y-46105857D01*
X83314285Y-46178428D01*
X83205428Y-46214714D01*
X83024000Y-46214714D01*
X83713428Y-45452714D02*
X84185142Y-45452714D01*
X83931142Y-45743000D01*
X84040000Y-45743000D01*
X84112571Y-45779285D01*
X84148857Y-45815571D01*
X84185142Y-45888142D01*
X84185142Y-46069571D01*
X84148857Y-46142142D01*
X84112571Y-46178428D01*
X84040000Y-46214714D01*
X83822285Y-46214714D01*
X83749714Y-46178428D01*
X83713428Y-46142142D01*
X84620571Y-45779285D02*
X84548000Y-45743000D01*
X84511714Y-45706714D01*
X84475428Y-45634142D01*
X84475428Y-45597857D01*
X84511714Y-45525285D01*
X84548000Y-45489000D01*
X84620571Y-45452714D01*
X84765714Y-45452714D01*
X84838285Y-45489000D01*
X84874571Y-45525285D01*
X84910857Y-45597857D01*
X84910857Y-45634142D01*
X84874571Y-45706714D01*
X84838285Y-45743000D01*
X84765714Y-45779285D01*
X84620571Y-45779285D01*
X84548000Y-45815571D01*
X84511714Y-45851857D01*
X84475428Y-45924428D01*
X84475428Y-46069571D01*
X84511714Y-46142142D01*
X84548000Y-46178428D01*
X84620571Y-46214714D01*
X84765714Y-46214714D01*
X84838285Y-46178428D01*
X84874571Y-46142142D01*
X84910857Y-46069571D01*
X84910857Y-45924428D01*
X84874571Y-45851857D01*
X84838285Y-45815571D01*
X84765714Y-45779285D01*
X83024000Y-48800714D02*
X83024000Y-48038714D01*
X83205428Y-48038714D01*
X83314285Y-48075000D01*
X83386857Y-48147571D01*
X83423142Y-48220142D01*
X83459428Y-48365285D01*
X83459428Y-48474142D01*
X83423142Y-48619285D01*
X83386857Y-48691857D01*
X83314285Y-48764428D01*
X83205428Y-48800714D01*
X83024000Y-48800714D01*
X84112571Y-48292714D02*
X84112571Y-48800714D01*
X83931142Y-48002428D02*
X83749714Y-48546714D01*
X84221428Y-48546714D01*
X84656857Y-48038714D02*
X84729428Y-48038714D01*
X84802000Y-48075000D01*
X84838285Y-48111285D01*
X84874571Y-48183857D01*
X84910857Y-48329000D01*
X84910857Y-48510428D01*
X84874571Y-48655571D01*
X84838285Y-48728142D01*
X84802000Y-48764428D01*
X84729428Y-48800714D01*
X84656857Y-48800714D01*
X84584285Y-48764428D01*
X84548000Y-48728142D01*
X84511714Y-48655571D01*
X84475428Y-48510428D01*
X84475428Y-48329000D01*
X84511714Y-48183857D01*
X84548000Y-48111285D01*
X84584285Y-48075000D01*
X84656857Y-48038714D01*
X83024000Y-51386714D02*
X83024000Y-50624714D01*
X83205428Y-50624714D01*
X83314285Y-50661000D01*
X83386857Y-50733571D01*
X83423142Y-50806142D01*
X83459428Y-50951285D01*
X83459428Y-51060142D01*
X83423142Y-51205285D01*
X83386857Y-51277857D01*
X83314285Y-51350428D01*
X83205428Y-51386714D01*
X83024000Y-51386714D01*
X84112571Y-50878714D02*
X84112571Y-51386714D01*
X83931142Y-50588428D02*
X83749714Y-51132714D01*
X84221428Y-51132714D01*
X84475428Y-50697285D02*
X84511714Y-50661000D01*
X84584285Y-50624714D01*
X84765714Y-50624714D01*
X84838285Y-50661000D01*
X84874571Y-50697285D01*
X84910857Y-50769857D01*
X84910857Y-50842428D01*
X84874571Y-50951285D01*
X84439142Y-51386714D01*
X84910857Y-51386714D01*
X83024000Y-53972714D02*
X83024000Y-53210714D01*
X83205428Y-53210714D01*
X83314285Y-53247000D01*
X83386857Y-53319571D01*
X83423142Y-53392142D01*
X83459428Y-53537285D01*
X83459428Y-53646142D01*
X83423142Y-53791285D01*
X83386857Y-53863857D01*
X83314285Y-53936428D01*
X83205428Y-53972714D01*
X83024000Y-53972714D01*
X84112571Y-53464714D02*
X84112571Y-53972714D01*
X83931142Y-53174428D02*
X83749714Y-53718714D01*
X84221428Y-53718714D01*
X84838285Y-53464714D02*
X84838285Y-53972714D01*
X84656857Y-53174428D02*
X84475428Y-53718714D01*
X84947142Y-53718714D01*
X83024000Y-56558714D02*
X83024000Y-55796714D01*
X83205428Y-55796714D01*
X83314285Y-55833000D01*
X83386857Y-55905571D01*
X83423142Y-55978142D01*
X83459428Y-56123285D01*
X83459428Y-56232142D01*
X83423142Y-56377285D01*
X83386857Y-56449857D01*
X83314285Y-56522428D01*
X83205428Y-56558714D01*
X83024000Y-56558714D01*
X84112571Y-56050714D02*
X84112571Y-56558714D01*
X83931142Y-55760428D02*
X83749714Y-56304714D01*
X84221428Y-56304714D01*
X84838285Y-55796714D02*
X84693142Y-55796714D01*
X84620571Y-55833000D01*
X84584285Y-55869285D01*
X84511714Y-55978142D01*
X84475428Y-56123285D01*
X84475428Y-56413571D01*
X84511714Y-56486142D01*
X84548000Y-56522428D01*
X84620571Y-56558714D01*
X84765714Y-56558714D01*
X84838285Y-56522428D01*
X84874571Y-56486142D01*
X84910857Y-56413571D01*
X84910857Y-56232142D01*
X84874571Y-56159571D01*
X84838285Y-56123285D01*
X84765714Y-56087000D01*
X84620571Y-56087000D01*
X84548000Y-56123285D01*
X84511714Y-56159571D01*
X84475428Y-56232142D01*
X83024000Y-59144714D02*
X83024000Y-58382714D01*
X83205428Y-58382714D01*
X83314285Y-58419000D01*
X83386857Y-58491571D01*
X83423142Y-58564142D01*
X83459428Y-58709285D01*
X83459428Y-58818142D01*
X83423142Y-58963285D01*
X83386857Y-59035857D01*
X83314285Y-59108428D01*
X83205428Y-59144714D01*
X83024000Y-59144714D01*
X84112571Y-58636714D02*
X84112571Y-59144714D01*
X83931142Y-58346428D02*
X83749714Y-58890714D01*
X84221428Y-58890714D01*
X84620571Y-58709285D02*
X84548000Y-58673000D01*
X84511714Y-58636714D01*
X84475428Y-58564142D01*
X84475428Y-58527857D01*
X84511714Y-58455285D01*
X84548000Y-58419000D01*
X84620571Y-58382714D01*
X84765714Y-58382714D01*
X84838285Y-58419000D01*
X84874571Y-58455285D01*
X84910857Y-58527857D01*
X84910857Y-58564142D01*
X84874571Y-58636714D01*
X84838285Y-58673000D01*
X84765714Y-58709285D01*
X84620571Y-58709285D01*
X84548000Y-58745571D01*
X84511714Y-58781857D01*
X84475428Y-58854428D01*
X84475428Y-58999571D01*
X84511714Y-59072142D01*
X84548000Y-59108428D01*
X84620571Y-59144714D01*
X84765714Y-59144714D01*
X84838285Y-59108428D01*
X84874571Y-59072142D01*
X84910857Y-58999571D01*
X84910857Y-58854428D01*
X84874571Y-58781857D01*
X84838285Y-58745571D01*
X84765714Y-58709285D01*
X83024000Y-61730714D02*
X83024000Y-60968714D01*
X83205428Y-60968714D01*
X83314285Y-61005000D01*
X83386857Y-61077571D01*
X83423142Y-61150142D01*
X83459428Y-61295285D01*
X83459428Y-61404142D01*
X83423142Y-61549285D01*
X83386857Y-61621857D01*
X83314285Y-61694428D01*
X83205428Y-61730714D01*
X83024000Y-61730714D01*
X84148857Y-60968714D02*
X83786000Y-60968714D01*
X83749714Y-61331571D01*
X83786000Y-61295285D01*
X83858571Y-61259000D01*
X84040000Y-61259000D01*
X84112571Y-61295285D01*
X84148857Y-61331571D01*
X84185142Y-61404142D01*
X84185142Y-61585571D01*
X84148857Y-61658142D01*
X84112571Y-61694428D01*
X84040000Y-61730714D01*
X83858571Y-61730714D01*
X83786000Y-61694428D01*
X83749714Y-61658142D01*
X84656857Y-60968714D02*
X84729428Y-60968714D01*
X84802000Y-61005000D01*
X84838285Y-61041285D01*
X84874571Y-61113857D01*
X84910857Y-61259000D01*
X84910857Y-61440428D01*
X84874571Y-61585571D01*
X84838285Y-61658142D01*
X84802000Y-61694428D01*
X84729428Y-61730714D01*
X84656857Y-61730714D01*
X84584285Y-61694428D01*
X84548000Y-61658142D01*
X84511714Y-61585571D01*
X84475428Y-61440428D01*
X84475428Y-61259000D01*
X84511714Y-61113857D01*
X84548000Y-61041285D01*
X84584285Y-61005000D01*
X84656857Y-60968714D01*
X83024000Y-64316714D02*
X83024000Y-63554714D01*
X83205428Y-63554714D01*
X83314285Y-63591000D01*
X83386857Y-63663571D01*
X83423142Y-63736142D01*
X83459428Y-63881285D01*
X83459428Y-63990142D01*
X83423142Y-64135285D01*
X83386857Y-64207857D01*
X83314285Y-64280428D01*
X83205428Y-64316714D01*
X83024000Y-64316714D01*
X84148857Y-63554714D02*
X83786000Y-63554714D01*
X83749714Y-63917571D01*
X83786000Y-63881285D01*
X83858571Y-63845000D01*
X84040000Y-63845000D01*
X84112571Y-63881285D01*
X84148857Y-63917571D01*
X84185142Y-63990142D01*
X84185142Y-64171571D01*
X84148857Y-64244142D01*
X84112571Y-64280428D01*
X84040000Y-64316714D01*
X83858571Y-64316714D01*
X83786000Y-64280428D01*
X83749714Y-64244142D01*
X84475428Y-63627285D02*
X84511714Y-63591000D01*
X84584285Y-63554714D01*
X84765714Y-63554714D01*
X84838285Y-63591000D01*
X84874571Y-63627285D01*
X84910857Y-63699857D01*
X84910857Y-63772428D01*
X84874571Y-63881285D01*
X84439142Y-64316714D01*
X84910857Y-64316714D01*
X83314285Y-66177000D02*
X83241714Y-66140714D01*
X83132857Y-66140714D01*
X83024000Y-66177000D01*
X82951428Y-66249571D01*
X82915142Y-66322142D01*
X82878857Y-66467285D01*
X82878857Y-66576142D01*
X82915142Y-66721285D01*
X82951428Y-66793857D01*
X83024000Y-66866428D01*
X83132857Y-66902714D01*
X83205428Y-66902714D01*
X83314285Y-66866428D01*
X83350571Y-66830142D01*
X83350571Y-66576142D01*
X83205428Y-66576142D01*
X83677142Y-66902714D02*
X83677142Y-66140714D01*
X84112571Y-66902714D01*
X84112571Y-66140714D01*
X84475428Y-66902714D02*
X84475428Y-66140714D01*
X84656857Y-66140714D01*
X84765714Y-66177000D01*
X84838285Y-66249571D01*
X84874571Y-66322142D01*
X84910857Y-66467285D01*
X84910857Y-66576142D01*
X84874571Y-66721285D01*
X84838285Y-66793857D01*
X84765714Y-66866428D01*
X84656857Y-66902714D01*
X84475428Y-66902714D01*
X56294714Y-23655999D02*
X55532714Y-23655999D01*
X55532714Y-23474571D01*
X55569000Y-23365714D01*
X55641571Y-23293142D01*
X55714142Y-23256857D01*
X55859285Y-23220571D01*
X55968142Y-23220571D01*
X56113285Y-23256857D01*
X56185857Y-23293142D01*
X56258428Y-23365714D01*
X56294714Y-23474571D01*
X56294714Y-23655999D01*
X56294714Y-22494857D02*
X56294714Y-22930285D01*
X56294714Y-22712571D02*
X55532714Y-22712571D01*
X55641571Y-22785142D01*
X55714142Y-22857714D01*
X55750428Y-22930285D01*
X55786714Y-21841714D02*
X56294714Y-21841714D01*
X55496428Y-22023142D02*
X56040714Y-22204571D01*
X56040714Y-21732857D01*
X58880714Y-23655999D02*
X58118714Y-23655999D01*
X58118714Y-23474571D01*
X58155000Y-23365714D01*
X58227571Y-23293142D01*
X58300142Y-23256857D01*
X58445285Y-23220571D01*
X58554142Y-23220571D01*
X58699285Y-23256857D01*
X58771857Y-23293142D01*
X58844428Y-23365714D01*
X58880714Y-23474571D01*
X58880714Y-23655999D01*
X58880714Y-22494857D02*
X58880714Y-22930285D01*
X58880714Y-22712571D02*
X58118714Y-22712571D01*
X58227571Y-22785142D01*
X58300142Y-22857714D01*
X58336428Y-22930285D01*
X58118714Y-21841714D02*
X58118714Y-21986857D01*
X58155000Y-22059428D01*
X58191285Y-22095714D01*
X58300142Y-22168285D01*
X58445285Y-22204571D01*
X58735571Y-22204571D01*
X58808142Y-22168285D01*
X58844428Y-22131999D01*
X58880714Y-22059428D01*
X58880714Y-21914285D01*
X58844428Y-21841714D01*
X58808142Y-21805428D01*
X58735571Y-21769142D01*
X58554142Y-21769142D01*
X58481571Y-21805428D01*
X58445285Y-21841714D01*
X58409000Y-21914285D01*
X58409000Y-22059428D01*
X58445285Y-22131999D01*
X58481571Y-22168285D01*
X58554142Y-22204571D01*
X61466714Y-23655999D02*
X60704714Y-23655999D01*
X60704714Y-23474571D01*
X60741000Y-23365714D01*
X60813571Y-23293142D01*
X60886142Y-23256857D01*
X61031285Y-23220571D01*
X61140142Y-23220571D01*
X61285285Y-23256857D01*
X61357857Y-23293142D01*
X61430428Y-23365714D01*
X61466714Y-23474571D01*
X61466714Y-23655999D01*
X61466714Y-22494857D02*
X61466714Y-22930285D01*
X61466714Y-22712571D02*
X60704714Y-22712571D01*
X60813571Y-22785142D01*
X60886142Y-22857714D01*
X60922428Y-22930285D01*
X61031285Y-22059428D02*
X60995000Y-22131999D01*
X60958714Y-22168285D01*
X60886142Y-22204571D01*
X60849857Y-22204571D01*
X60777285Y-22168285D01*
X60741000Y-22131999D01*
X60704714Y-22059428D01*
X60704714Y-21914285D01*
X60741000Y-21841714D01*
X60777285Y-21805428D01*
X60849857Y-21769142D01*
X60886142Y-21769142D01*
X60958714Y-21805428D01*
X60995000Y-21841714D01*
X61031285Y-21914285D01*
X61031285Y-22059428D01*
X61067571Y-22131999D01*
X61103857Y-22168285D01*
X61176428Y-22204571D01*
X61321571Y-22204571D01*
X61394142Y-22168285D01*
X61430428Y-22131999D01*
X61466714Y-22059428D01*
X61466714Y-21914285D01*
X61430428Y-21841714D01*
X61394142Y-21805428D01*
X61321571Y-21769142D01*
X61176428Y-21769142D01*
X61103857Y-21805428D01*
X61067571Y-21841714D01*
X61031285Y-21914285D01*
X64052714Y-23655999D02*
X63290714Y-23655999D01*
X63290714Y-23474571D01*
X63327000Y-23365714D01*
X63399571Y-23293142D01*
X63472142Y-23256857D01*
X63617285Y-23220571D01*
X63726142Y-23220571D01*
X63871285Y-23256857D01*
X63943857Y-23293142D01*
X64016428Y-23365714D01*
X64052714Y-23474571D01*
X64052714Y-23655999D01*
X63363285Y-22930285D02*
X63327000Y-22893999D01*
X63290714Y-22821428D01*
X63290714Y-22639999D01*
X63327000Y-22567428D01*
X63363285Y-22531142D01*
X63435857Y-22494857D01*
X63508428Y-22494857D01*
X63617285Y-22531142D01*
X64052714Y-22966571D01*
X64052714Y-22494857D01*
X63290714Y-22023142D02*
X63290714Y-21950571D01*
X63327000Y-21877999D01*
X63363285Y-21841714D01*
X63435857Y-21805428D01*
X63581000Y-21769142D01*
X63762428Y-21769142D01*
X63907571Y-21805428D01*
X63980142Y-21841714D01*
X64016428Y-21877999D01*
X64052714Y-21950571D01*
X64052714Y-22023142D01*
X64016428Y-22095714D01*
X63980142Y-22131999D01*
X63907571Y-22168285D01*
X63762428Y-22204571D01*
X63581000Y-22204571D01*
X63435857Y-22168285D01*
X63363285Y-22131999D01*
X63327000Y-22095714D01*
X63290714Y-22023142D01*
X65876714Y-23256857D02*
X66638714Y-23002857D01*
X65876714Y-22748857D01*
X66638714Y-22494857D02*
X66130714Y-22494857D01*
X65876714Y-22494857D02*
X65913000Y-22531142D01*
X65949285Y-22494857D01*
X65913000Y-22458571D01*
X65876714Y-22494857D01*
X65949285Y-22494857D01*
X66130714Y-22132000D02*
X66638714Y-22132000D01*
X66203285Y-22132000D02*
X66167000Y-22095714D01*
X66130714Y-22023142D01*
X66130714Y-21914285D01*
X66167000Y-21841714D01*
X66239571Y-21805428D01*
X66638714Y-21805428D01*
X68499000Y-23365714D02*
X68462714Y-23438285D01*
X68462714Y-23547142D01*
X68499000Y-23656000D01*
X68571571Y-23728571D01*
X68644142Y-23764857D01*
X68789285Y-23801142D01*
X68898142Y-23801142D01*
X69043285Y-23764857D01*
X69115857Y-23728571D01*
X69188428Y-23656000D01*
X69224714Y-23547142D01*
X69224714Y-23474571D01*
X69188428Y-23365714D01*
X69152142Y-23329428D01*
X68898142Y-23329428D01*
X68898142Y-23474571D01*
X69224714Y-23002857D02*
X68462714Y-23002857D01*
X69224714Y-22567428D01*
X68462714Y-22567428D01*
X69224714Y-22204571D02*
X68462714Y-22204571D01*
X68462714Y-22023142D01*
X68499000Y-21914285D01*
X68571571Y-21841714D01*
X68644142Y-21805428D01*
X68789285Y-21769142D01*
X68898142Y-21769142D01*
X69043285Y-21805428D01*
X69115857Y-21841714D01*
X69188428Y-21914285D01*
X69224714Y-22023142D01*
X69224714Y-22204571D01*
X71048714Y-22458571D02*
X71048714Y-22821428D01*
X71411571Y-22857714D01*
X71375285Y-22821428D01*
X71339000Y-22748857D01*
X71339000Y-22567428D01*
X71375285Y-22494857D01*
X71411571Y-22458571D01*
X71484142Y-22422285D01*
X71665571Y-22422285D01*
X71738142Y-22458571D01*
X71774428Y-22494857D01*
X71810714Y-22567428D01*
X71810714Y-22748857D01*
X71774428Y-22821428D01*
X71738142Y-22857714D01*
X71048714Y-22204571D02*
X71810714Y-21950571D01*
X71048714Y-21696571D01*
X73671000Y-23365714D02*
X73634714Y-23438285D01*
X73634714Y-23547142D01*
X73671000Y-23656000D01*
X73743571Y-23728571D01*
X73816142Y-23764857D01*
X73961285Y-23801142D01*
X74070142Y-23801142D01*
X74215285Y-23764857D01*
X74287857Y-23728571D01*
X74360428Y-23656000D01*
X74396714Y-23547142D01*
X74396714Y-23474571D01*
X74360428Y-23365714D01*
X74324142Y-23329428D01*
X74070142Y-23329428D01*
X74070142Y-23474571D01*
X74396714Y-23002857D02*
X73634714Y-23002857D01*
X74396714Y-22567428D01*
X73634714Y-22567428D01*
X74396714Y-22204571D02*
X73634714Y-22204571D01*
X73634714Y-22023142D01*
X73671000Y-21914285D01*
X73743571Y-21841714D01*
X73816142Y-21805428D01*
X73961285Y-21769142D01*
X74070142Y-21769142D01*
X74215285Y-21805428D01*
X74287857Y-21841714D01*
X74360428Y-21914285D01*
X74396714Y-22023142D01*
X74396714Y-22204571D01*
X76220714Y-23619714D02*
X76220714Y-23148000D01*
X76511000Y-23402000D01*
X76511000Y-23293142D01*
X76547285Y-23220571D01*
X76583571Y-23184285D01*
X76656142Y-23148000D01*
X76837571Y-23148000D01*
X76910142Y-23184285D01*
X76946428Y-23220571D01*
X76982714Y-23293142D01*
X76982714Y-23510857D01*
X76946428Y-23583428D01*
X76910142Y-23619714D01*
X76220714Y-22930285D02*
X76982714Y-22676285D01*
X76220714Y-22422285D01*
X76220714Y-22240857D02*
X76220714Y-21769142D01*
X76511000Y-22023142D01*
X76511000Y-21914285D01*
X76547285Y-21841714D01*
X76583571Y-21805428D01*
X76656142Y-21769142D01*
X76837571Y-21769142D01*
X76910142Y-21805428D01*
X76946428Y-21841714D01*
X76982714Y-21914285D01*
X76982714Y-22132000D01*
X76946428Y-22204571D01*
X76910142Y-22240857D01*
X56231214Y-16358071D02*
X55469214Y-16358071D01*
X55469214Y-16176642D01*
X55505500Y-16067785D01*
X55578071Y-15995214D01*
X55650642Y-15958928D01*
X55795785Y-15922642D01*
X55904642Y-15922642D01*
X56049785Y-15958928D01*
X56122357Y-15995214D01*
X56194928Y-16067785D01*
X56231214Y-16176642D01*
X56231214Y-16358071D01*
X56231214Y-15196928D02*
X56231214Y-15632357D01*
X56231214Y-15414642D02*
X55469214Y-15414642D01*
X55578071Y-15487214D01*
X55650642Y-15559785D01*
X55686928Y-15632357D01*
X55469214Y-14507500D02*
X55469214Y-14870357D01*
X55832071Y-14906642D01*
X55795785Y-14870357D01*
X55759500Y-14797785D01*
X55759500Y-14616357D01*
X55795785Y-14543785D01*
X55832071Y-14507500D01*
X55904642Y-14471214D01*
X56086071Y-14471214D01*
X56158642Y-14507500D01*
X56194928Y-14543785D01*
X56231214Y-14616357D01*
X56231214Y-14797785D01*
X56194928Y-14870357D01*
X56158642Y-14906642D01*
X58817214Y-16358071D02*
X58055214Y-16358071D01*
X58055214Y-16176642D01*
X58091500Y-16067785D01*
X58164071Y-15995214D01*
X58236642Y-15958928D01*
X58381785Y-15922642D01*
X58490642Y-15922642D01*
X58635785Y-15958928D01*
X58708357Y-15995214D01*
X58780928Y-16067785D01*
X58817214Y-16176642D01*
X58817214Y-16358071D01*
X58817214Y-15196928D02*
X58817214Y-15632357D01*
X58817214Y-15414642D02*
X58055214Y-15414642D01*
X58164071Y-15487214D01*
X58236642Y-15559785D01*
X58272928Y-15632357D01*
X58055214Y-14942928D02*
X58055214Y-14434928D01*
X58817214Y-14761500D01*
X61403214Y-16358071D02*
X60641214Y-16358071D01*
X60641214Y-16176642D01*
X60677500Y-16067785D01*
X60750071Y-15995214D01*
X60822642Y-15958928D01*
X60967785Y-15922642D01*
X61076642Y-15922642D01*
X61221785Y-15958928D01*
X61294357Y-15995214D01*
X61366928Y-16067785D01*
X61403214Y-16176642D01*
X61403214Y-16358071D01*
X61403214Y-15196928D02*
X61403214Y-15632357D01*
X61403214Y-15414642D02*
X60641214Y-15414642D01*
X60750071Y-15487214D01*
X60822642Y-15559785D01*
X60858928Y-15632357D01*
X61403214Y-14834071D02*
X61403214Y-14688928D01*
X61366928Y-14616357D01*
X61330642Y-14580071D01*
X61221785Y-14507500D01*
X61076642Y-14471214D01*
X60786357Y-14471214D01*
X60713785Y-14507500D01*
X60677500Y-14543785D01*
X60641214Y-14616357D01*
X60641214Y-14761500D01*
X60677500Y-14834071D01*
X60713785Y-14870357D01*
X60786357Y-14906642D01*
X60967785Y-14906642D01*
X61040357Y-14870357D01*
X61076642Y-14834071D01*
X61112928Y-14761500D01*
X61112928Y-14616357D01*
X61076642Y-14543785D01*
X61040357Y-14507500D01*
X60967785Y-14471214D01*
X63989214Y-16358071D02*
X63227214Y-16358071D01*
X63227214Y-16176642D01*
X63263500Y-16067785D01*
X63336071Y-15995214D01*
X63408642Y-15958928D01*
X63553785Y-15922642D01*
X63662642Y-15922642D01*
X63807785Y-15958928D01*
X63880357Y-15995214D01*
X63952928Y-16067785D01*
X63989214Y-16176642D01*
X63989214Y-16358071D01*
X63299785Y-15632357D02*
X63263500Y-15596071D01*
X63227214Y-15523500D01*
X63227214Y-15342071D01*
X63263500Y-15269500D01*
X63299785Y-15233214D01*
X63372357Y-15196928D01*
X63444928Y-15196928D01*
X63553785Y-15233214D01*
X63989214Y-15668642D01*
X63989214Y-15196928D01*
X63989214Y-14471214D02*
X63989214Y-14906642D01*
X63989214Y-14688928D02*
X63227214Y-14688928D01*
X63336071Y-14761500D01*
X63408642Y-14834071D01*
X63444928Y-14906642D01*
X65813214Y-16466928D02*
X66575214Y-16212928D01*
X65813214Y-15958928D01*
X66575214Y-15704928D02*
X66067214Y-15704928D01*
X65813214Y-15704928D02*
X65849500Y-15741214D01*
X65885785Y-15704928D01*
X65849500Y-15668642D01*
X65813214Y-15704928D01*
X65885785Y-15704928D01*
X66067214Y-15342071D02*
X66575214Y-15342071D01*
X66139785Y-15342071D02*
X66103500Y-15305785D01*
X66067214Y-15233214D01*
X66067214Y-15124357D01*
X66103500Y-15051785D01*
X66176071Y-15015500D01*
X66575214Y-15015500D01*
X68435500Y-15958928D02*
X68399214Y-16031500D01*
X68399214Y-16140357D01*
X68435500Y-16249214D01*
X68508071Y-16321785D01*
X68580642Y-16358071D01*
X68725785Y-16394357D01*
X68834642Y-16394357D01*
X68979785Y-16358071D01*
X69052357Y-16321785D01*
X69124928Y-16249214D01*
X69161214Y-16140357D01*
X69161214Y-16067785D01*
X69124928Y-15958928D01*
X69088642Y-15922642D01*
X68834642Y-15922642D01*
X68834642Y-16067785D01*
X69161214Y-15596071D02*
X68399214Y-15596071D01*
X69161214Y-15160642D01*
X68399214Y-15160642D01*
X69161214Y-14797785D02*
X68399214Y-14797785D01*
X68399214Y-14616357D01*
X68435500Y-14507500D01*
X68508071Y-14434928D01*
X68580642Y-14398642D01*
X68725785Y-14362357D01*
X68834642Y-14362357D01*
X68979785Y-14398642D01*
X69052357Y-14434928D01*
X69124928Y-14507500D01*
X69161214Y-14616357D01*
X69161214Y-14797785D01*
X70985214Y-15995214D02*
X70985214Y-16358071D01*
X71348071Y-16394357D01*
X71311785Y-16358071D01*
X71275500Y-16285500D01*
X71275500Y-16104071D01*
X71311785Y-16031500D01*
X71348071Y-15995214D01*
X71420642Y-15958928D01*
X71602071Y-15958928D01*
X71674642Y-15995214D01*
X71710928Y-16031500D01*
X71747214Y-16104071D01*
X71747214Y-16285500D01*
X71710928Y-16358071D01*
X71674642Y-16394357D01*
X70985214Y-15741214D02*
X71747214Y-15487214D01*
X70985214Y-15233214D01*
X73607500Y-15958928D02*
X73571214Y-16031500D01*
X73571214Y-16140357D01*
X73607500Y-16249214D01*
X73680071Y-16321785D01*
X73752642Y-16358071D01*
X73897785Y-16394357D01*
X74006642Y-16394357D01*
X74151785Y-16358071D01*
X74224357Y-16321785D01*
X74296928Y-16249214D01*
X74333214Y-16140357D01*
X74333214Y-16067785D01*
X74296928Y-15958928D01*
X74260642Y-15922642D01*
X74006642Y-15922642D01*
X74006642Y-16067785D01*
X74333214Y-15596071D02*
X73571214Y-15596071D01*
X74333214Y-15160642D01*
X73571214Y-15160642D01*
X74333214Y-14797785D02*
X73571214Y-14797785D01*
X73571214Y-14616357D01*
X73607500Y-14507500D01*
X73680071Y-14434928D01*
X73752642Y-14398642D01*
X73897785Y-14362357D01*
X74006642Y-14362357D01*
X74151785Y-14398642D01*
X74224357Y-14434928D01*
X74296928Y-14507500D01*
X74333214Y-14616357D01*
X74333214Y-14797785D01*
X76157214Y-16430642D02*
X76157214Y-15958928D01*
X76447500Y-16212928D01*
X76447500Y-16104071D01*
X76483785Y-16031500D01*
X76520071Y-15995214D01*
X76592642Y-15958928D01*
X76774071Y-15958928D01*
X76846642Y-15995214D01*
X76882928Y-16031500D01*
X76919214Y-16104071D01*
X76919214Y-16321785D01*
X76882928Y-16394357D01*
X76846642Y-16430642D01*
X76157214Y-15741214D02*
X76919214Y-15487214D01*
X76157214Y-15233214D01*
X76157214Y-15051785D02*
X76157214Y-14580071D01*
X76447500Y-14834071D01*
X76447500Y-14725214D01*
X76483785Y-14652642D01*
X76520071Y-14616357D01*
X76592642Y-14580071D01*
X76774071Y-14580071D01*
X76846642Y-14616357D01*
X76882928Y-14652642D01*
X76919214Y-14725214D01*
X76919214Y-14942928D01*
X76882928Y-15015500D01*
X76846642Y-15051785D01*
X24855000Y-23419214D02*
X24818714Y-23491785D01*
X24818714Y-23600642D01*
X24855000Y-23709500D01*
X24927571Y-23782071D01*
X25000142Y-23818357D01*
X25145285Y-23854642D01*
X25254142Y-23854642D01*
X25399285Y-23818357D01*
X25471857Y-23782071D01*
X25544428Y-23709500D01*
X25580714Y-23600642D01*
X25580714Y-23528071D01*
X25544428Y-23419214D01*
X25508142Y-23382928D01*
X25254142Y-23382928D01*
X25254142Y-23528071D01*
X25580714Y-23056357D02*
X24818714Y-23056357D01*
X25580714Y-22620928D01*
X24818714Y-22620928D01*
X25580714Y-22258071D02*
X24818714Y-22258071D01*
X24818714Y-22076642D01*
X24855000Y-21967785D01*
X24927571Y-21895214D01*
X25000142Y-21858928D01*
X25145285Y-21822642D01*
X25254142Y-21822642D01*
X25399285Y-21858928D01*
X25471857Y-21895214D01*
X25544428Y-21967785D01*
X25580714Y-22076642D01*
X25580714Y-22258071D01*
X27441000Y-23419214D02*
X27404714Y-23491785D01*
X27404714Y-23600642D01*
X27441000Y-23709500D01*
X27513571Y-23782071D01*
X27586142Y-23818357D01*
X27731285Y-23854642D01*
X27840142Y-23854642D01*
X27985285Y-23818357D01*
X28057857Y-23782071D01*
X28130428Y-23709500D01*
X28166714Y-23600642D01*
X28166714Y-23528071D01*
X28130428Y-23419214D01*
X28094142Y-23382928D01*
X27840142Y-23382928D01*
X27840142Y-23528071D01*
X28166714Y-23056357D02*
X27404714Y-23056357D01*
X28166714Y-22620928D01*
X27404714Y-22620928D01*
X28166714Y-22258071D02*
X27404714Y-22258071D01*
X27404714Y-22076642D01*
X27441000Y-21967785D01*
X27513571Y-21895214D01*
X27586142Y-21858928D01*
X27731285Y-21822642D01*
X27840142Y-21822642D01*
X27985285Y-21858928D01*
X28057857Y-21895214D01*
X28130428Y-21967785D01*
X28166714Y-22076642D01*
X28166714Y-22258071D01*
X30752714Y-23709500D02*
X29990714Y-23709500D01*
X29990714Y-23528071D01*
X30027000Y-23419214D01*
X30099571Y-23346642D01*
X30172142Y-23310357D01*
X30317285Y-23274071D01*
X30426142Y-23274071D01*
X30571285Y-23310357D01*
X30643857Y-23346642D01*
X30716428Y-23419214D01*
X30752714Y-23528071D01*
X30752714Y-23709500D01*
X30752714Y-22548357D02*
X30752714Y-22983785D01*
X30752714Y-22766071D02*
X29990714Y-22766071D01*
X30099571Y-22838642D01*
X30172142Y-22911214D01*
X30208428Y-22983785D01*
X30063285Y-22258071D02*
X30027000Y-22221785D01*
X29990714Y-22149214D01*
X29990714Y-21967785D01*
X30027000Y-21895214D01*
X30063285Y-21858928D01*
X30135857Y-21822642D01*
X30208428Y-21822642D01*
X30317285Y-21858928D01*
X30752714Y-22294357D01*
X30752714Y-21822642D01*
X33338714Y-23709500D02*
X32576714Y-23709500D01*
X32576714Y-23528071D01*
X32613000Y-23419214D01*
X32685571Y-23346642D01*
X32758142Y-23310357D01*
X32903285Y-23274071D01*
X33012142Y-23274071D01*
X33157285Y-23310357D01*
X33229857Y-23346642D01*
X33302428Y-23419214D01*
X33338714Y-23528071D01*
X33338714Y-23709500D01*
X33338714Y-22548357D02*
X33338714Y-22983785D01*
X33338714Y-22766071D02*
X32576714Y-22766071D01*
X32685571Y-22838642D01*
X32758142Y-22911214D01*
X32794428Y-22983785D01*
X32576714Y-22076642D02*
X32576714Y-22004071D01*
X32613000Y-21931500D01*
X32649285Y-21895214D01*
X32721857Y-21858928D01*
X32867000Y-21822642D01*
X33048428Y-21822642D01*
X33193571Y-21858928D01*
X33266142Y-21895214D01*
X33302428Y-21931500D01*
X33338714Y-22004071D01*
X33338714Y-22076642D01*
X33302428Y-22149214D01*
X33266142Y-22185500D01*
X33193571Y-22221785D01*
X33048428Y-22258071D01*
X32867000Y-22258071D01*
X32721857Y-22221785D01*
X32649285Y-22185500D01*
X32613000Y-22149214D01*
X32576714Y-22076642D01*
X35924714Y-22983785D02*
X35162714Y-22983785D01*
X35162714Y-22802357D01*
X35199000Y-22693500D01*
X35271571Y-22620928D01*
X35344142Y-22584642D01*
X35489285Y-22548357D01*
X35598142Y-22548357D01*
X35743285Y-22584642D01*
X35815857Y-22620928D01*
X35888428Y-22693500D01*
X35924714Y-22802357D01*
X35924714Y-22983785D01*
X35489285Y-22112928D02*
X35453000Y-22185500D01*
X35416714Y-22221785D01*
X35344142Y-22258071D01*
X35307857Y-22258071D01*
X35235285Y-22221785D01*
X35199000Y-22185500D01*
X35162714Y-22112928D01*
X35162714Y-21967785D01*
X35199000Y-21895214D01*
X35235285Y-21858928D01*
X35307857Y-21822642D01*
X35344142Y-21822642D01*
X35416714Y-21858928D01*
X35453000Y-21895214D01*
X35489285Y-21967785D01*
X35489285Y-22112928D01*
X35525571Y-22185500D01*
X35561857Y-22221785D01*
X35634428Y-22258071D01*
X35779571Y-22258071D01*
X35852142Y-22221785D01*
X35888428Y-22185500D01*
X35924714Y-22112928D01*
X35924714Y-21967785D01*
X35888428Y-21895214D01*
X35852142Y-21858928D01*
X35779571Y-21822642D01*
X35634428Y-21822642D01*
X35561857Y-21858928D01*
X35525571Y-21895214D01*
X35489285Y-21967785D01*
X38510714Y-22983785D02*
X37748714Y-22983785D01*
X37748714Y-22802357D01*
X37785000Y-22693500D01*
X37857571Y-22620928D01*
X37930142Y-22584642D01*
X38075285Y-22548357D01*
X38184142Y-22548357D01*
X38329285Y-22584642D01*
X38401857Y-22620928D01*
X38474428Y-22693500D01*
X38510714Y-22802357D01*
X38510714Y-22983785D01*
X37748714Y-21895214D02*
X37748714Y-22040357D01*
X37785000Y-22112928D01*
X37821285Y-22149214D01*
X37930142Y-22221785D01*
X38075285Y-22258071D01*
X38365571Y-22258071D01*
X38438142Y-22221785D01*
X38474428Y-22185500D01*
X38510714Y-22112928D01*
X38510714Y-21967785D01*
X38474428Y-21895214D01*
X38438142Y-21858928D01*
X38365571Y-21822642D01*
X38184142Y-21822642D01*
X38111571Y-21858928D01*
X38075285Y-21895214D01*
X38039000Y-21967785D01*
X38039000Y-22112928D01*
X38075285Y-22185500D01*
X38111571Y-22221785D01*
X38184142Y-22258071D01*
X41096714Y-22983785D02*
X40334714Y-22983785D01*
X40334714Y-22802357D01*
X40371000Y-22693500D01*
X40443571Y-22620928D01*
X40516142Y-22584642D01*
X40661285Y-22548357D01*
X40770142Y-22548357D01*
X40915285Y-22584642D01*
X40987857Y-22620928D01*
X41060428Y-22693500D01*
X41096714Y-22802357D01*
X41096714Y-22983785D01*
X40588714Y-21895214D02*
X41096714Y-21895214D01*
X40298428Y-22076642D02*
X40842714Y-22258071D01*
X40842714Y-21786357D01*
X43682714Y-22983785D02*
X42920714Y-22983785D01*
X42920714Y-22802357D01*
X42957000Y-22693500D01*
X43029571Y-22620928D01*
X43102142Y-22584642D01*
X43247285Y-22548357D01*
X43356142Y-22548357D01*
X43501285Y-22584642D01*
X43573857Y-22620928D01*
X43646428Y-22693500D01*
X43682714Y-22802357D01*
X43682714Y-22983785D01*
X42993285Y-22258071D02*
X42957000Y-22221785D01*
X42920714Y-22149214D01*
X42920714Y-21967785D01*
X42957000Y-21895214D01*
X42993285Y-21858928D01*
X43065857Y-21822642D01*
X43138428Y-21822642D01*
X43247285Y-21858928D01*
X43682714Y-22294357D01*
X43682714Y-21822642D01*
X46268714Y-22983785D02*
X45506714Y-22983785D01*
X45506714Y-22802357D01*
X45543000Y-22693500D01*
X45615571Y-22620928D01*
X45688142Y-22584642D01*
X45833285Y-22548357D01*
X45942142Y-22548357D01*
X46087285Y-22584642D01*
X46159857Y-22620928D01*
X46232428Y-22693500D01*
X46268714Y-22802357D01*
X46268714Y-22983785D01*
X45506714Y-22076642D02*
X45506714Y-22004071D01*
X45543000Y-21931500D01*
X45579285Y-21895214D01*
X45651857Y-21858928D01*
X45797000Y-21822642D01*
X45978428Y-21822642D01*
X46123571Y-21858928D01*
X46196142Y-21895214D01*
X46232428Y-21931500D01*
X46268714Y-22004071D01*
X46268714Y-22076642D01*
X46232428Y-22149214D01*
X46196142Y-22185500D01*
X46123571Y-22221785D01*
X45978428Y-22258071D01*
X45797000Y-22258071D01*
X45651857Y-22221785D01*
X45579285Y-22185500D01*
X45543000Y-22149214D01*
X45506714Y-22076642D01*
X24925000Y-15841928D02*
X24888714Y-15914500D01*
X24888714Y-16023357D01*
X24925000Y-16132214D01*
X24997571Y-16204785D01*
X25070142Y-16241071D01*
X25215285Y-16277357D01*
X25324142Y-16277357D01*
X25469285Y-16241071D01*
X25541857Y-16204785D01*
X25614428Y-16132214D01*
X25650714Y-16023357D01*
X25650714Y-15950785D01*
X25614428Y-15841928D01*
X25578142Y-15805642D01*
X25324142Y-15805642D01*
X25324142Y-15950785D01*
X25650714Y-15479071D02*
X24888714Y-15479071D01*
X25650714Y-15043642D01*
X24888714Y-15043642D01*
X25650714Y-14680785D02*
X24888714Y-14680785D01*
X24888714Y-14499357D01*
X24925000Y-14390500D01*
X24997571Y-14317928D01*
X25070142Y-14281642D01*
X25215285Y-14245357D01*
X25324142Y-14245357D01*
X25469285Y-14281642D01*
X25541857Y-14317928D01*
X25614428Y-14390500D01*
X25650714Y-14499357D01*
X25650714Y-14680785D01*
X28019000Y-16277357D02*
X28019000Y-15914500D01*
X28236714Y-16349928D02*
X27474714Y-16095928D01*
X28236714Y-15841928D01*
X28236714Y-15152500D02*
X27873857Y-15406500D01*
X28236714Y-15587928D02*
X27474714Y-15587928D01*
X27474714Y-15297642D01*
X27511000Y-15225071D01*
X27547285Y-15188785D01*
X27619857Y-15152500D01*
X27728714Y-15152500D01*
X27801285Y-15188785D01*
X27837571Y-15225071D01*
X27873857Y-15297642D01*
X27873857Y-15587928D01*
X27837571Y-14825928D02*
X27837571Y-14571928D01*
X28236714Y-14463071D02*
X28236714Y-14825928D01*
X27474714Y-14825928D01*
X27474714Y-14463071D01*
X27837571Y-13882500D02*
X27837571Y-14136500D01*
X28236714Y-14136500D02*
X27474714Y-14136500D01*
X27474714Y-13773642D01*
X30822714Y-16241071D02*
X30060714Y-16241071D01*
X30060714Y-16059642D01*
X30097000Y-15950785D01*
X30169571Y-15878214D01*
X30242142Y-15841928D01*
X30387285Y-15805642D01*
X30496142Y-15805642D01*
X30641285Y-15841928D01*
X30713857Y-15878214D01*
X30786428Y-15950785D01*
X30822714Y-16059642D01*
X30822714Y-16241071D01*
X30822714Y-15079928D02*
X30822714Y-15515357D01*
X30822714Y-15297642D02*
X30060714Y-15297642D01*
X30169571Y-15370214D01*
X30242142Y-15442785D01*
X30278428Y-15515357D01*
X30060714Y-14825928D02*
X30060714Y-14354214D01*
X30351000Y-14608214D01*
X30351000Y-14499357D01*
X30387285Y-14426785D01*
X30423571Y-14390500D01*
X30496142Y-14354214D01*
X30677571Y-14354214D01*
X30750142Y-14390500D01*
X30786428Y-14426785D01*
X30822714Y-14499357D01*
X30822714Y-14717071D01*
X30786428Y-14789642D01*
X30750142Y-14825928D01*
X33408714Y-16241071D02*
X32646714Y-16241071D01*
X32646714Y-16059642D01*
X32683000Y-15950785D01*
X32755571Y-15878214D01*
X32828142Y-15841928D01*
X32973285Y-15805642D01*
X33082142Y-15805642D01*
X33227285Y-15841928D01*
X33299857Y-15878214D01*
X33372428Y-15950785D01*
X33408714Y-16059642D01*
X33408714Y-16241071D01*
X33408714Y-15079928D02*
X33408714Y-15515357D01*
X33408714Y-15297642D02*
X32646714Y-15297642D01*
X32755571Y-15370214D01*
X32828142Y-15442785D01*
X32864428Y-15515357D01*
X33408714Y-14354214D02*
X33408714Y-14789642D01*
X33408714Y-14571928D02*
X32646714Y-14571928D01*
X32755571Y-14644500D01*
X32828142Y-14717071D01*
X32864428Y-14789642D01*
X35994714Y-16241071D02*
X35232714Y-16241071D01*
X35232714Y-16059642D01*
X35269000Y-15950785D01*
X35341571Y-15878214D01*
X35414142Y-15841928D01*
X35559285Y-15805642D01*
X35668142Y-15805642D01*
X35813285Y-15841928D01*
X35885857Y-15878214D01*
X35958428Y-15950785D01*
X35994714Y-16059642D01*
X35994714Y-16241071D01*
X35994714Y-15442785D02*
X35994714Y-15297642D01*
X35958428Y-15225071D01*
X35922142Y-15188785D01*
X35813285Y-15116214D01*
X35668142Y-15079928D01*
X35377857Y-15079928D01*
X35305285Y-15116214D01*
X35269000Y-15152500D01*
X35232714Y-15225071D01*
X35232714Y-15370214D01*
X35269000Y-15442785D01*
X35305285Y-15479071D01*
X35377857Y-15515357D01*
X35559285Y-15515357D01*
X35631857Y-15479071D01*
X35668142Y-15442785D01*
X35704428Y-15370214D01*
X35704428Y-15225071D01*
X35668142Y-15152500D01*
X35631857Y-15116214D01*
X35559285Y-15079928D01*
X38580714Y-16241071D02*
X37818714Y-16241071D01*
X37818714Y-16059642D01*
X37855000Y-15950785D01*
X37927571Y-15878214D01*
X38000142Y-15841928D01*
X38145285Y-15805642D01*
X38254142Y-15805642D01*
X38399285Y-15841928D01*
X38471857Y-15878214D01*
X38544428Y-15950785D01*
X38580714Y-16059642D01*
X38580714Y-16241071D01*
X37818714Y-15551642D02*
X37818714Y-15043642D01*
X38580714Y-15370214D01*
X41166714Y-16241071D02*
X40404714Y-16241071D01*
X40404714Y-16059642D01*
X40441000Y-15950785D01*
X40513571Y-15878214D01*
X40586142Y-15841928D01*
X40731285Y-15805642D01*
X40840142Y-15805642D01*
X40985285Y-15841928D01*
X41057857Y-15878214D01*
X41130428Y-15950785D01*
X41166714Y-16059642D01*
X41166714Y-16241071D01*
X40404714Y-15116214D02*
X40404714Y-15479071D01*
X40767571Y-15515357D01*
X40731285Y-15479071D01*
X40695000Y-15406500D01*
X40695000Y-15225071D01*
X40731285Y-15152500D01*
X40767571Y-15116214D01*
X40840142Y-15079928D01*
X41021571Y-15079928D01*
X41094142Y-15116214D01*
X41130428Y-15152500D01*
X41166714Y-15225071D01*
X41166714Y-15406500D01*
X41130428Y-15479071D01*
X41094142Y-15515357D01*
X43752714Y-16241071D02*
X42990714Y-16241071D01*
X42990714Y-16059642D01*
X43027000Y-15950785D01*
X43099571Y-15878214D01*
X43172142Y-15841928D01*
X43317285Y-15805642D01*
X43426142Y-15805642D01*
X43571285Y-15841928D01*
X43643857Y-15878214D01*
X43716428Y-15950785D01*
X43752714Y-16059642D01*
X43752714Y-16241071D01*
X42990714Y-15551642D02*
X42990714Y-15079928D01*
X43281000Y-15333928D01*
X43281000Y-15225071D01*
X43317285Y-15152500D01*
X43353571Y-15116214D01*
X43426142Y-15079928D01*
X43607571Y-15079928D01*
X43680142Y-15116214D01*
X43716428Y-15152500D01*
X43752714Y-15225071D01*
X43752714Y-15442785D01*
X43716428Y-15515357D01*
X43680142Y-15551642D01*
X46338714Y-16241071D02*
X45576714Y-16241071D01*
X45576714Y-16059642D01*
X45613000Y-15950785D01*
X45685571Y-15878214D01*
X45758142Y-15841928D01*
X45903285Y-15805642D01*
X46012142Y-15805642D01*
X46157285Y-15841928D01*
X46229857Y-15878214D01*
X46302428Y-15950785D01*
X46338714Y-16059642D01*
X46338714Y-16241071D01*
X46338714Y-15079928D02*
X46338714Y-15515357D01*
X46338714Y-15297642D02*
X45576714Y-15297642D01*
X45685571Y-15370214D01*
X45758142Y-15442785D01*
X45794428Y-15515357D01*
D12*
X25085000Y-30835000D02*
X25085000Y-27975000D01*
X23165000Y-30835000D02*
X25085000Y-30835000D01*
X23165000Y-27975000D02*
X23165000Y-30835000D01*
X23260000Y-44370000D02*
X23260000Y-38360000D01*
X30080000Y-42120000D02*
X30080000Y-38360000D01*
X23260000Y-38360000D02*
X24520000Y-38360000D01*
X30080000Y-38360000D02*
X28820000Y-38360000D01*
D13*
X79222953Y-54744000D02*
G75*
G03X79222953Y-54744000I-228953J0D01*
G01*
X51233605Y-54864000D02*
G75*
G03X51233605Y-54864000I-179605J0D01*
G01*
D12*
X61393000Y-55419248D02*
X61393000Y-55941752D01*
X62813000Y-55419248D02*
X62813000Y-55941752D01*
X58104000Y-37997500D02*
X56814000Y-37997500D01*
X72324000Y-51517500D02*
X72324000Y-50817500D01*
X71624000Y-51517500D02*
X72324000Y-51517500D01*
X58104000Y-51517500D02*
X58104000Y-50817500D01*
X58804000Y-51517500D02*
X58104000Y-51517500D01*
X72324000Y-37297500D02*
X72324000Y-37997500D01*
X71624000Y-37297500D02*
X72324000Y-37297500D01*
X58104000Y-37297500D02*
X58104000Y-37997500D01*
X58804000Y-37297500D02*
X58104000Y-37297500D01*
D10*
X45607425Y-44290901D02*
X46615052Y-43283274D01*
X40640000Y-49576524D02*
X40869810Y-49346714D01*
X35513476Y-44450000D02*
X35743286Y-44220190D01*
X40640000Y-39323476D02*
X40410190Y-39553286D01*
X45766524Y-44450000D02*
X45536714Y-44679810D01*
X40640000Y-39323476D02*
X40869810Y-39553286D01*
X35513476Y-44450000D02*
X35743286Y-44679810D01*
X40640000Y-49576524D02*
X40410190Y-49346714D01*
X45766524Y-44450000D02*
X45607425Y-44290901D01*
D12*
X30080000Y-45405000D02*
X30080000Y-51415000D01*
X23260000Y-47655000D02*
X23260000Y-51415000D01*
X30080000Y-51415000D02*
X28820000Y-51415000D01*
X23260000Y-51415000D02*
X24520000Y-51415000D01*
X30170000Y-30825000D02*
X30170000Y-27965000D01*
X28250000Y-30825000D02*
X30170000Y-30825000D01*
X28250000Y-27965000D02*
X28250000Y-30825000D01*
X19260000Y-17800000D02*
X19260000Y-20300000D01*
X17510000Y-16300000D02*
X15510000Y-16300000D01*
X13760000Y-17800000D02*
X13760000Y-20300000D01*
X17510000Y-21800000D02*
X15510000Y-21800000D01*
X18810000Y-17350000D02*
X19260000Y-17800000D01*
X18810000Y-20750000D02*
X19260000Y-20300000D01*
X14210000Y-20750000D02*
X13760000Y-20300000D01*
X14210000Y-17350000D02*
X13760000Y-17800000D01*
X32710000Y-30825000D02*
X32710000Y-27965000D01*
X30790000Y-30825000D02*
X32710000Y-30825000D01*
X30790000Y-27965000D02*
X30790000Y-30825000D01*
X70791000Y-30218748D02*
X70791000Y-30741252D01*
X72211000Y-30218748D02*
X72211000Y-30741252D01*
X70791000Y-26408748D02*
X70791000Y-26931252D01*
X72211000Y-26408748D02*
X72211000Y-26931252D01*
X59234000Y-55437248D02*
X59234000Y-55959752D01*
X60654000Y-55437248D02*
X60654000Y-55959752D01*
X14800000Y-37983748D02*
X14800000Y-40756252D01*
X18220000Y-37983748D02*
X18220000Y-40756252D01*
X27630000Y-30825000D02*
X27630000Y-27965000D01*
X25710000Y-30825000D02*
X27630000Y-30825000D01*
X25710000Y-27965000D02*
X25710000Y-30825000D01*
X20104000Y-47355000D02*
X16254000Y-47355000D01*
X20104000Y-45355000D02*
X16254000Y-45355000D01*
X20104000Y-47355000D02*
X20104000Y-45355000D01*
D10*
X24577380Y-34091404D02*
X23577380Y-34091404D01*
X23577380Y-33710452D01*
X23625000Y-33615214D01*
X23672619Y-33567595D01*
X23767857Y-33519976D01*
X23910714Y-33519976D01*
X24005952Y-33567595D01*
X24053571Y-33615214D01*
X24101190Y-33710452D01*
X24101190Y-34091404D01*
X23577380Y-33186642D02*
X24577380Y-32948547D01*
X23863095Y-32758071D01*
X24577380Y-32567595D01*
X23577380Y-32329500D01*
X24577380Y-31377119D02*
X24101190Y-31710452D01*
X24577380Y-31948547D02*
X23577380Y-31948547D01*
X23577380Y-31567595D01*
X23625000Y-31472357D01*
X23672619Y-31424738D01*
X23767857Y-31377119D01*
X23910714Y-31377119D01*
X24005952Y-31424738D01*
X24053571Y-31472357D01*
X24101190Y-31567595D01*
X24101190Y-31948547D01*
X24577380Y-30424738D02*
X24577380Y-30996166D01*
X24577380Y-30710452D02*
X23577380Y-30710452D01*
X23720238Y-30805690D01*
X23815476Y-30900928D01*
X23863095Y-30996166D01*
X74509523Y-60396380D02*
X73938095Y-60396380D01*
X74223809Y-60396380D02*
X74223809Y-59396380D01*
X74128571Y-59539238D01*
X74033333Y-59634476D01*
X73938095Y-59682095D01*
X75366666Y-59396380D02*
X75176190Y-59396380D01*
X75080952Y-59444000D01*
X75033333Y-59491619D01*
X74938095Y-59634476D01*
X74890476Y-59824952D01*
X74890476Y-60205904D01*
X74938095Y-60301142D01*
X74985714Y-60348761D01*
X75080952Y-60396380D01*
X75271428Y-60396380D01*
X75366666Y-60348761D01*
X75414285Y-60301142D01*
X75461904Y-60205904D01*
X75461904Y-59967809D01*
X75414285Y-59872571D01*
X75366666Y-59824952D01*
X75271428Y-59777333D01*
X75080952Y-59777333D01*
X74985714Y-59824952D01*
X74938095Y-59872571D01*
X74890476Y-59967809D01*
X75890476Y-60396380D02*
X75890476Y-59396380D01*
X76223809Y-60110666D01*
X76557142Y-59396380D01*
X76557142Y-60396380D01*
X77033333Y-60396380D02*
X77033333Y-59396380D01*
X77033333Y-59872571D02*
X77604761Y-59872571D01*
X77604761Y-60396380D02*
X77604761Y-59396380D01*
X77985714Y-59729714D02*
X78509523Y-59729714D01*
X77985714Y-60396380D01*
X78509523Y-60396380D01*
X46569523Y-60650380D02*
X45998095Y-60650380D01*
X46283809Y-60650380D02*
X46283809Y-59650380D01*
X46188571Y-59793238D01*
X46093333Y-59888476D01*
X45998095Y-59936095D01*
X47426666Y-59650380D02*
X47236190Y-59650380D01*
X47140952Y-59698000D01*
X47093333Y-59745619D01*
X46998095Y-59888476D01*
X46950476Y-60078952D01*
X46950476Y-60459904D01*
X46998095Y-60555142D01*
X47045714Y-60602761D01*
X47140952Y-60650380D01*
X47331428Y-60650380D01*
X47426666Y-60602761D01*
X47474285Y-60555142D01*
X47521904Y-60459904D01*
X47521904Y-60221809D01*
X47474285Y-60126571D01*
X47426666Y-60078952D01*
X47331428Y-60031333D01*
X47140952Y-60031333D01*
X47045714Y-60078952D01*
X46998095Y-60126571D01*
X46950476Y-60221809D01*
X47950476Y-60650380D02*
X47950476Y-59650380D01*
X48283809Y-60364666D01*
X48617142Y-59650380D01*
X48617142Y-60650380D01*
X49093333Y-60650380D02*
X49093333Y-59650380D01*
X49093333Y-60126571D02*
X49664761Y-60126571D01*
X49664761Y-60650380D02*
X49664761Y-59650380D01*
X50045714Y-59983714D02*
X50569523Y-59983714D01*
X50045714Y-60650380D01*
X50569523Y-60650380D01*
D14*
X24837571Y-50763714D02*
X24402142Y-50763714D01*
X24619857Y-50763714D02*
X24619857Y-50001714D01*
X24547285Y-50110571D01*
X24474714Y-50183142D01*
X24402142Y-50219428D01*
X25563285Y-50763714D02*
X25127857Y-50763714D01*
X25345571Y-50763714D02*
X25345571Y-50001714D01*
X25273000Y-50110571D01*
X25200428Y-50183142D01*
X25127857Y-50219428D01*
X26289000Y-50763714D02*
X25853571Y-50763714D01*
X26071285Y-50763714D02*
X26071285Y-50001714D01*
X25998714Y-50110571D01*
X25926142Y-50183142D01*
X25853571Y-50219428D01*
X26543000Y-50001714D02*
X27051000Y-50001714D01*
X26724428Y-50763714D01*
X27341285Y-50473428D02*
X27921857Y-50473428D01*
X28212142Y-50001714D02*
X28683857Y-50001714D01*
X28429857Y-50292000D01*
X28538714Y-50292000D01*
X28611285Y-50328285D01*
X28647571Y-50364571D01*
X28683857Y-50437142D01*
X28683857Y-50618571D01*
X28647571Y-50691142D01*
X28611285Y-50727428D01*
X28538714Y-50763714D01*
X28321000Y-50763714D01*
X28248428Y-50727428D01*
X28212142Y-50691142D01*
D10*
X28662380Y-32827261D02*
X28662380Y-32255833D01*
X29662380Y-32541547D02*
X28662380Y-32541547D01*
X28662380Y-32017738D02*
X29662380Y-31351071D01*
X28662380Y-31351071D02*
X29662380Y-32017738D01*
X29662380Y-30446309D02*
X29662380Y-31017738D01*
X29662380Y-30732023D02*
X28662380Y-30732023D01*
X28805238Y-30827261D01*
X28900476Y-30922500D01*
X28948095Y-31017738D01*
X15962380Y-14422380D02*
X15629047Y-13946190D01*
X15390952Y-14422380D02*
X15390952Y-13422380D01*
X15771904Y-13422380D01*
X15867142Y-13470000D01*
X15914761Y-13517619D01*
X15962380Y-13612857D01*
X15962380Y-13755714D01*
X15914761Y-13850952D01*
X15867142Y-13898571D01*
X15771904Y-13946190D01*
X15390952Y-13946190D01*
X16343333Y-14374761D02*
X16486190Y-14422380D01*
X16724285Y-14422380D01*
X16819523Y-14374761D01*
X16867142Y-14327142D01*
X16914761Y-14231904D01*
X16914761Y-14136666D01*
X16867142Y-14041428D01*
X16819523Y-13993809D01*
X16724285Y-13946190D01*
X16533809Y-13898571D01*
X16438571Y-13850952D01*
X16390952Y-13803333D01*
X16343333Y-13708095D01*
X16343333Y-13612857D01*
X16390952Y-13517619D01*
X16438571Y-13470000D01*
X16533809Y-13422380D01*
X16771904Y-13422380D01*
X16914761Y-13470000D01*
X17200476Y-13422380D02*
X17771904Y-13422380D01*
X17486190Y-14422380D02*
X17486190Y-13422380D01*
X32202380Y-32303476D02*
X31726190Y-32636809D01*
X32202380Y-32874904D02*
X31202380Y-32874904D01*
X31202380Y-32493952D01*
X31250000Y-32398714D01*
X31297619Y-32351095D01*
X31392857Y-32303476D01*
X31535714Y-32303476D01*
X31630952Y-32351095D01*
X31678571Y-32398714D01*
X31726190Y-32493952D01*
X31726190Y-32874904D01*
X31202380Y-31970142D02*
X32202380Y-31303476D01*
X31202380Y-31303476D02*
X32202380Y-31970142D01*
X32202380Y-30398714D02*
X32202380Y-30970142D01*
X32202380Y-30684428D02*
X31202380Y-30684428D01*
X31345238Y-30779666D01*
X31440476Y-30874904D01*
X31488095Y-30970142D01*
X27122380Y-33827404D02*
X26122380Y-33827404D01*
X26122380Y-33589309D01*
X26170000Y-33446452D01*
X26265238Y-33351214D01*
X26360476Y-33303595D01*
X26550952Y-33255976D01*
X26693809Y-33255976D01*
X26884285Y-33303595D01*
X26979523Y-33351214D01*
X27074761Y-33446452D01*
X27122380Y-33589309D01*
X27122380Y-33827404D01*
X27122380Y-32303595D02*
X27122380Y-32875023D01*
X27122380Y-32589309D02*
X26122380Y-32589309D01*
X26265238Y-32684547D01*
X26360476Y-32779785D01*
X26408095Y-32875023D01*
X26122380Y-31970261D02*
X26122380Y-31351214D01*
X26503333Y-31684547D01*
X26503333Y-31541690D01*
X26550952Y-31446452D01*
X26598571Y-31398833D01*
X26693809Y-31351214D01*
X26931904Y-31351214D01*
X27027142Y-31398833D01*
X27074761Y-31446452D01*
X27122380Y-31541690D01*
X27122380Y-31827404D01*
X27074761Y-31922642D01*
X27027142Y-31970261D01*
M02*
