%FSLAX45Y45*%
G04 Gerber Fmt 4.5, Leading zero omitted, Abs format (unit mm)*
G04 Created by KiCad (PCBNEW (5.1.2-1)-1) date 2019-12-25 23:24:40*
%MOMM*%
%LPD*%
G04 APERTURE LIST*
%ADD10C,0.050000*%
%ADD11C,0.200000*%
%ADD12C,0.300000*%
G04 APERTURE END LIST*
D10*
X9245600Y-1270000D02*
G75*
G02X9448800Y-1473200I0J-203200D01*
G01*
X9448800Y-7442200D02*
G75*
G02X9245600Y-7645400I-203200J0D01*
G01*
X1473200Y-7645400D02*
G75*
G02X1270000Y-7442200I0J203200D01*
G01*
X1270000Y-1473200D02*
G75*
G02X1473200Y-1270000I203200J0D01*
G01*
X9245600Y-7645400D02*
X1473200Y-7645400D01*
X9448800Y-1473200D02*
X9448800Y-7442200D01*
X1270000Y-7442200D02*
X1270000Y-1473200D01*
X1473200Y-1270000D02*
X9245600Y-1270000D01*
D11*
D12*
X1553928Y-8113614D02*
X1553928Y-7813614D01*
X1625357Y-7813614D01*
X1668214Y-7827900D01*
X1696786Y-7856471D01*
X1711071Y-7885043D01*
X1725357Y-7942186D01*
X1725357Y-7985043D01*
X1711071Y-8042186D01*
X1696786Y-8070757D01*
X1668214Y-8099329D01*
X1625357Y-8113614D01*
X1553928Y-8113614D01*
X1853928Y-8113614D02*
X1853928Y-7913614D01*
X1853928Y-7970757D02*
X1868214Y-7942186D01*
X1882500Y-7927900D01*
X1911071Y-7913614D01*
X1939643Y-7913614D01*
X2039643Y-8113614D02*
X2039643Y-7913614D01*
X2039643Y-7813614D02*
X2025357Y-7827900D01*
X2039643Y-7842186D01*
X2053928Y-7827900D01*
X2039643Y-7813614D01*
X2039643Y-7842186D01*
X2225357Y-8113614D02*
X2196786Y-8099329D01*
X2182500Y-8070757D01*
X2182500Y-7813614D01*
X2382500Y-8113614D02*
X2353928Y-8099329D01*
X2339643Y-8070757D01*
X2339643Y-7813614D01*
X2725357Y-8113614D02*
X2725357Y-7813614D01*
X2825357Y-8027900D01*
X2925357Y-7813614D01*
X2925357Y-8113614D01*
X3196786Y-8113614D02*
X3196786Y-7956471D01*
X3182500Y-7927900D01*
X3153928Y-7913614D01*
X3096786Y-7913614D01*
X3068214Y-7927900D01*
X3196786Y-8099329D02*
X3168214Y-8113614D01*
X3096786Y-8113614D01*
X3068214Y-8099329D01*
X3053928Y-8070757D01*
X3053928Y-8042186D01*
X3068214Y-8013614D01*
X3096786Y-7999329D01*
X3168214Y-7999329D01*
X3196786Y-7985043D01*
X3339643Y-7913614D02*
X3339643Y-8213614D01*
X3339643Y-7927900D02*
X3368214Y-7913614D01*
X3425357Y-7913614D01*
X3453928Y-7927900D01*
X3468214Y-7942186D01*
X3482500Y-7970757D01*
X3482500Y-8056471D01*
X3468214Y-8085043D01*
X3453928Y-8099329D01*
X3425357Y-8113614D01*
X3368214Y-8113614D01*
X3339643Y-8099329D01*
X3611071Y-8085043D02*
X3625357Y-8099329D01*
X3611071Y-8113614D01*
X3596786Y-8099329D01*
X3611071Y-8085043D01*
X3611071Y-8113614D01*
X3611071Y-7927900D02*
X3625357Y-7942186D01*
X3611071Y-7956471D01*
X3596786Y-7942186D01*
X3611071Y-7927900D01*
X3611071Y-7956471D01*
M02*
