M48
; DRILL file {KiCad (5.1.2-1)-1} date Wednesday, April 01, 2020 at 10:22:59 PM
; FORMAT={-:-/ absolute / metric / decimal}
; #@! TF.CreationDate,2020-04-01T22:22:59+05:30
; #@! TF.GenerationSoftware,Kicad,Pcbnew,(5.1.2-1)-1
FMAT,2
METRIC
T1C0.300
T2C0.700
T3C0.550
T4C2.200
%
G90
G05
T1
X18.0Y-21.0
X18.0Y-22.0
X18.0Y-23.0
X18.0Y-24.0
X18.0Y-25.0
X18.0Y-26.0
X18.0Y-27.0
X18.0Y-28.0
X18.0Y-29.0
X18.0Y-30.0
X19.0Y-21.0
X19.0Y-22.0
X19.0Y-23.0
X19.0Y-24.0
X19.0Y-25.0
X19.0Y-26.0
X19.0Y-27.0
X19.0Y-28.0
X19.0Y-29.0
X19.0Y-30.0
X20.0Y-21.0
X20.0Y-22.0
X20.0Y-23.0
X20.0Y-24.0
X20.0Y-25.0
X20.0Y-26.0
X20.0Y-27.0
X20.0Y-28.0
X20.0Y-29.0
X20.0Y-30.0
X25.0Y-21.5
X27.0Y-19.0
X31.0Y-24.5
X32.0Y-38.5
X32.5Y-15.75
X32.5Y-20.25
X33.0Y-12.75
X33.0Y-17.25
X33.5Y-15.75
X33.5Y-20.25
X34.0Y-12.75
X34.0Y-17.25
X34.5Y-15.75
X34.5Y-20.25
X34.625Y-26.0
X35.0Y-12.75
X35.0Y-17.25
X35.0Y-30.75
X35.5Y-15.75
X35.5Y-20.25
X35.5Y-29.75
X35.5Y-43.0
X36.0Y-12.75
X36.0Y-17.25
X36.5Y-15.75
X36.5Y-20.25
X36.5Y-48.75
X36.5Y-53.25
X37.0Y-12.75
X37.0Y-17.25
X37.0Y-51.75
X37.0Y-56.25
X37.5Y-15.75
X37.5Y-20.25
X37.5Y-48.75
X37.5Y-53.25
X38.0Y-12.75
X38.0Y-17.25
X38.0Y-32.25
X38.0Y-35.25
X38.0Y-51.75
X38.0Y-56.25
X38.375Y-40.25
X38.5Y-15.75
X38.5Y-20.25
X38.5Y-48.75
X38.5Y-53.25
X39.0Y-12.75
X39.0Y-17.25
X39.0Y-51.75
X39.0Y-56.25
X39.5Y-15.75
X39.5Y-20.25
X39.5Y-48.75
X39.5Y-53.25
X39.747Y-40.875
X39.75Y-26.0
X40.0Y-12.75
X40.0Y-17.25
X40.0Y-23.027
X40.0Y-51.75
X40.0Y-56.25
X40.125Y-36.875
X40.25Y-25.375
X40.5Y-15.75
X40.5Y-20.25
X40.5Y-48.75
X40.5Y-53.25
X40.75Y-26.0
X41.0Y-12.75
X41.0Y-17.25
X41.0Y-51.75
X41.0Y-56.25
X41.5Y-15.75
X41.5Y-20.25
X41.5Y-48.75
X41.5Y-53.25
X41.759Y-25.375
X42.0Y-12.75
X42.0Y-17.25
X42.0Y-51.75
X42.0Y-56.25
X42.341Y-42.841
X42.375Y-44.375
X42.5Y-15.75
X42.5Y-20.25
X42.5Y-48.75
X42.5Y-53.25
X43.0Y-12.75
X43.0Y-17.25
X43.0Y-21.5
X43.0Y-45.125
X43.0Y-51.75
X43.0Y-56.25
X43.5Y-15.75
X43.5Y-20.25
X43.5Y-23.5
X43.5Y-46.25
X43.5Y-48.75
X43.5Y-53.25
X43.589Y-41.592
X44.0Y-12.75
X44.0Y-17.25
X44.0Y-51.75
X44.0Y-56.25
X44.25Y-30.0
X44.5Y-15.75
X44.5Y-20.25
X44.5Y-47.0
X44.5Y-48.75
X44.5Y-53.25
X44.75Y-29.375
X45.0Y-22.0
X45.0Y-51.75
X45.0Y-56.25
X45.5Y-29.125
X45.5Y-48.75
X45.5Y-53.25
X46.0Y-45.0
X46.0Y-51.75
X46.0Y-56.25
X46.375Y-29.25
X46.5Y-45.568
X46.5Y-48.75
X46.5Y-53.25
X46.645Y-28.575
X47.0Y-51.75
X47.0Y-56.218
X47.5Y-46.096
X47.5Y-48.75
X47.5Y-53.25
X47.995Y-51.745
X48.0Y-56.218
X48.005Y-48.184
X48.469Y-48.744
X48.5Y-53.253
X48.535Y-26.231
X49.1Y-25.74
X49.75Y-25.25
X50.0Y-33.875
X50.392Y-28.608
X50.392Y-31.108
X50.431Y-51.393
X50.5Y-26.0
X51.375Y-52.75
X51.878Y-52.093
X58.0Y-15.75
X58.0Y-20.25
X58.0Y-48.75
X58.0Y-53.25
X58.5Y-12.75
X58.5Y-17.25
X58.5Y-51.75
X58.5Y-56.25
X59.0Y-15.75
X59.0Y-20.25
X59.0Y-48.75
X59.0Y-53.25
X59.5Y-12.75
X59.5Y-17.25
X59.5Y-51.75
X59.5Y-56.25
X60.0Y-15.75
X60.0Y-20.25
X60.0Y-48.75
X60.0Y-53.25
X60.5Y-12.75
X60.5Y-17.25
X60.5Y-51.75
X60.5Y-56.25
X61.0Y-15.75
X61.0Y-20.25
X61.0Y-48.75
X61.0Y-53.25
X61.5Y-12.75
X61.5Y-17.25
X61.5Y-51.75
X61.5Y-56.25
X62.0Y-15.75
X62.0Y-20.25
X62.0Y-48.75
X62.0Y-53.25
X62.5Y-12.75
X62.5Y-17.25
X62.5Y-51.75
X62.5Y-56.25
X63.0Y-15.75
X63.0Y-20.25
X63.0Y-48.75
X63.0Y-53.25
X63.5Y-12.75
X63.5Y-17.25
X63.5Y-51.75
X63.5Y-56.25
X64.0Y-15.75
X64.0Y-20.25
X64.0Y-48.75
X64.0Y-53.25
X64.5Y-12.75
X64.5Y-17.25
X64.5Y-51.75
X64.5Y-56.25
X65.0Y-15.75
X65.0Y-20.25
X65.0Y-48.75
X65.0Y-53.25
X65.5Y-12.75
X65.5Y-17.25
X65.5Y-51.75
X65.5Y-56.25
X66.0Y-15.75
X66.0Y-20.25
X66.0Y-48.75
X66.0Y-53.25
X66.5Y-12.75
X66.5Y-17.25
X66.5Y-51.75
X66.5Y-56.25
X67.0Y-15.75
X67.0Y-20.25
X67.0Y-48.75
X67.0Y-53.25
X67.5Y-12.75
X67.5Y-17.25
X67.5Y-51.75
X67.5Y-56.25
X68.0Y-15.75
X68.0Y-20.25
X68.0Y-48.75
X68.0Y-53.25
X68.5Y-12.75
X68.5Y-17.25
X68.5Y-51.75
X68.5Y-56.25
X69.0Y-15.75
X69.0Y-20.25
X69.0Y-48.75
X69.0Y-53.25
X69.5Y-12.75
X69.5Y-17.25
X69.5Y-51.75
X69.5Y-56.25
X70.0Y-15.75
X70.0Y-20.25
X70.0Y-48.75
X70.0Y-53.25
X40.5Y-31.0
X40.5Y-32.0
X40.5Y-33.0
X40.5Y-34.0
X40.5Y-35.0
X41.5Y-31.0
X41.5Y-32.0
X41.5Y-33.0
X41.5Y-34.0
X41.5Y-35.0
X42.5Y-31.0
X42.5Y-32.0
X42.5Y-33.0
X42.5Y-34.0
X42.5Y-35.0
X43.5Y-31.0
X43.5Y-32.0
X43.5Y-33.0
X43.5Y-34.0
X43.5Y-35.0
X44.5Y-31.0
X44.5Y-32.0
X44.5Y-33.0
X44.5Y-34.0
X44.5Y-35.0
T3
X31.55Y-15.25
X31.55Y-17.75
X35.55Y-51.25
X35.55Y-53.75
X45.45Y-15.25
X45.45Y-17.75
X49.45Y-51.25
X49.45Y-53.75
X57.05Y-15.25
X57.05Y-17.75
X57.05Y-51.25
X57.05Y-53.75
X70.95Y-15.25
X70.95Y-17.75
X70.95Y-51.25
X70.95Y-53.75
T4
X14.5Y-14.5
X14.5Y-54.5
X74.5Y-14.5
X74.5Y-54.5
T2
G00X16.15Y-18.25
M15
G01X15.65Y-18.25
M16
G05
G00X16.15Y-32.75
M15
G01X15.65Y-32.75
M16
G05
G00X22.65Y-18.25
M15
G01X21.15Y-18.25
M16
G05
G00X22.65Y-32.75
M15
G01X21.15Y-32.75
M16
G05
T0
M30
