G04 #@! TF.GenerationSoftware,KiCad,Pcbnew,(5.99.0-1662-g9db296991)*
G04 #@! TF.CreationDate,2020-06-19T13:25:47+05:30*
G04 #@! TF.ProjectId,Alchitry_IO_Shield,416c6368-6974-4727-995f-494f5f536869,rev?*
G04 #@! TF.SameCoordinates,Original*
G04 #@! TF.FileFunction,Legend,Top*
G04 #@! TF.FilePolarity,Positive*
%FSLAX46Y46*%
G04 Gerber Fmt 4.6, Leading zero omitted, Abs format (unit mm)*
G04 Created by KiCad (PCBNEW (5.99.0-1662-g9db296991)) date 2020-06-19 13:25:47*
%MOMM*%
%LPD*%
G01*
G04 APERTURE LIST*
%ADD10C,0.150000*%
%ADD11C,0.120000*%
%ADD12C,0.127000*%
G04 APERTURE END LIST*
D10*
X23457142Y-43271428D02*
X23457142Y-42671428D01*
X23600000Y-42671428D01*
X23685714Y-42700000D01*
X23742857Y-42757142D01*
X23771428Y-42814285D01*
X23800000Y-42928571D01*
X23800000Y-43014285D01*
X23771428Y-43128571D01*
X23742857Y-43185714D01*
X23685714Y-43242857D01*
X23600000Y-43271428D01*
X23457142Y-43271428D01*
X24057142Y-43271428D02*
X24057142Y-42671428D01*
X24400000Y-43271428D02*
X24142857Y-42928571D01*
X24400000Y-42671428D02*
X24057142Y-43014285D01*
X24657142Y-42957142D02*
X24857142Y-42957142D01*
X24942857Y-43271428D02*
X24657142Y-43271428D01*
X24657142Y-42671428D01*
X24942857Y-42671428D01*
X25200000Y-43271428D02*
X25200000Y-42671428D01*
X25542857Y-43271428D01*
X25542857Y-42671428D01*
X30957142Y-50271428D02*
X30957142Y-49671428D01*
X31100000Y-49671428D01*
X31185714Y-49700000D01*
X31242857Y-49757142D01*
X31271428Y-49814285D01*
X31300000Y-49928571D01*
X31300000Y-50014285D01*
X31271428Y-50128571D01*
X31242857Y-50185714D01*
X31185714Y-50242857D01*
X31100000Y-50271428D01*
X30957142Y-50271428D01*
X31557142Y-50271428D02*
X31557142Y-49671428D01*
X31900000Y-50271428D02*
X31642857Y-49928571D01*
X31900000Y-49671428D02*
X31557142Y-50014285D01*
X32100000Y-49671428D02*
X32471428Y-49671428D01*
X32271428Y-49900000D01*
X32357142Y-49900000D01*
X32414285Y-49928571D01*
X32442857Y-49957142D01*
X32471428Y-50014285D01*
X32471428Y-50157142D01*
X32442857Y-50214285D01*
X32414285Y-50242857D01*
X32357142Y-50271428D01*
X32185714Y-50271428D01*
X32128571Y-50242857D01*
X32100000Y-50214285D01*
X30957142Y-46971428D02*
X30957142Y-46371428D01*
X31100000Y-46371428D01*
X31185714Y-46400000D01*
X31242857Y-46457142D01*
X31271428Y-46514285D01*
X31300000Y-46628571D01*
X31300000Y-46714285D01*
X31271428Y-46828571D01*
X31242857Y-46885714D01*
X31185714Y-46942857D01*
X31100000Y-46971428D01*
X30957142Y-46971428D01*
X31557142Y-46971428D02*
X31557142Y-46371428D01*
X31900000Y-46971428D02*
X31642857Y-46628571D01*
X31900000Y-46371428D02*
X31557142Y-46714285D01*
X32128571Y-46428571D02*
X32157142Y-46400000D01*
X32214285Y-46371428D01*
X32357142Y-46371428D01*
X32414285Y-46400000D01*
X32442857Y-46428571D01*
X32471428Y-46485714D01*
X32471428Y-46542857D01*
X32442857Y-46628571D01*
X32100000Y-46971428D01*
X32471428Y-46971428D01*
X28357142Y-43571428D02*
X28357142Y-42971428D01*
X28500000Y-42971428D01*
X28585714Y-43000000D01*
X28642857Y-43057142D01*
X28671428Y-43114285D01*
X28700000Y-43228571D01*
X28700000Y-43314285D01*
X28671428Y-43428571D01*
X28642857Y-43485714D01*
X28585714Y-43542857D01*
X28500000Y-43571428D01*
X28357142Y-43571428D01*
X28957142Y-43571428D02*
X28957142Y-42971428D01*
X29300000Y-43571428D02*
X29042857Y-43228571D01*
X29300000Y-42971428D02*
X28957142Y-43314285D01*
X29871428Y-43571428D02*
X29528571Y-43571428D01*
X29700000Y-43571428D02*
X29700000Y-42971428D01*
X29642857Y-43057142D01*
X29585714Y-43114285D01*
X29528571Y-43142857D01*
X29910714Y-22022380D02*
X29910714Y-21022380D01*
X30148809Y-21022380D01*
X30291666Y-21070000D01*
X30386904Y-21165238D01*
X30434523Y-21260476D01*
X30482142Y-21450952D01*
X30482142Y-21593809D01*
X30434523Y-21784285D01*
X30386904Y-21879523D01*
X30291666Y-21974761D01*
X30148809Y-22022380D01*
X29910714Y-22022380D01*
X30863095Y-21117619D02*
X30910714Y-21070000D01*
X31005952Y-21022380D01*
X31244047Y-21022380D01*
X31339285Y-21070000D01*
X31386904Y-21117619D01*
X31434523Y-21212857D01*
X31434523Y-21308095D01*
X31386904Y-21450952D01*
X30815476Y-22022380D01*
X31434523Y-22022380D01*
X31767857Y-21022380D02*
X32386904Y-21022380D01*
X32053571Y-21403333D01*
X32196428Y-21403333D01*
X32291666Y-21450952D01*
X32339285Y-21498571D01*
X32386904Y-21593809D01*
X32386904Y-21831904D01*
X32339285Y-21927142D01*
X32291666Y-21974761D01*
X32196428Y-22022380D01*
X31910714Y-22022380D01*
X31815476Y-21974761D01*
X31767857Y-21927142D01*
X33910714Y-22022380D02*
X33910714Y-21022380D01*
X34148809Y-21022380D01*
X34291666Y-21070000D01*
X34386904Y-21165238D01*
X34434523Y-21260476D01*
X34482142Y-21450952D01*
X34482142Y-21593809D01*
X34434523Y-21784285D01*
X34386904Y-21879523D01*
X34291666Y-21974761D01*
X34148809Y-22022380D01*
X33910714Y-22022380D01*
X34863095Y-21117619D02*
X34910714Y-21070000D01*
X35005952Y-21022380D01*
X35244047Y-21022380D01*
X35339285Y-21070000D01*
X35386904Y-21117619D01*
X35434523Y-21212857D01*
X35434523Y-21308095D01*
X35386904Y-21450952D01*
X34815476Y-22022380D01*
X35434523Y-22022380D01*
X35815476Y-21117619D02*
X35863095Y-21070000D01*
X35958333Y-21022380D01*
X36196428Y-21022380D01*
X36291666Y-21070000D01*
X36339285Y-21117619D01*
X36386904Y-21212857D01*
X36386904Y-21308095D01*
X36339285Y-21450952D01*
X35767857Y-22022380D01*
X36386904Y-22022380D01*
X37910714Y-22022380D02*
X37910714Y-21022380D01*
X38148809Y-21022380D01*
X38291666Y-21070000D01*
X38386904Y-21165238D01*
X38434523Y-21260476D01*
X38482142Y-21450952D01*
X38482142Y-21593809D01*
X38434523Y-21784285D01*
X38386904Y-21879523D01*
X38291666Y-21974761D01*
X38148809Y-22022380D01*
X37910714Y-22022380D01*
X38863095Y-21117619D02*
X38910714Y-21070000D01*
X39005952Y-21022380D01*
X39244047Y-21022380D01*
X39339285Y-21070000D01*
X39386904Y-21117619D01*
X39434523Y-21212857D01*
X39434523Y-21308095D01*
X39386904Y-21450952D01*
X38815476Y-22022380D01*
X39434523Y-22022380D01*
X40386904Y-22022380D02*
X39815476Y-22022380D01*
X40101190Y-22022380D02*
X40101190Y-21022380D01*
X40005952Y-21165238D01*
X39910714Y-21260476D01*
X39815476Y-21308095D01*
X41910714Y-22022380D02*
X41910714Y-21022380D01*
X42148809Y-21022380D01*
X42291666Y-21070000D01*
X42386904Y-21165238D01*
X42434523Y-21260476D01*
X42482142Y-21450952D01*
X42482142Y-21593809D01*
X42434523Y-21784285D01*
X42386904Y-21879523D01*
X42291666Y-21974761D01*
X42148809Y-22022380D01*
X41910714Y-22022380D01*
X42863095Y-21117619D02*
X42910714Y-21070000D01*
X43005952Y-21022380D01*
X43244047Y-21022380D01*
X43339285Y-21070000D01*
X43386904Y-21117619D01*
X43434523Y-21212857D01*
X43434523Y-21308095D01*
X43386904Y-21450952D01*
X42815476Y-22022380D01*
X43434523Y-22022380D01*
X44053571Y-21022380D02*
X44148809Y-21022380D01*
X44244047Y-21070000D01*
X44291666Y-21117619D01*
X44339285Y-21212857D01*
X44386904Y-21403333D01*
X44386904Y-21641428D01*
X44339285Y-21831904D01*
X44291666Y-21927142D01*
X44244047Y-21974761D01*
X44148809Y-22022380D01*
X44053571Y-22022380D01*
X43958333Y-21974761D01*
X43910714Y-21927142D01*
X43863095Y-21831904D01*
X43815476Y-21641428D01*
X43815476Y-21403333D01*
X43863095Y-21212857D01*
X43910714Y-21117619D01*
X43958333Y-21070000D01*
X44053571Y-21022380D01*
X29910714Y-25022380D02*
X29910714Y-24022380D01*
X30148809Y-24022380D01*
X30291666Y-24070000D01*
X30386904Y-24165238D01*
X30434523Y-24260476D01*
X30482142Y-24450952D01*
X30482142Y-24593809D01*
X30434523Y-24784285D01*
X30386904Y-24879523D01*
X30291666Y-24974761D01*
X30148809Y-25022380D01*
X29910714Y-25022380D01*
X31434523Y-25022380D02*
X30863095Y-25022380D01*
X31148809Y-25022380D02*
X31148809Y-24022380D01*
X31053571Y-24165238D01*
X30958333Y-24260476D01*
X30863095Y-24308095D01*
X31910714Y-25022380D02*
X32101190Y-25022380D01*
X32196428Y-24974761D01*
X32244047Y-24927142D01*
X32339285Y-24784285D01*
X32386904Y-24593809D01*
X32386904Y-24212857D01*
X32339285Y-24117619D01*
X32291666Y-24070000D01*
X32196428Y-24022380D01*
X32005952Y-24022380D01*
X31910714Y-24070000D01*
X31863095Y-24117619D01*
X31815476Y-24212857D01*
X31815476Y-24450952D01*
X31863095Y-24546190D01*
X31910714Y-24593809D01*
X32005952Y-24641428D01*
X32196428Y-24641428D01*
X32291666Y-24593809D01*
X32339285Y-24546190D01*
X32386904Y-24450952D01*
X33910714Y-25022380D02*
X33910714Y-24022380D01*
X34148809Y-24022380D01*
X34291666Y-24070000D01*
X34386904Y-24165238D01*
X34434523Y-24260476D01*
X34482142Y-24450952D01*
X34482142Y-24593809D01*
X34434523Y-24784285D01*
X34386904Y-24879523D01*
X34291666Y-24974761D01*
X34148809Y-25022380D01*
X33910714Y-25022380D01*
X35434523Y-25022380D02*
X34863095Y-25022380D01*
X35148809Y-25022380D02*
X35148809Y-24022380D01*
X35053571Y-24165238D01*
X34958333Y-24260476D01*
X34863095Y-24308095D01*
X36005952Y-24450952D02*
X35910714Y-24403333D01*
X35863095Y-24355714D01*
X35815476Y-24260476D01*
X35815476Y-24212857D01*
X35863095Y-24117619D01*
X35910714Y-24070000D01*
X36005952Y-24022380D01*
X36196428Y-24022380D01*
X36291666Y-24070000D01*
X36339285Y-24117619D01*
X36386904Y-24212857D01*
X36386904Y-24260476D01*
X36339285Y-24355714D01*
X36291666Y-24403333D01*
X36196428Y-24450952D01*
X36005952Y-24450952D01*
X35910714Y-24498571D01*
X35863095Y-24546190D01*
X35815476Y-24641428D01*
X35815476Y-24831904D01*
X35863095Y-24927142D01*
X35910714Y-24974761D01*
X36005952Y-25022380D01*
X36196428Y-25022380D01*
X36291666Y-24974761D01*
X36339285Y-24927142D01*
X36386904Y-24831904D01*
X36386904Y-24641428D01*
X36339285Y-24546190D01*
X36291666Y-24498571D01*
X36196428Y-24450952D01*
X37910714Y-25022380D02*
X37910714Y-24022380D01*
X38148809Y-24022380D01*
X38291666Y-24070000D01*
X38386904Y-24165238D01*
X38434523Y-24260476D01*
X38482142Y-24450952D01*
X38482142Y-24593809D01*
X38434523Y-24784285D01*
X38386904Y-24879523D01*
X38291666Y-24974761D01*
X38148809Y-25022380D01*
X37910714Y-25022380D01*
X39434523Y-25022380D02*
X38863095Y-25022380D01*
X39148809Y-25022380D02*
X39148809Y-24022380D01*
X39053571Y-24165238D01*
X38958333Y-24260476D01*
X38863095Y-24308095D01*
X39767857Y-24022380D02*
X40434523Y-24022380D01*
X40005952Y-25022380D01*
X41910714Y-25022380D02*
X41910714Y-24022380D01*
X42148809Y-24022380D01*
X42291666Y-24070000D01*
X42386904Y-24165238D01*
X42434523Y-24260476D01*
X42482142Y-24450952D01*
X42482142Y-24593809D01*
X42434523Y-24784285D01*
X42386904Y-24879523D01*
X42291666Y-24974761D01*
X42148809Y-25022380D01*
X41910714Y-25022380D01*
X43434523Y-25022380D02*
X42863095Y-25022380D01*
X43148809Y-25022380D02*
X43148809Y-24022380D01*
X43053571Y-24165238D01*
X42958333Y-24260476D01*
X42863095Y-24308095D01*
X44291666Y-24022380D02*
X44101190Y-24022380D01*
X44005952Y-24070000D01*
X43958333Y-24117619D01*
X43863095Y-24260476D01*
X43815476Y-24450952D01*
X43815476Y-24831904D01*
X43863095Y-24927142D01*
X43910714Y-24974761D01*
X44005952Y-25022380D01*
X44196428Y-25022380D01*
X44291666Y-24974761D01*
X44339285Y-24927142D01*
X44386904Y-24831904D01*
X44386904Y-24593809D01*
X44339285Y-24498571D01*
X44291666Y-24450952D01*
X44196428Y-24403333D01*
X44005952Y-24403333D01*
X43910714Y-24450952D01*
X43863095Y-24498571D01*
X43815476Y-24593809D01*
X29910714Y-28022380D02*
X29910714Y-27022380D01*
X30148809Y-27022380D01*
X30291666Y-27070000D01*
X30386904Y-27165238D01*
X30434523Y-27260476D01*
X30482142Y-27450952D01*
X30482142Y-27593809D01*
X30434523Y-27784285D01*
X30386904Y-27879523D01*
X30291666Y-27974761D01*
X30148809Y-28022380D01*
X29910714Y-28022380D01*
X31434523Y-28022380D02*
X30863095Y-28022380D01*
X31148809Y-28022380D02*
X31148809Y-27022380D01*
X31053571Y-27165238D01*
X30958333Y-27260476D01*
X30863095Y-27308095D01*
X32339285Y-27022380D02*
X31863095Y-27022380D01*
X31815476Y-27498571D01*
X31863095Y-27450952D01*
X31958333Y-27403333D01*
X32196428Y-27403333D01*
X32291666Y-27450952D01*
X32339285Y-27498571D01*
X32386904Y-27593809D01*
X32386904Y-27831904D01*
X32339285Y-27927142D01*
X32291666Y-27974761D01*
X32196428Y-28022380D01*
X31958333Y-28022380D01*
X31863095Y-27974761D01*
X31815476Y-27927142D01*
X33910714Y-28022380D02*
X33910714Y-27022380D01*
X34148809Y-27022380D01*
X34291666Y-27070000D01*
X34386904Y-27165238D01*
X34434523Y-27260476D01*
X34482142Y-27450952D01*
X34482142Y-27593809D01*
X34434523Y-27784285D01*
X34386904Y-27879523D01*
X34291666Y-27974761D01*
X34148809Y-28022380D01*
X33910714Y-28022380D01*
X35434523Y-28022380D02*
X34863095Y-28022380D01*
X35148809Y-28022380D02*
X35148809Y-27022380D01*
X35053571Y-27165238D01*
X34958333Y-27260476D01*
X34863095Y-27308095D01*
X36291666Y-27355714D02*
X36291666Y-28022380D01*
X36053571Y-26974761D02*
X35815476Y-27689047D01*
X36434523Y-27689047D01*
X37910714Y-28022380D02*
X37910714Y-27022380D01*
X38148809Y-27022380D01*
X38291666Y-27070000D01*
X38386904Y-27165238D01*
X38434523Y-27260476D01*
X38482142Y-27450952D01*
X38482142Y-27593809D01*
X38434523Y-27784285D01*
X38386904Y-27879523D01*
X38291666Y-27974761D01*
X38148809Y-28022380D01*
X37910714Y-28022380D01*
X39434523Y-28022380D02*
X38863095Y-28022380D01*
X39148809Y-28022380D02*
X39148809Y-27022380D01*
X39053571Y-27165238D01*
X38958333Y-27260476D01*
X38863095Y-27308095D01*
X39767857Y-27022380D02*
X40386904Y-27022380D01*
X40053571Y-27403333D01*
X40196428Y-27403333D01*
X40291666Y-27450952D01*
X40339285Y-27498571D01*
X40386904Y-27593809D01*
X40386904Y-27831904D01*
X40339285Y-27927142D01*
X40291666Y-27974761D01*
X40196428Y-28022380D01*
X39910714Y-28022380D01*
X39815476Y-27974761D01*
X39767857Y-27927142D01*
X41910714Y-28022380D02*
X41910714Y-27022380D01*
X42148809Y-27022380D01*
X42291666Y-27070000D01*
X42386904Y-27165238D01*
X42434523Y-27260476D01*
X42482142Y-27450952D01*
X42482142Y-27593809D01*
X42434523Y-27784285D01*
X42386904Y-27879523D01*
X42291666Y-27974761D01*
X42148809Y-28022380D01*
X41910714Y-28022380D01*
X43434523Y-28022380D02*
X42863095Y-28022380D01*
X43148809Y-28022380D02*
X43148809Y-27022380D01*
X43053571Y-27165238D01*
X42958333Y-27260476D01*
X42863095Y-27308095D01*
X43815476Y-27117619D02*
X43863095Y-27070000D01*
X43958333Y-27022380D01*
X44196428Y-27022380D01*
X44291666Y-27070000D01*
X44339285Y-27117619D01*
X44386904Y-27212857D01*
X44386904Y-27308095D01*
X44339285Y-27450952D01*
X43767857Y-28022380D01*
X44386904Y-28022380D01*
X29910714Y-31022380D02*
X29910714Y-30022380D01*
X30148809Y-30022380D01*
X30291666Y-30070000D01*
X30386904Y-30165238D01*
X30434523Y-30260476D01*
X30482142Y-30450952D01*
X30482142Y-30593809D01*
X30434523Y-30784285D01*
X30386904Y-30879523D01*
X30291666Y-30974761D01*
X30148809Y-31022380D01*
X29910714Y-31022380D01*
X31434523Y-31022380D02*
X30863095Y-31022380D01*
X31148809Y-31022380D02*
X31148809Y-30022380D01*
X31053571Y-30165238D01*
X30958333Y-30260476D01*
X30863095Y-30308095D01*
X32386904Y-31022380D02*
X31815476Y-31022380D01*
X32101190Y-31022380D02*
X32101190Y-30022380D01*
X32005952Y-30165238D01*
X31910714Y-30260476D01*
X31815476Y-30308095D01*
X33910714Y-31022380D02*
X33910714Y-30022380D01*
X34148809Y-30022380D01*
X34291666Y-30070000D01*
X34386904Y-30165238D01*
X34434523Y-30260476D01*
X34482142Y-30450952D01*
X34482142Y-30593809D01*
X34434523Y-30784285D01*
X34386904Y-30879523D01*
X34291666Y-30974761D01*
X34148809Y-31022380D01*
X33910714Y-31022380D01*
X35434523Y-31022380D02*
X34863095Y-31022380D01*
X35148809Y-31022380D02*
X35148809Y-30022380D01*
X35053571Y-30165238D01*
X34958333Y-30260476D01*
X34863095Y-30308095D01*
X36053571Y-30022380D02*
X36148809Y-30022380D01*
X36244047Y-30070000D01*
X36291666Y-30117619D01*
X36339285Y-30212857D01*
X36386904Y-30403333D01*
X36386904Y-30641428D01*
X36339285Y-30831904D01*
X36291666Y-30927142D01*
X36244047Y-30974761D01*
X36148809Y-31022380D01*
X36053571Y-31022380D01*
X35958333Y-30974761D01*
X35910714Y-30927142D01*
X35863095Y-30831904D01*
X35815476Y-30641428D01*
X35815476Y-30403333D01*
X35863095Y-30212857D01*
X35910714Y-30117619D01*
X35958333Y-30070000D01*
X36053571Y-30022380D01*
X38386904Y-31022380D02*
X38386904Y-30022380D01*
X38625000Y-30022380D01*
X38767857Y-30070000D01*
X38863095Y-30165238D01*
X38910714Y-30260476D01*
X38958333Y-30450952D01*
X38958333Y-30593809D01*
X38910714Y-30784285D01*
X38863095Y-30879523D01*
X38767857Y-30974761D01*
X38625000Y-31022380D01*
X38386904Y-31022380D01*
X39434523Y-31022380D02*
X39625000Y-31022380D01*
X39720238Y-30974761D01*
X39767857Y-30927142D01*
X39863095Y-30784285D01*
X39910714Y-30593809D01*
X39910714Y-30212857D01*
X39863095Y-30117619D01*
X39815476Y-30070000D01*
X39720238Y-30022380D01*
X39529761Y-30022380D01*
X39434523Y-30070000D01*
X39386904Y-30117619D01*
X39339285Y-30212857D01*
X39339285Y-30450952D01*
X39386904Y-30546190D01*
X39434523Y-30593809D01*
X39529761Y-30641428D01*
X39720238Y-30641428D01*
X39815476Y-30593809D01*
X39863095Y-30546190D01*
X39910714Y-30450952D01*
X42386904Y-31022380D02*
X42386904Y-30022380D01*
X42625000Y-30022380D01*
X42767857Y-30070000D01*
X42863095Y-30165238D01*
X42910714Y-30260476D01*
X42958333Y-30450952D01*
X42958333Y-30593809D01*
X42910714Y-30784285D01*
X42863095Y-30879523D01*
X42767857Y-30974761D01*
X42625000Y-31022380D01*
X42386904Y-31022380D01*
X43529761Y-30450952D02*
X43434523Y-30403333D01*
X43386904Y-30355714D01*
X43339285Y-30260476D01*
X43339285Y-30212857D01*
X43386904Y-30117619D01*
X43434523Y-30070000D01*
X43529761Y-30022380D01*
X43720238Y-30022380D01*
X43815476Y-30070000D01*
X43863095Y-30117619D01*
X43910714Y-30212857D01*
X43910714Y-30260476D01*
X43863095Y-30355714D01*
X43815476Y-30403333D01*
X43720238Y-30450952D01*
X43529761Y-30450952D01*
X43434523Y-30498571D01*
X43386904Y-30546190D01*
X43339285Y-30641428D01*
X43339285Y-30831904D01*
X43386904Y-30927142D01*
X43434523Y-30974761D01*
X43529761Y-31022380D01*
X43720238Y-31022380D01*
X43815476Y-30974761D01*
X43863095Y-30927142D01*
X43910714Y-30831904D01*
X43910714Y-30641428D01*
X43863095Y-30546190D01*
X43815476Y-30498571D01*
X43720238Y-30450952D01*
X30386904Y-34022380D02*
X30386904Y-33022380D01*
X30625000Y-33022380D01*
X30767857Y-33070000D01*
X30863095Y-33165238D01*
X30910714Y-33260476D01*
X30958333Y-33450952D01*
X30958333Y-33593809D01*
X30910714Y-33784285D01*
X30863095Y-33879523D01*
X30767857Y-33974761D01*
X30625000Y-34022380D01*
X30386904Y-34022380D01*
X31291666Y-33022380D02*
X31958333Y-33022380D01*
X31529761Y-34022380D01*
X34386904Y-34022380D02*
X34386904Y-33022380D01*
X34625000Y-33022380D01*
X34767857Y-33070000D01*
X34863095Y-33165238D01*
X34910714Y-33260476D01*
X34958333Y-33450952D01*
X34958333Y-33593809D01*
X34910714Y-33784285D01*
X34863095Y-33879523D01*
X34767857Y-33974761D01*
X34625000Y-34022380D01*
X34386904Y-34022380D01*
X35815476Y-33022380D02*
X35625000Y-33022380D01*
X35529761Y-33070000D01*
X35482142Y-33117619D01*
X35386904Y-33260476D01*
X35339285Y-33450952D01*
X35339285Y-33831904D01*
X35386904Y-33927142D01*
X35434523Y-33974761D01*
X35529761Y-34022380D01*
X35720238Y-34022380D01*
X35815476Y-33974761D01*
X35863095Y-33927142D01*
X35910714Y-33831904D01*
X35910714Y-33593809D01*
X35863095Y-33498571D01*
X35815476Y-33450952D01*
X35720238Y-33403333D01*
X35529761Y-33403333D01*
X35434523Y-33450952D01*
X35386904Y-33498571D01*
X35339285Y-33593809D01*
X38386904Y-34022380D02*
X38386904Y-33022380D01*
X38625000Y-33022380D01*
X38767857Y-33070000D01*
X38863095Y-33165238D01*
X38910714Y-33260476D01*
X38958333Y-33450952D01*
X38958333Y-33593809D01*
X38910714Y-33784285D01*
X38863095Y-33879523D01*
X38767857Y-33974761D01*
X38625000Y-34022380D01*
X38386904Y-34022380D01*
X39863095Y-33022380D02*
X39386904Y-33022380D01*
X39339285Y-33498571D01*
X39386904Y-33450952D01*
X39482142Y-33403333D01*
X39720238Y-33403333D01*
X39815476Y-33450952D01*
X39863095Y-33498571D01*
X39910714Y-33593809D01*
X39910714Y-33831904D01*
X39863095Y-33927142D01*
X39815476Y-33974761D01*
X39720238Y-34022380D01*
X39482142Y-34022380D01*
X39386904Y-33974761D01*
X39339285Y-33927142D01*
X42386904Y-34022380D02*
X42386904Y-33022380D01*
X42625000Y-33022380D01*
X42767857Y-33070000D01*
X42863095Y-33165238D01*
X42910714Y-33260476D01*
X42958333Y-33450952D01*
X42958333Y-33593809D01*
X42910714Y-33784285D01*
X42863095Y-33879523D01*
X42767857Y-33974761D01*
X42625000Y-34022380D01*
X42386904Y-34022380D01*
X43815476Y-33355714D02*
X43815476Y-34022380D01*
X43577380Y-32974761D02*
X43339285Y-33689047D01*
X43958333Y-33689047D01*
X30386904Y-37022380D02*
X30386904Y-36022380D01*
X30625000Y-36022380D01*
X30767857Y-36070000D01*
X30863095Y-36165238D01*
X30910714Y-36260476D01*
X30958333Y-36450952D01*
X30958333Y-36593809D01*
X30910714Y-36784285D01*
X30863095Y-36879523D01*
X30767857Y-36974761D01*
X30625000Y-37022380D01*
X30386904Y-37022380D01*
X31291666Y-36022380D02*
X31910714Y-36022380D01*
X31577380Y-36403333D01*
X31720238Y-36403333D01*
X31815476Y-36450952D01*
X31863095Y-36498571D01*
X31910714Y-36593809D01*
X31910714Y-36831904D01*
X31863095Y-36927142D01*
X31815476Y-36974761D01*
X31720238Y-37022380D01*
X31434523Y-37022380D01*
X31339285Y-36974761D01*
X31291666Y-36927142D01*
X34386904Y-37022380D02*
X34386904Y-36022380D01*
X34625000Y-36022380D01*
X34767857Y-36070000D01*
X34863095Y-36165238D01*
X34910714Y-36260476D01*
X34958333Y-36450952D01*
X34958333Y-36593809D01*
X34910714Y-36784285D01*
X34863095Y-36879523D01*
X34767857Y-36974761D01*
X34625000Y-37022380D01*
X34386904Y-37022380D01*
X35339285Y-36117619D02*
X35386904Y-36070000D01*
X35482142Y-36022380D01*
X35720238Y-36022380D01*
X35815476Y-36070000D01*
X35863095Y-36117619D01*
X35910714Y-36212857D01*
X35910714Y-36308095D01*
X35863095Y-36450952D01*
X35291666Y-37022380D01*
X35910714Y-37022380D01*
X38386904Y-37022380D02*
X38386904Y-36022380D01*
X38625000Y-36022380D01*
X38767857Y-36070000D01*
X38863095Y-36165238D01*
X38910714Y-36260476D01*
X38958333Y-36450952D01*
X38958333Y-36593809D01*
X38910714Y-36784285D01*
X38863095Y-36879523D01*
X38767857Y-36974761D01*
X38625000Y-37022380D01*
X38386904Y-37022380D01*
X39910714Y-37022380D02*
X39339285Y-37022380D01*
X39625000Y-37022380D02*
X39625000Y-36022380D01*
X39529761Y-36165238D01*
X39434523Y-36260476D01*
X39339285Y-36308095D01*
X42386904Y-37022380D02*
X42386904Y-36022380D01*
X42625000Y-36022380D01*
X42767857Y-36070000D01*
X42863095Y-36165238D01*
X42910714Y-36260476D01*
X42958333Y-36450952D01*
X42958333Y-36593809D01*
X42910714Y-36784285D01*
X42863095Y-36879523D01*
X42767857Y-36974761D01*
X42625000Y-37022380D01*
X42386904Y-37022380D01*
X43577380Y-36022380D02*
X43672619Y-36022380D01*
X43767857Y-36070000D01*
X43815476Y-36117619D01*
X43863095Y-36212857D01*
X43910714Y-36403333D01*
X43910714Y-36641428D01*
X43863095Y-36831904D01*
X43815476Y-36927142D01*
X43767857Y-36974761D01*
X43672619Y-37022380D01*
X43577380Y-37022380D01*
X43482142Y-36974761D01*
X43434523Y-36927142D01*
X43386904Y-36831904D01*
X43339285Y-36641428D01*
X43339285Y-36403333D01*
X43386904Y-36212857D01*
X43434523Y-36117619D01*
X43482142Y-36070000D01*
X43577380Y-36022380D01*
X12238095Y-57452380D02*
X12238095Y-58261904D01*
X12285714Y-58357142D01*
X12333333Y-58404761D01*
X12428571Y-58452380D01*
X12619047Y-58452380D01*
X12714285Y-58404761D01*
X12761904Y-58357142D01*
X12809523Y-58261904D01*
X12809523Y-57452380D01*
X13476190Y-57452380D02*
X13571428Y-57452380D01*
X13666666Y-57500000D01*
X13714285Y-57547619D01*
X13761904Y-57642857D01*
X13809523Y-57833333D01*
X13809523Y-58071428D01*
X13761904Y-58261904D01*
X13714285Y-58357142D01*
X13666666Y-58404761D01*
X13571428Y-58452380D01*
X13476190Y-58452380D01*
X13380952Y-58404761D01*
X13333333Y-58357142D01*
X13285714Y-58261904D01*
X13238095Y-58071428D01*
X13238095Y-57833333D01*
X13285714Y-57642857D01*
X13333333Y-57547619D01*
X13380952Y-57500000D01*
X13476190Y-57452380D01*
D11*
X23740000Y-43500000D02*
X25250000Y-43500000D01*
X25550000Y-43800000D02*
X25550000Y-44400000D01*
X25250000Y-44700000D02*
X23740000Y-44700000D01*
X23440000Y-44400000D02*
X23440000Y-43800000D01*
X25250000Y-43500000D02*
G75*
G02*
X25550000Y-43800000I0J-300000D01*
G01*
X23740000Y-44700000D02*
G75*
G02*
X23440000Y-44400000I0J300000D01*
G01*
X25550000Y-44400000D02*
G75*
G02*
X25250000Y-44700000I-300000J0D01*
G01*
X23440000Y-43800000D02*
G75*
G02*
X23740000Y-43500000I300000J0D01*
G01*
X30800000Y-48650000D02*
X30800000Y-51250000D01*
X30500000Y-51550000D02*
X29900000Y-51550000D01*
X29600000Y-51250000D02*
X29600000Y-48650000D01*
X29900000Y-48350000D02*
X30500000Y-48350000D01*
X30800000Y-51250000D02*
G75*
G02*
X30500000Y-51550000I-300000J0D01*
G01*
X29600000Y-48650000D02*
G75*
G02*
X29900000Y-48350000I300000J0D01*
G01*
X29900000Y-51550000D02*
G75*
G02*
X29600000Y-51250000I0J300000D01*
G01*
X30500000Y-48350000D02*
G75*
G02*
X30800000Y-48650000I0J-300000D01*
G01*
X30800000Y-45350000D02*
X30800000Y-47950000D01*
X30500000Y-48250000D02*
X29900000Y-48250000D01*
X29600000Y-47950000D02*
X29600000Y-45350000D01*
X29900000Y-45050000D02*
X30500000Y-45050000D01*
X30800000Y-47950000D02*
G75*
G02*
X30500000Y-48250000I-300000J0D01*
G01*
X29600000Y-45350000D02*
G75*
G02*
X29900000Y-45050000I300000J0D01*
G01*
X29900000Y-48250000D02*
G75*
G02*
X29600000Y-47950000I0J300000D01*
G01*
X30500000Y-45050000D02*
G75*
G02*
X30800000Y-45350000I0J-300000D01*
G01*
X30400000Y-44950000D02*
X27800000Y-44950000D01*
X27500000Y-44650000D02*
X27500000Y-44050000D01*
X27800000Y-43750000D02*
X30400000Y-43750000D01*
X30700000Y-44050000D02*
X30700000Y-44650000D01*
X27800000Y-44950000D02*
G75*
G02*
X27500000Y-44650000I0J300000D01*
G01*
X30400000Y-43750000D02*
G75*
G02*
X30700000Y-44050000I0J-300000D01*
G01*
X27500000Y-44050000D02*
G75*
G02*
X27800000Y-43750000I300000J0D01*
G01*
X30700000Y-44650000D02*
G75*
G02*
X30400000Y-44950000I-300000J0D01*
G01*
X59775000Y-31760000D02*
X59775000Y-26240000D01*
X48875000Y-33610000D02*
X48875000Y-31760000D01*
X48225000Y-31760000D02*
X48875000Y-31760000D01*
X48225000Y-31760000D02*
X48225000Y-26240000D01*
X48225000Y-26240000D02*
X49494000Y-26240000D01*
X58505000Y-31760000D02*
X59775000Y-31760000D01*
X58505000Y-26240000D02*
X59775000Y-26240000D01*
X48430000Y-46000000D02*
X48430000Y-41000000D01*
X55570000Y-35940000D02*
X55570000Y-46060000D01*
X56430000Y-46000000D02*
X56430000Y-41000000D01*
X63570000Y-35940000D02*
X63570000Y-46060000D01*
X64430000Y-46000000D02*
X64430000Y-41000000D01*
X71570000Y-35940000D02*
X71570000Y-46060000D01*
X31925000Y-22265000D02*
X29465000Y-22265000D01*
X29465000Y-22265000D02*
X29465000Y-23735000D01*
X29465000Y-23735000D02*
X31925000Y-23735000D01*
X35925000Y-22265000D02*
X33465000Y-22265000D01*
X33465000Y-22265000D02*
X33465000Y-23735000D01*
X33465000Y-23735000D02*
X35925000Y-23735000D01*
X39925000Y-22265000D02*
X37465000Y-22265000D01*
X37465000Y-22265000D02*
X37465000Y-23735000D01*
X37465000Y-23735000D02*
X39925000Y-23735000D01*
X43925000Y-22265000D02*
X41465000Y-22265000D01*
X41465000Y-22265000D02*
X41465000Y-23735000D01*
X41465000Y-23735000D02*
X43925000Y-23735000D01*
X31925000Y-25265000D02*
X29465000Y-25265000D01*
X29465000Y-25265000D02*
X29465000Y-26735000D01*
X29465000Y-26735000D02*
X31925000Y-26735000D01*
X35925000Y-25265000D02*
X33465000Y-25265000D01*
X33465000Y-25265000D02*
X33465000Y-26735000D01*
X33465000Y-26735000D02*
X35925000Y-26735000D01*
X39925000Y-25265000D02*
X37465000Y-25265000D01*
X37465000Y-25265000D02*
X37465000Y-26735000D01*
X37465000Y-26735000D02*
X39925000Y-26735000D01*
X43925000Y-25265000D02*
X41465000Y-25265000D01*
X41465000Y-25265000D02*
X41465000Y-26735000D01*
X41465000Y-26735000D02*
X43925000Y-26735000D01*
X31925000Y-28265000D02*
X29465000Y-28265000D01*
X29465000Y-28265000D02*
X29465000Y-29735000D01*
X29465000Y-29735000D02*
X31925000Y-29735000D01*
X35925000Y-28265000D02*
X33465000Y-28265000D01*
X33465000Y-28265000D02*
X33465000Y-29735000D01*
X33465000Y-29735000D02*
X35925000Y-29735000D01*
X39925000Y-28265000D02*
X37465000Y-28265000D01*
X37465000Y-28265000D02*
X37465000Y-29735000D01*
X37465000Y-29735000D02*
X39925000Y-29735000D01*
X43925000Y-28265000D02*
X41465000Y-28265000D01*
X41465000Y-28265000D02*
X41465000Y-29735000D01*
X41465000Y-29735000D02*
X43925000Y-29735000D01*
X31925000Y-31265000D02*
X29465000Y-31265000D01*
X29465000Y-31265000D02*
X29465000Y-32735000D01*
X29465000Y-32735000D02*
X31925000Y-32735000D01*
X35925000Y-31265000D02*
X33465000Y-31265000D01*
X33465000Y-31265000D02*
X33465000Y-32735000D01*
X33465000Y-32735000D02*
X35925000Y-32735000D01*
X39925000Y-31265000D02*
X37465000Y-31265000D01*
X37465000Y-31265000D02*
X37465000Y-32735000D01*
X37465000Y-32735000D02*
X39925000Y-32735000D01*
X43925000Y-31265000D02*
X41465000Y-31265000D01*
X41465000Y-31265000D02*
X41465000Y-32735000D01*
X41465000Y-32735000D02*
X43925000Y-32735000D01*
X31925000Y-34265000D02*
X29465000Y-34265000D01*
X29465000Y-34265000D02*
X29465000Y-35735000D01*
X29465000Y-35735000D02*
X31925000Y-35735000D01*
X35925000Y-34265000D02*
X33465000Y-34265000D01*
X33465000Y-34265000D02*
X33465000Y-35735000D01*
X33465000Y-35735000D02*
X35925000Y-35735000D01*
X39925000Y-34265000D02*
X37465000Y-34265000D01*
X37465000Y-34265000D02*
X37465000Y-35735000D01*
X37465000Y-35735000D02*
X39925000Y-35735000D01*
X43925000Y-34265000D02*
X41465000Y-34265000D01*
X41465000Y-34265000D02*
X41465000Y-35735000D01*
X41465000Y-35735000D02*
X43925000Y-35735000D01*
X31925000Y-37265000D02*
X29465000Y-37265000D01*
X29465000Y-37265000D02*
X29465000Y-38735000D01*
X29465000Y-38735000D02*
X31925000Y-38735000D01*
X35925000Y-37265000D02*
X33465000Y-37265000D01*
X33465000Y-37265000D02*
X33465000Y-38735000D01*
X33465000Y-38735000D02*
X35925000Y-38735000D01*
X39925000Y-37265000D02*
X37465000Y-37265000D01*
X37465000Y-37265000D02*
X37465000Y-38735000D01*
X37465000Y-38735000D02*
X39925000Y-38735000D01*
X43925000Y-37265000D02*
X41465000Y-37265000D01*
X41465000Y-37265000D02*
X41465000Y-38735000D01*
X41465000Y-38735000D02*
X43925000Y-38735000D01*
D12*
X50100000Y-50500000D02*
X50100000Y-54500000D01*
X56600000Y-51700000D02*
X56400000Y-51700000D01*
X34900000Y-53300000D02*
X34900000Y-51700000D01*
X34900000Y-51700000D02*
X34900000Y-50500000D01*
X50100000Y-54500000D02*
X34900000Y-54500000D01*
X71600000Y-18500000D02*
X56400000Y-18500000D01*
X56400000Y-15700000D02*
X56400000Y-14500000D01*
X56400000Y-51700000D02*
X56400000Y-50500000D01*
X56400000Y-53300000D02*
X56600000Y-53300000D01*
X71600000Y-14500000D02*
X71600000Y-18500000D01*
X34900000Y-54500000D02*
X34900000Y-53300000D01*
X71600000Y-50500000D02*
X71600000Y-54500000D01*
X35100000Y-53300000D02*
X35100000Y-51700000D01*
X56400000Y-53300000D02*
X56400000Y-51700000D01*
X56600000Y-53300000D02*
X56600000Y-51700000D01*
X56400000Y-54500000D02*
X56400000Y-53300000D01*
X56400000Y-17300000D02*
X56400000Y-15700000D01*
X56400000Y-18500000D02*
X56400000Y-17300000D01*
X56400000Y-50500000D02*
X71600000Y-50500000D01*
X71600000Y-54500000D02*
X56400000Y-54500000D01*
X56400000Y-14500000D02*
X71600000Y-14500000D01*
X34900000Y-50500000D02*
X50100000Y-50500000D01*
X35100000Y-51700000D02*
X34900000Y-51700000D01*
X34900000Y-53300000D02*
X35100000Y-53300000D01*
X56400000Y-17300000D02*
X56600000Y-17300000D01*
X56600000Y-15700000D02*
X56400000Y-15700000D01*
X30900000Y-18500000D02*
X30900000Y-17300000D01*
X30900000Y-14500000D02*
X46100000Y-14500000D01*
X31100000Y-17300000D02*
X31100000Y-15700000D01*
X30900000Y-17300000D02*
X31100000Y-17300000D01*
X56600000Y-17300000D02*
X56600000Y-15700000D01*
X46100000Y-18500000D02*
X30900000Y-18500000D01*
X30900000Y-15700000D02*
X30900000Y-14500000D01*
X30900000Y-17300000D02*
X30900000Y-15700000D01*
X46100000Y-14500000D02*
X46100000Y-18500000D01*
X31100000Y-15700000D02*
X30900000Y-15700000D01*
D11*
X71775000Y-31760000D02*
X71775000Y-26240000D01*
X60875000Y-33610000D02*
X60875000Y-31760000D01*
X60225000Y-31760000D02*
X60875000Y-31760000D01*
X60225000Y-31760000D02*
X60225000Y-26240000D01*
X60225000Y-26240000D02*
X61494000Y-26240000D01*
X70505000Y-31760000D02*
X71775000Y-31760000D01*
X70505000Y-26240000D02*
X71775000Y-26240000D01*
X22780000Y-53250000D02*
X22780000Y-52450000D01*
X26220000Y-53250000D02*
X26220000Y-52450000D01*
X32437221Y-52340000D02*
X32762779Y-52340000D01*
X32437221Y-53360000D02*
X32762779Y-53360000D01*
X29337221Y-51740000D02*
X29662779Y-51740000D01*
X29337221Y-52760000D02*
X29662779Y-52760000D01*
X21490000Y-51512779D02*
X21490000Y-51187221D01*
X22510000Y-51512779D02*
X22510000Y-51187221D01*
X22510000Y-48178733D02*
X22510000Y-48521267D01*
X21490000Y-48178733D02*
X21490000Y-48521267D01*
X31728733Y-53640000D02*
X32071267Y-53640000D01*
X31728733Y-54660000D02*
X32071267Y-54660000D01*
X21810000Y-42278733D02*
X21810000Y-42621267D01*
X20790000Y-42278733D02*
X20790000Y-42621267D01*
X17990000Y-45021267D02*
X17990000Y-44678733D01*
X19010000Y-45021267D02*
X19010000Y-44678733D01*
X18510000Y-49521267D02*
X18510000Y-49178733D01*
X17490000Y-49521267D02*
X17490000Y-49178733D01*
M02*
