G04 #@! TF.GenerationSoftware,KiCad,Pcbnew,(5.99.0-1662-g9db296991)*
G04 #@! TF.CreationDate,2020-05-15T17:50:03+05:30*
G04 #@! TF.ProjectId,Alchitry_IO_Shield,416c6368-6974-4727-995f-494f5f536869,rev?*
G04 #@! TF.SameCoordinates,Original*
G04 #@! TF.FileFunction,Paste,Top*
G04 #@! TF.FilePolarity,Positive*
%FSLAX46Y46*%
G04 Gerber Fmt 4.6, Leading zero omitted, Abs format (unit mm)*
G04 Created by KiCad (PCBNEW (5.99.0-1662-g9db296991)) date 2020-05-15 17:50:03*
%MOMM*%
%LPD*%
G01*
G04 APERTURE LIST*
%ADD10R,3.000000X0.300000*%
%ADD11R,0.760000X1.600000*%
%ADD12R,0.900000X2.800000*%
%ADD13R,0.250000X2.000000*%
%ADD14R,0.400000X0.900000*%
G04 APERTURE END LIST*
G36*
G01*
X24387500Y-43843750D02*
X24387500Y-44356250D01*
G75*
G02*
X24168750Y-44575000I-218750J0D01*
G01*
X23731250Y-44575000D01*
G75*
G02*
X23512500Y-44356250I0J218750D01*
G01*
X23512500Y-43843750D01*
G75*
G02*
X23731250Y-43625000I218750J0D01*
G01*
X24168750Y-43625000D01*
G75*
G02*
X24387500Y-43843750I0J-218750D01*
G01*
G37*
G36*
G01*
X25475000Y-43843750D02*
X25475000Y-44356250D01*
G75*
G02*
X25256250Y-44575000I-218750J0D01*
G01*
X24818750Y-44575000D01*
G75*
G02*
X24600000Y-44356250I0J218750D01*
G01*
X24600000Y-43843750D01*
G75*
G02*
X24818750Y-43625000I218750J0D01*
G01*
X25256250Y-43625000D01*
G75*
G02*
X25475000Y-43843750I0J-218750D01*
G01*
G37*
G36*
G01*
X30456250Y-50387500D02*
X29943750Y-50387500D01*
G75*
G02*
X29725000Y-50168750I0J218750D01*
G01*
X29725000Y-49731250D01*
G75*
G02*
X29943750Y-49512500I218750J0D01*
G01*
X30456250Y-49512500D01*
G75*
G02*
X30675000Y-49731250I0J-218750D01*
G01*
X30675000Y-50168750D01*
G75*
G02*
X30456250Y-50387500I-218750J0D01*
G01*
G37*
G36*
G01*
X29943750Y-48412500D02*
X30456250Y-48412500D01*
G75*
G02*
X30675000Y-48631250I0J-218750D01*
G01*
X30675000Y-49068750D01*
G75*
G02*
X30456250Y-49287500I-218750J0D01*
G01*
X29943750Y-49287500D01*
G75*
G02*
X29725000Y-49068750I0J218750D01*
G01*
X29725000Y-48631250D01*
G75*
G02*
X29943750Y-48412500I218750J0D01*
G01*
G37*
G36*
G01*
X30456250Y-51475000D02*
X29943750Y-51475000D01*
G75*
G02*
X29725000Y-51256250I0J218750D01*
G01*
X29725000Y-50818750D01*
G75*
G02*
X29943750Y-50600000I218750J0D01*
G01*
X30456250Y-50600000D01*
G75*
G02*
X30675000Y-50818750I0J-218750D01*
G01*
X30675000Y-51256250D01*
G75*
G02*
X30456250Y-51475000I-218750J0D01*
G01*
G37*
G36*
G01*
X30456250Y-47087500D02*
X29943750Y-47087500D01*
G75*
G02*
X29725000Y-46868750I0J218750D01*
G01*
X29725000Y-46431250D01*
G75*
G02*
X29943750Y-46212500I218750J0D01*
G01*
X30456250Y-46212500D01*
G75*
G02*
X30675000Y-46431250I0J-218750D01*
G01*
X30675000Y-46868750D01*
G75*
G02*
X30456250Y-47087500I-218750J0D01*
G01*
G37*
G36*
G01*
X29943750Y-45112500D02*
X30456250Y-45112500D01*
G75*
G02*
X30675000Y-45331250I0J-218750D01*
G01*
X30675000Y-45768750D01*
G75*
G02*
X30456250Y-45987500I-218750J0D01*
G01*
X29943750Y-45987500D01*
G75*
G02*
X29725000Y-45768750I0J218750D01*
G01*
X29725000Y-45331250D01*
G75*
G02*
X29943750Y-45112500I218750J0D01*
G01*
G37*
G36*
G01*
X30456250Y-48175000D02*
X29943750Y-48175000D01*
G75*
G02*
X29725000Y-47956250I0J218750D01*
G01*
X29725000Y-47518750D01*
G75*
G02*
X29943750Y-47300000I218750J0D01*
G01*
X30456250Y-47300000D01*
G75*
G02*
X30675000Y-47518750I0J-218750D01*
G01*
X30675000Y-47956250D01*
G75*
G02*
X30456250Y-48175000I-218750J0D01*
G01*
G37*
G36*
G01*
X28662500Y-44606250D02*
X28662500Y-44093750D01*
G75*
G02*
X28881250Y-43875000I218750J0D01*
G01*
X29318750Y-43875000D01*
G75*
G02*
X29537500Y-44093750I0J-218750D01*
G01*
X29537500Y-44606250D01*
G75*
G02*
X29318750Y-44825000I-218750J0D01*
G01*
X28881250Y-44825000D01*
G75*
G02*
X28662500Y-44606250I0J218750D01*
G01*
G37*
G36*
G01*
X30637500Y-44093750D02*
X30637500Y-44606250D01*
G75*
G02*
X30418750Y-44825000I-218750J0D01*
G01*
X29981250Y-44825000D01*
G75*
G02*
X29762500Y-44606250I0J218750D01*
G01*
X29762500Y-44093750D01*
G75*
G02*
X29981250Y-43875000I218750J0D01*
G01*
X30418750Y-43875000D01*
G75*
G02*
X30637500Y-44093750I0J-218750D01*
G01*
G37*
G36*
G01*
X27575000Y-44606250D02*
X27575000Y-44093750D01*
G75*
G02*
X27793750Y-43875000I218750J0D01*
G01*
X28231250Y-43875000D01*
G75*
G02*
X28450000Y-44093750I0J-218750D01*
G01*
X28450000Y-44606250D01*
G75*
G02*
X28231250Y-44825000I-218750J0D01*
G01*
X27793750Y-44825000D01*
G75*
G02*
X27575000Y-44606250I0J218750D01*
G01*
G37*
D10*
X20500000Y-34600000D03*
X20500000Y-35600000D03*
X20500000Y-36100000D03*
X20500000Y-35100000D03*
X20500000Y-33600000D03*
X20500000Y-34100000D03*
X20500000Y-27100000D03*
X20500000Y-33100000D03*
X20500000Y-32600000D03*
X20500000Y-29600000D03*
X20500000Y-32100000D03*
X20500000Y-31600000D03*
X20500000Y-31100000D03*
X20500000Y-30100000D03*
X20500000Y-29100000D03*
X20500000Y-28100000D03*
X20500000Y-27600000D03*
X20500000Y-28600000D03*
X20500000Y-30600000D03*
D11*
X49555000Y-32810000D03*
X58445000Y-25190000D03*
X50825000Y-32810000D03*
X57175000Y-25190000D03*
X52095000Y-32810000D03*
X55905000Y-25190000D03*
X53365000Y-32810000D03*
X54635000Y-25190000D03*
X54635000Y-32810000D03*
X53365000Y-25190000D03*
X55905000Y-32810000D03*
X52095000Y-25190000D03*
X57175000Y-32810000D03*
X50825000Y-25190000D03*
X58445000Y-32810000D03*
X49555000Y-25190000D03*
D12*
X49120000Y-36000000D03*
X50560000Y-36000000D03*
X52000000Y-36000000D03*
X53440000Y-36000000D03*
X54880000Y-36000000D03*
X54880000Y-46000000D03*
X53440000Y-46000000D03*
X52000000Y-46000000D03*
X50560000Y-46000000D03*
X49120000Y-46000000D03*
X57120000Y-36000000D03*
X58560000Y-36000000D03*
X60000000Y-36000000D03*
X61440000Y-36000000D03*
X62880000Y-36000000D03*
X62880000Y-46000000D03*
X61440000Y-46000000D03*
X60000000Y-46000000D03*
X58560000Y-46000000D03*
X57120000Y-46000000D03*
X65120000Y-36000000D03*
X66560000Y-36000000D03*
X68000000Y-36000000D03*
X69440000Y-36000000D03*
X70880000Y-36000000D03*
X70880000Y-46000000D03*
X69440000Y-46000000D03*
X68000000Y-46000000D03*
X66560000Y-46000000D03*
X65120000Y-46000000D03*
G36*
G01*
X29725000Y-23237500D02*
X29725000Y-22762500D01*
G75*
G02*
X29962500Y-22525000I237500J0D01*
G01*
X30537500Y-22525000D01*
G75*
G02*
X30775000Y-22762500I0J-237500D01*
G01*
X30775000Y-23237500D01*
G75*
G02*
X30537500Y-23475000I-237500J0D01*
G01*
X29962500Y-23475000D01*
G75*
G02*
X29725000Y-23237500I0J237500D01*
G01*
G37*
G36*
G01*
X31475000Y-23237500D02*
X31475000Y-22762500D01*
G75*
G02*
X31712500Y-22525000I237500J0D01*
G01*
X32287500Y-22525000D01*
G75*
G02*
X32525000Y-22762500I0J-237500D01*
G01*
X32525000Y-23237500D01*
G75*
G02*
X32287500Y-23475000I-237500J0D01*
G01*
X31712500Y-23475000D01*
G75*
G02*
X31475000Y-23237500I0J237500D01*
G01*
G37*
G36*
G01*
X33725000Y-23237500D02*
X33725000Y-22762500D01*
G75*
G02*
X33962500Y-22525000I237500J0D01*
G01*
X34537500Y-22525000D01*
G75*
G02*
X34775000Y-22762500I0J-237500D01*
G01*
X34775000Y-23237500D01*
G75*
G02*
X34537500Y-23475000I-237500J0D01*
G01*
X33962500Y-23475000D01*
G75*
G02*
X33725000Y-23237500I0J237500D01*
G01*
G37*
G36*
G01*
X35475000Y-23237500D02*
X35475000Y-22762500D01*
G75*
G02*
X35712500Y-22525000I237500J0D01*
G01*
X36287500Y-22525000D01*
G75*
G02*
X36525000Y-22762500I0J-237500D01*
G01*
X36525000Y-23237500D01*
G75*
G02*
X36287500Y-23475000I-237500J0D01*
G01*
X35712500Y-23475000D01*
G75*
G02*
X35475000Y-23237500I0J237500D01*
G01*
G37*
G36*
G01*
X37725000Y-23237500D02*
X37725000Y-22762500D01*
G75*
G02*
X37962500Y-22525000I237500J0D01*
G01*
X38537500Y-22525000D01*
G75*
G02*
X38775000Y-22762500I0J-237500D01*
G01*
X38775000Y-23237500D01*
G75*
G02*
X38537500Y-23475000I-237500J0D01*
G01*
X37962500Y-23475000D01*
G75*
G02*
X37725000Y-23237500I0J237500D01*
G01*
G37*
G36*
G01*
X39475000Y-23237500D02*
X39475000Y-22762500D01*
G75*
G02*
X39712500Y-22525000I237500J0D01*
G01*
X40287500Y-22525000D01*
G75*
G02*
X40525000Y-22762500I0J-237500D01*
G01*
X40525000Y-23237500D01*
G75*
G02*
X40287500Y-23475000I-237500J0D01*
G01*
X39712500Y-23475000D01*
G75*
G02*
X39475000Y-23237500I0J237500D01*
G01*
G37*
G36*
G01*
X41725000Y-23237500D02*
X41725000Y-22762500D01*
G75*
G02*
X41962500Y-22525000I237500J0D01*
G01*
X42537500Y-22525000D01*
G75*
G02*
X42775000Y-22762500I0J-237500D01*
G01*
X42775000Y-23237500D01*
G75*
G02*
X42537500Y-23475000I-237500J0D01*
G01*
X41962500Y-23475000D01*
G75*
G02*
X41725000Y-23237500I0J237500D01*
G01*
G37*
G36*
G01*
X43475000Y-23237500D02*
X43475000Y-22762500D01*
G75*
G02*
X43712500Y-22525000I237500J0D01*
G01*
X44287500Y-22525000D01*
G75*
G02*
X44525000Y-22762500I0J-237500D01*
G01*
X44525000Y-23237500D01*
G75*
G02*
X44287500Y-23475000I-237500J0D01*
G01*
X43712500Y-23475000D01*
G75*
G02*
X43475000Y-23237500I0J237500D01*
G01*
G37*
G36*
G01*
X29725000Y-26237500D02*
X29725000Y-25762500D01*
G75*
G02*
X29962500Y-25525000I237500J0D01*
G01*
X30537500Y-25525000D01*
G75*
G02*
X30775000Y-25762500I0J-237500D01*
G01*
X30775000Y-26237500D01*
G75*
G02*
X30537500Y-26475000I-237500J0D01*
G01*
X29962500Y-26475000D01*
G75*
G02*
X29725000Y-26237500I0J237500D01*
G01*
G37*
G36*
G01*
X31475000Y-26237500D02*
X31475000Y-25762500D01*
G75*
G02*
X31712500Y-25525000I237500J0D01*
G01*
X32287500Y-25525000D01*
G75*
G02*
X32525000Y-25762500I0J-237500D01*
G01*
X32525000Y-26237500D01*
G75*
G02*
X32287500Y-26475000I-237500J0D01*
G01*
X31712500Y-26475000D01*
G75*
G02*
X31475000Y-26237500I0J237500D01*
G01*
G37*
G36*
G01*
X33725000Y-26237500D02*
X33725000Y-25762500D01*
G75*
G02*
X33962500Y-25525000I237500J0D01*
G01*
X34537500Y-25525000D01*
G75*
G02*
X34775000Y-25762500I0J-237500D01*
G01*
X34775000Y-26237500D01*
G75*
G02*
X34537500Y-26475000I-237500J0D01*
G01*
X33962500Y-26475000D01*
G75*
G02*
X33725000Y-26237500I0J237500D01*
G01*
G37*
G36*
G01*
X35475000Y-26237500D02*
X35475000Y-25762500D01*
G75*
G02*
X35712500Y-25525000I237500J0D01*
G01*
X36287500Y-25525000D01*
G75*
G02*
X36525000Y-25762500I0J-237500D01*
G01*
X36525000Y-26237500D01*
G75*
G02*
X36287500Y-26475000I-237500J0D01*
G01*
X35712500Y-26475000D01*
G75*
G02*
X35475000Y-26237500I0J237500D01*
G01*
G37*
G36*
G01*
X37725000Y-26237500D02*
X37725000Y-25762500D01*
G75*
G02*
X37962500Y-25525000I237500J0D01*
G01*
X38537500Y-25525000D01*
G75*
G02*
X38775000Y-25762500I0J-237500D01*
G01*
X38775000Y-26237500D01*
G75*
G02*
X38537500Y-26475000I-237500J0D01*
G01*
X37962500Y-26475000D01*
G75*
G02*
X37725000Y-26237500I0J237500D01*
G01*
G37*
G36*
G01*
X39475000Y-26237500D02*
X39475000Y-25762500D01*
G75*
G02*
X39712500Y-25525000I237500J0D01*
G01*
X40287500Y-25525000D01*
G75*
G02*
X40525000Y-25762500I0J-237500D01*
G01*
X40525000Y-26237500D01*
G75*
G02*
X40287500Y-26475000I-237500J0D01*
G01*
X39712500Y-26475000D01*
G75*
G02*
X39475000Y-26237500I0J237500D01*
G01*
G37*
G36*
G01*
X41725000Y-26237500D02*
X41725000Y-25762500D01*
G75*
G02*
X41962500Y-25525000I237500J0D01*
G01*
X42537500Y-25525000D01*
G75*
G02*
X42775000Y-25762500I0J-237500D01*
G01*
X42775000Y-26237500D01*
G75*
G02*
X42537500Y-26475000I-237500J0D01*
G01*
X41962500Y-26475000D01*
G75*
G02*
X41725000Y-26237500I0J237500D01*
G01*
G37*
G36*
G01*
X43475000Y-26237500D02*
X43475000Y-25762500D01*
G75*
G02*
X43712500Y-25525000I237500J0D01*
G01*
X44287500Y-25525000D01*
G75*
G02*
X44525000Y-25762500I0J-237500D01*
G01*
X44525000Y-26237500D01*
G75*
G02*
X44287500Y-26475000I-237500J0D01*
G01*
X43712500Y-26475000D01*
G75*
G02*
X43475000Y-26237500I0J237500D01*
G01*
G37*
G36*
G01*
X29725000Y-29237500D02*
X29725000Y-28762500D01*
G75*
G02*
X29962500Y-28525000I237500J0D01*
G01*
X30537500Y-28525000D01*
G75*
G02*
X30775000Y-28762500I0J-237500D01*
G01*
X30775000Y-29237500D01*
G75*
G02*
X30537500Y-29475000I-237500J0D01*
G01*
X29962500Y-29475000D01*
G75*
G02*
X29725000Y-29237500I0J237500D01*
G01*
G37*
G36*
G01*
X31475000Y-29237500D02*
X31475000Y-28762500D01*
G75*
G02*
X31712500Y-28525000I237500J0D01*
G01*
X32287500Y-28525000D01*
G75*
G02*
X32525000Y-28762500I0J-237500D01*
G01*
X32525000Y-29237500D01*
G75*
G02*
X32287500Y-29475000I-237500J0D01*
G01*
X31712500Y-29475000D01*
G75*
G02*
X31475000Y-29237500I0J237500D01*
G01*
G37*
G36*
G01*
X33725000Y-29237500D02*
X33725000Y-28762500D01*
G75*
G02*
X33962500Y-28525000I237500J0D01*
G01*
X34537500Y-28525000D01*
G75*
G02*
X34775000Y-28762500I0J-237500D01*
G01*
X34775000Y-29237500D01*
G75*
G02*
X34537500Y-29475000I-237500J0D01*
G01*
X33962500Y-29475000D01*
G75*
G02*
X33725000Y-29237500I0J237500D01*
G01*
G37*
G36*
G01*
X35475000Y-29237500D02*
X35475000Y-28762500D01*
G75*
G02*
X35712500Y-28525000I237500J0D01*
G01*
X36287500Y-28525000D01*
G75*
G02*
X36525000Y-28762500I0J-237500D01*
G01*
X36525000Y-29237500D01*
G75*
G02*
X36287500Y-29475000I-237500J0D01*
G01*
X35712500Y-29475000D01*
G75*
G02*
X35475000Y-29237500I0J237500D01*
G01*
G37*
G36*
G01*
X37725000Y-29237500D02*
X37725000Y-28762500D01*
G75*
G02*
X37962500Y-28525000I237500J0D01*
G01*
X38537500Y-28525000D01*
G75*
G02*
X38775000Y-28762500I0J-237500D01*
G01*
X38775000Y-29237500D01*
G75*
G02*
X38537500Y-29475000I-237500J0D01*
G01*
X37962500Y-29475000D01*
G75*
G02*
X37725000Y-29237500I0J237500D01*
G01*
G37*
G36*
G01*
X39475000Y-29237500D02*
X39475000Y-28762500D01*
G75*
G02*
X39712500Y-28525000I237500J0D01*
G01*
X40287500Y-28525000D01*
G75*
G02*
X40525000Y-28762500I0J-237500D01*
G01*
X40525000Y-29237500D01*
G75*
G02*
X40287500Y-29475000I-237500J0D01*
G01*
X39712500Y-29475000D01*
G75*
G02*
X39475000Y-29237500I0J237500D01*
G01*
G37*
G36*
G01*
X41725000Y-29237500D02*
X41725000Y-28762500D01*
G75*
G02*
X41962500Y-28525000I237500J0D01*
G01*
X42537500Y-28525000D01*
G75*
G02*
X42775000Y-28762500I0J-237500D01*
G01*
X42775000Y-29237500D01*
G75*
G02*
X42537500Y-29475000I-237500J0D01*
G01*
X41962500Y-29475000D01*
G75*
G02*
X41725000Y-29237500I0J237500D01*
G01*
G37*
G36*
G01*
X43475000Y-29237500D02*
X43475000Y-28762500D01*
G75*
G02*
X43712500Y-28525000I237500J0D01*
G01*
X44287500Y-28525000D01*
G75*
G02*
X44525000Y-28762500I0J-237500D01*
G01*
X44525000Y-29237500D01*
G75*
G02*
X44287500Y-29475000I-237500J0D01*
G01*
X43712500Y-29475000D01*
G75*
G02*
X43475000Y-29237500I0J237500D01*
G01*
G37*
G36*
G01*
X29725000Y-32237500D02*
X29725000Y-31762500D01*
G75*
G02*
X29962500Y-31525000I237500J0D01*
G01*
X30537500Y-31525000D01*
G75*
G02*
X30775000Y-31762500I0J-237500D01*
G01*
X30775000Y-32237500D01*
G75*
G02*
X30537500Y-32475000I-237500J0D01*
G01*
X29962500Y-32475000D01*
G75*
G02*
X29725000Y-32237500I0J237500D01*
G01*
G37*
G36*
G01*
X31475000Y-32237500D02*
X31475000Y-31762500D01*
G75*
G02*
X31712500Y-31525000I237500J0D01*
G01*
X32287500Y-31525000D01*
G75*
G02*
X32525000Y-31762500I0J-237500D01*
G01*
X32525000Y-32237500D01*
G75*
G02*
X32287500Y-32475000I-237500J0D01*
G01*
X31712500Y-32475000D01*
G75*
G02*
X31475000Y-32237500I0J237500D01*
G01*
G37*
G36*
G01*
X33725000Y-32237500D02*
X33725000Y-31762500D01*
G75*
G02*
X33962500Y-31525000I237500J0D01*
G01*
X34537500Y-31525000D01*
G75*
G02*
X34775000Y-31762500I0J-237500D01*
G01*
X34775000Y-32237500D01*
G75*
G02*
X34537500Y-32475000I-237500J0D01*
G01*
X33962500Y-32475000D01*
G75*
G02*
X33725000Y-32237500I0J237500D01*
G01*
G37*
G36*
G01*
X35475000Y-32237500D02*
X35475000Y-31762500D01*
G75*
G02*
X35712500Y-31525000I237500J0D01*
G01*
X36287500Y-31525000D01*
G75*
G02*
X36525000Y-31762500I0J-237500D01*
G01*
X36525000Y-32237500D01*
G75*
G02*
X36287500Y-32475000I-237500J0D01*
G01*
X35712500Y-32475000D01*
G75*
G02*
X35475000Y-32237500I0J237500D01*
G01*
G37*
G36*
G01*
X37725000Y-32237500D02*
X37725000Y-31762500D01*
G75*
G02*
X37962500Y-31525000I237500J0D01*
G01*
X38537500Y-31525000D01*
G75*
G02*
X38775000Y-31762500I0J-237500D01*
G01*
X38775000Y-32237500D01*
G75*
G02*
X38537500Y-32475000I-237500J0D01*
G01*
X37962500Y-32475000D01*
G75*
G02*
X37725000Y-32237500I0J237500D01*
G01*
G37*
G36*
G01*
X39475000Y-32237500D02*
X39475000Y-31762500D01*
G75*
G02*
X39712500Y-31525000I237500J0D01*
G01*
X40287500Y-31525000D01*
G75*
G02*
X40525000Y-31762500I0J-237500D01*
G01*
X40525000Y-32237500D01*
G75*
G02*
X40287500Y-32475000I-237500J0D01*
G01*
X39712500Y-32475000D01*
G75*
G02*
X39475000Y-32237500I0J237500D01*
G01*
G37*
G36*
G01*
X41725000Y-32237500D02*
X41725000Y-31762500D01*
G75*
G02*
X41962500Y-31525000I237500J0D01*
G01*
X42537500Y-31525000D01*
G75*
G02*
X42775000Y-31762500I0J-237500D01*
G01*
X42775000Y-32237500D01*
G75*
G02*
X42537500Y-32475000I-237500J0D01*
G01*
X41962500Y-32475000D01*
G75*
G02*
X41725000Y-32237500I0J237500D01*
G01*
G37*
G36*
G01*
X43475000Y-32237500D02*
X43475000Y-31762500D01*
G75*
G02*
X43712500Y-31525000I237500J0D01*
G01*
X44287500Y-31525000D01*
G75*
G02*
X44525000Y-31762500I0J-237500D01*
G01*
X44525000Y-32237500D01*
G75*
G02*
X44287500Y-32475000I-237500J0D01*
G01*
X43712500Y-32475000D01*
G75*
G02*
X43475000Y-32237500I0J237500D01*
G01*
G37*
G36*
G01*
X29725000Y-35237500D02*
X29725000Y-34762500D01*
G75*
G02*
X29962500Y-34525000I237500J0D01*
G01*
X30537500Y-34525000D01*
G75*
G02*
X30775000Y-34762500I0J-237500D01*
G01*
X30775000Y-35237500D01*
G75*
G02*
X30537500Y-35475000I-237500J0D01*
G01*
X29962500Y-35475000D01*
G75*
G02*
X29725000Y-35237500I0J237500D01*
G01*
G37*
G36*
G01*
X31475000Y-35237500D02*
X31475000Y-34762500D01*
G75*
G02*
X31712500Y-34525000I237500J0D01*
G01*
X32287500Y-34525000D01*
G75*
G02*
X32525000Y-34762500I0J-237500D01*
G01*
X32525000Y-35237500D01*
G75*
G02*
X32287500Y-35475000I-237500J0D01*
G01*
X31712500Y-35475000D01*
G75*
G02*
X31475000Y-35237500I0J237500D01*
G01*
G37*
G36*
G01*
X33725000Y-35237500D02*
X33725000Y-34762500D01*
G75*
G02*
X33962500Y-34525000I237500J0D01*
G01*
X34537500Y-34525000D01*
G75*
G02*
X34775000Y-34762500I0J-237500D01*
G01*
X34775000Y-35237500D01*
G75*
G02*
X34537500Y-35475000I-237500J0D01*
G01*
X33962500Y-35475000D01*
G75*
G02*
X33725000Y-35237500I0J237500D01*
G01*
G37*
G36*
G01*
X35475000Y-35237500D02*
X35475000Y-34762500D01*
G75*
G02*
X35712500Y-34525000I237500J0D01*
G01*
X36287500Y-34525000D01*
G75*
G02*
X36525000Y-34762500I0J-237500D01*
G01*
X36525000Y-35237500D01*
G75*
G02*
X36287500Y-35475000I-237500J0D01*
G01*
X35712500Y-35475000D01*
G75*
G02*
X35475000Y-35237500I0J237500D01*
G01*
G37*
G36*
G01*
X37725000Y-35237500D02*
X37725000Y-34762500D01*
G75*
G02*
X37962500Y-34525000I237500J0D01*
G01*
X38537500Y-34525000D01*
G75*
G02*
X38775000Y-34762500I0J-237500D01*
G01*
X38775000Y-35237500D01*
G75*
G02*
X38537500Y-35475000I-237500J0D01*
G01*
X37962500Y-35475000D01*
G75*
G02*
X37725000Y-35237500I0J237500D01*
G01*
G37*
G36*
G01*
X39475000Y-35237500D02*
X39475000Y-34762500D01*
G75*
G02*
X39712500Y-34525000I237500J0D01*
G01*
X40287500Y-34525000D01*
G75*
G02*
X40525000Y-34762500I0J-237500D01*
G01*
X40525000Y-35237500D01*
G75*
G02*
X40287500Y-35475000I-237500J0D01*
G01*
X39712500Y-35475000D01*
G75*
G02*
X39475000Y-35237500I0J237500D01*
G01*
G37*
G36*
G01*
X41725000Y-35237500D02*
X41725000Y-34762500D01*
G75*
G02*
X41962500Y-34525000I237500J0D01*
G01*
X42537500Y-34525000D01*
G75*
G02*
X42775000Y-34762500I0J-237500D01*
G01*
X42775000Y-35237500D01*
G75*
G02*
X42537500Y-35475000I-237500J0D01*
G01*
X41962500Y-35475000D01*
G75*
G02*
X41725000Y-35237500I0J237500D01*
G01*
G37*
G36*
G01*
X43475000Y-35237500D02*
X43475000Y-34762500D01*
G75*
G02*
X43712500Y-34525000I237500J0D01*
G01*
X44287500Y-34525000D01*
G75*
G02*
X44525000Y-34762500I0J-237500D01*
G01*
X44525000Y-35237500D01*
G75*
G02*
X44287500Y-35475000I-237500J0D01*
G01*
X43712500Y-35475000D01*
G75*
G02*
X43475000Y-35237500I0J237500D01*
G01*
G37*
G36*
G01*
X29725000Y-38237500D02*
X29725000Y-37762500D01*
G75*
G02*
X29962500Y-37525000I237500J0D01*
G01*
X30537500Y-37525000D01*
G75*
G02*
X30775000Y-37762500I0J-237500D01*
G01*
X30775000Y-38237500D01*
G75*
G02*
X30537500Y-38475000I-237500J0D01*
G01*
X29962500Y-38475000D01*
G75*
G02*
X29725000Y-38237500I0J237500D01*
G01*
G37*
G36*
G01*
X31475000Y-38237500D02*
X31475000Y-37762500D01*
G75*
G02*
X31712500Y-37525000I237500J0D01*
G01*
X32287500Y-37525000D01*
G75*
G02*
X32525000Y-37762500I0J-237500D01*
G01*
X32525000Y-38237500D01*
G75*
G02*
X32287500Y-38475000I-237500J0D01*
G01*
X31712500Y-38475000D01*
G75*
G02*
X31475000Y-38237500I0J237500D01*
G01*
G37*
G36*
G01*
X33725000Y-38237500D02*
X33725000Y-37762500D01*
G75*
G02*
X33962500Y-37525000I237500J0D01*
G01*
X34537500Y-37525000D01*
G75*
G02*
X34775000Y-37762500I0J-237500D01*
G01*
X34775000Y-38237500D01*
G75*
G02*
X34537500Y-38475000I-237500J0D01*
G01*
X33962500Y-38475000D01*
G75*
G02*
X33725000Y-38237500I0J237500D01*
G01*
G37*
G36*
G01*
X35475000Y-38237500D02*
X35475000Y-37762500D01*
G75*
G02*
X35712500Y-37525000I237500J0D01*
G01*
X36287500Y-37525000D01*
G75*
G02*
X36525000Y-37762500I0J-237500D01*
G01*
X36525000Y-38237500D01*
G75*
G02*
X36287500Y-38475000I-237500J0D01*
G01*
X35712500Y-38475000D01*
G75*
G02*
X35475000Y-38237500I0J237500D01*
G01*
G37*
G36*
G01*
X37725000Y-38237500D02*
X37725000Y-37762500D01*
G75*
G02*
X37962500Y-37525000I237500J0D01*
G01*
X38537500Y-37525000D01*
G75*
G02*
X38775000Y-37762500I0J-237500D01*
G01*
X38775000Y-38237500D01*
G75*
G02*
X38537500Y-38475000I-237500J0D01*
G01*
X37962500Y-38475000D01*
G75*
G02*
X37725000Y-38237500I0J237500D01*
G01*
G37*
G36*
G01*
X39475000Y-38237500D02*
X39475000Y-37762500D01*
G75*
G02*
X39712500Y-37525000I237500J0D01*
G01*
X40287500Y-37525000D01*
G75*
G02*
X40525000Y-37762500I0J-237500D01*
G01*
X40525000Y-38237500D01*
G75*
G02*
X40287500Y-38475000I-237500J0D01*
G01*
X39712500Y-38475000D01*
G75*
G02*
X39475000Y-38237500I0J237500D01*
G01*
G37*
G36*
G01*
X41725000Y-38237500D02*
X41725000Y-37762500D01*
G75*
G02*
X41962500Y-37525000I237500J0D01*
G01*
X42537500Y-37525000D01*
G75*
G02*
X42775000Y-37762500I0J-237500D01*
G01*
X42775000Y-38237500D01*
G75*
G02*
X42537500Y-38475000I-237500J0D01*
G01*
X41962500Y-38475000D01*
G75*
G02*
X41725000Y-38237500I0J237500D01*
G01*
G37*
G36*
G01*
X43475000Y-38237500D02*
X43475000Y-37762500D01*
G75*
G02*
X43712500Y-37525000I237500J0D01*
G01*
X44287500Y-37525000D01*
G75*
G02*
X44525000Y-37762500I0J-237500D01*
G01*
X44525000Y-38237500D01*
G75*
G02*
X44287500Y-38475000I-237500J0D01*
G01*
X43712500Y-38475000D01*
G75*
G02*
X43475000Y-38237500I0J237500D01*
G01*
G37*
D13*
X41500000Y-50300000D03*
X42500000Y-50300000D03*
X45500000Y-54700000D03*
X39500000Y-54700000D03*
X46000000Y-54700000D03*
X47500000Y-54700000D03*
X42000000Y-54700000D03*
X42000000Y-50300000D03*
X46500000Y-54700000D03*
X38500000Y-54700000D03*
X45000000Y-54700000D03*
X47000000Y-54700000D03*
X37500000Y-54700000D03*
X48000000Y-54700000D03*
X48500000Y-54700000D03*
X41000000Y-54700000D03*
X40500000Y-54700000D03*
X41000000Y-50300000D03*
X40000000Y-54700000D03*
X37000000Y-54700000D03*
X38000000Y-54700000D03*
X41500000Y-54700000D03*
X39000000Y-54700000D03*
X36500000Y-54700000D03*
X58500000Y-18700000D03*
X65000000Y-14300000D03*
X58000000Y-14300000D03*
X69000000Y-18700000D03*
X39000000Y-50300000D03*
X36500000Y-50300000D03*
X63000000Y-14300000D03*
X64500000Y-14300000D03*
X40000000Y-50300000D03*
X63500000Y-18700000D03*
X44500000Y-50300000D03*
X46500000Y-50300000D03*
X67500000Y-18700000D03*
X60500000Y-18700000D03*
X39500000Y-50300000D03*
X64500000Y-18700000D03*
X45500000Y-50300000D03*
X61000000Y-18700000D03*
X65000000Y-18700000D03*
X65500000Y-18700000D03*
X63000000Y-18700000D03*
X62000000Y-14300000D03*
X59500000Y-14300000D03*
X47500000Y-50300000D03*
X48000000Y-50300000D03*
X64000000Y-18700000D03*
X66000000Y-18700000D03*
X66500000Y-18700000D03*
X61000000Y-14300000D03*
X65500000Y-14300000D03*
X58500000Y-14300000D03*
X67000000Y-18700000D03*
X68000000Y-18700000D03*
X38500000Y-50300000D03*
X46000000Y-50300000D03*
X47000000Y-50300000D03*
X45000000Y-50300000D03*
X59000000Y-14300000D03*
X60000000Y-18700000D03*
X37500000Y-50300000D03*
X58000000Y-18700000D03*
X40500000Y-50300000D03*
X70000000Y-18700000D03*
X38000000Y-50300000D03*
X59500000Y-18700000D03*
X37000000Y-50300000D03*
X60000000Y-14300000D03*
X62500000Y-14300000D03*
X43000000Y-50300000D03*
X48500000Y-50300000D03*
X68500000Y-18700000D03*
X61500000Y-18700000D03*
X43500000Y-50300000D03*
X44000000Y-50300000D03*
X63500000Y-14300000D03*
X64000000Y-14300000D03*
X69500000Y-18700000D03*
X60500000Y-14300000D03*
X62000000Y-18700000D03*
X61500000Y-14300000D03*
X59000000Y-18700000D03*
X62500000Y-18700000D03*
X41000000Y-14300000D03*
X34500000Y-18700000D03*
X40500000Y-14300000D03*
X41500000Y-18700000D03*
X36000000Y-18700000D03*
X35500000Y-18700000D03*
X43000000Y-18700000D03*
X38000000Y-18700000D03*
X66000000Y-14300000D03*
X35000000Y-18700000D03*
X40000000Y-14300000D03*
X34000000Y-18700000D03*
X42500000Y-18700000D03*
X36500000Y-18700000D03*
X39000000Y-14300000D03*
X66500000Y-14300000D03*
X33000000Y-14300000D03*
X67000000Y-14300000D03*
X40000000Y-18700000D03*
X33500000Y-18700000D03*
X33500000Y-14300000D03*
X41500000Y-14300000D03*
X42500000Y-14300000D03*
X44500000Y-14300000D03*
X67500000Y-14300000D03*
X68000000Y-14300000D03*
X44000000Y-18700000D03*
X68500000Y-14300000D03*
X38500000Y-18700000D03*
X35500000Y-14300000D03*
X39500000Y-14300000D03*
X37500000Y-14300000D03*
X69500000Y-14300000D03*
X34000000Y-14300000D03*
X69000000Y-14300000D03*
X70000000Y-14300000D03*
X40500000Y-18700000D03*
X42000000Y-14300000D03*
X37500000Y-18700000D03*
X43500000Y-18700000D03*
X33000000Y-18700000D03*
X37000000Y-14300000D03*
X41000000Y-18700000D03*
X39000000Y-18700000D03*
X39500000Y-18700000D03*
X42000000Y-18700000D03*
X38000000Y-14300000D03*
X32500000Y-18700000D03*
X35000000Y-14300000D03*
X44500000Y-18700000D03*
X38500000Y-14300000D03*
X36500000Y-14300000D03*
X34500000Y-14300000D03*
X32500000Y-14300000D03*
X43000000Y-14300000D03*
X44000000Y-14300000D03*
X36000000Y-14300000D03*
X43500000Y-14300000D03*
X37000000Y-18700000D03*
X69500000Y-54700000D03*
X60500000Y-54700000D03*
X67500000Y-54700000D03*
X67500000Y-50300000D03*
X68000000Y-54700000D03*
X63000000Y-54700000D03*
X64500000Y-54700000D03*
X58500000Y-54700000D03*
X63500000Y-50300000D03*
X65000000Y-50300000D03*
X61000000Y-50300000D03*
X44500000Y-54700000D03*
X65000000Y-54700000D03*
X58000000Y-50300000D03*
X66500000Y-54700000D03*
X65500000Y-54700000D03*
X59000000Y-50300000D03*
X66000000Y-54700000D03*
X68500000Y-54700000D03*
X69000000Y-54700000D03*
X68000000Y-50300000D03*
X62500000Y-54700000D03*
X70000000Y-54700000D03*
X63500000Y-54700000D03*
X62000000Y-50300000D03*
X61000000Y-54700000D03*
X69000000Y-50300000D03*
X69500000Y-50300000D03*
X70000000Y-50300000D03*
X64500000Y-50300000D03*
X43000000Y-54700000D03*
X66000000Y-50300000D03*
X58000000Y-54700000D03*
X68500000Y-50300000D03*
X61500000Y-54700000D03*
X65500000Y-50300000D03*
X64000000Y-50300000D03*
X59500000Y-50300000D03*
X66500000Y-50300000D03*
X62500000Y-50300000D03*
X67000000Y-50300000D03*
X43500000Y-54700000D03*
X63000000Y-50300000D03*
X60500000Y-50300000D03*
X62000000Y-54700000D03*
X60000000Y-54700000D03*
X59000000Y-54700000D03*
X60000000Y-50300000D03*
X58500000Y-50300000D03*
X42500000Y-54700000D03*
X44000000Y-54700000D03*
X61500000Y-50300000D03*
X59500000Y-54700000D03*
X64000000Y-54700000D03*
X67000000Y-54700000D03*
D11*
X61555000Y-32810000D03*
X70445000Y-25190000D03*
X62825000Y-32810000D03*
X69175000Y-25190000D03*
X64095000Y-32810000D03*
X67905000Y-25190000D03*
X65365000Y-32810000D03*
X66635000Y-25190000D03*
X66635000Y-32810000D03*
X65365000Y-25190000D03*
X67905000Y-32810000D03*
X64095000Y-25190000D03*
X69175000Y-32810000D03*
X62825000Y-25190000D03*
X70445000Y-32810000D03*
X61555000Y-25190000D03*
D14*
X24900000Y-52000000D03*
X24100000Y-52000000D03*
X25700000Y-52000000D03*
X23300000Y-52000000D03*
X25700000Y-53700000D03*
X24900000Y-53700000D03*
X24100000Y-53700000D03*
X23300000Y-53700000D03*
G36*
G01*
X31375000Y-53106250D02*
X31375000Y-52593750D01*
G75*
G02*
X31593750Y-52375000I218750J0D01*
G01*
X32031250Y-52375000D01*
G75*
G02*
X32250000Y-52593750I0J-218750D01*
G01*
X32250000Y-53106250D01*
G75*
G02*
X32031250Y-53325000I-218750J0D01*
G01*
X31593750Y-53325000D01*
G75*
G02*
X31375000Y-53106250I0J218750D01*
G01*
G37*
G36*
G01*
X32950000Y-53106250D02*
X32950000Y-52593750D01*
G75*
G02*
X33168750Y-52375000I218750J0D01*
G01*
X33606250Y-52375000D01*
G75*
G02*
X33825000Y-52593750I0J-218750D01*
G01*
X33825000Y-53106250D01*
G75*
G02*
X33606250Y-53325000I-218750J0D01*
G01*
X33168750Y-53325000D01*
G75*
G02*
X32950000Y-53106250I0J218750D01*
G01*
G37*
G36*
G01*
X28275000Y-52506250D02*
X28275000Y-51993750D01*
G75*
G02*
X28493750Y-51775000I218750J0D01*
G01*
X28931250Y-51775000D01*
G75*
G02*
X29150000Y-51993750I0J-218750D01*
G01*
X29150000Y-52506250D01*
G75*
G02*
X28931250Y-52725000I-218750J0D01*
G01*
X28493750Y-52725000D01*
G75*
G02*
X28275000Y-52506250I0J218750D01*
G01*
G37*
G36*
G01*
X29850000Y-52506250D02*
X29850000Y-51993750D01*
G75*
G02*
X30068750Y-51775000I218750J0D01*
G01*
X30506250Y-51775000D01*
G75*
G02*
X30725000Y-51993750I0J-218750D01*
G01*
X30725000Y-52506250D01*
G75*
G02*
X30506250Y-52725000I-218750J0D01*
G01*
X30068750Y-52725000D01*
G75*
G02*
X29850000Y-52506250I0J218750D01*
G01*
G37*
G36*
G01*
X22256250Y-52575000D02*
X21743750Y-52575000D01*
G75*
G02*
X21525000Y-52356250I0J218750D01*
G01*
X21525000Y-51918750D01*
G75*
G02*
X21743750Y-51700000I218750J0D01*
G01*
X22256250Y-51700000D01*
G75*
G02*
X22475000Y-51918750I0J-218750D01*
G01*
X22475000Y-52356250D01*
G75*
G02*
X22256250Y-52575000I-218750J0D01*
G01*
G37*
G36*
G01*
X22256250Y-51000000D02*
X21743750Y-51000000D01*
G75*
G02*
X21525000Y-50781250I0J218750D01*
G01*
X21525000Y-50343750D01*
G75*
G02*
X21743750Y-50125000I218750J0D01*
G01*
X22256250Y-50125000D01*
G75*
G02*
X22475000Y-50343750I0J-218750D01*
G01*
X22475000Y-50781250D01*
G75*
G02*
X22256250Y-51000000I-218750J0D01*
G01*
G37*
G36*
G01*
X21762500Y-46950000D02*
X22237500Y-46950000D01*
G75*
G02*
X22475000Y-47187500I0J-237500D01*
G01*
X22475000Y-47762500D01*
G75*
G02*
X22237500Y-48000000I-237500J0D01*
G01*
X21762500Y-48000000D01*
G75*
G02*
X21525000Y-47762500I0J237500D01*
G01*
X21525000Y-47187500D01*
G75*
G02*
X21762500Y-46950000I237500J0D01*
G01*
G37*
G36*
G01*
X21762500Y-48700000D02*
X22237500Y-48700000D01*
G75*
G02*
X22475000Y-48937500I0J-237500D01*
G01*
X22475000Y-49512500D01*
G75*
G02*
X22237500Y-49750000I-237500J0D01*
G01*
X21762500Y-49750000D01*
G75*
G02*
X21525000Y-49512500I0J237500D01*
G01*
X21525000Y-48937500D01*
G75*
G02*
X21762500Y-48700000I237500J0D01*
G01*
G37*
G36*
G01*
X30500000Y-54387500D02*
X30500000Y-53912500D01*
G75*
G02*
X30737500Y-53675000I237500J0D01*
G01*
X31312500Y-53675000D01*
G75*
G02*
X31550000Y-53912500I0J-237500D01*
G01*
X31550000Y-54387500D01*
G75*
G02*
X31312500Y-54625000I-237500J0D01*
G01*
X30737500Y-54625000D01*
G75*
G02*
X30500000Y-54387500I0J237500D01*
G01*
G37*
G36*
G01*
X32250000Y-54387500D02*
X32250000Y-53912500D01*
G75*
G02*
X32487500Y-53675000I237500J0D01*
G01*
X33062500Y-53675000D01*
G75*
G02*
X33300000Y-53912500I0J-237500D01*
G01*
X33300000Y-54387500D01*
G75*
G02*
X33062500Y-54625000I-237500J0D01*
G01*
X32487500Y-54625000D01*
G75*
G02*
X32250000Y-54387500I0J237500D01*
G01*
G37*
G36*
G01*
X21062500Y-41050000D02*
X21537500Y-41050000D01*
G75*
G02*
X21775000Y-41287500I0J-237500D01*
G01*
X21775000Y-41862500D01*
G75*
G02*
X21537500Y-42100000I-237500J0D01*
G01*
X21062500Y-42100000D01*
G75*
G02*
X20825000Y-41862500I0J237500D01*
G01*
X20825000Y-41287500D01*
G75*
G02*
X21062500Y-41050000I237500J0D01*
G01*
G37*
G36*
G01*
X21062500Y-42800000D02*
X21537500Y-42800000D01*
G75*
G02*
X21775000Y-43037500I0J-237500D01*
G01*
X21775000Y-43612500D01*
G75*
G02*
X21537500Y-43850000I-237500J0D01*
G01*
X21062500Y-43850000D01*
G75*
G02*
X20825000Y-43612500I0J237500D01*
G01*
X20825000Y-43037500D01*
G75*
G02*
X21062500Y-42800000I237500J0D01*
G01*
G37*
G36*
G01*
X18737500Y-46250000D02*
X18262500Y-46250000D01*
G75*
G02*
X18025000Y-46012500I0J237500D01*
G01*
X18025000Y-45437500D01*
G75*
G02*
X18262500Y-45200000I237500J0D01*
G01*
X18737500Y-45200000D01*
G75*
G02*
X18975000Y-45437500I0J-237500D01*
G01*
X18975000Y-46012500D01*
G75*
G02*
X18737500Y-46250000I-237500J0D01*
G01*
G37*
G36*
G01*
X18737500Y-44500000D02*
X18262500Y-44500000D01*
G75*
G02*
X18025000Y-44262500I0J237500D01*
G01*
X18025000Y-43687500D01*
G75*
G02*
X18262500Y-43450000I237500J0D01*
G01*
X18737500Y-43450000D01*
G75*
G02*
X18975000Y-43687500I0J-237500D01*
G01*
X18975000Y-44262500D01*
G75*
G02*
X18737500Y-44500000I-237500J0D01*
G01*
G37*
G36*
G01*
X18237500Y-49000000D02*
X17762500Y-49000000D01*
G75*
G02*
X17525000Y-48762500I0J237500D01*
G01*
X17525000Y-48187500D01*
G75*
G02*
X17762500Y-47950000I237500J0D01*
G01*
X18237500Y-47950000D01*
G75*
G02*
X18475000Y-48187500I0J-237500D01*
G01*
X18475000Y-48762500D01*
G75*
G02*
X18237500Y-49000000I-237500J0D01*
G01*
G37*
G36*
G01*
X18237500Y-50750000D02*
X17762500Y-50750000D01*
G75*
G02*
X17525000Y-50512500I0J237500D01*
G01*
X17525000Y-49937500D01*
G75*
G02*
X17762500Y-49700000I237500J0D01*
G01*
X18237500Y-49700000D01*
G75*
G02*
X18475000Y-49937500I0J-237500D01*
G01*
X18475000Y-50512500D01*
G75*
G02*
X18237500Y-50750000I-237500J0D01*
G01*
G37*
M02*
