%TF.GenerationSoftware,KiCad,Pcbnew,(5.99.0-2671-gfc0a358ba)*%
%TF.CreationDate,2020-09-04T13:27:30+05:30*%
%TF.ProjectId,Alchitry_IO_Shield,416c6368-6974-4727-995f-494f5f536869,rev?*%
%TF.SameCoordinates,Original*%
%TF.FileFunction,Paste,Top*%
%TF.FilePolarity,Positive*%
%FSLAX46Y46*%
G04 Gerber Fmt 4.6, Leading zero omitted, Abs format (unit mm)*
G04 Created by KiCad (PCBNEW (5.99.0-2671-gfc0a358ba)) date 2020-09-04 13:27:30*
%MOMM*%
%LPD*%
G01*
G04 APERTURE LIST*
%ADD10R,0.700000X0.400000*%
%ADD11R,0.760000X1.600000*%
%ADD12R,0.500000X0.800000*%
%ADD13R,0.400000X0.800000*%
%ADD14R,0.300000X2.600000*%
G04 APERTURE END LIST*
%TO.C,JP6*%
G36*
G01*
X19475000Y-39256250D02*
X19475000Y-38743750D01*
G75*
G02*
X19693750Y-38525000I218750J0D01*
G01*
X20131250Y-38525000D01*
G75*
G02*
X20350000Y-38743750I0J-218750D01*
G01*
X20350000Y-39256250D01*
G75*
G02*
X20131250Y-39475000I-218750J0D01*
G01*
X19693750Y-39475000D01*
G75*
G02*
X19475000Y-39256250I0J218750D01*
G01*
G37*
G36*
G01*
X20562500Y-39256250D02*
X20562500Y-38743750D01*
G75*
G02*
X20781250Y-38525000I218750J0D01*
G01*
X21218750Y-38525000D01*
G75*
G02*
X21437500Y-38743750I0J-218750D01*
G01*
X21437500Y-39256250D01*
G75*
G02*
X21218750Y-39475000I-218750J0D01*
G01*
X20781250Y-39475000D01*
G75*
G02*
X20562500Y-39256250I0J218750D01*
G01*
G37*
G36*
G01*
X22537500Y-38743750D02*
X22537500Y-39256250D01*
G75*
G02*
X22318750Y-39475000I-218750J0D01*
G01*
X21881250Y-39475000D01*
G75*
G02*
X21662500Y-39256250I0J218750D01*
G01*
X21662500Y-38743750D01*
G75*
G02*
X21881250Y-38525000I218750J0D01*
G01*
X22318750Y-38525000D01*
G75*
G02*
X22537500Y-38743750I0J-218750D01*
G01*
G37*
%TD*%
%TO.C,U5*%
G36*
G01*
X22350000Y-45895000D02*
X22350000Y-45405000D01*
G75*
G02*
X22425000Y-45330000I75000J0D01*
G01*
X22575000Y-45330000D01*
G75*
G02*
X22650000Y-45405000I0J-75000D01*
G01*
X22650000Y-45895000D01*
G75*
G02*
X22575000Y-45970000I-75000J0D01*
G01*
X22425000Y-45970000D01*
G75*
G02*
X22350000Y-45895000I0J75000D01*
G01*
G37*
G36*
G01*
X23305000Y-50395000D02*
X23305000Y-49905000D01*
G75*
G02*
X23380000Y-49830000I75000J0D01*
G01*
X23530000Y-49830000D01*
G75*
G02*
X23605000Y-49905000I0J-75000D01*
G01*
X23605000Y-50395000D01*
G75*
G02*
X23530000Y-50470000I-75000J0D01*
G01*
X23380000Y-50470000D01*
G75*
G02*
X23305000Y-50395000I0J75000D01*
G01*
G37*
G36*
G01*
X22030000Y-47535000D02*
X21540000Y-47535000D01*
G75*
G02*
X21465000Y-47460000I0J75000D01*
G01*
X21465000Y-47310000D01*
G75*
G02*
X21540000Y-47235000I75000J0D01*
G01*
X22030000Y-47235000D01*
G75*
G02*
X22105000Y-47310000I0J-75000D01*
G01*
X22105000Y-47460000D01*
G75*
G02*
X22030000Y-47535000I-75000J0D01*
G01*
G37*
G36*
G01*
X22350000Y-48145000D02*
X22350000Y-47655000D01*
G75*
G02*
X22425000Y-47580000I75000J0D01*
G01*
X22575000Y-47580000D01*
G75*
G02*
X22650000Y-47655000I0J-75000D01*
G01*
X22650000Y-48145000D01*
G75*
G02*
X22575000Y-48220000I-75000J0D01*
G01*
X22425000Y-48220000D01*
G75*
G02*
X22350000Y-48145000I0J75000D01*
G01*
G37*
G36*
G01*
X24430000Y-46565000D02*
X23940000Y-46565000D01*
G75*
G02*
X23865000Y-46490000I0J75000D01*
G01*
X23865000Y-46340000D01*
G75*
G02*
X23940000Y-46265000I75000J0D01*
G01*
X24430000Y-46265000D01*
G75*
G02*
X24505000Y-46340000I0J-75000D01*
G01*
X24505000Y-46490000D01*
G75*
G02*
X24430000Y-46565000I-75000J0D01*
G01*
G37*
G36*
G01*
X22030000Y-49535000D02*
X21540000Y-49535000D01*
G75*
G02*
X21465000Y-49460000I0J75000D01*
G01*
X21465000Y-49310000D01*
G75*
G02*
X21540000Y-49235000I75000J0D01*
G01*
X22030000Y-49235000D01*
G75*
G02*
X22105000Y-49310000I0J-75000D01*
G01*
X22105000Y-49460000D01*
G75*
G02*
X22030000Y-49535000I-75000J0D01*
G01*
G37*
G36*
G01*
X24410000Y-48565000D02*
X23920000Y-48565000D01*
G75*
G02*
X23845000Y-48490000I0J75000D01*
G01*
X23845000Y-48340000D01*
G75*
G02*
X23920000Y-48265000I75000J0D01*
G01*
X24410000Y-48265000D01*
G75*
G02*
X24485000Y-48340000I0J-75000D01*
G01*
X24485000Y-48490000D01*
G75*
G02*
X24410000Y-48565000I-75000J0D01*
G01*
G37*
%TD*%
%TO.C,D15*%
G36*
G01*
X32422500Y-48680000D02*
X32077500Y-48680000D01*
G75*
G02*
X31930000Y-48532500I0J147500D01*
G01*
X31930000Y-48237500D01*
G75*
G02*
X32077500Y-48090000I147500J0D01*
G01*
X32422500Y-48090000D01*
G75*
G02*
X32570000Y-48237500I0J-147500D01*
G01*
X32570000Y-48532500D01*
G75*
G02*
X32422500Y-48680000I-147500J0D01*
G01*
G37*
G36*
G01*
X32422500Y-47710000D02*
X32077500Y-47710000D01*
G75*
G02*
X31930000Y-47562500I0J147500D01*
G01*
X31930000Y-47267500D01*
G75*
G02*
X32077500Y-47120000I147500J0D01*
G01*
X32422500Y-47120000D01*
G75*
G02*
X32570000Y-47267500I0J-147500D01*
G01*
X32570000Y-47562500D01*
G75*
G02*
X32422500Y-47710000I-147500J0D01*
G01*
G37*
%TD*%
%TO.C,U6*%
G36*
G01*
X28410000Y-48565000D02*
X27920000Y-48565000D01*
G75*
G02*
X27845000Y-48490000I0J75000D01*
G01*
X27845000Y-48340000D01*
G75*
G02*
X27920000Y-48265000I75000J0D01*
G01*
X28410000Y-48265000D01*
G75*
G02*
X28485000Y-48340000I0J-75000D01*
G01*
X28485000Y-48490000D01*
G75*
G02*
X28410000Y-48565000I-75000J0D01*
G01*
G37*
G36*
G01*
X28430000Y-46565000D02*
X27940000Y-46565000D01*
G75*
G02*
X27865000Y-46490000I0J75000D01*
G01*
X27865000Y-46340000D01*
G75*
G02*
X27940000Y-46265000I75000J0D01*
G01*
X28430000Y-46265000D01*
G75*
G02*
X28505000Y-46340000I0J-75000D01*
G01*
X28505000Y-46490000D01*
G75*
G02*
X28430000Y-46565000I-75000J0D01*
G01*
G37*
G36*
G01*
X26350000Y-45895000D02*
X26350000Y-45405000D01*
G75*
G02*
X26425000Y-45330000I75000J0D01*
G01*
X26575000Y-45330000D01*
G75*
G02*
X26650000Y-45405000I0J-75000D01*
G01*
X26650000Y-45895000D01*
G75*
G02*
X26575000Y-45970000I-75000J0D01*
G01*
X26425000Y-45970000D01*
G75*
G02*
X26350000Y-45895000I0J75000D01*
G01*
G37*
G36*
G01*
X26030000Y-49535000D02*
X25540000Y-49535000D01*
G75*
G02*
X25465000Y-49460000I0J75000D01*
G01*
X25465000Y-49310000D01*
G75*
G02*
X25540000Y-49235000I75000J0D01*
G01*
X26030000Y-49235000D01*
G75*
G02*
X26105000Y-49310000I0J-75000D01*
G01*
X26105000Y-49460000D01*
G75*
G02*
X26030000Y-49535000I-75000J0D01*
G01*
G37*
G36*
G01*
X27305000Y-50395000D02*
X27305000Y-49905000D01*
G75*
G02*
X27380000Y-49830000I75000J0D01*
G01*
X27530000Y-49830000D01*
G75*
G02*
X27605000Y-49905000I0J-75000D01*
G01*
X27605000Y-50395000D01*
G75*
G02*
X27530000Y-50470000I-75000J0D01*
G01*
X27380000Y-50470000D01*
G75*
G02*
X27305000Y-50395000I0J75000D01*
G01*
G37*
G36*
G01*
X26350000Y-48145000D02*
X26350000Y-47655000D01*
G75*
G02*
X26425000Y-47580000I75000J0D01*
G01*
X26575000Y-47580000D01*
G75*
G02*
X26650000Y-47655000I0J-75000D01*
G01*
X26650000Y-48145000D01*
G75*
G02*
X26575000Y-48220000I-75000J0D01*
G01*
X26425000Y-48220000D01*
G75*
G02*
X26350000Y-48145000I0J75000D01*
G01*
G37*
G36*
G01*
X26030000Y-47535000D02*
X25540000Y-47535000D01*
G75*
G02*
X25465000Y-47460000I0J75000D01*
G01*
X25465000Y-47310000D01*
G75*
G02*
X25540000Y-47235000I75000J0D01*
G01*
X26030000Y-47235000D01*
G75*
G02*
X26105000Y-47310000I0J-75000D01*
G01*
X26105000Y-47460000D01*
G75*
G02*
X26030000Y-47535000I-75000J0D01*
G01*
G37*
%TD*%
D10*
%TO.C,Q4*%
X66250000Y-42400000D03*
X66250000Y-42900000D03*
X66250000Y-43400000D03*
X67750000Y-43400000D03*
X67750000Y-42900000D03*
X67750000Y-42400000D03*
%TD*%
%TO.C,D6*%
G36*
G01*
X45922500Y-48680000D02*
X45577500Y-48680000D01*
G75*
G02*
X45430000Y-48532500I0J147500D01*
G01*
X45430000Y-48237500D01*
G75*
G02*
X45577500Y-48090000I147500J0D01*
G01*
X45922500Y-48090000D01*
G75*
G02*
X46070000Y-48237500I0J-147500D01*
G01*
X46070000Y-48532500D01*
G75*
G02*
X45922500Y-48680000I-147500J0D01*
G01*
G37*
G36*
G01*
X45922500Y-47710000D02*
X45577500Y-47710000D01*
G75*
G02*
X45430000Y-47562500I0J147500D01*
G01*
X45430000Y-47267500D01*
G75*
G02*
X45577500Y-47120000I147500J0D01*
G01*
X45922500Y-47120000D01*
G75*
G02*
X46070000Y-47267500I0J-147500D01*
G01*
X46070000Y-47562500D01*
G75*
G02*
X45922500Y-47710000I-147500J0D01*
G01*
G37*
%TD*%
%TO.C,D1*%
G36*
G01*
X53422500Y-48680000D02*
X53077500Y-48680000D01*
G75*
G02*
X52930000Y-48532500I0J147500D01*
G01*
X52930000Y-48237500D01*
G75*
G02*
X53077500Y-48090000I147500J0D01*
G01*
X53422500Y-48090000D01*
G75*
G02*
X53570000Y-48237500I0J-147500D01*
G01*
X53570000Y-48532500D01*
G75*
G02*
X53422500Y-48680000I-147500J0D01*
G01*
G37*
G36*
G01*
X53422500Y-47710000D02*
X53077500Y-47710000D01*
G75*
G02*
X52930000Y-47562500I0J147500D01*
G01*
X52930000Y-47267500D01*
G75*
G02*
X53077500Y-47120000I147500J0D01*
G01*
X53422500Y-47120000D01*
G75*
G02*
X53570000Y-47267500I0J-147500D01*
G01*
X53570000Y-47562500D01*
G75*
G02*
X53422500Y-47710000I-147500J0D01*
G01*
G37*
%TD*%
%TO.C,U3*%
G36*
G01*
X14350000Y-48145000D02*
X14350000Y-47655000D01*
G75*
G02*
X14425000Y-47580000I75000J0D01*
G01*
X14575000Y-47580000D01*
G75*
G02*
X14650000Y-47655000I0J-75000D01*
G01*
X14650000Y-48145000D01*
G75*
G02*
X14575000Y-48220000I-75000J0D01*
G01*
X14425000Y-48220000D01*
G75*
G02*
X14350000Y-48145000I0J75000D01*
G01*
G37*
G36*
G01*
X16430000Y-46565000D02*
X15940000Y-46565000D01*
G75*
G02*
X15865000Y-46490000I0J75000D01*
G01*
X15865000Y-46340000D01*
G75*
G02*
X15940000Y-46265000I75000J0D01*
G01*
X16430000Y-46265000D01*
G75*
G02*
X16505000Y-46340000I0J-75000D01*
G01*
X16505000Y-46490000D01*
G75*
G02*
X16430000Y-46565000I-75000J0D01*
G01*
G37*
G36*
G01*
X16410000Y-48565000D02*
X15920000Y-48565000D01*
G75*
G02*
X15845000Y-48490000I0J75000D01*
G01*
X15845000Y-48340000D01*
G75*
G02*
X15920000Y-48265000I75000J0D01*
G01*
X16410000Y-48265000D01*
G75*
G02*
X16485000Y-48340000I0J-75000D01*
G01*
X16485000Y-48490000D01*
G75*
G02*
X16410000Y-48565000I-75000J0D01*
G01*
G37*
G36*
G01*
X15305000Y-50395000D02*
X15305000Y-49905000D01*
G75*
G02*
X15380000Y-49830000I75000J0D01*
G01*
X15530000Y-49830000D01*
G75*
G02*
X15605000Y-49905000I0J-75000D01*
G01*
X15605000Y-50395000D01*
G75*
G02*
X15530000Y-50470000I-75000J0D01*
G01*
X15380000Y-50470000D01*
G75*
G02*
X15305000Y-50395000I0J75000D01*
G01*
G37*
G36*
G01*
X14350000Y-45895000D02*
X14350000Y-45405000D01*
G75*
G02*
X14425000Y-45330000I75000J0D01*
G01*
X14575000Y-45330000D01*
G75*
G02*
X14650000Y-45405000I0J-75000D01*
G01*
X14650000Y-45895000D01*
G75*
G02*
X14575000Y-45970000I-75000J0D01*
G01*
X14425000Y-45970000D01*
G75*
G02*
X14350000Y-45895000I0J75000D01*
G01*
G37*
G36*
G01*
X14030000Y-47535000D02*
X13540000Y-47535000D01*
G75*
G02*
X13465000Y-47460000I0J75000D01*
G01*
X13465000Y-47310000D01*
G75*
G02*
X13540000Y-47235000I75000J0D01*
G01*
X14030000Y-47235000D01*
G75*
G02*
X14105000Y-47310000I0J-75000D01*
G01*
X14105000Y-47460000D01*
G75*
G02*
X14030000Y-47535000I-75000J0D01*
G01*
G37*
G36*
G01*
X14030000Y-49535000D02*
X13540000Y-49535000D01*
G75*
G02*
X13465000Y-49460000I0J75000D01*
G01*
X13465000Y-49310000D01*
G75*
G02*
X13540000Y-49235000I75000J0D01*
G01*
X14030000Y-49235000D01*
G75*
G02*
X14105000Y-49310000I0J-75000D01*
G01*
X14105000Y-49460000D01*
G75*
G02*
X14030000Y-49535000I-75000J0D01*
G01*
G37*
%TD*%
%TO.C,D10*%
G36*
G01*
X39922500Y-48680000D02*
X39577500Y-48680000D01*
G75*
G02*
X39430000Y-48532500I0J147500D01*
G01*
X39430000Y-48237500D01*
G75*
G02*
X39577500Y-48090000I147500J0D01*
G01*
X39922500Y-48090000D01*
G75*
G02*
X40070000Y-48237500I0J-147500D01*
G01*
X40070000Y-48532500D01*
G75*
G02*
X39922500Y-48680000I-147500J0D01*
G01*
G37*
G36*
G01*
X39922500Y-47710000D02*
X39577500Y-47710000D01*
G75*
G02*
X39430000Y-47562500I0J147500D01*
G01*
X39430000Y-47267500D01*
G75*
G02*
X39577500Y-47120000I147500J0D01*
G01*
X39922500Y-47120000D01*
G75*
G02*
X40070000Y-47267500I0J-147500D01*
G01*
X40070000Y-47562500D01*
G75*
G02*
X39922500Y-47710000I-147500J0D01*
G01*
G37*
%TD*%
%TO.C,D5*%
G36*
G01*
X47422500Y-48680000D02*
X47077500Y-48680000D01*
G75*
G02*
X46930000Y-48532500I0J147500D01*
G01*
X46930000Y-48237500D01*
G75*
G02*
X47077500Y-48090000I147500J0D01*
G01*
X47422500Y-48090000D01*
G75*
G02*
X47570000Y-48237500I0J-147500D01*
G01*
X47570000Y-48532500D01*
G75*
G02*
X47422500Y-48680000I-147500J0D01*
G01*
G37*
G36*
G01*
X47422500Y-47710000D02*
X47077500Y-47710000D01*
G75*
G02*
X46930000Y-47562500I0J147500D01*
G01*
X46930000Y-47267500D01*
G75*
G02*
X47077500Y-47120000I147500J0D01*
G01*
X47422500Y-47120000D01*
G75*
G02*
X47570000Y-47267500I0J-147500D01*
G01*
X47570000Y-47562500D01*
G75*
G02*
X47422500Y-47710000I-147500J0D01*
G01*
G37*
%TD*%
%TO.C,U4*%
G36*
G01*
X18030000Y-47535000D02*
X17540000Y-47535000D01*
G75*
G02*
X17465000Y-47460000I0J75000D01*
G01*
X17465000Y-47310000D01*
G75*
G02*
X17540000Y-47235000I75000J0D01*
G01*
X18030000Y-47235000D01*
G75*
G02*
X18105000Y-47310000I0J-75000D01*
G01*
X18105000Y-47460000D01*
G75*
G02*
X18030000Y-47535000I-75000J0D01*
G01*
G37*
G36*
G01*
X20430000Y-46565000D02*
X19940000Y-46565000D01*
G75*
G02*
X19865000Y-46490000I0J75000D01*
G01*
X19865000Y-46340000D01*
G75*
G02*
X19940000Y-46265000I75000J0D01*
G01*
X20430000Y-46265000D01*
G75*
G02*
X20505000Y-46340000I0J-75000D01*
G01*
X20505000Y-46490000D01*
G75*
G02*
X20430000Y-46565000I-75000J0D01*
G01*
G37*
G36*
G01*
X18350000Y-45895000D02*
X18350000Y-45405000D01*
G75*
G02*
X18425000Y-45330000I75000J0D01*
G01*
X18575000Y-45330000D01*
G75*
G02*
X18650000Y-45405000I0J-75000D01*
G01*
X18650000Y-45895000D01*
G75*
G02*
X18575000Y-45970000I-75000J0D01*
G01*
X18425000Y-45970000D01*
G75*
G02*
X18350000Y-45895000I0J75000D01*
G01*
G37*
G36*
G01*
X18350000Y-48145000D02*
X18350000Y-47655000D01*
G75*
G02*
X18425000Y-47580000I75000J0D01*
G01*
X18575000Y-47580000D01*
G75*
G02*
X18650000Y-47655000I0J-75000D01*
G01*
X18650000Y-48145000D01*
G75*
G02*
X18575000Y-48220000I-75000J0D01*
G01*
X18425000Y-48220000D01*
G75*
G02*
X18350000Y-48145000I0J75000D01*
G01*
G37*
G36*
G01*
X19305000Y-50395000D02*
X19305000Y-49905000D01*
G75*
G02*
X19380000Y-49830000I75000J0D01*
G01*
X19530000Y-49830000D01*
G75*
G02*
X19605000Y-49905000I0J-75000D01*
G01*
X19605000Y-50395000D01*
G75*
G02*
X19530000Y-50470000I-75000J0D01*
G01*
X19380000Y-50470000D01*
G75*
G02*
X19305000Y-50395000I0J75000D01*
G01*
G37*
G36*
G01*
X18030000Y-49535000D02*
X17540000Y-49535000D01*
G75*
G02*
X17465000Y-49460000I0J75000D01*
G01*
X17465000Y-49310000D01*
G75*
G02*
X17540000Y-49235000I75000J0D01*
G01*
X18030000Y-49235000D01*
G75*
G02*
X18105000Y-49310000I0J-75000D01*
G01*
X18105000Y-49460000D01*
G75*
G02*
X18030000Y-49535000I-75000J0D01*
G01*
G37*
G36*
G01*
X20410000Y-48565000D02*
X19920000Y-48565000D01*
G75*
G02*
X19845000Y-48490000I0J75000D01*
G01*
X19845000Y-48340000D01*
G75*
G02*
X19920000Y-48265000I75000J0D01*
G01*
X20410000Y-48265000D01*
G75*
G02*
X20485000Y-48340000I0J-75000D01*
G01*
X20485000Y-48490000D01*
G75*
G02*
X20410000Y-48565000I-75000J0D01*
G01*
G37*
%TD*%
%TO.C,SW7*%
G36*
G01*
X66275000Y-59800000D02*
X66275000Y-60000000D01*
G75*
G02*
X66175000Y-60100000I-100000J0D01*
G01*
X65575000Y-60100000D01*
G75*
G02*
X65475000Y-60000000I0J100000D01*
G01*
X65475000Y-59800000D01*
G75*
G02*
X65575000Y-59700000I100000J0D01*
G01*
X66175000Y-59700000D01*
G75*
G02*
X66275000Y-59800000I0J-100000D01*
G01*
G37*
G36*
G01*
X62525000Y-59800000D02*
X62525000Y-60000000D01*
G75*
G02*
X62425000Y-60100000I-100000J0D01*
G01*
X61825000Y-60100000D01*
G75*
G02*
X61725000Y-60000000I0J100000D01*
G01*
X61725000Y-59800000D01*
G75*
G02*
X61825000Y-59700000I100000J0D01*
G01*
X62425000Y-59700000D01*
G75*
G02*
X62525000Y-59800000I0J-100000D01*
G01*
G37*
G36*
G01*
X66275000Y-61800000D02*
X66275000Y-62000000D01*
G75*
G02*
X66175000Y-62100000I-100000J0D01*
G01*
X65575000Y-62100000D01*
G75*
G02*
X65475000Y-62000000I0J100000D01*
G01*
X65475000Y-61800000D01*
G75*
G02*
X65575000Y-61700000I100000J0D01*
G01*
X66175000Y-61700000D01*
G75*
G02*
X66275000Y-61800000I0J-100000D01*
G01*
G37*
G36*
G01*
X62525000Y-61800000D02*
X62525000Y-62000000D01*
G75*
G02*
X62425000Y-62100000I-100000J0D01*
G01*
X61825000Y-62100000D01*
G75*
G02*
X61725000Y-62000000I0J100000D01*
G01*
X61725000Y-61800000D01*
G75*
G02*
X61825000Y-61700000I100000J0D01*
G01*
X62425000Y-61700000D01*
G75*
G02*
X62525000Y-61800000I0J-100000D01*
G01*
G37*
%TD*%
D11*
%TO.C,SW10*%
X44055000Y-63710000D03*
X45325000Y-63710000D03*
X46595000Y-63710000D03*
X47865000Y-63710000D03*
X49135000Y-63710000D03*
X50405000Y-63710000D03*
X51675000Y-63710000D03*
X52945000Y-63710000D03*
X52945000Y-56090000D03*
X51675000Y-56090000D03*
X50405000Y-56090000D03*
X49135000Y-56090000D03*
X47865000Y-56090000D03*
X46595000Y-56090000D03*
X45325000Y-56090000D03*
X44055000Y-56090000D03*
%TD*%
%TO.C,D3*%
G36*
G01*
X50422500Y-48680000D02*
X50077500Y-48680000D01*
G75*
G02*
X49930000Y-48532500I0J147500D01*
G01*
X49930000Y-48237500D01*
G75*
G02*
X50077500Y-48090000I147500J0D01*
G01*
X50422500Y-48090000D01*
G75*
G02*
X50570000Y-48237500I0J-147500D01*
G01*
X50570000Y-48532500D01*
G75*
G02*
X50422500Y-48680000I-147500J0D01*
G01*
G37*
G36*
G01*
X50422500Y-47710000D02*
X50077500Y-47710000D01*
G75*
G02*
X49930000Y-47562500I0J147500D01*
G01*
X49930000Y-47267500D01*
G75*
G02*
X50077500Y-47120000I147500J0D01*
G01*
X50422500Y-47120000D01*
G75*
G02*
X50570000Y-47267500I0J-147500D01*
G01*
X50570000Y-47562500D01*
G75*
G02*
X50422500Y-47710000I-147500J0D01*
G01*
G37*
%TD*%
%TO.C,SW1*%
G36*
G01*
X17100000Y-55925000D02*
X16900000Y-55925000D01*
G75*
G02*
X16800000Y-55825000I0J100000D01*
G01*
X16800000Y-55225000D01*
G75*
G02*
X16900000Y-55125000I100000J0D01*
G01*
X17100000Y-55125000D01*
G75*
G02*
X17200000Y-55225000I0J-100000D01*
G01*
X17200000Y-55825000D01*
G75*
G02*
X17100000Y-55925000I-100000J0D01*
G01*
G37*
G36*
G01*
X17100000Y-59675000D02*
X16900000Y-59675000D01*
G75*
G02*
X16800000Y-59575000I0J100000D01*
G01*
X16800000Y-58975000D01*
G75*
G02*
X16900000Y-58875000I100000J0D01*
G01*
X17100000Y-58875000D01*
G75*
G02*
X17200000Y-58975000I0J-100000D01*
G01*
X17200000Y-59575000D01*
G75*
G02*
X17100000Y-59675000I-100000J0D01*
G01*
G37*
G36*
G01*
X15100000Y-59675000D02*
X14900000Y-59675000D01*
G75*
G02*
X14800000Y-59575000I0J100000D01*
G01*
X14800000Y-58975000D01*
G75*
G02*
X14900000Y-58875000I100000J0D01*
G01*
X15100000Y-58875000D01*
G75*
G02*
X15200000Y-58975000I0J-100000D01*
G01*
X15200000Y-59575000D01*
G75*
G02*
X15100000Y-59675000I-100000J0D01*
G01*
G37*
G36*
G01*
X15100000Y-55925000D02*
X14900000Y-55925000D01*
G75*
G02*
X14800000Y-55825000I0J100000D01*
G01*
X14800000Y-55225000D01*
G75*
G02*
X14900000Y-55125000I100000J0D01*
G01*
X15100000Y-55125000D01*
G75*
G02*
X15200000Y-55225000I0J-100000D01*
G01*
X15200000Y-55825000D01*
G75*
G02*
X15100000Y-55925000I-100000J0D01*
G01*
G37*
%TD*%
%TO.C,SW9*%
X31055000Y-63710000D03*
X32325000Y-63710000D03*
X33595000Y-63710000D03*
X34865000Y-63710000D03*
X36135000Y-63710000D03*
X37405000Y-63710000D03*
X38675000Y-63710000D03*
X39945000Y-63710000D03*
X39945000Y-56090000D03*
X38675000Y-56090000D03*
X37405000Y-56090000D03*
X36135000Y-56090000D03*
X34865000Y-56090000D03*
X33595000Y-56090000D03*
X32325000Y-56090000D03*
X31055000Y-56090000D03*
%TD*%
%TO.C,D4*%
G36*
G01*
X48922500Y-48680000D02*
X48577500Y-48680000D01*
G75*
G02*
X48430000Y-48532500I0J147500D01*
G01*
X48430000Y-48237500D01*
G75*
G02*
X48577500Y-48090000I147500J0D01*
G01*
X48922500Y-48090000D01*
G75*
G02*
X49070000Y-48237500I0J-147500D01*
G01*
X49070000Y-48532500D01*
G75*
G02*
X48922500Y-48680000I-147500J0D01*
G01*
G37*
G36*
G01*
X48922500Y-47710000D02*
X48577500Y-47710000D01*
G75*
G02*
X48430000Y-47562500I0J147500D01*
G01*
X48430000Y-47267500D01*
G75*
G02*
X48577500Y-47120000I147500J0D01*
G01*
X48922500Y-47120000D01*
G75*
G02*
X49070000Y-47267500I0J-147500D01*
G01*
X49070000Y-47562500D01*
G75*
G02*
X48922500Y-47710000I-147500J0D01*
G01*
G37*
%TD*%
D12*
%TO.C,RN2*%
X18800000Y-58300000D03*
D13*
X19600000Y-58300000D03*
X20400000Y-58300000D03*
D12*
X21200000Y-58300000D03*
X21200000Y-56500000D03*
D13*
X20400000Y-56500000D03*
X19600000Y-56500000D03*
D12*
X18800000Y-56500000D03*
%TD*%
%TO.C,SW3*%
G36*
G01*
X18525000Y-59800000D02*
X18525000Y-60000000D01*
G75*
G02*
X18425000Y-60100000I-100000J0D01*
G01*
X17825000Y-60100000D01*
G75*
G02*
X17725000Y-60000000I0J100000D01*
G01*
X17725000Y-59800000D01*
G75*
G02*
X17825000Y-59700000I100000J0D01*
G01*
X18425000Y-59700000D01*
G75*
G02*
X18525000Y-59800000I0J-100000D01*
G01*
G37*
G36*
G01*
X22275000Y-59800000D02*
X22275000Y-60000000D01*
G75*
G02*
X22175000Y-60100000I-100000J0D01*
G01*
X21575000Y-60100000D01*
G75*
G02*
X21475000Y-60000000I0J100000D01*
G01*
X21475000Y-59800000D01*
G75*
G02*
X21575000Y-59700000I100000J0D01*
G01*
X22175000Y-59700000D01*
G75*
G02*
X22275000Y-59800000I0J-100000D01*
G01*
G37*
G36*
G01*
X18525000Y-61800000D02*
X18525000Y-62000000D01*
G75*
G02*
X18425000Y-62100000I-100000J0D01*
G01*
X17825000Y-62100000D01*
G75*
G02*
X17725000Y-62000000I0J100000D01*
G01*
X17725000Y-61800000D01*
G75*
G02*
X17825000Y-61700000I100000J0D01*
G01*
X18425000Y-61700000D01*
G75*
G02*
X18525000Y-61800000I0J-100000D01*
G01*
G37*
G36*
G01*
X22275000Y-61800000D02*
X22275000Y-62000000D01*
G75*
G02*
X22175000Y-62100000I-100000J0D01*
G01*
X21575000Y-62100000D01*
G75*
G02*
X21475000Y-62000000I0J100000D01*
G01*
X21475000Y-61800000D01*
G75*
G02*
X21575000Y-61700000I100000J0D01*
G01*
X22175000Y-61700000D01*
G75*
G02*
X22275000Y-61800000I0J-100000D01*
G01*
G37*
%TD*%
%TO.C,D11*%
G36*
G01*
X38422500Y-48680000D02*
X38077500Y-48680000D01*
G75*
G02*
X37930000Y-48532500I0J147500D01*
G01*
X37930000Y-48237500D01*
G75*
G02*
X38077500Y-48090000I147500J0D01*
G01*
X38422500Y-48090000D01*
G75*
G02*
X38570000Y-48237500I0J-147500D01*
G01*
X38570000Y-48532500D01*
G75*
G02*
X38422500Y-48680000I-147500J0D01*
G01*
G37*
G36*
G01*
X38422500Y-47710000D02*
X38077500Y-47710000D01*
G75*
G02*
X37930000Y-47562500I0J147500D01*
G01*
X37930000Y-47267500D01*
G75*
G02*
X38077500Y-47120000I147500J0D01*
G01*
X38422500Y-47120000D01*
G75*
G02*
X38570000Y-47267500I0J-147500D01*
G01*
X38570000Y-47562500D01*
G75*
G02*
X38422500Y-47710000I-147500J0D01*
G01*
G37*
%TD*%
%TO.C,D2*%
G36*
G01*
X51922500Y-48680000D02*
X51577500Y-48680000D01*
G75*
G02*
X51430000Y-48532500I0J147500D01*
G01*
X51430000Y-48237500D01*
G75*
G02*
X51577500Y-48090000I147500J0D01*
G01*
X51922500Y-48090000D01*
G75*
G02*
X52070000Y-48237500I0J-147500D01*
G01*
X52070000Y-48532500D01*
G75*
G02*
X51922500Y-48680000I-147500J0D01*
G01*
G37*
G36*
G01*
X51922500Y-47710000D02*
X51577500Y-47710000D01*
G75*
G02*
X51430000Y-47562500I0J147500D01*
G01*
X51430000Y-47267500D01*
G75*
G02*
X51577500Y-47120000I147500J0D01*
G01*
X51922500Y-47120000D01*
G75*
G02*
X52070000Y-47267500I0J-147500D01*
G01*
X52070000Y-47562500D01*
G75*
G02*
X51922500Y-47710000I-147500J0D01*
G01*
G37*
%TD*%
%TO.C,U10*%
G36*
G01*
X70445000Y-46065000D02*
X69955000Y-46065000D01*
G75*
G02*
X69880000Y-45990000I0J75000D01*
G01*
X69880000Y-45840000D01*
G75*
G02*
X69955000Y-45765000I75000J0D01*
G01*
X70445000Y-45765000D01*
G75*
G02*
X70520000Y-45840000I0J-75000D01*
G01*
X70520000Y-45990000D01*
G75*
G02*
X70445000Y-46065000I-75000J0D01*
G01*
G37*
G36*
G01*
X68045000Y-47035000D02*
X67555000Y-47035000D01*
G75*
G02*
X67480000Y-46960000I0J75000D01*
G01*
X67480000Y-46810000D01*
G75*
G02*
X67555000Y-46735000I75000J0D01*
G01*
X68045000Y-46735000D01*
G75*
G02*
X68120000Y-46810000I0J-75000D01*
G01*
X68120000Y-46960000D01*
G75*
G02*
X68045000Y-47035000I-75000J0D01*
G01*
G37*
G36*
G01*
X69320000Y-49895000D02*
X69320000Y-49405000D01*
G75*
G02*
X69395000Y-49330000I75000J0D01*
G01*
X69545000Y-49330000D01*
G75*
G02*
X69620000Y-49405000I0J-75000D01*
G01*
X69620000Y-49895000D01*
G75*
G02*
X69545000Y-49970000I-75000J0D01*
G01*
X69395000Y-49970000D01*
G75*
G02*
X69320000Y-49895000I0J75000D01*
G01*
G37*
G36*
G01*
X68045000Y-49035000D02*
X67555000Y-49035000D01*
G75*
G02*
X67480000Y-48960000I0J75000D01*
G01*
X67480000Y-48810000D01*
G75*
G02*
X67555000Y-48735000I75000J0D01*
G01*
X68045000Y-48735000D01*
G75*
G02*
X68120000Y-48810000I0J-75000D01*
G01*
X68120000Y-48960000D01*
G75*
G02*
X68045000Y-49035000I-75000J0D01*
G01*
G37*
G36*
G01*
X70425000Y-48065000D02*
X69935000Y-48065000D01*
G75*
G02*
X69860000Y-47990000I0J75000D01*
G01*
X69860000Y-47840000D01*
G75*
G02*
X69935000Y-47765000I75000J0D01*
G01*
X70425000Y-47765000D01*
G75*
G02*
X70500000Y-47840000I0J-75000D01*
G01*
X70500000Y-47990000D01*
G75*
G02*
X70425000Y-48065000I-75000J0D01*
G01*
G37*
G36*
G01*
X68365000Y-45395000D02*
X68365000Y-44905000D01*
G75*
G02*
X68440000Y-44830000I75000J0D01*
G01*
X68590000Y-44830000D01*
G75*
G02*
X68665000Y-44905000I0J-75000D01*
G01*
X68665000Y-45395000D01*
G75*
G02*
X68590000Y-45470000I-75000J0D01*
G01*
X68440000Y-45470000D01*
G75*
G02*
X68365000Y-45395000I0J75000D01*
G01*
G37*
G36*
G01*
X68365000Y-47645000D02*
X68365000Y-47155000D01*
G75*
G02*
X68440000Y-47080000I75000J0D01*
G01*
X68590000Y-47080000D01*
G75*
G02*
X68665000Y-47155000I0J-75000D01*
G01*
X68665000Y-47645000D01*
G75*
G02*
X68590000Y-47720000I-75000J0D01*
G01*
X68440000Y-47720000D01*
G75*
G02*
X68365000Y-47645000I0J75000D01*
G01*
G37*
%TD*%
%TO.C,SW2*%
G36*
G01*
X17725000Y-55000000D02*
X17725000Y-54800000D01*
G75*
G02*
X17825000Y-54700000I100000J0D01*
G01*
X18425000Y-54700000D01*
G75*
G02*
X18525000Y-54800000I0J-100000D01*
G01*
X18525000Y-55000000D01*
G75*
G02*
X18425000Y-55100000I-100000J0D01*
G01*
X17825000Y-55100000D01*
G75*
G02*
X17725000Y-55000000I0J100000D01*
G01*
G37*
G36*
G01*
X21475000Y-55000000D02*
X21475000Y-54800000D01*
G75*
G02*
X21575000Y-54700000I100000J0D01*
G01*
X22175000Y-54700000D01*
G75*
G02*
X22275000Y-54800000I0J-100000D01*
G01*
X22275000Y-55000000D01*
G75*
G02*
X22175000Y-55100000I-100000J0D01*
G01*
X21575000Y-55100000D01*
G75*
G02*
X21475000Y-55000000I0J100000D01*
G01*
G37*
G36*
G01*
X17725000Y-53000000D02*
X17725000Y-52800000D01*
G75*
G02*
X17825000Y-52700000I100000J0D01*
G01*
X18425000Y-52700000D01*
G75*
G02*
X18525000Y-52800000I0J-100000D01*
G01*
X18525000Y-53000000D01*
G75*
G02*
X18425000Y-53100000I-100000J0D01*
G01*
X17825000Y-53100000D01*
G75*
G02*
X17725000Y-53000000I0J100000D01*
G01*
G37*
G36*
G01*
X21475000Y-53000000D02*
X21475000Y-52800000D01*
G75*
G02*
X21575000Y-52700000I100000J0D01*
G01*
X22175000Y-52700000D01*
G75*
G02*
X22275000Y-52800000I0J-100000D01*
G01*
X22275000Y-53000000D01*
G75*
G02*
X22175000Y-53100000I-100000J0D01*
G01*
X21575000Y-53100000D01*
G75*
G02*
X21475000Y-53000000I0J100000D01*
G01*
G37*
%TD*%
%TO.C,D8*%
G36*
G01*
X42922500Y-48680000D02*
X42577500Y-48680000D01*
G75*
G02*
X42430000Y-48532500I0J147500D01*
G01*
X42430000Y-48237500D01*
G75*
G02*
X42577500Y-48090000I147500J0D01*
G01*
X42922500Y-48090000D01*
G75*
G02*
X43070000Y-48237500I0J-147500D01*
G01*
X43070000Y-48532500D01*
G75*
G02*
X42922500Y-48680000I-147500J0D01*
G01*
G37*
G36*
G01*
X42922500Y-47710000D02*
X42577500Y-47710000D01*
G75*
G02*
X42430000Y-47562500I0J147500D01*
G01*
X42430000Y-47267500D01*
G75*
G02*
X42577500Y-47120000I147500J0D01*
G01*
X42922500Y-47120000D01*
G75*
G02*
X43070000Y-47267500I0J-147500D01*
G01*
X43070000Y-47562500D01*
G75*
G02*
X42922500Y-47710000I-147500J0D01*
G01*
G37*
%TD*%
%TO.C,U7*%
G36*
G01*
X58445000Y-46065000D02*
X57955000Y-46065000D01*
G75*
G02*
X57880000Y-45990000I0J75000D01*
G01*
X57880000Y-45840000D01*
G75*
G02*
X57955000Y-45765000I75000J0D01*
G01*
X58445000Y-45765000D01*
G75*
G02*
X58520000Y-45840000I0J-75000D01*
G01*
X58520000Y-45990000D01*
G75*
G02*
X58445000Y-46065000I-75000J0D01*
G01*
G37*
G36*
G01*
X57320000Y-49895000D02*
X57320000Y-49405000D01*
G75*
G02*
X57395000Y-49330000I75000J0D01*
G01*
X57545000Y-49330000D01*
G75*
G02*
X57620000Y-49405000I0J-75000D01*
G01*
X57620000Y-49895000D01*
G75*
G02*
X57545000Y-49970000I-75000J0D01*
G01*
X57395000Y-49970000D01*
G75*
G02*
X57320000Y-49895000I0J75000D01*
G01*
G37*
G36*
G01*
X56365000Y-47645000D02*
X56365000Y-47155000D01*
G75*
G02*
X56440000Y-47080000I75000J0D01*
G01*
X56590000Y-47080000D01*
G75*
G02*
X56665000Y-47155000I0J-75000D01*
G01*
X56665000Y-47645000D01*
G75*
G02*
X56590000Y-47720000I-75000J0D01*
G01*
X56440000Y-47720000D01*
G75*
G02*
X56365000Y-47645000I0J75000D01*
G01*
G37*
G36*
G01*
X56045000Y-47035000D02*
X55555000Y-47035000D01*
G75*
G02*
X55480000Y-46960000I0J75000D01*
G01*
X55480000Y-46810000D01*
G75*
G02*
X55555000Y-46735000I75000J0D01*
G01*
X56045000Y-46735000D01*
G75*
G02*
X56120000Y-46810000I0J-75000D01*
G01*
X56120000Y-46960000D01*
G75*
G02*
X56045000Y-47035000I-75000J0D01*
G01*
G37*
G36*
G01*
X56045000Y-49035000D02*
X55555000Y-49035000D01*
G75*
G02*
X55480000Y-48960000I0J75000D01*
G01*
X55480000Y-48810000D01*
G75*
G02*
X55555000Y-48735000I75000J0D01*
G01*
X56045000Y-48735000D01*
G75*
G02*
X56120000Y-48810000I0J-75000D01*
G01*
X56120000Y-48960000D01*
G75*
G02*
X56045000Y-49035000I-75000J0D01*
G01*
G37*
G36*
G01*
X56365000Y-45395000D02*
X56365000Y-44905000D01*
G75*
G02*
X56440000Y-44830000I75000J0D01*
G01*
X56590000Y-44830000D01*
G75*
G02*
X56665000Y-44905000I0J-75000D01*
G01*
X56665000Y-45395000D01*
G75*
G02*
X56590000Y-45470000I-75000J0D01*
G01*
X56440000Y-45470000D01*
G75*
G02*
X56365000Y-45395000I0J75000D01*
G01*
G37*
G36*
G01*
X58425000Y-48065000D02*
X57935000Y-48065000D01*
G75*
G02*
X57860000Y-47990000I0J75000D01*
G01*
X57860000Y-47840000D01*
G75*
G02*
X57935000Y-47765000I75000J0D01*
G01*
X58425000Y-47765000D01*
G75*
G02*
X58500000Y-47840000I0J-75000D01*
G01*
X58500000Y-47990000D01*
G75*
G02*
X58425000Y-48065000I-75000J0D01*
G01*
G37*
%TD*%
%TO.C,D16*%
G36*
G01*
X30922500Y-48680000D02*
X30577500Y-48680000D01*
G75*
G02*
X30430000Y-48532500I0J147500D01*
G01*
X30430000Y-48237500D01*
G75*
G02*
X30577500Y-48090000I147500J0D01*
G01*
X30922500Y-48090000D01*
G75*
G02*
X31070000Y-48237500I0J-147500D01*
G01*
X31070000Y-48532500D01*
G75*
G02*
X30922500Y-48680000I-147500J0D01*
G01*
G37*
G36*
G01*
X30922500Y-47710000D02*
X30577500Y-47710000D01*
G75*
G02*
X30430000Y-47562500I0J147500D01*
G01*
X30430000Y-47267500D01*
G75*
G02*
X30577500Y-47120000I147500J0D01*
G01*
X30922500Y-47120000D01*
G75*
G02*
X31070000Y-47267500I0J-147500D01*
G01*
X31070000Y-47562500D01*
G75*
G02*
X30922500Y-47710000I-147500J0D01*
G01*
G37*
%TD*%
D10*
%TO.C,Q1*%
X16250000Y-42400000D03*
X16250000Y-42900000D03*
X16250000Y-43400000D03*
X17750000Y-43400000D03*
X17750000Y-42900000D03*
X17750000Y-42400000D03*
%TD*%
%TO.C,SW6*%
G36*
G01*
X61725000Y-55000000D02*
X61725000Y-54800000D01*
G75*
G02*
X61825000Y-54700000I100000J0D01*
G01*
X62425000Y-54700000D01*
G75*
G02*
X62525000Y-54800000I0J-100000D01*
G01*
X62525000Y-55000000D01*
G75*
G02*
X62425000Y-55100000I-100000J0D01*
G01*
X61825000Y-55100000D01*
G75*
G02*
X61725000Y-55000000I0J100000D01*
G01*
G37*
G36*
G01*
X65475000Y-55000000D02*
X65475000Y-54800000D01*
G75*
G02*
X65575000Y-54700000I100000J0D01*
G01*
X66175000Y-54700000D01*
G75*
G02*
X66275000Y-54800000I0J-100000D01*
G01*
X66275000Y-55000000D01*
G75*
G02*
X66175000Y-55100000I-100000J0D01*
G01*
X65575000Y-55100000D01*
G75*
G02*
X65475000Y-55000000I0J100000D01*
G01*
G37*
G36*
G01*
X65475000Y-53000000D02*
X65475000Y-52800000D01*
G75*
G02*
X65575000Y-52700000I100000J0D01*
G01*
X66175000Y-52700000D01*
G75*
G02*
X66275000Y-52800000I0J-100000D01*
G01*
X66275000Y-53000000D01*
G75*
G02*
X66175000Y-53100000I-100000J0D01*
G01*
X65575000Y-53100000D01*
G75*
G02*
X65475000Y-53000000I0J100000D01*
G01*
G37*
G36*
G01*
X61725000Y-53000000D02*
X61725000Y-52800000D01*
G75*
G02*
X61825000Y-52700000I100000J0D01*
G01*
X62425000Y-52700000D01*
G75*
G02*
X62525000Y-52800000I0J-100000D01*
G01*
X62525000Y-53000000D01*
G75*
G02*
X62425000Y-53100000I-100000J0D01*
G01*
X61825000Y-53100000D01*
G75*
G02*
X61725000Y-53000000I0J100000D01*
G01*
G37*
%TD*%
%TO.C,D7*%
G36*
G01*
X44422500Y-48680000D02*
X44077500Y-48680000D01*
G75*
G02*
X43930000Y-48532500I0J147500D01*
G01*
X43930000Y-48237500D01*
G75*
G02*
X44077500Y-48090000I147500J0D01*
G01*
X44422500Y-48090000D01*
G75*
G02*
X44570000Y-48237500I0J-147500D01*
G01*
X44570000Y-48532500D01*
G75*
G02*
X44422500Y-48680000I-147500J0D01*
G01*
G37*
G36*
G01*
X44422500Y-47710000D02*
X44077500Y-47710000D01*
G75*
G02*
X43930000Y-47562500I0J147500D01*
G01*
X43930000Y-47267500D01*
G75*
G02*
X44077500Y-47120000I147500J0D01*
G01*
X44422500Y-47120000D01*
G75*
G02*
X44570000Y-47267500I0J-147500D01*
G01*
X44570000Y-47562500D01*
G75*
G02*
X44422500Y-47710000I-147500J0D01*
G01*
G37*
%TD*%
%TO.C,Q3*%
X58250000Y-42400000D03*
X58250000Y-42900000D03*
X58250000Y-43400000D03*
X59750000Y-43400000D03*
X59750000Y-42900000D03*
X59750000Y-42400000D03*
%TD*%
%TO.C,D14*%
G36*
G01*
X33922500Y-48680000D02*
X33577500Y-48680000D01*
G75*
G02*
X33430000Y-48532500I0J147500D01*
G01*
X33430000Y-48237500D01*
G75*
G02*
X33577500Y-48090000I147500J0D01*
G01*
X33922500Y-48090000D01*
G75*
G02*
X34070000Y-48237500I0J-147500D01*
G01*
X34070000Y-48532500D01*
G75*
G02*
X33922500Y-48680000I-147500J0D01*
G01*
G37*
G36*
G01*
X33922500Y-47710000D02*
X33577500Y-47710000D01*
G75*
G02*
X33430000Y-47562500I0J147500D01*
G01*
X33430000Y-47267500D01*
G75*
G02*
X33577500Y-47120000I147500J0D01*
G01*
X33922500Y-47120000D01*
G75*
G02*
X34070000Y-47267500I0J-147500D01*
G01*
X34070000Y-47562500D01*
G75*
G02*
X33922500Y-47710000I-147500J0D01*
G01*
G37*
%TD*%
%TO.C,SW8*%
G36*
G01*
X66900000Y-58875000D02*
X67100000Y-58875000D01*
G75*
G02*
X67200000Y-58975000I0J-100000D01*
G01*
X67200000Y-59575000D01*
G75*
G02*
X67100000Y-59675000I-100000J0D01*
G01*
X66900000Y-59675000D01*
G75*
G02*
X66800000Y-59575000I0J100000D01*
G01*
X66800000Y-58975000D01*
G75*
G02*
X66900000Y-58875000I100000J0D01*
G01*
G37*
G36*
G01*
X66900000Y-55125000D02*
X67100000Y-55125000D01*
G75*
G02*
X67200000Y-55225000I0J-100000D01*
G01*
X67200000Y-55825000D01*
G75*
G02*
X67100000Y-55925000I-100000J0D01*
G01*
X66900000Y-55925000D01*
G75*
G02*
X66800000Y-55825000I0J100000D01*
G01*
X66800000Y-55225000D01*
G75*
G02*
X66900000Y-55125000I100000J0D01*
G01*
G37*
G36*
G01*
X68900000Y-58875000D02*
X69100000Y-58875000D01*
G75*
G02*
X69200000Y-58975000I0J-100000D01*
G01*
X69200000Y-59575000D01*
G75*
G02*
X69100000Y-59675000I-100000J0D01*
G01*
X68900000Y-59675000D01*
G75*
G02*
X68800000Y-59575000I0J100000D01*
G01*
X68800000Y-58975000D01*
G75*
G02*
X68900000Y-58875000I100000J0D01*
G01*
G37*
G36*
G01*
X68900000Y-55125000D02*
X69100000Y-55125000D01*
G75*
G02*
X69200000Y-55225000I0J-100000D01*
G01*
X69200000Y-55825000D01*
G75*
G02*
X69100000Y-55925000I-100000J0D01*
G01*
X68900000Y-55925000D01*
G75*
G02*
X68800000Y-55825000I0J100000D01*
G01*
X68800000Y-55225000D01*
G75*
G02*
X68900000Y-55125000I100000J0D01*
G01*
G37*
%TD*%
%TO.C,D13*%
G36*
G01*
X35422500Y-48680000D02*
X35077500Y-48680000D01*
G75*
G02*
X34930000Y-48532500I0J147500D01*
G01*
X34930000Y-48237500D01*
G75*
G02*
X35077500Y-48090000I147500J0D01*
G01*
X35422500Y-48090000D01*
G75*
G02*
X35570000Y-48237500I0J-147500D01*
G01*
X35570000Y-48532500D01*
G75*
G02*
X35422500Y-48680000I-147500J0D01*
G01*
G37*
G36*
G01*
X35422500Y-47710000D02*
X35077500Y-47710000D01*
G75*
G02*
X34930000Y-47562500I0J147500D01*
G01*
X34930000Y-47267500D01*
G75*
G02*
X35077500Y-47120000I147500J0D01*
G01*
X35422500Y-47120000D01*
G75*
G02*
X35570000Y-47267500I0J-147500D01*
G01*
X35570000Y-47562500D01*
G75*
G02*
X35422500Y-47710000I-147500J0D01*
G01*
G37*
%TD*%
%TO.C,U8*%
G36*
G01*
X61305000Y-49895000D02*
X61305000Y-49405000D01*
G75*
G02*
X61380000Y-49330000I75000J0D01*
G01*
X61530000Y-49330000D01*
G75*
G02*
X61605000Y-49405000I0J-75000D01*
G01*
X61605000Y-49895000D01*
G75*
G02*
X61530000Y-49970000I-75000J0D01*
G01*
X61380000Y-49970000D01*
G75*
G02*
X61305000Y-49895000I0J75000D01*
G01*
G37*
G36*
G01*
X62430000Y-46065000D02*
X61940000Y-46065000D01*
G75*
G02*
X61865000Y-45990000I0J75000D01*
G01*
X61865000Y-45840000D01*
G75*
G02*
X61940000Y-45765000I75000J0D01*
G01*
X62430000Y-45765000D01*
G75*
G02*
X62505000Y-45840000I0J-75000D01*
G01*
X62505000Y-45990000D01*
G75*
G02*
X62430000Y-46065000I-75000J0D01*
G01*
G37*
G36*
G01*
X60030000Y-47035000D02*
X59540000Y-47035000D01*
G75*
G02*
X59465000Y-46960000I0J75000D01*
G01*
X59465000Y-46810000D01*
G75*
G02*
X59540000Y-46735000I75000J0D01*
G01*
X60030000Y-46735000D01*
G75*
G02*
X60105000Y-46810000I0J-75000D01*
G01*
X60105000Y-46960000D01*
G75*
G02*
X60030000Y-47035000I-75000J0D01*
G01*
G37*
G36*
G01*
X62410000Y-48065000D02*
X61920000Y-48065000D01*
G75*
G02*
X61845000Y-47990000I0J75000D01*
G01*
X61845000Y-47840000D01*
G75*
G02*
X61920000Y-47765000I75000J0D01*
G01*
X62410000Y-47765000D01*
G75*
G02*
X62485000Y-47840000I0J-75000D01*
G01*
X62485000Y-47990000D01*
G75*
G02*
X62410000Y-48065000I-75000J0D01*
G01*
G37*
G36*
G01*
X60350000Y-45395000D02*
X60350000Y-44905000D01*
G75*
G02*
X60425000Y-44830000I75000J0D01*
G01*
X60575000Y-44830000D01*
G75*
G02*
X60650000Y-44905000I0J-75000D01*
G01*
X60650000Y-45395000D01*
G75*
G02*
X60575000Y-45470000I-75000J0D01*
G01*
X60425000Y-45470000D01*
G75*
G02*
X60350000Y-45395000I0J75000D01*
G01*
G37*
G36*
G01*
X60350000Y-47645000D02*
X60350000Y-47155000D01*
G75*
G02*
X60425000Y-47080000I75000J0D01*
G01*
X60575000Y-47080000D01*
G75*
G02*
X60650000Y-47155000I0J-75000D01*
G01*
X60650000Y-47645000D01*
G75*
G02*
X60575000Y-47720000I-75000J0D01*
G01*
X60425000Y-47720000D01*
G75*
G02*
X60350000Y-47645000I0J75000D01*
G01*
G37*
G36*
G01*
X60030000Y-49035000D02*
X59540000Y-49035000D01*
G75*
G02*
X59465000Y-48960000I0J75000D01*
G01*
X59465000Y-48810000D01*
G75*
G02*
X59540000Y-48735000I75000J0D01*
G01*
X60030000Y-48735000D01*
G75*
G02*
X60105000Y-48810000I0J-75000D01*
G01*
X60105000Y-48960000D01*
G75*
G02*
X60030000Y-49035000I-75000J0D01*
G01*
G37*
%TD*%
%TO.C,Q2*%
X24250000Y-42400000D03*
X24250000Y-42900000D03*
X24250000Y-43400000D03*
X25750000Y-43400000D03*
X25750000Y-42900000D03*
X25750000Y-42400000D03*
%TD*%
%TO.C,D12*%
G36*
G01*
X36922500Y-48680000D02*
X36577500Y-48680000D01*
G75*
G02*
X36430000Y-48532500I0J147500D01*
G01*
X36430000Y-48237500D01*
G75*
G02*
X36577500Y-48090000I147500J0D01*
G01*
X36922500Y-48090000D01*
G75*
G02*
X37070000Y-48237500I0J-147500D01*
G01*
X37070000Y-48532500D01*
G75*
G02*
X36922500Y-48680000I-147500J0D01*
G01*
G37*
G36*
G01*
X36922500Y-47710000D02*
X36577500Y-47710000D01*
G75*
G02*
X36430000Y-47562500I0J147500D01*
G01*
X36430000Y-47267500D01*
G75*
G02*
X36577500Y-47120000I147500J0D01*
G01*
X36922500Y-47120000D01*
G75*
G02*
X37070000Y-47267500I0J-147500D01*
G01*
X37070000Y-47562500D01*
G75*
G02*
X36922500Y-47710000I-147500J0D01*
G01*
G37*
%TD*%
%TO.C,D9*%
G36*
G01*
X41422500Y-48680000D02*
X41077500Y-48680000D01*
G75*
G02*
X40930000Y-48532500I0J147500D01*
G01*
X40930000Y-48237500D01*
G75*
G02*
X41077500Y-48090000I147500J0D01*
G01*
X41422500Y-48090000D01*
G75*
G02*
X41570000Y-48237500I0J-147500D01*
G01*
X41570000Y-48532500D01*
G75*
G02*
X41422500Y-48680000I-147500J0D01*
G01*
G37*
G36*
G01*
X41422500Y-47710000D02*
X41077500Y-47710000D01*
G75*
G02*
X40930000Y-47562500I0J147500D01*
G01*
X40930000Y-47267500D01*
G75*
G02*
X41077500Y-47120000I147500J0D01*
G01*
X41422500Y-47120000D01*
G75*
G02*
X41570000Y-47267500I0J-147500D01*
G01*
X41570000Y-47562500D01*
G75*
G02*
X41422500Y-47710000I-147500J0D01*
G01*
G37*
%TD*%
%TO.C,U9*%
G36*
G01*
X66445000Y-46065000D02*
X65955000Y-46065000D01*
G75*
G02*
X65880000Y-45990000I0J75000D01*
G01*
X65880000Y-45840000D01*
G75*
G02*
X65955000Y-45765000I75000J0D01*
G01*
X66445000Y-45765000D01*
G75*
G02*
X66520000Y-45840000I0J-75000D01*
G01*
X66520000Y-45990000D01*
G75*
G02*
X66445000Y-46065000I-75000J0D01*
G01*
G37*
G36*
G01*
X64365000Y-45395000D02*
X64365000Y-44905000D01*
G75*
G02*
X64440000Y-44830000I75000J0D01*
G01*
X64590000Y-44830000D01*
G75*
G02*
X64665000Y-44905000I0J-75000D01*
G01*
X64665000Y-45395000D01*
G75*
G02*
X64590000Y-45470000I-75000J0D01*
G01*
X64440000Y-45470000D01*
G75*
G02*
X64365000Y-45395000I0J75000D01*
G01*
G37*
G36*
G01*
X64365000Y-47645000D02*
X64365000Y-47155000D01*
G75*
G02*
X64440000Y-47080000I75000J0D01*
G01*
X64590000Y-47080000D01*
G75*
G02*
X64665000Y-47155000I0J-75000D01*
G01*
X64665000Y-47645000D01*
G75*
G02*
X64590000Y-47720000I-75000J0D01*
G01*
X64440000Y-47720000D01*
G75*
G02*
X64365000Y-47645000I0J75000D01*
G01*
G37*
G36*
G01*
X64045000Y-47035000D02*
X63555000Y-47035000D01*
G75*
G02*
X63480000Y-46960000I0J75000D01*
G01*
X63480000Y-46810000D01*
G75*
G02*
X63555000Y-46735000I75000J0D01*
G01*
X64045000Y-46735000D01*
G75*
G02*
X64120000Y-46810000I0J-75000D01*
G01*
X64120000Y-46960000D01*
G75*
G02*
X64045000Y-47035000I-75000J0D01*
G01*
G37*
G36*
G01*
X64045000Y-49035000D02*
X63555000Y-49035000D01*
G75*
G02*
X63480000Y-48960000I0J75000D01*
G01*
X63480000Y-48810000D01*
G75*
G02*
X63555000Y-48735000I75000J0D01*
G01*
X64045000Y-48735000D01*
G75*
G02*
X64120000Y-48810000I0J-75000D01*
G01*
X64120000Y-48960000D01*
G75*
G02*
X64045000Y-49035000I-75000J0D01*
G01*
G37*
G36*
G01*
X65320000Y-49895000D02*
X65320000Y-49405000D01*
G75*
G02*
X65395000Y-49330000I75000J0D01*
G01*
X65545000Y-49330000D01*
G75*
G02*
X65620000Y-49405000I0J-75000D01*
G01*
X65620000Y-49895000D01*
G75*
G02*
X65545000Y-49970000I-75000J0D01*
G01*
X65395000Y-49970000D01*
G75*
G02*
X65320000Y-49895000I0J75000D01*
G01*
G37*
G36*
G01*
X66425000Y-48065000D02*
X65935000Y-48065000D01*
G75*
G02*
X65860000Y-47990000I0J75000D01*
G01*
X65860000Y-47840000D01*
G75*
G02*
X65935000Y-47765000I75000J0D01*
G01*
X66425000Y-47765000D01*
G75*
G02*
X66500000Y-47840000I0J-75000D01*
G01*
X66500000Y-47990000D01*
G75*
G02*
X66425000Y-48065000I-75000J0D01*
G01*
G37*
%TD*%
D14*
%TO.C,J2*%
X16500000Y-36500000D03*
X17000000Y-36500000D03*
X17500000Y-36500000D03*
X18000000Y-36500000D03*
X18500000Y-36500000D03*
X19000000Y-36500000D03*
X19500000Y-36500000D03*
X20000000Y-36500000D03*
X20500000Y-36500000D03*
X21000000Y-36500000D03*
X21500000Y-36500000D03*
X22000000Y-36500000D03*
X22500000Y-36500000D03*
X23000000Y-36500000D03*
X23500000Y-36500000D03*
X24000000Y-36500000D03*
X24500000Y-36500000D03*
X25000000Y-36500000D03*
X25500000Y-36500000D03*
%TD*%
%TO.C,SW5*%
G36*
G01*
X61100000Y-59675000D02*
X60900000Y-59675000D01*
G75*
G02*
X60800000Y-59575000I0J100000D01*
G01*
X60800000Y-58975000D01*
G75*
G02*
X60900000Y-58875000I100000J0D01*
G01*
X61100000Y-58875000D01*
G75*
G02*
X61200000Y-58975000I0J-100000D01*
G01*
X61200000Y-59575000D01*
G75*
G02*
X61100000Y-59675000I-100000J0D01*
G01*
G37*
G36*
G01*
X61100000Y-55925000D02*
X60900000Y-55925000D01*
G75*
G02*
X60800000Y-55825000I0J100000D01*
G01*
X60800000Y-55225000D01*
G75*
G02*
X60900000Y-55125000I100000J0D01*
G01*
X61100000Y-55125000D01*
G75*
G02*
X61200000Y-55225000I0J-100000D01*
G01*
X61200000Y-55825000D01*
G75*
G02*
X61100000Y-55925000I-100000J0D01*
G01*
G37*
G36*
G01*
X59100000Y-59675000D02*
X58900000Y-59675000D01*
G75*
G02*
X58800000Y-59575000I0J100000D01*
G01*
X58800000Y-58975000D01*
G75*
G02*
X58900000Y-58875000I100000J0D01*
G01*
X59100000Y-58875000D01*
G75*
G02*
X59200000Y-58975000I0J-100000D01*
G01*
X59200000Y-59575000D01*
G75*
G02*
X59100000Y-59675000I-100000J0D01*
G01*
G37*
G36*
G01*
X59100000Y-55925000D02*
X58900000Y-55925000D01*
G75*
G02*
X58800000Y-55825000I0J100000D01*
G01*
X58800000Y-55225000D01*
G75*
G02*
X58900000Y-55125000I100000J0D01*
G01*
X59100000Y-55125000D01*
G75*
G02*
X59200000Y-55225000I0J-100000D01*
G01*
X59200000Y-55825000D01*
G75*
G02*
X59100000Y-55925000I-100000J0D01*
G01*
G37*
%TD*%
D12*
%TO.C,RN3*%
X62800000Y-58300000D03*
D13*
X63600000Y-58300000D03*
X64400000Y-58300000D03*
D12*
X65200000Y-58300000D03*
X65200000Y-56500000D03*
D13*
X64400000Y-56500000D03*
X63600000Y-56500000D03*
D12*
X62800000Y-56500000D03*
%TD*%
%TO.C,SW4*%
G36*
G01*
X22900000Y-55125000D02*
X23100000Y-55125000D01*
G75*
G02*
X23200000Y-55225000I0J-100000D01*
G01*
X23200000Y-55825000D01*
G75*
G02*
X23100000Y-55925000I-100000J0D01*
G01*
X22900000Y-55925000D01*
G75*
G02*
X22800000Y-55825000I0J100000D01*
G01*
X22800000Y-55225000D01*
G75*
G02*
X22900000Y-55125000I100000J0D01*
G01*
G37*
G36*
G01*
X22900000Y-58875000D02*
X23100000Y-58875000D01*
G75*
G02*
X23200000Y-58975000I0J-100000D01*
G01*
X23200000Y-59575000D01*
G75*
G02*
X23100000Y-59675000I-100000J0D01*
G01*
X22900000Y-59675000D01*
G75*
G02*
X22800000Y-59575000I0J100000D01*
G01*
X22800000Y-58975000D01*
G75*
G02*
X22900000Y-58875000I100000J0D01*
G01*
G37*
G36*
G01*
X24900000Y-58875000D02*
X25100000Y-58875000D01*
G75*
G02*
X25200000Y-58975000I0J-100000D01*
G01*
X25200000Y-59575000D01*
G75*
G02*
X25100000Y-59675000I-100000J0D01*
G01*
X24900000Y-59675000D01*
G75*
G02*
X24800000Y-59575000I0J100000D01*
G01*
X24800000Y-58975000D01*
G75*
G02*
X24900000Y-58875000I100000J0D01*
G01*
G37*
G36*
G01*
X24900000Y-55125000D02*
X25100000Y-55125000D01*
G75*
G02*
X25200000Y-55225000I0J-100000D01*
G01*
X25200000Y-55825000D01*
G75*
G02*
X25100000Y-55925000I-100000J0D01*
G01*
X24900000Y-55925000D01*
G75*
G02*
X24800000Y-55825000I0J100000D01*
G01*
X24800000Y-55225000D01*
G75*
G02*
X24900000Y-55125000I100000J0D01*
G01*
G37*
%TD*%
M02*
