%TF.GenerationSoftware,KiCad,Pcbnew,(5.99.0-2671-gfc0a358ba)*%
%TF.CreationDate,2020-09-04T13:27:30+05:30*%
%TF.ProjectId,Alchitry_IO_Shield,416c6368-6974-4727-995f-494f5f536869,rev?*%
%TF.SameCoordinates,Original*%
%TF.FileFunction,Soldermask,Top*%
%TF.FilePolarity,Negative*%
%FSLAX46Y46*%
G04 Gerber Fmt 4.6, Leading zero omitted, Abs format (unit mm)*
G04 Created by KiCad (PCBNEW (5.99.0-2671-gfc0a358ba)) date 2020-09-04 13:27:30*
%MOMM*%
%LPD*%
G01*
G04 APERTURE LIST*
%ADD10C,0.254000*%
%ADD11C,0.652000*%
%ADD12C,2.302000*%
%ADD13O,1.302000X3.102000*%
%ADD14O,1.302000X2.502000*%
G04 APERTURE END LIST*
D10*
%TO.C,U1*%
X16000000Y-70450001D02*
G75*
G03*
X16000000Y-70450001I-1500000J0D01*
G01*
X76000000Y-70450001D02*
G75*
G03*
X76000000Y-70450001I-1500000J0D01*
G01*
X76000000Y-30450001D02*
G75*
G03*
X76000000Y-30450001I-1500000J0D01*
G01*
X16000000Y-70450001D02*
G75*
G03*
X16000000Y-70450001I-1500000J0D01*
G01*
X76000000Y-70450001D02*
G75*
G03*
X76000000Y-70450001I-1500000J0D01*
G01*
X76000000Y-30450001D02*
G75*
G03*
X76000000Y-30450001I-1500000J0D01*
G01*
%TD*%
%TO.C,JP6*%
G36*
G01*
X19424000Y-39281750D02*
X19424000Y-38718250D01*
G75*
G02*
X19668250Y-38474000I244250J0D01*
G01*
X20156750Y-38474000D01*
G75*
G02*
X20401000Y-38718250I0J-244250D01*
G01*
X20401000Y-39281750D01*
G75*
G02*
X20156750Y-39526000I-244250J0D01*
G01*
X19668250Y-39526000D01*
G75*
G02*
X19424000Y-39281750I0J244250D01*
G01*
G37*
G36*
G01*
X20511500Y-39281750D02*
X20511500Y-38718250D01*
G75*
G02*
X20755750Y-38474000I244250J0D01*
G01*
X21244250Y-38474000D01*
G75*
G02*
X21488500Y-38718250I0J-244250D01*
G01*
X21488500Y-39281750D01*
G75*
G02*
X21244250Y-39526000I-244250J0D01*
G01*
X20755750Y-39526000D01*
G75*
G02*
X20511500Y-39281750I0J244250D01*
G01*
G37*
G36*
G01*
X22588500Y-38718250D02*
X22588500Y-39281750D01*
G75*
G02*
X22344250Y-39526000I-244250J0D01*
G01*
X21855750Y-39526000D01*
G75*
G02*
X21611500Y-39281750I0J244250D01*
G01*
X21611500Y-38718250D01*
G75*
G02*
X21855750Y-38474000I244250J0D01*
G01*
X22344250Y-38474000D01*
G75*
G02*
X22588500Y-38718250I0J-244250D01*
G01*
G37*
%TD*%
D11*
%TO.C,U1*%
X45450000Y-33700001D03*
X57050000Y-69700001D03*
X57050000Y-67200001D03*
D12*
X74500000Y-30450001D03*
D11*
X49450000Y-67200001D03*
X35550000Y-67200001D03*
X70950000Y-31200001D03*
X31550000Y-33700001D03*
X57050000Y-31200001D03*
X35550000Y-69700001D03*
D12*
X14500000Y-70450001D03*
D11*
X70950000Y-69700001D03*
X49450000Y-69700001D03*
X70950000Y-33700001D03*
X70950000Y-67200001D03*
D12*
X74500000Y-70450001D03*
D11*
X57050000Y-33700001D03*
X31550000Y-31200001D03*
X45450000Y-31200001D03*
%TD*%
%TO.C,U5*%
G36*
G01*
X22300000Y-45920000D02*
X22300000Y-45380000D01*
G75*
G02*
X22400000Y-45280000I100000J0D01*
G01*
X22600000Y-45280000D01*
G75*
G02*
X22700000Y-45380000I0J-100000D01*
G01*
X22700000Y-45920000D01*
G75*
G02*
X22600000Y-46020000I-100000J0D01*
G01*
X22400000Y-46020000D01*
G75*
G02*
X22300000Y-45920000I0J100000D01*
G01*
G37*
G36*
G01*
X23255000Y-50420000D02*
X23255000Y-49880000D01*
G75*
G02*
X23355000Y-49780000I100000J0D01*
G01*
X23555000Y-49780000D01*
G75*
G02*
X23655000Y-49880000I0J-100000D01*
G01*
X23655000Y-50420000D01*
G75*
G02*
X23555000Y-50520000I-100000J0D01*
G01*
X23355000Y-50520000D01*
G75*
G02*
X23255000Y-50420000I0J100000D01*
G01*
G37*
G36*
G01*
X22055000Y-47585000D02*
X21515000Y-47585000D01*
G75*
G02*
X21415000Y-47485000I0J100000D01*
G01*
X21415000Y-47285000D01*
G75*
G02*
X21515000Y-47185000I100000J0D01*
G01*
X22055000Y-47185000D01*
G75*
G02*
X22155000Y-47285000I0J-100000D01*
G01*
X22155000Y-47485000D01*
G75*
G02*
X22055000Y-47585000I-100000J0D01*
G01*
G37*
G36*
G01*
X22300000Y-48170000D02*
X22300000Y-47630000D01*
G75*
G02*
X22400000Y-47530000I100000J0D01*
G01*
X22600000Y-47530000D01*
G75*
G02*
X22700000Y-47630000I0J-100000D01*
G01*
X22700000Y-48170000D01*
G75*
G02*
X22600000Y-48270000I-100000J0D01*
G01*
X22400000Y-48270000D01*
G75*
G02*
X22300000Y-48170000I0J100000D01*
G01*
G37*
G36*
G01*
X24455000Y-46615000D02*
X23915000Y-46615000D01*
G75*
G02*
X23815000Y-46515000I0J100000D01*
G01*
X23815000Y-46315000D01*
G75*
G02*
X23915000Y-46215000I100000J0D01*
G01*
X24455000Y-46215000D01*
G75*
G02*
X24555000Y-46315000I0J-100000D01*
G01*
X24555000Y-46515000D01*
G75*
G02*
X24455000Y-46615000I-100000J0D01*
G01*
G37*
G36*
G01*
X22055000Y-49585000D02*
X21515000Y-49585000D01*
G75*
G02*
X21415000Y-49485000I0J100000D01*
G01*
X21415000Y-49285000D01*
G75*
G02*
X21515000Y-49185000I100000J0D01*
G01*
X22055000Y-49185000D01*
G75*
G02*
X22155000Y-49285000I0J-100000D01*
G01*
X22155000Y-49485000D01*
G75*
G02*
X22055000Y-49585000I-100000J0D01*
G01*
G37*
G36*
G01*
X24435000Y-48615000D02*
X23895000Y-48615000D01*
G75*
G02*
X23795000Y-48515000I0J100000D01*
G01*
X23795000Y-48315000D01*
G75*
G02*
X23895000Y-48215000I100000J0D01*
G01*
X24435000Y-48215000D01*
G75*
G02*
X24535000Y-48315000I0J-100000D01*
G01*
X24535000Y-48515000D01*
G75*
G02*
X24435000Y-48615000I-100000J0D01*
G01*
G37*
G36*
G01*
X24455000Y-47585000D02*
X23915000Y-47585000D01*
G75*
G02*
X23815000Y-47485000I0J100000D01*
G01*
X23815000Y-47285000D01*
G75*
G02*
X23915000Y-47185000I100000J0D01*
G01*
X24455000Y-47185000D01*
G75*
G02*
X24555000Y-47285000I0J-100000D01*
G01*
X24555000Y-47485000D01*
G75*
G02*
X24455000Y-47585000I-100000J0D01*
G01*
G37*
G36*
G01*
X24435000Y-49585000D02*
X23895000Y-49585000D01*
G75*
G02*
X23795000Y-49485000I0J100000D01*
G01*
X23795000Y-49285000D01*
G75*
G02*
X23895000Y-49185000I100000J0D01*
G01*
X24435000Y-49185000D01*
G75*
G02*
X24535000Y-49285000I0J-100000D01*
G01*
X24535000Y-49485000D01*
G75*
G02*
X24435000Y-49585000I-100000J0D01*
G01*
G37*
G36*
G01*
X22285000Y-50420000D02*
X22285000Y-49880000D01*
G75*
G02*
X22385000Y-49780000I100000J0D01*
G01*
X22585000Y-49780000D01*
G75*
G02*
X22685000Y-49880000I0J-100000D01*
G01*
X22685000Y-50420000D01*
G75*
G02*
X22585000Y-50520000I-100000J0D01*
G01*
X22385000Y-50520000D01*
G75*
G02*
X22285000Y-50420000I0J100000D01*
G01*
G37*
G36*
G01*
X22055000Y-48615000D02*
X21515000Y-48615000D01*
G75*
G02*
X21415000Y-48515000I0J100000D01*
G01*
X21415000Y-48315000D01*
G75*
G02*
X21515000Y-48215000I100000J0D01*
G01*
X22055000Y-48215000D01*
G75*
G02*
X22155000Y-48315000I0J-100000D01*
G01*
X22155000Y-48515000D01*
G75*
G02*
X22055000Y-48615000I-100000J0D01*
G01*
G37*
G36*
G01*
X22055000Y-46615000D02*
X21515000Y-46615000D01*
G75*
G02*
X21415000Y-46515000I0J100000D01*
G01*
X21415000Y-46315000D01*
G75*
G02*
X21515000Y-46215000I100000J0D01*
G01*
X22055000Y-46215000D01*
G75*
G02*
X22155000Y-46315000I0J-100000D01*
G01*
X22155000Y-46515000D01*
G75*
G02*
X22055000Y-46615000I-100000J0D01*
G01*
G37*
G36*
G01*
X23270000Y-45920000D02*
X23270000Y-45380000D01*
G75*
G02*
X23370000Y-45280000I100000J0D01*
G01*
X23570000Y-45280000D01*
G75*
G02*
X23670000Y-45380000I0J-100000D01*
G01*
X23670000Y-45920000D01*
G75*
G02*
X23570000Y-46020000I-100000J0D01*
G01*
X23370000Y-46020000D01*
G75*
G02*
X23270000Y-45920000I0J100000D01*
G01*
G37*
G36*
G01*
X23270000Y-48170000D02*
X23270000Y-47630000D01*
G75*
G02*
X23370000Y-47530000I100000J0D01*
G01*
X23570000Y-47530000D01*
G75*
G02*
X23670000Y-47630000I0J-100000D01*
G01*
X23670000Y-48170000D01*
G75*
G02*
X23570000Y-48270000I-100000J0D01*
G01*
X23370000Y-48270000D01*
G75*
G02*
X23270000Y-48170000I0J100000D01*
G01*
G37*
%TD*%
%TO.C,D15*%
G36*
G01*
X32448000Y-48731000D02*
X32052000Y-48731000D01*
G75*
G02*
X31879000Y-48558000I0J173000D01*
G01*
X31879000Y-48212000D01*
G75*
G02*
X32052000Y-48039000I173000J0D01*
G01*
X32448000Y-48039000D01*
G75*
G02*
X32621000Y-48212000I0J-173000D01*
G01*
X32621000Y-48558000D01*
G75*
G02*
X32448000Y-48731000I-173000J0D01*
G01*
G37*
G36*
G01*
X32448000Y-47761000D02*
X32052000Y-47761000D01*
G75*
G02*
X31879000Y-47588000I0J173000D01*
G01*
X31879000Y-47242000D01*
G75*
G02*
X32052000Y-47069000I173000J0D01*
G01*
X32448000Y-47069000D01*
G75*
G02*
X32621000Y-47242000I0J-173000D01*
G01*
X32621000Y-47588000D01*
G75*
G02*
X32448000Y-47761000I-173000J0D01*
G01*
G37*
%TD*%
%TO.C,U6*%
G36*
G01*
X28435000Y-48615000D02*
X27895000Y-48615000D01*
G75*
G02*
X27795000Y-48515000I0J100000D01*
G01*
X27795000Y-48315000D01*
G75*
G02*
X27895000Y-48215000I100000J0D01*
G01*
X28435000Y-48215000D01*
G75*
G02*
X28535000Y-48315000I0J-100000D01*
G01*
X28535000Y-48515000D01*
G75*
G02*
X28435000Y-48615000I-100000J0D01*
G01*
G37*
G36*
G01*
X28455000Y-46615000D02*
X27915000Y-46615000D01*
G75*
G02*
X27815000Y-46515000I0J100000D01*
G01*
X27815000Y-46315000D01*
G75*
G02*
X27915000Y-46215000I100000J0D01*
G01*
X28455000Y-46215000D01*
G75*
G02*
X28555000Y-46315000I0J-100000D01*
G01*
X28555000Y-46515000D01*
G75*
G02*
X28455000Y-46615000I-100000J0D01*
G01*
G37*
G36*
G01*
X26300000Y-45920000D02*
X26300000Y-45380000D01*
G75*
G02*
X26400000Y-45280000I100000J0D01*
G01*
X26600000Y-45280000D01*
G75*
G02*
X26700000Y-45380000I0J-100000D01*
G01*
X26700000Y-45920000D01*
G75*
G02*
X26600000Y-46020000I-100000J0D01*
G01*
X26400000Y-46020000D01*
G75*
G02*
X26300000Y-45920000I0J100000D01*
G01*
G37*
G36*
G01*
X26055000Y-49585000D02*
X25515000Y-49585000D01*
G75*
G02*
X25415000Y-49485000I0J100000D01*
G01*
X25415000Y-49285000D01*
G75*
G02*
X25515000Y-49185000I100000J0D01*
G01*
X26055000Y-49185000D01*
G75*
G02*
X26155000Y-49285000I0J-100000D01*
G01*
X26155000Y-49485000D01*
G75*
G02*
X26055000Y-49585000I-100000J0D01*
G01*
G37*
G36*
G01*
X27255000Y-50420000D02*
X27255000Y-49880000D01*
G75*
G02*
X27355000Y-49780000I100000J0D01*
G01*
X27555000Y-49780000D01*
G75*
G02*
X27655000Y-49880000I0J-100000D01*
G01*
X27655000Y-50420000D01*
G75*
G02*
X27555000Y-50520000I-100000J0D01*
G01*
X27355000Y-50520000D01*
G75*
G02*
X27255000Y-50420000I0J100000D01*
G01*
G37*
G36*
G01*
X26300000Y-48170000D02*
X26300000Y-47630000D01*
G75*
G02*
X26400000Y-47530000I100000J0D01*
G01*
X26600000Y-47530000D01*
G75*
G02*
X26700000Y-47630000I0J-100000D01*
G01*
X26700000Y-48170000D01*
G75*
G02*
X26600000Y-48270000I-100000J0D01*
G01*
X26400000Y-48270000D01*
G75*
G02*
X26300000Y-48170000I0J100000D01*
G01*
G37*
G36*
G01*
X26055000Y-47585000D02*
X25515000Y-47585000D01*
G75*
G02*
X25415000Y-47485000I0J100000D01*
G01*
X25415000Y-47285000D01*
G75*
G02*
X25515000Y-47185000I100000J0D01*
G01*
X26055000Y-47185000D01*
G75*
G02*
X26155000Y-47285000I0J-100000D01*
G01*
X26155000Y-47485000D01*
G75*
G02*
X26055000Y-47585000I-100000J0D01*
G01*
G37*
G36*
G01*
X28455000Y-47585000D02*
X27915000Y-47585000D01*
G75*
G02*
X27815000Y-47485000I0J100000D01*
G01*
X27815000Y-47285000D01*
G75*
G02*
X27915000Y-47185000I100000J0D01*
G01*
X28455000Y-47185000D01*
G75*
G02*
X28555000Y-47285000I0J-100000D01*
G01*
X28555000Y-47485000D01*
G75*
G02*
X28455000Y-47585000I-100000J0D01*
G01*
G37*
G36*
G01*
X28435000Y-49585000D02*
X27895000Y-49585000D01*
G75*
G02*
X27795000Y-49485000I0J100000D01*
G01*
X27795000Y-49285000D01*
G75*
G02*
X27895000Y-49185000I100000J0D01*
G01*
X28435000Y-49185000D01*
G75*
G02*
X28535000Y-49285000I0J-100000D01*
G01*
X28535000Y-49485000D01*
G75*
G02*
X28435000Y-49585000I-100000J0D01*
G01*
G37*
G36*
G01*
X26285000Y-50420000D02*
X26285000Y-49880000D01*
G75*
G02*
X26385000Y-49780000I100000J0D01*
G01*
X26585000Y-49780000D01*
G75*
G02*
X26685000Y-49880000I0J-100000D01*
G01*
X26685000Y-50420000D01*
G75*
G02*
X26585000Y-50520000I-100000J0D01*
G01*
X26385000Y-50520000D01*
G75*
G02*
X26285000Y-50420000I0J100000D01*
G01*
G37*
G36*
G01*
X26055000Y-48615000D02*
X25515000Y-48615000D01*
G75*
G02*
X25415000Y-48515000I0J100000D01*
G01*
X25415000Y-48315000D01*
G75*
G02*
X25515000Y-48215000I100000J0D01*
G01*
X26055000Y-48215000D01*
G75*
G02*
X26155000Y-48315000I0J-100000D01*
G01*
X26155000Y-48515000D01*
G75*
G02*
X26055000Y-48615000I-100000J0D01*
G01*
G37*
G36*
G01*
X26055000Y-46615000D02*
X25515000Y-46615000D01*
G75*
G02*
X25415000Y-46515000I0J100000D01*
G01*
X25415000Y-46315000D01*
G75*
G02*
X25515000Y-46215000I100000J0D01*
G01*
X26055000Y-46215000D01*
G75*
G02*
X26155000Y-46315000I0J-100000D01*
G01*
X26155000Y-46515000D01*
G75*
G02*
X26055000Y-46615000I-100000J0D01*
G01*
G37*
G36*
G01*
X27270000Y-45920000D02*
X27270000Y-45380000D01*
G75*
G02*
X27370000Y-45280000I100000J0D01*
G01*
X27570000Y-45280000D01*
G75*
G02*
X27670000Y-45380000I0J-100000D01*
G01*
X27670000Y-45920000D01*
G75*
G02*
X27570000Y-46020000I-100000J0D01*
G01*
X27370000Y-46020000D01*
G75*
G02*
X27270000Y-45920000I0J100000D01*
G01*
G37*
G36*
G01*
X27270000Y-48170000D02*
X27270000Y-47630000D01*
G75*
G02*
X27370000Y-47530000I100000J0D01*
G01*
X27570000Y-47530000D01*
G75*
G02*
X27670000Y-47630000I0J-100000D01*
G01*
X27670000Y-48170000D01*
G75*
G02*
X27570000Y-48270000I-100000J0D01*
G01*
X27370000Y-48270000D01*
G75*
G02*
X27270000Y-48170000I0J100000D01*
G01*
G37*
%TD*%
%TO.C,Q4*%
G36*
G01*
X65849000Y-42586995D02*
X65849000Y-42213005D01*
G75*
G02*
X65913005Y-42149000I64005J0D01*
G01*
X66586995Y-42149000D01*
G75*
G02*
X66651000Y-42213005I0J-64005D01*
G01*
X66651000Y-42586995D01*
G75*
G02*
X66586995Y-42651000I-64005J0D01*
G01*
X65913005Y-42651000D01*
G75*
G02*
X65849000Y-42586995I0J64005D01*
G01*
G37*
G36*
G01*
X65849000Y-43086995D02*
X65849000Y-42713005D01*
G75*
G02*
X65913005Y-42649000I64005J0D01*
G01*
X66586995Y-42649000D01*
G75*
G02*
X66651000Y-42713005I0J-64005D01*
G01*
X66651000Y-43086995D01*
G75*
G02*
X66586995Y-43151000I-64005J0D01*
G01*
X65913005Y-43151000D01*
G75*
G02*
X65849000Y-43086995I0J64005D01*
G01*
G37*
G36*
G01*
X65849000Y-43586995D02*
X65849000Y-43213005D01*
G75*
G02*
X65913005Y-43149000I64005J0D01*
G01*
X66586995Y-43149000D01*
G75*
G02*
X66651000Y-43213005I0J-64005D01*
G01*
X66651000Y-43586995D01*
G75*
G02*
X66586995Y-43651000I-64005J0D01*
G01*
X65913005Y-43651000D01*
G75*
G02*
X65849000Y-43586995I0J64005D01*
G01*
G37*
G36*
G01*
X67349000Y-43586995D02*
X67349000Y-43213005D01*
G75*
G02*
X67413005Y-43149000I64005J0D01*
G01*
X68086995Y-43149000D01*
G75*
G02*
X68151000Y-43213005I0J-64005D01*
G01*
X68151000Y-43586995D01*
G75*
G02*
X68086995Y-43651000I-64005J0D01*
G01*
X67413005Y-43651000D01*
G75*
G02*
X67349000Y-43586995I0J64005D01*
G01*
G37*
G36*
G01*
X67349000Y-43086995D02*
X67349000Y-42713005D01*
G75*
G02*
X67413005Y-42649000I64005J0D01*
G01*
X68086995Y-42649000D01*
G75*
G02*
X68151000Y-42713005I0J-64005D01*
G01*
X68151000Y-43086995D01*
G75*
G02*
X68086995Y-43151000I-64005J0D01*
G01*
X67413005Y-43151000D01*
G75*
G02*
X67349000Y-43086995I0J64005D01*
G01*
G37*
G36*
G01*
X67349000Y-42586995D02*
X67349000Y-42213005D01*
G75*
G02*
X67413005Y-42149000I64005J0D01*
G01*
X68086995Y-42149000D01*
G75*
G02*
X68151000Y-42213005I0J-64005D01*
G01*
X68151000Y-42586995D01*
G75*
G02*
X68086995Y-42651000I-64005J0D01*
G01*
X67413005Y-42651000D01*
G75*
G02*
X67349000Y-42586995I0J64005D01*
G01*
G37*
%TD*%
%TO.C,D6*%
G36*
G01*
X45948000Y-48731000D02*
X45552000Y-48731000D01*
G75*
G02*
X45379000Y-48558000I0J173000D01*
G01*
X45379000Y-48212000D01*
G75*
G02*
X45552000Y-48039000I173000J0D01*
G01*
X45948000Y-48039000D01*
G75*
G02*
X46121000Y-48212000I0J-173000D01*
G01*
X46121000Y-48558000D01*
G75*
G02*
X45948000Y-48731000I-173000J0D01*
G01*
G37*
G36*
G01*
X45948000Y-47761000D02*
X45552000Y-47761000D01*
G75*
G02*
X45379000Y-47588000I0J173000D01*
G01*
X45379000Y-47242000D01*
G75*
G02*
X45552000Y-47069000I173000J0D01*
G01*
X45948000Y-47069000D01*
G75*
G02*
X46121000Y-47242000I0J-173000D01*
G01*
X46121000Y-47588000D01*
G75*
G02*
X45948000Y-47761000I-173000J0D01*
G01*
G37*
%TD*%
%TO.C,D1*%
G36*
G01*
X53448000Y-48731000D02*
X53052000Y-48731000D01*
G75*
G02*
X52879000Y-48558000I0J173000D01*
G01*
X52879000Y-48212000D01*
G75*
G02*
X53052000Y-48039000I173000J0D01*
G01*
X53448000Y-48039000D01*
G75*
G02*
X53621000Y-48212000I0J-173000D01*
G01*
X53621000Y-48558000D01*
G75*
G02*
X53448000Y-48731000I-173000J0D01*
G01*
G37*
G36*
G01*
X53448000Y-47761000D02*
X53052000Y-47761000D01*
G75*
G02*
X52879000Y-47588000I0J173000D01*
G01*
X52879000Y-47242000D01*
G75*
G02*
X53052000Y-47069000I173000J0D01*
G01*
X53448000Y-47069000D01*
G75*
G02*
X53621000Y-47242000I0J-173000D01*
G01*
X53621000Y-47588000D01*
G75*
G02*
X53448000Y-47761000I-173000J0D01*
G01*
G37*
%TD*%
%TO.C,U3*%
G36*
G01*
X14300000Y-48170000D02*
X14300000Y-47630000D01*
G75*
G02*
X14400000Y-47530000I100000J0D01*
G01*
X14600000Y-47530000D01*
G75*
G02*
X14700000Y-47630000I0J-100000D01*
G01*
X14700000Y-48170000D01*
G75*
G02*
X14600000Y-48270000I-100000J0D01*
G01*
X14400000Y-48270000D01*
G75*
G02*
X14300000Y-48170000I0J100000D01*
G01*
G37*
G36*
G01*
X16455000Y-46615000D02*
X15915000Y-46615000D01*
G75*
G02*
X15815000Y-46515000I0J100000D01*
G01*
X15815000Y-46315000D01*
G75*
G02*
X15915000Y-46215000I100000J0D01*
G01*
X16455000Y-46215000D01*
G75*
G02*
X16555000Y-46315000I0J-100000D01*
G01*
X16555000Y-46515000D01*
G75*
G02*
X16455000Y-46615000I-100000J0D01*
G01*
G37*
G36*
G01*
X16435000Y-48615000D02*
X15895000Y-48615000D01*
G75*
G02*
X15795000Y-48515000I0J100000D01*
G01*
X15795000Y-48315000D01*
G75*
G02*
X15895000Y-48215000I100000J0D01*
G01*
X16435000Y-48215000D01*
G75*
G02*
X16535000Y-48315000I0J-100000D01*
G01*
X16535000Y-48515000D01*
G75*
G02*
X16435000Y-48615000I-100000J0D01*
G01*
G37*
G36*
G01*
X15255000Y-50420000D02*
X15255000Y-49880000D01*
G75*
G02*
X15355000Y-49780000I100000J0D01*
G01*
X15555000Y-49780000D01*
G75*
G02*
X15655000Y-49880000I0J-100000D01*
G01*
X15655000Y-50420000D01*
G75*
G02*
X15555000Y-50520000I-100000J0D01*
G01*
X15355000Y-50520000D01*
G75*
G02*
X15255000Y-50420000I0J100000D01*
G01*
G37*
G36*
G01*
X14300000Y-45920000D02*
X14300000Y-45380000D01*
G75*
G02*
X14400000Y-45280000I100000J0D01*
G01*
X14600000Y-45280000D01*
G75*
G02*
X14700000Y-45380000I0J-100000D01*
G01*
X14700000Y-45920000D01*
G75*
G02*
X14600000Y-46020000I-100000J0D01*
G01*
X14400000Y-46020000D01*
G75*
G02*
X14300000Y-45920000I0J100000D01*
G01*
G37*
G36*
G01*
X14055000Y-47585000D02*
X13515000Y-47585000D01*
G75*
G02*
X13415000Y-47485000I0J100000D01*
G01*
X13415000Y-47285000D01*
G75*
G02*
X13515000Y-47185000I100000J0D01*
G01*
X14055000Y-47185000D01*
G75*
G02*
X14155000Y-47285000I0J-100000D01*
G01*
X14155000Y-47485000D01*
G75*
G02*
X14055000Y-47585000I-100000J0D01*
G01*
G37*
G36*
G01*
X14055000Y-49585000D02*
X13515000Y-49585000D01*
G75*
G02*
X13415000Y-49485000I0J100000D01*
G01*
X13415000Y-49285000D01*
G75*
G02*
X13515000Y-49185000I100000J0D01*
G01*
X14055000Y-49185000D01*
G75*
G02*
X14155000Y-49285000I0J-100000D01*
G01*
X14155000Y-49485000D01*
G75*
G02*
X14055000Y-49585000I-100000J0D01*
G01*
G37*
G36*
G01*
X16455000Y-47585000D02*
X15915000Y-47585000D01*
G75*
G02*
X15815000Y-47485000I0J100000D01*
G01*
X15815000Y-47285000D01*
G75*
G02*
X15915000Y-47185000I100000J0D01*
G01*
X16455000Y-47185000D01*
G75*
G02*
X16555000Y-47285000I0J-100000D01*
G01*
X16555000Y-47485000D01*
G75*
G02*
X16455000Y-47585000I-100000J0D01*
G01*
G37*
G36*
G01*
X16435000Y-49585000D02*
X15895000Y-49585000D01*
G75*
G02*
X15795000Y-49485000I0J100000D01*
G01*
X15795000Y-49285000D01*
G75*
G02*
X15895000Y-49185000I100000J0D01*
G01*
X16435000Y-49185000D01*
G75*
G02*
X16535000Y-49285000I0J-100000D01*
G01*
X16535000Y-49485000D01*
G75*
G02*
X16435000Y-49585000I-100000J0D01*
G01*
G37*
G36*
G01*
X14285000Y-50420000D02*
X14285000Y-49880000D01*
G75*
G02*
X14385000Y-49780000I100000J0D01*
G01*
X14585000Y-49780000D01*
G75*
G02*
X14685000Y-49880000I0J-100000D01*
G01*
X14685000Y-50420000D01*
G75*
G02*
X14585000Y-50520000I-100000J0D01*
G01*
X14385000Y-50520000D01*
G75*
G02*
X14285000Y-50420000I0J100000D01*
G01*
G37*
G36*
G01*
X14055000Y-48615000D02*
X13515000Y-48615000D01*
G75*
G02*
X13415000Y-48515000I0J100000D01*
G01*
X13415000Y-48315000D01*
G75*
G02*
X13515000Y-48215000I100000J0D01*
G01*
X14055000Y-48215000D01*
G75*
G02*
X14155000Y-48315000I0J-100000D01*
G01*
X14155000Y-48515000D01*
G75*
G02*
X14055000Y-48615000I-100000J0D01*
G01*
G37*
G36*
G01*
X14055000Y-46615000D02*
X13515000Y-46615000D01*
G75*
G02*
X13415000Y-46515000I0J100000D01*
G01*
X13415000Y-46315000D01*
G75*
G02*
X13515000Y-46215000I100000J0D01*
G01*
X14055000Y-46215000D01*
G75*
G02*
X14155000Y-46315000I0J-100000D01*
G01*
X14155000Y-46515000D01*
G75*
G02*
X14055000Y-46615000I-100000J0D01*
G01*
G37*
G36*
G01*
X15270000Y-45920000D02*
X15270000Y-45380000D01*
G75*
G02*
X15370000Y-45280000I100000J0D01*
G01*
X15570000Y-45280000D01*
G75*
G02*
X15670000Y-45380000I0J-100000D01*
G01*
X15670000Y-45920000D01*
G75*
G02*
X15570000Y-46020000I-100000J0D01*
G01*
X15370000Y-46020000D01*
G75*
G02*
X15270000Y-45920000I0J100000D01*
G01*
G37*
G36*
G01*
X15270000Y-48170000D02*
X15270000Y-47630000D01*
G75*
G02*
X15370000Y-47530000I100000J0D01*
G01*
X15570000Y-47530000D01*
G75*
G02*
X15670000Y-47630000I0J-100000D01*
G01*
X15670000Y-48170000D01*
G75*
G02*
X15570000Y-48270000I-100000J0D01*
G01*
X15370000Y-48270000D01*
G75*
G02*
X15270000Y-48170000I0J100000D01*
G01*
G37*
%TD*%
%TO.C,D10*%
G36*
G01*
X39948000Y-48731000D02*
X39552000Y-48731000D01*
G75*
G02*
X39379000Y-48558000I0J173000D01*
G01*
X39379000Y-48212000D01*
G75*
G02*
X39552000Y-48039000I173000J0D01*
G01*
X39948000Y-48039000D01*
G75*
G02*
X40121000Y-48212000I0J-173000D01*
G01*
X40121000Y-48558000D01*
G75*
G02*
X39948000Y-48731000I-173000J0D01*
G01*
G37*
G36*
G01*
X39948000Y-47761000D02*
X39552000Y-47761000D01*
G75*
G02*
X39379000Y-47588000I0J173000D01*
G01*
X39379000Y-47242000D01*
G75*
G02*
X39552000Y-47069000I173000J0D01*
G01*
X39948000Y-47069000D01*
G75*
G02*
X40121000Y-47242000I0J-173000D01*
G01*
X40121000Y-47588000D01*
G75*
G02*
X39948000Y-47761000I-173000J0D01*
G01*
G37*
%TD*%
%TO.C,D5*%
G36*
G01*
X47448000Y-48731000D02*
X47052000Y-48731000D01*
G75*
G02*
X46879000Y-48558000I0J173000D01*
G01*
X46879000Y-48212000D01*
G75*
G02*
X47052000Y-48039000I173000J0D01*
G01*
X47448000Y-48039000D01*
G75*
G02*
X47621000Y-48212000I0J-173000D01*
G01*
X47621000Y-48558000D01*
G75*
G02*
X47448000Y-48731000I-173000J0D01*
G01*
G37*
G36*
G01*
X47448000Y-47761000D02*
X47052000Y-47761000D01*
G75*
G02*
X46879000Y-47588000I0J173000D01*
G01*
X46879000Y-47242000D01*
G75*
G02*
X47052000Y-47069000I173000J0D01*
G01*
X47448000Y-47069000D01*
G75*
G02*
X47621000Y-47242000I0J-173000D01*
G01*
X47621000Y-47588000D01*
G75*
G02*
X47448000Y-47761000I-173000J0D01*
G01*
G37*
%TD*%
%TO.C,U4*%
G36*
G01*
X18055000Y-47585000D02*
X17515000Y-47585000D01*
G75*
G02*
X17415000Y-47485000I0J100000D01*
G01*
X17415000Y-47285000D01*
G75*
G02*
X17515000Y-47185000I100000J0D01*
G01*
X18055000Y-47185000D01*
G75*
G02*
X18155000Y-47285000I0J-100000D01*
G01*
X18155000Y-47485000D01*
G75*
G02*
X18055000Y-47585000I-100000J0D01*
G01*
G37*
G36*
G01*
X20455000Y-46615000D02*
X19915000Y-46615000D01*
G75*
G02*
X19815000Y-46515000I0J100000D01*
G01*
X19815000Y-46315000D01*
G75*
G02*
X19915000Y-46215000I100000J0D01*
G01*
X20455000Y-46215000D01*
G75*
G02*
X20555000Y-46315000I0J-100000D01*
G01*
X20555000Y-46515000D01*
G75*
G02*
X20455000Y-46615000I-100000J0D01*
G01*
G37*
G36*
G01*
X18300000Y-45920000D02*
X18300000Y-45380000D01*
G75*
G02*
X18400000Y-45280000I100000J0D01*
G01*
X18600000Y-45280000D01*
G75*
G02*
X18700000Y-45380000I0J-100000D01*
G01*
X18700000Y-45920000D01*
G75*
G02*
X18600000Y-46020000I-100000J0D01*
G01*
X18400000Y-46020000D01*
G75*
G02*
X18300000Y-45920000I0J100000D01*
G01*
G37*
G36*
G01*
X18300000Y-48170000D02*
X18300000Y-47630000D01*
G75*
G02*
X18400000Y-47530000I100000J0D01*
G01*
X18600000Y-47530000D01*
G75*
G02*
X18700000Y-47630000I0J-100000D01*
G01*
X18700000Y-48170000D01*
G75*
G02*
X18600000Y-48270000I-100000J0D01*
G01*
X18400000Y-48270000D01*
G75*
G02*
X18300000Y-48170000I0J100000D01*
G01*
G37*
G36*
G01*
X19255000Y-50420000D02*
X19255000Y-49880000D01*
G75*
G02*
X19355000Y-49780000I100000J0D01*
G01*
X19555000Y-49780000D01*
G75*
G02*
X19655000Y-49880000I0J-100000D01*
G01*
X19655000Y-50420000D01*
G75*
G02*
X19555000Y-50520000I-100000J0D01*
G01*
X19355000Y-50520000D01*
G75*
G02*
X19255000Y-50420000I0J100000D01*
G01*
G37*
G36*
G01*
X18055000Y-49585000D02*
X17515000Y-49585000D01*
G75*
G02*
X17415000Y-49485000I0J100000D01*
G01*
X17415000Y-49285000D01*
G75*
G02*
X17515000Y-49185000I100000J0D01*
G01*
X18055000Y-49185000D01*
G75*
G02*
X18155000Y-49285000I0J-100000D01*
G01*
X18155000Y-49485000D01*
G75*
G02*
X18055000Y-49585000I-100000J0D01*
G01*
G37*
G36*
G01*
X20435000Y-48615000D02*
X19895000Y-48615000D01*
G75*
G02*
X19795000Y-48515000I0J100000D01*
G01*
X19795000Y-48315000D01*
G75*
G02*
X19895000Y-48215000I100000J0D01*
G01*
X20435000Y-48215000D01*
G75*
G02*
X20535000Y-48315000I0J-100000D01*
G01*
X20535000Y-48515000D01*
G75*
G02*
X20435000Y-48615000I-100000J0D01*
G01*
G37*
G36*
G01*
X20455000Y-47585000D02*
X19915000Y-47585000D01*
G75*
G02*
X19815000Y-47485000I0J100000D01*
G01*
X19815000Y-47285000D01*
G75*
G02*
X19915000Y-47185000I100000J0D01*
G01*
X20455000Y-47185000D01*
G75*
G02*
X20555000Y-47285000I0J-100000D01*
G01*
X20555000Y-47485000D01*
G75*
G02*
X20455000Y-47585000I-100000J0D01*
G01*
G37*
G36*
G01*
X20435000Y-49585000D02*
X19895000Y-49585000D01*
G75*
G02*
X19795000Y-49485000I0J100000D01*
G01*
X19795000Y-49285000D01*
G75*
G02*
X19895000Y-49185000I100000J0D01*
G01*
X20435000Y-49185000D01*
G75*
G02*
X20535000Y-49285000I0J-100000D01*
G01*
X20535000Y-49485000D01*
G75*
G02*
X20435000Y-49585000I-100000J0D01*
G01*
G37*
G36*
G01*
X18285000Y-50420000D02*
X18285000Y-49880000D01*
G75*
G02*
X18385000Y-49780000I100000J0D01*
G01*
X18585000Y-49780000D01*
G75*
G02*
X18685000Y-49880000I0J-100000D01*
G01*
X18685000Y-50420000D01*
G75*
G02*
X18585000Y-50520000I-100000J0D01*
G01*
X18385000Y-50520000D01*
G75*
G02*
X18285000Y-50420000I0J100000D01*
G01*
G37*
G36*
G01*
X18055000Y-48615000D02*
X17515000Y-48615000D01*
G75*
G02*
X17415000Y-48515000I0J100000D01*
G01*
X17415000Y-48315000D01*
G75*
G02*
X17515000Y-48215000I100000J0D01*
G01*
X18055000Y-48215000D01*
G75*
G02*
X18155000Y-48315000I0J-100000D01*
G01*
X18155000Y-48515000D01*
G75*
G02*
X18055000Y-48615000I-100000J0D01*
G01*
G37*
G36*
G01*
X18055000Y-46615000D02*
X17515000Y-46615000D01*
G75*
G02*
X17415000Y-46515000I0J100000D01*
G01*
X17415000Y-46315000D01*
G75*
G02*
X17515000Y-46215000I100000J0D01*
G01*
X18055000Y-46215000D01*
G75*
G02*
X18155000Y-46315000I0J-100000D01*
G01*
X18155000Y-46515000D01*
G75*
G02*
X18055000Y-46615000I-100000J0D01*
G01*
G37*
G36*
G01*
X19270000Y-45920000D02*
X19270000Y-45380000D01*
G75*
G02*
X19370000Y-45280000I100000J0D01*
G01*
X19570000Y-45280000D01*
G75*
G02*
X19670000Y-45380000I0J-100000D01*
G01*
X19670000Y-45920000D01*
G75*
G02*
X19570000Y-46020000I-100000J0D01*
G01*
X19370000Y-46020000D01*
G75*
G02*
X19270000Y-45920000I0J100000D01*
G01*
G37*
G36*
G01*
X19270000Y-48170000D02*
X19270000Y-47630000D01*
G75*
G02*
X19370000Y-47530000I100000J0D01*
G01*
X19570000Y-47530000D01*
G75*
G02*
X19670000Y-47630000I0J-100000D01*
G01*
X19670000Y-48170000D01*
G75*
G02*
X19570000Y-48270000I-100000J0D01*
G01*
X19370000Y-48270000D01*
G75*
G02*
X19270000Y-48170000I0J100000D01*
G01*
G37*
%TD*%
%TO.C,SW7*%
G36*
G01*
X66326000Y-59774500D02*
X66326000Y-60025500D01*
G75*
G02*
X66200500Y-60151000I-125500J0D01*
G01*
X65549500Y-60151000D01*
G75*
G02*
X65424000Y-60025500I0J125500D01*
G01*
X65424000Y-59774500D01*
G75*
G02*
X65549500Y-59649000I125500J0D01*
G01*
X66200500Y-59649000D01*
G75*
G02*
X66326000Y-59774500I0J-125500D01*
G01*
G37*
G36*
G01*
X62576000Y-59774500D02*
X62576000Y-60025500D01*
G75*
G02*
X62450500Y-60151000I-125500J0D01*
G01*
X61799500Y-60151000D01*
G75*
G02*
X61674000Y-60025500I0J125500D01*
G01*
X61674000Y-59774500D01*
G75*
G02*
X61799500Y-59649000I125500J0D01*
G01*
X62450500Y-59649000D01*
G75*
G02*
X62576000Y-59774500I0J-125500D01*
G01*
G37*
G36*
G01*
X66326000Y-61774500D02*
X66326000Y-62025500D01*
G75*
G02*
X66200500Y-62151000I-125500J0D01*
G01*
X65549500Y-62151000D01*
G75*
G02*
X65424000Y-62025500I0J125500D01*
G01*
X65424000Y-61774500D01*
G75*
G02*
X65549500Y-61649000I125500J0D01*
G01*
X66200500Y-61649000D01*
G75*
G02*
X66326000Y-61774500I0J-125500D01*
G01*
G37*
G36*
G01*
X62576000Y-61774500D02*
X62576000Y-62025500D01*
G75*
G02*
X62450500Y-62151000I-125500J0D01*
G01*
X61799500Y-62151000D01*
G75*
G02*
X61674000Y-62025500I0J125500D01*
G01*
X61674000Y-61774500D01*
G75*
G02*
X61799500Y-61649000I125500J0D01*
G01*
X62450500Y-61649000D01*
G75*
G02*
X62576000Y-61774500I0J-125500D01*
G01*
G37*
%TD*%
%TO.C,SW10*%
G36*
G01*
X44428155Y-64561000D02*
X43681845Y-64561000D01*
G75*
G02*
X43624000Y-64503155I0J57845D01*
G01*
X43624000Y-62916845D01*
G75*
G02*
X43681845Y-62859000I57845J0D01*
G01*
X44428155Y-62859000D01*
G75*
G02*
X44486000Y-62916845I0J-57845D01*
G01*
X44486000Y-64503155D01*
G75*
G02*
X44428155Y-64561000I-57845J0D01*
G01*
G37*
G36*
G01*
X45698155Y-64561000D02*
X44951845Y-64561000D01*
G75*
G02*
X44894000Y-64503155I0J57845D01*
G01*
X44894000Y-62916845D01*
G75*
G02*
X44951845Y-62859000I57845J0D01*
G01*
X45698155Y-62859000D01*
G75*
G02*
X45756000Y-62916845I0J-57845D01*
G01*
X45756000Y-64503155D01*
G75*
G02*
X45698155Y-64561000I-57845J0D01*
G01*
G37*
G36*
G01*
X46968155Y-64561000D02*
X46221845Y-64561000D01*
G75*
G02*
X46164000Y-64503155I0J57845D01*
G01*
X46164000Y-62916845D01*
G75*
G02*
X46221845Y-62859000I57845J0D01*
G01*
X46968155Y-62859000D01*
G75*
G02*
X47026000Y-62916845I0J-57845D01*
G01*
X47026000Y-64503155D01*
G75*
G02*
X46968155Y-64561000I-57845J0D01*
G01*
G37*
G36*
G01*
X48238155Y-64561000D02*
X47491845Y-64561000D01*
G75*
G02*
X47434000Y-64503155I0J57845D01*
G01*
X47434000Y-62916845D01*
G75*
G02*
X47491845Y-62859000I57845J0D01*
G01*
X48238155Y-62859000D01*
G75*
G02*
X48296000Y-62916845I0J-57845D01*
G01*
X48296000Y-64503155D01*
G75*
G02*
X48238155Y-64561000I-57845J0D01*
G01*
G37*
G36*
G01*
X49508155Y-64561000D02*
X48761845Y-64561000D01*
G75*
G02*
X48704000Y-64503155I0J57845D01*
G01*
X48704000Y-62916845D01*
G75*
G02*
X48761845Y-62859000I57845J0D01*
G01*
X49508155Y-62859000D01*
G75*
G02*
X49566000Y-62916845I0J-57845D01*
G01*
X49566000Y-64503155D01*
G75*
G02*
X49508155Y-64561000I-57845J0D01*
G01*
G37*
G36*
G01*
X50778155Y-64561000D02*
X50031845Y-64561000D01*
G75*
G02*
X49974000Y-64503155I0J57845D01*
G01*
X49974000Y-62916845D01*
G75*
G02*
X50031845Y-62859000I57845J0D01*
G01*
X50778155Y-62859000D01*
G75*
G02*
X50836000Y-62916845I0J-57845D01*
G01*
X50836000Y-64503155D01*
G75*
G02*
X50778155Y-64561000I-57845J0D01*
G01*
G37*
G36*
G01*
X52048155Y-64561000D02*
X51301845Y-64561000D01*
G75*
G02*
X51244000Y-64503155I0J57845D01*
G01*
X51244000Y-62916845D01*
G75*
G02*
X51301845Y-62859000I57845J0D01*
G01*
X52048155Y-62859000D01*
G75*
G02*
X52106000Y-62916845I0J-57845D01*
G01*
X52106000Y-64503155D01*
G75*
G02*
X52048155Y-64561000I-57845J0D01*
G01*
G37*
G36*
G01*
X53318155Y-64561000D02*
X52571845Y-64561000D01*
G75*
G02*
X52514000Y-64503155I0J57845D01*
G01*
X52514000Y-62916845D01*
G75*
G02*
X52571845Y-62859000I57845J0D01*
G01*
X53318155Y-62859000D01*
G75*
G02*
X53376000Y-62916845I0J-57845D01*
G01*
X53376000Y-64503155D01*
G75*
G02*
X53318155Y-64561000I-57845J0D01*
G01*
G37*
G36*
G01*
X53318155Y-56941000D02*
X52571845Y-56941000D01*
G75*
G02*
X52514000Y-56883155I0J57845D01*
G01*
X52514000Y-55296845D01*
G75*
G02*
X52571845Y-55239000I57845J0D01*
G01*
X53318155Y-55239000D01*
G75*
G02*
X53376000Y-55296845I0J-57845D01*
G01*
X53376000Y-56883155D01*
G75*
G02*
X53318155Y-56941000I-57845J0D01*
G01*
G37*
G36*
G01*
X52048155Y-56941000D02*
X51301845Y-56941000D01*
G75*
G02*
X51244000Y-56883155I0J57845D01*
G01*
X51244000Y-55296845D01*
G75*
G02*
X51301845Y-55239000I57845J0D01*
G01*
X52048155Y-55239000D01*
G75*
G02*
X52106000Y-55296845I0J-57845D01*
G01*
X52106000Y-56883155D01*
G75*
G02*
X52048155Y-56941000I-57845J0D01*
G01*
G37*
G36*
G01*
X50778155Y-56941000D02*
X50031845Y-56941000D01*
G75*
G02*
X49974000Y-56883155I0J57845D01*
G01*
X49974000Y-55296845D01*
G75*
G02*
X50031845Y-55239000I57845J0D01*
G01*
X50778155Y-55239000D01*
G75*
G02*
X50836000Y-55296845I0J-57845D01*
G01*
X50836000Y-56883155D01*
G75*
G02*
X50778155Y-56941000I-57845J0D01*
G01*
G37*
G36*
G01*
X49508155Y-56941000D02*
X48761845Y-56941000D01*
G75*
G02*
X48704000Y-56883155I0J57845D01*
G01*
X48704000Y-55296845D01*
G75*
G02*
X48761845Y-55239000I57845J0D01*
G01*
X49508155Y-55239000D01*
G75*
G02*
X49566000Y-55296845I0J-57845D01*
G01*
X49566000Y-56883155D01*
G75*
G02*
X49508155Y-56941000I-57845J0D01*
G01*
G37*
G36*
G01*
X48238155Y-56941000D02*
X47491845Y-56941000D01*
G75*
G02*
X47434000Y-56883155I0J57845D01*
G01*
X47434000Y-55296845D01*
G75*
G02*
X47491845Y-55239000I57845J0D01*
G01*
X48238155Y-55239000D01*
G75*
G02*
X48296000Y-55296845I0J-57845D01*
G01*
X48296000Y-56883155D01*
G75*
G02*
X48238155Y-56941000I-57845J0D01*
G01*
G37*
G36*
G01*
X46968155Y-56941000D02*
X46221845Y-56941000D01*
G75*
G02*
X46164000Y-56883155I0J57845D01*
G01*
X46164000Y-55296845D01*
G75*
G02*
X46221845Y-55239000I57845J0D01*
G01*
X46968155Y-55239000D01*
G75*
G02*
X47026000Y-55296845I0J-57845D01*
G01*
X47026000Y-56883155D01*
G75*
G02*
X46968155Y-56941000I-57845J0D01*
G01*
G37*
G36*
G01*
X45698155Y-56941000D02*
X44951845Y-56941000D01*
G75*
G02*
X44894000Y-56883155I0J57845D01*
G01*
X44894000Y-55296845D01*
G75*
G02*
X44951845Y-55239000I57845J0D01*
G01*
X45698155Y-55239000D01*
G75*
G02*
X45756000Y-55296845I0J-57845D01*
G01*
X45756000Y-56883155D01*
G75*
G02*
X45698155Y-56941000I-57845J0D01*
G01*
G37*
G36*
G01*
X44428155Y-56941000D02*
X43681845Y-56941000D01*
G75*
G02*
X43624000Y-56883155I0J57845D01*
G01*
X43624000Y-55296845D01*
G75*
G02*
X43681845Y-55239000I57845J0D01*
G01*
X44428155Y-55239000D01*
G75*
G02*
X44486000Y-55296845I0J-57845D01*
G01*
X44486000Y-56883155D01*
G75*
G02*
X44428155Y-56941000I-57845J0D01*
G01*
G37*
%TD*%
%TO.C,D3*%
G36*
G01*
X50448000Y-48731000D02*
X50052000Y-48731000D01*
G75*
G02*
X49879000Y-48558000I0J173000D01*
G01*
X49879000Y-48212000D01*
G75*
G02*
X50052000Y-48039000I173000J0D01*
G01*
X50448000Y-48039000D01*
G75*
G02*
X50621000Y-48212000I0J-173000D01*
G01*
X50621000Y-48558000D01*
G75*
G02*
X50448000Y-48731000I-173000J0D01*
G01*
G37*
G36*
G01*
X50448000Y-47761000D02*
X50052000Y-47761000D01*
G75*
G02*
X49879000Y-47588000I0J173000D01*
G01*
X49879000Y-47242000D01*
G75*
G02*
X50052000Y-47069000I173000J0D01*
G01*
X50448000Y-47069000D01*
G75*
G02*
X50621000Y-47242000I0J-173000D01*
G01*
X50621000Y-47588000D01*
G75*
G02*
X50448000Y-47761000I-173000J0D01*
G01*
G37*
%TD*%
%TO.C,SW1*%
G36*
G01*
X17125500Y-55976000D02*
X16874500Y-55976000D01*
G75*
G02*
X16749000Y-55850500I0J125500D01*
G01*
X16749000Y-55199500D01*
G75*
G02*
X16874500Y-55074000I125500J0D01*
G01*
X17125500Y-55074000D01*
G75*
G02*
X17251000Y-55199500I0J-125500D01*
G01*
X17251000Y-55850500D01*
G75*
G02*
X17125500Y-55976000I-125500J0D01*
G01*
G37*
G36*
G01*
X17125500Y-59726000D02*
X16874500Y-59726000D01*
G75*
G02*
X16749000Y-59600500I0J125500D01*
G01*
X16749000Y-58949500D01*
G75*
G02*
X16874500Y-58824000I125500J0D01*
G01*
X17125500Y-58824000D01*
G75*
G02*
X17251000Y-58949500I0J-125500D01*
G01*
X17251000Y-59600500D01*
G75*
G02*
X17125500Y-59726000I-125500J0D01*
G01*
G37*
G36*
G01*
X15125500Y-59726000D02*
X14874500Y-59726000D01*
G75*
G02*
X14749000Y-59600500I0J125500D01*
G01*
X14749000Y-58949500D01*
G75*
G02*
X14874500Y-58824000I125500J0D01*
G01*
X15125500Y-58824000D01*
G75*
G02*
X15251000Y-58949500I0J-125500D01*
G01*
X15251000Y-59600500D01*
G75*
G02*
X15125500Y-59726000I-125500J0D01*
G01*
G37*
G36*
G01*
X15125500Y-55976000D02*
X14874500Y-55976000D01*
G75*
G02*
X14749000Y-55850500I0J125500D01*
G01*
X14749000Y-55199500D01*
G75*
G02*
X14874500Y-55074000I125500J0D01*
G01*
X15125500Y-55074000D01*
G75*
G02*
X15251000Y-55199500I0J-125500D01*
G01*
X15251000Y-55850500D01*
G75*
G02*
X15125500Y-55976000I-125500J0D01*
G01*
G37*
%TD*%
%TO.C,SW9*%
G36*
G01*
X31428155Y-64561000D02*
X30681845Y-64561000D01*
G75*
G02*
X30624000Y-64503155I0J57845D01*
G01*
X30624000Y-62916845D01*
G75*
G02*
X30681845Y-62859000I57845J0D01*
G01*
X31428155Y-62859000D01*
G75*
G02*
X31486000Y-62916845I0J-57845D01*
G01*
X31486000Y-64503155D01*
G75*
G02*
X31428155Y-64561000I-57845J0D01*
G01*
G37*
G36*
G01*
X32698155Y-64561000D02*
X31951845Y-64561000D01*
G75*
G02*
X31894000Y-64503155I0J57845D01*
G01*
X31894000Y-62916845D01*
G75*
G02*
X31951845Y-62859000I57845J0D01*
G01*
X32698155Y-62859000D01*
G75*
G02*
X32756000Y-62916845I0J-57845D01*
G01*
X32756000Y-64503155D01*
G75*
G02*
X32698155Y-64561000I-57845J0D01*
G01*
G37*
G36*
G01*
X33968155Y-64561000D02*
X33221845Y-64561000D01*
G75*
G02*
X33164000Y-64503155I0J57845D01*
G01*
X33164000Y-62916845D01*
G75*
G02*
X33221845Y-62859000I57845J0D01*
G01*
X33968155Y-62859000D01*
G75*
G02*
X34026000Y-62916845I0J-57845D01*
G01*
X34026000Y-64503155D01*
G75*
G02*
X33968155Y-64561000I-57845J0D01*
G01*
G37*
G36*
G01*
X35238155Y-64561000D02*
X34491845Y-64561000D01*
G75*
G02*
X34434000Y-64503155I0J57845D01*
G01*
X34434000Y-62916845D01*
G75*
G02*
X34491845Y-62859000I57845J0D01*
G01*
X35238155Y-62859000D01*
G75*
G02*
X35296000Y-62916845I0J-57845D01*
G01*
X35296000Y-64503155D01*
G75*
G02*
X35238155Y-64561000I-57845J0D01*
G01*
G37*
G36*
G01*
X36508155Y-64561000D02*
X35761845Y-64561000D01*
G75*
G02*
X35704000Y-64503155I0J57845D01*
G01*
X35704000Y-62916845D01*
G75*
G02*
X35761845Y-62859000I57845J0D01*
G01*
X36508155Y-62859000D01*
G75*
G02*
X36566000Y-62916845I0J-57845D01*
G01*
X36566000Y-64503155D01*
G75*
G02*
X36508155Y-64561000I-57845J0D01*
G01*
G37*
G36*
G01*
X37778155Y-64561000D02*
X37031845Y-64561000D01*
G75*
G02*
X36974000Y-64503155I0J57845D01*
G01*
X36974000Y-62916845D01*
G75*
G02*
X37031845Y-62859000I57845J0D01*
G01*
X37778155Y-62859000D01*
G75*
G02*
X37836000Y-62916845I0J-57845D01*
G01*
X37836000Y-64503155D01*
G75*
G02*
X37778155Y-64561000I-57845J0D01*
G01*
G37*
G36*
G01*
X39048155Y-64561000D02*
X38301845Y-64561000D01*
G75*
G02*
X38244000Y-64503155I0J57845D01*
G01*
X38244000Y-62916845D01*
G75*
G02*
X38301845Y-62859000I57845J0D01*
G01*
X39048155Y-62859000D01*
G75*
G02*
X39106000Y-62916845I0J-57845D01*
G01*
X39106000Y-64503155D01*
G75*
G02*
X39048155Y-64561000I-57845J0D01*
G01*
G37*
G36*
G01*
X40318155Y-64561000D02*
X39571845Y-64561000D01*
G75*
G02*
X39514000Y-64503155I0J57845D01*
G01*
X39514000Y-62916845D01*
G75*
G02*
X39571845Y-62859000I57845J0D01*
G01*
X40318155Y-62859000D01*
G75*
G02*
X40376000Y-62916845I0J-57845D01*
G01*
X40376000Y-64503155D01*
G75*
G02*
X40318155Y-64561000I-57845J0D01*
G01*
G37*
G36*
G01*
X40318155Y-56941000D02*
X39571845Y-56941000D01*
G75*
G02*
X39514000Y-56883155I0J57845D01*
G01*
X39514000Y-55296845D01*
G75*
G02*
X39571845Y-55239000I57845J0D01*
G01*
X40318155Y-55239000D01*
G75*
G02*
X40376000Y-55296845I0J-57845D01*
G01*
X40376000Y-56883155D01*
G75*
G02*
X40318155Y-56941000I-57845J0D01*
G01*
G37*
G36*
G01*
X39048155Y-56941000D02*
X38301845Y-56941000D01*
G75*
G02*
X38244000Y-56883155I0J57845D01*
G01*
X38244000Y-55296845D01*
G75*
G02*
X38301845Y-55239000I57845J0D01*
G01*
X39048155Y-55239000D01*
G75*
G02*
X39106000Y-55296845I0J-57845D01*
G01*
X39106000Y-56883155D01*
G75*
G02*
X39048155Y-56941000I-57845J0D01*
G01*
G37*
G36*
G01*
X37778155Y-56941000D02*
X37031845Y-56941000D01*
G75*
G02*
X36974000Y-56883155I0J57845D01*
G01*
X36974000Y-55296845D01*
G75*
G02*
X37031845Y-55239000I57845J0D01*
G01*
X37778155Y-55239000D01*
G75*
G02*
X37836000Y-55296845I0J-57845D01*
G01*
X37836000Y-56883155D01*
G75*
G02*
X37778155Y-56941000I-57845J0D01*
G01*
G37*
G36*
G01*
X36508155Y-56941000D02*
X35761845Y-56941000D01*
G75*
G02*
X35704000Y-56883155I0J57845D01*
G01*
X35704000Y-55296845D01*
G75*
G02*
X35761845Y-55239000I57845J0D01*
G01*
X36508155Y-55239000D01*
G75*
G02*
X36566000Y-55296845I0J-57845D01*
G01*
X36566000Y-56883155D01*
G75*
G02*
X36508155Y-56941000I-57845J0D01*
G01*
G37*
G36*
G01*
X35238155Y-56941000D02*
X34491845Y-56941000D01*
G75*
G02*
X34434000Y-56883155I0J57845D01*
G01*
X34434000Y-55296845D01*
G75*
G02*
X34491845Y-55239000I57845J0D01*
G01*
X35238155Y-55239000D01*
G75*
G02*
X35296000Y-55296845I0J-57845D01*
G01*
X35296000Y-56883155D01*
G75*
G02*
X35238155Y-56941000I-57845J0D01*
G01*
G37*
G36*
G01*
X33968155Y-56941000D02*
X33221845Y-56941000D01*
G75*
G02*
X33164000Y-56883155I0J57845D01*
G01*
X33164000Y-55296845D01*
G75*
G02*
X33221845Y-55239000I57845J0D01*
G01*
X33968155Y-55239000D01*
G75*
G02*
X34026000Y-55296845I0J-57845D01*
G01*
X34026000Y-56883155D01*
G75*
G02*
X33968155Y-56941000I-57845J0D01*
G01*
G37*
G36*
G01*
X32698155Y-56941000D02*
X31951845Y-56941000D01*
G75*
G02*
X31894000Y-56883155I0J57845D01*
G01*
X31894000Y-55296845D01*
G75*
G02*
X31951845Y-55239000I57845J0D01*
G01*
X32698155Y-55239000D01*
G75*
G02*
X32756000Y-55296845I0J-57845D01*
G01*
X32756000Y-56883155D01*
G75*
G02*
X32698155Y-56941000I-57845J0D01*
G01*
G37*
G36*
G01*
X31428155Y-56941000D02*
X30681845Y-56941000D01*
G75*
G02*
X30624000Y-56883155I0J57845D01*
G01*
X30624000Y-55296845D01*
G75*
G02*
X30681845Y-55239000I57845J0D01*
G01*
X31428155Y-55239000D01*
G75*
G02*
X31486000Y-55296845I0J-57845D01*
G01*
X31486000Y-56883155D01*
G75*
G02*
X31428155Y-56941000I-57845J0D01*
G01*
G37*
%TD*%
%TO.C,D4*%
G36*
G01*
X48948000Y-48731000D02*
X48552000Y-48731000D01*
G75*
G02*
X48379000Y-48558000I0J173000D01*
G01*
X48379000Y-48212000D01*
G75*
G02*
X48552000Y-48039000I173000J0D01*
G01*
X48948000Y-48039000D01*
G75*
G02*
X49121000Y-48212000I0J-173000D01*
G01*
X49121000Y-48558000D01*
G75*
G02*
X48948000Y-48731000I-173000J0D01*
G01*
G37*
G36*
G01*
X48948000Y-47761000D02*
X48552000Y-47761000D01*
G75*
G02*
X48379000Y-47588000I0J173000D01*
G01*
X48379000Y-47242000D01*
G75*
G02*
X48552000Y-47069000I173000J0D01*
G01*
X48948000Y-47069000D01*
G75*
G02*
X49121000Y-47242000I0J-173000D01*
G01*
X49121000Y-47588000D01*
G75*
G02*
X48948000Y-47761000I-173000J0D01*
G01*
G37*
%TD*%
%TO.C,RN2*%
G36*
G01*
X19039596Y-58751000D02*
X18560404Y-58751000D01*
G75*
G02*
X18499000Y-58689596I0J61404D01*
G01*
X18499000Y-57910404D01*
G75*
G02*
X18560404Y-57849000I61404J0D01*
G01*
X19039596Y-57849000D01*
G75*
G02*
X19101000Y-57910404I0J-61404D01*
G01*
X19101000Y-58689596D01*
G75*
G02*
X19039596Y-58751000I-61404J0D01*
G01*
G37*
G36*
G01*
X19786995Y-58751000D02*
X19413005Y-58751000D01*
G75*
G02*
X19349000Y-58686995I0J64005D01*
G01*
X19349000Y-57913005D01*
G75*
G02*
X19413005Y-57849000I64005J0D01*
G01*
X19786995Y-57849000D01*
G75*
G02*
X19851000Y-57913005I0J-64005D01*
G01*
X19851000Y-58686995D01*
G75*
G02*
X19786995Y-58751000I-64005J0D01*
G01*
G37*
G36*
G01*
X20586995Y-58751000D02*
X20213005Y-58751000D01*
G75*
G02*
X20149000Y-58686995I0J64005D01*
G01*
X20149000Y-57913005D01*
G75*
G02*
X20213005Y-57849000I64005J0D01*
G01*
X20586995Y-57849000D01*
G75*
G02*
X20651000Y-57913005I0J-64005D01*
G01*
X20651000Y-58686995D01*
G75*
G02*
X20586995Y-58751000I-64005J0D01*
G01*
G37*
G36*
G01*
X21439596Y-58751000D02*
X20960404Y-58751000D01*
G75*
G02*
X20899000Y-58689596I0J61404D01*
G01*
X20899000Y-57910404D01*
G75*
G02*
X20960404Y-57849000I61404J0D01*
G01*
X21439596Y-57849000D01*
G75*
G02*
X21501000Y-57910404I0J-61404D01*
G01*
X21501000Y-58689596D01*
G75*
G02*
X21439596Y-58751000I-61404J0D01*
G01*
G37*
G36*
G01*
X21439596Y-56951000D02*
X20960404Y-56951000D01*
G75*
G02*
X20899000Y-56889596I0J61404D01*
G01*
X20899000Y-56110404D01*
G75*
G02*
X20960404Y-56049000I61404J0D01*
G01*
X21439596Y-56049000D01*
G75*
G02*
X21501000Y-56110404I0J-61404D01*
G01*
X21501000Y-56889596D01*
G75*
G02*
X21439596Y-56951000I-61404J0D01*
G01*
G37*
G36*
G01*
X20586995Y-56951000D02*
X20213005Y-56951000D01*
G75*
G02*
X20149000Y-56886995I0J64005D01*
G01*
X20149000Y-56113005D01*
G75*
G02*
X20213005Y-56049000I64005J0D01*
G01*
X20586995Y-56049000D01*
G75*
G02*
X20651000Y-56113005I0J-64005D01*
G01*
X20651000Y-56886995D01*
G75*
G02*
X20586995Y-56951000I-64005J0D01*
G01*
G37*
G36*
G01*
X19786995Y-56951000D02*
X19413005Y-56951000D01*
G75*
G02*
X19349000Y-56886995I0J64005D01*
G01*
X19349000Y-56113005D01*
G75*
G02*
X19413005Y-56049000I64005J0D01*
G01*
X19786995Y-56049000D01*
G75*
G02*
X19851000Y-56113005I0J-64005D01*
G01*
X19851000Y-56886995D01*
G75*
G02*
X19786995Y-56951000I-64005J0D01*
G01*
G37*
G36*
G01*
X19039596Y-56951000D02*
X18560404Y-56951000D01*
G75*
G02*
X18499000Y-56889596I0J61404D01*
G01*
X18499000Y-56110404D01*
G75*
G02*
X18560404Y-56049000I61404J0D01*
G01*
X19039596Y-56049000D01*
G75*
G02*
X19101000Y-56110404I0J-61404D01*
G01*
X19101000Y-56889596D01*
G75*
G02*
X19039596Y-56951000I-61404J0D01*
G01*
G37*
%TD*%
%TO.C,SW3*%
G36*
G01*
X18576000Y-59774500D02*
X18576000Y-60025500D01*
G75*
G02*
X18450500Y-60151000I-125500J0D01*
G01*
X17799500Y-60151000D01*
G75*
G02*
X17674000Y-60025500I0J125500D01*
G01*
X17674000Y-59774500D01*
G75*
G02*
X17799500Y-59649000I125500J0D01*
G01*
X18450500Y-59649000D01*
G75*
G02*
X18576000Y-59774500I0J-125500D01*
G01*
G37*
G36*
G01*
X22326000Y-59774500D02*
X22326000Y-60025500D01*
G75*
G02*
X22200500Y-60151000I-125500J0D01*
G01*
X21549500Y-60151000D01*
G75*
G02*
X21424000Y-60025500I0J125500D01*
G01*
X21424000Y-59774500D01*
G75*
G02*
X21549500Y-59649000I125500J0D01*
G01*
X22200500Y-59649000D01*
G75*
G02*
X22326000Y-59774500I0J-125500D01*
G01*
G37*
G36*
G01*
X18576000Y-61774500D02*
X18576000Y-62025500D01*
G75*
G02*
X18450500Y-62151000I-125500J0D01*
G01*
X17799500Y-62151000D01*
G75*
G02*
X17674000Y-62025500I0J125500D01*
G01*
X17674000Y-61774500D01*
G75*
G02*
X17799500Y-61649000I125500J0D01*
G01*
X18450500Y-61649000D01*
G75*
G02*
X18576000Y-61774500I0J-125500D01*
G01*
G37*
G36*
G01*
X22326000Y-61774500D02*
X22326000Y-62025500D01*
G75*
G02*
X22200500Y-62151000I-125500J0D01*
G01*
X21549500Y-62151000D01*
G75*
G02*
X21424000Y-62025500I0J125500D01*
G01*
X21424000Y-61774500D01*
G75*
G02*
X21549500Y-61649000I125500J0D01*
G01*
X22200500Y-61649000D01*
G75*
G02*
X22326000Y-61774500I0J-125500D01*
G01*
G37*
%TD*%
%TO.C,D11*%
G36*
G01*
X38448000Y-48731000D02*
X38052000Y-48731000D01*
G75*
G02*
X37879000Y-48558000I0J173000D01*
G01*
X37879000Y-48212000D01*
G75*
G02*
X38052000Y-48039000I173000J0D01*
G01*
X38448000Y-48039000D01*
G75*
G02*
X38621000Y-48212000I0J-173000D01*
G01*
X38621000Y-48558000D01*
G75*
G02*
X38448000Y-48731000I-173000J0D01*
G01*
G37*
G36*
G01*
X38448000Y-47761000D02*
X38052000Y-47761000D01*
G75*
G02*
X37879000Y-47588000I0J173000D01*
G01*
X37879000Y-47242000D01*
G75*
G02*
X38052000Y-47069000I173000J0D01*
G01*
X38448000Y-47069000D01*
G75*
G02*
X38621000Y-47242000I0J-173000D01*
G01*
X38621000Y-47588000D01*
G75*
G02*
X38448000Y-47761000I-173000J0D01*
G01*
G37*
%TD*%
%TO.C,D2*%
G36*
G01*
X51948000Y-48731000D02*
X51552000Y-48731000D01*
G75*
G02*
X51379000Y-48558000I0J173000D01*
G01*
X51379000Y-48212000D01*
G75*
G02*
X51552000Y-48039000I173000J0D01*
G01*
X51948000Y-48039000D01*
G75*
G02*
X52121000Y-48212000I0J-173000D01*
G01*
X52121000Y-48558000D01*
G75*
G02*
X51948000Y-48731000I-173000J0D01*
G01*
G37*
G36*
G01*
X51948000Y-47761000D02*
X51552000Y-47761000D01*
G75*
G02*
X51379000Y-47588000I0J173000D01*
G01*
X51379000Y-47242000D01*
G75*
G02*
X51552000Y-47069000I173000J0D01*
G01*
X51948000Y-47069000D01*
G75*
G02*
X52121000Y-47242000I0J-173000D01*
G01*
X52121000Y-47588000D01*
G75*
G02*
X51948000Y-47761000I-173000J0D01*
G01*
G37*
%TD*%
%TO.C,U10*%
G36*
G01*
X70470000Y-46115000D02*
X69930000Y-46115000D01*
G75*
G02*
X69830000Y-46015000I0J100000D01*
G01*
X69830000Y-45815000D01*
G75*
G02*
X69930000Y-45715000I100000J0D01*
G01*
X70470000Y-45715000D01*
G75*
G02*
X70570000Y-45815000I0J-100000D01*
G01*
X70570000Y-46015000D01*
G75*
G02*
X70470000Y-46115000I-100000J0D01*
G01*
G37*
G36*
G01*
X68070000Y-47085000D02*
X67530000Y-47085000D01*
G75*
G02*
X67430000Y-46985000I0J100000D01*
G01*
X67430000Y-46785000D01*
G75*
G02*
X67530000Y-46685000I100000J0D01*
G01*
X68070000Y-46685000D01*
G75*
G02*
X68170000Y-46785000I0J-100000D01*
G01*
X68170000Y-46985000D01*
G75*
G02*
X68070000Y-47085000I-100000J0D01*
G01*
G37*
G36*
G01*
X69270000Y-49920000D02*
X69270000Y-49380000D01*
G75*
G02*
X69370000Y-49280000I100000J0D01*
G01*
X69570000Y-49280000D01*
G75*
G02*
X69670000Y-49380000I0J-100000D01*
G01*
X69670000Y-49920000D01*
G75*
G02*
X69570000Y-50020000I-100000J0D01*
G01*
X69370000Y-50020000D01*
G75*
G02*
X69270000Y-49920000I0J100000D01*
G01*
G37*
G36*
G01*
X68070000Y-49085000D02*
X67530000Y-49085000D01*
G75*
G02*
X67430000Y-48985000I0J100000D01*
G01*
X67430000Y-48785000D01*
G75*
G02*
X67530000Y-48685000I100000J0D01*
G01*
X68070000Y-48685000D01*
G75*
G02*
X68170000Y-48785000I0J-100000D01*
G01*
X68170000Y-48985000D01*
G75*
G02*
X68070000Y-49085000I-100000J0D01*
G01*
G37*
G36*
G01*
X70450000Y-48115000D02*
X69910000Y-48115000D01*
G75*
G02*
X69810000Y-48015000I0J100000D01*
G01*
X69810000Y-47815000D01*
G75*
G02*
X69910000Y-47715000I100000J0D01*
G01*
X70450000Y-47715000D01*
G75*
G02*
X70550000Y-47815000I0J-100000D01*
G01*
X70550000Y-48015000D01*
G75*
G02*
X70450000Y-48115000I-100000J0D01*
G01*
G37*
G36*
G01*
X68315000Y-45420000D02*
X68315000Y-44880000D01*
G75*
G02*
X68415000Y-44780000I100000J0D01*
G01*
X68615000Y-44780000D01*
G75*
G02*
X68715000Y-44880000I0J-100000D01*
G01*
X68715000Y-45420000D01*
G75*
G02*
X68615000Y-45520000I-100000J0D01*
G01*
X68415000Y-45520000D01*
G75*
G02*
X68315000Y-45420000I0J100000D01*
G01*
G37*
G36*
G01*
X68315000Y-47670000D02*
X68315000Y-47130000D01*
G75*
G02*
X68415000Y-47030000I100000J0D01*
G01*
X68615000Y-47030000D01*
G75*
G02*
X68715000Y-47130000I0J-100000D01*
G01*
X68715000Y-47670000D01*
G75*
G02*
X68615000Y-47770000I-100000J0D01*
G01*
X68415000Y-47770000D01*
G75*
G02*
X68315000Y-47670000I0J100000D01*
G01*
G37*
G36*
G01*
X70470000Y-47085000D02*
X69930000Y-47085000D01*
G75*
G02*
X69830000Y-46985000I0J100000D01*
G01*
X69830000Y-46785000D01*
G75*
G02*
X69930000Y-46685000I100000J0D01*
G01*
X70470000Y-46685000D01*
G75*
G02*
X70570000Y-46785000I0J-100000D01*
G01*
X70570000Y-46985000D01*
G75*
G02*
X70470000Y-47085000I-100000J0D01*
G01*
G37*
G36*
G01*
X70450000Y-49085000D02*
X69910000Y-49085000D01*
G75*
G02*
X69810000Y-48985000I0J100000D01*
G01*
X69810000Y-48785000D01*
G75*
G02*
X69910000Y-48685000I100000J0D01*
G01*
X70450000Y-48685000D01*
G75*
G02*
X70550000Y-48785000I0J-100000D01*
G01*
X70550000Y-48985000D01*
G75*
G02*
X70450000Y-49085000I-100000J0D01*
G01*
G37*
G36*
G01*
X68300000Y-49920000D02*
X68300000Y-49380000D01*
G75*
G02*
X68400000Y-49280000I100000J0D01*
G01*
X68600000Y-49280000D01*
G75*
G02*
X68700000Y-49380000I0J-100000D01*
G01*
X68700000Y-49920000D01*
G75*
G02*
X68600000Y-50020000I-100000J0D01*
G01*
X68400000Y-50020000D01*
G75*
G02*
X68300000Y-49920000I0J100000D01*
G01*
G37*
G36*
G01*
X68070000Y-48115000D02*
X67530000Y-48115000D01*
G75*
G02*
X67430000Y-48015000I0J100000D01*
G01*
X67430000Y-47815000D01*
G75*
G02*
X67530000Y-47715000I100000J0D01*
G01*
X68070000Y-47715000D01*
G75*
G02*
X68170000Y-47815000I0J-100000D01*
G01*
X68170000Y-48015000D01*
G75*
G02*
X68070000Y-48115000I-100000J0D01*
G01*
G37*
G36*
G01*
X68070000Y-46115000D02*
X67530000Y-46115000D01*
G75*
G02*
X67430000Y-46015000I0J100000D01*
G01*
X67430000Y-45815000D01*
G75*
G02*
X67530000Y-45715000I100000J0D01*
G01*
X68070000Y-45715000D01*
G75*
G02*
X68170000Y-45815000I0J-100000D01*
G01*
X68170000Y-46015000D01*
G75*
G02*
X68070000Y-46115000I-100000J0D01*
G01*
G37*
G36*
G01*
X69285000Y-45420000D02*
X69285000Y-44880000D01*
G75*
G02*
X69385000Y-44780000I100000J0D01*
G01*
X69585000Y-44780000D01*
G75*
G02*
X69685000Y-44880000I0J-100000D01*
G01*
X69685000Y-45420000D01*
G75*
G02*
X69585000Y-45520000I-100000J0D01*
G01*
X69385000Y-45520000D01*
G75*
G02*
X69285000Y-45420000I0J100000D01*
G01*
G37*
G36*
G01*
X69285000Y-47670000D02*
X69285000Y-47130000D01*
G75*
G02*
X69385000Y-47030000I100000J0D01*
G01*
X69585000Y-47030000D01*
G75*
G02*
X69685000Y-47130000I0J-100000D01*
G01*
X69685000Y-47670000D01*
G75*
G02*
X69585000Y-47770000I-100000J0D01*
G01*
X69385000Y-47770000D01*
G75*
G02*
X69285000Y-47670000I0J100000D01*
G01*
G37*
%TD*%
%TO.C,SW2*%
G36*
G01*
X17674000Y-55025500D02*
X17674000Y-54774500D01*
G75*
G02*
X17799500Y-54649000I125500J0D01*
G01*
X18450500Y-54649000D01*
G75*
G02*
X18576000Y-54774500I0J-125500D01*
G01*
X18576000Y-55025500D01*
G75*
G02*
X18450500Y-55151000I-125500J0D01*
G01*
X17799500Y-55151000D01*
G75*
G02*
X17674000Y-55025500I0J125500D01*
G01*
G37*
G36*
G01*
X21424000Y-55025500D02*
X21424000Y-54774500D01*
G75*
G02*
X21549500Y-54649000I125500J0D01*
G01*
X22200500Y-54649000D01*
G75*
G02*
X22326000Y-54774500I0J-125500D01*
G01*
X22326000Y-55025500D01*
G75*
G02*
X22200500Y-55151000I-125500J0D01*
G01*
X21549500Y-55151000D01*
G75*
G02*
X21424000Y-55025500I0J125500D01*
G01*
G37*
G36*
G01*
X17674000Y-53025500D02*
X17674000Y-52774500D01*
G75*
G02*
X17799500Y-52649000I125500J0D01*
G01*
X18450500Y-52649000D01*
G75*
G02*
X18576000Y-52774500I0J-125500D01*
G01*
X18576000Y-53025500D01*
G75*
G02*
X18450500Y-53151000I-125500J0D01*
G01*
X17799500Y-53151000D01*
G75*
G02*
X17674000Y-53025500I0J125500D01*
G01*
G37*
G36*
G01*
X21424000Y-53025500D02*
X21424000Y-52774500D01*
G75*
G02*
X21549500Y-52649000I125500J0D01*
G01*
X22200500Y-52649000D01*
G75*
G02*
X22326000Y-52774500I0J-125500D01*
G01*
X22326000Y-53025500D01*
G75*
G02*
X22200500Y-53151000I-125500J0D01*
G01*
X21549500Y-53151000D01*
G75*
G02*
X21424000Y-53025500I0J125500D01*
G01*
G37*
%TD*%
%TO.C,D8*%
G36*
G01*
X42948000Y-48731000D02*
X42552000Y-48731000D01*
G75*
G02*
X42379000Y-48558000I0J173000D01*
G01*
X42379000Y-48212000D01*
G75*
G02*
X42552000Y-48039000I173000J0D01*
G01*
X42948000Y-48039000D01*
G75*
G02*
X43121000Y-48212000I0J-173000D01*
G01*
X43121000Y-48558000D01*
G75*
G02*
X42948000Y-48731000I-173000J0D01*
G01*
G37*
G36*
G01*
X42948000Y-47761000D02*
X42552000Y-47761000D01*
G75*
G02*
X42379000Y-47588000I0J173000D01*
G01*
X42379000Y-47242000D01*
G75*
G02*
X42552000Y-47069000I173000J0D01*
G01*
X42948000Y-47069000D01*
G75*
G02*
X43121000Y-47242000I0J-173000D01*
G01*
X43121000Y-47588000D01*
G75*
G02*
X42948000Y-47761000I-173000J0D01*
G01*
G37*
%TD*%
%TO.C,U7*%
G36*
G01*
X58470000Y-46115000D02*
X57930000Y-46115000D01*
G75*
G02*
X57830000Y-46015000I0J100000D01*
G01*
X57830000Y-45815000D01*
G75*
G02*
X57930000Y-45715000I100000J0D01*
G01*
X58470000Y-45715000D01*
G75*
G02*
X58570000Y-45815000I0J-100000D01*
G01*
X58570000Y-46015000D01*
G75*
G02*
X58470000Y-46115000I-100000J0D01*
G01*
G37*
G36*
G01*
X57270000Y-49920000D02*
X57270000Y-49380000D01*
G75*
G02*
X57370000Y-49280000I100000J0D01*
G01*
X57570000Y-49280000D01*
G75*
G02*
X57670000Y-49380000I0J-100000D01*
G01*
X57670000Y-49920000D01*
G75*
G02*
X57570000Y-50020000I-100000J0D01*
G01*
X57370000Y-50020000D01*
G75*
G02*
X57270000Y-49920000I0J100000D01*
G01*
G37*
G36*
G01*
X56315000Y-47670000D02*
X56315000Y-47130000D01*
G75*
G02*
X56415000Y-47030000I100000J0D01*
G01*
X56615000Y-47030000D01*
G75*
G02*
X56715000Y-47130000I0J-100000D01*
G01*
X56715000Y-47670000D01*
G75*
G02*
X56615000Y-47770000I-100000J0D01*
G01*
X56415000Y-47770000D01*
G75*
G02*
X56315000Y-47670000I0J100000D01*
G01*
G37*
G36*
G01*
X56070000Y-47085000D02*
X55530000Y-47085000D01*
G75*
G02*
X55430000Y-46985000I0J100000D01*
G01*
X55430000Y-46785000D01*
G75*
G02*
X55530000Y-46685000I100000J0D01*
G01*
X56070000Y-46685000D01*
G75*
G02*
X56170000Y-46785000I0J-100000D01*
G01*
X56170000Y-46985000D01*
G75*
G02*
X56070000Y-47085000I-100000J0D01*
G01*
G37*
G36*
G01*
X56070000Y-49085000D02*
X55530000Y-49085000D01*
G75*
G02*
X55430000Y-48985000I0J100000D01*
G01*
X55430000Y-48785000D01*
G75*
G02*
X55530000Y-48685000I100000J0D01*
G01*
X56070000Y-48685000D01*
G75*
G02*
X56170000Y-48785000I0J-100000D01*
G01*
X56170000Y-48985000D01*
G75*
G02*
X56070000Y-49085000I-100000J0D01*
G01*
G37*
G36*
G01*
X56315000Y-45420000D02*
X56315000Y-44880000D01*
G75*
G02*
X56415000Y-44780000I100000J0D01*
G01*
X56615000Y-44780000D01*
G75*
G02*
X56715000Y-44880000I0J-100000D01*
G01*
X56715000Y-45420000D01*
G75*
G02*
X56615000Y-45520000I-100000J0D01*
G01*
X56415000Y-45520000D01*
G75*
G02*
X56315000Y-45420000I0J100000D01*
G01*
G37*
G36*
G01*
X58450000Y-48115000D02*
X57910000Y-48115000D01*
G75*
G02*
X57810000Y-48015000I0J100000D01*
G01*
X57810000Y-47815000D01*
G75*
G02*
X57910000Y-47715000I100000J0D01*
G01*
X58450000Y-47715000D01*
G75*
G02*
X58550000Y-47815000I0J-100000D01*
G01*
X58550000Y-48015000D01*
G75*
G02*
X58450000Y-48115000I-100000J0D01*
G01*
G37*
G36*
G01*
X58470000Y-47085000D02*
X57930000Y-47085000D01*
G75*
G02*
X57830000Y-46985000I0J100000D01*
G01*
X57830000Y-46785000D01*
G75*
G02*
X57930000Y-46685000I100000J0D01*
G01*
X58470000Y-46685000D01*
G75*
G02*
X58570000Y-46785000I0J-100000D01*
G01*
X58570000Y-46985000D01*
G75*
G02*
X58470000Y-47085000I-100000J0D01*
G01*
G37*
G36*
G01*
X58450000Y-49085000D02*
X57910000Y-49085000D01*
G75*
G02*
X57810000Y-48985000I0J100000D01*
G01*
X57810000Y-48785000D01*
G75*
G02*
X57910000Y-48685000I100000J0D01*
G01*
X58450000Y-48685000D01*
G75*
G02*
X58550000Y-48785000I0J-100000D01*
G01*
X58550000Y-48985000D01*
G75*
G02*
X58450000Y-49085000I-100000J0D01*
G01*
G37*
G36*
G01*
X56300000Y-49920000D02*
X56300000Y-49380000D01*
G75*
G02*
X56400000Y-49280000I100000J0D01*
G01*
X56600000Y-49280000D01*
G75*
G02*
X56700000Y-49380000I0J-100000D01*
G01*
X56700000Y-49920000D01*
G75*
G02*
X56600000Y-50020000I-100000J0D01*
G01*
X56400000Y-50020000D01*
G75*
G02*
X56300000Y-49920000I0J100000D01*
G01*
G37*
G36*
G01*
X56070000Y-48115000D02*
X55530000Y-48115000D01*
G75*
G02*
X55430000Y-48015000I0J100000D01*
G01*
X55430000Y-47815000D01*
G75*
G02*
X55530000Y-47715000I100000J0D01*
G01*
X56070000Y-47715000D01*
G75*
G02*
X56170000Y-47815000I0J-100000D01*
G01*
X56170000Y-48015000D01*
G75*
G02*
X56070000Y-48115000I-100000J0D01*
G01*
G37*
G36*
G01*
X56070000Y-46115000D02*
X55530000Y-46115000D01*
G75*
G02*
X55430000Y-46015000I0J100000D01*
G01*
X55430000Y-45815000D01*
G75*
G02*
X55530000Y-45715000I100000J0D01*
G01*
X56070000Y-45715000D01*
G75*
G02*
X56170000Y-45815000I0J-100000D01*
G01*
X56170000Y-46015000D01*
G75*
G02*
X56070000Y-46115000I-100000J0D01*
G01*
G37*
G36*
G01*
X57285000Y-45420000D02*
X57285000Y-44880000D01*
G75*
G02*
X57385000Y-44780000I100000J0D01*
G01*
X57585000Y-44780000D01*
G75*
G02*
X57685000Y-44880000I0J-100000D01*
G01*
X57685000Y-45420000D01*
G75*
G02*
X57585000Y-45520000I-100000J0D01*
G01*
X57385000Y-45520000D01*
G75*
G02*
X57285000Y-45420000I0J100000D01*
G01*
G37*
G36*
G01*
X57285000Y-47670000D02*
X57285000Y-47130000D01*
G75*
G02*
X57385000Y-47030000I100000J0D01*
G01*
X57585000Y-47030000D01*
G75*
G02*
X57685000Y-47130000I0J-100000D01*
G01*
X57685000Y-47670000D01*
G75*
G02*
X57585000Y-47770000I-100000J0D01*
G01*
X57385000Y-47770000D01*
G75*
G02*
X57285000Y-47670000I0J100000D01*
G01*
G37*
%TD*%
%TO.C,D16*%
G36*
G01*
X30948000Y-48731000D02*
X30552000Y-48731000D01*
G75*
G02*
X30379000Y-48558000I0J173000D01*
G01*
X30379000Y-48212000D01*
G75*
G02*
X30552000Y-48039000I173000J0D01*
G01*
X30948000Y-48039000D01*
G75*
G02*
X31121000Y-48212000I0J-173000D01*
G01*
X31121000Y-48558000D01*
G75*
G02*
X30948000Y-48731000I-173000J0D01*
G01*
G37*
G36*
G01*
X30948000Y-47761000D02*
X30552000Y-47761000D01*
G75*
G02*
X30379000Y-47588000I0J173000D01*
G01*
X30379000Y-47242000D01*
G75*
G02*
X30552000Y-47069000I173000J0D01*
G01*
X30948000Y-47069000D01*
G75*
G02*
X31121000Y-47242000I0J-173000D01*
G01*
X31121000Y-47588000D01*
G75*
G02*
X30948000Y-47761000I-173000J0D01*
G01*
G37*
%TD*%
%TO.C,Q1*%
G36*
G01*
X15849000Y-42586995D02*
X15849000Y-42213005D01*
G75*
G02*
X15913005Y-42149000I64005J0D01*
G01*
X16586995Y-42149000D01*
G75*
G02*
X16651000Y-42213005I0J-64005D01*
G01*
X16651000Y-42586995D01*
G75*
G02*
X16586995Y-42651000I-64005J0D01*
G01*
X15913005Y-42651000D01*
G75*
G02*
X15849000Y-42586995I0J64005D01*
G01*
G37*
G36*
G01*
X15849000Y-43086995D02*
X15849000Y-42713005D01*
G75*
G02*
X15913005Y-42649000I64005J0D01*
G01*
X16586995Y-42649000D01*
G75*
G02*
X16651000Y-42713005I0J-64005D01*
G01*
X16651000Y-43086995D01*
G75*
G02*
X16586995Y-43151000I-64005J0D01*
G01*
X15913005Y-43151000D01*
G75*
G02*
X15849000Y-43086995I0J64005D01*
G01*
G37*
G36*
G01*
X15849000Y-43586995D02*
X15849000Y-43213005D01*
G75*
G02*
X15913005Y-43149000I64005J0D01*
G01*
X16586995Y-43149000D01*
G75*
G02*
X16651000Y-43213005I0J-64005D01*
G01*
X16651000Y-43586995D01*
G75*
G02*
X16586995Y-43651000I-64005J0D01*
G01*
X15913005Y-43651000D01*
G75*
G02*
X15849000Y-43586995I0J64005D01*
G01*
G37*
G36*
G01*
X17349000Y-43586995D02*
X17349000Y-43213005D01*
G75*
G02*
X17413005Y-43149000I64005J0D01*
G01*
X18086995Y-43149000D01*
G75*
G02*
X18151000Y-43213005I0J-64005D01*
G01*
X18151000Y-43586995D01*
G75*
G02*
X18086995Y-43651000I-64005J0D01*
G01*
X17413005Y-43651000D01*
G75*
G02*
X17349000Y-43586995I0J64005D01*
G01*
G37*
G36*
G01*
X17349000Y-43086995D02*
X17349000Y-42713005D01*
G75*
G02*
X17413005Y-42649000I64005J0D01*
G01*
X18086995Y-42649000D01*
G75*
G02*
X18151000Y-42713005I0J-64005D01*
G01*
X18151000Y-43086995D01*
G75*
G02*
X18086995Y-43151000I-64005J0D01*
G01*
X17413005Y-43151000D01*
G75*
G02*
X17349000Y-43086995I0J64005D01*
G01*
G37*
G36*
G01*
X17349000Y-42586995D02*
X17349000Y-42213005D01*
G75*
G02*
X17413005Y-42149000I64005J0D01*
G01*
X18086995Y-42149000D01*
G75*
G02*
X18151000Y-42213005I0J-64005D01*
G01*
X18151000Y-42586995D01*
G75*
G02*
X18086995Y-42651000I-64005J0D01*
G01*
X17413005Y-42651000D01*
G75*
G02*
X17349000Y-42586995I0J64005D01*
G01*
G37*
%TD*%
%TO.C,SW6*%
G36*
G01*
X61674000Y-55025500D02*
X61674000Y-54774500D01*
G75*
G02*
X61799500Y-54649000I125500J0D01*
G01*
X62450500Y-54649000D01*
G75*
G02*
X62576000Y-54774500I0J-125500D01*
G01*
X62576000Y-55025500D01*
G75*
G02*
X62450500Y-55151000I-125500J0D01*
G01*
X61799500Y-55151000D01*
G75*
G02*
X61674000Y-55025500I0J125500D01*
G01*
G37*
G36*
G01*
X65424000Y-55025500D02*
X65424000Y-54774500D01*
G75*
G02*
X65549500Y-54649000I125500J0D01*
G01*
X66200500Y-54649000D01*
G75*
G02*
X66326000Y-54774500I0J-125500D01*
G01*
X66326000Y-55025500D01*
G75*
G02*
X66200500Y-55151000I-125500J0D01*
G01*
X65549500Y-55151000D01*
G75*
G02*
X65424000Y-55025500I0J125500D01*
G01*
G37*
G36*
G01*
X65424000Y-53025500D02*
X65424000Y-52774500D01*
G75*
G02*
X65549500Y-52649000I125500J0D01*
G01*
X66200500Y-52649000D01*
G75*
G02*
X66326000Y-52774500I0J-125500D01*
G01*
X66326000Y-53025500D01*
G75*
G02*
X66200500Y-53151000I-125500J0D01*
G01*
X65549500Y-53151000D01*
G75*
G02*
X65424000Y-53025500I0J125500D01*
G01*
G37*
G36*
G01*
X61674000Y-53025500D02*
X61674000Y-52774500D01*
G75*
G02*
X61799500Y-52649000I125500J0D01*
G01*
X62450500Y-52649000D01*
G75*
G02*
X62576000Y-52774500I0J-125500D01*
G01*
X62576000Y-53025500D01*
G75*
G02*
X62450500Y-53151000I-125500J0D01*
G01*
X61799500Y-53151000D01*
G75*
G02*
X61674000Y-53025500I0J125500D01*
G01*
G37*
%TD*%
%TO.C,D7*%
G36*
G01*
X44448000Y-48731000D02*
X44052000Y-48731000D01*
G75*
G02*
X43879000Y-48558000I0J173000D01*
G01*
X43879000Y-48212000D01*
G75*
G02*
X44052000Y-48039000I173000J0D01*
G01*
X44448000Y-48039000D01*
G75*
G02*
X44621000Y-48212000I0J-173000D01*
G01*
X44621000Y-48558000D01*
G75*
G02*
X44448000Y-48731000I-173000J0D01*
G01*
G37*
G36*
G01*
X44448000Y-47761000D02*
X44052000Y-47761000D01*
G75*
G02*
X43879000Y-47588000I0J173000D01*
G01*
X43879000Y-47242000D01*
G75*
G02*
X44052000Y-47069000I173000J0D01*
G01*
X44448000Y-47069000D01*
G75*
G02*
X44621000Y-47242000I0J-173000D01*
G01*
X44621000Y-47588000D01*
G75*
G02*
X44448000Y-47761000I-173000J0D01*
G01*
G37*
%TD*%
%TO.C,Q3*%
G36*
G01*
X57849000Y-42586995D02*
X57849000Y-42213005D01*
G75*
G02*
X57913005Y-42149000I64005J0D01*
G01*
X58586995Y-42149000D01*
G75*
G02*
X58651000Y-42213005I0J-64005D01*
G01*
X58651000Y-42586995D01*
G75*
G02*
X58586995Y-42651000I-64005J0D01*
G01*
X57913005Y-42651000D01*
G75*
G02*
X57849000Y-42586995I0J64005D01*
G01*
G37*
G36*
G01*
X57849000Y-43086995D02*
X57849000Y-42713005D01*
G75*
G02*
X57913005Y-42649000I64005J0D01*
G01*
X58586995Y-42649000D01*
G75*
G02*
X58651000Y-42713005I0J-64005D01*
G01*
X58651000Y-43086995D01*
G75*
G02*
X58586995Y-43151000I-64005J0D01*
G01*
X57913005Y-43151000D01*
G75*
G02*
X57849000Y-43086995I0J64005D01*
G01*
G37*
G36*
G01*
X57849000Y-43586995D02*
X57849000Y-43213005D01*
G75*
G02*
X57913005Y-43149000I64005J0D01*
G01*
X58586995Y-43149000D01*
G75*
G02*
X58651000Y-43213005I0J-64005D01*
G01*
X58651000Y-43586995D01*
G75*
G02*
X58586995Y-43651000I-64005J0D01*
G01*
X57913005Y-43651000D01*
G75*
G02*
X57849000Y-43586995I0J64005D01*
G01*
G37*
G36*
G01*
X59349000Y-43586995D02*
X59349000Y-43213005D01*
G75*
G02*
X59413005Y-43149000I64005J0D01*
G01*
X60086995Y-43149000D01*
G75*
G02*
X60151000Y-43213005I0J-64005D01*
G01*
X60151000Y-43586995D01*
G75*
G02*
X60086995Y-43651000I-64005J0D01*
G01*
X59413005Y-43651000D01*
G75*
G02*
X59349000Y-43586995I0J64005D01*
G01*
G37*
G36*
G01*
X59349000Y-43086995D02*
X59349000Y-42713005D01*
G75*
G02*
X59413005Y-42649000I64005J0D01*
G01*
X60086995Y-42649000D01*
G75*
G02*
X60151000Y-42713005I0J-64005D01*
G01*
X60151000Y-43086995D01*
G75*
G02*
X60086995Y-43151000I-64005J0D01*
G01*
X59413005Y-43151000D01*
G75*
G02*
X59349000Y-43086995I0J64005D01*
G01*
G37*
G36*
G01*
X59349000Y-42586995D02*
X59349000Y-42213005D01*
G75*
G02*
X59413005Y-42149000I64005J0D01*
G01*
X60086995Y-42149000D01*
G75*
G02*
X60151000Y-42213005I0J-64005D01*
G01*
X60151000Y-42586995D01*
G75*
G02*
X60086995Y-42651000I-64005J0D01*
G01*
X59413005Y-42651000D01*
G75*
G02*
X59349000Y-42586995I0J64005D01*
G01*
G37*
%TD*%
%TO.C,D14*%
G36*
G01*
X33948000Y-48731000D02*
X33552000Y-48731000D01*
G75*
G02*
X33379000Y-48558000I0J173000D01*
G01*
X33379000Y-48212000D01*
G75*
G02*
X33552000Y-48039000I173000J0D01*
G01*
X33948000Y-48039000D01*
G75*
G02*
X34121000Y-48212000I0J-173000D01*
G01*
X34121000Y-48558000D01*
G75*
G02*
X33948000Y-48731000I-173000J0D01*
G01*
G37*
G36*
G01*
X33948000Y-47761000D02*
X33552000Y-47761000D01*
G75*
G02*
X33379000Y-47588000I0J173000D01*
G01*
X33379000Y-47242000D01*
G75*
G02*
X33552000Y-47069000I173000J0D01*
G01*
X33948000Y-47069000D01*
G75*
G02*
X34121000Y-47242000I0J-173000D01*
G01*
X34121000Y-47588000D01*
G75*
G02*
X33948000Y-47761000I-173000J0D01*
G01*
G37*
%TD*%
%TO.C,SW8*%
G36*
G01*
X66874500Y-58824000D02*
X67125500Y-58824000D01*
G75*
G02*
X67251000Y-58949500I0J-125500D01*
G01*
X67251000Y-59600500D01*
G75*
G02*
X67125500Y-59726000I-125500J0D01*
G01*
X66874500Y-59726000D01*
G75*
G02*
X66749000Y-59600500I0J125500D01*
G01*
X66749000Y-58949500D01*
G75*
G02*
X66874500Y-58824000I125500J0D01*
G01*
G37*
G36*
G01*
X66874500Y-55074000D02*
X67125500Y-55074000D01*
G75*
G02*
X67251000Y-55199500I0J-125500D01*
G01*
X67251000Y-55850500D01*
G75*
G02*
X67125500Y-55976000I-125500J0D01*
G01*
X66874500Y-55976000D01*
G75*
G02*
X66749000Y-55850500I0J125500D01*
G01*
X66749000Y-55199500D01*
G75*
G02*
X66874500Y-55074000I125500J0D01*
G01*
G37*
G36*
G01*
X68874500Y-58824000D02*
X69125500Y-58824000D01*
G75*
G02*
X69251000Y-58949500I0J-125500D01*
G01*
X69251000Y-59600500D01*
G75*
G02*
X69125500Y-59726000I-125500J0D01*
G01*
X68874500Y-59726000D01*
G75*
G02*
X68749000Y-59600500I0J125500D01*
G01*
X68749000Y-58949500D01*
G75*
G02*
X68874500Y-58824000I125500J0D01*
G01*
G37*
G36*
G01*
X68874500Y-55074000D02*
X69125500Y-55074000D01*
G75*
G02*
X69251000Y-55199500I0J-125500D01*
G01*
X69251000Y-55850500D01*
G75*
G02*
X69125500Y-55976000I-125500J0D01*
G01*
X68874500Y-55976000D01*
G75*
G02*
X68749000Y-55850500I0J125500D01*
G01*
X68749000Y-55199500D01*
G75*
G02*
X68874500Y-55074000I125500J0D01*
G01*
G37*
%TD*%
%TO.C,D13*%
G36*
G01*
X35448000Y-48731000D02*
X35052000Y-48731000D01*
G75*
G02*
X34879000Y-48558000I0J173000D01*
G01*
X34879000Y-48212000D01*
G75*
G02*
X35052000Y-48039000I173000J0D01*
G01*
X35448000Y-48039000D01*
G75*
G02*
X35621000Y-48212000I0J-173000D01*
G01*
X35621000Y-48558000D01*
G75*
G02*
X35448000Y-48731000I-173000J0D01*
G01*
G37*
G36*
G01*
X35448000Y-47761000D02*
X35052000Y-47761000D01*
G75*
G02*
X34879000Y-47588000I0J173000D01*
G01*
X34879000Y-47242000D01*
G75*
G02*
X35052000Y-47069000I173000J0D01*
G01*
X35448000Y-47069000D01*
G75*
G02*
X35621000Y-47242000I0J-173000D01*
G01*
X35621000Y-47588000D01*
G75*
G02*
X35448000Y-47761000I-173000J0D01*
G01*
G37*
%TD*%
%TO.C,U8*%
G36*
G01*
X61255000Y-49920000D02*
X61255000Y-49380000D01*
G75*
G02*
X61355000Y-49280000I100000J0D01*
G01*
X61555000Y-49280000D01*
G75*
G02*
X61655000Y-49380000I0J-100000D01*
G01*
X61655000Y-49920000D01*
G75*
G02*
X61555000Y-50020000I-100000J0D01*
G01*
X61355000Y-50020000D01*
G75*
G02*
X61255000Y-49920000I0J100000D01*
G01*
G37*
G36*
G01*
X62455000Y-46115000D02*
X61915000Y-46115000D01*
G75*
G02*
X61815000Y-46015000I0J100000D01*
G01*
X61815000Y-45815000D01*
G75*
G02*
X61915000Y-45715000I100000J0D01*
G01*
X62455000Y-45715000D01*
G75*
G02*
X62555000Y-45815000I0J-100000D01*
G01*
X62555000Y-46015000D01*
G75*
G02*
X62455000Y-46115000I-100000J0D01*
G01*
G37*
G36*
G01*
X60055000Y-47085000D02*
X59515000Y-47085000D01*
G75*
G02*
X59415000Y-46985000I0J100000D01*
G01*
X59415000Y-46785000D01*
G75*
G02*
X59515000Y-46685000I100000J0D01*
G01*
X60055000Y-46685000D01*
G75*
G02*
X60155000Y-46785000I0J-100000D01*
G01*
X60155000Y-46985000D01*
G75*
G02*
X60055000Y-47085000I-100000J0D01*
G01*
G37*
G36*
G01*
X62435000Y-48115000D02*
X61895000Y-48115000D01*
G75*
G02*
X61795000Y-48015000I0J100000D01*
G01*
X61795000Y-47815000D01*
G75*
G02*
X61895000Y-47715000I100000J0D01*
G01*
X62435000Y-47715000D01*
G75*
G02*
X62535000Y-47815000I0J-100000D01*
G01*
X62535000Y-48015000D01*
G75*
G02*
X62435000Y-48115000I-100000J0D01*
G01*
G37*
G36*
G01*
X60300000Y-45420000D02*
X60300000Y-44880000D01*
G75*
G02*
X60400000Y-44780000I100000J0D01*
G01*
X60600000Y-44780000D01*
G75*
G02*
X60700000Y-44880000I0J-100000D01*
G01*
X60700000Y-45420000D01*
G75*
G02*
X60600000Y-45520000I-100000J0D01*
G01*
X60400000Y-45520000D01*
G75*
G02*
X60300000Y-45420000I0J100000D01*
G01*
G37*
G36*
G01*
X60300000Y-47670000D02*
X60300000Y-47130000D01*
G75*
G02*
X60400000Y-47030000I100000J0D01*
G01*
X60600000Y-47030000D01*
G75*
G02*
X60700000Y-47130000I0J-100000D01*
G01*
X60700000Y-47670000D01*
G75*
G02*
X60600000Y-47770000I-100000J0D01*
G01*
X60400000Y-47770000D01*
G75*
G02*
X60300000Y-47670000I0J100000D01*
G01*
G37*
G36*
G01*
X60055000Y-49085000D02*
X59515000Y-49085000D01*
G75*
G02*
X59415000Y-48985000I0J100000D01*
G01*
X59415000Y-48785000D01*
G75*
G02*
X59515000Y-48685000I100000J0D01*
G01*
X60055000Y-48685000D01*
G75*
G02*
X60155000Y-48785000I0J-100000D01*
G01*
X60155000Y-48985000D01*
G75*
G02*
X60055000Y-49085000I-100000J0D01*
G01*
G37*
G36*
G01*
X62455000Y-47085000D02*
X61915000Y-47085000D01*
G75*
G02*
X61815000Y-46985000I0J100000D01*
G01*
X61815000Y-46785000D01*
G75*
G02*
X61915000Y-46685000I100000J0D01*
G01*
X62455000Y-46685000D01*
G75*
G02*
X62555000Y-46785000I0J-100000D01*
G01*
X62555000Y-46985000D01*
G75*
G02*
X62455000Y-47085000I-100000J0D01*
G01*
G37*
G36*
G01*
X62435000Y-49085000D02*
X61895000Y-49085000D01*
G75*
G02*
X61795000Y-48985000I0J100000D01*
G01*
X61795000Y-48785000D01*
G75*
G02*
X61895000Y-48685000I100000J0D01*
G01*
X62435000Y-48685000D01*
G75*
G02*
X62535000Y-48785000I0J-100000D01*
G01*
X62535000Y-48985000D01*
G75*
G02*
X62435000Y-49085000I-100000J0D01*
G01*
G37*
G36*
G01*
X60285000Y-49920000D02*
X60285000Y-49380000D01*
G75*
G02*
X60385000Y-49280000I100000J0D01*
G01*
X60585000Y-49280000D01*
G75*
G02*
X60685000Y-49380000I0J-100000D01*
G01*
X60685000Y-49920000D01*
G75*
G02*
X60585000Y-50020000I-100000J0D01*
G01*
X60385000Y-50020000D01*
G75*
G02*
X60285000Y-49920000I0J100000D01*
G01*
G37*
G36*
G01*
X60055000Y-48115000D02*
X59515000Y-48115000D01*
G75*
G02*
X59415000Y-48015000I0J100000D01*
G01*
X59415000Y-47815000D01*
G75*
G02*
X59515000Y-47715000I100000J0D01*
G01*
X60055000Y-47715000D01*
G75*
G02*
X60155000Y-47815000I0J-100000D01*
G01*
X60155000Y-48015000D01*
G75*
G02*
X60055000Y-48115000I-100000J0D01*
G01*
G37*
G36*
G01*
X60055000Y-46115000D02*
X59515000Y-46115000D01*
G75*
G02*
X59415000Y-46015000I0J100000D01*
G01*
X59415000Y-45815000D01*
G75*
G02*
X59515000Y-45715000I100000J0D01*
G01*
X60055000Y-45715000D01*
G75*
G02*
X60155000Y-45815000I0J-100000D01*
G01*
X60155000Y-46015000D01*
G75*
G02*
X60055000Y-46115000I-100000J0D01*
G01*
G37*
G36*
G01*
X61270000Y-45420000D02*
X61270000Y-44880000D01*
G75*
G02*
X61370000Y-44780000I100000J0D01*
G01*
X61570000Y-44780000D01*
G75*
G02*
X61670000Y-44880000I0J-100000D01*
G01*
X61670000Y-45420000D01*
G75*
G02*
X61570000Y-45520000I-100000J0D01*
G01*
X61370000Y-45520000D01*
G75*
G02*
X61270000Y-45420000I0J100000D01*
G01*
G37*
G36*
G01*
X61270000Y-47670000D02*
X61270000Y-47130000D01*
G75*
G02*
X61370000Y-47030000I100000J0D01*
G01*
X61570000Y-47030000D01*
G75*
G02*
X61670000Y-47130000I0J-100000D01*
G01*
X61670000Y-47670000D01*
G75*
G02*
X61570000Y-47770000I-100000J0D01*
G01*
X61370000Y-47770000D01*
G75*
G02*
X61270000Y-47670000I0J100000D01*
G01*
G37*
%TD*%
%TO.C,Q2*%
G36*
G01*
X23849000Y-42586995D02*
X23849000Y-42213005D01*
G75*
G02*
X23913005Y-42149000I64005J0D01*
G01*
X24586995Y-42149000D01*
G75*
G02*
X24651000Y-42213005I0J-64005D01*
G01*
X24651000Y-42586995D01*
G75*
G02*
X24586995Y-42651000I-64005J0D01*
G01*
X23913005Y-42651000D01*
G75*
G02*
X23849000Y-42586995I0J64005D01*
G01*
G37*
G36*
G01*
X23849000Y-43086995D02*
X23849000Y-42713005D01*
G75*
G02*
X23913005Y-42649000I64005J0D01*
G01*
X24586995Y-42649000D01*
G75*
G02*
X24651000Y-42713005I0J-64005D01*
G01*
X24651000Y-43086995D01*
G75*
G02*
X24586995Y-43151000I-64005J0D01*
G01*
X23913005Y-43151000D01*
G75*
G02*
X23849000Y-43086995I0J64005D01*
G01*
G37*
G36*
G01*
X23849000Y-43586995D02*
X23849000Y-43213005D01*
G75*
G02*
X23913005Y-43149000I64005J0D01*
G01*
X24586995Y-43149000D01*
G75*
G02*
X24651000Y-43213005I0J-64005D01*
G01*
X24651000Y-43586995D01*
G75*
G02*
X24586995Y-43651000I-64005J0D01*
G01*
X23913005Y-43651000D01*
G75*
G02*
X23849000Y-43586995I0J64005D01*
G01*
G37*
G36*
G01*
X25349000Y-43586995D02*
X25349000Y-43213005D01*
G75*
G02*
X25413005Y-43149000I64005J0D01*
G01*
X26086995Y-43149000D01*
G75*
G02*
X26151000Y-43213005I0J-64005D01*
G01*
X26151000Y-43586995D01*
G75*
G02*
X26086995Y-43651000I-64005J0D01*
G01*
X25413005Y-43651000D01*
G75*
G02*
X25349000Y-43586995I0J64005D01*
G01*
G37*
G36*
G01*
X25349000Y-43086995D02*
X25349000Y-42713005D01*
G75*
G02*
X25413005Y-42649000I64005J0D01*
G01*
X26086995Y-42649000D01*
G75*
G02*
X26151000Y-42713005I0J-64005D01*
G01*
X26151000Y-43086995D01*
G75*
G02*
X26086995Y-43151000I-64005J0D01*
G01*
X25413005Y-43151000D01*
G75*
G02*
X25349000Y-43086995I0J64005D01*
G01*
G37*
G36*
G01*
X25349000Y-42586995D02*
X25349000Y-42213005D01*
G75*
G02*
X25413005Y-42149000I64005J0D01*
G01*
X26086995Y-42149000D01*
G75*
G02*
X26151000Y-42213005I0J-64005D01*
G01*
X26151000Y-42586995D01*
G75*
G02*
X26086995Y-42651000I-64005J0D01*
G01*
X25413005Y-42651000D01*
G75*
G02*
X25349000Y-42586995I0J64005D01*
G01*
G37*
%TD*%
%TO.C,D12*%
G36*
G01*
X36948000Y-48731000D02*
X36552000Y-48731000D01*
G75*
G02*
X36379000Y-48558000I0J173000D01*
G01*
X36379000Y-48212000D01*
G75*
G02*
X36552000Y-48039000I173000J0D01*
G01*
X36948000Y-48039000D01*
G75*
G02*
X37121000Y-48212000I0J-173000D01*
G01*
X37121000Y-48558000D01*
G75*
G02*
X36948000Y-48731000I-173000J0D01*
G01*
G37*
G36*
G01*
X36948000Y-47761000D02*
X36552000Y-47761000D01*
G75*
G02*
X36379000Y-47588000I0J173000D01*
G01*
X36379000Y-47242000D01*
G75*
G02*
X36552000Y-47069000I173000J0D01*
G01*
X36948000Y-47069000D01*
G75*
G02*
X37121000Y-47242000I0J-173000D01*
G01*
X37121000Y-47588000D01*
G75*
G02*
X36948000Y-47761000I-173000J0D01*
G01*
G37*
%TD*%
%TO.C,D9*%
G36*
G01*
X41448000Y-48731000D02*
X41052000Y-48731000D01*
G75*
G02*
X40879000Y-48558000I0J173000D01*
G01*
X40879000Y-48212000D01*
G75*
G02*
X41052000Y-48039000I173000J0D01*
G01*
X41448000Y-48039000D01*
G75*
G02*
X41621000Y-48212000I0J-173000D01*
G01*
X41621000Y-48558000D01*
G75*
G02*
X41448000Y-48731000I-173000J0D01*
G01*
G37*
G36*
G01*
X41448000Y-47761000D02*
X41052000Y-47761000D01*
G75*
G02*
X40879000Y-47588000I0J173000D01*
G01*
X40879000Y-47242000D01*
G75*
G02*
X41052000Y-47069000I173000J0D01*
G01*
X41448000Y-47069000D01*
G75*
G02*
X41621000Y-47242000I0J-173000D01*
G01*
X41621000Y-47588000D01*
G75*
G02*
X41448000Y-47761000I-173000J0D01*
G01*
G37*
%TD*%
%TO.C,U9*%
G36*
G01*
X66470000Y-46115000D02*
X65930000Y-46115000D01*
G75*
G02*
X65830000Y-46015000I0J100000D01*
G01*
X65830000Y-45815000D01*
G75*
G02*
X65930000Y-45715000I100000J0D01*
G01*
X66470000Y-45715000D01*
G75*
G02*
X66570000Y-45815000I0J-100000D01*
G01*
X66570000Y-46015000D01*
G75*
G02*
X66470000Y-46115000I-100000J0D01*
G01*
G37*
G36*
G01*
X64315000Y-45420000D02*
X64315000Y-44880000D01*
G75*
G02*
X64415000Y-44780000I100000J0D01*
G01*
X64615000Y-44780000D01*
G75*
G02*
X64715000Y-44880000I0J-100000D01*
G01*
X64715000Y-45420000D01*
G75*
G02*
X64615000Y-45520000I-100000J0D01*
G01*
X64415000Y-45520000D01*
G75*
G02*
X64315000Y-45420000I0J100000D01*
G01*
G37*
G36*
G01*
X64315000Y-47670000D02*
X64315000Y-47130000D01*
G75*
G02*
X64415000Y-47030000I100000J0D01*
G01*
X64615000Y-47030000D01*
G75*
G02*
X64715000Y-47130000I0J-100000D01*
G01*
X64715000Y-47670000D01*
G75*
G02*
X64615000Y-47770000I-100000J0D01*
G01*
X64415000Y-47770000D01*
G75*
G02*
X64315000Y-47670000I0J100000D01*
G01*
G37*
G36*
G01*
X64070000Y-47085000D02*
X63530000Y-47085000D01*
G75*
G02*
X63430000Y-46985000I0J100000D01*
G01*
X63430000Y-46785000D01*
G75*
G02*
X63530000Y-46685000I100000J0D01*
G01*
X64070000Y-46685000D01*
G75*
G02*
X64170000Y-46785000I0J-100000D01*
G01*
X64170000Y-46985000D01*
G75*
G02*
X64070000Y-47085000I-100000J0D01*
G01*
G37*
G36*
G01*
X64070000Y-49085000D02*
X63530000Y-49085000D01*
G75*
G02*
X63430000Y-48985000I0J100000D01*
G01*
X63430000Y-48785000D01*
G75*
G02*
X63530000Y-48685000I100000J0D01*
G01*
X64070000Y-48685000D01*
G75*
G02*
X64170000Y-48785000I0J-100000D01*
G01*
X64170000Y-48985000D01*
G75*
G02*
X64070000Y-49085000I-100000J0D01*
G01*
G37*
G36*
G01*
X65270000Y-49920000D02*
X65270000Y-49380000D01*
G75*
G02*
X65370000Y-49280000I100000J0D01*
G01*
X65570000Y-49280000D01*
G75*
G02*
X65670000Y-49380000I0J-100000D01*
G01*
X65670000Y-49920000D01*
G75*
G02*
X65570000Y-50020000I-100000J0D01*
G01*
X65370000Y-50020000D01*
G75*
G02*
X65270000Y-49920000I0J100000D01*
G01*
G37*
G36*
G01*
X66450000Y-48115000D02*
X65910000Y-48115000D01*
G75*
G02*
X65810000Y-48015000I0J100000D01*
G01*
X65810000Y-47815000D01*
G75*
G02*
X65910000Y-47715000I100000J0D01*
G01*
X66450000Y-47715000D01*
G75*
G02*
X66550000Y-47815000I0J-100000D01*
G01*
X66550000Y-48015000D01*
G75*
G02*
X66450000Y-48115000I-100000J0D01*
G01*
G37*
G36*
G01*
X66470000Y-47085000D02*
X65930000Y-47085000D01*
G75*
G02*
X65830000Y-46985000I0J100000D01*
G01*
X65830000Y-46785000D01*
G75*
G02*
X65930000Y-46685000I100000J0D01*
G01*
X66470000Y-46685000D01*
G75*
G02*
X66570000Y-46785000I0J-100000D01*
G01*
X66570000Y-46985000D01*
G75*
G02*
X66470000Y-47085000I-100000J0D01*
G01*
G37*
G36*
G01*
X66450000Y-49085000D02*
X65910000Y-49085000D01*
G75*
G02*
X65810000Y-48985000I0J100000D01*
G01*
X65810000Y-48785000D01*
G75*
G02*
X65910000Y-48685000I100000J0D01*
G01*
X66450000Y-48685000D01*
G75*
G02*
X66550000Y-48785000I0J-100000D01*
G01*
X66550000Y-48985000D01*
G75*
G02*
X66450000Y-49085000I-100000J0D01*
G01*
G37*
G36*
G01*
X64300000Y-49920000D02*
X64300000Y-49380000D01*
G75*
G02*
X64400000Y-49280000I100000J0D01*
G01*
X64600000Y-49280000D01*
G75*
G02*
X64700000Y-49380000I0J-100000D01*
G01*
X64700000Y-49920000D01*
G75*
G02*
X64600000Y-50020000I-100000J0D01*
G01*
X64400000Y-50020000D01*
G75*
G02*
X64300000Y-49920000I0J100000D01*
G01*
G37*
G36*
G01*
X64070000Y-48115000D02*
X63530000Y-48115000D01*
G75*
G02*
X63430000Y-48015000I0J100000D01*
G01*
X63430000Y-47815000D01*
G75*
G02*
X63530000Y-47715000I100000J0D01*
G01*
X64070000Y-47715000D01*
G75*
G02*
X64170000Y-47815000I0J-100000D01*
G01*
X64170000Y-48015000D01*
G75*
G02*
X64070000Y-48115000I-100000J0D01*
G01*
G37*
G36*
G01*
X64070000Y-46115000D02*
X63530000Y-46115000D01*
G75*
G02*
X63430000Y-46015000I0J100000D01*
G01*
X63430000Y-45815000D01*
G75*
G02*
X63530000Y-45715000I100000J0D01*
G01*
X64070000Y-45715000D01*
G75*
G02*
X64170000Y-45815000I0J-100000D01*
G01*
X64170000Y-46015000D01*
G75*
G02*
X64070000Y-46115000I-100000J0D01*
G01*
G37*
G36*
G01*
X65285000Y-45420000D02*
X65285000Y-44880000D01*
G75*
G02*
X65385000Y-44780000I100000J0D01*
G01*
X65585000Y-44780000D01*
G75*
G02*
X65685000Y-44880000I0J-100000D01*
G01*
X65685000Y-45420000D01*
G75*
G02*
X65585000Y-45520000I-100000J0D01*
G01*
X65385000Y-45520000D01*
G75*
G02*
X65285000Y-45420000I0J100000D01*
G01*
G37*
G36*
G01*
X65285000Y-47670000D02*
X65285000Y-47130000D01*
G75*
G02*
X65385000Y-47030000I100000J0D01*
G01*
X65585000Y-47030000D01*
G75*
G02*
X65685000Y-47130000I0J-100000D01*
G01*
X65685000Y-47670000D01*
G75*
G02*
X65585000Y-47770000I-100000J0D01*
G01*
X65385000Y-47770000D01*
G75*
G02*
X65285000Y-47670000I0J100000D01*
G01*
G37*
%TD*%
%TO.C,J2*%
G36*
G01*
X16701000Y-35217340D02*
X16701000Y-37782660D01*
G75*
G02*
X16632660Y-37851000I-68340J0D01*
G01*
X16367340Y-37851000D01*
G75*
G02*
X16299000Y-37782660I0J68340D01*
G01*
X16299000Y-35217340D01*
G75*
G02*
X16367340Y-35149000I68340J0D01*
G01*
X16632660Y-35149000D01*
G75*
G02*
X16701000Y-35217340I0J-68340D01*
G01*
G37*
G36*
G01*
X17201000Y-35217340D02*
X17201000Y-37782660D01*
G75*
G02*
X17132660Y-37851000I-68340J0D01*
G01*
X16867340Y-37851000D01*
G75*
G02*
X16799000Y-37782660I0J68340D01*
G01*
X16799000Y-35217340D01*
G75*
G02*
X16867340Y-35149000I68340J0D01*
G01*
X17132660Y-35149000D01*
G75*
G02*
X17201000Y-35217340I0J-68340D01*
G01*
G37*
G36*
G01*
X17701000Y-35217340D02*
X17701000Y-37782660D01*
G75*
G02*
X17632660Y-37851000I-68340J0D01*
G01*
X17367340Y-37851000D01*
G75*
G02*
X17299000Y-37782660I0J68340D01*
G01*
X17299000Y-35217340D01*
G75*
G02*
X17367340Y-35149000I68340J0D01*
G01*
X17632660Y-35149000D01*
G75*
G02*
X17701000Y-35217340I0J-68340D01*
G01*
G37*
G36*
G01*
X18201000Y-35217340D02*
X18201000Y-37782660D01*
G75*
G02*
X18132660Y-37851000I-68340J0D01*
G01*
X17867340Y-37851000D01*
G75*
G02*
X17799000Y-37782660I0J68340D01*
G01*
X17799000Y-35217340D01*
G75*
G02*
X17867340Y-35149000I68340J0D01*
G01*
X18132660Y-35149000D01*
G75*
G02*
X18201000Y-35217340I0J-68340D01*
G01*
G37*
G36*
G01*
X18701000Y-35217340D02*
X18701000Y-37782660D01*
G75*
G02*
X18632660Y-37851000I-68340J0D01*
G01*
X18367340Y-37851000D01*
G75*
G02*
X18299000Y-37782660I0J68340D01*
G01*
X18299000Y-35217340D01*
G75*
G02*
X18367340Y-35149000I68340J0D01*
G01*
X18632660Y-35149000D01*
G75*
G02*
X18701000Y-35217340I0J-68340D01*
G01*
G37*
G36*
G01*
X19201000Y-35217340D02*
X19201000Y-37782660D01*
G75*
G02*
X19132660Y-37851000I-68340J0D01*
G01*
X18867340Y-37851000D01*
G75*
G02*
X18799000Y-37782660I0J68340D01*
G01*
X18799000Y-35217340D01*
G75*
G02*
X18867340Y-35149000I68340J0D01*
G01*
X19132660Y-35149000D01*
G75*
G02*
X19201000Y-35217340I0J-68340D01*
G01*
G37*
G36*
G01*
X19701000Y-35217340D02*
X19701000Y-37782660D01*
G75*
G02*
X19632660Y-37851000I-68340J0D01*
G01*
X19367340Y-37851000D01*
G75*
G02*
X19299000Y-37782660I0J68340D01*
G01*
X19299000Y-35217340D01*
G75*
G02*
X19367340Y-35149000I68340J0D01*
G01*
X19632660Y-35149000D01*
G75*
G02*
X19701000Y-35217340I0J-68340D01*
G01*
G37*
G36*
G01*
X20201000Y-35217340D02*
X20201000Y-37782660D01*
G75*
G02*
X20132660Y-37851000I-68340J0D01*
G01*
X19867340Y-37851000D01*
G75*
G02*
X19799000Y-37782660I0J68340D01*
G01*
X19799000Y-35217340D01*
G75*
G02*
X19867340Y-35149000I68340J0D01*
G01*
X20132660Y-35149000D01*
G75*
G02*
X20201000Y-35217340I0J-68340D01*
G01*
G37*
G36*
G01*
X20701000Y-35217340D02*
X20701000Y-37782660D01*
G75*
G02*
X20632660Y-37851000I-68340J0D01*
G01*
X20367340Y-37851000D01*
G75*
G02*
X20299000Y-37782660I0J68340D01*
G01*
X20299000Y-35217340D01*
G75*
G02*
X20367340Y-35149000I68340J0D01*
G01*
X20632660Y-35149000D01*
G75*
G02*
X20701000Y-35217340I0J-68340D01*
G01*
G37*
G36*
G01*
X21201000Y-35217340D02*
X21201000Y-37782660D01*
G75*
G02*
X21132660Y-37851000I-68340J0D01*
G01*
X20867340Y-37851000D01*
G75*
G02*
X20799000Y-37782660I0J68340D01*
G01*
X20799000Y-35217340D01*
G75*
G02*
X20867340Y-35149000I68340J0D01*
G01*
X21132660Y-35149000D01*
G75*
G02*
X21201000Y-35217340I0J-68340D01*
G01*
G37*
G36*
G01*
X21701000Y-35217340D02*
X21701000Y-37782660D01*
G75*
G02*
X21632660Y-37851000I-68340J0D01*
G01*
X21367340Y-37851000D01*
G75*
G02*
X21299000Y-37782660I0J68340D01*
G01*
X21299000Y-35217340D01*
G75*
G02*
X21367340Y-35149000I68340J0D01*
G01*
X21632660Y-35149000D01*
G75*
G02*
X21701000Y-35217340I0J-68340D01*
G01*
G37*
G36*
G01*
X22201000Y-35217340D02*
X22201000Y-37782660D01*
G75*
G02*
X22132660Y-37851000I-68340J0D01*
G01*
X21867340Y-37851000D01*
G75*
G02*
X21799000Y-37782660I0J68340D01*
G01*
X21799000Y-35217340D01*
G75*
G02*
X21867340Y-35149000I68340J0D01*
G01*
X22132660Y-35149000D01*
G75*
G02*
X22201000Y-35217340I0J-68340D01*
G01*
G37*
G36*
G01*
X22701000Y-35217340D02*
X22701000Y-37782660D01*
G75*
G02*
X22632660Y-37851000I-68340J0D01*
G01*
X22367340Y-37851000D01*
G75*
G02*
X22299000Y-37782660I0J68340D01*
G01*
X22299000Y-35217340D01*
G75*
G02*
X22367340Y-35149000I68340J0D01*
G01*
X22632660Y-35149000D01*
G75*
G02*
X22701000Y-35217340I0J-68340D01*
G01*
G37*
G36*
G01*
X23201000Y-35217340D02*
X23201000Y-37782660D01*
G75*
G02*
X23132660Y-37851000I-68340J0D01*
G01*
X22867340Y-37851000D01*
G75*
G02*
X22799000Y-37782660I0J68340D01*
G01*
X22799000Y-35217340D01*
G75*
G02*
X22867340Y-35149000I68340J0D01*
G01*
X23132660Y-35149000D01*
G75*
G02*
X23201000Y-35217340I0J-68340D01*
G01*
G37*
G36*
G01*
X23701000Y-35217340D02*
X23701000Y-37782660D01*
G75*
G02*
X23632660Y-37851000I-68340J0D01*
G01*
X23367340Y-37851000D01*
G75*
G02*
X23299000Y-37782660I0J68340D01*
G01*
X23299000Y-35217340D01*
G75*
G02*
X23367340Y-35149000I68340J0D01*
G01*
X23632660Y-35149000D01*
G75*
G02*
X23701000Y-35217340I0J-68340D01*
G01*
G37*
G36*
G01*
X24201000Y-35217340D02*
X24201000Y-37782660D01*
G75*
G02*
X24132660Y-37851000I-68340J0D01*
G01*
X23867340Y-37851000D01*
G75*
G02*
X23799000Y-37782660I0J68340D01*
G01*
X23799000Y-35217340D01*
G75*
G02*
X23867340Y-35149000I68340J0D01*
G01*
X24132660Y-35149000D01*
G75*
G02*
X24201000Y-35217340I0J-68340D01*
G01*
G37*
G36*
G01*
X24701000Y-35217340D02*
X24701000Y-37782660D01*
G75*
G02*
X24632660Y-37851000I-68340J0D01*
G01*
X24367340Y-37851000D01*
G75*
G02*
X24299000Y-37782660I0J68340D01*
G01*
X24299000Y-35217340D01*
G75*
G02*
X24367340Y-35149000I68340J0D01*
G01*
X24632660Y-35149000D01*
G75*
G02*
X24701000Y-35217340I0J-68340D01*
G01*
G37*
G36*
G01*
X25201000Y-35217340D02*
X25201000Y-37782660D01*
G75*
G02*
X25132660Y-37851000I-68340J0D01*
G01*
X24867340Y-37851000D01*
G75*
G02*
X24799000Y-37782660I0J68340D01*
G01*
X24799000Y-35217340D01*
G75*
G02*
X24867340Y-35149000I68340J0D01*
G01*
X25132660Y-35149000D01*
G75*
G02*
X25201000Y-35217340I0J-68340D01*
G01*
G37*
G36*
G01*
X25701000Y-35217340D02*
X25701000Y-37782660D01*
G75*
G02*
X25632660Y-37851000I-68340J0D01*
G01*
X25367340Y-37851000D01*
G75*
G02*
X25299000Y-37782660I0J68340D01*
G01*
X25299000Y-35217340D01*
G75*
G02*
X25367340Y-35149000I68340J0D01*
G01*
X25632660Y-35149000D01*
G75*
G02*
X25701000Y-35217340I0J-68340D01*
G01*
G37*
D13*
X28250000Y-35740000D03*
D14*
X28250000Y-29780000D03*
D13*
X13750000Y-35740000D03*
D14*
X13750000Y-29780000D03*
%TD*%
%TO.C,SW5*%
G36*
G01*
X61125500Y-59726000D02*
X60874500Y-59726000D01*
G75*
G02*
X60749000Y-59600500I0J125500D01*
G01*
X60749000Y-58949500D01*
G75*
G02*
X60874500Y-58824000I125500J0D01*
G01*
X61125500Y-58824000D01*
G75*
G02*
X61251000Y-58949500I0J-125500D01*
G01*
X61251000Y-59600500D01*
G75*
G02*
X61125500Y-59726000I-125500J0D01*
G01*
G37*
G36*
G01*
X61125500Y-55976000D02*
X60874500Y-55976000D01*
G75*
G02*
X60749000Y-55850500I0J125500D01*
G01*
X60749000Y-55199500D01*
G75*
G02*
X60874500Y-55074000I125500J0D01*
G01*
X61125500Y-55074000D01*
G75*
G02*
X61251000Y-55199500I0J-125500D01*
G01*
X61251000Y-55850500D01*
G75*
G02*
X61125500Y-55976000I-125500J0D01*
G01*
G37*
G36*
G01*
X59125500Y-59726000D02*
X58874500Y-59726000D01*
G75*
G02*
X58749000Y-59600500I0J125500D01*
G01*
X58749000Y-58949500D01*
G75*
G02*
X58874500Y-58824000I125500J0D01*
G01*
X59125500Y-58824000D01*
G75*
G02*
X59251000Y-58949500I0J-125500D01*
G01*
X59251000Y-59600500D01*
G75*
G02*
X59125500Y-59726000I-125500J0D01*
G01*
G37*
G36*
G01*
X59125500Y-55976000D02*
X58874500Y-55976000D01*
G75*
G02*
X58749000Y-55850500I0J125500D01*
G01*
X58749000Y-55199500D01*
G75*
G02*
X58874500Y-55074000I125500J0D01*
G01*
X59125500Y-55074000D01*
G75*
G02*
X59251000Y-55199500I0J-125500D01*
G01*
X59251000Y-55850500D01*
G75*
G02*
X59125500Y-55976000I-125500J0D01*
G01*
G37*
%TD*%
%TO.C,RN3*%
G36*
G01*
X63039596Y-58751000D02*
X62560404Y-58751000D01*
G75*
G02*
X62499000Y-58689596I0J61404D01*
G01*
X62499000Y-57910404D01*
G75*
G02*
X62560404Y-57849000I61404J0D01*
G01*
X63039596Y-57849000D01*
G75*
G02*
X63101000Y-57910404I0J-61404D01*
G01*
X63101000Y-58689596D01*
G75*
G02*
X63039596Y-58751000I-61404J0D01*
G01*
G37*
G36*
G01*
X63786995Y-58751000D02*
X63413005Y-58751000D01*
G75*
G02*
X63349000Y-58686995I0J64005D01*
G01*
X63349000Y-57913005D01*
G75*
G02*
X63413005Y-57849000I64005J0D01*
G01*
X63786995Y-57849000D01*
G75*
G02*
X63851000Y-57913005I0J-64005D01*
G01*
X63851000Y-58686995D01*
G75*
G02*
X63786995Y-58751000I-64005J0D01*
G01*
G37*
G36*
G01*
X64586995Y-58751000D02*
X64213005Y-58751000D01*
G75*
G02*
X64149000Y-58686995I0J64005D01*
G01*
X64149000Y-57913005D01*
G75*
G02*
X64213005Y-57849000I64005J0D01*
G01*
X64586995Y-57849000D01*
G75*
G02*
X64651000Y-57913005I0J-64005D01*
G01*
X64651000Y-58686995D01*
G75*
G02*
X64586995Y-58751000I-64005J0D01*
G01*
G37*
G36*
G01*
X65439596Y-58751000D02*
X64960404Y-58751000D01*
G75*
G02*
X64899000Y-58689596I0J61404D01*
G01*
X64899000Y-57910404D01*
G75*
G02*
X64960404Y-57849000I61404J0D01*
G01*
X65439596Y-57849000D01*
G75*
G02*
X65501000Y-57910404I0J-61404D01*
G01*
X65501000Y-58689596D01*
G75*
G02*
X65439596Y-58751000I-61404J0D01*
G01*
G37*
G36*
G01*
X65439596Y-56951000D02*
X64960404Y-56951000D01*
G75*
G02*
X64899000Y-56889596I0J61404D01*
G01*
X64899000Y-56110404D01*
G75*
G02*
X64960404Y-56049000I61404J0D01*
G01*
X65439596Y-56049000D01*
G75*
G02*
X65501000Y-56110404I0J-61404D01*
G01*
X65501000Y-56889596D01*
G75*
G02*
X65439596Y-56951000I-61404J0D01*
G01*
G37*
G36*
G01*
X64586995Y-56951000D02*
X64213005Y-56951000D01*
G75*
G02*
X64149000Y-56886995I0J64005D01*
G01*
X64149000Y-56113005D01*
G75*
G02*
X64213005Y-56049000I64005J0D01*
G01*
X64586995Y-56049000D01*
G75*
G02*
X64651000Y-56113005I0J-64005D01*
G01*
X64651000Y-56886995D01*
G75*
G02*
X64586995Y-56951000I-64005J0D01*
G01*
G37*
G36*
G01*
X63786995Y-56951000D02*
X63413005Y-56951000D01*
G75*
G02*
X63349000Y-56886995I0J64005D01*
G01*
X63349000Y-56113005D01*
G75*
G02*
X63413005Y-56049000I64005J0D01*
G01*
X63786995Y-56049000D01*
G75*
G02*
X63851000Y-56113005I0J-64005D01*
G01*
X63851000Y-56886995D01*
G75*
G02*
X63786995Y-56951000I-64005J0D01*
G01*
G37*
G36*
G01*
X63039596Y-56951000D02*
X62560404Y-56951000D01*
G75*
G02*
X62499000Y-56889596I0J61404D01*
G01*
X62499000Y-56110404D01*
G75*
G02*
X62560404Y-56049000I61404J0D01*
G01*
X63039596Y-56049000D01*
G75*
G02*
X63101000Y-56110404I0J-61404D01*
G01*
X63101000Y-56889596D01*
G75*
G02*
X63039596Y-56951000I-61404J0D01*
G01*
G37*
%TD*%
%TO.C,SW4*%
G36*
G01*
X22874500Y-55074000D02*
X23125500Y-55074000D01*
G75*
G02*
X23251000Y-55199500I0J-125500D01*
G01*
X23251000Y-55850500D01*
G75*
G02*
X23125500Y-55976000I-125500J0D01*
G01*
X22874500Y-55976000D01*
G75*
G02*
X22749000Y-55850500I0J125500D01*
G01*
X22749000Y-55199500D01*
G75*
G02*
X22874500Y-55074000I125500J0D01*
G01*
G37*
G36*
G01*
X22874500Y-58824000D02*
X23125500Y-58824000D01*
G75*
G02*
X23251000Y-58949500I0J-125500D01*
G01*
X23251000Y-59600500D01*
G75*
G02*
X23125500Y-59726000I-125500J0D01*
G01*
X22874500Y-59726000D01*
G75*
G02*
X22749000Y-59600500I0J125500D01*
G01*
X22749000Y-58949500D01*
G75*
G02*
X22874500Y-58824000I125500J0D01*
G01*
G37*
G36*
G01*
X24874500Y-58824000D02*
X25125500Y-58824000D01*
G75*
G02*
X25251000Y-58949500I0J-125500D01*
G01*
X25251000Y-59600500D01*
G75*
G02*
X25125500Y-59726000I-125500J0D01*
G01*
X24874500Y-59726000D01*
G75*
G02*
X24749000Y-59600500I0J125500D01*
G01*
X24749000Y-58949500D01*
G75*
G02*
X24874500Y-58824000I125500J0D01*
G01*
G37*
G36*
G01*
X24874500Y-55074000D02*
X25125500Y-55074000D01*
G75*
G02*
X25251000Y-55199500I0J-125500D01*
G01*
X25251000Y-55850500D01*
G75*
G02*
X25125500Y-55976000I-125500J0D01*
G01*
X24874500Y-55976000D01*
G75*
G02*
X24749000Y-55850500I0J125500D01*
G01*
X24749000Y-55199500D01*
G75*
G02*
X24874500Y-55074000I125500J0D01*
G01*
G37*
%TD*%
G36*
X64900319Y-57910806D02*
G01*
X64901000Y-57912310D01*
X64901000Y-58687690D01*
X64900000Y-58689422D01*
X64898000Y-58689422D01*
X64897038Y-58688080D01*
X64895686Y-58681285D01*
X64867422Y-58623970D01*
X64814515Y-58588618D01*
X64751018Y-58584456D01*
X64694011Y-58612569D01*
X64654301Y-58681349D01*
X64652962Y-58688080D01*
X64651643Y-58689584D01*
X64649681Y-58689194D01*
X64649000Y-58687690D01*
X64649000Y-57912310D01*
X64650000Y-57910578D01*
X64652000Y-57910578D01*
X64652962Y-57911920D01*
X64654314Y-57918715D01*
X64682578Y-57976030D01*
X64735485Y-58011382D01*
X64798982Y-58015544D01*
X64855989Y-57987431D01*
X64895699Y-57918651D01*
X64897038Y-57911920D01*
X64898357Y-57910416D01*
X64900319Y-57910806D01*
G37*
G36*
X19350319Y-57910806D02*
G01*
X19351000Y-57912310D01*
X19351000Y-58687690D01*
X19350000Y-58689422D01*
X19348000Y-58689422D01*
X19347038Y-58688080D01*
X19345686Y-58681285D01*
X19317422Y-58623970D01*
X19264515Y-58588618D01*
X19201018Y-58584456D01*
X19144011Y-58612569D01*
X19104301Y-58681349D01*
X19102962Y-58688080D01*
X19101643Y-58689584D01*
X19099681Y-58689194D01*
X19099000Y-58687690D01*
X19099000Y-57912310D01*
X19100000Y-57910578D01*
X19102000Y-57910578D01*
X19102962Y-57911920D01*
X19104314Y-57918715D01*
X19132578Y-57976030D01*
X19185485Y-58011382D01*
X19248982Y-58015544D01*
X19305989Y-57987431D01*
X19345699Y-57918651D01*
X19347038Y-57911920D01*
X19348357Y-57910416D01*
X19350319Y-57910806D01*
G37*
G36*
X63350319Y-57910806D02*
G01*
X63351000Y-57912310D01*
X63351000Y-58687690D01*
X63350000Y-58689422D01*
X63348000Y-58689422D01*
X63347038Y-58688080D01*
X63345686Y-58681285D01*
X63317422Y-58623970D01*
X63264515Y-58588618D01*
X63201018Y-58584456D01*
X63144011Y-58612569D01*
X63104301Y-58681349D01*
X63102962Y-58688080D01*
X63101643Y-58689584D01*
X63099681Y-58689194D01*
X63099000Y-58687690D01*
X63099000Y-57912310D01*
X63100000Y-57910578D01*
X63102000Y-57910578D01*
X63102962Y-57911920D01*
X63104314Y-57918715D01*
X63132578Y-57976030D01*
X63185485Y-58011382D01*
X63248982Y-58015544D01*
X63305989Y-57987431D01*
X63345699Y-57918651D01*
X63347038Y-57911920D01*
X63348357Y-57910416D01*
X63350319Y-57910806D01*
G37*
G36*
X20900319Y-57910806D02*
G01*
X20901000Y-57912310D01*
X20901000Y-58687690D01*
X20900000Y-58689422D01*
X20898000Y-58689422D01*
X20897038Y-58688080D01*
X20895686Y-58681285D01*
X20867422Y-58623970D01*
X20814515Y-58588618D01*
X20751018Y-58584456D01*
X20694011Y-58612569D01*
X20654301Y-58681349D01*
X20652962Y-58688080D01*
X20651643Y-58689584D01*
X20649681Y-58689194D01*
X20649000Y-58687690D01*
X20649000Y-57912310D01*
X20650000Y-57910578D01*
X20652000Y-57910578D01*
X20652962Y-57911920D01*
X20654314Y-57918715D01*
X20682578Y-57976030D01*
X20735485Y-58011382D01*
X20798982Y-58015544D01*
X20855989Y-57987431D01*
X20895699Y-57918651D01*
X20897038Y-57911920D01*
X20898357Y-57910416D01*
X20900319Y-57910806D01*
G37*
G36*
X64900319Y-56110806D02*
G01*
X64901000Y-56112310D01*
X64901000Y-56887690D01*
X64900000Y-56889422D01*
X64898000Y-56889422D01*
X64897038Y-56888080D01*
X64895686Y-56881285D01*
X64867422Y-56823970D01*
X64814515Y-56788618D01*
X64751018Y-56784456D01*
X64694011Y-56812569D01*
X64654301Y-56881349D01*
X64652962Y-56888080D01*
X64651643Y-56889584D01*
X64649681Y-56889194D01*
X64649000Y-56887690D01*
X64649000Y-56112310D01*
X64650000Y-56110578D01*
X64652000Y-56110578D01*
X64652962Y-56111920D01*
X64654314Y-56118715D01*
X64682578Y-56176030D01*
X64735485Y-56211382D01*
X64798982Y-56215544D01*
X64855989Y-56187431D01*
X64895699Y-56118651D01*
X64897038Y-56111920D01*
X64898357Y-56110416D01*
X64900319Y-56110806D01*
G37*
G36*
X63350319Y-56110806D02*
G01*
X63351000Y-56112310D01*
X63351000Y-56887690D01*
X63350000Y-56889422D01*
X63348000Y-56889422D01*
X63347038Y-56888080D01*
X63345686Y-56881285D01*
X63317422Y-56823970D01*
X63264515Y-56788618D01*
X63201018Y-56784456D01*
X63144011Y-56812569D01*
X63104301Y-56881349D01*
X63102962Y-56888080D01*
X63101643Y-56889584D01*
X63099681Y-56889194D01*
X63099000Y-56887690D01*
X63099000Y-56112310D01*
X63100000Y-56110578D01*
X63102000Y-56110578D01*
X63102962Y-56111920D01*
X63104314Y-56118715D01*
X63132578Y-56176030D01*
X63185485Y-56211382D01*
X63248982Y-56215544D01*
X63305989Y-56187431D01*
X63345699Y-56118651D01*
X63347038Y-56111920D01*
X63348357Y-56110416D01*
X63350319Y-56110806D01*
G37*
G36*
X20900319Y-56110806D02*
G01*
X20901000Y-56112310D01*
X20901000Y-56887690D01*
X20900000Y-56889422D01*
X20898000Y-56889422D01*
X20897038Y-56888080D01*
X20895686Y-56881285D01*
X20867422Y-56823970D01*
X20814515Y-56788618D01*
X20751018Y-56784456D01*
X20694011Y-56812569D01*
X20654301Y-56881349D01*
X20652962Y-56888080D01*
X20651643Y-56889584D01*
X20649681Y-56889194D01*
X20649000Y-56887690D01*
X20649000Y-56112310D01*
X20650000Y-56110578D01*
X20652000Y-56110578D01*
X20652962Y-56111920D01*
X20654314Y-56118715D01*
X20682578Y-56176030D01*
X20735485Y-56211382D01*
X20798982Y-56215544D01*
X20855989Y-56187431D01*
X20895699Y-56118651D01*
X20897038Y-56111920D01*
X20898357Y-56110416D01*
X20900319Y-56110806D01*
G37*
G36*
X19350319Y-56110806D02*
G01*
X19351000Y-56112310D01*
X19351000Y-56887690D01*
X19350000Y-56889422D01*
X19348000Y-56889422D01*
X19347038Y-56888080D01*
X19345686Y-56881285D01*
X19317422Y-56823970D01*
X19264515Y-56788618D01*
X19201018Y-56784456D01*
X19144011Y-56812569D01*
X19104301Y-56881349D01*
X19102962Y-56888080D01*
X19101643Y-56889584D01*
X19099681Y-56889194D01*
X19099000Y-56887690D01*
X19099000Y-56112310D01*
X19100000Y-56110578D01*
X19102000Y-56110578D01*
X19102962Y-56111920D01*
X19104314Y-56118715D01*
X19132578Y-56176030D01*
X19185485Y-56211382D01*
X19248982Y-56215544D01*
X19305989Y-56187431D01*
X19345699Y-56118651D01*
X19347038Y-56111920D01*
X19348357Y-56110416D01*
X19350319Y-56110806D01*
G37*
G36*
X20337246Y-38572307D02*
G01*
X20362680Y-38597741D01*
X20363357Y-38597560D01*
X20364325Y-38598154D01*
X20389298Y-38625889D01*
X20449817Y-38645553D01*
X20512004Y-38632335D01*
X20547254Y-38597085D01*
X20549186Y-38596567D01*
X20550082Y-38597085D01*
X20550279Y-38597282D01*
X20575254Y-38572307D01*
X20577186Y-38571789D01*
X20578600Y-38573203D01*
X20578331Y-38574832D01*
X20533918Y-38641300D01*
X20513500Y-38743949D01*
X20513500Y-39256051D01*
X20533918Y-39358700D01*
X20578331Y-39425168D01*
X20578462Y-39427164D01*
X20576799Y-39428275D01*
X20575254Y-39427693D01*
X20549820Y-39402259D01*
X20549143Y-39402440D01*
X20548175Y-39401846D01*
X20523202Y-39374111D01*
X20462683Y-39354447D01*
X20400496Y-39367665D01*
X20365246Y-39402915D01*
X20363314Y-39403433D01*
X20362418Y-39402915D01*
X20362221Y-39402718D01*
X20337246Y-39427693D01*
X20335314Y-39428211D01*
X20333900Y-39426797D01*
X20334169Y-39425168D01*
X20378582Y-39358700D01*
X20399000Y-39256051D01*
X20399000Y-38743949D01*
X20378582Y-38641300D01*
X20334169Y-38574832D01*
X20334038Y-38572836D01*
X20335701Y-38571725D01*
X20337246Y-38572307D01*
G37*
G36*
X21424746Y-38572307D02*
G01*
X21437136Y-38584697D01*
X21437504Y-38585203D01*
X21440288Y-38590667D01*
X21483048Y-38638155D01*
X21543568Y-38657819D01*
X21605754Y-38644601D01*
X21659736Y-38590619D01*
X21662496Y-38585203D01*
X21662864Y-38584697D01*
X21675254Y-38572307D01*
X21677186Y-38571789D01*
X21678600Y-38573203D01*
X21678331Y-38574832D01*
X21633918Y-38641300D01*
X21613500Y-38743949D01*
X21613500Y-39256051D01*
X21633918Y-39358700D01*
X21678331Y-39425168D01*
X21678462Y-39427164D01*
X21676799Y-39428275D01*
X21675254Y-39427693D01*
X21662864Y-39415303D01*
X21662496Y-39414797D01*
X21659712Y-39409333D01*
X21616952Y-39361845D01*
X21556432Y-39342181D01*
X21494246Y-39355399D01*
X21440264Y-39409381D01*
X21437504Y-39414797D01*
X21437136Y-39415303D01*
X21424746Y-39427693D01*
X21422814Y-39428211D01*
X21421400Y-39426797D01*
X21421669Y-39425168D01*
X21466082Y-39358700D01*
X21486500Y-39256051D01*
X21486500Y-38743949D01*
X21466082Y-38641300D01*
X21421669Y-38574832D01*
X21421538Y-38572836D01*
X21423201Y-38571725D01*
X21424746Y-38572307D01*
G37*
G36*
X18814796Y-35163356D02*
G01*
X18815045Y-35165881D01*
X18804767Y-35181262D01*
X18801000Y-35200199D01*
X18801000Y-37799801D01*
X18804767Y-37818738D01*
X18814670Y-37833558D01*
X18814801Y-37835554D01*
X18812364Y-37836563D01*
X18758108Y-37818145D01*
X18687136Y-37837162D01*
X18685204Y-37836644D01*
X18684955Y-37834119D01*
X18695233Y-37818738D01*
X18699000Y-37799801D01*
X18699000Y-35200199D01*
X18695233Y-35181262D01*
X18685330Y-35166442D01*
X18685199Y-35164446D01*
X18687636Y-35163437D01*
X18741892Y-35181855D01*
X18812864Y-35162838D01*
X18814796Y-35163356D01*
G37*
G36*
X23814796Y-35163356D02*
G01*
X23815045Y-35165881D01*
X23804767Y-35181262D01*
X23801000Y-35200199D01*
X23801000Y-37799801D01*
X23804767Y-37818738D01*
X23814670Y-37833558D01*
X23814801Y-37835554D01*
X23812364Y-37836563D01*
X23758108Y-37818145D01*
X23687136Y-37837162D01*
X23685204Y-37836644D01*
X23684955Y-37834119D01*
X23695233Y-37818738D01*
X23699000Y-37799801D01*
X23699000Y-35200199D01*
X23695233Y-35181262D01*
X23685330Y-35166442D01*
X23685199Y-35164446D01*
X23687636Y-35163437D01*
X23741892Y-35181855D01*
X23812864Y-35162838D01*
X23814796Y-35163356D01*
G37*
G36*
X18314796Y-35163356D02*
G01*
X18315045Y-35165881D01*
X18304767Y-35181262D01*
X18301000Y-35200199D01*
X18301000Y-37799801D01*
X18304767Y-37818738D01*
X18314670Y-37833558D01*
X18314801Y-37835554D01*
X18312364Y-37836563D01*
X18258108Y-37818145D01*
X18187136Y-37837162D01*
X18185204Y-37836644D01*
X18184955Y-37834119D01*
X18195233Y-37818738D01*
X18199000Y-37799801D01*
X18199000Y-35200199D01*
X18195233Y-35181262D01*
X18185330Y-35166442D01*
X18185199Y-35164446D01*
X18187636Y-35163437D01*
X18241892Y-35181855D01*
X18312864Y-35162838D01*
X18314796Y-35163356D01*
G37*
G36*
X19314796Y-35163356D02*
G01*
X19315045Y-35165881D01*
X19304767Y-35181262D01*
X19301000Y-35200199D01*
X19301000Y-37799801D01*
X19304767Y-37818738D01*
X19314670Y-37833558D01*
X19314801Y-37835554D01*
X19312364Y-37836563D01*
X19258108Y-37818145D01*
X19187136Y-37837162D01*
X19185204Y-37836644D01*
X19184955Y-37834119D01*
X19195233Y-37818738D01*
X19199000Y-37799801D01*
X19199000Y-35200199D01*
X19195233Y-35181262D01*
X19185330Y-35166442D01*
X19185199Y-35164446D01*
X19187636Y-35163437D01*
X19241892Y-35181855D01*
X19312864Y-35162838D01*
X19314796Y-35163356D01*
G37*
G36*
X24314796Y-35163356D02*
G01*
X24315045Y-35165881D01*
X24304767Y-35181262D01*
X24301000Y-35200199D01*
X24301000Y-37799801D01*
X24304767Y-37818738D01*
X24314670Y-37833558D01*
X24314801Y-37835554D01*
X24312364Y-37836563D01*
X24258108Y-37818145D01*
X24187136Y-37837162D01*
X24185204Y-37836644D01*
X24184955Y-37834119D01*
X24195233Y-37818738D01*
X24199000Y-37799801D01*
X24199000Y-35200199D01*
X24195233Y-35181262D01*
X24185330Y-35166442D01*
X24185199Y-35164446D01*
X24187636Y-35163437D01*
X24241892Y-35181855D01*
X24312864Y-35162838D01*
X24314796Y-35163356D01*
G37*
G36*
X17814796Y-35163356D02*
G01*
X17815045Y-35165881D01*
X17804767Y-35181262D01*
X17801000Y-35200199D01*
X17801000Y-37799801D01*
X17804767Y-37818738D01*
X17814670Y-37833558D01*
X17814801Y-37835554D01*
X17812364Y-37836563D01*
X17758108Y-37818145D01*
X17687136Y-37837162D01*
X17685204Y-37836644D01*
X17684955Y-37834119D01*
X17695233Y-37818738D01*
X17699000Y-37799801D01*
X17699000Y-35200199D01*
X17695233Y-35181262D01*
X17685330Y-35166442D01*
X17685199Y-35164446D01*
X17687636Y-35163437D01*
X17741892Y-35181855D01*
X17812864Y-35162838D01*
X17814796Y-35163356D01*
G37*
G36*
X22814796Y-35163356D02*
G01*
X22815045Y-35165881D01*
X22804767Y-35181262D01*
X22801000Y-35200199D01*
X22801000Y-37799801D01*
X22804767Y-37818738D01*
X22814670Y-37833558D01*
X22814801Y-37835554D01*
X22812364Y-37836563D01*
X22758108Y-37818145D01*
X22687136Y-37837162D01*
X22685204Y-37836644D01*
X22684955Y-37834119D01*
X22695233Y-37818738D01*
X22699000Y-37799801D01*
X22699000Y-35200199D01*
X22695233Y-35181262D01*
X22685330Y-35166442D01*
X22685199Y-35164446D01*
X22687636Y-35163437D01*
X22741892Y-35181855D01*
X22812864Y-35162838D01*
X22814796Y-35163356D01*
G37*
G36*
X24814796Y-35163356D02*
G01*
X24815045Y-35165881D01*
X24804767Y-35181262D01*
X24801000Y-35200199D01*
X24801000Y-37799801D01*
X24804767Y-37818738D01*
X24814670Y-37833558D01*
X24814801Y-37835554D01*
X24812364Y-37836563D01*
X24758108Y-37818145D01*
X24687136Y-37837162D01*
X24685204Y-37836644D01*
X24684955Y-37834119D01*
X24695233Y-37818738D01*
X24699000Y-37799801D01*
X24699000Y-35200199D01*
X24695233Y-35181262D01*
X24685330Y-35166442D01*
X24685199Y-35164446D01*
X24687636Y-35163437D01*
X24741892Y-35181855D01*
X24812864Y-35162838D01*
X24814796Y-35163356D01*
G37*
G36*
X20314796Y-35163356D02*
G01*
X20315045Y-35165881D01*
X20304767Y-35181262D01*
X20301000Y-35200199D01*
X20301000Y-37799801D01*
X20304767Y-37818738D01*
X20314670Y-37833558D01*
X20314801Y-37835554D01*
X20312364Y-37836563D01*
X20258108Y-37818145D01*
X20187136Y-37837162D01*
X20185204Y-37836644D01*
X20184955Y-37834119D01*
X20195233Y-37818738D01*
X20199000Y-37799801D01*
X20199000Y-35200199D01*
X20195233Y-35181262D01*
X20185330Y-35166442D01*
X20185199Y-35164446D01*
X20187636Y-35163437D01*
X20241892Y-35181855D01*
X20312864Y-35162838D01*
X20314796Y-35163356D01*
G37*
G36*
X21814796Y-35163356D02*
G01*
X21815045Y-35165881D01*
X21804767Y-35181262D01*
X21801000Y-35200199D01*
X21801000Y-37799801D01*
X21804767Y-37818738D01*
X21814670Y-37833558D01*
X21814801Y-37835554D01*
X21812364Y-37836563D01*
X21758108Y-37818145D01*
X21687136Y-37837162D01*
X21685204Y-37836644D01*
X21684955Y-37834119D01*
X21695233Y-37818738D01*
X21699000Y-37799801D01*
X21699000Y-35200199D01*
X21695233Y-35181262D01*
X21685330Y-35166442D01*
X21685199Y-35164446D01*
X21687636Y-35163437D01*
X21741892Y-35181855D01*
X21812864Y-35162838D01*
X21814796Y-35163356D01*
G37*
G36*
X22314796Y-35163356D02*
G01*
X22315045Y-35165881D01*
X22304767Y-35181262D01*
X22301000Y-35200199D01*
X22301000Y-37799801D01*
X22304767Y-37818738D01*
X22314670Y-37833558D01*
X22314801Y-37835554D01*
X22312364Y-37836563D01*
X22258108Y-37818145D01*
X22187136Y-37837162D01*
X22185204Y-37836644D01*
X22184955Y-37834119D01*
X22195233Y-37818738D01*
X22199000Y-37799801D01*
X22199000Y-35200199D01*
X22195233Y-35181262D01*
X22185330Y-35166442D01*
X22185199Y-35164446D01*
X22187636Y-35163437D01*
X22241892Y-35181855D01*
X22312864Y-35162838D01*
X22314796Y-35163356D01*
G37*
G36*
X20814796Y-35163356D02*
G01*
X20815045Y-35165881D01*
X20804767Y-35181262D01*
X20801000Y-35200199D01*
X20801000Y-37799801D01*
X20804767Y-37818738D01*
X20814670Y-37833558D01*
X20814801Y-37835554D01*
X20812364Y-37836563D01*
X20758108Y-37818145D01*
X20687136Y-37837162D01*
X20685204Y-37836644D01*
X20684955Y-37834119D01*
X20695233Y-37818738D01*
X20699000Y-37799801D01*
X20699000Y-35200199D01*
X20695233Y-35181262D01*
X20685330Y-35166442D01*
X20685199Y-35164446D01*
X20687636Y-35163437D01*
X20741892Y-35181855D01*
X20812864Y-35162838D01*
X20814796Y-35163356D01*
G37*
G36*
X21314796Y-35163356D02*
G01*
X21315045Y-35165881D01*
X21304767Y-35181262D01*
X21301000Y-35200199D01*
X21301000Y-37799801D01*
X21304767Y-37818738D01*
X21314670Y-37833558D01*
X21314801Y-37835554D01*
X21312364Y-37836563D01*
X21258108Y-37818145D01*
X21187136Y-37837162D01*
X21185204Y-37836644D01*
X21184955Y-37834119D01*
X21195233Y-37818738D01*
X21199000Y-37799801D01*
X21199000Y-35200199D01*
X21195233Y-35181262D01*
X21185330Y-35166442D01*
X21185199Y-35164446D01*
X21187636Y-35163437D01*
X21241892Y-35181855D01*
X21312864Y-35162838D01*
X21314796Y-35163356D01*
G37*
G36*
X19814796Y-35163356D02*
G01*
X19815045Y-35165881D01*
X19804767Y-35181262D01*
X19801000Y-35200199D01*
X19801000Y-37799801D01*
X19804767Y-37818738D01*
X19814670Y-37833558D01*
X19814801Y-37835554D01*
X19812364Y-37836563D01*
X19758108Y-37818145D01*
X19687136Y-37837162D01*
X19685204Y-37836644D01*
X19684955Y-37834119D01*
X19695233Y-37818738D01*
X19699000Y-37799801D01*
X19699000Y-35200199D01*
X19695233Y-35181262D01*
X19685330Y-35166442D01*
X19685199Y-35164446D01*
X19687636Y-35163437D01*
X19741892Y-35181855D01*
X19812864Y-35162838D01*
X19814796Y-35163356D01*
G37*
G36*
X23314796Y-35163356D02*
G01*
X23315045Y-35165881D01*
X23304767Y-35181262D01*
X23301000Y-35200199D01*
X23301000Y-37799801D01*
X23304767Y-37818738D01*
X23314670Y-37833558D01*
X23314801Y-37835554D01*
X23312364Y-37836563D01*
X23258108Y-37818145D01*
X23187136Y-37837162D01*
X23185204Y-37836644D01*
X23184955Y-37834119D01*
X23195233Y-37818738D01*
X23199000Y-37799801D01*
X23199000Y-35200199D01*
X23195233Y-35181262D01*
X23185330Y-35166442D01*
X23185199Y-35164446D01*
X23187636Y-35163437D01*
X23241892Y-35181855D01*
X23312864Y-35162838D01*
X23314796Y-35163356D01*
G37*
G36*
X25314796Y-35163356D02*
G01*
X25315045Y-35165881D01*
X25304767Y-35181262D01*
X25301000Y-35200199D01*
X25301000Y-37799801D01*
X25304767Y-37818738D01*
X25314670Y-37833558D01*
X25314801Y-37835554D01*
X25312364Y-37836563D01*
X25258108Y-37818145D01*
X25187136Y-37837162D01*
X25185204Y-37836644D01*
X25184955Y-37834119D01*
X25195233Y-37818738D01*
X25199000Y-37799801D01*
X25199000Y-35200199D01*
X25195233Y-35181262D01*
X25185330Y-35166442D01*
X25185199Y-35164446D01*
X25187636Y-35163437D01*
X25241892Y-35181855D01*
X25312864Y-35162838D01*
X25314796Y-35163356D01*
G37*
G36*
X16814796Y-35163356D02*
G01*
X16815045Y-35165881D01*
X16804767Y-35181262D01*
X16801000Y-35200199D01*
X16801000Y-37799801D01*
X16804767Y-37818738D01*
X16814670Y-37833558D01*
X16814801Y-37835554D01*
X16812364Y-37836563D01*
X16758108Y-37818145D01*
X16687136Y-37837162D01*
X16685204Y-37836644D01*
X16684955Y-37834119D01*
X16695233Y-37818738D01*
X16699000Y-37799801D01*
X16699000Y-35200199D01*
X16695233Y-35181262D01*
X16685330Y-35166442D01*
X16685199Y-35164446D01*
X16687636Y-35163437D01*
X16741892Y-35181855D01*
X16812864Y-35162838D01*
X16814796Y-35163356D01*
G37*
G36*
X17314796Y-35163356D02*
G01*
X17315045Y-35165881D01*
X17304767Y-35181262D01*
X17301000Y-35200199D01*
X17301000Y-37799801D01*
X17304767Y-37818738D01*
X17314670Y-37833558D01*
X17314801Y-37835554D01*
X17312364Y-37836563D01*
X17258108Y-37818145D01*
X17187136Y-37837162D01*
X17185204Y-37836644D01*
X17184955Y-37834119D01*
X17195233Y-37818738D01*
X17199000Y-37799801D01*
X17199000Y-35200199D01*
X17195233Y-35181262D01*
X17185330Y-35166442D01*
X17185199Y-35164446D01*
X17187636Y-35163437D01*
X17241892Y-35181855D01*
X17312864Y-35162838D01*
X17314796Y-35163356D01*
G37*
M02*
