%TF.GenerationSoftware,KiCad,Pcbnew,(5.99.0-3349-gc9824bbd9)*%
%TF.CreationDate,2020-09-22T14:29:42-07:00*%
%TF.ProjectId,Alchitry_IO_Shield,416c6368-6974-4727-995f-494f5f536869,rev?*%
%TF.SameCoordinates,Original*%
%TF.FileFunction,Soldermask,Top*%
%TF.FilePolarity,Negative*%
%FSLAX46Y46*%
G04 Gerber Fmt 4.6, Leading zero omitted, Abs format (unit mm)*
G04 Created by KiCad (PCBNEW (5.99.0-3349-gc9824bbd9)) date 2020-09-22 14:29:42*
%MOMM*%
%LPD*%
G01*
G04 APERTURE LIST*
%ADD10C,0.254000*%
%ADD11C,0.652000*%
%ADD12C,2.302000*%
%ADD13O,1.302000X2.502000*%
%ADD14O,1.302000X3.102000*%
G04 APERTURE END LIST*
D10*
%TO.C,U1*%
X76000000Y-30450001D02*
G75*
G03*
X76000000Y-30450001I-1500000J0D01*
G01*
X76000000Y-70450001D02*
G75*
G03*
X76000000Y-70450001I-1500000J0D01*
G01*
X16000000Y-70450001D02*
G75*
G03*
X16000000Y-70450001I-1500000J0D01*
G01*
X76000000Y-30450001D02*
G75*
G03*
X76000000Y-30450001I-1500000J0D01*
G01*
X76000000Y-70450001D02*
G75*
G03*
X76000000Y-70450001I-1500000J0D01*
G01*
X16000000Y-70450001D02*
G75*
G03*
X16000000Y-70450001I-1500000J0D01*
G01*
%TD*%
%TO.C,U5*%
G36*
G01*
X22300000Y-45920000D02*
X22300000Y-45380000D01*
G75*
G02*
X22400000Y-45280000I100000J0D01*
G01*
X22600000Y-45280000D01*
G75*
G02*
X22700000Y-45380000I0J-100000D01*
G01*
X22700000Y-45920000D01*
G75*
G02*
X22600000Y-46020000I-100000J0D01*
G01*
X22400000Y-46020000D01*
G75*
G02*
X22300000Y-45920000I0J100000D01*
G01*
G37*
G36*
G01*
X23255000Y-50420000D02*
X23255000Y-49880000D01*
G75*
G02*
X23355000Y-49780000I100000J0D01*
G01*
X23555000Y-49780000D01*
G75*
G02*
X23655000Y-49880000I0J-100000D01*
G01*
X23655000Y-50420000D01*
G75*
G02*
X23555000Y-50520000I-100000J0D01*
G01*
X23355000Y-50520000D01*
G75*
G02*
X23255000Y-50420000I0J100000D01*
G01*
G37*
G36*
G01*
X22055000Y-47585000D02*
X21515000Y-47585000D01*
G75*
G02*
X21415000Y-47485000I0J100000D01*
G01*
X21415000Y-47285000D01*
G75*
G02*
X21515000Y-47185000I100000J0D01*
G01*
X22055000Y-47185000D01*
G75*
G02*
X22155000Y-47285000I0J-100000D01*
G01*
X22155000Y-47485000D01*
G75*
G02*
X22055000Y-47585000I-100000J0D01*
G01*
G37*
G36*
G01*
X22300000Y-48170000D02*
X22300000Y-47630000D01*
G75*
G02*
X22400000Y-47530000I100000J0D01*
G01*
X22600000Y-47530000D01*
G75*
G02*
X22700000Y-47630000I0J-100000D01*
G01*
X22700000Y-48170000D01*
G75*
G02*
X22600000Y-48270000I-100000J0D01*
G01*
X22400000Y-48270000D01*
G75*
G02*
X22300000Y-48170000I0J100000D01*
G01*
G37*
G36*
G01*
X24455000Y-46615000D02*
X23915000Y-46615000D01*
G75*
G02*
X23815000Y-46515000I0J100000D01*
G01*
X23815000Y-46315000D01*
G75*
G02*
X23915000Y-46215000I100000J0D01*
G01*
X24455000Y-46215000D01*
G75*
G02*
X24555000Y-46315000I0J-100000D01*
G01*
X24555000Y-46515000D01*
G75*
G02*
X24455000Y-46615000I-100000J0D01*
G01*
G37*
G36*
G01*
X22055000Y-49585000D02*
X21515000Y-49585000D01*
G75*
G02*
X21415000Y-49485000I0J100000D01*
G01*
X21415000Y-49285000D01*
G75*
G02*
X21515000Y-49185000I100000J0D01*
G01*
X22055000Y-49185000D01*
G75*
G02*
X22155000Y-49285000I0J-100000D01*
G01*
X22155000Y-49485000D01*
G75*
G02*
X22055000Y-49585000I-100000J0D01*
G01*
G37*
G36*
G01*
X24435000Y-48615000D02*
X23895000Y-48615000D01*
G75*
G02*
X23795000Y-48515000I0J100000D01*
G01*
X23795000Y-48315000D01*
G75*
G02*
X23895000Y-48215000I100000J0D01*
G01*
X24435000Y-48215000D01*
G75*
G02*
X24535000Y-48315000I0J-100000D01*
G01*
X24535000Y-48515000D01*
G75*
G02*
X24435000Y-48615000I-100000J0D01*
G01*
G37*
G36*
G01*
X24455000Y-47585000D02*
X23915000Y-47585000D01*
G75*
G02*
X23815000Y-47485000I0J100000D01*
G01*
X23815000Y-47285000D01*
G75*
G02*
X23915000Y-47185000I100000J0D01*
G01*
X24455000Y-47185000D01*
G75*
G02*
X24555000Y-47285000I0J-100000D01*
G01*
X24555000Y-47485000D01*
G75*
G02*
X24455000Y-47585000I-100000J0D01*
G01*
G37*
G36*
G01*
X24435000Y-49585000D02*
X23895000Y-49585000D01*
G75*
G02*
X23795000Y-49485000I0J100000D01*
G01*
X23795000Y-49285000D01*
G75*
G02*
X23895000Y-49185000I100000J0D01*
G01*
X24435000Y-49185000D01*
G75*
G02*
X24535000Y-49285000I0J-100000D01*
G01*
X24535000Y-49485000D01*
G75*
G02*
X24435000Y-49585000I-100000J0D01*
G01*
G37*
G36*
G01*
X22285000Y-50420000D02*
X22285000Y-49880000D01*
G75*
G02*
X22385000Y-49780000I100000J0D01*
G01*
X22585000Y-49780000D01*
G75*
G02*
X22685000Y-49880000I0J-100000D01*
G01*
X22685000Y-50420000D01*
G75*
G02*
X22585000Y-50520000I-100000J0D01*
G01*
X22385000Y-50520000D01*
G75*
G02*
X22285000Y-50420000I0J100000D01*
G01*
G37*
G36*
G01*
X22055000Y-48615000D02*
X21515000Y-48615000D01*
G75*
G02*
X21415000Y-48515000I0J100000D01*
G01*
X21415000Y-48315000D01*
G75*
G02*
X21515000Y-48215000I100000J0D01*
G01*
X22055000Y-48215000D01*
G75*
G02*
X22155000Y-48315000I0J-100000D01*
G01*
X22155000Y-48515000D01*
G75*
G02*
X22055000Y-48615000I-100000J0D01*
G01*
G37*
G36*
G01*
X22055000Y-46615000D02*
X21515000Y-46615000D01*
G75*
G02*
X21415000Y-46515000I0J100000D01*
G01*
X21415000Y-46315000D01*
G75*
G02*
X21515000Y-46215000I100000J0D01*
G01*
X22055000Y-46215000D01*
G75*
G02*
X22155000Y-46315000I0J-100000D01*
G01*
X22155000Y-46515000D01*
G75*
G02*
X22055000Y-46615000I-100000J0D01*
G01*
G37*
G36*
G01*
X23270000Y-45920000D02*
X23270000Y-45380000D01*
G75*
G02*
X23370000Y-45280000I100000J0D01*
G01*
X23570000Y-45280000D01*
G75*
G02*
X23670000Y-45380000I0J-100000D01*
G01*
X23670000Y-45920000D01*
G75*
G02*
X23570000Y-46020000I-100000J0D01*
G01*
X23370000Y-46020000D01*
G75*
G02*
X23270000Y-45920000I0J100000D01*
G01*
G37*
G36*
G01*
X23270000Y-48170000D02*
X23270000Y-47630000D01*
G75*
G02*
X23370000Y-47530000I100000J0D01*
G01*
X23570000Y-47530000D01*
G75*
G02*
X23670000Y-47630000I0J-100000D01*
G01*
X23670000Y-48170000D01*
G75*
G02*
X23570000Y-48270000I-100000J0D01*
G01*
X23370000Y-48270000D01*
G75*
G02*
X23270000Y-48170000I0J100000D01*
G01*
G37*
%TD*%
%TO.C,D15*%
G36*
G01*
X32448000Y-48731000D02*
X32052000Y-48731000D01*
G75*
G02*
X31879000Y-48558000I0J173000D01*
G01*
X31879000Y-48212000D01*
G75*
G02*
X32052000Y-48039000I173000J0D01*
G01*
X32448000Y-48039000D01*
G75*
G02*
X32621000Y-48212000I0J-173000D01*
G01*
X32621000Y-48558000D01*
G75*
G02*
X32448000Y-48731000I-173000J0D01*
G01*
G37*
G36*
G01*
X32448000Y-47761000D02*
X32052000Y-47761000D01*
G75*
G02*
X31879000Y-47588000I0J173000D01*
G01*
X31879000Y-47242000D01*
G75*
G02*
X32052000Y-47069000I173000J0D01*
G01*
X32448000Y-47069000D01*
G75*
G02*
X32621000Y-47242000I0J-173000D01*
G01*
X32621000Y-47588000D01*
G75*
G02*
X32448000Y-47761000I-173000J0D01*
G01*
G37*
%TD*%
%TO.C,U6*%
G36*
G01*
X28435000Y-48615000D02*
X27895000Y-48615000D01*
G75*
G02*
X27795000Y-48515000I0J100000D01*
G01*
X27795000Y-48315000D01*
G75*
G02*
X27895000Y-48215000I100000J0D01*
G01*
X28435000Y-48215000D01*
G75*
G02*
X28535000Y-48315000I0J-100000D01*
G01*
X28535000Y-48515000D01*
G75*
G02*
X28435000Y-48615000I-100000J0D01*
G01*
G37*
G36*
G01*
X28455000Y-46615000D02*
X27915000Y-46615000D01*
G75*
G02*
X27815000Y-46515000I0J100000D01*
G01*
X27815000Y-46315000D01*
G75*
G02*
X27915000Y-46215000I100000J0D01*
G01*
X28455000Y-46215000D01*
G75*
G02*
X28555000Y-46315000I0J-100000D01*
G01*
X28555000Y-46515000D01*
G75*
G02*
X28455000Y-46615000I-100000J0D01*
G01*
G37*
G36*
G01*
X26300000Y-45920000D02*
X26300000Y-45380000D01*
G75*
G02*
X26400000Y-45280000I100000J0D01*
G01*
X26600000Y-45280000D01*
G75*
G02*
X26700000Y-45380000I0J-100000D01*
G01*
X26700000Y-45920000D01*
G75*
G02*
X26600000Y-46020000I-100000J0D01*
G01*
X26400000Y-46020000D01*
G75*
G02*
X26300000Y-45920000I0J100000D01*
G01*
G37*
G36*
G01*
X26055000Y-49585000D02*
X25515000Y-49585000D01*
G75*
G02*
X25415000Y-49485000I0J100000D01*
G01*
X25415000Y-49285000D01*
G75*
G02*
X25515000Y-49185000I100000J0D01*
G01*
X26055000Y-49185000D01*
G75*
G02*
X26155000Y-49285000I0J-100000D01*
G01*
X26155000Y-49485000D01*
G75*
G02*
X26055000Y-49585000I-100000J0D01*
G01*
G37*
G36*
G01*
X27255000Y-50420000D02*
X27255000Y-49880000D01*
G75*
G02*
X27355000Y-49780000I100000J0D01*
G01*
X27555000Y-49780000D01*
G75*
G02*
X27655000Y-49880000I0J-100000D01*
G01*
X27655000Y-50420000D01*
G75*
G02*
X27555000Y-50520000I-100000J0D01*
G01*
X27355000Y-50520000D01*
G75*
G02*
X27255000Y-50420000I0J100000D01*
G01*
G37*
G36*
G01*
X26300000Y-48170000D02*
X26300000Y-47630000D01*
G75*
G02*
X26400000Y-47530000I100000J0D01*
G01*
X26600000Y-47530000D01*
G75*
G02*
X26700000Y-47630000I0J-100000D01*
G01*
X26700000Y-48170000D01*
G75*
G02*
X26600000Y-48270000I-100000J0D01*
G01*
X26400000Y-48270000D01*
G75*
G02*
X26300000Y-48170000I0J100000D01*
G01*
G37*
G36*
G01*
X26055000Y-47585000D02*
X25515000Y-47585000D01*
G75*
G02*
X25415000Y-47485000I0J100000D01*
G01*
X25415000Y-47285000D01*
G75*
G02*
X25515000Y-47185000I100000J0D01*
G01*
X26055000Y-47185000D01*
G75*
G02*
X26155000Y-47285000I0J-100000D01*
G01*
X26155000Y-47485000D01*
G75*
G02*
X26055000Y-47585000I-100000J0D01*
G01*
G37*
G36*
G01*
X28455000Y-47585000D02*
X27915000Y-47585000D01*
G75*
G02*
X27815000Y-47485000I0J100000D01*
G01*
X27815000Y-47285000D01*
G75*
G02*
X27915000Y-47185000I100000J0D01*
G01*
X28455000Y-47185000D01*
G75*
G02*
X28555000Y-47285000I0J-100000D01*
G01*
X28555000Y-47485000D01*
G75*
G02*
X28455000Y-47585000I-100000J0D01*
G01*
G37*
G36*
G01*
X28435000Y-49585000D02*
X27895000Y-49585000D01*
G75*
G02*
X27795000Y-49485000I0J100000D01*
G01*
X27795000Y-49285000D01*
G75*
G02*
X27895000Y-49185000I100000J0D01*
G01*
X28435000Y-49185000D01*
G75*
G02*
X28535000Y-49285000I0J-100000D01*
G01*
X28535000Y-49485000D01*
G75*
G02*
X28435000Y-49585000I-100000J0D01*
G01*
G37*
G36*
G01*
X26285000Y-50420000D02*
X26285000Y-49880000D01*
G75*
G02*
X26385000Y-49780000I100000J0D01*
G01*
X26585000Y-49780000D01*
G75*
G02*
X26685000Y-49880000I0J-100000D01*
G01*
X26685000Y-50420000D01*
G75*
G02*
X26585000Y-50520000I-100000J0D01*
G01*
X26385000Y-50520000D01*
G75*
G02*
X26285000Y-50420000I0J100000D01*
G01*
G37*
G36*
G01*
X26055000Y-48615000D02*
X25515000Y-48615000D01*
G75*
G02*
X25415000Y-48515000I0J100000D01*
G01*
X25415000Y-48315000D01*
G75*
G02*
X25515000Y-48215000I100000J0D01*
G01*
X26055000Y-48215000D01*
G75*
G02*
X26155000Y-48315000I0J-100000D01*
G01*
X26155000Y-48515000D01*
G75*
G02*
X26055000Y-48615000I-100000J0D01*
G01*
G37*
G36*
G01*
X26055000Y-46615000D02*
X25515000Y-46615000D01*
G75*
G02*
X25415000Y-46515000I0J100000D01*
G01*
X25415000Y-46315000D01*
G75*
G02*
X25515000Y-46215000I100000J0D01*
G01*
X26055000Y-46215000D01*
G75*
G02*
X26155000Y-46315000I0J-100000D01*
G01*
X26155000Y-46515000D01*
G75*
G02*
X26055000Y-46615000I-100000J0D01*
G01*
G37*
G36*
G01*
X27270000Y-45920000D02*
X27270000Y-45380000D01*
G75*
G02*
X27370000Y-45280000I100000J0D01*
G01*
X27570000Y-45280000D01*
G75*
G02*
X27670000Y-45380000I0J-100000D01*
G01*
X27670000Y-45920000D01*
G75*
G02*
X27570000Y-46020000I-100000J0D01*
G01*
X27370000Y-46020000D01*
G75*
G02*
X27270000Y-45920000I0J100000D01*
G01*
G37*
G36*
G01*
X27270000Y-48170000D02*
X27270000Y-47630000D01*
G75*
G02*
X27370000Y-47530000I100000J0D01*
G01*
X27570000Y-47530000D01*
G75*
G02*
X27670000Y-47630000I0J-100000D01*
G01*
X27670000Y-48170000D01*
G75*
G02*
X27570000Y-48270000I-100000J0D01*
G01*
X27370000Y-48270000D01*
G75*
G02*
X27270000Y-48170000I0J100000D01*
G01*
G37*
%TD*%
%TO.C,Q4*%
G36*
G01*
X65849000Y-42600000D02*
X65849000Y-42200000D01*
G75*
G02*
X65900000Y-42149000I51000J0D01*
G01*
X66600000Y-42149000D01*
G75*
G02*
X66651000Y-42200000I0J-51000D01*
G01*
X66651000Y-42600000D01*
G75*
G02*
X66600000Y-42651000I-51000J0D01*
G01*
X65900000Y-42651000D01*
G75*
G02*
X65849000Y-42600000I0J51000D01*
G01*
G37*
G36*
G01*
X65849000Y-43100000D02*
X65849000Y-42700000D01*
G75*
G02*
X65900000Y-42649000I51000J0D01*
G01*
X66600000Y-42649000D01*
G75*
G02*
X66651000Y-42700000I0J-51000D01*
G01*
X66651000Y-43100000D01*
G75*
G02*
X66600000Y-43151000I-51000J0D01*
G01*
X65900000Y-43151000D01*
G75*
G02*
X65849000Y-43100000I0J51000D01*
G01*
G37*
G36*
G01*
X65849000Y-43600000D02*
X65849000Y-43200000D01*
G75*
G02*
X65900000Y-43149000I51000J0D01*
G01*
X66600000Y-43149000D01*
G75*
G02*
X66651000Y-43200000I0J-51000D01*
G01*
X66651000Y-43600000D01*
G75*
G02*
X66600000Y-43651000I-51000J0D01*
G01*
X65900000Y-43651000D01*
G75*
G02*
X65849000Y-43600000I0J51000D01*
G01*
G37*
G36*
G01*
X67349000Y-43600000D02*
X67349000Y-43200000D01*
G75*
G02*
X67400000Y-43149000I51000J0D01*
G01*
X68100000Y-43149000D01*
G75*
G02*
X68151000Y-43200000I0J-51000D01*
G01*
X68151000Y-43600000D01*
G75*
G02*
X68100000Y-43651000I-51000J0D01*
G01*
X67400000Y-43651000D01*
G75*
G02*
X67349000Y-43600000I0J51000D01*
G01*
G37*
G36*
G01*
X67349000Y-43100000D02*
X67349000Y-42700000D01*
G75*
G02*
X67400000Y-42649000I51000J0D01*
G01*
X68100000Y-42649000D01*
G75*
G02*
X68151000Y-42700000I0J-51000D01*
G01*
X68151000Y-43100000D01*
G75*
G02*
X68100000Y-43151000I-51000J0D01*
G01*
X67400000Y-43151000D01*
G75*
G02*
X67349000Y-43100000I0J51000D01*
G01*
G37*
G36*
G01*
X67349000Y-42600000D02*
X67349000Y-42200000D01*
G75*
G02*
X67400000Y-42149000I51000J0D01*
G01*
X68100000Y-42149000D01*
G75*
G02*
X68151000Y-42200000I0J-51000D01*
G01*
X68151000Y-42600000D01*
G75*
G02*
X68100000Y-42651000I-51000J0D01*
G01*
X67400000Y-42651000D01*
G75*
G02*
X67349000Y-42600000I0J51000D01*
G01*
G37*
%TD*%
%TO.C,D6*%
G36*
G01*
X45948000Y-48731000D02*
X45552000Y-48731000D01*
G75*
G02*
X45379000Y-48558000I0J173000D01*
G01*
X45379000Y-48212000D01*
G75*
G02*
X45552000Y-48039000I173000J0D01*
G01*
X45948000Y-48039000D01*
G75*
G02*
X46121000Y-48212000I0J-173000D01*
G01*
X46121000Y-48558000D01*
G75*
G02*
X45948000Y-48731000I-173000J0D01*
G01*
G37*
G36*
G01*
X45948000Y-47761000D02*
X45552000Y-47761000D01*
G75*
G02*
X45379000Y-47588000I0J173000D01*
G01*
X45379000Y-47242000D01*
G75*
G02*
X45552000Y-47069000I173000J0D01*
G01*
X45948000Y-47069000D01*
G75*
G02*
X46121000Y-47242000I0J-173000D01*
G01*
X46121000Y-47588000D01*
G75*
G02*
X45948000Y-47761000I-173000J0D01*
G01*
G37*
%TD*%
D11*
%TO.C,U1*%
X45450000Y-33700001D03*
X35550000Y-69700001D03*
X57050000Y-67200001D03*
D12*
X74500000Y-30450001D03*
D11*
X45450000Y-31200001D03*
X70950000Y-33700001D03*
X35550000Y-67200001D03*
D12*
X14500000Y-70450001D03*
D11*
X57050000Y-31200001D03*
X70950000Y-67200001D03*
X49450000Y-67200001D03*
X49450000Y-69700001D03*
X31550000Y-31200001D03*
X31550000Y-33700001D03*
X57050000Y-33700001D03*
D12*
X74500000Y-70450001D03*
D11*
X70950000Y-31200001D03*
X70950000Y-69700001D03*
X57050000Y-69700001D03*
%TD*%
%TO.C,D1*%
G36*
G01*
X53448000Y-48731000D02*
X53052000Y-48731000D01*
G75*
G02*
X52879000Y-48558000I0J173000D01*
G01*
X52879000Y-48212000D01*
G75*
G02*
X53052000Y-48039000I173000J0D01*
G01*
X53448000Y-48039000D01*
G75*
G02*
X53621000Y-48212000I0J-173000D01*
G01*
X53621000Y-48558000D01*
G75*
G02*
X53448000Y-48731000I-173000J0D01*
G01*
G37*
G36*
G01*
X53448000Y-47761000D02*
X53052000Y-47761000D01*
G75*
G02*
X52879000Y-47588000I0J173000D01*
G01*
X52879000Y-47242000D01*
G75*
G02*
X53052000Y-47069000I173000J0D01*
G01*
X53448000Y-47069000D01*
G75*
G02*
X53621000Y-47242000I0J-173000D01*
G01*
X53621000Y-47588000D01*
G75*
G02*
X53448000Y-47761000I-173000J0D01*
G01*
G37*
%TD*%
%TO.C,U3*%
G36*
G01*
X14300000Y-48170000D02*
X14300000Y-47630000D01*
G75*
G02*
X14400000Y-47530000I100000J0D01*
G01*
X14600000Y-47530000D01*
G75*
G02*
X14700000Y-47630000I0J-100000D01*
G01*
X14700000Y-48170000D01*
G75*
G02*
X14600000Y-48270000I-100000J0D01*
G01*
X14400000Y-48270000D01*
G75*
G02*
X14300000Y-48170000I0J100000D01*
G01*
G37*
G36*
G01*
X16455000Y-46615000D02*
X15915000Y-46615000D01*
G75*
G02*
X15815000Y-46515000I0J100000D01*
G01*
X15815000Y-46315000D01*
G75*
G02*
X15915000Y-46215000I100000J0D01*
G01*
X16455000Y-46215000D01*
G75*
G02*
X16555000Y-46315000I0J-100000D01*
G01*
X16555000Y-46515000D01*
G75*
G02*
X16455000Y-46615000I-100000J0D01*
G01*
G37*
G36*
G01*
X16435000Y-48615000D02*
X15895000Y-48615000D01*
G75*
G02*
X15795000Y-48515000I0J100000D01*
G01*
X15795000Y-48315000D01*
G75*
G02*
X15895000Y-48215000I100000J0D01*
G01*
X16435000Y-48215000D01*
G75*
G02*
X16535000Y-48315000I0J-100000D01*
G01*
X16535000Y-48515000D01*
G75*
G02*
X16435000Y-48615000I-100000J0D01*
G01*
G37*
G36*
G01*
X15255000Y-50420000D02*
X15255000Y-49880000D01*
G75*
G02*
X15355000Y-49780000I100000J0D01*
G01*
X15555000Y-49780000D01*
G75*
G02*
X15655000Y-49880000I0J-100000D01*
G01*
X15655000Y-50420000D01*
G75*
G02*
X15555000Y-50520000I-100000J0D01*
G01*
X15355000Y-50520000D01*
G75*
G02*
X15255000Y-50420000I0J100000D01*
G01*
G37*
G36*
G01*
X14300000Y-45920000D02*
X14300000Y-45380000D01*
G75*
G02*
X14400000Y-45280000I100000J0D01*
G01*
X14600000Y-45280000D01*
G75*
G02*
X14700000Y-45380000I0J-100000D01*
G01*
X14700000Y-45920000D01*
G75*
G02*
X14600000Y-46020000I-100000J0D01*
G01*
X14400000Y-46020000D01*
G75*
G02*
X14300000Y-45920000I0J100000D01*
G01*
G37*
G36*
G01*
X14055000Y-47585000D02*
X13515000Y-47585000D01*
G75*
G02*
X13415000Y-47485000I0J100000D01*
G01*
X13415000Y-47285000D01*
G75*
G02*
X13515000Y-47185000I100000J0D01*
G01*
X14055000Y-47185000D01*
G75*
G02*
X14155000Y-47285000I0J-100000D01*
G01*
X14155000Y-47485000D01*
G75*
G02*
X14055000Y-47585000I-100000J0D01*
G01*
G37*
G36*
G01*
X14055000Y-49585000D02*
X13515000Y-49585000D01*
G75*
G02*
X13415000Y-49485000I0J100000D01*
G01*
X13415000Y-49285000D01*
G75*
G02*
X13515000Y-49185000I100000J0D01*
G01*
X14055000Y-49185000D01*
G75*
G02*
X14155000Y-49285000I0J-100000D01*
G01*
X14155000Y-49485000D01*
G75*
G02*
X14055000Y-49585000I-100000J0D01*
G01*
G37*
G36*
G01*
X16455000Y-47585000D02*
X15915000Y-47585000D01*
G75*
G02*
X15815000Y-47485000I0J100000D01*
G01*
X15815000Y-47285000D01*
G75*
G02*
X15915000Y-47185000I100000J0D01*
G01*
X16455000Y-47185000D01*
G75*
G02*
X16555000Y-47285000I0J-100000D01*
G01*
X16555000Y-47485000D01*
G75*
G02*
X16455000Y-47585000I-100000J0D01*
G01*
G37*
G36*
G01*
X16435000Y-49585000D02*
X15895000Y-49585000D01*
G75*
G02*
X15795000Y-49485000I0J100000D01*
G01*
X15795000Y-49285000D01*
G75*
G02*
X15895000Y-49185000I100000J0D01*
G01*
X16435000Y-49185000D01*
G75*
G02*
X16535000Y-49285000I0J-100000D01*
G01*
X16535000Y-49485000D01*
G75*
G02*
X16435000Y-49585000I-100000J0D01*
G01*
G37*
G36*
G01*
X14285000Y-50420000D02*
X14285000Y-49880000D01*
G75*
G02*
X14385000Y-49780000I100000J0D01*
G01*
X14585000Y-49780000D01*
G75*
G02*
X14685000Y-49880000I0J-100000D01*
G01*
X14685000Y-50420000D01*
G75*
G02*
X14585000Y-50520000I-100000J0D01*
G01*
X14385000Y-50520000D01*
G75*
G02*
X14285000Y-50420000I0J100000D01*
G01*
G37*
G36*
G01*
X14055000Y-48615000D02*
X13515000Y-48615000D01*
G75*
G02*
X13415000Y-48515000I0J100000D01*
G01*
X13415000Y-48315000D01*
G75*
G02*
X13515000Y-48215000I100000J0D01*
G01*
X14055000Y-48215000D01*
G75*
G02*
X14155000Y-48315000I0J-100000D01*
G01*
X14155000Y-48515000D01*
G75*
G02*
X14055000Y-48615000I-100000J0D01*
G01*
G37*
G36*
G01*
X14055000Y-46615000D02*
X13515000Y-46615000D01*
G75*
G02*
X13415000Y-46515000I0J100000D01*
G01*
X13415000Y-46315000D01*
G75*
G02*
X13515000Y-46215000I100000J0D01*
G01*
X14055000Y-46215000D01*
G75*
G02*
X14155000Y-46315000I0J-100000D01*
G01*
X14155000Y-46515000D01*
G75*
G02*
X14055000Y-46615000I-100000J0D01*
G01*
G37*
G36*
G01*
X15270000Y-45920000D02*
X15270000Y-45380000D01*
G75*
G02*
X15370000Y-45280000I100000J0D01*
G01*
X15570000Y-45280000D01*
G75*
G02*
X15670000Y-45380000I0J-100000D01*
G01*
X15670000Y-45920000D01*
G75*
G02*
X15570000Y-46020000I-100000J0D01*
G01*
X15370000Y-46020000D01*
G75*
G02*
X15270000Y-45920000I0J100000D01*
G01*
G37*
G36*
G01*
X15270000Y-48170000D02*
X15270000Y-47630000D01*
G75*
G02*
X15370000Y-47530000I100000J0D01*
G01*
X15570000Y-47530000D01*
G75*
G02*
X15670000Y-47630000I0J-100000D01*
G01*
X15670000Y-48170000D01*
G75*
G02*
X15570000Y-48270000I-100000J0D01*
G01*
X15370000Y-48270000D01*
G75*
G02*
X15270000Y-48170000I0J100000D01*
G01*
G37*
%TD*%
%TO.C,D10*%
G36*
G01*
X39948000Y-48731000D02*
X39552000Y-48731000D01*
G75*
G02*
X39379000Y-48558000I0J173000D01*
G01*
X39379000Y-48212000D01*
G75*
G02*
X39552000Y-48039000I173000J0D01*
G01*
X39948000Y-48039000D01*
G75*
G02*
X40121000Y-48212000I0J-173000D01*
G01*
X40121000Y-48558000D01*
G75*
G02*
X39948000Y-48731000I-173000J0D01*
G01*
G37*
G36*
G01*
X39948000Y-47761000D02*
X39552000Y-47761000D01*
G75*
G02*
X39379000Y-47588000I0J173000D01*
G01*
X39379000Y-47242000D01*
G75*
G02*
X39552000Y-47069000I173000J0D01*
G01*
X39948000Y-47069000D01*
G75*
G02*
X40121000Y-47242000I0J-173000D01*
G01*
X40121000Y-47588000D01*
G75*
G02*
X39948000Y-47761000I-173000J0D01*
G01*
G37*
%TD*%
%TO.C,D5*%
G36*
G01*
X47448000Y-48731000D02*
X47052000Y-48731000D01*
G75*
G02*
X46879000Y-48558000I0J173000D01*
G01*
X46879000Y-48212000D01*
G75*
G02*
X47052000Y-48039000I173000J0D01*
G01*
X47448000Y-48039000D01*
G75*
G02*
X47621000Y-48212000I0J-173000D01*
G01*
X47621000Y-48558000D01*
G75*
G02*
X47448000Y-48731000I-173000J0D01*
G01*
G37*
G36*
G01*
X47448000Y-47761000D02*
X47052000Y-47761000D01*
G75*
G02*
X46879000Y-47588000I0J173000D01*
G01*
X46879000Y-47242000D01*
G75*
G02*
X47052000Y-47069000I173000J0D01*
G01*
X47448000Y-47069000D01*
G75*
G02*
X47621000Y-47242000I0J-173000D01*
G01*
X47621000Y-47588000D01*
G75*
G02*
X47448000Y-47761000I-173000J0D01*
G01*
G37*
%TD*%
%TO.C,U4*%
G36*
G01*
X18055000Y-47585000D02*
X17515000Y-47585000D01*
G75*
G02*
X17415000Y-47485000I0J100000D01*
G01*
X17415000Y-47285000D01*
G75*
G02*
X17515000Y-47185000I100000J0D01*
G01*
X18055000Y-47185000D01*
G75*
G02*
X18155000Y-47285000I0J-100000D01*
G01*
X18155000Y-47485000D01*
G75*
G02*
X18055000Y-47585000I-100000J0D01*
G01*
G37*
G36*
G01*
X20455000Y-46615000D02*
X19915000Y-46615000D01*
G75*
G02*
X19815000Y-46515000I0J100000D01*
G01*
X19815000Y-46315000D01*
G75*
G02*
X19915000Y-46215000I100000J0D01*
G01*
X20455000Y-46215000D01*
G75*
G02*
X20555000Y-46315000I0J-100000D01*
G01*
X20555000Y-46515000D01*
G75*
G02*
X20455000Y-46615000I-100000J0D01*
G01*
G37*
G36*
G01*
X18300000Y-45920000D02*
X18300000Y-45380000D01*
G75*
G02*
X18400000Y-45280000I100000J0D01*
G01*
X18600000Y-45280000D01*
G75*
G02*
X18700000Y-45380000I0J-100000D01*
G01*
X18700000Y-45920000D01*
G75*
G02*
X18600000Y-46020000I-100000J0D01*
G01*
X18400000Y-46020000D01*
G75*
G02*
X18300000Y-45920000I0J100000D01*
G01*
G37*
G36*
G01*
X18300000Y-48170000D02*
X18300000Y-47630000D01*
G75*
G02*
X18400000Y-47530000I100000J0D01*
G01*
X18600000Y-47530000D01*
G75*
G02*
X18700000Y-47630000I0J-100000D01*
G01*
X18700000Y-48170000D01*
G75*
G02*
X18600000Y-48270000I-100000J0D01*
G01*
X18400000Y-48270000D01*
G75*
G02*
X18300000Y-48170000I0J100000D01*
G01*
G37*
G36*
G01*
X19255000Y-50420000D02*
X19255000Y-49880000D01*
G75*
G02*
X19355000Y-49780000I100000J0D01*
G01*
X19555000Y-49780000D01*
G75*
G02*
X19655000Y-49880000I0J-100000D01*
G01*
X19655000Y-50420000D01*
G75*
G02*
X19555000Y-50520000I-100000J0D01*
G01*
X19355000Y-50520000D01*
G75*
G02*
X19255000Y-50420000I0J100000D01*
G01*
G37*
G36*
G01*
X18055000Y-49585000D02*
X17515000Y-49585000D01*
G75*
G02*
X17415000Y-49485000I0J100000D01*
G01*
X17415000Y-49285000D01*
G75*
G02*
X17515000Y-49185000I100000J0D01*
G01*
X18055000Y-49185000D01*
G75*
G02*
X18155000Y-49285000I0J-100000D01*
G01*
X18155000Y-49485000D01*
G75*
G02*
X18055000Y-49585000I-100000J0D01*
G01*
G37*
G36*
G01*
X20435000Y-48615000D02*
X19895000Y-48615000D01*
G75*
G02*
X19795000Y-48515000I0J100000D01*
G01*
X19795000Y-48315000D01*
G75*
G02*
X19895000Y-48215000I100000J0D01*
G01*
X20435000Y-48215000D01*
G75*
G02*
X20535000Y-48315000I0J-100000D01*
G01*
X20535000Y-48515000D01*
G75*
G02*
X20435000Y-48615000I-100000J0D01*
G01*
G37*
G36*
G01*
X20455000Y-47585000D02*
X19915000Y-47585000D01*
G75*
G02*
X19815000Y-47485000I0J100000D01*
G01*
X19815000Y-47285000D01*
G75*
G02*
X19915000Y-47185000I100000J0D01*
G01*
X20455000Y-47185000D01*
G75*
G02*
X20555000Y-47285000I0J-100000D01*
G01*
X20555000Y-47485000D01*
G75*
G02*
X20455000Y-47585000I-100000J0D01*
G01*
G37*
G36*
G01*
X20435000Y-49585000D02*
X19895000Y-49585000D01*
G75*
G02*
X19795000Y-49485000I0J100000D01*
G01*
X19795000Y-49285000D01*
G75*
G02*
X19895000Y-49185000I100000J0D01*
G01*
X20435000Y-49185000D01*
G75*
G02*
X20535000Y-49285000I0J-100000D01*
G01*
X20535000Y-49485000D01*
G75*
G02*
X20435000Y-49585000I-100000J0D01*
G01*
G37*
G36*
G01*
X18285000Y-50420000D02*
X18285000Y-49880000D01*
G75*
G02*
X18385000Y-49780000I100000J0D01*
G01*
X18585000Y-49780000D01*
G75*
G02*
X18685000Y-49880000I0J-100000D01*
G01*
X18685000Y-50420000D01*
G75*
G02*
X18585000Y-50520000I-100000J0D01*
G01*
X18385000Y-50520000D01*
G75*
G02*
X18285000Y-50420000I0J100000D01*
G01*
G37*
G36*
G01*
X18055000Y-48615000D02*
X17515000Y-48615000D01*
G75*
G02*
X17415000Y-48515000I0J100000D01*
G01*
X17415000Y-48315000D01*
G75*
G02*
X17515000Y-48215000I100000J0D01*
G01*
X18055000Y-48215000D01*
G75*
G02*
X18155000Y-48315000I0J-100000D01*
G01*
X18155000Y-48515000D01*
G75*
G02*
X18055000Y-48615000I-100000J0D01*
G01*
G37*
G36*
G01*
X18055000Y-46615000D02*
X17515000Y-46615000D01*
G75*
G02*
X17415000Y-46515000I0J100000D01*
G01*
X17415000Y-46315000D01*
G75*
G02*
X17515000Y-46215000I100000J0D01*
G01*
X18055000Y-46215000D01*
G75*
G02*
X18155000Y-46315000I0J-100000D01*
G01*
X18155000Y-46515000D01*
G75*
G02*
X18055000Y-46615000I-100000J0D01*
G01*
G37*
G36*
G01*
X19270000Y-45920000D02*
X19270000Y-45380000D01*
G75*
G02*
X19370000Y-45280000I100000J0D01*
G01*
X19570000Y-45280000D01*
G75*
G02*
X19670000Y-45380000I0J-100000D01*
G01*
X19670000Y-45920000D01*
G75*
G02*
X19570000Y-46020000I-100000J0D01*
G01*
X19370000Y-46020000D01*
G75*
G02*
X19270000Y-45920000I0J100000D01*
G01*
G37*
G36*
G01*
X19270000Y-48170000D02*
X19270000Y-47630000D01*
G75*
G02*
X19370000Y-47530000I100000J0D01*
G01*
X19570000Y-47530000D01*
G75*
G02*
X19670000Y-47630000I0J-100000D01*
G01*
X19670000Y-48170000D01*
G75*
G02*
X19570000Y-48270000I-100000J0D01*
G01*
X19370000Y-48270000D01*
G75*
G02*
X19270000Y-48170000I0J100000D01*
G01*
G37*
%TD*%
%TO.C,SW7*%
G36*
G01*
X66326000Y-59774500D02*
X66326000Y-60025500D01*
G75*
G02*
X66200500Y-60151000I-125500J0D01*
G01*
X65549500Y-60151000D01*
G75*
G02*
X65424000Y-60025500I0J125500D01*
G01*
X65424000Y-59774500D01*
G75*
G02*
X65549500Y-59649000I125500J0D01*
G01*
X66200500Y-59649000D01*
G75*
G02*
X66326000Y-59774500I0J-125500D01*
G01*
G37*
G36*
G01*
X62576000Y-59774500D02*
X62576000Y-60025500D01*
G75*
G02*
X62450500Y-60151000I-125500J0D01*
G01*
X61799500Y-60151000D01*
G75*
G02*
X61674000Y-60025500I0J125500D01*
G01*
X61674000Y-59774500D01*
G75*
G02*
X61799500Y-59649000I125500J0D01*
G01*
X62450500Y-59649000D01*
G75*
G02*
X62576000Y-59774500I0J-125500D01*
G01*
G37*
G36*
G01*
X66326000Y-61774500D02*
X66326000Y-62025500D01*
G75*
G02*
X66200500Y-62151000I-125500J0D01*
G01*
X65549500Y-62151000D01*
G75*
G02*
X65424000Y-62025500I0J125500D01*
G01*
X65424000Y-61774500D01*
G75*
G02*
X65549500Y-61649000I125500J0D01*
G01*
X66200500Y-61649000D01*
G75*
G02*
X66326000Y-61774500I0J-125500D01*
G01*
G37*
G36*
G01*
X62576000Y-61774500D02*
X62576000Y-62025500D01*
G75*
G02*
X62450500Y-62151000I-125500J0D01*
G01*
X61799500Y-62151000D01*
G75*
G02*
X61674000Y-62025500I0J125500D01*
G01*
X61674000Y-61774500D01*
G75*
G02*
X61799500Y-61649000I125500J0D01*
G01*
X62450500Y-61649000D01*
G75*
G02*
X62576000Y-61774500I0J-125500D01*
G01*
G37*
%TD*%
%TO.C,SW10*%
G36*
G01*
X44435000Y-64561000D02*
X43675000Y-64561000D01*
G75*
G02*
X43624000Y-64510000I0J51000D01*
G01*
X43624000Y-62910000D01*
G75*
G02*
X43675000Y-62859000I51000J0D01*
G01*
X44435000Y-62859000D01*
G75*
G02*
X44486000Y-62910000I0J-51000D01*
G01*
X44486000Y-64510000D01*
G75*
G02*
X44435000Y-64561000I-51000J0D01*
G01*
G37*
G36*
G01*
X45705000Y-64561000D02*
X44945000Y-64561000D01*
G75*
G02*
X44894000Y-64510000I0J51000D01*
G01*
X44894000Y-62910000D01*
G75*
G02*
X44945000Y-62859000I51000J0D01*
G01*
X45705000Y-62859000D01*
G75*
G02*
X45756000Y-62910000I0J-51000D01*
G01*
X45756000Y-64510000D01*
G75*
G02*
X45705000Y-64561000I-51000J0D01*
G01*
G37*
G36*
G01*
X46975000Y-64561000D02*
X46215000Y-64561000D01*
G75*
G02*
X46164000Y-64510000I0J51000D01*
G01*
X46164000Y-62910000D01*
G75*
G02*
X46215000Y-62859000I51000J0D01*
G01*
X46975000Y-62859000D01*
G75*
G02*
X47026000Y-62910000I0J-51000D01*
G01*
X47026000Y-64510000D01*
G75*
G02*
X46975000Y-64561000I-51000J0D01*
G01*
G37*
G36*
G01*
X48245000Y-64561000D02*
X47485000Y-64561000D01*
G75*
G02*
X47434000Y-64510000I0J51000D01*
G01*
X47434000Y-62910000D01*
G75*
G02*
X47485000Y-62859000I51000J0D01*
G01*
X48245000Y-62859000D01*
G75*
G02*
X48296000Y-62910000I0J-51000D01*
G01*
X48296000Y-64510000D01*
G75*
G02*
X48245000Y-64561000I-51000J0D01*
G01*
G37*
G36*
G01*
X49515000Y-64561000D02*
X48755000Y-64561000D01*
G75*
G02*
X48704000Y-64510000I0J51000D01*
G01*
X48704000Y-62910000D01*
G75*
G02*
X48755000Y-62859000I51000J0D01*
G01*
X49515000Y-62859000D01*
G75*
G02*
X49566000Y-62910000I0J-51000D01*
G01*
X49566000Y-64510000D01*
G75*
G02*
X49515000Y-64561000I-51000J0D01*
G01*
G37*
G36*
G01*
X50785000Y-64561000D02*
X50025000Y-64561000D01*
G75*
G02*
X49974000Y-64510000I0J51000D01*
G01*
X49974000Y-62910000D01*
G75*
G02*
X50025000Y-62859000I51000J0D01*
G01*
X50785000Y-62859000D01*
G75*
G02*
X50836000Y-62910000I0J-51000D01*
G01*
X50836000Y-64510000D01*
G75*
G02*
X50785000Y-64561000I-51000J0D01*
G01*
G37*
G36*
G01*
X52055000Y-64561000D02*
X51295000Y-64561000D01*
G75*
G02*
X51244000Y-64510000I0J51000D01*
G01*
X51244000Y-62910000D01*
G75*
G02*
X51295000Y-62859000I51000J0D01*
G01*
X52055000Y-62859000D01*
G75*
G02*
X52106000Y-62910000I0J-51000D01*
G01*
X52106000Y-64510000D01*
G75*
G02*
X52055000Y-64561000I-51000J0D01*
G01*
G37*
G36*
G01*
X53325000Y-64561000D02*
X52565000Y-64561000D01*
G75*
G02*
X52514000Y-64510000I0J51000D01*
G01*
X52514000Y-62910000D01*
G75*
G02*
X52565000Y-62859000I51000J0D01*
G01*
X53325000Y-62859000D01*
G75*
G02*
X53376000Y-62910000I0J-51000D01*
G01*
X53376000Y-64510000D01*
G75*
G02*
X53325000Y-64561000I-51000J0D01*
G01*
G37*
G36*
G01*
X53325000Y-56941000D02*
X52565000Y-56941000D01*
G75*
G02*
X52514000Y-56890000I0J51000D01*
G01*
X52514000Y-55290000D01*
G75*
G02*
X52565000Y-55239000I51000J0D01*
G01*
X53325000Y-55239000D01*
G75*
G02*
X53376000Y-55290000I0J-51000D01*
G01*
X53376000Y-56890000D01*
G75*
G02*
X53325000Y-56941000I-51000J0D01*
G01*
G37*
G36*
G01*
X52055000Y-56941000D02*
X51295000Y-56941000D01*
G75*
G02*
X51244000Y-56890000I0J51000D01*
G01*
X51244000Y-55290000D01*
G75*
G02*
X51295000Y-55239000I51000J0D01*
G01*
X52055000Y-55239000D01*
G75*
G02*
X52106000Y-55290000I0J-51000D01*
G01*
X52106000Y-56890000D01*
G75*
G02*
X52055000Y-56941000I-51000J0D01*
G01*
G37*
G36*
G01*
X50785000Y-56941000D02*
X50025000Y-56941000D01*
G75*
G02*
X49974000Y-56890000I0J51000D01*
G01*
X49974000Y-55290000D01*
G75*
G02*
X50025000Y-55239000I51000J0D01*
G01*
X50785000Y-55239000D01*
G75*
G02*
X50836000Y-55290000I0J-51000D01*
G01*
X50836000Y-56890000D01*
G75*
G02*
X50785000Y-56941000I-51000J0D01*
G01*
G37*
G36*
G01*
X49515000Y-56941000D02*
X48755000Y-56941000D01*
G75*
G02*
X48704000Y-56890000I0J51000D01*
G01*
X48704000Y-55290000D01*
G75*
G02*
X48755000Y-55239000I51000J0D01*
G01*
X49515000Y-55239000D01*
G75*
G02*
X49566000Y-55290000I0J-51000D01*
G01*
X49566000Y-56890000D01*
G75*
G02*
X49515000Y-56941000I-51000J0D01*
G01*
G37*
G36*
G01*
X48245000Y-56941000D02*
X47485000Y-56941000D01*
G75*
G02*
X47434000Y-56890000I0J51000D01*
G01*
X47434000Y-55290000D01*
G75*
G02*
X47485000Y-55239000I51000J0D01*
G01*
X48245000Y-55239000D01*
G75*
G02*
X48296000Y-55290000I0J-51000D01*
G01*
X48296000Y-56890000D01*
G75*
G02*
X48245000Y-56941000I-51000J0D01*
G01*
G37*
G36*
G01*
X46975000Y-56941000D02*
X46215000Y-56941000D01*
G75*
G02*
X46164000Y-56890000I0J51000D01*
G01*
X46164000Y-55290000D01*
G75*
G02*
X46215000Y-55239000I51000J0D01*
G01*
X46975000Y-55239000D01*
G75*
G02*
X47026000Y-55290000I0J-51000D01*
G01*
X47026000Y-56890000D01*
G75*
G02*
X46975000Y-56941000I-51000J0D01*
G01*
G37*
G36*
G01*
X45705000Y-56941000D02*
X44945000Y-56941000D01*
G75*
G02*
X44894000Y-56890000I0J51000D01*
G01*
X44894000Y-55290000D01*
G75*
G02*
X44945000Y-55239000I51000J0D01*
G01*
X45705000Y-55239000D01*
G75*
G02*
X45756000Y-55290000I0J-51000D01*
G01*
X45756000Y-56890000D01*
G75*
G02*
X45705000Y-56941000I-51000J0D01*
G01*
G37*
G36*
G01*
X44435000Y-56941000D02*
X43675000Y-56941000D01*
G75*
G02*
X43624000Y-56890000I0J51000D01*
G01*
X43624000Y-55290000D01*
G75*
G02*
X43675000Y-55239000I51000J0D01*
G01*
X44435000Y-55239000D01*
G75*
G02*
X44486000Y-55290000I0J-51000D01*
G01*
X44486000Y-56890000D01*
G75*
G02*
X44435000Y-56941000I-51000J0D01*
G01*
G37*
%TD*%
%TO.C,D3*%
G36*
G01*
X50448000Y-48731000D02*
X50052000Y-48731000D01*
G75*
G02*
X49879000Y-48558000I0J173000D01*
G01*
X49879000Y-48212000D01*
G75*
G02*
X50052000Y-48039000I173000J0D01*
G01*
X50448000Y-48039000D01*
G75*
G02*
X50621000Y-48212000I0J-173000D01*
G01*
X50621000Y-48558000D01*
G75*
G02*
X50448000Y-48731000I-173000J0D01*
G01*
G37*
G36*
G01*
X50448000Y-47761000D02*
X50052000Y-47761000D01*
G75*
G02*
X49879000Y-47588000I0J173000D01*
G01*
X49879000Y-47242000D01*
G75*
G02*
X50052000Y-47069000I173000J0D01*
G01*
X50448000Y-47069000D01*
G75*
G02*
X50621000Y-47242000I0J-173000D01*
G01*
X50621000Y-47588000D01*
G75*
G02*
X50448000Y-47761000I-173000J0D01*
G01*
G37*
%TD*%
%TO.C,SW1*%
G36*
G01*
X17125500Y-55976000D02*
X16874500Y-55976000D01*
G75*
G02*
X16749000Y-55850500I0J125500D01*
G01*
X16749000Y-55199500D01*
G75*
G02*
X16874500Y-55074000I125500J0D01*
G01*
X17125500Y-55074000D01*
G75*
G02*
X17251000Y-55199500I0J-125500D01*
G01*
X17251000Y-55850500D01*
G75*
G02*
X17125500Y-55976000I-125500J0D01*
G01*
G37*
G36*
G01*
X17125500Y-59726000D02*
X16874500Y-59726000D01*
G75*
G02*
X16749000Y-59600500I0J125500D01*
G01*
X16749000Y-58949500D01*
G75*
G02*
X16874500Y-58824000I125500J0D01*
G01*
X17125500Y-58824000D01*
G75*
G02*
X17251000Y-58949500I0J-125500D01*
G01*
X17251000Y-59600500D01*
G75*
G02*
X17125500Y-59726000I-125500J0D01*
G01*
G37*
G36*
G01*
X15125500Y-59726000D02*
X14874500Y-59726000D01*
G75*
G02*
X14749000Y-59600500I0J125500D01*
G01*
X14749000Y-58949500D01*
G75*
G02*
X14874500Y-58824000I125500J0D01*
G01*
X15125500Y-58824000D01*
G75*
G02*
X15251000Y-58949500I0J-125500D01*
G01*
X15251000Y-59600500D01*
G75*
G02*
X15125500Y-59726000I-125500J0D01*
G01*
G37*
G36*
G01*
X15125500Y-55976000D02*
X14874500Y-55976000D01*
G75*
G02*
X14749000Y-55850500I0J125500D01*
G01*
X14749000Y-55199500D01*
G75*
G02*
X14874500Y-55074000I125500J0D01*
G01*
X15125500Y-55074000D01*
G75*
G02*
X15251000Y-55199500I0J-125500D01*
G01*
X15251000Y-55850500D01*
G75*
G02*
X15125500Y-55976000I-125500J0D01*
G01*
G37*
%TD*%
%TO.C,SW9*%
G36*
G01*
X31435000Y-64561000D02*
X30675000Y-64561000D01*
G75*
G02*
X30624000Y-64510000I0J51000D01*
G01*
X30624000Y-62910000D01*
G75*
G02*
X30675000Y-62859000I51000J0D01*
G01*
X31435000Y-62859000D01*
G75*
G02*
X31486000Y-62910000I0J-51000D01*
G01*
X31486000Y-64510000D01*
G75*
G02*
X31435000Y-64561000I-51000J0D01*
G01*
G37*
G36*
G01*
X32705000Y-64561000D02*
X31945000Y-64561000D01*
G75*
G02*
X31894000Y-64510000I0J51000D01*
G01*
X31894000Y-62910000D01*
G75*
G02*
X31945000Y-62859000I51000J0D01*
G01*
X32705000Y-62859000D01*
G75*
G02*
X32756000Y-62910000I0J-51000D01*
G01*
X32756000Y-64510000D01*
G75*
G02*
X32705000Y-64561000I-51000J0D01*
G01*
G37*
G36*
G01*
X33975000Y-64561000D02*
X33215000Y-64561000D01*
G75*
G02*
X33164000Y-64510000I0J51000D01*
G01*
X33164000Y-62910000D01*
G75*
G02*
X33215000Y-62859000I51000J0D01*
G01*
X33975000Y-62859000D01*
G75*
G02*
X34026000Y-62910000I0J-51000D01*
G01*
X34026000Y-64510000D01*
G75*
G02*
X33975000Y-64561000I-51000J0D01*
G01*
G37*
G36*
G01*
X35245000Y-64561000D02*
X34485000Y-64561000D01*
G75*
G02*
X34434000Y-64510000I0J51000D01*
G01*
X34434000Y-62910000D01*
G75*
G02*
X34485000Y-62859000I51000J0D01*
G01*
X35245000Y-62859000D01*
G75*
G02*
X35296000Y-62910000I0J-51000D01*
G01*
X35296000Y-64510000D01*
G75*
G02*
X35245000Y-64561000I-51000J0D01*
G01*
G37*
G36*
G01*
X36515000Y-64561000D02*
X35755000Y-64561000D01*
G75*
G02*
X35704000Y-64510000I0J51000D01*
G01*
X35704000Y-62910000D01*
G75*
G02*
X35755000Y-62859000I51000J0D01*
G01*
X36515000Y-62859000D01*
G75*
G02*
X36566000Y-62910000I0J-51000D01*
G01*
X36566000Y-64510000D01*
G75*
G02*
X36515000Y-64561000I-51000J0D01*
G01*
G37*
G36*
G01*
X37785000Y-64561000D02*
X37025000Y-64561000D01*
G75*
G02*
X36974000Y-64510000I0J51000D01*
G01*
X36974000Y-62910000D01*
G75*
G02*
X37025000Y-62859000I51000J0D01*
G01*
X37785000Y-62859000D01*
G75*
G02*
X37836000Y-62910000I0J-51000D01*
G01*
X37836000Y-64510000D01*
G75*
G02*
X37785000Y-64561000I-51000J0D01*
G01*
G37*
G36*
G01*
X39055000Y-64561000D02*
X38295000Y-64561000D01*
G75*
G02*
X38244000Y-64510000I0J51000D01*
G01*
X38244000Y-62910000D01*
G75*
G02*
X38295000Y-62859000I51000J0D01*
G01*
X39055000Y-62859000D01*
G75*
G02*
X39106000Y-62910000I0J-51000D01*
G01*
X39106000Y-64510000D01*
G75*
G02*
X39055000Y-64561000I-51000J0D01*
G01*
G37*
G36*
G01*
X40325000Y-64561000D02*
X39565000Y-64561000D01*
G75*
G02*
X39514000Y-64510000I0J51000D01*
G01*
X39514000Y-62910000D01*
G75*
G02*
X39565000Y-62859000I51000J0D01*
G01*
X40325000Y-62859000D01*
G75*
G02*
X40376000Y-62910000I0J-51000D01*
G01*
X40376000Y-64510000D01*
G75*
G02*
X40325000Y-64561000I-51000J0D01*
G01*
G37*
G36*
G01*
X40325000Y-56941000D02*
X39565000Y-56941000D01*
G75*
G02*
X39514000Y-56890000I0J51000D01*
G01*
X39514000Y-55290000D01*
G75*
G02*
X39565000Y-55239000I51000J0D01*
G01*
X40325000Y-55239000D01*
G75*
G02*
X40376000Y-55290000I0J-51000D01*
G01*
X40376000Y-56890000D01*
G75*
G02*
X40325000Y-56941000I-51000J0D01*
G01*
G37*
G36*
G01*
X39055000Y-56941000D02*
X38295000Y-56941000D01*
G75*
G02*
X38244000Y-56890000I0J51000D01*
G01*
X38244000Y-55290000D01*
G75*
G02*
X38295000Y-55239000I51000J0D01*
G01*
X39055000Y-55239000D01*
G75*
G02*
X39106000Y-55290000I0J-51000D01*
G01*
X39106000Y-56890000D01*
G75*
G02*
X39055000Y-56941000I-51000J0D01*
G01*
G37*
G36*
G01*
X37785000Y-56941000D02*
X37025000Y-56941000D01*
G75*
G02*
X36974000Y-56890000I0J51000D01*
G01*
X36974000Y-55290000D01*
G75*
G02*
X37025000Y-55239000I51000J0D01*
G01*
X37785000Y-55239000D01*
G75*
G02*
X37836000Y-55290000I0J-51000D01*
G01*
X37836000Y-56890000D01*
G75*
G02*
X37785000Y-56941000I-51000J0D01*
G01*
G37*
G36*
G01*
X36515000Y-56941000D02*
X35755000Y-56941000D01*
G75*
G02*
X35704000Y-56890000I0J51000D01*
G01*
X35704000Y-55290000D01*
G75*
G02*
X35755000Y-55239000I51000J0D01*
G01*
X36515000Y-55239000D01*
G75*
G02*
X36566000Y-55290000I0J-51000D01*
G01*
X36566000Y-56890000D01*
G75*
G02*
X36515000Y-56941000I-51000J0D01*
G01*
G37*
G36*
G01*
X35245000Y-56941000D02*
X34485000Y-56941000D01*
G75*
G02*
X34434000Y-56890000I0J51000D01*
G01*
X34434000Y-55290000D01*
G75*
G02*
X34485000Y-55239000I51000J0D01*
G01*
X35245000Y-55239000D01*
G75*
G02*
X35296000Y-55290000I0J-51000D01*
G01*
X35296000Y-56890000D01*
G75*
G02*
X35245000Y-56941000I-51000J0D01*
G01*
G37*
G36*
G01*
X33975000Y-56941000D02*
X33215000Y-56941000D01*
G75*
G02*
X33164000Y-56890000I0J51000D01*
G01*
X33164000Y-55290000D01*
G75*
G02*
X33215000Y-55239000I51000J0D01*
G01*
X33975000Y-55239000D01*
G75*
G02*
X34026000Y-55290000I0J-51000D01*
G01*
X34026000Y-56890000D01*
G75*
G02*
X33975000Y-56941000I-51000J0D01*
G01*
G37*
G36*
G01*
X32705000Y-56941000D02*
X31945000Y-56941000D01*
G75*
G02*
X31894000Y-56890000I0J51000D01*
G01*
X31894000Y-55290000D01*
G75*
G02*
X31945000Y-55239000I51000J0D01*
G01*
X32705000Y-55239000D01*
G75*
G02*
X32756000Y-55290000I0J-51000D01*
G01*
X32756000Y-56890000D01*
G75*
G02*
X32705000Y-56941000I-51000J0D01*
G01*
G37*
G36*
G01*
X31435000Y-56941000D02*
X30675000Y-56941000D01*
G75*
G02*
X30624000Y-56890000I0J51000D01*
G01*
X30624000Y-55290000D01*
G75*
G02*
X30675000Y-55239000I51000J0D01*
G01*
X31435000Y-55239000D01*
G75*
G02*
X31486000Y-55290000I0J-51000D01*
G01*
X31486000Y-56890000D01*
G75*
G02*
X31435000Y-56941000I-51000J0D01*
G01*
G37*
%TD*%
%TO.C,D4*%
G36*
G01*
X48948000Y-48731000D02*
X48552000Y-48731000D01*
G75*
G02*
X48379000Y-48558000I0J173000D01*
G01*
X48379000Y-48212000D01*
G75*
G02*
X48552000Y-48039000I173000J0D01*
G01*
X48948000Y-48039000D01*
G75*
G02*
X49121000Y-48212000I0J-173000D01*
G01*
X49121000Y-48558000D01*
G75*
G02*
X48948000Y-48731000I-173000J0D01*
G01*
G37*
G36*
G01*
X48948000Y-47761000D02*
X48552000Y-47761000D01*
G75*
G02*
X48379000Y-47588000I0J173000D01*
G01*
X48379000Y-47242000D01*
G75*
G02*
X48552000Y-47069000I173000J0D01*
G01*
X48948000Y-47069000D01*
G75*
G02*
X49121000Y-47242000I0J-173000D01*
G01*
X49121000Y-47588000D01*
G75*
G02*
X48948000Y-47761000I-173000J0D01*
G01*
G37*
%TD*%
%TO.C,RN2*%
G36*
G01*
X19050000Y-58751000D02*
X18550000Y-58751000D01*
G75*
G02*
X18499000Y-58700000I0J51000D01*
G01*
X18499000Y-57900000D01*
G75*
G02*
X18550000Y-57849000I51000J0D01*
G01*
X19050000Y-57849000D01*
G75*
G02*
X19101000Y-57900000I0J-51000D01*
G01*
X19101000Y-58700000D01*
G75*
G02*
X19050000Y-58751000I-51000J0D01*
G01*
G37*
G36*
G01*
X19800000Y-58751000D02*
X19400000Y-58751000D01*
G75*
G02*
X19349000Y-58700000I0J51000D01*
G01*
X19349000Y-57900000D01*
G75*
G02*
X19400000Y-57849000I51000J0D01*
G01*
X19800000Y-57849000D01*
G75*
G02*
X19851000Y-57900000I0J-51000D01*
G01*
X19851000Y-58700000D01*
G75*
G02*
X19800000Y-58751000I-51000J0D01*
G01*
G37*
G36*
G01*
X20600000Y-58751000D02*
X20200000Y-58751000D01*
G75*
G02*
X20149000Y-58700000I0J51000D01*
G01*
X20149000Y-57900000D01*
G75*
G02*
X20200000Y-57849000I51000J0D01*
G01*
X20600000Y-57849000D01*
G75*
G02*
X20651000Y-57900000I0J-51000D01*
G01*
X20651000Y-58700000D01*
G75*
G02*
X20600000Y-58751000I-51000J0D01*
G01*
G37*
G36*
G01*
X21450000Y-58751000D02*
X20950000Y-58751000D01*
G75*
G02*
X20899000Y-58700000I0J51000D01*
G01*
X20899000Y-57900000D01*
G75*
G02*
X20950000Y-57849000I51000J0D01*
G01*
X21450000Y-57849000D01*
G75*
G02*
X21501000Y-57900000I0J-51000D01*
G01*
X21501000Y-58700000D01*
G75*
G02*
X21450000Y-58751000I-51000J0D01*
G01*
G37*
G36*
G01*
X21450000Y-56951000D02*
X20950000Y-56951000D01*
G75*
G02*
X20899000Y-56900000I0J51000D01*
G01*
X20899000Y-56100000D01*
G75*
G02*
X20950000Y-56049000I51000J0D01*
G01*
X21450000Y-56049000D01*
G75*
G02*
X21501000Y-56100000I0J-51000D01*
G01*
X21501000Y-56900000D01*
G75*
G02*
X21450000Y-56951000I-51000J0D01*
G01*
G37*
G36*
G01*
X20600000Y-56951000D02*
X20200000Y-56951000D01*
G75*
G02*
X20149000Y-56900000I0J51000D01*
G01*
X20149000Y-56100000D01*
G75*
G02*
X20200000Y-56049000I51000J0D01*
G01*
X20600000Y-56049000D01*
G75*
G02*
X20651000Y-56100000I0J-51000D01*
G01*
X20651000Y-56900000D01*
G75*
G02*
X20600000Y-56951000I-51000J0D01*
G01*
G37*
G36*
G01*
X19800000Y-56951000D02*
X19400000Y-56951000D01*
G75*
G02*
X19349000Y-56900000I0J51000D01*
G01*
X19349000Y-56100000D01*
G75*
G02*
X19400000Y-56049000I51000J0D01*
G01*
X19800000Y-56049000D01*
G75*
G02*
X19851000Y-56100000I0J-51000D01*
G01*
X19851000Y-56900000D01*
G75*
G02*
X19800000Y-56951000I-51000J0D01*
G01*
G37*
G36*
G01*
X19050000Y-56951000D02*
X18550000Y-56951000D01*
G75*
G02*
X18499000Y-56900000I0J51000D01*
G01*
X18499000Y-56100000D01*
G75*
G02*
X18550000Y-56049000I51000J0D01*
G01*
X19050000Y-56049000D01*
G75*
G02*
X19101000Y-56100000I0J-51000D01*
G01*
X19101000Y-56900000D01*
G75*
G02*
X19050000Y-56951000I-51000J0D01*
G01*
G37*
%TD*%
%TO.C,JP6*%
G36*
G01*
X19424000Y-39281750D02*
X19424000Y-38718250D01*
G75*
G02*
X19668250Y-38474000I244250J0D01*
G01*
X20156750Y-38474000D01*
G75*
G02*
X20401000Y-38718250I0J-244250D01*
G01*
X20401000Y-39281750D01*
G75*
G02*
X20156750Y-39526000I-244250J0D01*
G01*
X19668250Y-39526000D01*
G75*
G02*
X19424000Y-39281750I0J244250D01*
G01*
G37*
G36*
G01*
X20511500Y-39281750D02*
X20511500Y-38718250D01*
G75*
G02*
X20755750Y-38474000I244250J0D01*
G01*
X21244250Y-38474000D01*
G75*
G02*
X21488500Y-38718250I0J-244250D01*
G01*
X21488500Y-39281750D01*
G75*
G02*
X21244250Y-39526000I-244250J0D01*
G01*
X20755750Y-39526000D01*
G75*
G02*
X20511500Y-39281750I0J244250D01*
G01*
G37*
G36*
G01*
X22588500Y-38718250D02*
X22588500Y-39281750D01*
G75*
G02*
X22344250Y-39526000I-244250J0D01*
G01*
X21855750Y-39526000D01*
G75*
G02*
X21611500Y-39281750I0J244250D01*
G01*
X21611500Y-38718250D01*
G75*
G02*
X21855750Y-38474000I244250J0D01*
G01*
X22344250Y-38474000D01*
G75*
G02*
X22588500Y-38718250I0J-244250D01*
G01*
G37*
%TD*%
%TO.C,SW3*%
G36*
G01*
X18576000Y-59774500D02*
X18576000Y-60025500D01*
G75*
G02*
X18450500Y-60151000I-125500J0D01*
G01*
X17799500Y-60151000D01*
G75*
G02*
X17674000Y-60025500I0J125500D01*
G01*
X17674000Y-59774500D01*
G75*
G02*
X17799500Y-59649000I125500J0D01*
G01*
X18450500Y-59649000D01*
G75*
G02*
X18576000Y-59774500I0J-125500D01*
G01*
G37*
G36*
G01*
X22326000Y-59774500D02*
X22326000Y-60025500D01*
G75*
G02*
X22200500Y-60151000I-125500J0D01*
G01*
X21549500Y-60151000D01*
G75*
G02*
X21424000Y-60025500I0J125500D01*
G01*
X21424000Y-59774500D01*
G75*
G02*
X21549500Y-59649000I125500J0D01*
G01*
X22200500Y-59649000D01*
G75*
G02*
X22326000Y-59774500I0J-125500D01*
G01*
G37*
G36*
G01*
X18576000Y-61774500D02*
X18576000Y-62025500D01*
G75*
G02*
X18450500Y-62151000I-125500J0D01*
G01*
X17799500Y-62151000D01*
G75*
G02*
X17674000Y-62025500I0J125500D01*
G01*
X17674000Y-61774500D01*
G75*
G02*
X17799500Y-61649000I125500J0D01*
G01*
X18450500Y-61649000D01*
G75*
G02*
X18576000Y-61774500I0J-125500D01*
G01*
G37*
G36*
G01*
X22326000Y-61774500D02*
X22326000Y-62025500D01*
G75*
G02*
X22200500Y-62151000I-125500J0D01*
G01*
X21549500Y-62151000D01*
G75*
G02*
X21424000Y-62025500I0J125500D01*
G01*
X21424000Y-61774500D01*
G75*
G02*
X21549500Y-61649000I125500J0D01*
G01*
X22200500Y-61649000D01*
G75*
G02*
X22326000Y-61774500I0J-125500D01*
G01*
G37*
%TD*%
%TO.C,D11*%
G36*
G01*
X38448000Y-48731000D02*
X38052000Y-48731000D01*
G75*
G02*
X37879000Y-48558000I0J173000D01*
G01*
X37879000Y-48212000D01*
G75*
G02*
X38052000Y-48039000I173000J0D01*
G01*
X38448000Y-48039000D01*
G75*
G02*
X38621000Y-48212000I0J-173000D01*
G01*
X38621000Y-48558000D01*
G75*
G02*
X38448000Y-48731000I-173000J0D01*
G01*
G37*
G36*
G01*
X38448000Y-47761000D02*
X38052000Y-47761000D01*
G75*
G02*
X37879000Y-47588000I0J173000D01*
G01*
X37879000Y-47242000D01*
G75*
G02*
X38052000Y-47069000I173000J0D01*
G01*
X38448000Y-47069000D01*
G75*
G02*
X38621000Y-47242000I0J-173000D01*
G01*
X38621000Y-47588000D01*
G75*
G02*
X38448000Y-47761000I-173000J0D01*
G01*
G37*
%TD*%
%TO.C,D2*%
G36*
G01*
X51948000Y-48731000D02*
X51552000Y-48731000D01*
G75*
G02*
X51379000Y-48558000I0J173000D01*
G01*
X51379000Y-48212000D01*
G75*
G02*
X51552000Y-48039000I173000J0D01*
G01*
X51948000Y-48039000D01*
G75*
G02*
X52121000Y-48212000I0J-173000D01*
G01*
X52121000Y-48558000D01*
G75*
G02*
X51948000Y-48731000I-173000J0D01*
G01*
G37*
G36*
G01*
X51948000Y-47761000D02*
X51552000Y-47761000D01*
G75*
G02*
X51379000Y-47588000I0J173000D01*
G01*
X51379000Y-47242000D01*
G75*
G02*
X51552000Y-47069000I173000J0D01*
G01*
X51948000Y-47069000D01*
G75*
G02*
X52121000Y-47242000I0J-173000D01*
G01*
X52121000Y-47588000D01*
G75*
G02*
X51948000Y-47761000I-173000J0D01*
G01*
G37*
%TD*%
%TO.C,U10*%
G36*
G01*
X70470000Y-46115000D02*
X69930000Y-46115000D01*
G75*
G02*
X69830000Y-46015000I0J100000D01*
G01*
X69830000Y-45815000D01*
G75*
G02*
X69930000Y-45715000I100000J0D01*
G01*
X70470000Y-45715000D01*
G75*
G02*
X70570000Y-45815000I0J-100000D01*
G01*
X70570000Y-46015000D01*
G75*
G02*
X70470000Y-46115000I-100000J0D01*
G01*
G37*
G36*
G01*
X68070000Y-47085000D02*
X67530000Y-47085000D01*
G75*
G02*
X67430000Y-46985000I0J100000D01*
G01*
X67430000Y-46785000D01*
G75*
G02*
X67530000Y-46685000I100000J0D01*
G01*
X68070000Y-46685000D01*
G75*
G02*
X68170000Y-46785000I0J-100000D01*
G01*
X68170000Y-46985000D01*
G75*
G02*
X68070000Y-47085000I-100000J0D01*
G01*
G37*
G36*
G01*
X69270000Y-49920000D02*
X69270000Y-49380000D01*
G75*
G02*
X69370000Y-49280000I100000J0D01*
G01*
X69570000Y-49280000D01*
G75*
G02*
X69670000Y-49380000I0J-100000D01*
G01*
X69670000Y-49920000D01*
G75*
G02*
X69570000Y-50020000I-100000J0D01*
G01*
X69370000Y-50020000D01*
G75*
G02*
X69270000Y-49920000I0J100000D01*
G01*
G37*
G36*
G01*
X68070000Y-49085000D02*
X67530000Y-49085000D01*
G75*
G02*
X67430000Y-48985000I0J100000D01*
G01*
X67430000Y-48785000D01*
G75*
G02*
X67530000Y-48685000I100000J0D01*
G01*
X68070000Y-48685000D01*
G75*
G02*
X68170000Y-48785000I0J-100000D01*
G01*
X68170000Y-48985000D01*
G75*
G02*
X68070000Y-49085000I-100000J0D01*
G01*
G37*
G36*
G01*
X70450000Y-48115000D02*
X69910000Y-48115000D01*
G75*
G02*
X69810000Y-48015000I0J100000D01*
G01*
X69810000Y-47815000D01*
G75*
G02*
X69910000Y-47715000I100000J0D01*
G01*
X70450000Y-47715000D01*
G75*
G02*
X70550000Y-47815000I0J-100000D01*
G01*
X70550000Y-48015000D01*
G75*
G02*
X70450000Y-48115000I-100000J0D01*
G01*
G37*
G36*
G01*
X68315000Y-45420000D02*
X68315000Y-44880000D01*
G75*
G02*
X68415000Y-44780000I100000J0D01*
G01*
X68615000Y-44780000D01*
G75*
G02*
X68715000Y-44880000I0J-100000D01*
G01*
X68715000Y-45420000D01*
G75*
G02*
X68615000Y-45520000I-100000J0D01*
G01*
X68415000Y-45520000D01*
G75*
G02*
X68315000Y-45420000I0J100000D01*
G01*
G37*
G36*
G01*
X68315000Y-47670000D02*
X68315000Y-47130000D01*
G75*
G02*
X68415000Y-47030000I100000J0D01*
G01*
X68615000Y-47030000D01*
G75*
G02*
X68715000Y-47130000I0J-100000D01*
G01*
X68715000Y-47670000D01*
G75*
G02*
X68615000Y-47770000I-100000J0D01*
G01*
X68415000Y-47770000D01*
G75*
G02*
X68315000Y-47670000I0J100000D01*
G01*
G37*
G36*
G01*
X70470000Y-47085000D02*
X69930000Y-47085000D01*
G75*
G02*
X69830000Y-46985000I0J100000D01*
G01*
X69830000Y-46785000D01*
G75*
G02*
X69930000Y-46685000I100000J0D01*
G01*
X70470000Y-46685000D01*
G75*
G02*
X70570000Y-46785000I0J-100000D01*
G01*
X70570000Y-46985000D01*
G75*
G02*
X70470000Y-47085000I-100000J0D01*
G01*
G37*
G36*
G01*
X70450000Y-49085000D02*
X69910000Y-49085000D01*
G75*
G02*
X69810000Y-48985000I0J100000D01*
G01*
X69810000Y-48785000D01*
G75*
G02*
X69910000Y-48685000I100000J0D01*
G01*
X70450000Y-48685000D01*
G75*
G02*
X70550000Y-48785000I0J-100000D01*
G01*
X70550000Y-48985000D01*
G75*
G02*
X70450000Y-49085000I-100000J0D01*
G01*
G37*
G36*
G01*
X68300000Y-49920000D02*
X68300000Y-49380000D01*
G75*
G02*
X68400000Y-49280000I100000J0D01*
G01*
X68600000Y-49280000D01*
G75*
G02*
X68700000Y-49380000I0J-100000D01*
G01*
X68700000Y-49920000D01*
G75*
G02*
X68600000Y-50020000I-100000J0D01*
G01*
X68400000Y-50020000D01*
G75*
G02*
X68300000Y-49920000I0J100000D01*
G01*
G37*
G36*
G01*
X68070000Y-48115000D02*
X67530000Y-48115000D01*
G75*
G02*
X67430000Y-48015000I0J100000D01*
G01*
X67430000Y-47815000D01*
G75*
G02*
X67530000Y-47715000I100000J0D01*
G01*
X68070000Y-47715000D01*
G75*
G02*
X68170000Y-47815000I0J-100000D01*
G01*
X68170000Y-48015000D01*
G75*
G02*
X68070000Y-48115000I-100000J0D01*
G01*
G37*
G36*
G01*
X68070000Y-46115000D02*
X67530000Y-46115000D01*
G75*
G02*
X67430000Y-46015000I0J100000D01*
G01*
X67430000Y-45815000D01*
G75*
G02*
X67530000Y-45715000I100000J0D01*
G01*
X68070000Y-45715000D01*
G75*
G02*
X68170000Y-45815000I0J-100000D01*
G01*
X68170000Y-46015000D01*
G75*
G02*
X68070000Y-46115000I-100000J0D01*
G01*
G37*
G36*
G01*
X69285000Y-45420000D02*
X69285000Y-44880000D01*
G75*
G02*
X69385000Y-44780000I100000J0D01*
G01*
X69585000Y-44780000D01*
G75*
G02*
X69685000Y-44880000I0J-100000D01*
G01*
X69685000Y-45420000D01*
G75*
G02*
X69585000Y-45520000I-100000J0D01*
G01*
X69385000Y-45520000D01*
G75*
G02*
X69285000Y-45420000I0J100000D01*
G01*
G37*
G36*
G01*
X69285000Y-47670000D02*
X69285000Y-47130000D01*
G75*
G02*
X69385000Y-47030000I100000J0D01*
G01*
X69585000Y-47030000D01*
G75*
G02*
X69685000Y-47130000I0J-100000D01*
G01*
X69685000Y-47670000D01*
G75*
G02*
X69585000Y-47770000I-100000J0D01*
G01*
X69385000Y-47770000D01*
G75*
G02*
X69285000Y-47670000I0J100000D01*
G01*
G37*
%TD*%
%TO.C,SW2*%
G36*
G01*
X17674000Y-55025500D02*
X17674000Y-54774500D01*
G75*
G02*
X17799500Y-54649000I125500J0D01*
G01*
X18450500Y-54649000D01*
G75*
G02*
X18576000Y-54774500I0J-125500D01*
G01*
X18576000Y-55025500D01*
G75*
G02*
X18450500Y-55151000I-125500J0D01*
G01*
X17799500Y-55151000D01*
G75*
G02*
X17674000Y-55025500I0J125500D01*
G01*
G37*
G36*
G01*
X21424000Y-55025500D02*
X21424000Y-54774500D01*
G75*
G02*
X21549500Y-54649000I125500J0D01*
G01*
X22200500Y-54649000D01*
G75*
G02*
X22326000Y-54774500I0J-125500D01*
G01*
X22326000Y-55025500D01*
G75*
G02*
X22200500Y-55151000I-125500J0D01*
G01*
X21549500Y-55151000D01*
G75*
G02*
X21424000Y-55025500I0J125500D01*
G01*
G37*
G36*
G01*
X17674000Y-53025500D02*
X17674000Y-52774500D01*
G75*
G02*
X17799500Y-52649000I125500J0D01*
G01*
X18450500Y-52649000D01*
G75*
G02*
X18576000Y-52774500I0J-125500D01*
G01*
X18576000Y-53025500D01*
G75*
G02*
X18450500Y-53151000I-125500J0D01*
G01*
X17799500Y-53151000D01*
G75*
G02*
X17674000Y-53025500I0J125500D01*
G01*
G37*
G36*
G01*
X21424000Y-53025500D02*
X21424000Y-52774500D01*
G75*
G02*
X21549500Y-52649000I125500J0D01*
G01*
X22200500Y-52649000D01*
G75*
G02*
X22326000Y-52774500I0J-125500D01*
G01*
X22326000Y-53025500D01*
G75*
G02*
X22200500Y-53151000I-125500J0D01*
G01*
X21549500Y-53151000D01*
G75*
G02*
X21424000Y-53025500I0J125500D01*
G01*
G37*
%TD*%
%TO.C,D8*%
G36*
G01*
X42948000Y-48731000D02*
X42552000Y-48731000D01*
G75*
G02*
X42379000Y-48558000I0J173000D01*
G01*
X42379000Y-48212000D01*
G75*
G02*
X42552000Y-48039000I173000J0D01*
G01*
X42948000Y-48039000D01*
G75*
G02*
X43121000Y-48212000I0J-173000D01*
G01*
X43121000Y-48558000D01*
G75*
G02*
X42948000Y-48731000I-173000J0D01*
G01*
G37*
G36*
G01*
X42948000Y-47761000D02*
X42552000Y-47761000D01*
G75*
G02*
X42379000Y-47588000I0J173000D01*
G01*
X42379000Y-47242000D01*
G75*
G02*
X42552000Y-47069000I173000J0D01*
G01*
X42948000Y-47069000D01*
G75*
G02*
X43121000Y-47242000I0J-173000D01*
G01*
X43121000Y-47588000D01*
G75*
G02*
X42948000Y-47761000I-173000J0D01*
G01*
G37*
%TD*%
%TO.C,U7*%
G36*
G01*
X58470000Y-46115000D02*
X57930000Y-46115000D01*
G75*
G02*
X57830000Y-46015000I0J100000D01*
G01*
X57830000Y-45815000D01*
G75*
G02*
X57930000Y-45715000I100000J0D01*
G01*
X58470000Y-45715000D01*
G75*
G02*
X58570000Y-45815000I0J-100000D01*
G01*
X58570000Y-46015000D01*
G75*
G02*
X58470000Y-46115000I-100000J0D01*
G01*
G37*
G36*
G01*
X57270000Y-49920000D02*
X57270000Y-49380000D01*
G75*
G02*
X57370000Y-49280000I100000J0D01*
G01*
X57570000Y-49280000D01*
G75*
G02*
X57670000Y-49380000I0J-100000D01*
G01*
X57670000Y-49920000D01*
G75*
G02*
X57570000Y-50020000I-100000J0D01*
G01*
X57370000Y-50020000D01*
G75*
G02*
X57270000Y-49920000I0J100000D01*
G01*
G37*
G36*
G01*
X56315000Y-47670000D02*
X56315000Y-47130000D01*
G75*
G02*
X56415000Y-47030000I100000J0D01*
G01*
X56615000Y-47030000D01*
G75*
G02*
X56715000Y-47130000I0J-100000D01*
G01*
X56715000Y-47670000D01*
G75*
G02*
X56615000Y-47770000I-100000J0D01*
G01*
X56415000Y-47770000D01*
G75*
G02*
X56315000Y-47670000I0J100000D01*
G01*
G37*
G36*
G01*
X56070000Y-47085000D02*
X55530000Y-47085000D01*
G75*
G02*
X55430000Y-46985000I0J100000D01*
G01*
X55430000Y-46785000D01*
G75*
G02*
X55530000Y-46685000I100000J0D01*
G01*
X56070000Y-46685000D01*
G75*
G02*
X56170000Y-46785000I0J-100000D01*
G01*
X56170000Y-46985000D01*
G75*
G02*
X56070000Y-47085000I-100000J0D01*
G01*
G37*
G36*
G01*
X56070000Y-49085000D02*
X55530000Y-49085000D01*
G75*
G02*
X55430000Y-48985000I0J100000D01*
G01*
X55430000Y-48785000D01*
G75*
G02*
X55530000Y-48685000I100000J0D01*
G01*
X56070000Y-48685000D01*
G75*
G02*
X56170000Y-48785000I0J-100000D01*
G01*
X56170000Y-48985000D01*
G75*
G02*
X56070000Y-49085000I-100000J0D01*
G01*
G37*
G36*
G01*
X56315000Y-45420000D02*
X56315000Y-44880000D01*
G75*
G02*
X56415000Y-44780000I100000J0D01*
G01*
X56615000Y-44780000D01*
G75*
G02*
X56715000Y-44880000I0J-100000D01*
G01*
X56715000Y-45420000D01*
G75*
G02*
X56615000Y-45520000I-100000J0D01*
G01*
X56415000Y-45520000D01*
G75*
G02*
X56315000Y-45420000I0J100000D01*
G01*
G37*
G36*
G01*
X58450000Y-48115000D02*
X57910000Y-48115000D01*
G75*
G02*
X57810000Y-48015000I0J100000D01*
G01*
X57810000Y-47815000D01*
G75*
G02*
X57910000Y-47715000I100000J0D01*
G01*
X58450000Y-47715000D01*
G75*
G02*
X58550000Y-47815000I0J-100000D01*
G01*
X58550000Y-48015000D01*
G75*
G02*
X58450000Y-48115000I-100000J0D01*
G01*
G37*
G36*
G01*
X58470000Y-47085000D02*
X57930000Y-47085000D01*
G75*
G02*
X57830000Y-46985000I0J100000D01*
G01*
X57830000Y-46785000D01*
G75*
G02*
X57930000Y-46685000I100000J0D01*
G01*
X58470000Y-46685000D01*
G75*
G02*
X58570000Y-46785000I0J-100000D01*
G01*
X58570000Y-46985000D01*
G75*
G02*
X58470000Y-47085000I-100000J0D01*
G01*
G37*
G36*
G01*
X58450000Y-49085000D02*
X57910000Y-49085000D01*
G75*
G02*
X57810000Y-48985000I0J100000D01*
G01*
X57810000Y-48785000D01*
G75*
G02*
X57910000Y-48685000I100000J0D01*
G01*
X58450000Y-48685000D01*
G75*
G02*
X58550000Y-48785000I0J-100000D01*
G01*
X58550000Y-48985000D01*
G75*
G02*
X58450000Y-49085000I-100000J0D01*
G01*
G37*
G36*
G01*
X56300000Y-49920000D02*
X56300000Y-49380000D01*
G75*
G02*
X56400000Y-49280000I100000J0D01*
G01*
X56600000Y-49280000D01*
G75*
G02*
X56700000Y-49380000I0J-100000D01*
G01*
X56700000Y-49920000D01*
G75*
G02*
X56600000Y-50020000I-100000J0D01*
G01*
X56400000Y-50020000D01*
G75*
G02*
X56300000Y-49920000I0J100000D01*
G01*
G37*
G36*
G01*
X56070000Y-48115000D02*
X55530000Y-48115000D01*
G75*
G02*
X55430000Y-48015000I0J100000D01*
G01*
X55430000Y-47815000D01*
G75*
G02*
X55530000Y-47715000I100000J0D01*
G01*
X56070000Y-47715000D01*
G75*
G02*
X56170000Y-47815000I0J-100000D01*
G01*
X56170000Y-48015000D01*
G75*
G02*
X56070000Y-48115000I-100000J0D01*
G01*
G37*
G36*
G01*
X56070000Y-46115000D02*
X55530000Y-46115000D01*
G75*
G02*
X55430000Y-46015000I0J100000D01*
G01*
X55430000Y-45815000D01*
G75*
G02*
X55530000Y-45715000I100000J0D01*
G01*
X56070000Y-45715000D01*
G75*
G02*
X56170000Y-45815000I0J-100000D01*
G01*
X56170000Y-46015000D01*
G75*
G02*
X56070000Y-46115000I-100000J0D01*
G01*
G37*
G36*
G01*
X57285000Y-45420000D02*
X57285000Y-44880000D01*
G75*
G02*
X57385000Y-44780000I100000J0D01*
G01*
X57585000Y-44780000D01*
G75*
G02*
X57685000Y-44880000I0J-100000D01*
G01*
X57685000Y-45420000D01*
G75*
G02*
X57585000Y-45520000I-100000J0D01*
G01*
X57385000Y-45520000D01*
G75*
G02*
X57285000Y-45420000I0J100000D01*
G01*
G37*
G36*
G01*
X57285000Y-47670000D02*
X57285000Y-47130000D01*
G75*
G02*
X57385000Y-47030000I100000J0D01*
G01*
X57585000Y-47030000D01*
G75*
G02*
X57685000Y-47130000I0J-100000D01*
G01*
X57685000Y-47670000D01*
G75*
G02*
X57585000Y-47770000I-100000J0D01*
G01*
X57385000Y-47770000D01*
G75*
G02*
X57285000Y-47670000I0J100000D01*
G01*
G37*
%TD*%
%TO.C,D16*%
G36*
G01*
X30948000Y-48731000D02*
X30552000Y-48731000D01*
G75*
G02*
X30379000Y-48558000I0J173000D01*
G01*
X30379000Y-48212000D01*
G75*
G02*
X30552000Y-48039000I173000J0D01*
G01*
X30948000Y-48039000D01*
G75*
G02*
X31121000Y-48212000I0J-173000D01*
G01*
X31121000Y-48558000D01*
G75*
G02*
X30948000Y-48731000I-173000J0D01*
G01*
G37*
G36*
G01*
X30948000Y-47761000D02*
X30552000Y-47761000D01*
G75*
G02*
X30379000Y-47588000I0J173000D01*
G01*
X30379000Y-47242000D01*
G75*
G02*
X30552000Y-47069000I173000J0D01*
G01*
X30948000Y-47069000D01*
G75*
G02*
X31121000Y-47242000I0J-173000D01*
G01*
X31121000Y-47588000D01*
G75*
G02*
X30948000Y-47761000I-173000J0D01*
G01*
G37*
%TD*%
%TO.C,Q1*%
G36*
G01*
X15849000Y-42600000D02*
X15849000Y-42200000D01*
G75*
G02*
X15900000Y-42149000I51000J0D01*
G01*
X16600000Y-42149000D01*
G75*
G02*
X16651000Y-42200000I0J-51000D01*
G01*
X16651000Y-42600000D01*
G75*
G02*
X16600000Y-42651000I-51000J0D01*
G01*
X15900000Y-42651000D01*
G75*
G02*
X15849000Y-42600000I0J51000D01*
G01*
G37*
G36*
G01*
X15849000Y-43100000D02*
X15849000Y-42700000D01*
G75*
G02*
X15900000Y-42649000I51000J0D01*
G01*
X16600000Y-42649000D01*
G75*
G02*
X16651000Y-42700000I0J-51000D01*
G01*
X16651000Y-43100000D01*
G75*
G02*
X16600000Y-43151000I-51000J0D01*
G01*
X15900000Y-43151000D01*
G75*
G02*
X15849000Y-43100000I0J51000D01*
G01*
G37*
G36*
G01*
X15849000Y-43600000D02*
X15849000Y-43200000D01*
G75*
G02*
X15900000Y-43149000I51000J0D01*
G01*
X16600000Y-43149000D01*
G75*
G02*
X16651000Y-43200000I0J-51000D01*
G01*
X16651000Y-43600000D01*
G75*
G02*
X16600000Y-43651000I-51000J0D01*
G01*
X15900000Y-43651000D01*
G75*
G02*
X15849000Y-43600000I0J51000D01*
G01*
G37*
G36*
G01*
X17349000Y-43600000D02*
X17349000Y-43200000D01*
G75*
G02*
X17400000Y-43149000I51000J0D01*
G01*
X18100000Y-43149000D01*
G75*
G02*
X18151000Y-43200000I0J-51000D01*
G01*
X18151000Y-43600000D01*
G75*
G02*
X18100000Y-43651000I-51000J0D01*
G01*
X17400000Y-43651000D01*
G75*
G02*
X17349000Y-43600000I0J51000D01*
G01*
G37*
G36*
G01*
X17349000Y-43100000D02*
X17349000Y-42700000D01*
G75*
G02*
X17400000Y-42649000I51000J0D01*
G01*
X18100000Y-42649000D01*
G75*
G02*
X18151000Y-42700000I0J-51000D01*
G01*
X18151000Y-43100000D01*
G75*
G02*
X18100000Y-43151000I-51000J0D01*
G01*
X17400000Y-43151000D01*
G75*
G02*
X17349000Y-43100000I0J51000D01*
G01*
G37*
G36*
G01*
X17349000Y-42600000D02*
X17349000Y-42200000D01*
G75*
G02*
X17400000Y-42149000I51000J0D01*
G01*
X18100000Y-42149000D01*
G75*
G02*
X18151000Y-42200000I0J-51000D01*
G01*
X18151000Y-42600000D01*
G75*
G02*
X18100000Y-42651000I-51000J0D01*
G01*
X17400000Y-42651000D01*
G75*
G02*
X17349000Y-42600000I0J51000D01*
G01*
G37*
%TD*%
%TO.C,SW6*%
G36*
G01*
X61674000Y-55025500D02*
X61674000Y-54774500D01*
G75*
G02*
X61799500Y-54649000I125500J0D01*
G01*
X62450500Y-54649000D01*
G75*
G02*
X62576000Y-54774500I0J-125500D01*
G01*
X62576000Y-55025500D01*
G75*
G02*
X62450500Y-55151000I-125500J0D01*
G01*
X61799500Y-55151000D01*
G75*
G02*
X61674000Y-55025500I0J125500D01*
G01*
G37*
G36*
G01*
X65424000Y-55025500D02*
X65424000Y-54774500D01*
G75*
G02*
X65549500Y-54649000I125500J0D01*
G01*
X66200500Y-54649000D01*
G75*
G02*
X66326000Y-54774500I0J-125500D01*
G01*
X66326000Y-55025500D01*
G75*
G02*
X66200500Y-55151000I-125500J0D01*
G01*
X65549500Y-55151000D01*
G75*
G02*
X65424000Y-55025500I0J125500D01*
G01*
G37*
G36*
G01*
X65424000Y-53025500D02*
X65424000Y-52774500D01*
G75*
G02*
X65549500Y-52649000I125500J0D01*
G01*
X66200500Y-52649000D01*
G75*
G02*
X66326000Y-52774500I0J-125500D01*
G01*
X66326000Y-53025500D01*
G75*
G02*
X66200500Y-53151000I-125500J0D01*
G01*
X65549500Y-53151000D01*
G75*
G02*
X65424000Y-53025500I0J125500D01*
G01*
G37*
G36*
G01*
X61674000Y-53025500D02*
X61674000Y-52774500D01*
G75*
G02*
X61799500Y-52649000I125500J0D01*
G01*
X62450500Y-52649000D01*
G75*
G02*
X62576000Y-52774500I0J-125500D01*
G01*
X62576000Y-53025500D01*
G75*
G02*
X62450500Y-53151000I-125500J0D01*
G01*
X61799500Y-53151000D01*
G75*
G02*
X61674000Y-53025500I0J125500D01*
G01*
G37*
%TD*%
%TO.C,D7*%
G36*
G01*
X44448000Y-48731000D02*
X44052000Y-48731000D01*
G75*
G02*
X43879000Y-48558000I0J173000D01*
G01*
X43879000Y-48212000D01*
G75*
G02*
X44052000Y-48039000I173000J0D01*
G01*
X44448000Y-48039000D01*
G75*
G02*
X44621000Y-48212000I0J-173000D01*
G01*
X44621000Y-48558000D01*
G75*
G02*
X44448000Y-48731000I-173000J0D01*
G01*
G37*
G36*
G01*
X44448000Y-47761000D02*
X44052000Y-47761000D01*
G75*
G02*
X43879000Y-47588000I0J173000D01*
G01*
X43879000Y-47242000D01*
G75*
G02*
X44052000Y-47069000I173000J0D01*
G01*
X44448000Y-47069000D01*
G75*
G02*
X44621000Y-47242000I0J-173000D01*
G01*
X44621000Y-47588000D01*
G75*
G02*
X44448000Y-47761000I-173000J0D01*
G01*
G37*
%TD*%
%TO.C,Q3*%
G36*
G01*
X57849000Y-42600000D02*
X57849000Y-42200000D01*
G75*
G02*
X57900000Y-42149000I51000J0D01*
G01*
X58600000Y-42149000D01*
G75*
G02*
X58651000Y-42200000I0J-51000D01*
G01*
X58651000Y-42600000D01*
G75*
G02*
X58600000Y-42651000I-51000J0D01*
G01*
X57900000Y-42651000D01*
G75*
G02*
X57849000Y-42600000I0J51000D01*
G01*
G37*
G36*
G01*
X57849000Y-43100000D02*
X57849000Y-42700000D01*
G75*
G02*
X57900000Y-42649000I51000J0D01*
G01*
X58600000Y-42649000D01*
G75*
G02*
X58651000Y-42700000I0J-51000D01*
G01*
X58651000Y-43100000D01*
G75*
G02*
X58600000Y-43151000I-51000J0D01*
G01*
X57900000Y-43151000D01*
G75*
G02*
X57849000Y-43100000I0J51000D01*
G01*
G37*
G36*
G01*
X57849000Y-43600000D02*
X57849000Y-43200000D01*
G75*
G02*
X57900000Y-43149000I51000J0D01*
G01*
X58600000Y-43149000D01*
G75*
G02*
X58651000Y-43200000I0J-51000D01*
G01*
X58651000Y-43600000D01*
G75*
G02*
X58600000Y-43651000I-51000J0D01*
G01*
X57900000Y-43651000D01*
G75*
G02*
X57849000Y-43600000I0J51000D01*
G01*
G37*
G36*
G01*
X59349000Y-43600000D02*
X59349000Y-43200000D01*
G75*
G02*
X59400000Y-43149000I51000J0D01*
G01*
X60100000Y-43149000D01*
G75*
G02*
X60151000Y-43200000I0J-51000D01*
G01*
X60151000Y-43600000D01*
G75*
G02*
X60100000Y-43651000I-51000J0D01*
G01*
X59400000Y-43651000D01*
G75*
G02*
X59349000Y-43600000I0J51000D01*
G01*
G37*
G36*
G01*
X59349000Y-43100000D02*
X59349000Y-42700000D01*
G75*
G02*
X59400000Y-42649000I51000J0D01*
G01*
X60100000Y-42649000D01*
G75*
G02*
X60151000Y-42700000I0J-51000D01*
G01*
X60151000Y-43100000D01*
G75*
G02*
X60100000Y-43151000I-51000J0D01*
G01*
X59400000Y-43151000D01*
G75*
G02*
X59349000Y-43100000I0J51000D01*
G01*
G37*
G36*
G01*
X59349000Y-42600000D02*
X59349000Y-42200000D01*
G75*
G02*
X59400000Y-42149000I51000J0D01*
G01*
X60100000Y-42149000D01*
G75*
G02*
X60151000Y-42200000I0J-51000D01*
G01*
X60151000Y-42600000D01*
G75*
G02*
X60100000Y-42651000I-51000J0D01*
G01*
X59400000Y-42651000D01*
G75*
G02*
X59349000Y-42600000I0J51000D01*
G01*
G37*
%TD*%
%TO.C,D14*%
G36*
G01*
X33948000Y-48731000D02*
X33552000Y-48731000D01*
G75*
G02*
X33379000Y-48558000I0J173000D01*
G01*
X33379000Y-48212000D01*
G75*
G02*
X33552000Y-48039000I173000J0D01*
G01*
X33948000Y-48039000D01*
G75*
G02*
X34121000Y-48212000I0J-173000D01*
G01*
X34121000Y-48558000D01*
G75*
G02*
X33948000Y-48731000I-173000J0D01*
G01*
G37*
G36*
G01*
X33948000Y-47761000D02*
X33552000Y-47761000D01*
G75*
G02*
X33379000Y-47588000I0J173000D01*
G01*
X33379000Y-47242000D01*
G75*
G02*
X33552000Y-47069000I173000J0D01*
G01*
X33948000Y-47069000D01*
G75*
G02*
X34121000Y-47242000I0J-173000D01*
G01*
X34121000Y-47588000D01*
G75*
G02*
X33948000Y-47761000I-173000J0D01*
G01*
G37*
%TD*%
%TO.C,SW8*%
G36*
G01*
X66874500Y-58824000D02*
X67125500Y-58824000D01*
G75*
G02*
X67251000Y-58949500I0J-125500D01*
G01*
X67251000Y-59600500D01*
G75*
G02*
X67125500Y-59726000I-125500J0D01*
G01*
X66874500Y-59726000D01*
G75*
G02*
X66749000Y-59600500I0J125500D01*
G01*
X66749000Y-58949500D01*
G75*
G02*
X66874500Y-58824000I125500J0D01*
G01*
G37*
G36*
G01*
X66874500Y-55074000D02*
X67125500Y-55074000D01*
G75*
G02*
X67251000Y-55199500I0J-125500D01*
G01*
X67251000Y-55850500D01*
G75*
G02*
X67125500Y-55976000I-125500J0D01*
G01*
X66874500Y-55976000D01*
G75*
G02*
X66749000Y-55850500I0J125500D01*
G01*
X66749000Y-55199500D01*
G75*
G02*
X66874500Y-55074000I125500J0D01*
G01*
G37*
G36*
G01*
X68874500Y-58824000D02*
X69125500Y-58824000D01*
G75*
G02*
X69251000Y-58949500I0J-125500D01*
G01*
X69251000Y-59600500D01*
G75*
G02*
X69125500Y-59726000I-125500J0D01*
G01*
X68874500Y-59726000D01*
G75*
G02*
X68749000Y-59600500I0J125500D01*
G01*
X68749000Y-58949500D01*
G75*
G02*
X68874500Y-58824000I125500J0D01*
G01*
G37*
G36*
G01*
X68874500Y-55074000D02*
X69125500Y-55074000D01*
G75*
G02*
X69251000Y-55199500I0J-125500D01*
G01*
X69251000Y-55850500D01*
G75*
G02*
X69125500Y-55976000I-125500J0D01*
G01*
X68874500Y-55976000D01*
G75*
G02*
X68749000Y-55850500I0J125500D01*
G01*
X68749000Y-55199500D01*
G75*
G02*
X68874500Y-55074000I125500J0D01*
G01*
G37*
%TD*%
%TO.C,D13*%
G36*
G01*
X35448000Y-48731000D02*
X35052000Y-48731000D01*
G75*
G02*
X34879000Y-48558000I0J173000D01*
G01*
X34879000Y-48212000D01*
G75*
G02*
X35052000Y-48039000I173000J0D01*
G01*
X35448000Y-48039000D01*
G75*
G02*
X35621000Y-48212000I0J-173000D01*
G01*
X35621000Y-48558000D01*
G75*
G02*
X35448000Y-48731000I-173000J0D01*
G01*
G37*
G36*
G01*
X35448000Y-47761000D02*
X35052000Y-47761000D01*
G75*
G02*
X34879000Y-47588000I0J173000D01*
G01*
X34879000Y-47242000D01*
G75*
G02*
X35052000Y-47069000I173000J0D01*
G01*
X35448000Y-47069000D01*
G75*
G02*
X35621000Y-47242000I0J-173000D01*
G01*
X35621000Y-47588000D01*
G75*
G02*
X35448000Y-47761000I-173000J0D01*
G01*
G37*
%TD*%
%TO.C,U8*%
G36*
G01*
X61255000Y-49920000D02*
X61255000Y-49380000D01*
G75*
G02*
X61355000Y-49280000I100000J0D01*
G01*
X61555000Y-49280000D01*
G75*
G02*
X61655000Y-49380000I0J-100000D01*
G01*
X61655000Y-49920000D01*
G75*
G02*
X61555000Y-50020000I-100000J0D01*
G01*
X61355000Y-50020000D01*
G75*
G02*
X61255000Y-49920000I0J100000D01*
G01*
G37*
G36*
G01*
X62455000Y-46115000D02*
X61915000Y-46115000D01*
G75*
G02*
X61815000Y-46015000I0J100000D01*
G01*
X61815000Y-45815000D01*
G75*
G02*
X61915000Y-45715000I100000J0D01*
G01*
X62455000Y-45715000D01*
G75*
G02*
X62555000Y-45815000I0J-100000D01*
G01*
X62555000Y-46015000D01*
G75*
G02*
X62455000Y-46115000I-100000J0D01*
G01*
G37*
G36*
G01*
X60055000Y-47085000D02*
X59515000Y-47085000D01*
G75*
G02*
X59415000Y-46985000I0J100000D01*
G01*
X59415000Y-46785000D01*
G75*
G02*
X59515000Y-46685000I100000J0D01*
G01*
X60055000Y-46685000D01*
G75*
G02*
X60155000Y-46785000I0J-100000D01*
G01*
X60155000Y-46985000D01*
G75*
G02*
X60055000Y-47085000I-100000J0D01*
G01*
G37*
G36*
G01*
X62435000Y-48115000D02*
X61895000Y-48115000D01*
G75*
G02*
X61795000Y-48015000I0J100000D01*
G01*
X61795000Y-47815000D01*
G75*
G02*
X61895000Y-47715000I100000J0D01*
G01*
X62435000Y-47715000D01*
G75*
G02*
X62535000Y-47815000I0J-100000D01*
G01*
X62535000Y-48015000D01*
G75*
G02*
X62435000Y-48115000I-100000J0D01*
G01*
G37*
G36*
G01*
X60300000Y-45420000D02*
X60300000Y-44880000D01*
G75*
G02*
X60400000Y-44780000I100000J0D01*
G01*
X60600000Y-44780000D01*
G75*
G02*
X60700000Y-44880000I0J-100000D01*
G01*
X60700000Y-45420000D01*
G75*
G02*
X60600000Y-45520000I-100000J0D01*
G01*
X60400000Y-45520000D01*
G75*
G02*
X60300000Y-45420000I0J100000D01*
G01*
G37*
G36*
G01*
X60300000Y-47670000D02*
X60300000Y-47130000D01*
G75*
G02*
X60400000Y-47030000I100000J0D01*
G01*
X60600000Y-47030000D01*
G75*
G02*
X60700000Y-47130000I0J-100000D01*
G01*
X60700000Y-47670000D01*
G75*
G02*
X60600000Y-47770000I-100000J0D01*
G01*
X60400000Y-47770000D01*
G75*
G02*
X60300000Y-47670000I0J100000D01*
G01*
G37*
G36*
G01*
X60055000Y-49085000D02*
X59515000Y-49085000D01*
G75*
G02*
X59415000Y-48985000I0J100000D01*
G01*
X59415000Y-48785000D01*
G75*
G02*
X59515000Y-48685000I100000J0D01*
G01*
X60055000Y-48685000D01*
G75*
G02*
X60155000Y-48785000I0J-100000D01*
G01*
X60155000Y-48985000D01*
G75*
G02*
X60055000Y-49085000I-100000J0D01*
G01*
G37*
G36*
G01*
X62455000Y-47085000D02*
X61915000Y-47085000D01*
G75*
G02*
X61815000Y-46985000I0J100000D01*
G01*
X61815000Y-46785000D01*
G75*
G02*
X61915000Y-46685000I100000J0D01*
G01*
X62455000Y-46685000D01*
G75*
G02*
X62555000Y-46785000I0J-100000D01*
G01*
X62555000Y-46985000D01*
G75*
G02*
X62455000Y-47085000I-100000J0D01*
G01*
G37*
G36*
G01*
X62435000Y-49085000D02*
X61895000Y-49085000D01*
G75*
G02*
X61795000Y-48985000I0J100000D01*
G01*
X61795000Y-48785000D01*
G75*
G02*
X61895000Y-48685000I100000J0D01*
G01*
X62435000Y-48685000D01*
G75*
G02*
X62535000Y-48785000I0J-100000D01*
G01*
X62535000Y-48985000D01*
G75*
G02*
X62435000Y-49085000I-100000J0D01*
G01*
G37*
G36*
G01*
X60285000Y-49920000D02*
X60285000Y-49380000D01*
G75*
G02*
X60385000Y-49280000I100000J0D01*
G01*
X60585000Y-49280000D01*
G75*
G02*
X60685000Y-49380000I0J-100000D01*
G01*
X60685000Y-49920000D01*
G75*
G02*
X60585000Y-50020000I-100000J0D01*
G01*
X60385000Y-50020000D01*
G75*
G02*
X60285000Y-49920000I0J100000D01*
G01*
G37*
G36*
G01*
X60055000Y-48115000D02*
X59515000Y-48115000D01*
G75*
G02*
X59415000Y-48015000I0J100000D01*
G01*
X59415000Y-47815000D01*
G75*
G02*
X59515000Y-47715000I100000J0D01*
G01*
X60055000Y-47715000D01*
G75*
G02*
X60155000Y-47815000I0J-100000D01*
G01*
X60155000Y-48015000D01*
G75*
G02*
X60055000Y-48115000I-100000J0D01*
G01*
G37*
G36*
G01*
X60055000Y-46115000D02*
X59515000Y-46115000D01*
G75*
G02*
X59415000Y-46015000I0J100000D01*
G01*
X59415000Y-45815000D01*
G75*
G02*
X59515000Y-45715000I100000J0D01*
G01*
X60055000Y-45715000D01*
G75*
G02*
X60155000Y-45815000I0J-100000D01*
G01*
X60155000Y-46015000D01*
G75*
G02*
X60055000Y-46115000I-100000J0D01*
G01*
G37*
G36*
G01*
X61270000Y-45420000D02*
X61270000Y-44880000D01*
G75*
G02*
X61370000Y-44780000I100000J0D01*
G01*
X61570000Y-44780000D01*
G75*
G02*
X61670000Y-44880000I0J-100000D01*
G01*
X61670000Y-45420000D01*
G75*
G02*
X61570000Y-45520000I-100000J0D01*
G01*
X61370000Y-45520000D01*
G75*
G02*
X61270000Y-45420000I0J100000D01*
G01*
G37*
G36*
G01*
X61270000Y-47670000D02*
X61270000Y-47130000D01*
G75*
G02*
X61370000Y-47030000I100000J0D01*
G01*
X61570000Y-47030000D01*
G75*
G02*
X61670000Y-47130000I0J-100000D01*
G01*
X61670000Y-47670000D01*
G75*
G02*
X61570000Y-47770000I-100000J0D01*
G01*
X61370000Y-47770000D01*
G75*
G02*
X61270000Y-47670000I0J100000D01*
G01*
G37*
%TD*%
%TO.C,Q2*%
G36*
G01*
X23849000Y-42600000D02*
X23849000Y-42200000D01*
G75*
G02*
X23900000Y-42149000I51000J0D01*
G01*
X24600000Y-42149000D01*
G75*
G02*
X24651000Y-42200000I0J-51000D01*
G01*
X24651000Y-42600000D01*
G75*
G02*
X24600000Y-42651000I-51000J0D01*
G01*
X23900000Y-42651000D01*
G75*
G02*
X23849000Y-42600000I0J51000D01*
G01*
G37*
G36*
G01*
X23849000Y-43100000D02*
X23849000Y-42700000D01*
G75*
G02*
X23900000Y-42649000I51000J0D01*
G01*
X24600000Y-42649000D01*
G75*
G02*
X24651000Y-42700000I0J-51000D01*
G01*
X24651000Y-43100000D01*
G75*
G02*
X24600000Y-43151000I-51000J0D01*
G01*
X23900000Y-43151000D01*
G75*
G02*
X23849000Y-43100000I0J51000D01*
G01*
G37*
G36*
G01*
X23849000Y-43600000D02*
X23849000Y-43200000D01*
G75*
G02*
X23900000Y-43149000I51000J0D01*
G01*
X24600000Y-43149000D01*
G75*
G02*
X24651000Y-43200000I0J-51000D01*
G01*
X24651000Y-43600000D01*
G75*
G02*
X24600000Y-43651000I-51000J0D01*
G01*
X23900000Y-43651000D01*
G75*
G02*
X23849000Y-43600000I0J51000D01*
G01*
G37*
G36*
G01*
X25349000Y-43600000D02*
X25349000Y-43200000D01*
G75*
G02*
X25400000Y-43149000I51000J0D01*
G01*
X26100000Y-43149000D01*
G75*
G02*
X26151000Y-43200000I0J-51000D01*
G01*
X26151000Y-43600000D01*
G75*
G02*
X26100000Y-43651000I-51000J0D01*
G01*
X25400000Y-43651000D01*
G75*
G02*
X25349000Y-43600000I0J51000D01*
G01*
G37*
G36*
G01*
X25349000Y-43100000D02*
X25349000Y-42700000D01*
G75*
G02*
X25400000Y-42649000I51000J0D01*
G01*
X26100000Y-42649000D01*
G75*
G02*
X26151000Y-42700000I0J-51000D01*
G01*
X26151000Y-43100000D01*
G75*
G02*
X26100000Y-43151000I-51000J0D01*
G01*
X25400000Y-43151000D01*
G75*
G02*
X25349000Y-43100000I0J51000D01*
G01*
G37*
G36*
G01*
X25349000Y-42600000D02*
X25349000Y-42200000D01*
G75*
G02*
X25400000Y-42149000I51000J0D01*
G01*
X26100000Y-42149000D01*
G75*
G02*
X26151000Y-42200000I0J-51000D01*
G01*
X26151000Y-42600000D01*
G75*
G02*
X26100000Y-42651000I-51000J0D01*
G01*
X25400000Y-42651000D01*
G75*
G02*
X25349000Y-42600000I0J51000D01*
G01*
G37*
%TD*%
%TO.C,D12*%
G36*
G01*
X36948000Y-48731000D02*
X36552000Y-48731000D01*
G75*
G02*
X36379000Y-48558000I0J173000D01*
G01*
X36379000Y-48212000D01*
G75*
G02*
X36552000Y-48039000I173000J0D01*
G01*
X36948000Y-48039000D01*
G75*
G02*
X37121000Y-48212000I0J-173000D01*
G01*
X37121000Y-48558000D01*
G75*
G02*
X36948000Y-48731000I-173000J0D01*
G01*
G37*
G36*
G01*
X36948000Y-47761000D02*
X36552000Y-47761000D01*
G75*
G02*
X36379000Y-47588000I0J173000D01*
G01*
X36379000Y-47242000D01*
G75*
G02*
X36552000Y-47069000I173000J0D01*
G01*
X36948000Y-47069000D01*
G75*
G02*
X37121000Y-47242000I0J-173000D01*
G01*
X37121000Y-47588000D01*
G75*
G02*
X36948000Y-47761000I-173000J0D01*
G01*
G37*
%TD*%
%TO.C,D9*%
G36*
G01*
X41448000Y-48731000D02*
X41052000Y-48731000D01*
G75*
G02*
X40879000Y-48558000I0J173000D01*
G01*
X40879000Y-48212000D01*
G75*
G02*
X41052000Y-48039000I173000J0D01*
G01*
X41448000Y-48039000D01*
G75*
G02*
X41621000Y-48212000I0J-173000D01*
G01*
X41621000Y-48558000D01*
G75*
G02*
X41448000Y-48731000I-173000J0D01*
G01*
G37*
G36*
G01*
X41448000Y-47761000D02*
X41052000Y-47761000D01*
G75*
G02*
X40879000Y-47588000I0J173000D01*
G01*
X40879000Y-47242000D01*
G75*
G02*
X41052000Y-47069000I173000J0D01*
G01*
X41448000Y-47069000D01*
G75*
G02*
X41621000Y-47242000I0J-173000D01*
G01*
X41621000Y-47588000D01*
G75*
G02*
X41448000Y-47761000I-173000J0D01*
G01*
G37*
%TD*%
%TO.C,U9*%
G36*
G01*
X66470000Y-46115000D02*
X65930000Y-46115000D01*
G75*
G02*
X65830000Y-46015000I0J100000D01*
G01*
X65830000Y-45815000D01*
G75*
G02*
X65930000Y-45715000I100000J0D01*
G01*
X66470000Y-45715000D01*
G75*
G02*
X66570000Y-45815000I0J-100000D01*
G01*
X66570000Y-46015000D01*
G75*
G02*
X66470000Y-46115000I-100000J0D01*
G01*
G37*
G36*
G01*
X64315000Y-45420000D02*
X64315000Y-44880000D01*
G75*
G02*
X64415000Y-44780000I100000J0D01*
G01*
X64615000Y-44780000D01*
G75*
G02*
X64715000Y-44880000I0J-100000D01*
G01*
X64715000Y-45420000D01*
G75*
G02*
X64615000Y-45520000I-100000J0D01*
G01*
X64415000Y-45520000D01*
G75*
G02*
X64315000Y-45420000I0J100000D01*
G01*
G37*
G36*
G01*
X64315000Y-47670000D02*
X64315000Y-47130000D01*
G75*
G02*
X64415000Y-47030000I100000J0D01*
G01*
X64615000Y-47030000D01*
G75*
G02*
X64715000Y-47130000I0J-100000D01*
G01*
X64715000Y-47670000D01*
G75*
G02*
X64615000Y-47770000I-100000J0D01*
G01*
X64415000Y-47770000D01*
G75*
G02*
X64315000Y-47670000I0J100000D01*
G01*
G37*
G36*
G01*
X64070000Y-47085000D02*
X63530000Y-47085000D01*
G75*
G02*
X63430000Y-46985000I0J100000D01*
G01*
X63430000Y-46785000D01*
G75*
G02*
X63530000Y-46685000I100000J0D01*
G01*
X64070000Y-46685000D01*
G75*
G02*
X64170000Y-46785000I0J-100000D01*
G01*
X64170000Y-46985000D01*
G75*
G02*
X64070000Y-47085000I-100000J0D01*
G01*
G37*
G36*
G01*
X64070000Y-49085000D02*
X63530000Y-49085000D01*
G75*
G02*
X63430000Y-48985000I0J100000D01*
G01*
X63430000Y-48785000D01*
G75*
G02*
X63530000Y-48685000I100000J0D01*
G01*
X64070000Y-48685000D01*
G75*
G02*
X64170000Y-48785000I0J-100000D01*
G01*
X64170000Y-48985000D01*
G75*
G02*
X64070000Y-49085000I-100000J0D01*
G01*
G37*
G36*
G01*
X65270000Y-49920000D02*
X65270000Y-49380000D01*
G75*
G02*
X65370000Y-49280000I100000J0D01*
G01*
X65570000Y-49280000D01*
G75*
G02*
X65670000Y-49380000I0J-100000D01*
G01*
X65670000Y-49920000D01*
G75*
G02*
X65570000Y-50020000I-100000J0D01*
G01*
X65370000Y-50020000D01*
G75*
G02*
X65270000Y-49920000I0J100000D01*
G01*
G37*
G36*
G01*
X66450000Y-48115000D02*
X65910000Y-48115000D01*
G75*
G02*
X65810000Y-48015000I0J100000D01*
G01*
X65810000Y-47815000D01*
G75*
G02*
X65910000Y-47715000I100000J0D01*
G01*
X66450000Y-47715000D01*
G75*
G02*
X66550000Y-47815000I0J-100000D01*
G01*
X66550000Y-48015000D01*
G75*
G02*
X66450000Y-48115000I-100000J0D01*
G01*
G37*
G36*
G01*
X66470000Y-47085000D02*
X65930000Y-47085000D01*
G75*
G02*
X65830000Y-46985000I0J100000D01*
G01*
X65830000Y-46785000D01*
G75*
G02*
X65930000Y-46685000I100000J0D01*
G01*
X66470000Y-46685000D01*
G75*
G02*
X66570000Y-46785000I0J-100000D01*
G01*
X66570000Y-46985000D01*
G75*
G02*
X66470000Y-47085000I-100000J0D01*
G01*
G37*
G36*
G01*
X66450000Y-49085000D02*
X65910000Y-49085000D01*
G75*
G02*
X65810000Y-48985000I0J100000D01*
G01*
X65810000Y-48785000D01*
G75*
G02*
X65910000Y-48685000I100000J0D01*
G01*
X66450000Y-48685000D01*
G75*
G02*
X66550000Y-48785000I0J-100000D01*
G01*
X66550000Y-48985000D01*
G75*
G02*
X66450000Y-49085000I-100000J0D01*
G01*
G37*
G36*
G01*
X64300000Y-49920000D02*
X64300000Y-49380000D01*
G75*
G02*
X64400000Y-49280000I100000J0D01*
G01*
X64600000Y-49280000D01*
G75*
G02*
X64700000Y-49380000I0J-100000D01*
G01*
X64700000Y-49920000D01*
G75*
G02*
X64600000Y-50020000I-100000J0D01*
G01*
X64400000Y-50020000D01*
G75*
G02*
X64300000Y-49920000I0J100000D01*
G01*
G37*
G36*
G01*
X64070000Y-48115000D02*
X63530000Y-48115000D01*
G75*
G02*
X63430000Y-48015000I0J100000D01*
G01*
X63430000Y-47815000D01*
G75*
G02*
X63530000Y-47715000I100000J0D01*
G01*
X64070000Y-47715000D01*
G75*
G02*
X64170000Y-47815000I0J-100000D01*
G01*
X64170000Y-48015000D01*
G75*
G02*
X64070000Y-48115000I-100000J0D01*
G01*
G37*
G36*
G01*
X64070000Y-46115000D02*
X63530000Y-46115000D01*
G75*
G02*
X63430000Y-46015000I0J100000D01*
G01*
X63430000Y-45815000D01*
G75*
G02*
X63530000Y-45715000I100000J0D01*
G01*
X64070000Y-45715000D01*
G75*
G02*
X64170000Y-45815000I0J-100000D01*
G01*
X64170000Y-46015000D01*
G75*
G02*
X64070000Y-46115000I-100000J0D01*
G01*
G37*
G36*
G01*
X65285000Y-45420000D02*
X65285000Y-44880000D01*
G75*
G02*
X65385000Y-44780000I100000J0D01*
G01*
X65585000Y-44780000D01*
G75*
G02*
X65685000Y-44880000I0J-100000D01*
G01*
X65685000Y-45420000D01*
G75*
G02*
X65585000Y-45520000I-100000J0D01*
G01*
X65385000Y-45520000D01*
G75*
G02*
X65285000Y-45420000I0J100000D01*
G01*
G37*
G36*
G01*
X65285000Y-47670000D02*
X65285000Y-47130000D01*
G75*
G02*
X65385000Y-47030000I100000J0D01*
G01*
X65585000Y-47030000D01*
G75*
G02*
X65685000Y-47130000I0J-100000D01*
G01*
X65685000Y-47670000D01*
G75*
G02*
X65585000Y-47770000I-100000J0D01*
G01*
X65385000Y-47770000D01*
G75*
G02*
X65285000Y-47670000I0J100000D01*
G01*
G37*
%TD*%
%TO.C,J2*%
G36*
G01*
X16701000Y-35200000D02*
X16701000Y-37800000D01*
G75*
G02*
X16650000Y-37851000I-51000J0D01*
G01*
X16350000Y-37851000D01*
G75*
G02*
X16299000Y-37800000I0J51000D01*
G01*
X16299000Y-35200000D01*
G75*
G02*
X16350000Y-35149000I51000J0D01*
G01*
X16650000Y-35149000D01*
G75*
G02*
X16701000Y-35200000I0J-51000D01*
G01*
G37*
G36*
G01*
X17201000Y-35200000D02*
X17201000Y-37800000D01*
G75*
G02*
X17150000Y-37851000I-51000J0D01*
G01*
X16850000Y-37851000D01*
G75*
G02*
X16799000Y-37800000I0J51000D01*
G01*
X16799000Y-35200000D01*
G75*
G02*
X16850000Y-35149000I51000J0D01*
G01*
X17150000Y-35149000D01*
G75*
G02*
X17201000Y-35200000I0J-51000D01*
G01*
G37*
G36*
G01*
X17701000Y-35200000D02*
X17701000Y-37800000D01*
G75*
G02*
X17650000Y-37851000I-51000J0D01*
G01*
X17350000Y-37851000D01*
G75*
G02*
X17299000Y-37800000I0J51000D01*
G01*
X17299000Y-35200000D01*
G75*
G02*
X17350000Y-35149000I51000J0D01*
G01*
X17650000Y-35149000D01*
G75*
G02*
X17701000Y-35200000I0J-51000D01*
G01*
G37*
G36*
G01*
X18201000Y-35200000D02*
X18201000Y-37800000D01*
G75*
G02*
X18150000Y-37851000I-51000J0D01*
G01*
X17850000Y-37851000D01*
G75*
G02*
X17799000Y-37800000I0J51000D01*
G01*
X17799000Y-35200000D01*
G75*
G02*
X17850000Y-35149000I51000J0D01*
G01*
X18150000Y-35149000D01*
G75*
G02*
X18201000Y-35200000I0J-51000D01*
G01*
G37*
G36*
G01*
X18701000Y-35200000D02*
X18701000Y-37800000D01*
G75*
G02*
X18650000Y-37851000I-51000J0D01*
G01*
X18350000Y-37851000D01*
G75*
G02*
X18299000Y-37800000I0J51000D01*
G01*
X18299000Y-35200000D01*
G75*
G02*
X18350000Y-35149000I51000J0D01*
G01*
X18650000Y-35149000D01*
G75*
G02*
X18701000Y-35200000I0J-51000D01*
G01*
G37*
G36*
G01*
X19201000Y-35200000D02*
X19201000Y-37800000D01*
G75*
G02*
X19150000Y-37851000I-51000J0D01*
G01*
X18850000Y-37851000D01*
G75*
G02*
X18799000Y-37800000I0J51000D01*
G01*
X18799000Y-35200000D01*
G75*
G02*
X18850000Y-35149000I51000J0D01*
G01*
X19150000Y-35149000D01*
G75*
G02*
X19201000Y-35200000I0J-51000D01*
G01*
G37*
G36*
G01*
X19701000Y-35200000D02*
X19701000Y-37800000D01*
G75*
G02*
X19650000Y-37851000I-51000J0D01*
G01*
X19350000Y-37851000D01*
G75*
G02*
X19299000Y-37800000I0J51000D01*
G01*
X19299000Y-35200000D01*
G75*
G02*
X19350000Y-35149000I51000J0D01*
G01*
X19650000Y-35149000D01*
G75*
G02*
X19701000Y-35200000I0J-51000D01*
G01*
G37*
G36*
G01*
X20201000Y-35200000D02*
X20201000Y-37800000D01*
G75*
G02*
X20150000Y-37851000I-51000J0D01*
G01*
X19850000Y-37851000D01*
G75*
G02*
X19799000Y-37800000I0J51000D01*
G01*
X19799000Y-35200000D01*
G75*
G02*
X19850000Y-35149000I51000J0D01*
G01*
X20150000Y-35149000D01*
G75*
G02*
X20201000Y-35200000I0J-51000D01*
G01*
G37*
G36*
G01*
X20701000Y-35200000D02*
X20701000Y-37800000D01*
G75*
G02*
X20650000Y-37851000I-51000J0D01*
G01*
X20350000Y-37851000D01*
G75*
G02*
X20299000Y-37800000I0J51000D01*
G01*
X20299000Y-35200000D01*
G75*
G02*
X20350000Y-35149000I51000J0D01*
G01*
X20650000Y-35149000D01*
G75*
G02*
X20701000Y-35200000I0J-51000D01*
G01*
G37*
G36*
G01*
X21201000Y-35200000D02*
X21201000Y-37800000D01*
G75*
G02*
X21150000Y-37851000I-51000J0D01*
G01*
X20850000Y-37851000D01*
G75*
G02*
X20799000Y-37800000I0J51000D01*
G01*
X20799000Y-35200000D01*
G75*
G02*
X20850000Y-35149000I51000J0D01*
G01*
X21150000Y-35149000D01*
G75*
G02*
X21201000Y-35200000I0J-51000D01*
G01*
G37*
G36*
G01*
X21701000Y-35200000D02*
X21701000Y-37800000D01*
G75*
G02*
X21650000Y-37851000I-51000J0D01*
G01*
X21350000Y-37851000D01*
G75*
G02*
X21299000Y-37800000I0J51000D01*
G01*
X21299000Y-35200000D01*
G75*
G02*
X21350000Y-35149000I51000J0D01*
G01*
X21650000Y-35149000D01*
G75*
G02*
X21701000Y-35200000I0J-51000D01*
G01*
G37*
G36*
G01*
X22201000Y-35200000D02*
X22201000Y-37800000D01*
G75*
G02*
X22150000Y-37851000I-51000J0D01*
G01*
X21850000Y-37851000D01*
G75*
G02*
X21799000Y-37800000I0J51000D01*
G01*
X21799000Y-35200000D01*
G75*
G02*
X21850000Y-35149000I51000J0D01*
G01*
X22150000Y-35149000D01*
G75*
G02*
X22201000Y-35200000I0J-51000D01*
G01*
G37*
G36*
G01*
X22701000Y-35200000D02*
X22701000Y-37800000D01*
G75*
G02*
X22650000Y-37851000I-51000J0D01*
G01*
X22350000Y-37851000D01*
G75*
G02*
X22299000Y-37800000I0J51000D01*
G01*
X22299000Y-35200000D01*
G75*
G02*
X22350000Y-35149000I51000J0D01*
G01*
X22650000Y-35149000D01*
G75*
G02*
X22701000Y-35200000I0J-51000D01*
G01*
G37*
G36*
G01*
X23201000Y-35200000D02*
X23201000Y-37800000D01*
G75*
G02*
X23150000Y-37851000I-51000J0D01*
G01*
X22850000Y-37851000D01*
G75*
G02*
X22799000Y-37800000I0J51000D01*
G01*
X22799000Y-35200000D01*
G75*
G02*
X22850000Y-35149000I51000J0D01*
G01*
X23150000Y-35149000D01*
G75*
G02*
X23201000Y-35200000I0J-51000D01*
G01*
G37*
G36*
G01*
X23701000Y-35200000D02*
X23701000Y-37800000D01*
G75*
G02*
X23650000Y-37851000I-51000J0D01*
G01*
X23350000Y-37851000D01*
G75*
G02*
X23299000Y-37800000I0J51000D01*
G01*
X23299000Y-35200000D01*
G75*
G02*
X23350000Y-35149000I51000J0D01*
G01*
X23650000Y-35149000D01*
G75*
G02*
X23701000Y-35200000I0J-51000D01*
G01*
G37*
G36*
G01*
X24201000Y-35200000D02*
X24201000Y-37800000D01*
G75*
G02*
X24150000Y-37851000I-51000J0D01*
G01*
X23850000Y-37851000D01*
G75*
G02*
X23799000Y-37800000I0J51000D01*
G01*
X23799000Y-35200000D01*
G75*
G02*
X23850000Y-35149000I51000J0D01*
G01*
X24150000Y-35149000D01*
G75*
G02*
X24201000Y-35200000I0J-51000D01*
G01*
G37*
G36*
G01*
X24701000Y-35200000D02*
X24701000Y-37800000D01*
G75*
G02*
X24650000Y-37851000I-51000J0D01*
G01*
X24350000Y-37851000D01*
G75*
G02*
X24299000Y-37800000I0J51000D01*
G01*
X24299000Y-35200000D01*
G75*
G02*
X24350000Y-35149000I51000J0D01*
G01*
X24650000Y-35149000D01*
G75*
G02*
X24701000Y-35200000I0J-51000D01*
G01*
G37*
G36*
G01*
X25201000Y-35200000D02*
X25201000Y-37800000D01*
G75*
G02*
X25150000Y-37851000I-51000J0D01*
G01*
X24850000Y-37851000D01*
G75*
G02*
X24799000Y-37800000I0J51000D01*
G01*
X24799000Y-35200000D01*
G75*
G02*
X24850000Y-35149000I51000J0D01*
G01*
X25150000Y-35149000D01*
G75*
G02*
X25201000Y-35200000I0J-51000D01*
G01*
G37*
G36*
G01*
X25701000Y-35200000D02*
X25701000Y-37800000D01*
G75*
G02*
X25650000Y-37851000I-51000J0D01*
G01*
X25350000Y-37851000D01*
G75*
G02*
X25299000Y-37800000I0J51000D01*
G01*
X25299000Y-35200000D01*
G75*
G02*
X25350000Y-35149000I51000J0D01*
G01*
X25650000Y-35149000D01*
G75*
G02*
X25701000Y-35200000I0J-51000D01*
G01*
G37*
D13*
X28250000Y-29780000D03*
D14*
X13750000Y-35740000D03*
D13*
X13750000Y-29780000D03*
D14*
X28250000Y-35740000D03*
%TD*%
%TO.C,SW5*%
G36*
G01*
X61125500Y-59726000D02*
X60874500Y-59726000D01*
G75*
G02*
X60749000Y-59600500I0J125500D01*
G01*
X60749000Y-58949500D01*
G75*
G02*
X60874500Y-58824000I125500J0D01*
G01*
X61125500Y-58824000D01*
G75*
G02*
X61251000Y-58949500I0J-125500D01*
G01*
X61251000Y-59600500D01*
G75*
G02*
X61125500Y-59726000I-125500J0D01*
G01*
G37*
G36*
G01*
X61125500Y-55976000D02*
X60874500Y-55976000D01*
G75*
G02*
X60749000Y-55850500I0J125500D01*
G01*
X60749000Y-55199500D01*
G75*
G02*
X60874500Y-55074000I125500J0D01*
G01*
X61125500Y-55074000D01*
G75*
G02*
X61251000Y-55199500I0J-125500D01*
G01*
X61251000Y-55850500D01*
G75*
G02*
X61125500Y-55976000I-125500J0D01*
G01*
G37*
G36*
G01*
X59125500Y-59726000D02*
X58874500Y-59726000D01*
G75*
G02*
X58749000Y-59600500I0J125500D01*
G01*
X58749000Y-58949500D01*
G75*
G02*
X58874500Y-58824000I125500J0D01*
G01*
X59125500Y-58824000D01*
G75*
G02*
X59251000Y-58949500I0J-125500D01*
G01*
X59251000Y-59600500D01*
G75*
G02*
X59125500Y-59726000I-125500J0D01*
G01*
G37*
G36*
G01*
X59125500Y-55976000D02*
X58874500Y-55976000D01*
G75*
G02*
X58749000Y-55850500I0J125500D01*
G01*
X58749000Y-55199500D01*
G75*
G02*
X58874500Y-55074000I125500J0D01*
G01*
X59125500Y-55074000D01*
G75*
G02*
X59251000Y-55199500I0J-125500D01*
G01*
X59251000Y-55850500D01*
G75*
G02*
X59125500Y-55976000I-125500J0D01*
G01*
G37*
%TD*%
%TO.C,RN3*%
G36*
G01*
X63050000Y-58751000D02*
X62550000Y-58751000D01*
G75*
G02*
X62499000Y-58700000I0J51000D01*
G01*
X62499000Y-57900000D01*
G75*
G02*
X62550000Y-57849000I51000J0D01*
G01*
X63050000Y-57849000D01*
G75*
G02*
X63101000Y-57900000I0J-51000D01*
G01*
X63101000Y-58700000D01*
G75*
G02*
X63050000Y-58751000I-51000J0D01*
G01*
G37*
G36*
G01*
X63800000Y-58751000D02*
X63400000Y-58751000D01*
G75*
G02*
X63349000Y-58700000I0J51000D01*
G01*
X63349000Y-57900000D01*
G75*
G02*
X63400000Y-57849000I51000J0D01*
G01*
X63800000Y-57849000D01*
G75*
G02*
X63851000Y-57900000I0J-51000D01*
G01*
X63851000Y-58700000D01*
G75*
G02*
X63800000Y-58751000I-51000J0D01*
G01*
G37*
G36*
G01*
X64600000Y-58751000D02*
X64200000Y-58751000D01*
G75*
G02*
X64149000Y-58700000I0J51000D01*
G01*
X64149000Y-57900000D01*
G75*
G02*
X64200000Y-57849000I51000J0D01*
G01*
X64600000Y-57849000D01*
G75*
G02*
X64651000Y-57900000I0J-51000D01*
G01*
X64651000Y-58700000D01*
G75*
G02*
X64600000Y-58751000I-51000J0D01*
G01*
G37*
G36*
G01*
X65450000Y-58751000D02*
X64950000Y-58751000D01*
G75*
G02*
X64899000Y-58700000I0J51000D01*
G01*
X64899000Y-57900000D01*
G75*
G02*
X64950000Y-57849000I51000J0D01*
G01*
X65450000Y-57849000D01*
G75*
G02*
X65501000Y-57900000I0J-51000D01*
G01*
X65501000Y-58700000D01*
G75*
G02*
X65450000Y-58751000I-51000J0D01*
G01*
G37*
G36*
G01*
X65450000Y-56951000D02*
X64950000Y-56951000D01*
G75*
G02*
X64899000Y-56900000I0J51000D01*
G01*
X64899000Y-56100000D01*
G75*
G02*
X64950000Y-56049000I51000J0D01*
G01*
X65450000Y-56049000D01*
G75*
G02*
X65501000Y-56100000I0J-51000D01*
G01*
X65501000Y-56900000D01*
G75*
G02*
X65450000Y-56951000I-51000J0D01*
G01*
G37*
G36*
G01*
X64600000Y-56951000D02*
X64200000Y-56951000D01*
G75*
G02*
X64149000Y-56900000I0J51000D01*
G01*
X64149000Y-56100000D01*
G75*
G02*
X64200000Y-56049000I51000J0D01*
G01*
X64600000Y-56049000D01*
G75*
G02*
X64651000Y-56100000I0J-51000D01*
G01*
X64651000Y-56900000D01*
G75*
G02*
X64600000Y-56951000I-51000J0D01*
G01*
G37*
G36*
G01*
X63800000Y-56951000D02*
X63400000Y-56951000D01*
G75*
G02*
X63349000Y-56900000I0J51000D01*
G01*
X63349000Y-56100000D01*
G75*
G02*
X63400000Y-56049000I51000J0D01*
G01*
X63800000Y-56049000D01*
G75*
G02*
X63851000Y-56100000I0J-51000D01*
G01*
X63851000Y-56900000D01*
G75*
G02*
X63800000Y-56951000I-51000J0D01*
G01*
G37*
G36*
G01*
X63050000Y-56951000D02*
X62550000Y-56951000D01*
G75*
G02*
X62499000Y-56900000I0J51000D01*
G01*
X62499000Y-56100000D01*
G75*
G02*
X62550000Y-56049000I51000J0D01*
G01*
X63050000Y-56049000D01*
G75*
G02*
X63101000Y-56100000I0J-51000D01*
G01*
X63101000Y-56900000D01*
G75*
G02*
X63050000Y-56951000I-51000J0D01*
G01*
G37*
%TD*%
%TO.C,SW4*%
G36*
G01*
X22874500Y-55074000D02*
X23125500Y-55074000D01*
G75*
G02*
X23251000Y-55199500I0J-125500D01*
G01*
X23251000Y-55850500D01*
G75*
G02*
X23125500Y-55976000I-125500J0D01*
G01*
X22874500Y-55976000D01*
G75*
G02*
X22749000Y-55850500I0J125500D01*
G01*
X22749000Y-55199500D01*
G75*
G02*
X22874500Y-55074000I125500J0D01*
G01*
G37*
G36*
G01*
X22874500Y-58824000D02*
X23125500Y-58824000D01*
G75*
G02*
X23251000Y-58949500I0J-125500D01*
G01*
X23251000Y-59600500D01*
G75*
G02*
X23125500Y-59726000I-125500J0D01*
G01*
X22874500Y-59726000D01*
G75*
G02*
X22749000Y-59600500I0J125500D01*
G01*
X22749000Y-58949500D01*
G75*
G02*
X22874500Y-58824000I125500J0D01*
G01*
G37*
G36*
G01*
X24874500Y-58824000D02*
X25125500Y-58824000D01*
G75*
G02*
X25251000Y-58949500I0J-125500D01*
G01*
X25251000Y-59600500D01*
G75*
G02*
X25125500Y-59726000I-125500J0D01*
G01*
X24874500Y-59726000D01*
G75*
G02*
X24749000Y-59600500I0J125500D01*
G01*
X24749000Y-58949500D01*
G75*
G02*
X24874500Y-58824000I125500J0D01*
G01*
G37*
G36*
G01*
X24874500Y-55074000D02*
X25125500Y-55074000D01*
G75*
G02*
X25251000Y-55199500I0J-125500D01*
G01*
X25251000Y-55850500D01*
G75*
G02*
X25125500Y-55976000I-125500J0D01*
G01*
X24874500Y-55976000D01*
G75*
G02*
X24749000Y-55850500I0J125500D01*
G01*
X24749000Y-55199500D01*
G75*
G02*
X24874500Y-55074000I125500J0D01*
G01*
G37*
%TD*%
G36*
X64900319Y-57910806D02*
G01*
X64901000Y-57912310D01*
X64901000Y-58687690D01*
X64900000Y-58689422D01*
X64898000Y-58689422D01*
X64897038Y-58688080D01*
X64895691Y-58681306D01*
X64863451Y-58619674D01*
X64803267Y-58585401D01*
X64734109Y-58589109D01*
X64677885Y-58629651D01*
X64654320Y-58681253D01*
X64652962Y-58688080D01*
X64651643Y-58689584D01*
X64649681Y-58689194D01*
X64649000Y-58687690D01*
X64649000Y-57912310D01*
X64650000Y-57910578D01*
X64652000Y-57910578D01*
X64652962Y-57911920D01*
X64654309Y-57918694D01*
X64686549Y-57980326D01*
X64746733Y-58014599D01*
X64815891Y-58010891D01*
X64872115Y-57970349D01*
X64895680Y-57918747D01*
X64897038Y-57911920D01*
X64898357Y-57910416D01*
X64900319Y-57910806D01*
G37*
G36*
X19350319Y-57910806D02*
G01*
X19351000Y-57912310D01*
X19351000Y-58687690D01*
X19350000Y-58689422D01*
X19348000Y-58689422D01*
X19347038Y-58688080D01*
X19345691Y-58681306D01*
X19313451Y-58619674D01*
X19253267Y-58585401D01*
X19184109Y-58589109D01*
X19127885Y-58629651D01*
X19104320Y-58681253D01*
X19102962Y-58688080D01*
X19101643Y-58689584D01*
X19099681Y-58689194D01*
X19099000Y-58687690D01*
X19099000Y-57912310D01*
X19100000Y-57910578D01*
X19102000Y-57910578D01*
X19102962Y-57911920D01*
X19104309Y-57918694D01*
X19136549Y-57980326D01*
X19196733Y-58014599D01*
X19265891Y-58010891D01*
X19322115Y-57970349D01*
X19345680Y-57918747D01*
X19347038Y-57911920D01*
X19348357Y-57910416D01*
X19350319Y-57910806D01*
G37*
G36*
X63350319Y-57910806D02*
G01*
X63351000Y-57912310D01*
X63351000Y-58687690D01*
X63350000Y-58689422D01*
X63348000Y-58689422D01*
X63347038Y-58688080D01*
X63345691Y-58681306D01*
X63313451Y-58619674D01*
X63253267Y-58585401D01*
X63184109Y-58589109D01*
X63127885Y-58629651D01*
X63104320Y-58681253D01*
X63102962Y-58688080D01*
X63101643Y-58689584D01*
X63099681Y-58689194D01*
X63099000Y-58687690D01*
X63099000Y-57912310D01*
X63100000Y-57910578D01*
X63102000Y-57910578D01*
X63102962Y-57911920D01*
X63104309Y-57918694D01*
X63136549Y-57980326D01*
X63196733Y-58014599D01*
X63265891Y-58010891D01*
X63322115Y-57970349D01*
X63345680Y-57918747D01*
X63347038Y-57911920D01*
X63348357Y-57910416D01*
X63350319Y-57910806D01*
G37*
G36*
X20900319Y-57910806D02*
G01*
X20901000Y-57912310D01*
X20901000Y-58687690D01*
X20900000Y-58689422D01*
X20898000Y-58689422D01*
X20897038Y-58688080D01*
X20895691Y-58681306D01*
X20863451Y-58619674D01*
X20803267Y-58585401D01*
X20734109Y-58589109D01*
X20677885Y-58629651D01*
X20654320Y-58681253D01*
X20652962Y-58688080D01*
X20651643Y-58689584D01*
X20649681Y-58689194D01*
X20649000Y-58687690D01*
X20649000Y-57912310D01*
X20650000Y-57910578D01*
X20652000Y-57910578D01*
X20652962Y-57911920D01*
X20654309Y-57918694D01*
X20686549Y-57980326D01*
X20746733Y-58014599D01*
X20815891Y-58010891D01*
X20872115Y-57970349D01*
X20895680Y-57918747D01*
X20897038Y-57911920D01*
X20898357Y-57910416D01*
X20900319Y-57910806D01*
G37*
G36*
X63350319Y-56110806D02*
G01*
X63351000Y-56112310D01*
X63351000Y-56887690D01*
X63350000Y-56889422D01*
X63348000Y-56889422D01*
X63347038Y-56888080D01*
X63345691Y-56881306D01*
X63313451Y-56819674D01*
X63253267Y-56785401D01*
X63184109Y-56789109D01*
X63127885Y-56829651D01*
X63104320Y-56881253D01*
X63102962Y-56888080D01*
X63101643Y-56889584D01*
X63099681Y-56889194D01*
X63099000Y-56887690D01*
X63099000Y-56112310D01*
X63100000Y-56110578D01*
X63102000Y-56110578D01*
X63102962Y-56111920D01*
X63104309Y-56118694D01*
X63136549Y-56180326D01*
X63196733Y-56214599D01*
X63265891Y-56210891D01*
X63322115Y-56170349D01*
X63345680Y-56118747D01*
X63347038Y-56111920D01*
X63348357Y-56110416D01*
X63350319Y-56110806D01*
G37*
G36*
X20900319Y-56110806D02*
G01*
X20901000Y-56112310D01*
X20901000Y-56887690D01*
X20900000Y-56889422D01*
X20898000Y-56889422D01*
X20897038Y-56888080D01*
X20895691Y-56881306D01*
X20863451Y-56819674D01*
X20803267Y-56785401D01*
X20734109Y-56789109D01*
X20677885Y-56829651D01*
X20654320Y-56881253D01*
X20652962Y-56888080D01*
X20651643Y-56889584D01*
X20649681Y-56889194D01*
X20649000Y-56887690D01*
X20649000Y-56112310D01*
X20650000Y-56110578D01*
X20652000Y-56110578D01*
X20652962Y-56111920D01*
X20654309Y-56118694D01*
X20686549Y-56180326D01*
X20746733Y-56214599D01*
X20815891Y-56210891D01*
X20872115Y-56170349D01*
X20895680Y-56118747D01*
X20897038Y-56111920D01*
X20898357Y-56110416D01*
X20900319Y-56110806D01*
G37*
G36*
X19350319Y-56110806D02*
G01*
X19351000Y-56112310D01*
X19351000Y-56887690D01*
X19350000Y-56889422D01*
X19348000Y-56889422D01*
X19347038Y-56888080D01*
X19345691Y-56881306D01*
X19313451Y-56819674D01*
X19253267Y-56785401D01*
X19184109Y-56789109D01*
X19127885Y-56829651D01*
X19104320Y-56881253D01*
X19102962Y-56888080D01*
X19101643Y-56889584D01*
X19099681Y-56889194D01*
X19099000Y-56887690D01*
X19099000Y-56112310D01*
X19100000Y-56110578D01*
X19102000Y-56110578D01*
X19102962Y-56111920D01*
X19104309Y-56118694D01*
X19136549Y-56180326D01*
X19196733Y-56214599D01*
X19265891Y-56210891D01*
X19322115Y-56170349D01*
X19345680Y-56118747D01*
X19347038Y-56111920D01*
X19348357Y-56110416D01*
X19350319Y-56110806D01*
G37*
G36*
X64900319Y-56110806D02*
G01*
X64901000Y-56112310D01*
X64901000Y-56887690D01*
X64900000Y-56889422D01*
X64898000Y-56889422D01*
X64897038Y-56888080D01*
X64895691Y-56881306D01*
X64863451Y-56819674D01*
X64803267Y-56785401D01*
X64734109Y-56789109D01*
X64677885Y-56829651D01*
X64654320Y-56881253D01*
X64652962Y-56888080D01*
X64651643Y-56889584D01*
X64649681Y-56889194D01*
X64649000Y-56887690D01*
X64649000Y-56112310D01*
X64650000Y-56110578D01*
X64652000Y-56110578D01*
X64652962Y-56111920D01*
X64654309Y-56118694D01*
X64686549Y-56180326D01*
X64746733Y-56214599D01*
X64815891Y-56210891D01*
X64872115Y-56170349D01*
X64895680Y-56118747D01*
X64897038Y-56111920D01*
X64898357Y-56110416D01*
X64900319Y-56110806D01*
G37*
G36*
X20337246Y-38572307D02*
G01*
X20362420Y-38597481D01*
X20363809Y-38597108D01*
X20364745Y-38597667D01*
X20394287Y-38628947D01*
X20461514Y-38645595D01*
X20527114Y-38623239D01*
X20548513Y-38598545D01*
X20549282Y-38598279D01*
X20575254Y-38572307D01*
X20577186Y-38571789D01*
X20578600Y-38573203D01*
X20578331Y-38574832D01*
X20533918Y-38641300D01*
X20513500Y-38743949D01*
X20513500Y-39256051D01*
X20533918Y-39358700D01*
X20578331Y-39425168D01*
X20578462Y-39427164D01*
X20576799Y-39428275D01*
X20575254Y-39427693D01*
X20550080Y-39402519D01*
X20548691Y-39402892D01*
X20547755Y-39402333D01*
X20518213Y-39371053D01*
X20450986Y-39354405D01*
X20385386Y-39376761D01*
X20363987Y-39401455D01*
X20363218Y-39401721D01*
X20337246Y-39427693D01*
X20335314Y-39428211D01*
X20333900Y-39426797D01*
X20334169Y-39425168D01*
X20378582Y-39358700D01*
X20399000Y-39256051D01*
X20399000Y-38743949D01*
X20378582Y-38641300D01*
X20334169Y-38574832D01*
X20334038Y-38572836D01*
X20335701Y-38571725D01*
X20337246Y-38572307D01*
G37*
G36*
X21424746Y-38572307D02*
G01*
X21437136Y-38584697D01*
X21437504Y-38585203D01*
X21440277Y-38590644D01*
X21488038Y-38641213D01*
X21555264Y-38657861D01*
X21620864Y-38635506D01*
X21659705Y-38590681D01*
X21662496Y-38585203D01*
X21662864Y-38584697D01*
X21675254Y-38572307D01*
X21677186Y-38571789D01*
X21678600Y-38573203D01*
X21678331Y-38574832D01*
X21633918Y-38641300D01*
X21613500Y-38743949D01*
X21613500Y-39256051D01*
X21633918Y-39358700D01*
X21678331Y-39425168D01*
X21678462Y-39427164D01*
X21676799Y-39428275D01*
X21675254Y-39427693D01*
X21662864Y-39415303D01*
X21662496Y-39414797D01*
X21659723Y-39409356D01*
X21611962Y-39358787D01*
X21544736Y-39342139D01*
X21479136Y-39364494D01*
X21440295Y-39409319D01*
X21437504Y-39414797D01*
X21437136Y-39415303D01*
X21424746Y-39427693D01*
X21422814Y-39428211D01*
X21421400Y-39426797D01*
X21421669Y-39425168D01*
X21466082Y-39358700D01*
X21486500Y-39256051D01*
X21486500Y-38743949D01*
X21466082Y-38641300D01*
X21421669Y-38574832D01*
X21421538Y-38572836D01*
X21423201Y-38571725D01*
X21424746Y-38572307D01*
G37*
G36*
X23814633Y-35163517D02*
G01*
X23814916Y-35166075D01*
X23804767Y-35181263D01*
X23801000Y-35200199D01*
X23801000Y-37799801D01*
X23804767Y-37818738D01*
X23814814Y-37833773D01*
X23814945Y-37835768D01*
X23812553Y-37836793D01*
X23752212Y-37817898D01*
X23687310Y-37836955D01*
X23685367Y-37836483D01*
X23685084Y-37833925D01*
X23695233Y-37818737D01*
X23699000Y-37799801D01*
X23699000Y-35200199D01*
X23695233Y-35181262D01*
X23685186Y-35166227D01*
X23685055Y-35164232D01*
X23687447Y-35163207D01*
X23747788Y-35182102D01*
X23812690Y-35163045D01*
X23814633Y-35163517D01*
G37*
G36*
X24814633Y-35163517D02*
G01*
X24814916Y-35166075D01*
X24804767Y-35181263D01*
X24801000Y-35200199D01*
X24801000Y-37799801D01*
X24804767Y-37818738D01*
X24814814Y-37833773D01*
X24814945Y-37835768D01*
X24812553Y-37836793D01*
X24752212Y-37817898D01*
X24687310Y-37836955D01*
X24685367Y-37836483D01*
X24685084Y-37833925D01*
X24695233Y-37818737D01*
X24699000Y-37799801D01*
X24699000Y-35200199D01*
X24695233Y-35181262D01*
X24685186Y-35166227D01*
X24685055Y-35164232D01*
X24687447Y-35163207D01*
X24747788Y-35182102D01*
X24812690Y-35163045D01*
X24814633Y-35163517D01*
G37*
G36*
X19314633Y-35163517D02*
G01*
X19314916Y-35166075D01*
X19304767Y-35181263D01*
X19301000Y-35200199D01*
X19301000Y-37799801D01*
X19304767Y-37818738D01*
X19314814Y-37833773D01*
X19314945Y-37835768D01*
X19312553Y-37836793D01*
X19252212Y-37817898D01*
X19187310Y-37836955D01*
X19185367Y-37836483D01*
X19185084Y-37833925D01*
X19195233Y-37818737D01*
X19199000Y-37799801D01*
X19199000Y-35200199D01*
X19195233Y-35181262D01*
X19185186Y-35166227D01*
X19185055Y-35164232D01*
X19187447Y-35163207D01*
X19247788Y-35182102D01*
X19312690Y-35163045D01*
X19314633Y-35163517D01*
G37*
G36*
X22314633Y-35163517D02*
G01*
X22314916Y-35166075D01*
X22304767Y-35181263D01*
X22301000Y-35200199D01*
X22301000Y-37799801D01*
X22304767Y-37818738D01*
X22314814Y-37833773D01*
X22314945Y-37835768D01*
X22312553Y-37836793D01*
X22252212Y-37817898D01*
X22187310Y-37836955D01*
X22185367Y-37836483D01*
X22185084Y-37833925D01*
X22195233Y-37818737D01*
X22199000Y-37799801D01*
X22199000Y-35200199D01*
X22195233Y-35181262D01*
X22185186Y-35166227D01*
X22185055Y-35164232D01*
X22187447Y-35163207D01*
X22247788Y-35182102D01*
X22312690Y-35163045D01*
X22314633Y-35163517D01*
G37*
G36*
X18814633Y-35163517D02*
G01*
X18814916Y-35166075D01*
X18804767Y-35181263D01*
X18801000Y-35200199D01*
X18801000Y-37799801D01*
X18804767Y-37818738D01*
X18814814Y-37833773D01*
X18814945Y-37835768D01*
X18812553Y-37836793D01*
X18752212Y-37817898D01*
X18687310Y-37836955D01*
X18685367Y-37836483D01*
X18685084Y-37833925D01*
X18695233Y-37818737D01*
X18699000Y-37799801D01*
X18699000Y-35200199D01*
X18695233Y-35181262D01*
X18685186Y-35166227D01*
X18685055Y-35164232D01*
X18687447Y-35163207D01*
X18747788Y-35182102D01*
X18812690Y-35163045D01*
X18814633Y-35163517D01*
G37*
G36*
X17314633Y-35163517D02*
G01*
X17314916Y-35166075D01*
X17304767Y-35181263D01*
X17301000Y-35200199D01*
X17301000Y-37799801D01*
X17304767Y-37818738D01*
X17314814Y-37833773D01*
X17314945Y-37835768D01*
X17312553Y-37836793D01*
X17252212Y-37817898D01*
X17187310Y-37836955D01*
X17185367Y-37836483D01*
X17185084Y-37833925D01*
X17195233Y-37818737D01*
X17199000Y-37799801D01*
X17199000Y-35200199D01*
X17195233Y-35181262D01*
X17185186Y-35166227D01*
X17185055Y-35164232D01*
X17187447Y-35163207D01*
X17247788Y-35182102D01*
X17312690Y-35163045D01*
X17314633Y-35163517D01*
G37*
G36*
X21314633Y-35163517D02*
G01*
X21314916Y-35166075D01*
X21304767Y-35181263D01*
X21301000Y-35200199D01*
X21301000Y-37799801D01*
X21304767Y-37818738D01*
X21314814Y-37833773D01*
X21314945Y-37835768D01*
X21312553Y-37836793D01*
X21252212Y-37817898D01*
X21187310Y-37836955D01*
X21185367Y-37836483D01*
X21185084Y-37833925D01*
X21195233Y-37818737D01*
X21199000Y-37799801D01*
X21199000Y-35200199D01*
X21195233Y-35181262D01*
X21185186Y-35166227D01*
X21185055Y-35164232D01*
X21187447Y-35163207D01*
X21247788Y-35182102D01*
X21312690Y-35163045D01*
X21314633Y-35163517D01*
G37*
G36*
X18314633Y-35163517D02*
G01*
X18314916Y-35166075D01*
X18304767Y-35181263D01*
X18301000Y-35200199D01*
X18301000Y-37799801D01*
X18304767Y-37818738D01*
X18314814Y-37833773D01*
X18314945Y-37835768D01*
X18312553Y-37836793D01*
X18252212Y-37817898D01*
X18187310Y-37836955D01*
X18185367Y-37836483D01*
X18185084Y-37833925D01*
X18195233Y-37818737D01*
X18199000Y-37799801D01*
X18199000Y-35200199D01*
X18195233Y-35181262D01*
X18185186Y-35166227D01*
X18185055Y-35164232D01*
X18187447Y-35163207D01*
X18247788Y-35182102D01*
X18312690Y-35163045D01*
X18314633Y-35163517D01*
G37*
G36*
X25314633Y-35163517D02*
G01*
X25314916Y-35166075D01*
X25304767Y-35181263D01*
X25301000Y-35200199D01*
X25301000Y-37799801D01*
X25304767Y-37818738D01*
X25314814Y-37833773D01*
X25314945Y-37835768D01*
X25312553Y-37836793D01*
X25252212Y-37817898D01*
X25187310Y-37836955D01*
X25185367Y-37836483D01*
X25185084Y-37833925D01*
X25195233Y-37818737D01*
X25199000Y-37799801D01*
X25199000Y-35200199D01*
X25195233Y-35181262D01*
X25185186Y-35166227D01*
X25185055Y-35164232D01*
X25187447Y-35163207D01*
X25247788Y-35182102D01*
X25312690Y-35163045D01*
X25314633Y-35163517D01*
G37*
G36*
X17814633Y-35163517D02*
G01*
X17814916Y-35166075D01*
X17804767Y-35181263D01*
X17801000Y-35200199D01*
X17801000Y-37799801D01*
X17804767Y-37818738D01*
X17814814Y-37833773D01*
X17814945Y-37835768D01*
X17812553Y-37836793D01*
X17752212Y-37817898D01*
X17687310Y-37836955D01*
X17685367Y-37836483D01*
X17685084Y-37833925D01*
X17695233Y-37818737D01*
X17699000Y-37799801D01*
X17699000Y-35200199D01*
X17695233Y-35181262D01*
X17685186Y-35166227D01*
X17685055Y-35164232D01*
X17687447Y-35163207D01*
X17747788Y-35182102D01*
X17812690Y-35163045D01*
X17814633Y-35163517D01*
G37*
G36*
X20314633Y-35163517D02*
G01*
X20314916Y-35166075D01*
X20304767Y-35181263D01*
X20301000Y-35200199D01*
X20301000Y-37799801D01*
X20304767Y-37818738D01*
X20314814Y-37833773D01*
X20314945Y-37835768D01*
X20312553Y-37836793D01*
X20252212Y-37817898D01*
X20187310Y-37836955D01*
X20185367Y-37836483D01*
X20185084Y-37833925D01*
X20195233Y-37818737D01*
X20199000Y-37799801D01*
X20199000Y-35200199D01*
X20195233Y-35181262D01*
X20185186Y-35166227D01*
X20185055Y-35164232D01*
X20187447Y-35163207D01*
X20247788Y-35182102D01*
X20312690Y-35163045D01*
X20314633Y-35163517D01*
G37*
G36*
X21814633Y-35163517D02*
G01*
X21814916Y-35166075D01*
X21804767Y-35181263D01*
X21801000Y-35200199D01*
X21801000Y-37799801D01*
X21804767Y-37818738D01*
X21814814Y-37833773D01*
X21814945Y-37835768D01*
X21812553Y-37836793D01*
X21752212Y-37817898D01*
X21687310Y-37836955D01*
X21685367Y-37836483D01*
X21685084Y-37833925D01*
X21695233Y-37818737D01*
X21699000Y-37799801D01*
X21699000Y-35200199D01*
X21695233Y-35181262D01*
X21685186Y-35166227D01*
X21685055Y-35164232D01*
X21687447Y-35163207D01*
X21747788Y-35182102D01*
X21812690Y-35163045D01*
X21814633Y-35163517D01*
G37*
G36*
X19814633Y-35163517D02*
G01*
X19814916Y-35166075D01*
X19804767Y-35181263D01*
X19801000Y-35200199D01*
X19801000Y-37799801D01*
X19804767Y-37818738D01*
X19814814Y-37833773D01*
X19814945Y-37835768D01*
X19812553Y-37836793D01*
X19752212Y-37817898D01*
X19687310Y-37836955D01*
X19685367Y-37836483D01*
X19685084Y-37833925D01*
X19695233Y-37818737D01*
X19699000Y-37799801D01*
X19699000Y-35200199D01*
X19695233Y-35181262D01*
X19685186Y-35166227D01*
X19685055Y-35164232D01*
X19687447Y-35163207D01*
X19747788Y-35182102D01*
X19812690Y-35163045D01*
X19814633Y-35163517D01*
G37*
G36*
X22814633Y-35163517D02*
G01*
X22814916Y-35166075D01*
X22804767Y-35181263D01*
X22801000Y-35200199D01*
X22801000Y-37799801D01*
X22804767Y-37818738D01*
X22814814Y-37833773D01*
X22814945Y-37835768D01*
X22812553Y-37836793D01*
X22752212Y-37817898D01*
X22687310Y-37836955D01*
X22685367Y-37836483D01*
X22685084Y-37833925D01*
X22695233Y-37818737D01*
X22699000Y-37799801D01*
X22699000Y-35200199D01*
X22695233Y-35181262D01*
X22685186Y-35166227D01*
X22685055Y-35164232D01*
X22687447Y-35163207D01*
X22747788Y-35182102D01*
X22812690Y-35163045D01*
X22814633Y-35163517D01*
G37*
G36*
X20814633Y-35163517D02*
G01*
X20814916Y-35166075D01*
X20804767Y-35181263D01*
X20801000Y-35200199D01*
X20801000Y-37799801D01*
X20804767Y-37818738D01*
X20814814Y-37833773D01*
X20814945Y-37835768D01*
X20812553Y-37836793D01*
X20752212Y-37817898D01*
X20687310Y-37836955D01*
X20685367Y-37836483D01*
X20685084Y-37833925D01*
X20695233Y-37818737D01*
X20699000Y-37799801D01*
X20699000Y-35200199D01*
X20695233Y-35181262D01*
X20685186Y-35166227D01*
X20685055Y-35164232D01*
X20687447Y-35163207D01*
X20747788Y-35182102D01*
X20812690Y-35163045D01*
X20814633Y-35163517D01*
G37*
G36*
X23314633Y-35163517D02*
G01*
X23314916Y-35166075D01*
X23304767Y-35181263D01*
X23301000Y-35200199D01*
X23301000Y-37799801D01*
X23304767Y-37818738D01*
X23314814Y-37833773D01*
X23314945Y-37835768D01*
X23312553Y-37836793D01*
X23252212Y-37817898D01*
X23187310Y-37836955D01*
X23185367Y-37836483D01*
X23185084Y-37833925D01*
X23195233Y-37818737D01*
X23199000Y-37799801D01*
X23199000Y-35200199D01*
X23195233Y-35181262D01*
X23185186Y-35166227D01*
X23185055Y-35164232D01*
X23187447Y-35163207D01*
X23247788Y-35182102D01*
X23312690Y-35163045D01*
X23314633Y-35163517D01*
G37*
G36*
X16814633Y-35163517D02*
G01*
X16814916Y-35166075D01*
X16804767Y-35181263D01*
X16801000Y-35200199D01*
X16801000Y-37799801D01*
X16804767Y-37818738D01*
X16814814Y-37833773D01*
X16814945Y-37835768D01*
X16812553Y-37836793D01*
X16752212Y-37817898D01*
X16687310Y-37836955D01*
X16685367Y-37836483D01*
X16685084Y-37833925D01*
X16695233Y-37818737D01*
X16699000Y-37799801D01*
X16699000Y-35200199D01*
X16695233Y-35181262D01*
X16685186Y-35166227D01*
X16685055Y-35164232D01*
X16687447Y-35163207D01*
X16747788Y-35182102D01*
X16812690Y-35163045D01*
X16814633Y-35163517D01*
G37*
G36*
X24314633Y-35163517D02*
G01*
X24314916Y-35166075D01*
X24304767Y-35181263D01*
X24301000Y-35200199D01*
X24301000Y-37799801D01*
X24304767Y-37818738D01*
X24314814Y-37833773D01*
X24314945Y-37835768D01*
X24312553Y-37836793D01*
X24252212Y-37817898D01*
X24187310Y-37836955D01*
X24185367Y-37836483D01*
X24185084Y-37833925D01*
X24195233Y-37818737D01*
X24199000Y-37799801D01*
X24199000Y-35200199D01*
X24195233Y-35181262D01*
X24185186Y-35166227D01*
X24185055Y-35164232D01*
X24187447Y-35163207D01*
X24247788Y-35182102D01*
X24312690Y-35163045D01*
X24314633Y-35163517D01*
G37*
M02*
