M48
; DRILL file {KiCad (5.99.0-2671-gfc0a358ba)} date Friday, September 04, 2020 at 01:27:31 PM
; FORMAT={-:-/ absolute / inch / decimal}
; #@! TF.CreationDate,2020-09-04T13:27:31+05:30
; #@! TF.GenerationSoftware,Kicad,Pcbnew,(5.99.0-2671-gfc0a358ba)
; #@! TF.FileFunction,Plated,1,2,PTH
FMAT,2
INCH
T1C0.0079
T2C0.0118
T3C0.0354
%
G90
G05
T1
X0.7002Y-1.8274
X0.7002Y-1.9061
X0.7278Y-1.9744
X0.7665Y-1.7972
X0.7665Y-1.8858
X0.7939Y-1.9443
X0.7947Y-1.8656
X2.5118Y-1.8077
X2.5118Y-1.8864
X2.5394Y-1.9547
X2.5781Y-1.7776
X2.5781Y-1.8661
X2.6055Y-1.9246
X2.6063Y-1.8459
X1.0152Y-1.8274
X1.0152Y-1.9061
X1.0427Y-1.9744
X1.0815Y-1.7972
X1.0815Y-1.8858
X1.1089Y-1.9443
X1.1096Y-1.8656
X2.6693Y-1.8077
X2.6693Y-1.8864
X2.6969Y-1.9547
X2.7356Y-1.7776
X2.7356Y-1.8661
X2.763Y-1.9246
X2.7638Y-1.8459
X0.5427Y-1.8274
X0.5427Y-1.9061
X0.5703Y-1.9744
X0.6091Y-1.7972
X0.6091Y-1.8858
X0.6364Y-1.9443
X0.6372Y-1.8656
X2.3537Y-1.8077
X2.3537Y-1.8864
X2.3813Y-1.9547
X2.4201Y-1.7776
X2.4201Y-1.8661
X2.4474Y-1.9246
X2.4482Y-1.8459
X0.8577Y-1.8274
X0.8577Y-1.9061
X0.8852Y-1.9744
X0.924Y-1.7972
X0.924Y-1.8858
X0.9514Y-1.9443
X0.9522Y-1.8656
X2.1969Y-1.8077
X2.1969Y-1.8864
X2.2244Y-1.9547
X2.2632Y-1.7776
X2.2632Y-1.8661
X2.2906Y-1.9246
X2.2913Y-1.8459
T2
X0.6693Y-1.689
X0.6693Y-2.1516
X0.7283Y-1.689
X0.7402Y-2.2559
X0.7717Y-2.2559
X0.8031Y-2.2559
X0.8346Y-2.2559
X0.8614Y-2.1346
X0.8614Y-2.3315
X0.8701Y-1.3031
X0.9083Y-1.212
X0.9083Y-1.2396
X0.9094Y-1.3031
X0.9268Y-2.1591
X0.9488Y-1.3031
X0.9833Y-1.688
X0.9882Y-1.3031
X1.0304Y-1.3179
X1.0443Y-1.689
X1.0499Y-1.3373
X1.252Y-1.937
X1.252Y-2.4291
X1.2791Y-1.4209
X1.2835Y-1.937
X1.2835Y-2.4291
X1.315Y-1.937
X1.315Y-2.4291
X1.3457Y-1.2567
X1.3465Y-1.937
X1.3465Y-2.4291
X1.3752Y-1.263
X1.3976Y-1.248
X1.3976Y-1.4213
X1.4488Y-2.4291
X1.4673Y-1.2831
X1.4673Y-1.3106
X1.4803Y-2.4291
X1.4882Y-1.937
X1.5118Y-2.4291
X1.5157Y-1.248
X1.5157Y-1.3071
X1.5197Y-1.937
X1.5433Y-2.4291
X1.5512Y-1.937
X1.5551Y-2.6654
X1.5551Y-2.7244
X1.5827Y-1.937
X1.6339Y-1.248
X1.6339Y-1.3071
X1.6732Y-2.6654
X1.6732Y-2.7244
X1.7244Y-1.937
X1.752Y-1.248
X1.752Y-1.3071
X1.7559Y-1.937
X1.7638Y-2.4291
X1.7874Y-1.937
X1.7913Y-2.6654
X1.7913Y-2.7244
X1.7953Y-2.4291
X1.8189Y-1.937
X1.8268Y-2.4291
X1.8583Y-2.4291
X1.9094Y-2.6654
X1.9094Y-2.7244
X1.9606Y-1.937
X1.9606Y-2.4291
X1.9921Y-1.937
X1.9921Y-2.4291
X2.0236Y-1.937
X2.0236Y-2.4291
X2.0551Y-1.937
X2.0551Y-2.4291
X2.3031Y-1.2598
X2.3213Y-1.6886
X2.3228Y-1.248
X2.3622Y-1.2598
X2.3819Y-1.248
X2.385Y-1.689
X2.4016Y-1.1339
X2.4016Y-1.2835
X2.4016Y-2.1516
X2.4016Y-2.6654
X2.4016Y-2.7244
X2.4213Y-1.2598
X2.4409Y-1.248
X2.4724Y-2.2559
X2.4803Y-1.2598
X2.5Y-1.248
X2.5039Y-2.2559
X2.5197Y-1.1339
X2.5197Y-1.2835
X2.5197Y-2.6654
X2.5197Y-2.7244
X2.5354Y-2.2559
X2.5394Y-1.2598
X2.5591Y-1.248
X2.5669Y-2.2559
X2.5937Y-2.1346
X2.5937Y-2.3315
X2.5984Y-1.2598
X2.6181Y-1.248
X2.6362Y-1.6894
X2.6378Y-1.1339
X2.6378Y-1.2835
X2.6378Y-2.1378
X2.6378Y-2.6654
X2.6378Y-2.7244
X2.6575Y-1.2598
X2.6772Y-1.248
X2.6965Y-1.6882
X2.7165Y-1.2598
X2.7362Y-1.248
X2.7559Y-1.1339
X2.7559Y-1.4213
X2.7559Y-2.6654
X2.7559Y-2.7244
T3
G00X0.5413Y-1.1961
M15
G01X0.5413Y-1.1488
M16
G05
G00X0.5413Y-1.4425
M15
G01X0.5413Y-1.3717
M16
G05
G00X1.1122Y-1.1488
M15
G01X1.1122Y-1.1961
M16
G05
G00X1.1122Y-1.3717
M15
G01X1.1122Y-1.4425
M16
G05
T0
M30
