%TF.GenerationSoftware,KiCad,Pcbnew,(5.99.0-3349-gc9824bbd9)*%
%TF.CreationDate,2020-09-22T14:29:42-07:00*%
%TF.ProjectId,Alchitry_IO_Shield,416c6368-6974-4727-995f-494f5f536869,rev?*%
%TF.SameCoordinates,Original*%
%TF.FileFunction,Legend,Bot*%
%TF.FilePolarity,Positive*%
%FSLAX46Y46*%
G04 Gerber Fmt 4.6, Leading zero omitted, Abs format (unit mm)*
G04 Created by KiCad (PCBNEW (5.99.0-3349-gc9824bbd9)) date 2020-09-22 14:29:42*
%MOMM*%
%LPD*%
G01*
G04 APERTURE LIST*
%ADD10C,0.100000*%
%ADD11C,0.127000*%
%ADD12C,0.120000*%
G04 APERTURE END LIST*
D10*
%TO.C,RN5*%
X54026190Y-50554761D02*
X53788095Y-50388095D01*
X54026190Y-50269047D02*
X53526190Y-50269047D01*
X53526190Y-50459523D01*
X53550000Y-50507142D01*
X53573809Y-50530952D01*
X53621428Y-50554761D01*
X53692857Y-50554761D01*
X53740476Y-50530952D01*
X53764285Y-50507142D01*
X53788095Y-50459523D01*
X53788095Y-50269047D01*
X54026190Y-50769047D02*
X53526190Y-50769047D01*
X54026190Y-51054761D01*
X53526190Y-51054761D01*
X53526190Y-51530952D02*
X53526190Y-51292857D01*
X53764285Y-51269047D01*
X53740476Y-51292857D01*
X53716666Y-51340476D01*
X53716666Y-51459523D01*
X53740476Y-51507142D01*
X53764285Y-51530952D01*
X53811904Y-51554761D01*
X53930952Y-51554761D01*
X53978571Y-51530952D01*
X54002380Y-51507142D01*
X54026190Y-51459523D01*
X54026190Y-51340476D01*
X54002380Y-51292857D01*
X53978571Y-51269047D01*
%TO.C,RN15*%
X36026190Y-50316666D02*
X35788095Y-50150000D01*
X36026190Y-50030952D02*
X35526190Y-50030952D01*
X35526190Y-50221428D01*
X35550000Y-50269047D01*
X35573809Y-50292857D01*
X35621428Y-50316666D01*
X35692857Y-50316666D01*
X35740476Y-50292857D01*
X35764285Y-50269047D01*
X35788095Y-50221428D01*
X35788095Y-50030952D01*
X36026190Y-50530952D02*
X35526190Y-50530952D01*
X36026190Y-50816666D01*
X35526190Y-50816666D01*
X36026190Y-51316666D02*
X36026190Y-51030952D01*
X36026190Y-51173809D02*
X35526190Y-51173809D01*
X35597619Y-51126190D01*
X35645238Y-51078571D01*
X35669047Y-51030952D01*
X35526190Y-51769047D02*
X35526190Y-51530952D01*
X35764285Y-51507142D01*
X35740476Y-51530952D01*
X35716666Y-51578571D01*
X35716666Y-51697619D01*
X35740476Y-51745238D01*
X35764285Y-51769047D01*
X35811904Y-51792857D01*
X35930952Y-51792857D01*
X35978571Y-51769047D01*
X36002380Y-51745238D01*
X36026190Y-51697619D01*
X36026190Y-51578571D01*
X36002380Y-51530952D01*
X35978571Y-51507142D01*
%TO.C,RN14*%
X29973809Y-60483333D02*
X30211904Y-60650000D01*
X29973809Y-60769047D02*
X30473809Y-60769047D01*
X30473809Y-60578571D01*
X30450000Y-60530952D01*
X30426190Y-60507142D01*
X30378571Y-60483333D01*
X30307142Y-60483333D01*
X30259523Y-60507142D01*
X30235714Y-60530952D01*
X30211904Y-60578571D01*
X30211904Y-60769047D01*
X29973809Y-60269047D02*
X30473809Y-60269047D01*
X29973809Y-59983333D01*
X30473809Y-59983333D01*
X29973809Y-59483333D02*
X29973809Y-59769047D01*
X29973809Y-59626190D02*
X30473809Y-59626190D01*
X30402380Y-59673809D01*
X30354761Y-59721428D01*
X30330952Y-59769047D01*
X30307142Y-59054761D02*
X29973809Y-59054761D01*
X30497619Y-59173809D02*
X30140476Y-59292857D01*
X30140476Y-58983333D01*
%TO.C,RN4*%
X34973809Y-60245238D02*
X35211904Y-60411904D01*
X34973809Y-60530952D02*
X35473809Y-60530952D01*
X35473809Y-60340476D01*
X35450000Y-60292857D01*
X35426190Y-60269047D01*
X35378571Y-60245238D01*
X35307142Y-60245238D01*
X35259523Y-60269047D01*
X35235714Y-60292857D01*
X35211904Y-60340476D01*
X35211904Y-60530952D01*
X34973809Y-60030952D02*
X35473809Y-60030952D01*
X34973809Y-59745238D01*
X35473809Y-59745238D01*
X35307142Y-59292857D02*
X34973809Y-59292857D01*
X35497619Y-59411904D02*
X35140476Y-59530952D01*
X35140476Y-59221428D01*
%TO.C,RN12*%
X42026190Y-50316666D02*
X41788095Y-50150000D01*
X42026190Y-50030952D02*
X41526190Y-50030952D01*
X41526190Y-50221428D01*
X41550000Y-50269047D01*
X41573809Y-50292857D01*
X41621428Y-50316666D01*
X41692857Y-50316666D01*
X41740476Y-50292857D01*
X41764285Y-50269047D01*
X41788095Y-50221428D01*
X41788095Y-50030952D01*
X42026190Y-50530952D02*
X41526190Y-50530952D01*
X42026190Y-50816666D01*
X41526190Y-50816666D01*
X42026190Y-51316666D02*
X42026190Y-51030952D01*
X42026190Y-51173809D02*
X41526190Y-51173809D01*
X41597619Y-51126190D01*
X41645238Y-51078571D01*
X41669047Y-51030952D01*
X41573809Y-51507142D02*
X41550000Y-51530952D01*
X41526190Y-51578571D01*
X41526190Y-51697619D01*
X41550000Y-51745238D01*
X41573809Y-51769047D01*
X41621428Y-51792857D01*
X41669047Y-51792857D01*
X41740476Y-51769047D01*
X42026190Y-51483333D01*
X42026190Y-51792857D01*
%TO.C,RN16*%
X47973809Y-60483333D02*
X48211904Y-60650000D01*
X47973809Y-60769047D02*
X48473809Y-60769047D01*
X48473809Y-60578571D01*
X48450000Y-60530952D01*
X48426190Y-60507142D01*
X48378571Y-60483333D01*
X48307142Y-60483333D01*
X48259523Y-60507142D01*
X48235714Y-60530952D01*
X48211904Y-60578571D01*
X48211904Y-60769047D01*
X47973809Y-60269047D02*
X48473809Y-60269047D01*
X47973809Y-59983333D01*
X48473809Y-59983333D01*
X47973809Y-59483333D02*
X47973809Y-59769047D01*
X47973809Y-59626190D02*
X48473809Y-59626190D01*
X48402380Y-59673809D01*
X48354761Y-59721428D01*
X48330952Y-59769047D01*
X48473809Y-59054761D02*
X48473809Y-59150000D01*
X48450000Y-59197619D01*
X48426190Y-59221428D01*
X48354761Y-59269047D01*
X48259523Y-59292857D01*
X48069047Y-59292857D01*
X48021428Y-59269047D01*
X47997619Y-59245238D01*
X47973809Y-59197619D01*
X47973809Y-59102380D01*
X47997619Y-59054761D01*
X48021428Y-59030952D01*
X48069047Y-59007142D01*
X48188095Y-59007142D01*
X48235714Y-59030952D01*
X48259523Y-59054761D01*
X48283333Y-59102380D01*
X48283333Y-59197619D01*
X48259523Y-59245238D01*
X48235714Y-59269047D01*
X48188095Y-59292857D01*
%TO.C,RN9*%
X48026190Y-50554761D02*
X47788095Y-50388095D01*
X48026190Y-50269047D02*
X47526190Y-50269047D01*
X47526190Y-50459523D01*
X47550000Y-50507142D01*
X47573809Y-50530952D01*
X47621428Y-50554761D01*
X47692857Y-50554761D01*
X47740476Y-50530952D01*
X47764285Y-50507142D01*
X47788095Y-50459523D01*
X47788095Y-50269047D01*
X48026190Y-50769047D02*
X47526190Y-50769047D01*
X48026190Y-51054761D01*
X47526190Y-51054761D01*
X48026190Y-51316666D02*
X48026190Y-51411904D01*
X48002380Y-51459523D01*
X47978571Y-51483333D01*
X47907142Y-51530952D01*
X47811904Y-51554761D01*
X47621428Y-51554761D01*
X47573809Y-51530952D01*
X47550000Y-51507142D01*
X47526190Y-51459523D01*
X47526190Y-51364285D01*
X47550000Y-51316666D01*
X47573809Y-51292857D01*
X47621428Y-51269047D01*
X47740476Y-51269047D01*
X47788095Y-51292857D01*
X47811904Y-51316666D01*
X47835714Y-51364285D01*
X47835714Y-51459523D01*
X47811904Y-51507142D01*
X47788095Y-51530952D01*
X47740476Y-51554761D01*
%TO.C,RN19*%
X42973809Y-60483333D02*
X43211904Y-60650000D01*
X42973809Y-60769047D02*
X43473809Y-60769047D01*
X43473809Y-60578571D01*
X43450000Y-60530952D01*
X43426190Y-60507142D01*
X43378571Y-60483333D01*
X43307142Y-60483333D01*
X43259523Y-60507142D01*
X43235714Y-60530952D01*
X43211904Y-60578571D01*
X43211904Y-60769047D01*
X42973809Y-60269047D02*
X43473809Y-60269047D01*
X42973809Y-59983333D01*
X43473809Y-59983333D01*
X42973809Y-59483333D02*
X42973809Y-59769047D01*
X42973809Y-59626190D02*
X43473809Y-59626190D01*
X43402380Y-59673809D01*
X43354761Y-59721428D01*
X43330952Y-59769047D01*
X42973809Y-59245238D02*
X42973809Y-59150000D01*
X42997619Y-59102380D01*
X43021428Y-59078571D01*
X43092857Y-59030952D01*
X43188095Y-59007142D01*
X43378571Y-59007142D01*
X43426190Y-59030952D01*
X43450000Y-59054761D01*
X43473809Y-59102380D01*
X43473809Y-59197619D01*
X43450000Y-59245238D01*
X43426190Y-59269047D01*
X43378571Y-59292857D01*
X43259523Y-59292857D01*
X43211904Y-59269047D01*
X43188095Y-59245238D01*
X43164285Y-59197619D01*
X43164285Y-59102380D01*
X43188095Y-59054761D01*
X43211904Y-59030952D01*
X43259523Y-59007142D01*
D11*
%TO.C,U1*%
X30900000Y-31650001D02*
X31100000Y-31650001D01*
X56400000Y-67650001D02*
X56600000Y-67650001D01*
X71600000Y-70450001D02*
X71600000Y-66450001D01*
X34900000Y-67650001D02*
X35100000Y-67650001D01*
X56600000Y-33250001D02*
X56400000Y-33250001D01*
X56600000Y-67650001D02*
X56600000Y-69250001D01*
X34900000Y-69250001D02*
X34900000Y-70450001D01*
X30900000Y-30450001D02*
X30900000Y-31650001D01*
X30900000Y-31650001D02*
X30900000Y-33250001D01*
X50100000Y-70450001D02*
X50100000Y-66450001D01*
X31100000Y-31650001D02*
X31100000Y-33250001D01*
X56400000Y-33250001D02*
X56400000Y-34450001D01*
X46100000Y-30450001D02*
X30900000Y-30450001D01*
X50100000Y-66450001D02*
X34900000Y-66450001D01*
X56400000Y-69250001D02*
X56400000Y-70450001D01*
X71600000Y-34450001D02*
X71600000Y-30450001D01*
X31100000Y-33250001D02*
X30900000Y-33250001D01*
X56600000Y-31650001D02*
X56600000Y-33250001D01*
X34900000Y-67650001D02*
X34900000Y-69250001D01*
X71600000Y-66450001D02*
X56400000Y-66450001D01*
X35100000Y-67650001D02*
X35100000Y-69250001D01*
X56600000Y-69250001D02*
X56400000Y-69250001D01*
X34900000Y-70450001D02*
X50100000Y-70450001D01*
X71600000Y-30450001D02*
X56400000Y-30450001D01*
X56400000Y-31650001D02*
X56600000Y-31650001D01*
X56400000Y-66450001D02*
X56400000Y-67650001D01*
X56400000Y-31650001D02*
X56400000Y-33250001D01*
X34900000Y-66450001D02*
X34900000Y-67650001D01*
X56400000Y-67650001D02*
X56400000Y-69250001D01*
X56400000Y-70450001D02*
X71600000Y-70450001D01*
X35100000Y-69250001D02*
X34900000Y-69250001D01*
X56400000Y-34450001D02*
X71600000Y-34450001D01*
X46100000Y-34450001D02*
X46100000Y-30450001D01*
X30900000Y-33250001D02*
X30900000Y-34450001D01*
X56400000Y-30450001D02*
X56400000Y-31650001D01*
X30900000Y-34450001D02*
X46100000Y-34450001D01*
D12*
%TO.C,RN5*%
X52680000Y-50400000D02*
X52680000Y-51400000D01*
X49320000Y-50400000D02*
X49320000Y-51400000D01*
%TO.C,RN15*%
X31320000Y-50400000D02*
X31320000Y-51400000D01*
X34680000Y-50400000D02*
X34680000Y-51400000D01*
%TO.C,RN14*%
X31320000Y-60400000D02*
X31320000Y-59400000D01*
X34680000Y-60400000D02*
X34680000Y-59400000D01*
%TO.C,RN4*%
X39680000Y-60400000D02*
X39680000Y-59400000D01*
X36320000Y-60400000D02*
X36320000Y-59400000D01*
%TO.C,RN12*%
X37320000Y-50400000D02*
X37320000Y-51400000D01*
X40680000Y-50400000D02*
X40680000Y-51400000D01*
%TO.C,RN16*%
X49320000Y-60400000D02*
X49320000Y-59400000D01*
X52680000Y-60400000D02*
X52680000Y-59400000D01*
%TO.C,RN9*%
X46680000Y-50400000D02*
X46680000Y-51400000D01*
X43320000Y-50400000D02*
X43320000Y-51400000D01*
%TO.C,RN19*%
X44320000Y-60400000D02*
X44320000Y-59400000D01*
X47680000Y-60400000D02*
X47680000Y-59400000D01*
%TD*%
M02*
