M48
; DRILL file {KiCad (5.99.0-2671-gfc0a358ba)} date Friday, September 04, 2020 at 12:37:17 PM
; FORMAT={-:-/ absolute / inch / decimal}
; #@! TF.CreationDate,2020-09-04T12:37:17+05:30
; #@! TF.GenerationSoftware,Kicad,Pcbnew,(5.99.0-2671-gfc0a358ba)
; #@! TF.FileFunction,Plated,1,4,PTH
FMAT,2
INCH
T1C0.0118
T2C0.0138
T3C0.0276
%
G90
G05
T1
X0.5753Y-1.7114
X0.605Y-1.7114
X0.616Y-1.6713
X0.6299Y-1.063
X0.6299Y-1.1024
X0.6299Y-1.1417
X0.6299Y-1.1811
X0.6299Y-1.2205
X0.6299Y-1.2598
X0.6456Y-1.6713
X0.6566Y-1.7077
X0.6693Y-1.063
X0.6693Y-1.1024
X0.6693Y-1.1417
X0.6693Y-1.1811
X0.6693Y-1.2205
X0.6693Y-1.9075
X0.6862Y-1.7077
X0.6978Y-1.6732
X0.7087Y-1.063
X0.7087Y-1.1024
X0.7087Y-1.1417
X0.7087Y-1.1811
X0.7087Y-2.0472
X0.7264Y-2.0217
X0.7274Y-1.6732
X0.748Y-1.9843
X0.7677Y-2.1358
X0.8386Y-1.6368
X0.8461Y-1.9045
X0.8504Y-1.7461
X0.8524Y-1.7972
X0.9016Y-1.0438
X0.9016Y-1.1299
X0.9055Y-1.1811
X0.9055Y-1.2205
X0.9055Y-1.2598
X0.9055Y-1.2992
X0.9055Y-1.3386
X0.9055Y-1.378
X0.9055Y-1.4173
X0.9154Y-1.7087
X0.9213Y-2.1654
X0.935Y-1.0866
X0.935Y-2.0768
X0.9528Y-2.1614
X0.9572Y-1.6134
X0.9606Y-1.5827
X0.9843Y-2.0728
X0.9859Y-1.6121
X1.0138Y-2.1614
X1.0145Y-1.622
X1.0149Y-2.0675
X1.0315Y-0.9409
X1.0335Y-2.0827
X1.0508Y-0.9197
X1.0532Y-2.0702
X1.0705Y-0.8989
X1.0728Y-2.0827
X1.0748Y-0.7717
X1.0898Y-0.9227
X1.1092Y-0.9453
X1.1122Y-0.6287
X1.121Y-0.8484
X1.122Y-0.7205
X1.1292Y-0.9248
X1.1319Y-2.1594
X1.1417Y-0.6283
X1.1492Y-0.6709
X1.1495Y-0.8462
X1.1781Y-0.8462
X1.1949Y-2.1161
X1.198Y-0.6366
X1.2008Y-1.7063
X1.2264Y-0.5441
X1.2795Y-0.7972
X1.2795Y-0.6201
X1.2894Y-1.882
X1.2913Y-1.8051
X1.2913Y-2.1811
X1.2992Y-0.502
X1.2992Y-0.6791
X1.3189Y-0.6201
X1.3189Y-0.7972
X1.3189Y-0.9528
X1.3189Y-1.1929
X1.3189Y-1.4291
X1.3386Y-0.502
X1.3386Y-0.6791
X1.3504Y-0.9528
X1.3504Y-1.1929
X1.3504Y-1.4291
X1.3583Y-0.6201
X1.3583Y-0.7972
X1.378Y-0.502
X1.378Y-0.6791
X1.3819Y-0.9528
X1.3819Y-1.1929
X1.3819Y-1.4291
X1.3976Y-0.6201
X1.3976Y-0.7972
X1.4134Y-0.9528
X1.4134Y-1.1929
X1.4134Y-1.4291
X1.4173Y-0.502
X1.4173Y-0.6791
X1.437Y-0.6201
X1.437Y-0.7972
X1.437Y-1.9193
X1.437Y-2.0965
X1.4567Y-0.502
X1.4567Y-0.6791
X1.4567Y-2.0374
X1.4567Y-2.2146
X1.4764Y-0.6201
X1.4764Y-0.7972
X1.4764Y-1.9193
X1.4764Y-2.0965
X1.4961Y-0.502
X1.4961Y-0.6791
X1.4961Y-2.0374
X1.4961Y-2.2146
X1.5079Y-1.0748
X1.5079Y-1.311
X1.5079Y-1.5472
X1.5157Y-0.6201
X1.5157Y-0.7972
X1.5157Y-1.9193
X1.5157Y-2.0965
X1.5354Y-0.502
X1.5354Y-0.6791
X1.5354Y-2.0374
X1.5354Y-2.2146
X1.5394Y-1.0748
X1.5394Y-1.311
X1.5394Y-1.5472
X1.5551Y-0.6201
X1.5551Y-0.7972
X1.5551Y-1.9193
X1.5551Y-2.0965
X1.5709Y-1.0748
X1.5709Y-1.311
X1.5709Y-1.5472
X1.5748Y-0.502
X1.5748Y-0.6791
X1.5748Y-1.8704
X1.5748Y-2.0374
X1.5748Y-2.2146
X1.5945Y-0.6201
X1.5945Y-0.7972
X1.5945Y-1.9193
X1.5945Y-2.0965
X1.6024Y-1.0748
X1.6024Y-1.311
X1.6024Y-1.5472
X1.6142Y-0.502
X1.6142Y-0.6791
X1.6142Y-1.8704
X1.6142Y-2.0374
X1.6142Y-2.2146
X1.6339Y-0.6201
X1.6339Y-0.7972
X1.6339Y-1.9193
X1.6339Y-2.0965
X1.6515Y-2.0668
X1.6535Y-0.502
X1.6535Y-0.6791
X1.6535Y-2.0374
X1.6535Y-2.2146
X1.6732Y-0.6201
X1.6732Y-0.7972
X1.6732Y-1.9193
X1.6732Y-2.0965
X1.6929Y-0.502
X1.6929Y-0.6791
X1.6929Y-2.0374
X1.6929Y-2.2146
X1.7126Y-0.6201
X1.7126Y-0.7972
X1.7126Y-1.9193
X1.7126Y-2.0965
X1.7224Y-1.8209
X1.7323Y-0.502
X1.7323Y-0.6791
X1.7323Y-2.0374
X1.7323Y-2.2146
X1.752Y-0.6201
X1.752Y-0.7972
X1.752Y-1.9193
X1.752Y-2.0965
X1.7614Y-1.8172
X1.7717Y-2.0374
X1.7717Y-2.2146
X1.7906Y-1.8192
X1.7913Y-1.9193
X1.7913Y-2.0965
X1.811Y-2.0374
X1.811Y-2.2146
X1.8206Y-1.8218
X1.8307Y-1.5748
X1.8307Y-1.6142
X1.8307Y-2.0965
X1.8335Y-1.6535
X1.8341Y-1.6935
X1.8346Y-1.9193
X1.8504Y-2.0374
X1.8504Y-2.2133
X1.8543Y-1.5945
X1.8543Y-1.6339
X1.8543Y-1.6732
X1.8543Y-1.7165
X1.8701Y-1.9193
X1.8701Y-2.0965
X1.874Y-0.7165
X1.8896Y-2.0372
X1.8898Y-2.2133
X1.9094Y-2.0966
X1.9114Y-1.9193
X1.9213Y-1.7165
X1.9339Y-1.4173
X1.9339Y-1.811
X1.9508Y-0.9921
X1.9508Y-1.2913
X1.9528Y-1.6725
X1.9642Y-0.6461
X1.984Y-1.6532
X1.9842Y-0.7163
X1.9894Y-0.5709
X1.9906Y-1.4173
X1.9906Y-1.811
X2.0Y-0.9941
X2.0Y-1.1417
X2.002Y-1.2913
X2.0177Y-1.6339
X2.0236Y-1.7362
X2.0315Y-1.1417
X2.0472Y-1.4173
X2.0472Y-1.811
X2.0512Y-0.9921
X2.052Y-1.2386
X2.0551Y-0.6299
X2.063Y-1.1417
X2.0779Y-1.6138
X2.0945Y-1.1417
X2.1004Y-0.9921
X2.1024Y-1.2913
X2.1039Y-1.811
X2.1102Y-1.5945
X2.1283Y-0.6531
X2.1417Y-1.5748
X2.1496Y-1.2913
X2.1516Y-0.9921
X2.1575Y-1.1417
X2.1606Y-1.4173
X2.1606Y-1.811
X2.1614Y-1.4902
X2.1707Y-0.7217
X2.1732Y-1.6929
X2.174Y-0.691
X2.1753Y-0.634
X2.1884Y-0.748
X2.189Y-1.1417
X2.2008Y-0.9921
X2.2008Y-1.2933
X2.2205Y-1.1417
X2.2323Y-1.7165
X2.2488Y-1.4173
X2.2488Y-1.811
X2.25Y-0.9921
X2.252Y-1.1417
X2.252Y-1.2913
X2.2575Y-0.7362
X2.2618Y-1.6725
X2.2791Y-0.7997
X2.2835Y-0.6201
X2.2835Y-1.9193
X2.2835Y-2.0965
X2.2933Y-1.6532
X2.3012Y-0.9921
X2.3012Y-1.2913
X2.3031Y-0.502
X2.3031Y-0.6791
X2.3031Y-2.0374
X2.3031Y-2.2146
X2.3055Y-1.4173
X2.3055Y-1.811
X2.3228Y-0.6201
X2.3228Y-0.7972
X2.3228Y-1.9193
X2.3228Y-2.0965
X2.3248Y-1.6331
X2.3311Y-0.997
X2.3322Y-1.7417
X2.3425Y-0.502
X2.3425Y-0.6791
X2.3425Y-2.0374
X2.3425Y-2.2146
X2.3622Y-0.6201
X2.3622Y-0.7972
X2.3622Y-1.8091
X2.3622Y-1.9193
X2.3622Y-2.0965
X2.3642Y-1.4173
X2.3819Y-0.502
X2.3819Y-0.6791
X2.3819Y-2.0374
X2.3819Y-2.2146
X2.3957Y-1.6161
X2.4015Y-0.7972
X2.4016Y-0.6201
X2.4016Y-1.9193
X2.4016Y-2.0965
X2.4189Y-1.811
X2.4213Y-0.502
X2.4213Y-0.6791
X2.4213Y-2.0374
X2.4213Y-2.2146
X2.4232Y-1.2913
X2.4252Y-1.5945
X2.4409Y-0.6201
X2.4409Y-0.7972
X2.4409Y-1.9193
X2.4409Y-2.0965
X2.4567Y-1.5748
X2.4606Y-0.502
X2.4606Y-0.6791
X2.4606Y-2.0374
X2.4606Y-2.2146
X2.4724Y-1.0807
X2.4724Y-1.1417
X2.4724Y-1.2894
X2.4756Y-1.4173
X2.4756Y-1.811
X2.476Y-1.4921
X2.4771Y-0.9855
X2.4803Y-0.6201
X2.4803Y-0.7972
X2.4803Y-1.9193
X2.4803Y-2.0965
X2.4882Y-1.6929
X2.5Y-0.502
X2.5Y-0.6791
X2.5Y-2.0374
X2.5Y-2.2146
X2.5039Y-1.1417
X2.5197Y-0.6201
X2.5197Y-0.7972
X2.5197Y-1.9193
X2.5197Y-2.0965
X2.5236Y-0.9921
X2.5236Y-1.2913
X2.5354Y-1.1417
X2.5394Y-0.502
X2.5394Y-0.6791
X2.5394Y-2.0374
X2.5394Y-2.2146
X2.5472Y-1.7165
X2.5591Y-0.6201
X2.5591Y-0.7972
X2.5591Y-1.9193
X2.5591Y-2.0965
X2.5638Y-1.4173
X2.5669Y-1.1417
X2.5728Y-0.9921
X2.5748Y-1.2933
X2.5759Y-1.7166
X2.5787Y-0.502
X2.5787Y-0.6791
X2.5787Y-2.0374
X2.5787Y-2.2146
X2.5829Y-1.6725
X2.5984Y-0.6201
X2.5984Y-0.7972
X2.5984Y-1.9193
X2.5984Y-2.0965
X2.6142Y-1.6555
X2.6181Y-0.502
X2.6181Y-0.6791
X2.6181Y-2.0374
X2.6181Y-2.2146
X2.6205Y-1.4173
X2.622Y-0.9921
X2.624Y-1.2933
X2.6299Y-1.1417
X2.6378Y-0.6201
X2.6378Y-0.7972
X2.6378Y-1.9193
X2.6378Y-2.0965
X2.644Y-1.6335
X2.6575Y-0.502
X2.6575Y-0.6791
X2.6575Y-2.0374
X2.6575Y-2.2146
X2.6614Y-1.1417
X2.6732Y-0.9921
X2.6732Y-1.2913
X2.6772Y-0.6201
X2.6772Y-0.7972
X2.6772Y-1.4173
X2.6772Y-1.4921
X2.6772Y-1.811
X2.6772Y-1.9193
X2.6772Y-2.0965
X2.6929Y-1.1417
X2.6929Y-1.685
X2.6969Y-0.502
X2.6969Y-0.6791
X2.6969Y-2.2146
X2.6972Y-2.0374
X2.7106Y-1.6139
X2.7165Y-0.6201
X2.7165Y-0.7972
X2.7165Y-1.9193
X2.7165Y-2.0965
X2.7224Y-0.9921
X2.7224Y-1.2933
X2.7244Y-1.1417
X2.7339Y-1.811
X2.7362Y-0.502
X2.7362Y-0.6791
X2.7362Y-2.0374
X2.7362Y-2.2146
X2.7402Y-1.5394
X2.7402Y-1.5984
X2.7559Y-0.6201
X2.7559Y-0.7972
X2.7559Y-1.9193
X2.7559Y-2.0965
X2.7717Y-0.9921
X2.7717Y-1.5819
X2.7736Y-1.2933
X2.7906Y-1.4173
X2.7906Y-1.811
X2.7992Y-1.6535
X2.8031Y-1.4893
T2
X0.9055Y-1.7756
X0.9055Y-1.8346
X0.9055Y-1.8937
X0.9055Y-1.9528
X0.9055Y-2.0118
X0.9646Y-1.7756
X0.9646Y-1.8346
X0.9646Y-1.8937
X0.9646Y-1.9528
X0.9646Y-2.0118
X1.0236Y-1.7756
X1.0236Y-1.8346
X1.0236Y-1.8937
X1.0236Y-1.9528
X1.0236Y-2.0118
X1.0827Y-1.7756
X1.0827Y-1.8346
X1.0827Y-1.8937
X1.0827Y-1.9528
X1.0827Y-2.0118
X1.1417Y-1.7756
X1.1417Y-1.8346
X1.1417Y-1.8937
X1.1417Y-1.9528
X1.1417Y-2.0118
T3
G00X0.5571Y-0.9587
M15
G01X0.5374Y-0.9587
M16
G05
G00X0.5571Y-1.5295
M15
G01X0.5374Y-1.5295
M16
G05
G00X0.813Y-0.9587
M15
G01X0.7539Y-0.9587
M16
G05
G00X0.813Y-1.5295
M15
G01X0.7539Y-1.5295
M16
G05
T0
M30
