G04 #@! TF.GenerationSoftware,KiCad,Pcbnew,(5.99.0-2671-gfc0a358ba)*
G04 #@! TF.CreationDate,2020-09-04T12:37:15+05:30*
G04 #@! TF.ProjectId,Alchitry_IO_Shield,416c6368-6974-4727-995f-494f5f536869,rev?*
G04 #@! TF.SameCoordinates,Original*
G04 #@! TF.FileFunction,Paste,Top*
G04 #@! TF.FilePolarity,Positive*
%FSLAX46Y46*%
G04 Gerber Fmt 4.6, Leading zero omitted, Abs format (unit mm)*
G04 Created by KiCad (PCBNEW (5.99.0-2671-gfc0a358ba)) date 2020-09-04 12:37:15*
%MOMM*%
%LPD*%
G01*
G04 APERTURE LIST*
%ADD10R,0.760000X1.600000*%
%ADD11R,0.250000X2.000000*%
%ADD12R,3.000000X0.300000*%
%ADD13R,0.900000X2.800000*%
%ADD14R,0.400000X0.900000*%
G04 APERTURE END LIST*
G36*
G01*
X30772500Y-51245000D02*
X30427500Y-51245000D01*
G75*
G02*
X30280000Y-51097500I0J147500D01*
G01*
X30280000Y-50802500D01*
G75*
G02*
X30427500Y-50655000I147500J0D01*
G01*
X30772500Y-50655000D01*
G75*
G02*
X30920000Y-50802500I0J-147500D01*
G01*
X30920000Y-51097500D01*
G75*
G02*
X30772500Y-51245000I-147500J0D01*
G01*
G37*
G36*
G01*
X30772500Y-50275000D02*
X30427500Y-50275000D01*
G75*
G02*
X30280000Y-50127500I0J147500D01*
G01*
X30280000Y-49832500D01*
G75*
G02*
X30427500Y-49685000I147500J0D01*
G01*
X30772500Y-49685000D01*
G75*
G02*
X30920000Y-49832500I0J-147500D01*
G01*
X30920000Y-50127500D01*
G75*
G02*
X30772500Y-50275000I-147500J0D01*
G01*
G37*
G36*
G01*
X30772500Y-49360000D02*
X30427500Y-49360000D01*
G75*
G02*
X30280000Y-49212500I0J147500D01*
G01*
X30280000Y-48917500D01*
G75*
G02*
X30427500Y-48770000I147500J0D01*
G01*
X30772500Y-48770000D01*
G75*
G02*
X30920000Y-48917500I0J-147500D01*
G01*
X30920000Y-49212500D01*
G75*
G02*
X30772500Y-49360000I-147500J0D01*
G01*
G37*
G36*
G01*
X25295000Y-43227500D02*
X25295000Y-43572500D01*
G75*
G02*
X25147500Y-43720000I-147500J0D01*
G01*
X24852500Y-43720000D01*
G75*
G02*
X24705000Y-43572500I0J147500D01*
G01*
X24705000Y-43227500D01*
G75*
G02*
X24852500Y-43080000I147500J0D01*
G01*
X25147500Y-43080000D01*
G75*
G02*
X25295000Y-43227500I0J-147500D01*
G01*
G37*
G36*
G01*
X24325000Y-43227500D02*
X24325000Y-43572500D01*
G75*
G02*
X24177500Y-43720000I-147500J0D01*
G01*
X23882500Y-43720000D01*
G75*
G02*
X23735000Y-43572500I0J147500D01*
G01*
X23735000Y-43227500D01*
G75*
G02*
X23882500Y-43080000I147500J0D01*
G01*
X24177500Y-43080000D01*
G75*
G02*
X24325000Y-43227500I0J-147500D01*
G01*
G37*
D10*
X49555000Y-32810000D03*
X50825000Y-32810000D03*
X52095000Y-32810000D03*
X53365000Y-32810000D03*
X54635000Y-32810000D03*
X55905000Y-32810000D03*
X57175000Y-32810000D03*
X58445000Y-32810000D03*
X58445000Y-25190000D03*
X57175000Y-25190000D03*
X55905000Y-25190000D03*
X54635000Y-25190000D03*
X53365000Y-25190000D03*
X52095000Y-25190000D03*
X50825000Y-25190000D03*
X49555000Y-25190000D03*
D11*
X32500000Y-18700000D03*
X33000000Y-18700000D03*
X33500000Y-18700000D03*
X34000000Y-18700000D03*
X34500000Y-18700000D03*
X35000000Y-18700000D03*
X35500000Y-18700000D03*
X36000000Y-18700000D03*
X36500000Y-18700000D03*
X37000000Y-18700000D03*
X37500000Y-18700000D03*
X38000000Y-18700000D03*
X38500000Y-18700000D03*
X39000000Y-18700000D03*
X39500000Y-18700000D03*
X40000000Y-18700000D03*
X40500000Y-18700000D03*
X41000000Y-18700000D03*
X41500000Y-18700000D03*
X42000000Y-18700000D03*
X42500000Y-18700000D03*
X43000000Y-18700000D03*
X43500000Y-18700000D03*
X44000000Y-18700000D03*
X44500000Y-18700000D03*
X44500000Y-14300000D03*
X44000000Y-14300000D03*
X43500000Y-14300000D03*
X43000000Y-14300000D03*
X42500000Y-14300000D03*
X42000000Y-14300000D03*
X41500000Y-14300000D03*
X41000000Y-14300000D03*
X40500000Y-14300000D03*
X40000000Y-14300000D03*
X39500000Y-14300000D03*
X39000000Y-14300000D03*
X38500000Y-14300000D03*
X38000000Y-14300000D03*
X37500000Y-14300000D03*
X37000000Y-14300000D03*
X36500000Y-14300000D03*
X36000000Y-14300000D03*
X35500000Y-14300000D03*
X35000000Y-14300000D03*
X34500000Y-14300000D03*
X34000000Y-14300000D03*
X33500000Y-14300000D03*
X33000000Y-14300000D03*
X32500000Y-14300000D03*
X58000000Y-18700000D03*
X58500000Y-18700000D03*
X59000000Y-18700000D03*
X59500000Y-18700000D03*
X60000000Y-18700000D03*
X60500000Y-18700000D03*
X61000000Y-18700000D03*
X61500000Y-18700000D03*
X62000000Y-18700000D03*
X62500000Y-18700000D03*
X63000000Y-18700000D03*
X63500000Y-18700000D03*
X64000000Y-18700000D03*
X64500000Y-18700000D03*
X65000000Y-18700000D03*
X65500000Y-18700000D03*
X66000000Y-18700000D03*
X66500000Y-18700000D03*
X67000000Y-18700000D03*
X67500000Y-18700000D03*
X68000000Y-18700000D03*
X68500000Y-18700000D03*
X69000000Y-18700000D03*
X69500000Y-18700000D03*
X70000000Y-18700000D03*
X70000000Y-14300000D03*
X69500000Y-14300000D03*
X69000000Y-14300000D03*
X68500000Y-14300000D03*
X68000000Y-14300000D03*
X67500000Y-14300000D03*
X67000000Y-14300000D03*
X66500000Y-14300000D03*
X66000000Y-14300000D03*
X65500000Y-14300000D03*
X65000000Y-14300000D03*
X64500000Y-14300000D03*
X64000000Y-14300000D03*
X63500000Y-14300000D03*
X63000000Y-14300000D03*
X62500000Y-14300000D03*
X62000000Y-14300000D03*
X61500000Y-14300000D03*
X61000000Y-14300000D03*
X60500000Y-14300000D03*
X60000000Y-14300000D03*
X59500000Y-14300000D03*
X59000000Y-14300000D03*
X58500000Y-14300000D03*
X58000000Y-14300000D03*
X36500000Y-54700000D03*
X37000000Y-54700000D03*
X37500000Y-54700000D03*
X38000000Y-54700000D03*
X38500000Y-54700000D03*
X39000000Y-54700000D03*
X39500000Y-54700000D03*
X40000000Y-54700000D03*
X40500000Y-54700000D03*
X41000000Y-54700000D03*
X41500000Y-54700000D03*
X42000000Y-54700000D03*
X42500000Y-54700000D03*
X43000000Y-54700000D03*
X43500000Y-54700000D03*
X44000000Y-54700000D03*
X44500000Y-54700000D03*
X45000000Y-54700000D03*
X45500000Y-54700000D03*
X46000000Y-54700000D03*
X46500000Y-54700000D03*
X47000000Y-54700000D03*
X47500000Y-54700000D03*
X48000000Y-54700000D03*
X48500000Y-54700000D03*
X48500000Y-50300000D03*
X48000000Y-50300000D03*
X47500000Y-50300000D03*
X47000000Y-50300000D03*
X46500000Y-50300000D03*
X46000000Y-50300000D03*
X45500000Y-50300000D03*
X45000000Y-50300000D03*
X44500000Y-50300000D03*
X44000000Y-50300000D03*
X43500000Y-50300000D03*
X43000000Y-50300000D03*
X42500000Y-50300000D03*
X42000000Y-50300000D03*
X41500000Y-50300000D03*
X41000000Y-50300000D03*
X40500000Y-50300000D03*
X40000000Y-50300000D03*
X39500000Y-50300000D03*
X39000000Y-50300000D03*
X38500000Y-50300000D03*
X38000000Y-50300000D03*
X37500000Y-50300000D03*
X37000000Y-50300000D03*
X36500000Y-50300000D03*
X58000000Y-54700000D03*
X58500000Y-54700000D03*
X59000000Y-54700000D03*
X59500000Y-54700000D03*
X60000000Y-54700000D03*
X60500000Y-54700000D03*
X61000000Y-54700000D03*
X61500000Y-54700000D03*
X62000000Y-54700000D03*
X62500000Y-54700000D03*
X63000000Y-54700000D03*
X63500000Y-54700000D03*
X64000000Y-54700000D03*
X64500000Y-54700000D03*
X65000000Y-54700000D03*
X65500000Y-54700000D03*
X66000000Y-54700000D03*
X66500000Y-54700000D03*
X67000000Y-54700000D03*
X67500000Y-54700000D03*
X68000000Y-54700000D03*
X68500000Y-54700000D03*
X69000000Y-54700000D03*
X69500000Y-54700000D03*
X70000000Y-54700000D03*
X70000000Y-50300000D03*
X69500000Y-50300000D03*
X69000000Y-50300000D03*
X68500000Y-50300000D03*
X68000000Y-50300000D03*
X67500000Y-50300000D03*
X67000000Y-50300000D03*
X66500000Y-50300000D03*
X66000000Y-50300000D03*
X65500000Y-50300000D03*
X65000000Y-50300000D03*
X64500000Y-50300000D03*
X64000000Y-50300000D03*
X63500000Y-50300000D03*
X63000000Y-50300000D03*
X62500000Y-50300000D03*
X62000000Y-50300000D03*
X61500000Y-50300000D03*
X61000000Y-50300000D03*
X60500000Y-50300000D03*
X60000000Y-50300000D03*
X59500000Y-50300000D03*
X59000000Y-50300000D03*
X58500000Y-50300000D03*
X58000000Y-50300000D03*
D12*
X20500000Y-36100000D03*
X20500000Y-35600000D03*
X20500000Y-35100000D03*
X20500000Y-34600000D03*
X20500000Y-34100000D03*
X20500000Y-33600000D03*
X20500000Y-33100000D03*
X20500000Y-32600000D03*
X20500000Y-32100000D03*
X20500000Y-31600000D03*
X20500000Y-31100000D03*
X20500000Y-30600000D03*
X20500000Y-30100000D03*
X20500000Y-29600000D03*
X20500000Y-29100000D03*
X20500000Y-28600000D03*
X20500000Y-28100000D03*
X20500000Y-27600000D03*
X20500000Y-27100000D03*
G36*
G01*
X30772500Y-47945000D02*
X30427500Y-47945000D01*
G75*
G02*
X30280000Y-47797500I0J147500D01*
G01*
X30280000Y-47502500D01*
G75*
G02*
X30427500Y-47355000I147500J0D01*
G01*
X30772500Y-47355000D01*
G75*
G02*
X30920000Y-47502500I0J-147500D01*
G01*
X30920000Y-47797500D01*
G75*
G02*
X30772500Y-47945000I-147500J0D01*
G01*
G37*
G36*
G01*
X30772500Y-46975000D02*
X30427500Y-46975000D01*
G75*
G02*
X30280000Y-46827500I0J147500D01*
G01*
X30280000Y-46532500D01*
G75*
G02*
X30427500Y-46385000I147500J0D01*
G01*
X30772500Y-46385000D01*
G75*
G02*
X30920000Y-46532500I0J-147500D01*
G01*
X30920000Y-46827500D01*
G75*
G02*
X30772500Y-46975000I-147500J0D01*
G01*
G37*
G36*
G01*
X30772500Y-46060000D02*
X30427500Y-46060000D01*
G75*
G02*
X30280000Y-45912500I0J147500D01*
G01*
X30280000Y-45617500D01*
G75*
G02*
X30427500Y-45470000I147500J0D01*
G01*
X30772500Y-45470000D01*
G75*
G02*
X30920000Y-45617500I0J-147500D01*
G01*
X30920000Y-45912500D01*
G75*
G02*
X30772500Y-46060000I-147500J0D01*
G01*
G37*
G36*
G01*
X27535000Y-43572500D02*
X27535000Y-43227500D01*
G75*
G02*
X27682500Y-43080000I147500J0D01*
G01*
X27977500Y-43080000D01*
G75*
G02*
X28125000Y-43227500I0J-147500D01*
G01*
X28125000Y-43572500D01*
G75*
G02*
X27977500Y-43720000I-147500J0D01*
G01*
X27682500Y-43720000D01*
G75*
G02*
X27535000Y-43572500I0J147500D01*
G01*
G37*
G36*
G01*
X28505000Y-43572500D02*
X28505000Y-43227500D01*
G75*
G02*
X28652500Y-43080000I147500J0D01*
G01*
X28947500Y-43080000D01*
G75*
G02*
X29095000Y-43227500I0J-147500D01*
G01*
X29095000Y-43572500D01*
G75*
G02*
X28947500Y-43720000I-147500J0D01*
G01*
X28652500Y-43720000D01*
G75*
G02*
X28505000Y-43572500I0J147500D01*
G01*
G37*
G36*
G01*
X29420000Y-43572500D02*
X29420000Y-43227500D01*
G75*
G02*
X29567500Y-43080000I147500J0D01*
G01*
X29862500Y-43080000D01*
G75*
G02*
X30010000Y-43227500I0J-147500D01*
G01*
X30010000Y-43572500D01*
G75*
G02*
X29862500Y-43720000I-147500J0D01*
G01*
X29567500Y-43720000D01*
G75*
G02*
X29420000Y-43572500I0J147500D01*
G01*
G37*
D13*
X57120000Y-46000000D03*
X58560000Y-46000000D03*
X60000000Y-46000000D03*
X61440000Y-46000000D03*
X62880000Y-46000000D03*
X62880000Y-36000000D03*
X61440000Y-36000000D03*
X60000000Y-36000000D03*
X58560000Y-36000000D03*
X57120000Y-36000000D03*
D10*
X61555000Y-32810000D03*
X62825000Y-32810000D03*
X64095000Y-32810000D03*
X65365000Y-32810000D03*
X66635000Y-32810000D03*
X67905000Y-32810000D03*
X69175000Y-32810000D03*
X70445000Y-32810000D03*
X70445000Y-25190000D03*
X69175000Y-25190000D03*
X67905000Y-25190000D03*
X66635000Y-25190000D03*
X65365000Y-25190000D03*
X64095000Y-25190000D03*
X62825000Y-25190000D03*
X61555000Y-25190000D03*
G36*
G01*
X29900000Y-35256250D02*
X29900000Y-34743750D01*
G75*
G02*
X30118750Y-34525000I218750J0D01*
G01*
X30556250Y-34525000D01*
G75*
G02*
X30775000Y-34743750I0J-218750D01*
G01*
X30775000Y-35256250D01*
G75*
G02*
X30556250Y-35475000I-218750J0D01*
G01*
X30118750Y-35475000D01*
G75*
G02*
X29900000Y-35256250I0J218750D01*
G01*
G37*
G36*
G01*
X31475000Y-35256250D02*
X31475000Y-34743750D01*
G75*
G02*
X31693750Y-34525000I218750J0D01*
G01*
X32131250Y-34525000D01*
G75*
G02*
X32350000Y-34743750I0J-218750D01*
G01*
X32350000Y-35256250D01*
G75*
G02*
X32131250Y-35475000I-218750J0D01*
G01*
X31693750Y-35475000D01*
G75*
G02*
X31475000Y-35256250I0J218750D01*
G01*
G37*
G36*
G01*
X41900000Y-32256250D02*
X41900000Y-31743750D01*
G75*
G02*
X42118750Y-31525000I218750J0D01*
G01*
X42556250Y-31525000D01*
G75*
G02*
X42775000Y-31743750I0J-218750D01*
G01*
X42775000Y-32256250D01*
G75*
G02*
X42556250Y-32475000I-218750J0D01*
G01*
X42118750Y-32475000D01*
G75*
G02*
X41900000Y-32256250I0J218750D01*
G01*
G37*
G36*
G01*
X43475000Y-32256250D02*
X43475000Y-31743750D01*
G75*
G02*
X43693750Y-31525000I218750J0D01*
G01*
X44131250Y-31525000D01*
G75*
G02*
X44350000Y-31743750I0J-218750D01*
G01*
X44350000Y-32256250D01*
G75*
G02*
X44131250Y-32475000I-218750J0D01*
G01*
X43693750Y-32475000D01*
G75*
G02*
X43475000Y-32256250I0J218750D01*
G01*
G37*
G36*
G01*
X33900000Y-32256250D02*
X33900000Y-31743750D01*
G75*
G02*
X34118750Y-31525000I218750J0D01*
G01*
X34556250Y-31525000D01*
G75*
G02*
X34775000Y-31743750I0J-218750D01*
G01*
X34775000Y-32256250D01*
G75*
G02*
X34556250Y-32475000I-218750J0D01*
G01*
X34118750Y-32475000D01*
G75*
G02*
X33900000Y-32256250I0J218750D01*
G01*
G37*
G36*
G01*
X35475000Y-32256250D02*
X35475000Y-31743750D01*
G75*
G02*
X35693750Y-31525000I218750J0D01*
G01*
X36131250Y-31525000D01*
G75*
G02*
X36350000Y-31743750I0J-218750D01*
G01*
X36350000Y-32256250D01*
G75*
G02*
X36131250Y-32475000I-218750J0D01*
G01*
X35693750Y-32475000D01*
G75*
G02*
X35475000Y-32256250I0J218750D01*
G01*
G37*
G36*
G01*
X37900000Y-38256250D02*
X37900000Y-37743750D01*
G75*
G02*
X38118750Y-37525000I218750J0D01*
G01*
X38556250Y-37525000D01*
G75*
G02*
X38775000Y-37743750I0J-218750D01*
G01*
X38775000Y-38256250D01*
G75*
G02*
X38556250Y-38475000I-218750J0D01*
G01*
X38118750Y-38475000D01*
G75*
G02*
X37900000Y-38256250I0J218750D01*
G01*
G37*
G36*
G01*
X39475000Y-38256250D02*
X39475000Y-37743750D01*
G75*
G02*
X39693750Y-37525000I218750J0D01*
G01*
X40131250Y-37525000D01*
G75*
G02*
X40350000Y-37743750I0J-218750D01*
G01*
X40350000Y-38256250D01*
G75*
G02*
X40131250Y-38475000I-218750J0D01*
G01*
X39693750Y-38475000D01*
G75*
G02*
X39475000Y-38256250I0J218750D01*
G01*
G37*
G36*
G01*
X41900000Y-38256250D02*
X41900000Y-37743750D01*
G75*
G02*
X42118750Y-37525000I218750J0D01*
G01*
X42556250Y-37525000D01*
G75*
G02*
X42775000Y-37743750I0J-218750D01*
G01*
X42775000Y-38256250D01*
G75*
G02*
X42556250Y-38475000I-218750J0D01*
G01*
X42118750Y-38475000D01*
G75*
G02*
X41900000Y-38256250I0J218750D01*
G01*
G37*
G36*
G01*
X43475000Y-38256250D02*
X43475000Y-37743750D01*
G75*
G02*
X43693750Y-37525000I218750J0D01*
G01*
X44131250Y-37525000D01*
G75*
G02*
X44350000Y-37743750I0J-218750D01*
G01*
X44350000Y-38256250D01*
G75*
G02*
X44131250Y-38475000I-218750J0D01*
G01*
X43693750Y-38475000D01*
G75*
G02*
X43475000Y-38256250I0J218750D01*
G01*
G37*
G36*
G01*
X29900000Y-38256250D02*
X29900000Y-37743750D01*
G75*
G02*
X30118750Y-37525000I218750J0D01*
G01*
X30556250Y-37525000D01*
G75*
G02*
X30775000Y-37743750I0J-218750D01*
G01*
X30775000Y-38256250D01*
G75*
G02*
X30556250Y-38475000I-218750J0D01*
G01*
X30118750Y-38475000D01*
G75*
G02*
X29900000Y-38256250I0J218750D01*
G01*
G37*
G36*
G01*
X31475000Y-38256250D02*
X31475000Y-37743750D01*
G75*
G02*
X31693750Y-37525000I218750J0D01*
G01*
X32131250Y-37525000D01*
G75*
G02*
X32350000Y-37743750I0J-218750D01*
G01*
X32350000Y-38256250D01*
G75*
G02*
X32131250Y-38475000I-218750J0D01*
G01*
X31693750Y-38475000D01*
G75*
G02*
X31475000Y-38256250I0J218750D01*
G01*
G37*
G36*
G01*
X41900000Y-29256250D02*
X41900000Y-28743750D01*
G75*
G02*
X42118750Y-28525000I218750J0D01*
G01*
X42556250Y-28525000D01*
G75*
G02*
X42775000Y-28743750I0J-218750D01*
G01*
X42775000Y-29256250D01*
G75*
G02*
X42556250Y-29475000I-218750J0D01*
G01*
X42118750Y-29475000D01*
G75*
G02*
X41900000Y-29256250I0J218750D01*
G01*
G37*
G36*
G01*
X43475000Y-29256250D02*
X43475000Y-28743750D01*
G75*
G02*
X43693750Y-28525000I218750J0D01*
G01*
X44131250Y-28525000D01*
G75*
G02*
X44350000Y-28743750I0J-218750D01*
G01*
X44350000Y-29256250D01*
G75*
G02*
X44131250Y-29475000I-218750J0D01*
G01*
X43693750Y-29475000D01*
G75*
G02*
X43475000Y-29256250I0J218750D01*
G01*
G37*
G36*
G01*
X33900000Y-35256250D02*
X33900000Y-34743750D01*
G75*
G02*
X34118750Y-34525000I218750J0D01*
G01*
X34556250Y-34525000D01*
G75*
G02*
X34775000Y-34743750I0J-218750D01*
G01*
X34775000Y-35256250D01*
G75*
G02*
X34556250Y-35475000I-218750J0D01*
G01*
X34118750Y-35475000D01*
G75*
G02*
X33900000Y-35256250I0J218750D01*
G01*
G37*
G36*
G01*
X35475000Y-35256250D02*
X35475000Y-34743750D01*
G75*
G02*
X35693750Y-34525000I218750J0D01*
G01*
X36131250Y-34525000D01*
G75*
G02*
X36350000Y-34743750I0J-218750D01*
G01*
X36350000Y-35256250D01*
G75*
G02*
X36131250Y-35475000I-218750J0D01*
G01*
X35693750Y-35475000D01*
G75*
G02*
X35475000Y-35256250I0J218750D01*
G01*
G37*
G36*
G01*
X41900000Y-35256250D02*
X41900000Y-34743750D01*
G75*
G02*
X42118750Y-34525000I218750J0D01*
G01*
X42556250Y-34525000D01*
G75*
G02*
X42775000Y-34743750I0J-218750D01*
G01*
X42775000Y-35256250D01*
G75*
G02*
X42556250Y-35475000I-218750J0D01*
G01*
X42118750Y-35475000D01*
G75*
G02*
X41900000Y-35256250I0J218750D01*
G01*
G37*
G36*
G01*
X43475000Y-35256250D02*
X43475000Y-34743750D01*
G75*
G02*
X43693750Y-34525000I218750J0D01*
G01*
X44131250Y-34525000D01*
G75*
G02*
X44350000Y-34743750I0J-218750D01*
G01*
X44350000Y-35256250D01*
G75*
G02*
X44131250Y-35475000I-218750J0D01*
G01*
X43693750Y-35475000D01*
G75*
G02*
X43475000Y-35256250I0J218750D01*
G01*
G37*
G36*
G01*
X29900000Y-32256250D02*
X29900000Y-31743750D01*
G75*
G02*
X30118750Y-31525000I218750J0D01*
G01*
X30556250Y-31525000D01*
G75*
G02*
X30775000Y-31743750I0J-218750D01*
G01*
X30775000Y-32256250D01*
G75*
G02*
X30556250Y-32475000I-218750J0D01*
G01*
X30118750Y-32475000D01*
G75*
G02*
X29900000Y-32256250I0J218750D01*
G01*
G37*
G36*
G01*
X31475000Y-32256250D02*
X31475000Y-31743750D01*
G75*
G02*
X31693750Y-31525000I218750J0D01*
G01*
X32131250Y-31525000D01*
G75*
G02*
X32350000Y-31743750I0J-218750D01*
G01*
X32350000Y-32256250D01*
G75*
G02*
X32131250Y-32475000I-218750J0D01*
G01*
X31693750Y-32475000D01*
G75*
G02*
X31475000Y-32256250I0J218750D01*
G01*
G37*
G36*
G01*
X37900000Y-29256250D02*
X37900000Y-28743750D01*
G75*
G02*
X38118750Y-28525000I218750J0D01*
G01*
X38556250Y-28525000D01*
G75*
G02*
X38775000Y-28743750I0J-218750D01*
G01*
X38775000Y-29256250D01*
G75*
G02*
X38556250Y-29475000I-218750J0D01*
G01*
X38118750Y-29475000D01*
G75*
G02*
X37900000Y-29256250I0J218750D01*
G01*
G37*
G36*
G01*
X39475000Y-29256250D02*
X39475000Y-28743750D01*
G75*
G02*
X39693750Y-28525000I218750J0D01*
G01*
X40131250Y-28525000D01*
G75*
G02*
X40350000Y-28743750I0J-218750D01*
G01*
X40350000Y-29256250D01*
G75*
G02*
X40131250Y-29475000I-218750J0D01*
G01*
X39693750Y-29475000D01*
G75*
G02*
X39475000Y-29256250I0J218750D01*
G01*
G37*
G36*
G01*
X37900000Y-35256250D02*
X37900000Y-34743750D01*
G75*
G02*
X38118750Y-34525000I218750J0D01*
G01*
X38556250Y-34525000D01*
G75*
G02*
X38775000Y-34743750I0J-218750D01*
G01*
X38775000Y-35256250D01*
G75*
G02*
X38556250Y-35475000I-218750J0D01*
G01*
X38118750Y-35475000D01*
G75*
G02*
X37900000Y-35256250I0J218750D01*
G01*
G37*
G36*
G01*
X39475000Y-35256250D02*
X39475000Y-34743750D01*
G75*
G02*
X39693750Y-34525000I218750J0D01*
G01*
X40131250Y-34525000D01*
G75*
G02*
X40350000Y-34743750I0J-218750D01*
G01*
X40350000Y-35256250D01*
G75*
G02*
X40131250Y-35475000I-218750J0D01*
G01*
X39693750Y-35475000D01*
G75*
G02*
X39475000Y-35256250I0J218750D01*
G01*
G37*
G36*
G01*
X33900000Y-29256250D02*
X33900000Y-28743750D01*
G75*
G02*
X34118750Y-28525000I218750J0D01*
G01*
X34556250Y-28525000D01*
G75*
G02*
X34775000Y-28743750I0J-218750D01*
G01*
X34775000Y-29256250D01*
G75*
G02*
X34556250Y-29475000I-218750J0D01*
G01*
X34118750Y-29475000D01*
G75*
G02*
X33900000Y-29256250I0J218750D01*
G01*
G37*
G36*
G01*
X35475000Y-29256250D02*
X35475000Y-28743750D01*
G75*
G02*
X35693750Y-28525000I218750J0D01*
G01*
X36131250Y-28525000D01*
G75*
G02*
X36350000Y-28743750I0J-218750D01*
G01*
X36350000Y-29256250D01*
G75*
G02*
X36131250Y-29475000I-218750J0D01*
G01*
X35693750Y-29475000D01*
G75*
G02*
X35475000Y-29256250I0J218750D01*
G01*
G37*
G36*
G01*
X37900000Y-32256250D02*
X37900000Y-31743750D01*
G75*
G02*
X38118750Y-31525000I218750J0D01*
G01*
X38556250Y-31525000D01*
G75*
G02*
X38775000Y-31743750I0J-218750D01*
G01*
X38775000Y-32256250D01*
G75*
G02*
X38556250Y-32475000I-218750J0D01*
G01*
X38118750Y-32475000D01*
G75*
G02*
X37900000Y-32256250I0J218750D01*
G01*
G37*
G36*
G01*
X39475000Y-32256250D02*
X39475000Y-31743750D01*
G75*
G02*
X39693750Y-31525000I218750J0D01*
G01*
X40131250Y-31525000D01*
G75*
G02*
X40350000Y-31743750I0J-218750D01*
G01*
X40350000Y-32256250D01*
G75*
G02*
X40131250Y-32475000I-218750J0D01*
G01*
X39693750Y-32475000D01*
G75*
G02*
X39475000Y-32256250I0J218750D01*
G01*
G37*
G36*
G01*
X33900000Y-38256250D02*
X33900000Y-37743750D01*
G75*
G02*
X34118750Y-37525000I218750J0D01*
G01*
X34556250Y-37525000D01*
G75*
G02*
X34775000Y-37743750I0J-218750D01*
G01*
X34775000Y-38256250D01*
G75*
G02*
X34556250Y-38475000I-218750J0D01*
G01*
X34118750Y-38475000D01*
G75*
G02*
X33900000Y-38256250I0J218750D01*
G01*
G37*
G36*
G01*
X35475000Y-38256250D02*
X35475000Y-37743750D01*
G75*
G02*
X35693750Y-37525000I218750J0D01*
G01*
X36131250Y-37525000D01*
G75*
G02*
X36350000Y-37743750I0J-218750D01*
G01*
X36350000Y-38256250D01*
G75*
G02*
X36131250Y-38475000I-218750J0D01*
G01*
X35693750Y-38475000D01*
G75*
G02*
X35475000Y-38256250I0J218750D01*
G01*
G37*
G36*
G01*
X29900000Y-29256250D02*
X29900000Y-28743750D01*
G75*
G02*
X30118750Y-28525000I218750J0D01*
G01*
X30556250Y-28525000D01*
G75*
G02*
X30775000Y-28743750I0J-218750D01*
G01*
X30775000Y-29256250D01*
G75*
G02*
X30556250Y-29475000I-218750J0D01*
G01*
X30118750Y-29475000D01*
G75*
G02*
X29900000Y-29256250I0J218750D01*
G01*
G37*
G36*
G01*
X31475000Y-29256250D02*
X31475000Y-28743750D01*
G75*
G02*
X31693750Y-28525000I218750J0D01*
G01*
X32131250Y-28525000D01*
G75*
G02*
X32350000Y-28743750I0J-218750D01*
G01*
X32350000Y-29256250D01*
G75*
G02*
X32131250Y-29475000I-218750J0D01*
G01*
X31693750Y-29475000D01*
G75*
G02*
X31475000Y-29256250I0J218750D01*
G01*
G37*
G36*
G01*
X41900000Y-26256250D02*
X41900000Y-25743750D01*
G75*
G02*
X42118750Y-25525000I218750J0D01*
G01*
X42556250Y-25525000D01*
G75*
G02*
X42775000Y-25743750I0J-218750D01*
G01*
X42775000Y-26256250D01*
G75*
G02*
X42556250Y-26475000I-218750J0D01*
G01*
X42118750Y-26475000D01*
G75*
G02*
X41900000Y-26256250I0J218750D01*
G01*
G37*
G36*
G01*
X43475000Y-26256250D02*
X43475000Y-25743750D01*
G75*
G02*
X43693750Y-25525000I218750J0D01*
G01*
X44131250Y-25525000D01*
G75*
G02*
X44350000Y-25743750I0J-218750D01*
G01*
X44350000Y-26256250D01*
G75*
G02*
X44131250Y-26475000I-218750J0D01*
G01*
X43693750Y-26475000D01*
G75*
G02*
X43475000Y-26256250I0J218750D01*
G01*
G37*
G36*
G01*
X37900000Y-26256250D02*
X37900000Y-25743750D01*
G75*
G02*
X38118750Y-25525000I218750J0D01*
G01*
X38556250Y-25525000D01*
G75*
G02*
X38775000Y-25743750I0J-218750D01*
G01*
X38775000Y-26256250D01*
G75*
G02*
X38556250Y-26475000I-218750J0D01*
G01*
X38118750Y-26475000D01*
G75*
G02*
X37900000Y-26256250I0J218750D01*
G01*
G37*
G36*
G01*
X39475000Y-26256250D02*
X39475000Y-25743750D01*
G75*
G02*
X39693750Y-25525000I218750J0D01*
G01*
X40131250Y-25525000D01*
G75*
G02*
X40350000Y-25743750I0J-218750D01*
G01*
X40350000Y-26256250D01*
G75*
G02*
X40131250Y-26475000I-218750J0D01*
G01*
X39693750Y-26475000D01*
G75*
G02*
X39475000Y-26256250I0J218750D01*
G01*
G37*
G36*
G01*
X33900000Y-26256250D02*
X33900000Y-25743750D01*
G75*
G02*
X34118750Y-25525000I218750J0D01*
G01*
X34556250Y-25525000D01*
G75*
G02*
X34775000Y-25743750I0J-218750D01*
G01*
X34775000Y-26256250D01*
G75*
G02*
X34556250Y-26475000I-218750J0D01*
G01*
X34118750Y-26475000D01*
G75*
G02*
X33900000Y-26256250I0J218750D01*
G01*
G37*
G36*
G01*
X35475000Y-26256250D02*
X35475000Y-25743750D01*
G75*
G02*
X35693750Y-25525000I218750J0D01*
G01*
X36131250Y-25525000D01*
G75*
G02*
X36350000Y-25743750I0J-218750D01*
G01*
X36350000Y-26256250D01*
G75*
G02*
X36131250Y-26475000I-218750J0D01*
G01*
X35693750Y-26475000D01*
G75*
G02*
X35475000Y-26256250I0J218750D01*
G01*
G37*
G36*
G01*
X29900000Y-26256250D02*
X29900000Y-25743750D01*
G75*
G02*
X30118750Y-25525000I218750J0D01*
G01*
X30556250Y-25525000D01*
G75*
G02*
X30775000Y-25743750I0J-218750D01*
G01*
X30775000Y-26256250D01*
G75*
G02*
X30556250Y-26475000I-218750J0D01*
G01*
X30118750Y-26475000D01*
G75*
G02*
X29900000Y-26256250I0J218750D01*
G01*
G37*
G36*
G01*
X31475000Y-26256250D02*
X31475000Y-25743750D01*
G75*
G02*
X31693750Y-25525000I218750J0D01*
G01*
X32131250Y-25525000D01*
G75*
G02*
X32350000Y-25743750I0J-218750D01*
G01*
X32350000Y-26256250D01*
G75*
G02*
X32131250Y-26475000I-218750J0D01*
G01*
X31693750Y-26475000D01*
G75*
G02*
X31475000Y-26256250I0J218750D01*
G01*
G37*
G36*
G01*
X41900000Y-23256250D02*
X41900000Y-22743750D01*
G75*
G02*
X42118750Y-22525000I218750J0D01*
G01*
X42556250Y-22525000D01*
G75*
G02*
X42775000Y-22743750I0J-218750D01*
G01*
X42775000Y-23256250D01*
G75*
G02*
X42556250Y-23475000I-218750J0D01*
G01*
X42118750Y-23475000D01*
G75*
G02*
X41900000Y-23256250I0J218750D01*
G01*
G37*
G36*
G01*
X43475000Y-23256250D02*
X43475000Y-22743750D01*
G75*
G02*
X43693750Y-22525000I218750J0D01*
G01*
X44131250Y-22525000D01*
G75*
G02*
X44350000Y-22743750I0J-218750D01*
G01*
X44350000Y-23256250D01*
G75*
G02*
X44131250Y-23475000I-218750J0D01*
G01*
X43693750Y-23475000D01*
G75*
G02*
X43475000Y-23256250I0J218750D01*
G01*
G37*
G36*
G01*
X29900000Y-23256250D02*
X29900000Y-22743750D01*
G75*
G02*
X30118750Y-22525000I218750J0D01*
G01*
X30556250Y-22525000D01*
G75*
G02*
X30775000Y-22743750I0J-218750D01*
G01*
X30775000Y-23256250D01*
G75*
G02*
X30556250Y-23475000I-218750J0D01*
G01*
X30118750Y-23475000D01*
G75*
G02*
X29900000Y-23256250I0J218750D01*
G01*
G37*
G36*
G01*
X31475000Y-23256250D02*
X31475000Y-22743750D01*
G75*
G02*
X31693750Y-22525000I218750J0D01*
G01*
X32131250Y-22525000D01*
G75*
G02*
X32350000Y-22743750I0J-218750D01*
G01*
X32350000Y-23256250D01*
G75*
G02*
X32131250Y-23475000I-218750J0D01*
G01*
X31693750Y-23475000D01*
G75*
G02*
X31475000Y-23256250I0J218750D01*
G01*
G37*
G36*
G01*
X37900000Y-23256250D02*
X37900000Y-22743750D01*
G75*
G02*
X38118750Y-22525000I218750J0D01*
G01*
X38556250Y-22525000D01*
G75*
G02*
X38775000Y-22743750I0J-218750D01*
G01*
X38775000Y-23256250D01*
G75*
G02*
X38556250Y-23475000I-218750J0D01*
G01*
X38118750Y-23475000D01*
G75*
G02*
X37900000Y-23256250I0J218750D01*
G01*
G37*
G36*
G01*
X39475000Y-23256250D02*
X39475000Y-22743750D01*
G75*
G02*
X39693750Y-22525000I218750J0D01*
G01*
X40131250Y-22525000D01*
G75*
G02*
X40350000Y-22743750I0J-218750D01*
G01*
X40350000Y-23256250D01*
G75*
G02*
X40131250Y-23475000I-218750J0D01*
G01*
X39693750Y-23475000D01*
G75*
G02*
X39475000Y-23256250I0J218750D01*
G01*
G37*
G36*
G01*
X33900000Y-23256250D02*
X33900000Y-22743750D01*
G75*
G02*
X34118750Y-22525000I218750J0D01*
G01*
X34556250Y-22525000D01*
G75*
G02*
X34775000Y-22743750I0J-218750D01*
G01*
X34775000Y-23256250D01*
G75*
G02*
X34556250Y-23475000I-218750J0D01*
G01*
X34118750Y-23475000D01*
G75*
G02*
X33900000Y-23256250I0J218750D01*
G01*
G37*
G36*
G01*
X35475000Y-23256250D02*
X35475000Y-22743750D01*
G75*
G02*
X35693750Y-22525000I218750J0D01*
G01*
X36131250Y-22525000D01*
G75*
G02*
X36350000Y-22743750I0J-218750D01*
G01*
X36350000Y-23256250D01*
G75*
G02*
X36131250Y-23475000I-218750J0D01*
G01*
X35693750Y-23475000D01*
G75*
G02*
X35475000Y-23256250I0J218750D01*
G01*
G37*
D13*
X65120000Y-46000000D03*
X66560000Y-46000000D03*
X68000000Y-46000000D03*
X69440000Y-46000000D03*
X70880000Y-46000000D03*
X70880000Y-36000000D03*
X69440000Y-36000000D03*
X68000000Y-36000000D03*
X66560000Y-36000000D03*
X65120000Y-36000000D03*
X49120000Y-46000000D03*
X50560000Y-46000000D03*
X52000000Y-46000000D03*
X53440000Y-46000000D03*
X54880000Y-46000000D03*
X54880000Y-36000000D03*
X53440000Y-36000000D03*
X52000000Y-36000000D03*
X50560000Y-36000000D03*
X49120000Y-36000000D03*
G36*
G01*
X18256250Y-50575000D02*
X17743750Y-50575000D01*
G75*
G02*
X17525000Y-50356250I0J218750D01*
G01*
X17525000Y-49918750D01*
G75*
G02*
X17743750Y-49700000I218750J0D01*
G01*
X18256250Y-49700000D01*
G75*
G02*
X18475000Y-49918750I0J-218750D01*
G01*
X18475000Y-50356250D01*
G75*
G02*
X18256250Y-50575000I-218750J0D01*
G01*
G37*
G36*
G01*
X18256250Y-49000000D02*
X17743750Y-49000000D01*
G75*
G02*
X17525000Y-48781250I0J218750D01*
G01*
X17525000Y-48343750D01*
G75*
G02*
X17743750Y-48125000I218750J0D01*
G01*
X18256250Y-48125000D01*
G75*
G02*
X18475000Y-48343750I0J-218750D01*
G01*
X18475000Y-48781250D01*
G75*
G02*
X18256250Y-49000000I-218750J0D01*
G01*
G37*
G36*
G01*
X30675000Y-54756250D02*
X30675000Y-54243750D01*
G75*
G02*
X30893750Y-54025000I218750J0D01*
G01*
X31331250Y-54025000D01*
G75*
G02*
X31550000Y-54243750I0J-218750D01*
G01*
X31550000Y-54756250D01*
G75*
G02*
X31331250Y-54975000I-218750J0D01*
G01*
X30893750Y-54975000D01*
G75*
G02*
X30675000Y-54756250I0J218750D01*
G01*
G37*
G36*
G01*
X32250000Y-54756250D02*
X32250000Y-54243750D01*
G75*
G02*
X32468750Y-54025000I218750J0D01*
G01*
X32906250Y-54025000D01*
G75*
G02*
X33125000Y-54243750I0J-218750D01*
G01*
X33125000Y-54756250D01*
G75*
G02*
X32906250Y-54975000I-218750J0D01*
G01*
X32468750Y-54975000D01*
G75*
G02*
X32250000Y-54756250I0J218750D01*
G01*
G37*
G36*
G01*
X18756250Y-46075000D02*
X18243750Y-46075000D01*
G75*
G02*
X18025000Y-45856250I0J218750D01*
G01*
X18025000Y-45418750D01*
G75*
G02*
X18243750Y-45200000I218750J0D01*
G01*
X18756250Y-45200000D01*
G75*
G02*
X18975000Y-45418750I0J-218750D01*
G01*
X18975000Y-45856250D01*
G75*
G02*
X18756250Y-46075000I-218750J0D01*
G01*
G37*
G36*
G01*
X18756250Y-44500000D02*
X18243750Y-44500000D01*
G75*
G02*
X18025000Y-44281250I0J218750D01*
G01*
X18025000Y-43843750D01*
G75*
G02*
X18243750Y-43625000I218750J0D01*
G01*
X18756250Y-43625000D01*
G75*
G02*
X18975000Y-43843750I0J-218750D01*
G01*
X18975000Y-44281250D01*
G75*
G02*
X18756250Y-44500000I-218750J0D01*
G01*
G37*
G36*
G01*
X18256250Y-54725000D02*
X17743750Y-54725000D01*
G75*
G02*
X17525000Y-54506250I0J218750D01*
G01*
X17525000Y-54068750D01*
G75*
G02*
X17743750Y-53850000I218750J0D01*
G01*
X18256250Y-53850000D01*
G75*
G02*
X18475000Y-54068750I0J-218750D01*
G01*
X18475000Y-54506250D01*
G75*
G02*
X18256250Y-54725000I-218750J0D01*
G01*
G37*
G36*
G01*
X18256250Y-53150000D02*
X17743750Y-53150000D01*
G75*
G02*
X17525000Y-52931250I0J218750D01*
G01*
X17525000Y-52493750D01*
G75*
G02*
X17743750Y-52275000I218750J0D01*
G01*
X18256250Y-52275000D01*
G75*
G02*
X18475000Y-52493750I0J-218750D01*
G01*
X18475000Y-52931250D01*
G75*
G02*
X18256250Y-53150000I-218750J0D01*
G01*
G37*
D14*
X25800000Y-54000000D03*
X25000000Y-54000000D03*
X24200000Y-54000000D03*
X23400000Y-54000000D03*
X23400000Y-55700000D03*
X24200000Y-55700000D03*
X25000000Y-55700000D03*
X25800000Y-55700000D03*
G36*
G01*
X21456250Y-52625000D02*
X20943750Y-52625000D01*
G75*
G02*
X20725000Y-52406250I0J218750D01*
G01*
X20725000Y-51968750D01*
G75*
G02*
X20943750Y-51750000I218750J0D01*
G01*
X21456250Y-51750000D01*
G75*
G02*
X21675000Y-51968750I0J-218750D01*
G01*
X21675000Y-52406250D01*
G75*
G02*
X21456250Y-52625000I-218750J0D01*
G01*
G37*
G36*
G01*
X21456250Y-51050000D02*
X20943750Y-51050000D01*
G75*
G02*
X20725000Y-50831250I0J218750D01*
G01*
X20725000Y-50393750D01*
G75*
G02*
X20943750Y-50175000I218750J0D01*
G01*
X21456250Y-50175000D01*
G75*
G02*
X21675000Y-50393750I0J-218750D01*
G01*
X21675000Y-50831250D01*
G75*
G02*
X21456250Y-51050000I-218750J0D01*
G01*
G37*
G36*
G01*
X20943750Y-47125000D02*
X21456250Y-47125000D01*
G75*
G02*
X21675000Y-47343750I0J-218750D01*
G01*
X21675000Y-47781250D01*
G75*
G02*
X21456250Y-48000000I-218750J0D01*
G01*
X20943750Y-48000000D01*
G75*
G02*
X20725000Y-47781250I0J218750D01*
G01*
X20725000Y-47343750D01*
G75*
G02*
X20943750Y-47125000I218750J0D01*
G01*
G37*
G36*
G01*
X20943750Y-48700000D02*
X21456250Y-48700000D01*
G75*
G02*
X21675000Y-48918750I0J-218750D01*
G01*
X21675000Y-49356250D01*
G75*
G02*
X21456250Y-49575000I-218750J0D01*
G01*
X20943750Y-49575000D01*
G75*
G02*
X20725000Y-49356250I0J218750D01*
G01*
X20725000Y-48918750D01*
G75*
G02*
X20943750Y-48700000I218750J0D01*
G01*
G37*
G36*
G01*
X28275000Y-53006250D02*
X28275000Y-52493750D01*
G75*
G02*
X28493750Y-52275000I218750J0D01*
G01*
X28931250Y-52275000D01*
G75*
G02*
X29150000Y-52493750I0J-218750D01*
G01*
X29150000Y-53006250D01*
G75*
G02*
X28931250Y-53225000I-218750J0D01*
G01*
X28493750Y-53225000D01*
G75*
G02*
X28275000Y-53006250I0J218750D01*
G01*
G37*
G36*
G01*
X29850000Y-53006250D02*
X29850000Y-52493750D01*
G75*
G02*
X30068750Y-52275000I218750J0D01*
G01*
X30506250Y-52275000D01*
G75*
G02*
X30725000Y-52493750I0J-218750D01*
G01*
X30725000Y-53006250D01*
G75*
G02*
X30506250Y-53225000I-218750J0D01*
G01*
X30068750Y-53225000D01*
G75*
G02*
X29850000Y-53006250I0J218750D01*
G01*
G37*
G36*
G01*
X21043750Y-41225000D02*
X21556250Y-41225000D01*
G75*
G02*
X21775000Y-41443750I0J-218750D01*
G01*
X21775000Y-41881250D01*
G75*
G02*
X21556250Y-42100000I-218750J0D01*
G01*
X21043750Y-42100000D01*
G75*
G02*
X20825000Y-41881250I0J218750D01*
G01*
X20825000Y-41443750D01*
G75*
G02*
X21043750Y-41225000I218750J0D01*
G01*
G37*
G36*
G01*
X21043750Y-42800000D02*
X21556250Y-42800000D01*
G75*
G02*
X21775000Y-43018750I0J-218750D01*
G01*
X21775000Y-43456250D01*
G75*
G02*
X21556250Y-43675000I-218750J0D01*
G01*
X21043750Y-43675000D01*
G75*
G02*
X20825000Y-43456250I0J218750D01*
G01*
X20825000Y-43018750D01*
G75*
G02*
X21043750Y-42800000I218750J0D01*
G01*
G37*
G36*
G01*
X31375000Y-53006250D02*
X31375000Y-52493750D01*
G75*
G02*
X31593750Y-52275000I218750J0D01*
G01*
X32031250Y-52275000D01*
G75*
G02*
X32250000Y-52493750I0J-218750D01*
G01*
X32250000Y-53006250D01*
G75*
G02*
X32031250Y-53225000I-218750J0D01*
G01*
X31593750Y-53225000D01*
G75*
G02*
X31375000Y-53006250I0J218750D01*
G01*
G37*
G36*
G01*
X32950000Y-53006250D02*
X32950000Y-52493750D01*
G75*
G02*
X33168750Y-52275000I218750J0D01*
G01*
X33606250Y-52275000D01*
G75*
G02*
X33825000Y-52493750I0J-218750D01*
G01*
X33825000Y-53006250D01*
G75*
G02*
X33606250Y-53225000I-218750J0D01*
G01*
X33168750Y-53225000D01*
G75*
G02*
X32950000Y-53006250I0J218750D01*
G01*
G37*
M02*
